G04 Layer_Physical_Order=2*
G04 Layer_Color=16711680*
%FSAX25Y25*%
%MOIN*%
G70*
G01*
G75*
%ADD12C,0.01575*%
%ADD13C,0.00819*%
%ADD15R,0.05000X0.67000*%
%ADD16R,0.05000X0.72000*%
%ADD18C,0.03937*%
%ADD19R,0.05905X0.05905*%
%ADD20R,0.06693X0.06693*%
%ADD21C,0.05118*%
%ADD22R,0.05512X0.05512*%
%ADD23C,0.05512*%
%ADD24C,0.25590*%
%ADD25R,0.24000X0.54772*%
%ADD26R,0.24000X0.27000*%
D12*
X0224129Y0445000D02*
X0232000D01*
Y0441064D01*
X0230688Y0439752D01*
X0229376D01*
X0228064Y0441064D01*
Y0445000D01*
Y0441064D01*
X0226752Y0439752D01*
X0225440D01*
X0224129Y0441064D01*
Y0445000D01*
Y0433193D02*
Y0435817D01*
X0225440Y0437128D01*
X0230688D01*
X0232000Y0435817D01*
Y0433193D01*
X0230688Y0431881D01*
X0225440D01*
X0224129Y0433193D01*
Y0429257D02*
Y0424009D01*
Y0426633D01*
X0232000D01*
X0224129Y0421386D02*
Y0416138D01*
Y0418762D01*
X0232000D01*
X0224129Y0409578D02*
Y0412202D01*
X0225440Y0413514D01*
X0230688D01*
X0232000Y0412202D01*
Y0409578D01*
X0230688Y0408266D01*
X0225440D01*
X0224129Y0409578D01*
X0232000Y0405643D02*
X0224129D01*
X0226752Y0403019D01*
X0224129Y0400395D01*
X0232000D01*
D13*
Y0400000D02*
Y0455000D01*
D15*
X0218500Y0427500D02*
D03*
D16*
X0237500Y0429000D02*
D03*
D18*
X0241000Y0315000D02*
D03*
X0232000Y0235995D02*
D03*
X0216000Y0241494D02*
D03*
X0240500Y0241995D02*
D03*
X0216000Y0260494D02*
D03*
X0240500D02*
D03*
X0216000Y0288506D02*
D03*
X0240500D02*
D03*
X0224500Y0235995D02*
D03*
X0232268Y0291988D02*
D03*
D19*
X0232000Y0245905D02*
D03*
X0216000Y0251406D02*
D03*
X0240500Y0251905D02*
D03*
X0216000Y0270406D02*
D03*
X0240500D02*
D03*
X0216000Y0278594D02*
D03*
X0240500D02*
D03*
X0224500Y0245905D02*
D03*
D20*
X0215500Y0296094D02*
D03*
X0240500D02*
D03*
X0224000Y0320094D02*
D03*
X0233000D02*
D03*
D21*
X0215500Y0307906D02*
D03*
X0240500D02*
D03*
X0224000Y0331906D02*
D03*
X0233000D02*
D03*
D22*
X0224394Y0311673D02*
D03*
D23*
X0232268D02*
D03*
Y0303799D02*
D03*
X0224394D02*
D03*
X0232268Y0295925D02*
D03*
X0224394D02*
D03*
X0232268Y0288051D02*
D03*
X0224394D02*
D03*
X0232268Y0280177D02*
D03*
X0224394D02*
D03*
Y0256555D02*
D03*
X0232268D02*
D03*
X0224394Y0264429D02*
D03*
X0232268D02*
D03*
Y0272303D02*
D03*
X0224394D02*
D03*
D24*
X0227984Y0461728D02*
D03*
Y0146728D02*
D03*
D25*
X0227984Y0367886D02*
D03*
D26*
X0227969Y0159500D02*
D03*
M02*
