G04 Layer_Physical_Order=1*
G04 Layer_Color=255*
%FSAX25Y25*%
%MOIN*%
G70*
G01*
G75*
%ADD10C,0.04724*%
%ADD11C,0.01181*%
%ADD12C,0.01575*%
%ADD13C,0.00819*%
%ADD14R,0.24000X0.54772*%
%ADD15R,0.05000X0.67000*%
%ADD16R,0.05000X0.72000*%
%ADD17R,0.24000X0.82000*%
%ADD18C,0.03937*%
%ADD19R,0.05905X0.05905*%
%ADD20R,0.06693X0.06693*%
%ADD21C,0.05118*%
%ADD22R,0.05512X0.05512*%
%ADD23C,0.05512*%
%ADD24C,0.25590*%
D10*
X0232268Y0295925D02*
X0239831D01*
X0232268Y0291988D02*
Y0295925D01*
Y0288051D02*
Y0291988D01*
X0224000Y0320094D02*
X0224394Y0319701D01*
Y0311673D02*
Y0319701D01*
X0232268Y0311673D02*
Y0320000D01*
Y0303799D02*
Y0311673D01*
X0224394Y0303799D02*
Y0311673D01*
X0239831Y0295925D02*
X0240000Y0296094D01*
X0224394Y0288051D02*
Y0295925D01*
X0224224Y0296094D02*
X0224394Y0295925D01*
X0216000Y0296094D02*
X0224224D01*
D11*
X0216500Y0278095D02*
X0218583Y0280177D01*
X0237917D02*
X0240000Y0278095D01*
X0232000Y0245905D02*
X0232268Y0246173D01*
X0236622Y0255283D02*
X0240000Y0251905D01*
X0236622Y0255283D02*
Y0260378D01*
X0232571Y0264429D02*
X0236622Y0260378D01*
X0232268Y0264429D02*
X0232571D01*
X0216500Y0251406D02*
X0220000Y0254906D01*
Y0260035D01*
X0224394Y0264429D01*
D12*
X0216000Y0272303D02*
X0224394D01*
X0232268Y0246173D02*
Y0256555D01*
X0218583Y0280177D02*
X0224394D01*
X0232268D02*
X0237917D01*
X0232268Y0272303D02*
X0239500D01*
X0224500Y0245905D02*
Y0256449D01*
X0224394Y0256555D02*
X0224500Y0256449D01*
X0231872Y0445000D02*
Y0439752D01*
Y0442376D01*
X0224000D01*
X0231872Y0433193D02*
Y0435817D01*
X0230560Y0437128D01*
X0225312D01*
X0224000Y0435817D01*
Y0433193D01*
X0225312Y0431881D01*
X0230560D01*
X0231872Y0433193D01*
X0224000Y0429257D02*
X0231872D01*
Y0425321D01*
X0230560Y0424009D01*
X0227936D01*
X0226624Y0425321D01*
Y0429257D01*
D13*
X0224000Y0429000D02*
Y0457000D01*
D14*
X0227984Y0367886D02*
D03*
D15*
X0237469Y0427500D02*
D03*
D16*
X0218468Y0429000D02*
D03*
D17*
X0228000Y0187000D02*
D03*
D18*
X0241000Y0315000D02*
D03*
X0232000Y0235995D02*
D03*
X0216000Y0241494D02*
D03*
X0240500Y0241995D02*
D03*
X0216000Y0260494D02*
D03*
X0240500D02*
D03*
X0216000Y0288506D02*
D03*
X0240500D02*
D03*
X0224500Y0235995D02*
D03*
X0232268Y0291988D02*
D03*
D19*
X0232000Y0245905D02*
D03*
X0216000Y0251406D02*
D03*
X0240500Y0251905D02*
D03*
X0216000Y0270406D02*
D03*
X0240500D02*
D03*
X0216000Y0278594D02*
D03*
X0240500D02*
D03*
X0224500Y0245905D02*
D03*
D20*
X0215500Y0296094D02*
D03*
X0240500D02*
D03*
X0224000Y0320094D02*
D03*
X0233000D02*
D03*
D21*
X0215500Y0307906D02*
D03*
X0240500D02*
D03*
X0224000Y0331906D02*
D03*
X0233000D02*
D03*
D22*
X0224394Y0311673D02*
D03*
D23*
X0232268D02*
D03*
Y0303799D02*
D03*
X0224394D02*
D03*
X0232268Y0295925D02*
D03*
X0224394D02*
D03*
X0232268Y0288051D02*
D03*
X0224394D02*
D03*
X0232268Y0280177D02*
D03*
X0224394D02*
D03*
Y0256555D02*
D03*
X0232268D02*
D03*
X0224394Y0264429D02*
D03*
X0232268D02*
D03*
Y0272303D02*
D03*
X0224394D02*
D03*
D24*
X0227984Y0461728D02*
D03*
Y0146728D02*
D03*
M02*
