M48
;Layer_Color=9474304
;FILE_FORMAT=2:5
INCH
;TYPE=PLATED
T3F00S00C0.00984
T4F00S00C0.03150
T5F00S00C0.03543
T6F00S00C0.03937
T7F00S00C0.12598
%
T03
X0014444Y-0011092
X0017444
X0020644Y-0011061
X-0009216Y0016202
X0025584Y0014602
X0039265Y0014502
X0042265Y-0014798
X0023644Y-0011061
X0107084Y-0014598
X0119584Y-0004498
X0138984Y-0007698
X0138084Y-0014098
X0166384Y-0007698
X0176484
X0186484
X0196484
X0206484
X0265284Y0000002
X0268282Y-0000059
X0268884Y0012602
X0271384
X0271484Y0017002
X0261284Y0016902
X0285684Y0016702
X0290484Y0012459
X0299388Y0011602
Y0014602
X0296584Y0002102
X0296684Y-0000258
X0296784Y-0002538
X0293084Y0004502
X0284084Y-0000298
X0282884Y-0003998
X0287417Y-0011639
X0289476
X0292393Y-0011739
X0294386
X0269184Y-0013798
X0333084Y-0006998
X0332819Y0016102
Y0019102
Y0022002
Y0025002
X0334784Y0030102
X0330984Y0047202
X0321584Y0058602
X0321784Y0074702
X0309242Y0068508
X0290384Y0067302
X0288863Y0059504
Y0057511
X0288563Y0051303
Y0049310
X0278584Y0054402
X0278184Y0063302
X0264484Y0064102
X0266984Y0056102
X0253084Y0058302
Y0051402
X0251384Y0046602
X0247584Y0045602
X0233184Y0042902
X0230184
X0237384Y0060402
X0237364Y0072133
X0239366
X0234784Y0093406
X0231784
X0230362Y0110476
X0228365Y0110459
X0236384Y0107702
X0239684Y0113075
Y0115086
X0240374Y0117051
Y0119039
X0245484Y0126502
Y0132102
Y0138102
X0245384Y0143902
X0245002Y0150786
X0249935Y0153946
X0251925
X0258600Y0153594
X0265943Y0153651
X0271784Y0153702
X0272384Y0143902
X0272484Y0138102
Y0132102
Y0126502
X0281384
Y0132102
Y0138102
X0281284Y0143902
X0281400Y0150794
X0286249Y0153665
X0288244
X0295000Y0153594
X0302343Y0153651
X0308700Y0154800
X0308484Y0147602
X0319784Y0147102
X0320100Y0154000
X0314600Y0160900
X0319284Y0166602
X0290000Y0165900
X0284684Y0165302
X0274600Y0166000
X0267100Y0169157
X0269200Y0173300
X0260000Y0165500
X0246400Y0165600
X0235800
X0231440Y0166959
X0232700Y0174700
X0238500Y0174900
X0238384Y0153302
X0233584
X0229243Y0153651
X0221900Y0153594
X0215291Y0153738
X0213292
X0208300Y0150794
X0207200Y0143794
X0209084Y0137602
X0215784Y0137702
X0218700Y0134694
X0224243Y0137251
X0228091Y0137451
X0230083
X0234484Y0137902
Y0131902
Y0126302
X0224200Y0129294
X0211484Y0131702
X0205084Y0130802
X0203556Y0126051
X0203672Y0119177
Y0117059
X0205884Y0107902
X0194184Y0107802
X0194084Y0119402
X0195584Y0130902
X0201984Y0137302
X0195000Y0143600
X0198784Y0151002
X0201285Y0172602
X0208539Y0169600
X0215300Y0166200
X0219628Y0166959
X0234484Y0144002
X0254800Y0134694
X0260945Y0137242
X0264793Y0137442
X0266787
X0260800Y0129294
X0265065Y0110459
X0267063
X0273384Y0107402
X0276778Y0112996
Y0115051
X0276772Y0117059
Y0119098
X0286377Y0113946
X0288441
X0292684Y0109902
X0301465Y0110459
X0303480
X0312784Y0113102
Y0115102
X0319984Y0111002
X0320084Y0127802
X0308184
X0297200Y0129294
X0293100Y0132794
X0297343Y0137251
X0301191Y0137451
X0303205
X0276484Y0146902
X0279884Y0100902
X0265984Y0097002
X0269884Y0091902
X0287884Y0088802
X0297684Y0101902
X0310984Y0102402
X0299884Y0055702
X0300900Y0030000
X0314284Y0028802
X0266584Y0024702
X0255884Y0030202
X0241684Y0025102
X0217684Y0029602
X0210484Y0025002
X0205828Y0028146
X0196784Y0030402
X0185928Y0028146
X0188084Y0024902
X0205684Y0048002
X0209384Y0056802
X0207484Y0079602
X0206484Y0090402
X0213093Y0113761
X0215083
X0219284Y0108102
X0250084Y0107702
X0249979Y0113937
X0251984
X0180884Y0115202
X0180784Y0106002
X0181784Y0128002
X0187984Y0173516
X0176701Y0172502
X0169884Y0172539
X0151884Y0168302
X0136484Y0169202
X0133384Y0171902
X0128884Y0170102
X0128001Y0145000
X0130600Y0140900
X0132084Y0127402
X0121311Y0129539
X0125312Y0114739
X0132384Y0105702
X0121400Y0089700
X0093784Y0083502
X0082584Y0078902
X0082884Y0072702
X0092300Y0054800
X0119200Y0051400
X0108484Y0030202
X0078824Y0030762
X0070924
X0063084Y0031002
X0055184
X0053184Y0037302
X0041193Y0046602
Y0049602
X0040484Y0056102
X0031593Y0064202
X0027893Y0064902
X0027784Y0076202
X0030218Y0076268
X0028884Y0078202
X0034045Y0075843
X0036039
X0040584Y0073202
X0039110Y0087161
X0037093
X0032984Y0087702
X0033384Y0094102
X0034784Y0098402
X0033884Y0101802
X0029343Y0107111
Y0109138
X0037378Y0113244
X0039376
X0043084Y0113102
X0043784Y0117002
X0034307Y0118530
X0032293
X0030084Y0121702
X0026484
X0035384Y0127777
Y0129807
X0038884Y0135002
X0043984Y0128902
X0052284Y0129002
X0052584Y0141202
X0043784Y0141402
X0038643Y0148367
Y0150358
X0038943Y0155511
Y0157504
X0030606Y0157687
X0028393
X0025842
X0023835
X0025484Y0167802
X0033526Y0148303
Y0146311
X0058884Y0146002
X0056184Y0150652
X0053084Y0153202
X0075084Y0151202
X0075426Y0155011
Y0157000
X0090484Y0144602
X0092084Y0139902
Y0135102
X0096134Y0119802
X0099434
X0103865Y0113217
X0106912Y0116239
X0106284Y0143502
X0104858Y0148705
X0103415Y0150136
X0052284Y0110802
X0052584Y0094302
X0052384Y0087402
X0044819Y0087161
X0042575
X0023284Y0087402
X0023484Y0074802
X0028293Y0051302
X0028284Y0048902
X0137241Y0028446
X0147241Y0028646
X0146684Y0024902
X0176784Y0024702
X0175928Y0028046
X0010284Y0035002
X0015384Y0051302
X0015393Y0053702
X0015852Y0070653
Y0072642
X0014784Y0081706
X0017784
X0015984Y0097402
X0015684Y0102802
X0012484Y0115102
X0008984Y0114802
X0006584Y0119402
X0003584
X0011500Y0120311
Y0122327
X0011584Y0127602
Y0129602
X0016184Y0144002
X0019110Y0157687
X0021176
X0010784Y0159502
X0007784
X0012384Y0169302
X-0000811Y0109544
X-0002807
X0001099Y0092711
X0003126
X-0002216Y0087498
X0001984Y0072702
X0000984Y0178302
X0003984
X0002484Y0186502
X0002284Y0202102
X0015384Y0196602
X0015984Y0183202
X0016084Y0215202
X0015684Y0233602
X0015784Y0237102
X0008884Y0237302
X0002984Y0237102
X0000984Y0237002
X0002684Y0244002
X0001080Y0249702
X0000984Y0251902
X0008284Y0268202
X0013682Y0267937
Y0265945
X0016284Y0262102
X0012684Y0282602
X0005526Y0281059
Y0279067
X0000543Y0291454
Y0293449
X0010084Y0302702
X-0001816Y0327302
X-0004416
X-0007449Y0327205
X-0010449
X0038684Y0295702
X0048384Y0297602
X0048428Y0299702
X0055884Y0296602
X0059884Y0285702
X0063284Y0287002
X0063584Y0282002
X0067284Y0288402
X0071664Y0299245
X0076442
X0081219
X0085997
X0090684Y0299102
X0094984Y0300902
X0097884Y0300802
X0100484Y0289602
X0104800Y0290000
X0106600Y0284900
X0110500Y0283900
X0113584Y0278502
X0121684Y0277002
X0121584Y0274702
X0120584Y0283202
X0118684Y0287102
X0121984Y0291202
X0121884Y0294602
X0112084Y0293602
Y0296302
X0134819Y0300329
X0143019Y0297229
X0145384Y0293402
X0150319Y0292929
X0151219Y0297129
X0157819Y0300429
X0150519Y0287129
X0144319Y0280929
X0137819Y0273729
X0137719Y0270429
X0142819Y0265029
X0147419Y0264929
X0157184Y0267629
X0156884Y0274102
X0160584Y0271502
X0169384Y0271402
X0174184Y0272102
X0178184Y0272602
X0179058Y0280129
X0178984Y0284502
X0178884Y0288502
X0179457Y0293329
X0178884Y0299102
X0171219Y0276329
X0164684Y0257002
X0160000Y0238300
X0137026Y0251711
Y0253701
X0140284Y0255502
X0129184Y0257102
X0129584Y0245602
X0115384Y0251702
X0116284Y0256902
X0116184Y0259202
X0111984Y0258802
Y0256302
X0107611Y0257037
X0099784Y0257202
X0099484Y0251202
X0103653Y0249734
X0109184Y0249702
X0096384Y0248302
X0090984Y0248402
X0093684Y0251502
X0090508Y0256979
X0086584Y0263702
X0089184Y0275002
X0089784Y0279702
X0086384Y0278202
X0080411Y0277437
X0081284Y0283102
X0087584Y0284002
X0091284Y0285102
X0102784Y0269702
X0102284Y0264802
X0073684Y0261502
X0070700Y0256202
X0068184
Y0251602
X0062784Y0251202
X0075949Y0252061
X0077953
X0080134
X0082133
X0083593Y0246944
X0085583
X0079884Y0247602
X0078884Y0239760
X0074882Y0239344
X0072893
X0076984Y0224402
X0071684Y0220602
X0071143Y0214902
Y0212911
X0067035Y0215253
X0073684Y0205502
X0075309Y0202509
X0073584Y0199602
X0083684Y0197602
X0085000Y0189700
X0100293Y0185361
X0102284
X0107593Y0185761
X0109583
X0112684Y0187502
X0121284Y0187702
X0128726Y0196211
Y0198232
X0136784Y0203002
X0142484Y0205002
X0146384Y0206002
X0156164Y0203052
X0161282
X0160134Y0194542
Y0191012
X0150924Y0189802
X0147184
X0138628Y0194459
X0143444Y0179000
X0151984Y0180102
X0174084Y0188902
X0176984Y0191402
X0174684Y0193802
X0170184Y0198602
X0166784Y0198802
X0173784Y0203802
X0176584
X0135526Y0213511
Y0215500
X0135426Y0219911
Y0221933
X0118684Y0220802
X0116628Y0215952
X0109784Y0228802
X0105884Y0230102
X0102334Y0229852
X0100584Y0233802
X0107584Y0233602
X0099184Y0226802
X0090184Y0232060
X0090484Y0218202
X0087184Y0217496
X0087428Y0213652
X0107084Y0202502
X0065188Y0191102
Y0188102
X0053184Y0202502
X0044284Y0216402
X0041284Y0216602
X0030869Y0216362
Y0214367
X0025284Y0222102
X0028134Y0225052
X0040084Y0230802
X0042484Y0230902
X0045284Y0230302
X0062284Y0227502
X0043084Y0249802
X0041184Y0255502
X0035484Y0264002
X0029784Y0261902
X0030284Y0267902
X0030066Y0272951
Y0274945
X0044026Y0274866
Y0272867
X0069684Y0271402
X0070384Y0274802
X0069484Y0267102
X0125984Y0282702
X0130084Y0283102
X0132419Y0287129
X0027084Y0184202
X0183084Y0180702
X0187984Y0180602
X0187894Y0177132
X0193984Y0185102
X0195598Y0188302
X0202684Y0187802
X0206584Y0188302
X0208984Y0177302
X0217852Y0185834
X0217984Y0196070
X0222684Y0198702
X0214384Y0203502
X0210444Y0207902
X0201884Y0207202
X0202684Y0200402
X0195598Y0199902
X0195584Y0204359
X0188384
X0179784Y0202202
X0185884Y0192402
X0180184Y0220002
Y0222602
X0198184Y0214602
X0203184Y0214602
X0207584Y0217202
X0210084
Y0220002
X0207584
X0215484Y0218302
X0219284
X0217984Y0213816
X0224084Y0220202
X0223794Y0226932
X0227394
X0225594Y0229122
X0227394Y0231312
X0223794
X0212684Y0231091
X0200184Y0231602
X0204184Y0236502
X0200784Y0254902
X0208584Y0255402
X0213284Y0255002
X0217292Y0255010
X0219284
X0226284Y0255102
X0226984Y0260102
X0223263Y0261111
Y0263102
X0222784Y0277302
X0222684Y0279802
X0229684Y0283902
X0229784Y0286902
X0231584Y0277602
X0231384Y0272102
X0245004Y0272558
Y0276102
Y0279302
Y0282335
X0251384Y0264202
X0255020Y0263211
Y0265201
X0247784Y0260102
X0267820Y0263411
Y0265402
X0282100Y0256000
X0280084Y0227902
X0284784Y0228002
X0301684Y0235902
Y0214902
X0302100Y0203100
X0294884Y0203402
Y0205902
X0312400Y0201900
Y0212600
X0309200Y0183500
X0306500Y0176400
X0287500Y0188200
X0283784Y0184702
X0267884Y0178659
X0265984Y0191806
X0253984Y0191802
X0245984Y0188046
X0239484Y0193364
X0240284Y0198629
X0248484Y0203502
X0244544Y0207902
X0252184Y0213816
X0254384Y0218073
X0248688Y0224628
Y0228128
X0243684Y0228002
Y0224502
Y0221302
X0239984
X0236184Y0213831
X0227744Y0207902
X0231684Y0203502
X0228684Y0190952
X0226084Y0188402
X0242184Y0177602
X0250684Y0180302
X0260484Y0202789
X0266284Y0210902
X0255884Y0232502
X0250284Y0232602
X0251584Y0237002
X0240684Y0232302
X0201584Y0266002
X0199284
X0195284Y0271702
Y0273902
X0196384Y0277402
X0190984Y0276102
X0186584Y0276302
X0188684Y0282502
Y0285002
X0183284Y0283102
X0182784Y0288702
X0195084Y0289502
X0209084Y0284602
Y0281602
X0186484Y0268102
X0186284Y0260802
X0179684Y0258802
X0181384Y0253302
X0273384Y0289302
X0275684Y0287002
X0302731Y0282502
Y0280002
X0314484Y0287702
X0320284
X0322583
X0325384Y0282502
X0328284
X0326884Y0280102
X0331184Y0286702
X0333578Y0275402
Y0272402
X0334683Y0307743
X0331683
X0327584Y0308043
X0324584
X0319684Y0302702
X0314684Y0309159
X0312184
X0305384Y0299202
X0319384Y0324402
X0322584
X0326128
X0329584Y0318102
X0335984Y0263000
X0334988Y0336402
Y0339402
X0334788Y0342702
Y0345702
T04
X0055173Y0003807
X0063047
Y0011681
X0070921
X0078795
Y0003807
X0086669
Y0011681
X0094543
Y0003807
X0070921
X0055173Y0011681
X0217724Y0079343
Y0087217
X0244937Y0090949
Y0083075
Y0075201
X0252811
Y0083075
Y0090949
X0284307Y0083075
X0292181
X0300055
X0307929
Y0075201
X0300055
X0292181
X0284307
X0108724Y0079343
Y0087217
X0081551Y0098823
X0073677
Y0106697
Y0114571
X0081551
Y0106697
Y0122445
X0073677
X0057929Y0169689
X0050055
X0042181
X0018724Y0201437
Y0209311
X0018559Y0248429
Y0256303
Y0279925
Y0287799
X0026433
X0034307
Y0279925
X0026433
X0042181
Y0287799
X0034307Y0256303
X0026433
Y0248429
X0034307
X0034472Y0209311
X0026598
Y0201437
X0034472
X0042347
Y0209311
X0042181Y0177563
X0050055
X0057929
T05
X0208374Y0070484
X0227075
X0239524Y0066343
X0258224
X0275449Y0069886
Y0088587
X0258323Y0099807
X0239622
X0227075Y0096075
X0208374
X0316787Y0088488
Y0069787
X0297700Y0169600
X0121384Y0168002
X0111384
X0101384
X0091384
X0081384
X0066787Y0164177
X0033323Y0164276
X0068264Y0131303
X0086965
X0086866Y0089965
X0099374Y0096075
X0118075
Y0070484
X0099374
X0068165Y0089965
X-0002791Y0057559
Y0047559
Y0037559
X0009866Y0196024
Y0214724
X0009701Y0243016
Y0261717
Y0274512
Y0293213
X0051039Y0293114
Y0274413
X0043165Y0261618
Y0242917
X0051205Y0214626
Y0195925
X0066787Y0182878
X0081384Y0178002
X0091384
X0101384
X0111384
X0121384
X0033323Y0182976
X0297700Y0179600
Y0189600
T06
X0111512Y0003055
Y0013055
X0121512
Y0003055
X0131512
Y0013055
X0141512
Y0003055
X0151512
X0161512
Y0013055
X0171512
Y0003055
X0151512Y0013055
X0181512
Y0003055
X0191512
Y0013055
X0201512
X0211512
X0221512
X0231512
X0241512
X0251512
Y0003055
X0241512
X0231512
X0221512
X0211512
X0201512
X0175002Y0307518
X0165002
X0155002
X0145002
X0135002
Y0317518
X0145002
X0155002
X0165002
X0175002
X0175000Y0327518
X0165000
X0155000
X0145000
X0135000
X0125000
X0115000
X0105000
X0095000
X0085000
X0075000
X0065000
X0055000
X0045000
X0035000
X0035002Y0317518
X0045002
X0055002
X0065002
X0075002
X0085002
Y0307518
X0095002
Y0317518
X0105002
Y0307518
X0115002
Y0317518
X0125002
Y0307518
X0075002
X0065002
X0055002
X0045002
X0035002
X0185002
Y0317518
X0195002
Y0307518
X0205002
Y0317518
X0215002
Y0307518
X0225002
X0235002
Y0317518
X0245002
Y0307518
X0255002
Y0317518
X0265002
Y0307518
X0275002
X0285002
Y0317518
X0275002
X0275000Y0327518
X0285000
X0265000
X0255000
X0245000
X0235000
X0225000
X0215000
X0205000
X0195000
X0185000
X0225002Y0317518
X0225000Y0337518
X0235000
X0245000
X0255000
X0265000
X0275000
X0285000
X0215000
X0205000
X0195000
X0185000
X0175000
X0165000
X0155000
X0145000
X0135000
X0125000
X0115000
X0105000
X0095000
X0085000
X0075000
X0065000
X0055000
X0045000
X0035000
T07
X0000000Y0000000
X0315008Y0000028
X0305006Y0337545
X0015000Y0337518
M30
