G04 Layer_Physical_Order=1*
G04 Layer_Color=255*
%FSAX23Y23*%
%MOIN*%
G70*
G01*
G75*
%ADD10R,0.067X0.043*%
%ADD11R,0.045X0.057*%
%ADD12R,0.057X0.045*%
%ADD13R,0.039X0.037*%
%ADD14R,0.024X0.024*%
%ADD15R,0.071X0.045*%
%ADD16R,0.064X0.091*%
%ADD17R,0.024X0.020*%
%ADD18R,0.020X0.024*%
%ADD19R,0.035X0.035*%
%ADD20R,0.051X0.047*%
%ADD21R,0.037X0.039*%
%ADD22R,0.045X0.071*%
%ADD23R,0.043X0.026*%
%ADD24R,0.024X0.024*%
%ADD25O,0.057X0.010*%
%ADD26R,0.059X0.098*%
%ADD27R,0.098X0.059*%
%ADD28R,0.106X0.045*%
%ADD29R,0.236X0.016*%
%ADD30R,0.043X0.067*%
%ADD31R,0.066X0.074*%
%ADD32O,0.063X0.016*%
%ADD33C,0.016*%
%ADD34C,0.010*%
%ADD35C,0.012*%
%ADD36C,0.020*%
%ADD37C,0.028*%
%ADD38C,0.008*%
%ADD39R,0.335X0.061*%
%ADD40R,0.179X0.016*%
%ADD41R,0.495X0.049*%
%ADD42R,0.239X0.067*%
%ADD43R,0.073X0.036*%
%ADD44R,0.087X0.070*%
%ADD45R,0.035X0.149*%
%ADD46R,0.138X0.130*%
%ADD47R,0.146X0.236*%
%ADD48R,0.780X0.077*%
%ADD49R,0.298X0.163*%
%ADD50R,0.035X0.085*%
%ADD51R,0.087X0.163*%
%ADD52R,0.322X0.177*%
%ADD53R,0.074X0.168*%
%ADD54R,0.200X0.099*%
%ADD55R,0.068X0.120*%
%ADD56R,0.236X0.064*%
%ADD57R,0.269X0.056*%
%ADD58R,0.075X0.098*%
%ADD59O,0.075X0.098*%
%ADD60C,0.059*%
%ADD61R,0.059X0.059*%
%ADD62C,0.236*%
%ADD63C,0.039*%
G36*
X01078Y00755D02*
Y00746D01*
X01000D01*
X00997Y00749D01*
X01013Y00820D01*
X01078Y00755D01*
D02*
G37*
G36*
X00695Y00749D02*
X00692Y00746D01*
X00620D01*
Y00762D01*
X00678Y00820D01*
X00695Y00749D01*
D02*
G37*
G36*
X02201Y01350D02*
Y00764D01*
X02201Y00764D01*
X02201Y00773D01*
X01996D01*
X01994Y00460D01*
Y00446D01*
X02200D01*
X02201Y00441D01*
Y00032D01*
X00027D01*
X00023Y00036D01*
Y00335D01*
X00116D01*
Y00968D01*
X00023D01*
Y01353D01*
X01485D01*
X01487Y01348D01*
X01381Y01243D01*
X00776D01*
X00769Y01242D01*
X00762Y01239D01*
X00756Y01235D01*
X00728Y01206D01*
X00723Y01200D01*
X00720Y01194D01*
X00720Y01186D01*
Y01046D01*
X00698Y01024D01*
X00414D01*
X00407Y01023D01*
X00401Y01020D01*
X00395Y01016D01*
X00327Y00948D01*
X00211D01*
X00204Y00947D01*
X00198Y00944D01*
X00192Y00940D01*
X00160Y00909D01*
X00156Y00903D01*
X00153Y00896D01*
X00152Y00889D01*
Y00550D01*
X00153Y00543D01*
X00156Y00536D01*
X00160Y00530D01*
X00187Y00504D01*
X00191Y00501D01*
Y00426D01*
X00185Y00424D01*
X00179Y00419D01*
X00175Y00413D01*
X00172Y00406D01*
X00171Y00398D01*
X00172Y00391D01*
X00175Y00384D01*
X00179Y00377D01*
X00185Y00373D01*
X00193Y00370D01*
X00200Y00369D01*
X00216D01*
X00224Y00370D01*
X00231Y00373D01*
X00237Y00377D01*
X00265Y00405D01*
X00265Y00405D01*
X00270Y00411D01*
X00273Y00418D01*
X00273Y00419D01*
X00280D01*
Y00332D01*
X00281Y00325D01*
X00284Y00318D01*
X00288Y00312D01*
X00310Y00290D01*
X00316Y00286D01*
X00323Y00283D01*
X00330Y00282D01*
X00337Y00283D01*
X00344Y00286D01*
X00350Y00290D01*
X00354Y00296D01*
X00357Y00303D01*
X00358Y00310D01*
X00357Y00317D01*
X00354Y00324D01*
X00350Y00330D01*
X00336Y00344D01*
Y00479D01*
X00440D01*
X00443Y00475D01*
X00443Y00475D01*
Y00376D01*
X00444Y00368D01*
X00447Y00361D01*
X00452Y00355D01*
X00477Y00330D01*
X00477Y00330D01*
X00481Y00327D01*
Y00188D01*
X00481Y00188D01*
X00482Y00188D01*
Y00180D01*
X00588D01*
Y00190D01*
X00739D01*
Y00193D01*
X00739Y00198D01*
X00757D01*
X00759Y00198D01*
X00944D01*
Y00145D01*
X00945Y00137D01*
X00950Y00131D01*
X00956Y00126D01*
X00964Y00125D01*
X01051D01*
X01054Y00125D01*
X01091D01*
X01096Y00124D01*
X01828D01*
X01836Y00126D01*
X01842Y00130D01*
X01847Y00137D01*
X01848Y00144D01*
Y00193D01*
X01847Y00201D01*
X01842Y00208D01*
X01836Y00212D01*
Y00259D01*
X01836D01*
Y00341D01*
X01820D01*
X01818Y00346D01*
X01852Y00381D01*
X01858Y00388D01*
X01861Y00396D01*
X01862Y00404D01*
Y00503D01*
X01861Y00512D01*
X01858Y00520D01*
X01852Y00527D01*
X01830Y00549D01*
X01826Y00553D01*
X01828Y00558D01*
X01850D01*
X01859Y00559D01*
X01867Y00562D01*
X01874Y00567D01*
X01879Y00574D01*
X01883Y00583D01*
X01884Y00591D01*
X01883Y00600D01*
X01879Y00608D01*
X01874Y00615D01*
X01867Y00621D01*
X01859Y00624D01*
X01850Y00625D01*
X01819D01*
Y00640D01*
X01681D01*
Y00635D01*
X01676Y00633D01*
X01674Y00635D01*
X01576Y00733D01*
X01569Y00739D01*
X01562Y00742D01*
X01561Y00745D01*
X01561Y00746D01*
X01565Y00749D01*
X01569Y00749D01*
X01681D01*
Y00660D01*
X01819D01*
Y00676D01*
X01850D01*
X01859Y00677D01*
X01867Y00680D01*
X01874Y00686D01*
X01879Y00693D01*
X01883Y00701D01*
X01884Y00709D01*
X01883Y00718D01*
X01879Y00726D01*
X01874Y00733D01*
X01867Y00739D01*
X01859Y00742D01*
X01850Y00743D01*
X01819D01*
Y00749D01*
X01842D01*
X01850Y00750D01*
X01856Y00752D01*
X01862Y00757D01*
X01920Y00814D01*
X01924Y00820D01*
X01927Y00827D01*
X01928Y00834D01*
Y01110D01*
X01927Y01117D01*
X01924Y01124D01*
X01920Y01130D01*
X01888Y01162D01*
Y01280D01*
X01887Y01287D01*
X01884Y01294D01*
X01880Y01300D01*
X01831Y01348D01*
X01833Y01353D01*
X02198D01*
X02201Y01350D01*
D02*
G37*
G36*
X01185Y00727D02*
X01169Y00656D01*
X01104Y00721D01*
Y00730D01*
X01182D01*
X01185Y00727D01*
D02*
G37*
G36*
X00995Y00375D02*
X00963Y00375D01*
X00963Y00375D01*
X00959Y00383D01*
X00948Y00398D01*
X00935Y00410D01*
X00920Y00420D01*
X00904Y00427D01*
X00886Y00430D01*
X00868D01*
X00850Y00427D01*
X00834Y00420D01*
X00819Y00410D01*
X00806Y00398D01*
X00795Y00383D01*
X00791Y00375D01*
X00759Y00375D01*
Y00454D01*
X00995D01*
Y00375D01*
D02*
G37*
G36*
Y00297D02*
Y00218D01*
X00759D01*
Y00297D01*
X00791Y00297D01*
X00795Y00289D01*
X00806Y00274D01*
X00819Y00262D01*
X00834Y00252D01*
X00850Y00245D01*
X00868Y00242D01*
X00886D01*
X00904Y00245D01*
X00920Y00252D01*
X00935Y00262D01*
X00948Y00274D01*
X00959Y00289D01*
X00963Y00297D01*
X00995Y00297D01*
D02*
G37*
%LPC*%
G36*
X00592Y01231D02*
X00584Y01230D01*
X00575Y01227D01*
X00569Y01221D01*
X00563Y01214D01*
X00560Y01206D01*
X00559Y01197D01*
Y01176D01*
X00543D01*
Y01038D01*
X00642D01*
Y01176D01*
X00626D01*
Y01197D01*
X00625Y01206D01*
X00622Y01214D01*
X00616Y01221D01*
X00609Y01227D01*
X00601Y01230D01*
X00592Y01231D01*
D02*
G37*
G36*
X00474Y01236D02*
X00466Y01235D01*
X00457Y01232D01*
X00450Y01226D01*
X00445Y01219D01*
X00442Y01211D01*
X00441Y01202D01*
Y01176D01*
X00425D01*
Y01038D01*
X00523D01*
Y01176D01*
X00508D01*
Y01202D01*
X00507Y01211D01*
X00503Y01219D01*
X00498Y01226D01*
X00491Y01232D01*
X00483Y01235D01*
X00474Y01236D01*
D02*
G37*
%LPD*%
D10*
X00244Y00460D02*
D03*
Y00590D02*
D03*
X00535Y00221D02*
D03*
Y00351D02*
D03*
X00656Y00427D02*
D03*
Y00557D02*
D03*
X01783Y00170D02*
D03*
Y00300D02*
D03*
D11*
X00326Y00814D02*
D03*
X00240D02*
D03*
X00416Y00738D02*
D03*
X00330D02*
D03*
X01520Y00497D02*
D03*
X01606D02*
D03*
D12*
X01719Y00469D02*
D03*
Y00382D02*
D03*
D13*
X00956Y00528D02*
D03*
Y00598D02*
D03*
X01115Y00302D02*
D03*
Y00372D02*
D03*
D14*
X01073Y00288D02*
D03*
Y00323D02*
D03*
X01038Y00531D02*
D03*
Y00567D02*
D03*
X01000Y00531D02*
D03*
Y00567D02*
D03*
X01193Y00952D02*
D03*
Y00916D02*
D03*
X01096Y00993D02*
D03*
Y01028D02*
D03*
D15*
X01351Y00543D02*
D03*
Y00673D02*
D03*
X00657Y00598D02*
D03*
Y00728D02*
D03*
D16*
X01047Y00190D02*
D03*
X01213D02*
D03*
D17*
X01034Y00676D02*
D03*
Y00632D02*
D03*
X01073Y00593D02*
D03*
Y00637D02*
D03*
X01334Y00415D02*
D03*
Y00458D02*
D03*
X01412Y00574D02*
D03*
Y00531D02*
D03*
X01073Y00399D02*
D03*
Y00356D02*
D03*
X00439Y00707D02*
D03*
Y00663D02*
D03*
X01351Y00930D02*
D03*
Y00886D02*
D03*
X01043Y00975D02*
D03*
Y00932D02*
D03*
Y01053D02*
D03*
Y01010D02*
D03*
D18*
X01071Y00673D02*
D03*
X01115D02*
D03*
X01376Y00461D02*
D03*
X01419D02*
D03*
X01374Y00497D02*
D03*
X01331D02*
D03*
X00994Y00602D02*
D03*
X01038D02*
D03*
X00383Y00675D02*
D03*
X00339D02*
D03*
X01141Y00951D02*
D03*
X01097D02*
D03*
D19*
X01400Y00297D02*
D03*
Y00367D02*
D03*
D20*
X00660Y00333D02*
D03*
Y00239D02*
D03*
X00536Y00422D02*
D03*
Y00516D02*
D03*
D21*
X01677Y00322D02*
D03*
X01607D02*
D03*
D22*
X01641Y00417D02*
D03*
X01511D02*
D03*
D23*
X00461Y00570D02*
D03*
X00331D02*
D03*
X00461Y00610D02*
D03*
X00331D02*
D03*
D24*
X01295Y00916D02*
D03*
X01260D02*
D03*
X01296Y00955D02*
D03*
X01260D02*
D03*
D25*
X01353Y01011D02*
D03*
Y01030D02*
D03*
Y01050D02*
D03*
Y01070D02*
D03*
Y01089D02*
D03*
X01193Y01011D02*
D03*
Y01030D02*
D03*
Y01050D02*
D03*
Y01070D02*
D03*
Y01089D02*
D03*
D26*
X00592Y01107D02*
D03*
Y00847D02*
D03*
X00474D02*
D03*
Y01107D02*
D03*
D27*
X01490Y00709D02*
D03*
X01750D02*
D03*
Y00591D02*
D03*
X01490D02*
D03*
D28*
X00760Y00641D02*
D03*
Y00523D02*
D03*
X00876Y00641D02*
D03*
Y00523D02*
D03*
X01198Y00416D02*
D03*
Y00298D02*
D03*
X01318Y00378D02*
D03*
Y00260D02*
D03*
X00556Y00720D02*
D03*
Y00602D02*
D03*
X01486Y00345D02*
D03*
Y00227D02*
D03*
D29*
X00877Y00226D02*
D03*
Y00446D02*
D03*
D30*
X01582Y00246D02*
D03*
X01712D02*
D03*
D31*
X01180Y00514D02*
D03*
D32*
X01264Y00476D02*
D03*
Y00501D02*
D03*
Y00527D02*
D03*
Y00552D02*
D03*
X01096Y00476D02*
D03*
Y00501D02*
D03*
Y00527D02*
D03*
Y00552D02*
D03*
D33*
X01097Y00847D02*
Y00955D01*
X01095Y00847D02*
X01097D01*
X01546Y00799D02*
Y00826D01*
X01487Y00885D02*
X01546Y00826D01*
X01351Y00885D02*
X01487D01*
X01074Y00575D02*
Y00593D01*
X00414Y00996D02*
X00709D01*
X00338Y00920D02*
X00414Y00996D01*
X01569Y00776D02*
X01842D01*
X01546Y00799D02*
X01569Y00776D01*
X01797Y01343D02*
X01860Y01280D01*
X01521Y01343D02*
X01797D01*
X01412Y00512D02*
Y00531D01*
X01397Y00497D02*
X01412Y00512D01*
X01351Y00673D02*
X01398D01*
X01412Y00659D01*
Y00574D02*
Y00659D01*
X01374Y00497D02*
X01397D01*
X00906Y00646D02*
X00930D01*
X01035Y00476D02*
X01096D01*
X01073Y00323D02*
Y00356D01*
X01040Y00288D02*
X01073D01*
X01280Y00384D02*
X01322D01*
X01328Y00287D02*
X01341Y00300D01*
X01322Y00460D02*
X01373D01*
X01325Y00502D02*
X01331Y00495D01*
X01263Y00502D02*
X01325D01*
X01334Y00527D02*
X01351Y00543D01*
X01263Y00527D02*
X01334D01*
X01004D02*
X01096D01*
X01524Y01117D02*
Y01266D01*
X00747Y01034D02*
Y01186D01*
X00709Y00996D02*
X00747Y01034D01*
X01439Y00836D02*
X01479D01*
X01842Y00776D02*
X01900Y00834D01*
X01860Y01150D02*
Y01280D01*
Y01150D02*
X01900Y01110D01*
Y00834D02*
Y01110D01*
X00939Y00502D02*
X01096D01*
X01074Y00575D02*
X01096Y00553D01*
X01000Y00531D02*
X01004Y00527D01*
X01263Y00476D02*
X01306D01*
X01322Y00460D01*
X00180Y00550D02*
X00207Y00523D01*
X00180Y00550D02*
Y00889D01*
X00211Y00920D01*
X00338D01*
X00331Y00667D02*
X00339Y00675D01*
X00331Y00610D02*
Y00667D01*
X00308Y00332D02*
X00330Y00310D01*
X00308Y00332D02*
Y00509D01*
X00294Y00523D02*
X00308Y00509D01*
X00207Y00523D02*
X00294D01*
X00364Y00507D02*
X00381D01*
X00331Y00540D02*
X00364Y00507D01*
X00331Y00540D02*
Y00570D01*
X00461Y00610D02*
X00566D01*
X00383Y00675D02*
X00410D01*
X00434Y00651D02*
X00460D01*
Y00652D02*
X00461D01*
X00410Y00675D02*
X00434Y00651D01*
X00747Y01186D02*
X00776Y01215D01*
X01393D01*
X01521Y01343D01*
X01037Y00673D02*
X01071D01*
X01113Y00593D02*
X01118Y00598D01*
X01073Y00593D02*
X01074D01*
X01113D01*
X01095Y00847D02*
X01429D01*
X01439Y00836D01*
X01044Y00837D02*
Y00932D01*
Y00837D02*
X01076Y00805D01*
X01451D01*
X01500Y00756D01*
Y00709D02*
Y00756D01*
X01116Y00646D02*
Y00672D01*
D34*
X01193Y00955D02*
Y01011D01*
X01141Y00955D02*
X01193D01*
X01260Y00916D02*
Y00955D01*
X01555Y00980D02*
X01577Y00958D01*
Y00908D02*
Y00958D01*
X01562Y00893D02*
X01577Y00908D01*
X01518Y00893D02*
X01562D01*
X01370Y00932D02*
X01386Y00916D01*
X01329Y00932D02*
X01370D01*
X01313Y00916D02*
X01329Y00932D01*
X01386Y00916D02*
X01494D01*
X01295D02*
X01313D01*
X01494D02*
X01518Y00893D01*
X01518Y00936D02*
X01536D01*
X01503Y00950D02*
X01518Y00936D01*
X01409Y00998D02*
X01426Y00980D01*
X01424Y01099D02*
X01441D01*
X01395Y01070D02*
X01424Y01099D01*
X01353Y01070D02*
X01395D01*
X01353Y01089D02*
Y01130D01*
X01428Y01050D02*
X01448Y01030D01*
X01353Y01050D02*
X01428D01*
X01316Y00955D02*
X01353Y00992D01*
Y01011D01*
X01296Y00955D02*
X01316D01*
X01341Y01011D02*
X01353D01*
X01117Y01081D02*
X01128Y01070D01*
X01260Y00955D02*
Y01006D01*
X01409Y00998D02*
Y01019D01*
X01398Y01030D02*
X01409Y01019D01*
X01353Y01030D02*
X01398D01*
X01193Y01050D02*
X01271Y01048D01*
X01128Y01070D02*
X01193D01*
X01140Y01050D02*
X01193D01*
X01127Y00993D02*
X01136Y01002D01*
X01096Y00993D02*
X01127D01*
X01118Y01028D02*
X01140Y01050D01*
X01096Y01028D02*
X01118D01*
X01095D02*
X01096D01*
X01070Y01053D02*
X01095Y01028D01*
X01043Y01053D02*
X01070D01*
X01043Y00993D02*
X01096D01*
X01043Y00983D02*
X01044Y00982D01*
X01043Y00983D02*
Y01010D01*
X01136Y01002D02*
Y01012D01*
X01154Y01030D01*
X01193D01*
X01353Y00992D02*
X01394Y00950D01*
X01503D01*
X01426Y00980D02*
X01555D01*
X01260Y01006D02*
X01270Y01016D01*
X01271Y01048D01*
D35*
X01193Y00916D02*
X01259D01*
X01532Y01013D02*
X01588D01*
X01483Y01062D02*
X01532Y01013D01*
X01483Y01062D02*
Y01115D01*
X01639Y00880D02*
X01760D01*
X01776Y00896D01*
X01798D01*
X01846Y00944D01*
Y01053D01*
X01193Y01089D02*
Y01133D01*
X01208Y01148D01*
X01306D01*
X01336Y01178D01*
X01372D01*
X01405Y01145D01*
X01454D01*
X01483Y01115D01*
X01608Y00912D02*
X01639Y00880D01*
X01608Y00912D02*
Y00993D01*
X01588Y01013D02*
X01608Y00993D01*
X00997Y00567D02*
Y00599D01*
X01037Y00566D02*
Y00597D01*
X01810Y01089D02*
X01846Y01053D01*
X01742Y01089D02*
X01810D01*
X01034Y00632D02*
X01069D01*
D36*
X00642Y00221D02*
X00660Y00239D01*
X00535Y00221D02*
X00642D01*
X00514Y00516D02*
X00536D01*
X00473Y00475D02*
X00514Y00516D01*
X00473Y00376D02*
Y00475D01*
Y00376D02*
X00498Y00351D01*
X00535D01*
X00656Y00427D02*
X00711D01*
X00661Y00333D02*
Y00422D01*
X00536Y00422D02*
X00661D01*
X00536Y00516D02*
Y00557D01*
X00571Y00592D01*
X01698Y00480D02*
X01709Y00469D01*
X01624Y00480D02*
X01698D01*
X01610Y00494D02*
X01624Y00480D01*
X01762Y00469D02*
X01776Y00454D01*
X01719Y00469D02*
X01762D01*
X01428Y00461D02*
X01455Y00488D01*
X01419Y00461D02*
X01428D01*
X01709Y00469D02*
X01719D01*
X01610Y00843D02*
X01797D01*
X00798Y00517D02*
X00905D01*
X00918Y00504D01*
X00200Y00398D02*
X00216D01*
X00244Y00426D01*
Y00460D01*
X00461Y00535D02*
Y00570D01*
X00449Y00523D02*
X00461Y00535D01*
X00244Y00590D02*
X00277D01*
X00297Y00610D01*
X00331D01*
X00711Y00427D02*
X00760Y00476D01*
X01589Y00322D02*
X01607D01*
X01566Y00345D02*
X01589Y00322D01*
X01486Y00345D02*
X01566D01*
D37*
X01750Y00591D02*
X01850D01*
X01500Y00709D02*
X01552D01*
X01675Y00525D02*
X01806D01*
X01650Y00550D02*
X01675Y00525D01*
X01650Y00550D02*
Y00611D01*
X01750Y00709D02*
X01850D01*
X00474Y01107D02*
Y01202D01*
X00592Y01107D02*
Y01197D01*
Y00847D02*
Y00914D01*
X00555Y00951D02*
X00592Y00914D01*
X00438Y00951D02*
X00555D01*
X00506Y00732D02*
Y00763D01*
X00474Y00794D02*
X00506Y00763D01*
X00474Y00794D02*
Y00847D01*
X01828Y00404D02*
Y00503D01*
X01806Y00525D02*
X01828Y00503D01*
X01806Y00382D02*
X01828Y00404D01*
X01652Y00421D02*
X01692Y00382D01*
X01719D01*
X01552Y00709D02*
X01650Y00611D01*
X00241Y00590D02*
X00244D01*
X00225Y00606D02*
X00241Y00590D01*
X00225Y00606D02*
Y00857D01*
X00249Y00881D02*
X00368D01*
X00438Y00951D01*
X00228Y00860D02*
X00249Y00881D01*
X00225Y00857D02*
X00249Y00881D01*
X00337Y00815D02*
X00385D01*
X00330Y00738D02*
Y00811D01*
X00335Y00817D02*
X00337Y00815D01*
X01719Y00382D02*
X01806D01*
X01783Y00300D02*
Y00359D01*
X01806Y00382D01*
X01677Y00322D02*
X01695D01*
X01486Y00227D02*
X01563D01*
X01712Y00375D02*
X01719Y00382D01*
X01712Y00246D02*
Y00339D01*
Y00375D01*
X01695Y00322D02*
X01712Y00339D01*
X01511Y00488D02*
X01520Y00497D01*
X01511Y00417D02*
Y00433D01*
Y00488D01*
X01510Y00434D02*
X01511Y00433D01*
X01520Y00497D02*
Y00561D01*
X01490Y00591D02*
X01520Y00561D01*
D38*
X00075Y00363D02*
X00036D01*
Y00383D01*
X00042Y00389D01*
X00055D01*
X00062Y00383D01*
Y00363D01*
X00075Y00402D02*
Y00415D01*
Y00409D01*
X00049D01*
Y00402D01*
X00075Y00442D02*
Y00455D01*
X00068Y00461D01*
X00055D01*
X00049Y00455D01*
Y00442D01*
X00055Y00435D01*
X00068D01*
X00075Y00442D01*
X00042Y00481D02*
X00049D01*
Y00475D01*
Y00488D01*
Y00481D01*
X00068D01*
X00075Y00488D01*
X00049Y00507D02*
X00075D01*
X00062D01*
X00055Y00514D01*
X00049Y00520D01*
Y00527D01*
X00036Y00586D02*
X00075D01*
X00062D01*
X00036Y00612D01*
X00055Y00593D01*
X00075Y00612D01*
X00049Y00625D02*
X00068D01*
X00075Y00632D01*
Y00652D01*
X00049D01*
X00075Y00665D02*
Y00678D01*
Y00671D01*
X00036D01*
Y00665D01*
X00075Y00698D02*
Y00711D01*
Y00704D01*
X00049D01*
Y00698D01*
X00088Y00743D02*
Y00750D01*
X00082Y00757D01*
X00049D01*
Y00737D01*
X00055Y00730D01*
X00068D01*
X00075Y00737D01*
Y00757D01*
Y00776D02*
Y00789D01*
X00068Y00796D01*
X00055D01*
X00049Y00789D01*
Y00776D01*
X00055Y00770D01*
X00068D01*
X00075Y00776D01*
X00049Y00809D02*
X00068D01*
X00075Y00816D01*
X00068Y00822D01*
X00075Y00829D01*
X00068Y00835D01*
X00049D01*
X00075Y00848D02*
Y00868D01*
X00068Y00875D01*
X00062Y00868D01*
Y00855D01*
X00055Y00848D01*
X00049Y00855D01*
Y00875D01*
X00075Y00888D02*
X00036D01*
X00062D02*
X00049Y00907D01*
X00062Y00888D02*
X00075Y00907D01*
Y00927D02*
Y00940D01*
Y00934D01*
X00049D01*
Y00927D01*
D39*
X00845Y00789D02*
D03*
D40*
X01079Y00702D02*
D03*
D41*
X01581Y00169D02*
D03*
D42*
X01410Y00388D02*
D03*
D43*
X00788Y00640D02*
D03*
D44*
X01104Y00424D02*
D03*
D45*
X01033Y00410D02*
D03*
D46*
X01352Y00715D02*
D03*
D47*
X01222Y00662D02*
D03*
D48*
X00783Y00742D02*
D03*
D49*
X00856Y00673D02*
D03*
D50*
X01033Y00311D02*
D03*
D51*
X01008Y00227D02*
D03*
D52*
X01257Y00233D02*
D03*
D53*
X01180Y00491D02*
D03*
D54*
X01196Y00403D02*
D03*
D55*
X01272Y01050D02*
D03*
D56*
X00877Y00477D02*
D03*
D57*
X00841Y00502D02*
D03*
D58*
X00964Y01101D02*
D03*
Y00901D02*
D03*
X02165Y00707D02*
D03*
Y00507D02*
D03*
D59*
X00864Y01101D02*
D03*
Y00901D02*
D03*
X02065Y00707D02*
D03*
Y00507D02*
D03*
D60*
X01742Y01089D02*
D03*
X01663D02*
D03*
Y00931D02*
D03*
X01742Y01167D02*
D03*
X01796Y01256D02*
D03*
X01609D02*
D03*
X01610Y00843D02*
D03*
X01797D02*
D03*
X01742Y00931D02*
D03*
Y01010D02*
D03*
X01663D02*
D03*
D61*
Y01167D02*
D03*
D62*
X00197Y00197D02*
D03*
X02047D02*
D03*
Y01181D02*
D03*
X00197D02*
D03*
D63*
X01271Y01048D02*
D03*
X00870Y00728D02*
D03*
X00815Y00729D02*
D03*
X00761Y00728D02*
D03*
X01850Y00591D02*
D03*
Y00709D02*
D03*
X01536Y00936D02*
D03*
X00385Y00815D02*
D03*
X00592Y01197D02*
D03*
X00475Y01202D02*
D03*
X01777Y00455D02*
D03*
X01282Y00192D02*
D03*
X01455Y00488D02*
D03*
X01441Y01099D02*
D03*
X01448Y01030D02*
D03*
X01353Y01130D02*
D03*
X01117Y01081D02*
D03*
X01524Y01117D02*
D03*
X01479Y00836D02*
D03*
X00200Y00398D02*
D03*
X01520Y01266D02*
D03*
X00330Y00310D02*
D03*
X01095Y00847D02*
D03*
X01361Y00728D02*
D03*
X01118Y00598D02*
D03*
X01223Y00589D02*
D03*
X01105Y00428D02*
D03*
X00381Y00507D02*
D03*
X00449Y00523D02*
D03*
X00461Y00652D02*
D03*
X00474Y00734D02*
D03*
X00760Y00493D02*
D03*
X00786Y00692D02*
D03*
X00735D02*
D03*
X00841D02*
D03*
X00897D02*
D03*
X01180Y00497D02*
D03*
Y00531D02*
D03*
X00957Y00650D02*
D03*
X01277Y00420D02*
D03*
X01116Y00646D02*
D03*
X01392Y00401D02*
D03*
M02*
