G04 Layer_Physical_Order=2*
G04 Layer_Color=16711680*
%FSAX23Y23*%
%MOIN*%
G70*
G01*
G75*
%ADD10R,0.067X0.043*%
%ADD13R,0.039X0.037*%
%ADD15R,0.071X0.045*%
%ADD17R,0.024X0.020*%
%ADD18R,0.020X0.024*%
%ADD21R,0.037X0.039*%
%ADD22R,0.045X0.071*%
%ADD33C,0.016*%
%ADD34C,0.010*%
%ADD35C,0.012*%
%ADD36C,0.020*%
%ADD37C,0.028*%
%ADD38C,0.008*%
%ADD58R,0.075X0.098*%
%ADD59O,0.075X0.098*%
%ADD60C,0.059*%
%ADD61R,0.059X0.059*%
%ADD62C,0.236*%
%ADD63C,0.039*%
%ADD64R,0.035X0.035*%
%ADD65R,0.024X0.031*%
%ADD66R,0.024X0.048*%
%ADD67R,0.060X0.071*%
G36*
X00643Y00781D02*
X00644Y00777D01*
X00583Y00716D01*
X00550D01*
X00543Y00715D01*
X00536Y00712D01*
X00530Y00708D01*
X00503Y00680D01*
X00461D01*
X00454Y00679D01*
X00447Y00676D01*
X00441Y00672D01*
X00437Y00666D01*
X00434Y00659D01*
X00434Y00655D01*
X00428Y00654D01*
X00416Y00666D01*
X00410Y00671D01*
X00403Y00674D01*
X00395Y00675D01*
X00392D01*
Y00683D01*
X00313D01*
Y00675D01*
X00307D01*
X00300Y00674D01*
X00293Y00671D01*
X00286Y00666D01*
X00286Y00666D01*
X00279Y00659D01*
X00217D01*
Y00629D01*
X00217Y00627D01*
Y00622D01*
X00196D01*
Y00595D01*
X00183D01*
X00181Y00595D01*
X00152D01*
Y00551D01*
X00115D01*
X00108Y00550D01*
X00100Y00547D01*
X00094Y00542D01*
X00090Y00536D01*
X00087Y00529D01*
X00086Y00521D01*
X00087Y00514D01*
X00090Y00506D01*
X00091Y00505D01*
X00088Y00500D01*
X00062D01*
Y00777D01*
X00067Y00782D01*
X00643Y00781D01*
D02*
G37*
G36*
X00855Y01352D02*
X00859Y01349D01*
X00859Y01336D01*
X00858D01*
Y01228D01*
X01245D01*
X01245Y01223D01*
X01243Y01223D01*
X01234Y01220D01*
X01227Y01214D01*
X01193Y01179D01*
X01187Y01172D01*
X01184Y01164D01*
X01183Y01156D01*
X01179D01*
Y01094D01*
X01165D01*
X01158Y01102D01*
X01151Y01107D01*
X01144Y01110D01*
X01136Y01111D01*
X01117D01*
X01109Y01110D01*
X01102Y01107D01*
X01096Y01102D01*
X01091Y01096D01*
X01088Y01089D01*
X01087Y01081D01*
X01088Y01073D01*
X01091Y01066D01*
X01096Y01060D01*
X01102Y01055D01*
X01109Y01052D01*
X01115Y01051D01*
X01117Y01046D01*
X01112Y01042D01*
X01107Y01035D01*
X01107Y01035D01*
X01091D01*
Y00925D01*
X01146D01*
X01149Y00921D01*
X01149Y00916D01*
X01148Y00915D01*
X01129Y00896D01*
X01125Y00891D01*
X01122Y00885D01*
X01121Y00878D01*
Y00866D01*
X01116Y00865D01*
X01115Y00867D01*
X01109Y00871D01*
X01102Y00874D01*
X01095Y00875D01*
X01071D01*
X01064Y00874D01*
X01057Y00871D01*
X01051Y00867D01*
X01028Y00843D01*
X01023Y00845D01*
Y01165D01*
X00808D01*
Y01135D01*
X00634D01*
X00626Y01143D01*
Y01197D01*
X00625Y01206D01*
X00622Y01214D01*
X00616Y01221D01*
X00609Y01227D01*
X00601Y01230D01*
X00592Y01231D01*
X00584Y01230D01*
X00575Y01227D01*
X00569Y01221D01*
X00563Y01214D01*
X00560Y01206D01*
X00559Y01197D01*
Y01129D01*
X00560Y01121D01*
X00563Y01112D01*
X00569Y01105D01*
X00596Y01078D01*
X00595Y01073D01*
X00519D01*
X00509Y01083D01*
Y01202D01*
X00508Y01211D01*
X00505Y01219D01*
X00499Y01226D01*
X00492Y01232D01*
X00484Y01235D01*
X00475Y01236D01*
X00467Y01235D01*
X00458Y01232D01*
X00451Y01226D01*
X00446Y01219D01*
X00443Y01211D01*
X00442Y01202D01*
Y01069D01*
X00443Y01061D01*
X00446Y01053D01*
X00451Y01046D01*
X00481Y01016D01*
X00488Y01010D01*
X00497Y01007D01*
X00505Y01006D01*
X00732D01*
X00745Y00992D01*
Y00852D01*
X00746Y00843D01*
X00750Y00835D01*
X00755Y00828D01*
X00771Y00812D01*
X00769Y00808D01*
X00687D01*
X00680Y00807D01*
X00673Y00804D01*
X00667Y00800D01*
X00663Y00795D01*
X00657Y00796D01*
X00657Y00796D01*
X00653Y00798D01*
X00650Y00800D01*
X00650Y00800D01*
X00650Y00800D01*
X00646Y00801D01*
X00643Y00801D01*
X00067Y00802D01*
X00067Y00802D01*
X00067Y00802D01*
X00063Y00801D01*
X00059Y00801D01*
X00059Y00801D01*
X00059Y00801D01*
X00056Y00798D01*
X00052Y00796D01*
X00052Y00796D01*
X00052Y00796D01*
X00048Y00792D01*
X00048Y00792D01*
X00048Y00792D01*
X00046Y00788D01*
X00043Y00785D01*
X00043Y00785D01*
X00043Y00785D01*
X00043Y00781D01*
X00042Y00777D01*
X00042Y00777D01*
X00042Y00777D01*
Y00500D01*
X00043Y00492D01*
X00044Y00491D01*
X00060Y00426D01*
X00060D01*
Y00349D01*
X00170D01*
Y00362D01*
X00179D01*
X00187Y00363D01*
X00191Y00364D01*
X00223Y00332D01*
X00223Y00332D01*
X00229Y00328D01*
X00237Y00325D01*
X00244Y00324D01*
X00244Y00324D01*
X00301D01*
X00304Y00319D01*
X00303Y00317D01*
X00302Y00310D01*
X00303Y00303D01*
X00306Y00296D01*
X00310Y00290D01*
X00316Y00286D01*
X00323Y00283D01*
X00330Y00282D01*
X00337Y00283D01*
X00340Y00280D01*
X00339Y00275D01*
X00329D01*
Y00165D01*
X00340D01*
X00341Y00158D01*
X00344Y00151D01*
X00349Y00145D01*
X00363Y00130D01*
X00363Y00130D01*
X00369Y00126D01*
X00377Y00123D01*
X00384Y00122D01*
X00384Y00122D01*
X00578D01*
X00586Y00123D01*
X00593Y00126D01*
X00599Y00130D01*
X00631Y00162D01*
X00631Y00162D01*
X00636Y00168D01*
X00636Y00169D01*
X00653D01*
Y00167D01*
X00654Y00159D01*
X00657Y00152D01*
X00661Y00146D01*
X00744Y00063D01*
X00744Y00063D01*
X00750Y00058D01*
X00757Y00055D01*
X00765Y00054D01*
X01549D01*
X01557Y00055D01*
X01564Y00058D01*
X01570Y00063D01*
X01652Y00145D01*
X01657Y00151D01*
X01660Y00158D01*
X01661Y00166D01*
Y00475D01*
X01660Y00483D01*
X01657Y00490D01*
X01652Y00496D01*
X01592Y00556D01*
X01586Y00561D01*
X01579Y00564D01*
X01571Y00565D01*
X01520D01*
X01515Y00570D01*
Y00612D01*
X01514Y00620D01*
X01511Y00627D01*
X01506Y00633D01*
X01506Y00633D01*
X01498Y00641D01*
Y00654D01*
X01599Y00755D01*
X01662D01*
X01670Y00756D01*
X01677Y00759D01*
X01683Y00764D01*
X01725Y00806D01*
X01789D01*
X01797Y00805D01*
X01806Y00806D01*
X01844D01*
Y00982D01*
X01859D01*
X01866Y00983D01*
X01873Y00986D01*
X01878Y00990D01*
X01920Y01031D01*
X01924Y01037D01*
X01927Y01044D01*
X01928Y01051D01*
Y01110D01*
X01927Y01117D01*
X01924Y01124D01*
X01920Y01130D01*
X01897Y01153D01*
Y01281D01*
X01896Y01288D01*
X01893Y01295D01*
X01889Y01301D01*
X01861Y01328D01*
X01855Y01332D01*
X01849Y01335D01*
X01842Y01336D01*
X01548D01*
X01541Y01335D01*
X01534Y01332D01*
X01529Y01328D01*
X01501Y01300D01*
X01496Y01294D01*
X01496Y01293D01*
X01491Y01294D01*
Y01348D01*
X01494Y01352D01*
X02199Y01351D01*
Y00782D01*
X01961D01*
Y00743D01*
X01850D01*
X01841Y00742D01*
X01833Y00739D01*
X01826Y00733D01*
X01821Y00726D01*
X01817Y00718D01*
X01816Y00709D01*
X01817Y00701D01*
X01821Y00693D01*
X01826Y00686D01*
X01833Y00680D01*
X01841Y00677D01*
X01850Y00676D01*
X01961D01*
Y00601D01*
X01956Y00599D01*
X01940Y00615D01*
X01933Y00621D01*
X01925Y00624D01*
X01916Y00625D01*
X01850D01*
X01841Y00624D01*
X01833Y00621D01*
X01826Y00615D01*
X01821Y00608D01*
X01817Y00600D01*
X01816Y00591D01*
X01817Y00583D01*
X01821Y00574D01*
X01826Y00567D01*
X01833Y00562D01*
X01841Y00559D01*
X01850Y00558D01*
X01902D01*
X01917Y00543D01*
Y00459D01*
X01918Y00451D01*
X01921Y00443D01*
X01926Y00436D01*
X01955Y00407D01*
X01962Y00401D01*
X01971Y00398D01*
X01979Y00397D01*
X02139D01*
X02148Y00398D01*
X02156Y00401D01*
X02163Y00407D01*
X02188Y00431D01*
X02194Y00438D01*
X02194Y00440D01*
X02199Y00439D01*
Y00035D01*
X02198Y00034D01*
X00023D01*
Y01349D01*
X00027Y01353D01*
X00855Y01352D01*
D02*
G37*
G36*
X00919Y00739D02*
X00925Y00735D01*
X00932Y00732D01*
X00939Y00731D01*
X00981D01*
Y00672D01*
X01036D01*
Y00647D01*
X01043D01*
Y00637D01*
X01044Y00630D01*
X01047Y00624D01*
X01051Y00619D01*
X01090Y00580D01*
X01095Y00576D01*
X01101Y00573D01*
X01108Y00572D01*
X01108D01*
X01111Y00571D01*
X01118Y00570D01*
X01125Y00571D01*
X01132Y00574D01*
X01138Y00578D01*
X01142Y00584D01*
X01145Y00591D01*
X01146Y00598D01*
X01145Y00605D01*
X01142Y00612D01*
X01141Y00613D01*
X01144Y00618D01*
X01266D01*
X01288Y00597D01*
X01293Y00593D01*
X01300Y00590D01*
X01307Y00589D01*
X01412D01*
X01422Y00578D01*
Y00573D01*
X01382Y00533D01*
X01378Y00527D01*
X01375Y00520D01*
X01374Y00513D01*
Y00460D01*
X01375Y00453D01*
X01378Y00446D01*
X01382Y00440D01*
X01408Y00414D01*
X01414Y00410D01*
X01421Y00407D01*
X01428Y00406D01*
X01523D01*
X01528Y00401D01*
Y00232D01*
X01495Y00199D01*
X01315D01*
X01302Y00212D01*
X01296Y00216D01*
X01290Y00219D01*
X01282Y00220D01*
X01275Y00219D01*
X01268Y00216D01*
X01263Y00212D01*
X01258Y00206D01*
X01255Y00200D01*
X01255Y00192D01*
X01255Y00185D01*
X01258Y00179D01*
X01263Y00173D01*
X01271Y00164D01*
X01269Y00160D01*
X00793D01*
X00789Y00164D01*
Y00479D01*
X00789Y00480D01*
X00789Y00481D01*
X00790Y00488D01*
Y00493D01*
X00789Y00501D01*
X00786Y00508D01*
X00781Y00514D01*
X00775Y00519D01*
X00768Y00522D01*
X00760Y00523D01*
X00752Y00522D01*
X00745Y00519D01*
X00739Y00514D01*
X00734Y00508D01*
X00731Y00501D01*
X00730Y00493D01*
Y00488D01*
X00730Y00487D01*
X00730Y00486D01*
X00729Y00479D01*
Y00460D01*
X00701D01*
X00697Y00465D01*
X00697Y00465D01*
X00640Y00522D01*
Y00584D01*
X00639Y00592D01*
X00636Y00599D01*
X00631Y00605D01*
X00601Y00635D01*
X00595Y00640D01*
X00588Y00643D01*
X00580Y00644D01*
X00552D01*
X00550Y00649D01*
X00562Y00660D01*
X00595D01*
X00602Y00661D01*
X00609Y00664D01*
X00615Y00668D01*
X00699Y00752D01*
X00906D01*
X00919Y00739D01*
D02*
G37*
%LPC*%
G36*
X00197Y01290D02*
X00189Y01289D01*
X00182Y01286D01*
X00176Y01281D01*
X00171Y01275D01*
X00168Y01268D01*
X00167Y01260D01*
Y01181D01*
X00168Y01173D01*
X00171Y01166D01*
X00176Y01160D01*
X00182Y01155D01*
X00189Y01152D01*
X00197Y01151D01*
X00205Y01152D01*
X00212Y01155D01*
X00218Y01160D01*
X00223Y01166D01*
X00226Y01173D01*
X00227Y01181D01*
Y01260D01*
X00226Y01268D01*
X00223Y01275D01*
X00218Y01281D01*
X00212Y01286D01*
X00205Y01289D01*
X00197Y01290D01*
D02*
G37*
G36*
X02071Y01207D02*
X02033D01*
X02025Y01206D01*
X02018Y01203D01*
X02012Y01198D01*
X02007Y01192D01*
X02004Y01185D01*
X02003Y01177D01*
X02004Y01169D01*
X02007Y01162D01*
X02012Y01156D01*
X02018Y01151D01*
X02025Y01148D01*
X02033Y01147D01*
X02071D01*
X02079Y01148D01*
X02086Y01151D01*
X02092Y01156D01*
X02097Y01162D01*
X02100Y01169D01*
X02101Y01177D01*
X02100Y01185D01*
X02097Y01192D01*
X02092Y01198D01*
X02086Y01203D01*
X02079Y01206D01*
X02071Y01207D01*
D02*
G37*
G36*
X00227Y00227D02*
X00158D01*
X00150Y00226D01*
X00143Y00223D01*
X00137Y00218D01*
X00132Y00212D01*
X00129Y00205D01*
X00128Y00197D01*
X00129Y00189D01*
X00132Y00182D01*
X00137Y00176D01*
X00143Y00171D01*
X00150Y00168D01*
X00158Y00167D01*
X00227D01*
X00235Y00168D01*
X00242Y00171D01*
X00248Y00176D01*
X00253Y00182D01*
X00256Y00189D01*
X00257Y00197D01*
X00256Y00205D01*
X00253Y00212D01*
X00248Y00218D01*
X00242Y00223D01*
X00235Y00226D01*
X00227Y00227D01*
D02*
G37*
%LPD*%
D10*
X00682Y00210D02*
D03*
Y00340D02*
D03*
D13*
X00352Y00645D02*
D03*
Y00574D02*
D03*
D15*
X00115Y00391D02*
D03*
Y00521D02*
D03*
X01216Y00766D02*
D03*
Y00896D02*
D03*
D17*
X01067Y00720D02*
D03*
Y00676D02*
D03*
X00183Y00522D02*
D03*
Y00565D02*
D03*
D18*
X00247Y00627D02*
D03*
X00290D02*
D03*
D21*
X00337Y00408D02*
D03*
X00266D02*
D03*
X00413Y00285D02*
D03*
X00484D02*
D03*
X01363Y00806D02*
D03*
X01292D02*
D03*
X01162Y01055D02*
D03*
X01233D02*
D03*
D22*
X00676Y00395D02*
D03*
X00546D02*
D03*
X00371Y00220D02*
D03*
X00501D02*
D03*
X01133Y00980D02*
D03*
X01263D02*
D03*
D33*
X01012Y00806D02*
X01030D01*
X01278Y00646D02*
X01307Y00617D01*
X01292Y00681D02*
X01323Y00650D01*
X01175Y00681D02*
X01292D01*
X01097Y00759D02*
X01175Y00681D01*
X00939Y00759D02*
X01097D01*
X00918Y00780D02*
X00939Y00759D01*
X00687Y00780D02*
X00918D01*
X01423Y00617D02*
X01450Y00590D01*
Y00561D02*
Y00590D01*
X01402Y00513D02*
X01450Y00561D01*
X01402Y00460D02*
Y00513D01*
X01307Y00617D02*
X01423D01*
X00595Y00688D02*
X00687Y00780D01*
X00550Y00688D02*
X00595D01*
X01535Y00434D02*
X01556Y00413D01*
X01428Y00434D02*
X01535D01*
X01402Y00460D02*
X01428Y00434D01*
X01556Y00220D02*
Y00413D01*
X01507Y00171D02*
X01556Y00220D01*
X01304Y00171D02*
X01507D01*
X01282Y00192D02*
X01304Y00171D01*
X01478Y01030D02*
X01491Y01016D01*
X01560Y01060D02*
X01611Y01010D01*
X01500Y01060D02*
X01560D01*
X01462Y01099D02*
X01500Y01060D01*
X01441Y01099D02*
X01462D01*
X01611Y01010D02*
X01663D01*
X01353Y01130D02*
Y01161D01*
X01619Y01089D02*
X01663D01*
X01448Y01030D02*
X01478D01*
X01742Y01010D02*
X01859D01*
X00447Y00354D02*
Y00387D01*
X00429Y00405D02*
X00447Y00387D01*
X00386Y00405D02*
X00429D01*
X01353Y01161D02*
X01373Y01181D01*
X01526D01*
X01619Y01089D01*
X01520Y01280D02*
X01548Y01308D01*
X01520Y01266D02*
Y01280D01*
X00373Y00353D02*
Y00392D01*
X00386Y00405D01*
X00330Y00310D02*
X00373Y00353D01*
X01491Y01016D02*
X01557D01*
X01642Y00931D01*
X01663D01*
X01540Y00936D02*
X01553Y00923D01*
X01030Y00806D02*
X01071Y00847D01*
X01095D01*
X01859Y01010D02*
X01900Y01051D01*
Y01110D01*
X01548Y01308D02*
X01842D01*
X01869Y01281D01*
Y01141D02*
Y01281D01*
Y01141D02*
X01900Y01110D01*
X01553Y00800D02*
Y00923D01*
X01323Y00650D02*
X01403D01*
X01553Y00800D01*
X00410Y00457D02*
Y00478D01*
X00381Y00507D02*
X00410Y00478D01*
X00513Y00651D02*
X00550Y00688D01*
X00512Y00652D02*
X00513Y00651D01*
X00461Y00652D02*
X00512D01*
X01116Y00646D02*
X01278D01*
D34*
X01333Y00937D02*
X01343Y00926D01*
X01440D01*
X01317Y01130D02*
X01353D01*
X01306Y01119D02*
X01317Y01130D01*
X01287Y01119D02*
X01306D01*
X01363Y00806D02*
X01370Y00813D01*
X01398Y01100D02*
Y01134D01*
X01391Y01093D02*
X01398Y01100D01*
X01391Y01024D02*
Y01093D01*
Y01024D02*
X01407Y01008D01*
Y00968D02*
Y01008D01*
X01370Y00968D02*
Y01013D01*
X01353Y01030D02*
X01370Y01013D01*
X01353Y01030D02*
Y01130D01*
X01233Y01055D02*
X01271Y01048D01*
X01398Y01134D02*
X01413Y01149D01*
X01492D01*
X01448Y00934D02*
Y01030D01*
X01333Y00937D02*
Y00968D01*
X01440Y00926D02*
X01448Y00934D01*
X01492Y01149D02*
X01524Y01117D01*
D35*
X01108Y00598D02*
X01118D01*
X01069Y00637D02*
X01108Y00598D01*
X01069Y00637D02*
Y00674D01*
X01042Y00720D02*
X01067D01*
X01030Y00708D02*
X01042Y00720D01*
X01012Y00708D02*
X01030D01*
X01300Y00714D02*
X01332Y00682D01*
X01180Y00714D02*
X01300D01*
X01147Y00747D02*
X01180Y00714D01*
X01147Y00747D02*
Y00878D01*
X01304Y00908D02*
X01365D01*
X01263Y00949D02*
X01304Y00908D01*
X01365D02*
X01370Y00903D01*
X01552Y00983D02*
X01580Y00955D01*
Y00938D02*
Y00955D01*
Y00938D02*
X01650Y00867D01*
X01479Y00918D02*
Y00956D01*
X01650Y00867D02*
X01717D01*
X01370Y00864D02*
Y00903D01*
X01263Y00949D02*
Y00980D01*
X01479Y00956D02*
X01506Y00983D01*
X01552D01*
X01479Y00918D02*
X01526Y00871D01*
X01717Y00867D02*
X01722Y00872D01*
X01166Y00897D02*
X01216D01*
X01147Y00878D02*
X01166Y00897D01*
X01332Y00682D02*
X01393D01*
X01526Y00815D01*
Y00871D01*
D36*
X01227Y00755D02*
X01340D01*
X01216Y00766D02*
X01227Y00755D01*
X00781Y00130D02*
X01526D01*
X00765Y00084D02*
X01549D01*
X00682Y00167D02*
X00765Y00084D01*
X00682Y00167D02*
Y00210D01*
X01508Y00535D02*
X01571D01*
X00370Y00274D02*
X00381Y00285D01*
X00370Y00166D02*
Y00274D01*
Y00166D02*
X00384Y00151D01*
X00197Y00197D02*
X00227D01*
X00384Y00151D02*
X00578D01*
X01571Y00535D02*
X01631Y00475D01*
Y00166D02*
Y00475D01*
X01549Y00084D02*
X01631Y00166D01*
X01742Y00892D02*
Y00931D01*
X00195Y00402D02*
Y00407D01*
X00218Y00475D02*
X00228D01*
X00195Y00452D02*
X00218Y00475D01*
X00195Y00407D02*
Y00452D01*
X00115Y00391D02*
X00179D01*
X00115Y00521D02*
X00183D01*
X01340Y00755D02*
X01363Y00778D01*
Y00806D01*
X01310Y00864D02*
X01333D01*
X00578Y00151D02*
X00610Y00183D01*
X00337Y00408D02*
Y00434D01*
X00352Y00574D02*
X00387D01*
X00398Y00584D01*
X00507D02*
X00546Y00545D01*
X00580Y00614D02*
X00610Y00584D01*
X00546Y00395D02*
Y00545D01*
X00676Y00395D02*
Y00443D01*
X00610Y00509D02*
X00676Y00443D01*
X00610Y00509D02*
Y00584D01*
X00352Y00546D02*
Y00574D01*
X00332Y00526D02*
X00352Y00546D01*
X00285Y00526D02*
X00332D01*
X00290Y00627D02*
X00307Y00645D01*
X00352D01*
X00395D01*
X00526Y00395D02*
X00546D01*
X00485Y00354D02*
X00526Y00395D01*
X00682Y00340D02*
Y00416D01*
X00610Y00211D02*
X00682D01*
X00610Y00183D02*
Y00211D01*
X00544Y00285D02*
X00572Y00314D01*
X00484Y00285D02*
X00544D01*
X00525Y00220D02*
X00535Y00211D01*
X00479Y00220D02*
X00525D01*
X00479Y00281D02*
X00484Y00285D01*
X00479Y00220D02*
Y00281D01*
X00484Y00353D02*
X00485Y00354D01*
X00484Y00285D02*
Y00353D01*
X00410Y00288D02*
X00413Y00285D01*
X00410Y00288D02*
Y00354D01*
X00303Y00468D02*
Y00475D01*
Y00468D02*
X00337Y00434D01*
X00265Y00475D02*
X00267Y00473D01*
Y00420D02*
Y00473D01*
X00215Y00565D02*
X00228Y00578D01*
X00183Y00565D02*
X00215D01*
X00228Y00578D02*
X00247Y00597D01*
Y00627D01*
X00290Y00609D02*
Y00627D01*
Y00609D02*
X00303Y00596D01*
Y00578D02*
Y00596D01*
X00265Y00506D02*
X00285Y00526D01*
X00265Y00506D02*
Y00510D01*
X00254Y00522D02*
X00265Y00510D01*
X00183Y00522D02*
X00254D01*
X01233Y01055D02*
Y01083D01*
X01216Y01099D02*
X01233Y01083D01*
X01216Y01099D02*
Y01119D01*
X01292Y00806D02*
Y00847D01*
X01310Y00864D01*
X01370Y00813D02*
Y00864D01*
X01133Y01020D02*
X01167Y01055D01*
X01117Y01081D02*
X01136D01*
X01162Y01055D01*
X01263Y00980D02*
Y01042D01*
X01133Y00980D02*
Y01020D01*
Y00980D02*
X01216Y00897D01*
Y00896D02*
Y00897D01*
X01407Y00864D02*
X01451D01*
X01479Y00836D01*
X01243Y00847D02*
X01292D01*
X01216Y00874D02*
X01243Y00847D01*
X01216Y00874D02*
Y00896D01*
X00381Y00285D02*
X00413D01*
X00244Y00353D02*
X00315D01*
X00337Y00375D01*
Y00408D01*
X00197Y01181D02*
Y01260D01*
X00158Y00197D02*
X00197D01*
X01722Y00845D02*
Y00872D01*
X01742Y00892D01*
X01526Y00130D02*
X01591Y00195D01*
Y00455D01*
X01558Y00488D02*
X01591Y00455D01*
X01455Y00488D02*
X01558D01*
X01340Y00755D02*
X01348D01*
X01372Y00731D01*
X01369Y00728D02*
X01372Y00731D01*
X01361Y00728D02*
X01369D01*
X02033Y01177D02*
X02071D01*
X01485Y00558D02*
X01508Y00535D01*
X01468Y00629D02*
X01485Y00612D01*
Y00558D02*
Y00612D01*
X01468Y00629D02*
Y00666D01*
X01587Y00785D01*
X01662D01*
X01722Y00845D01*
X00179Y00391D02*
X00195Y00407D01*
Y00402D02*
X00244Y00353D01*
X00485Y00457D02*
Y00487D01*
X00449Y00523D02*
X00485Y00487D01*
X00395Y00645D02*
X00426Y00614D01*
X00398Y00584D02*
X00507D01*
X00426Y00614D02*
X00476D01*
X00477Y00614D01*
X00580D01*
X00760Y00488D02*
Y00493D01*
X00759Y00152D02*
X00781Y00130D01*
X00759Y00152D02*
Y00479D01*
D37*
X00779Y00852D02*
Y01006D01*
X00746Y01039D02*
X00779Y01006D01*
X00505Y01039D02*
X00746D01*
X00779Y00852D02*
X00811Y00820D01*
X00928D01*
X01850Y00591D02*
X01916D01*
X01850Y00709D02*
X02035D01*
X00928Y00820D02*
X00964Y00856D01*
X01950Y00459D02*
X01979Y00430D01*
X01950Y00459D02*
Y00557D01*
X01916Y00591D02*
X01950Y00557D01*
X02164Y00455D02*
Y00708D01*
X00475Y01069D02*
X00505Y01039D01*
X00475Y01069D02*
Y01202D01*
X00620Y01101D02*
X00864D01*
X00592Y01129D02*
X00620Y01101D01*
X00592Y01129D02*
Y01197D01*
X00964Y00856D02*
Y00901D01*
X00864D02*
Y01101D01*
X00964Y00901D02*
Y01101D01*
X01592Y01167D02*
X01663D01*
X01251Y01190D02*
X01301D01*
X01216Y01156D02*
X01251Y01190D01*
X01216Y01119D02*
Y01156D01*
X01663Y01167D02*
X01742D01*
X01301Y01190D02*
X01328Y01217D01*
X01542D01*
X01592Y01167D01*
X02040Y00514D02*
X02067Y00541D01*
Y00741D01*
X02035Y00709D02*
X02067Y00741D01*
X01979Y00430D02*
X02139D01*
X02164Y00455D01*
D38*
X01463Y01269D02*
Y01308D01*
X01443D01*
X01437Y01302D01*
Y01289D01*
X01443Y01282D01*
X01463D01*
X01424Y01269D02*
X01411D01*
X01417D01*
Y01295D01*
X01424D01*
X01384Y01269D02*
X01371D01*
X01365Y01276D01*
Y01289D01*
X01371Y01295D01*
X01384D01*
X01391Y01289D01*
Y01276D01*
X01384Y01269D01*
X01345Y01302D02*
Y01295D01*
X01351D01*
X01338D01*
X01345D01*
Y01276D01*
X01338Y01269D01*
X01319Y01295D02*
Y01269D01*
Y01282D01*
X01312Y01289D01*
X01306Y01295D01*
X01299D01*
X01240Y01308D02*
Y01269D01*
Y01282D01*
X01214Y01308D01*
X01233Y01289D01*
X01214Y01269D01*
X01201Y01295D02*
Y01276D01*
X01194Y01269D01*
X01174D01*
Y01295D01*
X01161Y01269D02*
X01148D01*
X01155D01*
Y01308D01*
X01161D01*
X01128Y01269D02*
X01115D01*
X01122D01*
Y01295D01*
X01128D01*
X01083Y01256D02*
X01076D01*
X01069Y01262D01*
Y01295D01*
X01089D01*
X01096Y01289D01*
Y01276D01*
X01089Y01269D01*
X01069D01*
X01050D02*
X01037D01*
X01030Y01276D01*
Y01289D01*
X01037Y01295D01*
X01050D01*
X01056Y01289D01*
Y01276D01*
X01050Y01269D01*
X01017Y01295D02*
Y01276D01*
X01010Y01269D01*
X01004Y01276D01*
X00997Y01269D01*
X00991Y01276D01*
Y01295D01*
X00978Y01269D02*
X00958D01*
X00951Y01276D01*
X00958Y01282D01*
X00971D01*
X00978Y01289D01*
X00971Y01295D01*
X00951D01*
X00938Y01269D02*
Y01308D01*
Y01282D02*
X00919Y01295D01*
X00938Y01282D02*
X00919Y01269D01*
X00899D02*
X00886D01*
X00892D01*
Y01295D01*
X00899D01*
D58*
X00964Y01101D02*
D03*
Y00901D02*
D03*
X02165Y00707D02*
D03*
Y00507D02*
D03*
D59*
X00864Y01101D02*
D03*
Y00901D02*
D03*
X02065Y00707D02*
D03*
Y00507D02*
D03*
D60*
X01742Y01089D02*
D03*
X01663D02*
D03*
Y00931D02*
D03*
X01742Y01167D02*
D03*
X01796Y01256D02*
D03*
X01609D02*
D03*
X01610Y00843D02*
D03*
X01797D02*
D03*
X01742Y00931D02*
D03*
Y01010D02*
D03*
X01663D02*
D03*
D61*
Y01167D02*
D03*
D62*
X00197Y00197D02*
D03*
X02047D02*
D03*
Y01181D02*
D03*
X00197D02*
D03*
D63*
X01271Y01048D02*
D03*
X00870Y00728D02*
D03*
X00815Y00729D02*
D03*
X00761Y00728D02*
D03*
X01850Y00591D02*
D03*
Y00709D02*
D03*
X01536Y00936D02*
D03*
X00385Y00815D02*
D03*
X00592Y01197D02*
D03*
X00475Y01202D02*
D03*
X01777Y00455D02*
D03*
X01282Y00192D02*
D03*
X01455Y00488D02*
D03*
X01441Y01099D02*
D03*
X01448Y01030D02*
D03*
X01353Y01130D02*
D03*
X01117Y01081D02*
D03*
X01524Y01117D02*
D03*
X01479Y00836D02*
D03*
X00200Y00398D02*
D03*
X01520Y01266D02*
D03*
X00330Y00310D02*
D03*
X01095Y00847D02*
D03*
X01361Y00728D02*
D03*
X01118Y00598D02*
D03*
X01223Y00589D02*
D03*
X01105Y00428D02*
D03*
X00381Y00507D02*
D03*
X00449Y00523D02*
D03*
X00461Y00652D02*
D03*
X00474Y00734D02*
D03*
X00760Y00493D02*
D03*
X00786Y00692D02*
D03*
X00735D02*
D03*
X00841D02*
D03*
X00897D02*
D03*
X01180Y00497D02*
D03*
Y00531D02*
D03*
X00957Y00650D02*
D03*
X01277Y00420D02*
D03*
X01116Y00646D02*
D03*
X01392Y00401D02*
D03*
D64*
X01287Y01119D02*
D03*
X01216D02*
D03*
D65*
X01012Y00806D02*
D03*
Y00708D02*
D03*
D66*
X00623Y00212D02*
D03*
X00586Y00316D02*
D03*
X00549Y00212D02*
D03*
X00303Y00578D02*
D03*
Y00475D02*
D03*
X00265D02*
D03*
X00228D02*
D03*
Y00578D02*
D03*
X00485Y00457D02*
D03*
Y00354D02*
D03*
X00447D02*
D03*
X00410D02*
D03*
Y00457D02*
D03*
X01333Y00968D02*
D03*
Y00864D02*
D03*
X01370D02*
D03*
Y00968D02*
D03*
X01407Y00864D02*
D03*
Y00968D02*
D03*
D67*
X01270Y01046D02*
D03*
M02*
