M48
;Layer_Color=9474304
;FILE_FORMAT=2:3
INCH
;TYPE=PLATED
T1F00S00C0.016
T2F00S00C0.031
T3F00S00C0.035
T4F00S00C0.051
T5F00S00C0.126
%
T01
X00200Y00398
X00330Y00310
X00381Y00507
X00449Y00523
X00461Y00652
X00474Y00734
X00385Y00815
X00761Y00728
X00815Y00729
X00870Y00728
X00897Y00692
X00841
X00786
X00735
X00760Y00493
X00957Y00650
X01116Y00646
X01118Y00598
X01223Y00589
X01180Y00531
Y00497
X01105Y00428
X01277Y00420
X01392Y00401
X01455Y00488
X01361Y00728
X01479Y00836
X01536Y00936
X01448Y01030
X01441Y01099
X01524Y01117
X01520Y01266
X01353Y01130
X01271Y01048
X01117Y01081
X01095Y00847
X01282Y00192
X00592Y01197
X00475Y01202
X01850Y00709
Y00591
X01777Y00455
T02
X01663Y00931
X01742
Y01010
Y01089
X01663
Y01010
Y01167
X01742
T03
X01610Y00843
X01797
X01796Y01256
X01609
T04
X00864Y00901
X00964
Y01101
X00864
X02065Y00707
X02165
Y00507
X02065
T05
X00197Y00197
Y01181
X02047
Y00197
M30
