M48
;Layer_Color=9474304
;FILE_FORMAT=2:4
INCH
;TYPE=PLATED
T1F00S00C0.0118
T2F00S00C0.0354
T3F00S00C0.1260
%
T01
X032000Y019000
X033000
X034000
X035000
X036000
X037000
X038000
X039000
X038500Y020000
X037500
X036500
X036000Y021000
X035520Y021110
X035530Y021819
X035886Y022839
X036026Y023225
X036040Y023770
X036010Y024290
X035886Y025019
Y025405
X035900Y026140
X036700Y026100
X036430Y025780
X037090Y025400
X037520Y026100
X038320Y026250
X038900Y025400
X040550Y025760
Y023980
X041620Y024780
Y026560
Y028340
Y030120
X038610Y029790
X038620Y028590
X038500Y028000
X037500
X037000Y029000
X035938Y028940
X035893Y028575
Y028189
X036010Y029690
X035893Y030479
Y030865
X037180Y030900
X037500Y030000
X038860Y030900
X040550Y027540
X036890Y026960
X036440Y027030
X033728Y028400
X034448Y029140
X032200Y029230
X032030Y028830
X032020Y028390
Y028000
X032360Y026665
X032406Y026177
X032280Y025780
X031854Y025385
X032406Y024999
X032246Y024305
X032406Y023607
X032240Y023220
X032236Y022835
X032406Y022449
X032780Y021110
X032000Y021000
X033720Y022920
X034440Y023660
X036750Y022780
X038000Y023000
X038500Y022000
X039000Y021000
X038000
X032413Y029765
X032320Y030450
X032411Y030865
X030948Y029360
X030660Y028230
X029869Y028511
X029607Y028257
X029321Y028511
X029053Y028257
X028788Y028510
X028468Y028330
X027659Y028531
X026379
X026058Y028360
X025290Y028160
Y027430
X025760Y026500
X026362Y026441
X026628Y026697
X028200Y026500
X028782Y026441
X029314
X029068Y026717
X029579Y026697
X029845Y026441
X030580Y026710
X030940Y023880
X029861Y023031
X029599Y022777
X029314Y023031
X029046Y022777
X028780Y023030
X028460Y022850
X028500Y022000
X029500
X030500
X031000Y021000
X030000
X029000
X028000
X027000
X026000
X025000
X024000
X023000
X022000
X021000
X020000
X019000
X018000
X017000
X017500Y022000
X018500
X019500
X020500
X021500
X022500
X022550Y022700
X022540Y023790
X022610Y024860
X022630Y026020
X022560Y026770
X022740Y027340
X022790Y028070
X023550Y027690
X023350Y026310
X024000Y025000
X025190Y025370
X026000Y025000
X026050Y022880
X026372Y023051
X027000Y023000
X027651Y023051
X027500Y022000
X026500
X025500
X024500
X023500
X025000Y023000
Y019000
X026000
X027000
X028000
X029000
X030000
X031000
X024000
X023000
X022000
X021000
X020000
X019000
X018000
X017000
X016000
X016500Y022000
X017940Y023800
X020270Y024080
X020080Y025450
X020500Y026000
X021500
X019290Y025950
X019260Y027520
X019000Y029000
X020000
X019830Y029910
X019420Y030570
X018270Y030700
X018630Y029910
X018170Y029320
X017150Y029310
X016780Y028850
X017850Y028510
Y027990
X017330Y027240
X016500Y026000
Y030000
X017000Y031000
X021000
X022000
X024000
X023830Y030350
X024780Y030300
X025390Y030220
X026470Y030300
X025080Y028970
X024840Y028610
X024000Y029000
X023220Y029500
X022000Y029000
X021160Y029140
X021440Y028510
X015500Y030000
X014250
X012750
X013500Y028500
X012000
X012750Y027000
X013500Y025500
X012000
X012750Y024000
X013500Y022500
X012000
X012750Y021000
X014250
X015500Y022000
X015000Y019000
X013500Y019500
X012000
Y031500
X013500
X014250Y033000
X012750
X013500Y034500
X012000
X012750Y036000
X014250
X015500
X013500Y037500
X012000
X012750Y039000
X014250
X015500Y040000
X015000Y041000
X013500Y040500
X012000
X015500Y032000
X016500
X017500
X018500
X019330Y031750
X020310Y031450
X021590Y031470
X021220Y032360
X022280Y032250
Y033430
X022320Y034630
X023280Y034760
X023690Y034990
X023500Y036000
X022500
X021500
X020500
X019500
X020000Y035000
X019000
Y033000
X018000
X017000
X016500Y036000
X018000Y037000
X018500Y038000
X020000Y039000
X020140Y041230
X021030
X021920
X022810
X023700
X024590
X025480
X026370
X027260
X028150
X029040
X029930
X030820
X030500Y038000
X030096Y037657
X029850Y037381
X029584Y037637
X029318Y037381
X029072Y037657
X028786Y037381
X028204Y037440
X028000Y039000
X029000
X027000
X026000
X025000
X024000
X023000
X023500Y038000
X024500
X025500
X025764Y037440
X026366Y037381
X026632Y037637
X026500Y036000
X025010Y036010
X025390Y036530
X024000Y037000
X023000
X022000
X021000
X021500Y038000
X022500
X025000Y035000
X024990Y034620
X025170Y033520
X024750Y033500
X024210Y033520
X025530Y033800
X026054Y033820
X026376Y033991
X027656
X028464Y033790
X028784Y033970
X029050Y033717
X029318Y033971
X029604Y033717
X029866Y033971
X030780Y033270
X031020Y032460
X030560Y031770
X029853Y031921
X029587Y032177
X029321Y031921
X029075Y032197
X028789Y031921
X028208Y031980
X027740Y032430
X027180Y031970
X026635Y032177
X026369Y031921
X025768Y031980
X026070Y032780
X024500Y032000
X023630Y032150
X020850Y033290
X020200Y033640
X020500Y034000
X019000Y041000
X018000
X017000
X016000
X016500Y040000
X017500
X028570Y032770
X030099Y032197
X030944Y034820
X032210Y034720
X032200Y034270
X032210Y033880
X032410Y033489
X032413Y032145
X032250Y031720
X032270Y031290
X033620Y032250
X034600Y032310
X035720Y032420
X036190Y032450
X036910Y032360
X036708Y031580
X036438Y031260
X035928Y031390
X037480Y031580
X038360Y031870
X038610Y033480
X038500Y034000
X038630Y034400
X038580Y035460
X038810Y036330
X037220Y036340
X036770Y036250
X036434Y036720
X036704Y037040
X037420Y036990
X035924Y036850
X035970Y036340
X035940Y035950
X036150Y035270
X035934Y034400
X035890Y034035
X035910Y033650
X036810Y033460
X037500Y034000
X037050Y034740
X034444Y034600
X033724Y033860
X032200Y035270
X032320Y036059
Y036440
Y036830
Y037240
X032220Y037900
X031500Y038000
X032800Y038516
X033500Y038000
X035500
X035490Y038516
Y039224
X036760Y039680
X037050Y041230
X036160
X035270
X034380
X033490
X032600
X031710
X038000Y041000
X039000
X038260Y038070
X036500Y038000
X040550Y036440
Y034660
Y032880
X041620Y033680
Y035460
Y037240
Y031900
T02
X016050Y020510
Y021510
Y022510
Y023510
Y024510
Y025510
Y026510
Y027510
Y028510
Y029510
Y030510
X015050
Y029510
Y028510
Y027510
Y026510
Y025510
Y024510
Y023510
Y022510
Y021510
Y020510
Y031510
Y032510
Y033510
Y034510
Y035510
Y036510
Y037510
Y038510
Y039510
X016050
Y038510
Y037510
Y036510
Y035510
Y034510
Y033510
Y032510
Y031510
T03
X040680Y020270
Y040060
M30
