%FSAX23Y23*%
%MOIN*%
G70*
G01*
G75*
G04 Layer_Physical_Order=2*
G04 Layer_Color=16711680*
%ADD10R,0.035X0.035*%
%ADD11R,0.035X0.035*%
%ADD12R,0.059X0.051*%
%ADD13R,0.028X0.070*%
%ADD14P,0.050X4X90.0*%
%ADD15R,0.047X0.079*%
%ADD16R,0.079X0.071*%
%ADD17R,0.048X0.024*%
%ADD18R,0.051X0.035*%
%ADD19R,0.037X0.039*%
%ADD20R,0.012X0.065*%
%ADD21O,0.016X0.077*%
%ADD22R,0.043X0.067*%
%ADD23O,0.055X0.014*%
%ADD24O,0.014X0.055*%
%ADD25O,0.087X0.024*%
%ADD26R,0.096X0.093*%
%ADD27O,0.069X0.022*%
%ADD28O,0.022X0.069*%
%ADD29O,0.012X0.031*%
%ADD30R,0.070X0.028*%
%ADD31O,0.059X0.018*%
%ADD32R,0.045X0.071*%
%ADD33O,0.028X0.102*%
%ADD34R,0.067X0.043*%
%ADD35R,0.057X0.045*%
%ADD36C,0.005*%
%ADD37C,0.050*%
%ADD38C,0.010*%
%ADD39C,0.080*%
%ADD40C,0.012*%
%ADD41C,0.020*%
%ADD42C,0.015*%
%ADD43C,0.022*%
%ADD44C,0.030*%
%ADD45C,0.100*%
%ADD46C,0.013*%
%ADD47C,0.025*%
%ADD48C,0.028*%
%ADD49R,0.430X0.045*%
%ADD50C,0.224*%
%ADD51R,0.075X0.075*%
%ADD52C,0.075*%
%ADD53R,0.075X0.075*%
%ADD54C,0.060*%
%ADD55C,0.059*%
%ADD56R,0.059X0.059*%
%ADD57R,0.069X0.069*%
%ADD58C,0.069*%
%ADD59C,0.067*%
%ADD60C,0.071*%
%ADD61C,0.032*%
%ADD62C,0.050*%
%ADD63R,0.039X0.037*%
%ADD64R,0.035X0.051*%
%ADD65R,0.024X0.048*%
%ADD66R,0.065X0.012*%
%ADD67R,0.045X0.057*%
%ADD68R,0.118X0.043*%
%ADD69R,0.358X0.419*%
%ADD70R,0.093X0.096*%
%ADD71R,0.071X0.045*%
%ADD72R,0.024X0.031*%
%ADD73R,0.071X0.079*%
%ADD74C,0.043*%
%ADD75C,0.150*%
%ADD76C,0.040*%
%ADD77C,0.070*%
G36*
X02860Y03808D02*
X02855Y03806D01*
X02848Y03811D01*
X02839Y03815D01*
X02830Y03816D01*
X02821Y03815D01*
X02812Y03811D01*
X02804Y03806D01*
X02799Y03798D01*
X02795Y03789D01*
X02794Y03780D01*
X02795Y03771D01*
X02795Y03769D01*
X02792Y03765D01*
X02785Y03766D01*
X02776Y03765D01*
X02767Y03761D01*
X02759Y03756D01*
X02754Y03748D01*
X02750Y03739D01*
X02749Y03730D01*
X02750Y03721D01*
X02754Y03712D01*
X02755Y03710D01*
Y03676D01*
X02750Y03675D01*
X02746Y03684D01*
X02741Y03691D01*
X02733Y03697D01*
X02724Y03701D01*
X02715Y03702D01*
X02705Y03701D01*
X02697Y03697D01*
X02689Y03691D01*
X02683Y03684D01*
X02680Y03675D01*
X02679Y03665D01*
X02679Y03659D01*
X02676Y03655D01*
X02667D01*
Y03648D01*
X02663Y03645D01*
X02663Y03645D01*
X02663Y03645D01*
Y03645D01*
X02653D01*
X02651Y03650D01*
X02654Y03651D01*
X02658Y03657D01*
X02660Y03663D01*
X02661Y03665D01*
X02609D01*
X02610Y03663D01*
X02612Y03657D01*
X02616Y03651D01*
X02619Y03650D01*
X02617Y03645D01*
X02606D01*
Y03620D01*
X02635D01*
Y03615D01*
X02640D01*
Y03586D01*
X02663D01*
X02663Y03586D01*
Y03586D01*
X02663Y03586D01*
X02667Y03582D01*
Y03576D01*
X02744D01*
Y03644D01*
X02746Y03647D01*
X02750Y03656D01*
X02750Y03657D01*
X02755D01*
X02756Y03652D01*
X02758Y03647D01*
X02759Y03645D01*
X02764Y03639D01*
X02850Y03553D01*
X02850Y03551D01*
X02851Y03547D01*
X02849Y03543D01*
X02847D01*
Y03468D01*
Y03397D01*
X02855D01*
Y03380D01*
X02855Y03380D01*
Y03319D01*
X02795Y03260D01*
X02790Y03260D01*
X02788Y03263D01*
Y03320D01*
X02787Y03327D01*
X02785Y03331D01*
X02784Y03334D01*
X02780Y03340D01*
X02765Y03355D01*
X02759Y03359D01*
X02756Y03360D01*
X02752Y03362D01*
X02745Y03363D01*
X02538D01*
Y03453D01*
X02543Y03454D01*
X02543Y03452D01*
X02549Y03444D01*
X02557Y03439D01*
X02565Y03435D01*
X02575Y03434D01*
X02584Y03435D01*
X02591Y03438D01*
X02595Y03435D01*
Y03421D01*
X02674D01*
Y03499D01*
X02668D01*
X02664Y03502D01*
X02664Y03502D01*
X02664Y03502D01*
X02664D01*
Y03526D01*
X02605D01*
Y03502D01*
X02605Y03502D01*
X02605D01*
X02605Y03502D01*
X02601Y03499D01*
X02597D01*
X02593Y03501D01*
X02584Y03505D01*
X02575Y03506D01*
X02565Y03505D01*
X02557Y03501D01*
X02550Y03496D01*
X02545Y03499D01*
X02546Y03505D01*
X02545Y03514D01*
X02541Y03523D01*
X02536Y03531D01*
X02528Y03536D01*
X02519Y03540D01*
X02510Y03541D01*
X02501Y03540D01*
X02495Y03538D01*
X02408D01*
X02403Y03541D01*
X02394Y03545D01*
X02385Y03546D01*
X02376Y03545D01*
X02367Y03541D01*
X02359Y03536D01*
X02354Y03528D01*
X02350Y03519D01*
X02349Y03510D01*
X02350Y03501D01*
X02354Y03492D01*
X02359Y03484D01*
X02367Y03479D01*
X02376Y03475D01*
X02385Y03474D01*
X02394Y03475D01*
X02403Y03479D01*
X02408Y03482D01*
X02482D01*
X02482Y03482D01*
Y03353D01*
X02380D01*
X02372Y03352D01*
X02366Y03349D01*
X02360Y03345D01*
X02215Y03200D01*
X02211Y03194D01*
X02210Y03191D01*
X02208Y03188D01*
X02207Y03180D01*
Y02720D01*
X02208Y02713D01*
X02210Y02710D01*
Y02675D01*
X02210Y02675D01*
X02210D01*
X02211Y02665D01*
X02217Y02657D01*
X02300Y02574D01*
X02298Y02569D01*
X02293Y02569D01*
X02290Y02569D01*
X02276Y02567D01*
X02275Y02566D01*
X02249Y02592D01*
X02240Y02598D01*
X02231Y02600D01*
X02165D01*
X02156Y02598D01*
X02147Y02592D01*
X02103Y02548D01*
X02077D01*
Y02473D01*
X02153D01*
X02153Y02473D01*
Y02473D01*
X02154Y02473D01*
X02162Y02467D01*
X02173Y02462D01*
X02173Y02457D01*
X02167Y02455D01*
X02158Y02447D01*
X02150Y02438D01*
X02148Y02431D01*
X02143Y02432D01*
Y02435D01*
X02120D01*
Y02412D01*
X02120D01*
X02120Y02412D01*
X02120Y02412D01*
X02143Y02412D01*
X02143D01*
X02145D01*
X02146Y02403D01*
X02150Y02392D01*
X02158Y02383D01*
X02167Y02375D01*
X02174Y02373D01*
X02173Y02368D01*
X02167D01*
Y02345D01*
X02195D01*
Y02335D01*
X02167D01*
Y02315D01*
X02070D01*
X01830Y02555D01*
Y02744D01*
X01836Y02750D01*
X01854D01*
X01854Y02749D01*
X01862Y02744D01*
X01871Y02740D01*
X01880Y02739D01*
X01889Y02740D01*
X01898Y02744D01*
X01900Y02745D01*
X01907D01*
Y02737D01*
X01982D01*
Y02787D01*
X01982D01*
Y02837D01*
X01982D01*
Y02887D01*
X01988D01*
Y02880D01*
X02043D01*
Y02887D01*
X02053D01*
Y02963D01*
X02053D01*
Y02990D01*
Y03065D01*
X02053D01*
Y03090D01*
Y03165D01*
X02053D01*
Y03190D01*
Y03192D01*
X02182D01*
X02191Y03193D01*
X02200Y03197D01*
X02207Y03202D01*
X02207Y03202D01*
X02207Y03202D01*
X02300Y03295D01*
X02306Y03302D01*
X02309Y03311D01*
X02310Y03320D01*
X02310Y03320D01*
X02310Y03320D01*
Y03320D01*
Y03450D01*
X02309Y03459D01*
X02306Y03467D01*
X02300Y03475D01*
X02190Y03585D01*
Y03603D01*
X02241Y03654D01*
X02245Y03659D01*
X02248Y03666D01*
X02249Y03673D01*
X02249Y03673D01*
X02249Y03673D01*
Y03673D01*
Y03737D01*
X02308Y03796D01*
X02313Y03794D01*
Y03773D01*
X02325D01*
X02327Y03768D01*
X02320Y03759D01*
X02314Y03745D01*
X02312Y03730D01*
X02314Y03715D01*
X02320Y03701D01*
X02329Y03689D01*
X02341Y03680D01*
X02348Y03677D01*
Y03672D01*
X02346Y03671D01*
X02336Y03664D01*
X02329Y03654D01*
X02324Y03642D01*
X02323Y03635D01*
X02417D01*
X02416Y03642D01*
X02411Y03654D01*
X02404Y03664D01*
X02394Y03671D01*
X02392Y03672D01*
Y03677D01*
X02399Y03680D01*
X02411Y03689D01*
X02420Y03701D01*
X02426Y03715D01*
X02428Y03730D01*
X02426Y03745D01*
X02420Y03759D01*
X02413Y03768D01*
X02415Y03773D01*
X02427D01*
Y03817D01*
X02455Y03845D01*
X02488D01*
X02490Y03840D01*
X02484Y03836D01*
X02479Y03828D01*
X02475Y03819D01*
X02474Y03810D01*
X02475Y03801D01*
X02479Y03792D01*
X02482Y03788D01*
X02479Y03783D01*
X02472D01*
Y03708D01*
X02548D01*
Y03783D01*
X02541D01*
X02538Y03788D01*
X02541Y03792D01*
X02545Y03801D01*
X02546Y03810D01*
X02545Y03819D01*
X02541Y03828D01*
X02536Y03836D01*
X02530Y03840D01*
X02532Y03845D01*
X02860D01*
Y03808D01*
D02*
G37*
G36*
X01905Y01738D02*
Y01640D01*
X01906Y01632D01*
X01908Y01627D01*
X01909Y01625D01*
X01914Y01619D01*
X01947Y01585D01*
Y01580D01*
X01914Y01546D01*
X01909Y01540D01*
X01908Y01538D01*
X01906Y01533D01*
X01905Y01525D01*
Y01358D01*
X01811D01*
Y01366D01*
X01765D01*
Y01609D01*
X01875Y01719D01*
X01880Y01727D01*
X01882Y01737D01*
X01882Y01737D01*
X01882Y01737D01*
Y01737D01*
Y01750D01*
X01893D01*
X01905Y01738D01*
D02*
G37*
G36*
X01290Y03316D02*
Y03035D01*
Y02776D01*
X01291Y02764D01*
X01294Y02758D01*
X01296Y02753D01*
X01303Y02744D01*
X01472Y02575D01*
Y02567D01*
X01465Y02561D01*
X01385D01*
X01382Y02565D01*
X01385Y02573D01*
X01386Y02582D01*
X01385Y02592D01*
X01381Y02600D01*
X01376Y02608D01*
X01368Y02614D01*
X01359Y02617D01*
X01350Y02618D01*
X01342Y02617D01*
X01245D01*
Y02624D01*
X01087D01*
Y02541D01*
Y02474D01*
X01097D01*
Y02453D01*
X01235D01*
Y02470D01*
X01484D01*
X01496Y02471D01*
X01502Y02474D01*
X01507Y02476D01*
X01516Y02483D01*
X01516Y02483D01*
X01516Y02483D01*
X01538Y02504D01*
X01557D01*
X01633Y02428D01*
Y02327D01*
X01617D01*
Y02243D01*
X01723D01*
Y02307D01*
X01740D01*
Y02011D01*
X01709Y01980D01*
X01670D01*
Y01981D01*
X01670D01*
Y02005D01*
X01640D01*
Y02015D01*
X01670D01*
Y02038D01*
D01*
Y02038D01*
X01673Y02042D01*
X01680D01*
Y02077D01*
X01689Y02087D01*
X01694Y02093D01*
X01696Y02097D01*
X01697Y02101D01*
X01697Y02102D01*
X01698Y02108D01*
X01698Y02108D01*
Y02113D01*
X01723D01*
Y02197D01*
X01617D01*
Y02119D01*
X01600D01*
Y02104D01*
X01592Y02098D01*
X01582Y02088D01*
X01576Y02080D01*
X01575Y02070D01*
Y01932D01*
X01570Y01930D01*
X01569Y01930D01*
X01560Y01931D01*
X01551Y01930D01*
X01542Y01926D01*
X01534Y01921D01*
X01529Y01913D01*
X01525Y01906D01*
X01520Y01907D01*
Y02094D01*
X01554Y02128D01*
X01554Y02127D01*
X01563Y02129D01*
X01572Y02132D01*
X01579Y02138D01*
X01585Y02146D01*
X01589Y02154D01*
X01590Y02164D01*
X01589Y02173D01*
X01585Y02182D01*
X01579Y02189D01*
X01572Y02195D01*
X01563Y02199D01*
X01554Y02200D01*
X01544Y02199D01*
X01536Y02195D01*
X01528Y02189D01*
X01522Y02182D01*
X01519Y02173D01*
X01517Y02164D01*
X01518Y02164D01*
X01477Y02123D01*
X01471Y02115D01*
X01470Y02105D01*
Y01761D01*
X01469Y01761D01*
X01464Y01753D01*
X01460Y01744D01*
X01459Y01735D01*
X01460Y01726D01*
X01464Y01717D01*
X01469Y01709D01*
X01477Y01704D01*
X01483Y01701D01*
X01484Y01696D01*
X01447Y01660D01*
X01441Y01651D01*
X01440Y01642D01*
Y01615D01*
X01435Y01614D01*
X01430Y01620D01*
X01423Y01626D01*
X01414Y01629D01*
X01410Y01630D01*
Y01595D01*
Y01561D01*
X01414Y01561D01*
X01423Y01565D01*
X01430Y01570D01*
X01435Y01576D01*
X01440Y01575D01*
Y01388D01*
X01440Y01388D01*
X01440D01*
X01441Y01379D01*
X01447Y01370D01*
X01455Y01363D01*
Y01231D01*
X01454Y01231D01*
X01449Y01223D01*
X01445Y01214D01*
X01444Y01205D01*
X01445Y01196D01*
X01449Y01187D01*
X01454Y01179D01*
X01462Y01174D01*
X01471Y01170D01*
X01480Y01169D01*
X01482Y01169D01*
X01486Y01166D01*
Y00697D01*
X01480Y00691D01*
X01480Y00691D01*
X01471Y00690D01*
X01462Y00686D01*
X01454Y00681D01*
X01449Y00673D01*
X01445Y00664D01*
X01444Y00655D01*
X01445Y00646D01*
X01449Y00637D01*
X01454Y00629D01*
X01462Y00624D01*
X01471Y00620D01*
X01480Y00619D01*
X01489Y00620D01*
X01498Y00624D01*
X01501Y00626D01*
X01506Y00624D01*
Y00269D01*
X01507Y00259D01*
X01513Y00251D01*
X01538Y00226D01*
X01536Y00221D01*
X01495D01*
Y00221D01*
Y00222D01*
X01495Y00225D01*
X01495Y00225D01*
X01495D01*
Y00246D01*
X01435D01*
Y00222D01*
X01435Y00222D01*
X01435D01*
X01435Y00222D01*
X01432Y00219D01*
X01425D01*
Y00212D01*
X01424Y00210D01*
X01424D01*
Y00210D01*
D01*
X01416Y00209D01*
X01412Y00207D01*
X01375D01*
Y00119D01*
X01440D01*
Y00141D01*
X01505D01*
Y00146D01*
X01571D01*
Y00187D01*
X01575Y00189D01*
X01589Y00175D01*
X01589Y00175D01*
X01590Y00166D01*
X01594Y00157D01*
X01599Y00149D01*
X01607Y00144D01*
X01611Y00142D01*
X01612Y00137D01*
X01607Y00132D01*
X01571D01*
Y00134D01*
X01479D01*
Y00101D01*
X01479Y00100D01*
X01336D01*
X01333Y00104D01*
X01333Y00105D01*
X01347Y00119D01*
X01365D01*
Y00207D01*
X01338D01*
X01334Y00211D01*
X01325Y00214D01*
X01320Y00215D01*
Y00219D01*
X01310D01*
Y00219D01*
Y00222D01*
X01310Y00222D01*
X01310Y00222D01*
X01310D01*
Y00246D01*
X01280D01*
Y00251D01*
X01275D01*
Y00280D01*
X01251D01*
X01251Y00280D01*
Y00280D01*
X01250Y00280D01*
X01248Y00279D01*
D01*
X01247Y00279D01*
X01247Y00279D01*
Y00279D01*
X01225D01*
Y00251D01*
Y00223D01*
X01240D01*
Y00219D01*
X01240D01*
X01240Y00218D01*
X01182D01*
Y00142D01*
X01240D01*
Y00141D01*
X01269D01*
X01271Y00137D01*
X01266Y00131D01*
X01262Y00122D01*
X01261Y00112D01*
X01262Y00104D01*
X01259Y00100D01*
X00970D01*
X00585Y00485D01*
Y03190D01*
X00701Y03306D01*
X00836D01*
Y03299D01*
X00934D01*
Y03303D01*
X01006D01*
Y03379D01*
X00995D01*
Y03386D01*
X00999Y03390D01*
X01000Y03390D01*
X01024Y03390D01*
X01027Y03386D01*
Y03379D01*
X01163D01*
Y03400D01*
X01206D01*
X01290Y03316D01*
D02*
G37*
G36*
X02492Y01578D02*
Y01266D01*
X02482Y01256D01*
X02476Y01255D01*
X02467Y01251D01*
X02459Y01246D01*
X02454Y01238D01*
X02450Y01229D01*
X02449Y01220D01*
X02450Y01211D01*
X02454Y01202D01*
X02459Y01194D01*
X02467Y01189D01*
X02476Y01185D01*
X02485Y01184D01*
X02494Y01185D01*
X02503Y01189D01*
X02511Y01194D01*
X02516Y01202D01*
X02520Y01211D01*
X02521Y01217D01*
X02533Y01228D01*
X02539Y01222D01*
X02540Y01216D01*
X02544Y01207D01*
X02549Y01199D01*
X02557Y01194D01*
X02566Y01190D01*
X02575Y01189D01*
X02584Y01190D01*
X02593Y01194D01*
X02601Y01199D01*
X02606Y01207D01*
X02610Y01216D01*
X02611Y01225D01*
X02610Y01234D01*
X02606Y01243D01*
X02601Y01251D01*
X02593Y01256D01*
X02584Y01260D01*
X02578Y01261D01*
X02573Y01266D01*
Y01280D01*
X03330D01*
Y01240D01*
Y00495D01*
X03320D01*
Y00901D01*
X03319Y00911D01*
X03316Y00919D01*
X03310Y00926D01*
X03156Y01080D01*
X03149Y01086D01*
X03141Y01089D01*
X03131Y01090D01*
X02861D01*
X02852Y01089D01*
X02843Y01086D01*
X02836Y01080D01*
X02827Y01071D01*
X02200D01*
X02191Y01070D01*
X02183Y01066D01*
X02175Y01060D01*
X02153Y01038D01*
X02107D01*
Y01044D01*
X02089D01*
Y01091D01*
X02088Y01101D01*
X02084Y01109D01*
X02078Y01116D01*
X02065Y01130D01*
X02061Y01136D01*
X02053Y01141D01*
X02044Y01145D01*
X02035Y01146D01*
X02026Y01145D01*
X02017Y01141D01*
X02009Y01136D01*
X02004Y01128D01*
X02000Y01119D01*
X01999Y01110D01*
X02000Y01101D01*
X02004Y01092D01*
X02009Y01084D01*
X02015Y01080D01*
X02018Y01077D01*
Y01044D01*
X02000D01*
Y01038D01*
X01778D01*
X01769Y01037D01*
X01760Y01033D01*
X01753Y01028D01*
X01665Y00940D01*
X01659Y00933D01*
X01656Y00924D01*
X01655Y00915D01*
Y00203D01*
X01650Y00201D01*
X01643Y00206D01*
X01634Y00210D01*
X01625Y00211D01*
X01625Y00211D01*
X01556Y00280D01*
Y00449D01*
X01560Y00452D01*
X01567Y00451D01*
X01577Y00453D01*
X01586Y00456D01*
X01593Y00462D01*
X01599Y00469D01*
X01602Y00478D01*
X01604Y00488D01*
X01602Y00497D01*
X01599Y00506D01*
X01593Y00513D01*
X01593Y00513D01*
Y00557D01*
X01628Y00592D01*
X01634Y00600D01*
X01635Y00610D01*
Y01210D01*
X01710D01*
X01720Y01211D01*
X01728Y01217D01*
X01728Y01217D01*
X01728Y01217D01*
X01757Y01246D01*
X01761Y01251D01*
X01765Y01250D01*
Y01222D01*
X01775D01*
Y01222D01*
Y01218D01*
X01775Y01218D01*
X01775Y01218D01*
X01775D01*
Y01195D01*
X01835D01*
Y01218D01*
X01835Y01218D01*
D01*
D01*
X01835Y01218D01*
D01*
X01838Y01222D01*
X01845D01*
Y01282D01*
X01948D01*
Y01315D01*
X01956Y01323D01*
X01961Y01329D01*
X01964Y01337D01*
X01965Y01345D01*
X01965Y01345D01*
Y01512D01*
X01993Y01540D01*
X02392D01*
X02395Y01538D01*
X02395Y01536D01*
X02399Y01527D01*
X02404Y01519D01*
X02412Y01514D01*
X02421Y01510D01*
X02430Y01509D01*
X02439Y01510D01*
X02448Y01514D01*
X02456Y01519D01*
X02461Y01527D01*
X02465Y01536D01*
X02466Y01545D01*
X02465Y01554D01*
X02461Y01563D01*
X02460Y01565D01*
X02462Y01570D01*
X02465D01*
X02473Y01571D01*
X02478Y01573D01*
X02480Y01574D01*
X02486Y01579D01*
X02488Y01580D01*
X02492Y01578D01*
D02*
G37*
G36*
X03775Y02147D02*
Y02076D01*
X03775D01*
X03777Y02074D01*
X03776Y02069D01*
X03777Y02060D01*
X03781Y02051D01*
X03787Y02044D01*
X03794Y02038D01*
X03803Y02034D01*
X03812Y02033D01*
X03822Y02034D01*
X03831Y02038D01*
X03838Y02044D01*
X03842D01*
X03849Y02038D01*
X03858Y02034D01*
X03867Y02033D01*
X03877Y02034D01*
X03884Y02037D01*
X03889Y02034D01*
Y01913D01*
X03859D01*
X03842Y01931D01*
X03835Y01936D01*
X03833Y01937D01*
X03828Y01939D01*
X03820Y01940D01*
X03811D01*
Y01949D01*
X03734D01*
Y01939D01*
X03734D01*
X03730D01*
X03730Y01939D01*
X03730Y01939D01*
Y01939D01*
X03706D01*
Y01910D01*
Y01880D01*
X03730D01*
X03730Y01880D01*
Y01880D01*
X03730Y01880D01*
X03734Y01876D01*
Y01870D01*
X03762D01*
X03764Y01865D01*
X03758Y01858D01*
X03755Y01849D01*
X03753Y01840D01*
X03755Y01830D01*
X03758Y01822D01*
X03764Y01814D01*
X03772Y01808D01*
X03780Y01805D01*
X03790Y01803D01*
X03799Y01805D01*
X03806Y01807D01*
X03807Y01807D01*
Y01807D01*
X03809D01*
X03811Y01802D01*
X03739Y01730D01*
X03734Y01722D01*
X03732Y01712D01*
Y01695D01*
X03732Y01695D01*
X03726Y01687D01*
X03722Y01679D01*
X03721Y01669D01*
X03722Y01665D01*
X03720Y01662D01*
X03720D01*
Y01589D01*
X03685D01*
Y01591D01*
Y01662D01*
X03685D01*
X03683Y01665D01*
X03684Y01669D01*
X03682Y01679D01*
X03679Y01687D01*
X03673Y01695D01*
X03666Y01701D01*
X03657Y01704D01*
X03647Y01706D01*
X03638Y01704D01*
X03629Y01701D01*
X03622Y01695D01*
X03622Y01695D01*
X03620D01*
X03613Y01701D01*
X03604Y01704D01*
X03595Y01706D01*
X03589Y01705D01*
X03585Y01708D01*
Y02100D01*
X03605Y02120D01*
X03610Y02118D01*
Y02076D01*
X03610D01*
X03612Y02074D01*
X03611Y02070D01*
X03612Y02061D01*
X03616Y02052D01*
X03622Y02044D01*
X03629Y02039D01*
X03638Y02035D01*
X03647Y02034D01*
X03657Y02035D01*
X03666Y02039D01*
X03673Y02044D01*
X03677Y02044D01*
X03684Y02038D01*
X03693Y02034D01*
X03702Y02033D01*
X03712Y02034D01*
X03721Y02038D01*
X03728Y02044D01*
X03734Y02051D01*
X03737Y02060D01*
X03739Y02069D01*
X03738Y02074D01*
X03740Y02076D01*
X03740D01*
Y02147D01*
Y02149D01*
X03775D01*
Y02147D01*
D02*
G37*
G36*
X02607Y03253D02*
X02616D01*
X02619Y03249D01*
X02618Y03247D01*
X02618Y03245D01*
X02644D01*
Y03235D01*
X02618D01*
X02618Y03234D01*
X02621Y03227D01*
X02625Y03222D01*
X02630Y03218D01*
X02637Y03215D01*
X02636Y03210D01*
X02614D01*
Y03210D01*
X02611D01*
Y03210D01*
X02589D01*
Y03210D01*
Y03210D01*
X02589Y03213D01*
X02589Y03213D01*
X02589D01*
Y03235D01*
X02560D01*
Y03240D01*
X02555D01*
Y03270D01*
X02532D01*
X02532Y03270D01*
Y03270D01*
X02532Y03270D01*
X02528Y03273D01*
Y03280D01*
X02489D01*
X02476Y03293D01*
X02478Y03297D01*
X02510D01*
X02517Y03298D01*
X02524Y03301D01*
X02530Y03305D01*
X02531Y03307D01*
X02607D01*
Y03253D01*
D02*
G37*
G36*
X02403Y03292D02*
X02405Y03288D01*
X02406Y03286D01*
X02410Y03280D01*
X02451Y03239D01*
Y03206D01*
X02445D01*
Y03214D01*
X02365D01*
Y03137D01*
X02375D01*
Y03133D01*
X02375D01*
Y03110D01*
X02435D01*
Y03118D01*
X02458D01*
Y03140D01*
X02463D01*
Y03145D01*
X02497D01*
Y03145D01*
X02556D01*
X02562Y03139D01*
X02560Y03135D01*
X02523D01*
Y03070D01*
X02523D01*
Y03045D01*
X02522Y03045D01*
Y03045D01*
X02521D01*
X02517Y03048D01*
Y03050D01*
X02462D01*
Y03035D01*
X02461D01*
Y03010D01*
X02490D01*
Y03000D01*
X02461D01*
Y02995D01*
X02445D01*
X02435Y02994D01*
X02427Y02988D01*
X02352Y02913D01*
X02346Y02905D01*
X02345Y02895D01*
Y02811D01*
X02344Y02811D01*
X02339Y02803D01*
X02335Y02794D01*
X02334Y02785D01*
X02335Y02776D01*
X02339Y02767D01*
X02344Y02759D01*
X02352Y02754D01*
X02361Y02750D01*
X02370Y02749D01*
X02379Y02750D01*
X02388Y02754D01*
X02396Y02759D01*
X02401Y02767D01*
X02403Y02770D01*
X02408Y02770D01*
X02408Y02770D01*
X02415Y02764D01*
X02424Y02760D01*
X02434Y02759D01*
X02443Y02760D01*
X02452Y02764D01*
X02459Y02770D01*
X02465Y02777D01*
X02469Y02786D01*
X02470Y02795D01*
X02469Y02805D01*
X02468Y02805D01*
Y02811D01*
X02472D01*
Y02821D01*
X02475D01*
Y02821D01*
X02506D01*
X02507Y02816D01*
X02500Y02813D01*
X02495Y02809D01*
X02491Y02804D01*
X02488Y02797D01*
X02488Y02795D01*
X02514D01*
Y02790D01*
X02519D01*
Y02765D01*
X02520Y02765D01*
X02527Y02768D01*
X02531Y02771D01*
X02535Y02769D01*
Y02766D01*
X02559D01*
Y02795D01*
X02569D01*
Y02766D01*
X02593D01*
D01*
X02593D01*
X02596Y02762D01*
Y02756D01*
X02674D01*
Y02811D01*
Y02867D01*
X02715D01*
Y02845D01*
X02739D01*
Y02870D01*
X02731D01*
Y02912D01*
X02738Y02920D01*
X02744Y02927D01*
X02748Y02935D01*
X02749Y02945D01*
Y02962D01*
X02757D01*
Y03054D01*
X02795D01*
Y03065D01*
X02803D01*
Y02974D01*
X02778D01*
Y02880D01*
X02776D01*
Y02870D01*
X02773D01*
Y02870D01*
X02749D01*
Y02840D01*
Y02811D01*
X02773D01*
D01*
X02773D01*
X02776Y02807D01*
Y02801D01*
X02784D01*
X02787Y02797D01*
X02784Y02790D01*
X02783Y02780D01*
X02784Y02771D01*
X02788Y02762D01*
X02794Y02755D01*
X02801Y02749D01*
X02810Y02745D01*
X02819Y02744D01*
X02829Y02745D01*
X02838Y02749D01*
X02845Y02755D01*
X02851Y02762D01*
X02854Y02771D01*
X02856Y02780D01*
X02854Y02790D01*
X02854Y02792D01*
X02854Y02801D01*
X02854D01*
Y02867D01*
X02861D01*
Y02962D01*
X02887D01*
X02887Y02962D01*
Y02962D01*
X02888Y02962D01*
X03000Y02850D01*
Y02778D01*
X02995Y02776D01*
X02988Y02782D01*
X02979Y02786D01*
X02969Y02787D01*
X02960Y02786D01*
X02951Y02782D01*
X02944Y02776D01*
X02938Y02769D01*
X02934Y02760D01*
X02933Y02750D01*
X02934Y02741D01*
X02936Y02737D01*
X02933Y02733D01*
X02932D01*
Y02658D01*
X03008D01*
Y02676D01*
X03012Y02678D01*
X03040Y02650D01*
X03048Y02644D01*
X03056Y02640D01*
X03065Y02639D01*
D01*
X03065Y02639D01*
D01*
X03067Y02638D01*
Y02637D01*
X03069D01*
Y02501D01*
X03029Y02461D01*
X03024Y02462D01*
Y02519D01*
X02916D01*
Y02503D01*
X02911Y02501D01*
X02909Y02504D01*
X02897Y02513D01*
X02884Y02518D01*
X02870Y02520D01*
X02856Y02518D01*
X02843Y02513D01*
X02831Y02504D01*
X02822Y02492D01*
X02817Y02480D01*
X02814D01*
X02812Y02480D01*
X02809Y02487D01*
X02802Y02497D01*
X02792Y02504D01*
X02782Y02508D01*
X02775Y02509D01*
Y02465D01*
Y02421D01*
X02782Y02422D01*
X02792Y02426D01*
X02802Y02433D01*
X02809Y02443D01*
X02812Y02450D01*
X02814Y02450D01*
X02817D01*
X02822Y02438D01*
X02831Y02426D01*
X02843Y02417D01*
X02856Y02412D01*
X02870Y02410D01*
X02884Y02412D01*
X02897Y02417D01*
X02909Y02426D01*
X02911Y02429D01*
X02916Y02427D01*
Y02411D01*
X02973D01*
X02974Y02406D01*
X02954Y02385D01*
X02629D01*
X02627Y02390D01*
X02629Y02393D01*
X02633Y02403D01*
X02634Y02410D01*
X02590D01*
Y02420D01*
X02634D01*
X02633Y02427D01*
X02629Y02437D01*
X02622Y02447D01*
X02612Y02454D01*
X02608Y02456D01*
X02609Y02461D01*
X02644D01*
Y02569D01*
X02536D01*
Y02553D01*
X02531Y02551D01*
X02529Y02554D01*
X02517Y02563D01*
X02504Y02568D01*
X02490Y02570D01*
X02476Y02568D01*
X02463Y02563D01*
X02451Y02554D01*
X02443Y02543D01*
X02438D01*
X02429Y02554D01*
X02417Y02563D01*
X02404Y02568D01*
X02390Y02570D01*
X02378Y02568D01*
X02376Y02570D01*
X02375Y02579D01*
X02371Y02588D01*
X02366Y02596D01*
X02358Y02601D01*
X02349Y02605D01*
X02340Y02606D01*
X02340Y02606D01*
X02260Y02686D01*
Y02710D01*
X02262Y02713D01*
X02263Y02720D01*
Y03169D01*
X02391Y03297D01*
X02403D01*
X02403Y03292D01*
D02*
G37*
G36*
X01847Y01937D02*
X01852Y01934D01*
Y01929D01*
Y01903D01*
X01833D01*
X01823Y01901D01*
X01815Y01896D01*
X01776Y01857D01*
X01771Y01849D01*
X01769Y01839D01*
Y01777D01*
X01743Y01750D01*
X01738Y01752D01*
Y01775D01*
Y01827D01*
Y01852D01*
Y01904D01*
Y01929D01*
Y01937D01*
X01783Y01982D01*
X01788Y01990D01*
X01793Y01991D01*
X01847Y01937D01*
D02*
G37*
G36*
X03746Y02874D02*
X03754Y02868D01*
X03762Y02865D01*
X03771Y02863D01*
X03804D01*
Y02857D01*
X03911D01*
Y02863D01*
X04002D01*
X04084Y02781D01*
Y02625D01*
X03861D01*
X03851Y02623D01*
X03850Y02623D01*
X03806D01*
Y02578D01*
X03793Y02564D01*
X03789Y02567D01*
X03790Y02571D01*
X03791Y02580D01*
X03790Y02589D01*
X03786Y02598D01*
X03781Y02606D01*
X03773Y02611D01*
X03764Y02615D01*
X03755Y02616D01*
X03749Y02616D01*
X03745Y02619D01*
Y02795D01*
X03744Y02805D01*
X03738Y02813D01*
X03668Y02883D01*
X03660Y02889D01*
X03650Y02890D01*
X03636D01*
X03636Y02891D01*
X03628Y02896D01*
X03619Y02900D01*
X03612Y02901D01*
X03612Y02906D01*
X03618Y02909D01*
X03626Y02914D01*
X03631Y02922D01*
X03635Y02931D01*
X03636Y02940D01*
X03635Y02949D01*
X03631Y02958D01*
X03626Y02966D01*
X03618Y02971D01*
X03609Y02975D01*
X03600Y02976D01*
X03591Y02975D01*
X03582Y02971D01*
X03574Y02966D01*
X03569Y02958D01*
X03565Y02949D01*
X03564Y02940D01*
X03564Y02940D01*
X03532Y02908D01*
X03526Y02900D01*
X03525Y02890D01*
Y02846D01*
X03524Y02846D01*
X03519Y02838D01*
X03515Y02829D01*
X03514Y02820D01*
X03515Y02811D01*
X03519Y02802D01*
X03524Y02794D01*
X03532Y02789D01*
X03541Y02785D01*
X03550Y02784D01*
X03550Y02784D01*
X03585Y02749D01*
Y02683D01*
X03580Y02681D01*
X03573Y02686D01*
X03564Y02690D01*
X03560Y02691D01*
X03505Y02746D01*
Y03015D01*
X03504Y03025D01*
X03498Y03033D01*
X03311Y03220D01*
X03311Y03220D01*
X03310Y03229D01*
X03307Y03236D01*
X03310Y03240D01*
X03380D01*
X03746Y02874D01*
D02*
G37*
G36*
X00756Y03680D02*
X00695Y03620D01*
X00687Y03609D01*
X00680Y03597D01*
X00676Y03584D01*
X00675Y03570D01*
Y03446D01*
X00676Y03432D01*
X00677Y03428D01*
Y03379D01*
X00677D01*
Y03375D01*
X00677Y03375D01*
X00668Y03372D01*
X00661Y03366D01*
X00525Y03230D01*
X00519Y03223D01*
X00516Y03214D01*
X00515Y03205D01*
Y00470D01*
X00515Y00470D01*
X00515D01*
X00516Y00461D01*
X00519Y00452D01*
X00525Y00445D01*
X00930Y00040D01*
X00937Y00034D01*
X00946Y00031D01*
X00955Y00030D01*
X01493D01*
X01502Y00031D01*
X01511Y00034D01*
X01518Y00040D01*
X01518Y00040D01*
X01518Y00040D01*
X01537Y00059D01*
X01571D01*
Y00061D01*
X01622D01*
X01631Y00063D01*
X01639Y00066D01*
X01647Y00072D01*
X01682Y00107D01*
X01687Y00106D01*
X01687Y00103D01*
X01691Y00094D01*
X01697Y00087D01*
X01704Y00081D01*
X01713Y00077D01*
X01722Y00076D01*
X01732Y00077D01*
X01741Y00081D01*
X01748Y00087D01*
X01754Y00094D01*
X01758Y00103D01*
X01759Y00112D01*
X01759Y00113D01*
X01793Y00147D01*
X01799Y00155D01*
X01800Y00165D01*
Y00804D01*
X01865Y00869D01*
X01870Y00867D01*
X01869Y00860D01*
X01870Y00852D01*
X01866Y00848D01*
X01862D01*
Y00773D01*
X01938D01*
Y00780D01*
X01938D01*
X01941D01*
X01941Y00780D01*
X01941Y00780D01*
Y00780D01*
X01965D01*
Y00810D01*
X01975D01*
Y00780D01*
X01998D01*
X01998Y00780D01*
Y00780D01*
X01998Y00780D01*
X02002Y00777D01*
Y00770D01*
X02079D01*
Y00770D01*
X02081D01*
X02082Y00767D01*
X02083Y00765D01*
X02088Y00759D01*
X02105Y00743D01*
X02105Y00741D01*
X02109Y00732D01*
X02114Y00724D01*
X02122Y00719D01*
X02131Y00715D01*
X02140Y00714D01*
X02147Y00715D01*
X02150Y00711D01*
Y00695D01*
X02146Y00692D01*
X02139Y00695D01*
X02130Y00696D01*
X02121Y00695D01*
X02112Y00691D01*
X02105Y00686D01*
X02098Y00691D01*
X02089Y00695D01*
X02080Y00696D01*
X02071Y00695D01*
X02062Y00691D01*
X02054Y00686D01*
X02051Y00691D01*
X02043Y00696D01*
X02039Y00698D01*
X02037Y00703D01*
X02040Y00711D01*
X02041Y00720D01*
X02040Y00729D01*
X02036Y00738D01*
X02031Y00746D01*
X02023Y00751D01*
X02014Y00755D01*
X02005Y00756D01*
X01996Y00755D01*
X01987Y00751D01*
X01979Y00746D01*
X01974Y00738D01*
X01970Y00729D01*
X01969Y00721D01*
X01965Y00717D01*
X01961Y00712D01*
X01958Y00706D01*
X01958Y00699D01*
X01958Y00699D01*
Y00691D01*
X01953Y00689D01*
X01948Y00693D01*
X01942Y00695D01*
X01940Y00696D01*
Y00670D01*
Y00644D01*
X01942Y00645D01*
X01948Y00647D01*
X01953Y00651D01*
X01958Y00649D01*
Y00646D01*
X01958Y00646D01*
X01958Y00639D01*
X01961Y00633D01*
X01965Y00628D01*
X02031Y00562D01*
Y00382D01*
X02002Y00353D01*
X01998Y00355D01*
D01*
X01998Y00355D01*
Y00375D01*
X01975D01*
Y00352D01*
X01994D01*
X01994Y00352D01*
D01*
X01996Y00347D01*
X01936Y00287D01*
X01888D01*
Y00173D01*
X02002D01*
Y00200D01*
X02007Y00201D01*
X02011Y00196D01*
X02021Y00189D01*
X02033Y00184D01*
X02040Y00183D01*
Y00230D01*
Y00277D01*
X02033Y00276D01*
X02021Y00271D01*
X02011Y00264D01*
X02007Y00259D01*
X02002Y00260D01*
Y00279D01*
X02054Y00331D01*
X02059Y00330D01*
X02060Y00329D01*
X02109Y00280D01*
X02109Y00275D01*
X02104Y00271D01*
X02095Y00259D01*
X02092Y00252D01*
X02087D01*
X02086Y00254D01*
X02079Y00264D01*
X02069Y00271D01*
X02057Y00276D01*
X02050Y00277D01*
Y00230D01*
Y00183D01*
X02057Y00184D01*
X02069Y00189D01*
X02079Y00196D01*
X02086Y00206D01*
X02087Y00208D01*
X02092D01*
X02095Y00201D01*
X02104Y00189D01*
X02116Y00180D01*
X02130Y00174D01*
X02145Y00172D01*
X02160Y00174D01*
X02174Y00180D01*
X02186Y00189D01*
X02193Y00198D01*
X02197D01*
X02204Y00189D01*
X02216Y00180D01*
X02230Y00174D01*
X02245Y00172D01*
X02260Y00174D01*
X02274Y00180D01*
X02286Y00189D01*
X02295Y00201D01*
X02298Y00208D01*
X02303D01*
X02304Y00206D01*
X02311Y00196D01*
X02321Y00189D01*
X02333Y00184D01*
X02340Y00183D01*
Y00230D01*
X02350D01*
Y00183D01*
X02357Y00184D01*
X02369Y00189D01*
X02379Y00196D01*
X02386Y00206D01*
X02387Y00208D01*
X02392D01*
X02395Y00201D01*
X02404Y00189D01*
X02416Y00180D01*
X02430Y00174D01*
X02445Y00172D01*
X02460Y00174D01*
X02474Y00180D01*
X02486Y00189D01*
X02495Y00201D01*
X02501Y00215D01*
X02503Y00230D01*
X02501Y00245D01*
X02495Y00259D01*
X02486Y00271D01*
X02474Y00280D01*
X02460Y00286D01*
X02454Y00287D01*
X02413Y00328D01*
X02413Y00328D01*
X02413D01*
D01*
X02417Y00334D01*
X02418Y00334D01*
X02425Y00340D01*
X02530Y00445D01*
X02536Y00452D01*
X02539Y00461D01*
X02540Y00470D01*
X02540Y00470D01*
Y00763D01*
X02544Y00766D01*
X02548Y00765D01*
X02550Y00764D01*
Y00790D01*
Y00816D01*
X02548Y00815D01*
X02544Y00814D01*
X02540Y00817D01*
Y01000D01*
X02755D01*
Y00961D01*
X02862D01*
Y01007D01*
X02865Y01009D01*
X02875Y01020D01*
X03032D01*
X03034Y01015D01*
X03029Y01008D01*
X03025Y00999D01*
X03024Y00990D01*
X03025Y00981D01*
X03029Y00972D01*
X03034Y00965D01*
Y00870D01*
X03034Y00870D01*
X03035Y00863D01*
X03037Y00857D01*
X03041Y00851D01*
X03064Y00828D01*
X03064Y00828D01*
X03070Y00824D01*
X03071Y00824D01*
X03070Y00822D01*
X03069Y00820D01*
X03124D01*
X03124Y00821D01*
X03152D01*
X03199Y00774D01*
Y00722D01*
X03195Y00719D01*
X03192Y00720D01*
X03190Y00721D01*
Y00695D01*
Y00669D01*
X03192Y00670D01*
X03195Y00671D01*
X03199Y00668D01*
Y00649D01*
X03174Y00624D01*
X03170Y00618D01*
X03167Y00612D01*
X03166Y00605D01*
X03166Y00605D01*
Y00511D01*
X03162Y00508D01*
X03157Y00510D01*
X03155Y00511D01*
Y00485D01*
X03150D01*
Y00480D01*
X03124D01*
X03125Y00478D01*
X03127Y00472D01*
X03131Y00466D01*
X03137Y00462D01*
X03140Y00461D01*
X03139Y00456D01*
X03113D01*
Y00511D01*
X03119Y00516D01*
X03119Y00516D01*
X03123Y00522D01*
X03124Y00524D01*
X03125Y00528D01*
X03126Y00535D01*
X03126Y00535D01*
Y00641D01*
X03135D01*
Y00718D01*
X03125D01*
Y00722D01*
X03125D01*
Y00745D01*
X03095D01*
Y00750D01*
X03090D01*
Y00779D01*
X03065D01*
Y00778D01*
X03050D01*
Y00750D01*
X03040D01*
Y00778D01*
X03035D01*
X03034Y00783D01*
X03036Y00784D01*
X03041Y00792D01*
X03045Y00801D01*
X03046Y00810D01*
X03045Y00819D01*
X03041Y00828D01*
X03036Y00836D01*
X03028Y00841D01*
X03019Y00845D01*
X03010Y00846D01*
X03001Y00845D01*
X02992Y00841D01*
X02990Y00840D01*
X02973D01*
Y00848D01*
X02862D01*
Y00914D01*
X02778D01*
X02776Y00918D01*
X02771Y00926D01*
X02763Y00931D01*
X02754Y00935D01*
X02745Y00936D01*
X02736Y00935D01*
X02727Y00931D01*
X02719Y00926D01*
X02714Y00918D01*
X02712Y00916D01*
X02708Y00914D01*
X02703Y00918D01*
X02697Y00920D01*
X02695Y00921D01*
Y00895D01*
X02685D01*
Y00921D01*
X02683Y00920D01*
X02677Y00918D01*
X02671Y00914D01*
X02667Y00908D01*
X02665Y00902D01*
X02664Y00897D01*
X02660Y00895D01*
X02659Y00895D01*
X02650Y00896D01*
X02641Y00895D01*
X02632Y00891D01*
X02624Y00886D01*
X02619Y00878D01*
X02615Y00869D01*
X02614Y00860D01*
X02615Y00851D01*
X02617Y00845D01*
Y00773D01*
X02693D01*
Y00780D01*
X02693D01*
X02696D01*
X02696Y00780D01*
X02696Y00780D01*
Y00780D01*
X02720D01*
Y00810D01*
X02730D01*
Y00780D01*
X02753D01*
X02753Y00780D01*
Y00780D01*
X02753Y00780D01*
X02757Y00777D01*
Y00770D01*
X02834D01*
Y00770D01*
X02836D01*
X02837Y00767D01*
X02838Y00765D01*
X02843Y00759D01*
X02860Y00743D01*
X02860Y00741D01*
X02864Y00732D01*
X02869Y00724D01*
X02877Y00719D01*
X02886Y00715D01*
X02895Y00714D01*
X02902Y00715D01*
X02905Y00711D01*
Y00695D01*
X02901Y00692D01*
X02894Y00695D01*
X02885Y00696D01*
X02876Y00695D01*
X02867Y00691D01*
X02860Y00686D01*
X02853Y00691D01*
X02844Y00695D01*
X02835Y00696D01*
X02826Y00695D01*
X02817Y00691D01*
X02812Y00688D01*
X02807Y00689D01*
X02806Y00691D01*
X02798Y00696D01*
X02794Y00698D01*
X02792Y00703D01*
X02795Y00711D01*
X02796Y00720D01*
X02795Y00729D01*
X02791Y00738D01*
X02786Y00746D01*
X02778Y00751D01*
X02769Y00755D01*
X02760Y00756D01*
X02751Y00755D01*
X02742Y00751D01*
X02734Y00746D01*
X02729Y00738D01*
X02725Y00729D01*
X02724Y00721D01*
X02720Y00717D01*
X02716Y00712D01*
X02713Y00706D01*
X02713Y00699D01*
X02713Y00699D01*
Y00691D01*
X02708Y00689D01*
X02703Y00693D01*
X02697Y00695D01*
X02695Y00696D01*
Y00670D01*
Y00644D01*
X02697Y00645D01*
X02703Y00647D01*
X02708Y00651D01*
X02713Y00649D01*
Y00646D01*
X02713Y00646D01*
X02713Y00639D01*
X02716Y00633D01*
X02720Y00628D01*
X02786Y00562D01*
Y00382D01*
X02757Y00353D01*
X02753Y00355D01*
Y00355D01*
X02753Y00355D01*
Y00375D01*
X02730D01*
Y00352D01*
X02749D01*
X02749Y00352D01*
X02749D01*
X02751Y00347D01*
X02691Y00287D01*
X02648D01*
Y00173D01*
X02762D01*
Y00200D01*
X02767Y00201D01*
X02771Y00196D01*
X02781Y00189D01*
X02793Y00184D01*
X02800Y00183D01*
Y00230D01*
Y00277D01*
X02793Y00276D01*
X02781Y00271D01*
X02771Y00264D01*
X02767Y00259D01*
X02762Y00260D01*
Y00284D01*
X02809Y00331D01*
X02814Y00330D01*
X02815Y00329D01*
X02866Y00278D01*
X02866Y00273D01*
X02864Y00271D01*
X02855Y00259D01*
X02852Y00252D01*
X02847D01*
X02846Y00254D01*
X02839Y00264D01*
X02829Y00271D01*
X02817Y00276D01*
X02810Y00277D01*
Y00230D01*
Y00183D01*
X02817Y00184D01*
X02829Y00189D01*
X02839Y00196D01*
X02846Y00206D01*
X02847Y00208D01*
X02852D01*
X02855Y00201D01*
X02864Y00189D01*
X02876Y00180D01*
X02890Y00174D01*
X02905Y00172D01*
X02920Y00174D01*
X02934Y00180D01*
X02946Y00189D01*
X02953Y00198D01*
X02957D01*
X02964Y00189D01*
X02976Y00180D01*
X02990Y00174D01*
X03005Y00172D01*
X03020Y00174D01*
X03034Y00180D01*
X03046Y00189D01*
X03055Y00201D01*
X03058Y00208D01*
X03063D01*
X03064Y00206D01*
X03071Y00196D01*
X03081Y00189D01*
X03093Y00184D01*
X03100Y00183D01*
Y00230D01*
X03110D01*
Y00183D01*
X03117Y00184D01*
X03129Y00189D01*
X03139Y00196D01*
X03146Y00206D01*
X03147Y00208D01*
X03152D01*
X03155Y00201D01*
X03164Y00189D01*
X03176Y00180D01*
X03190Y00174D01*
X03205Y00172D01*
X03220Y00174D01*
X03234Y00180D01*
X03246Y00189D01*
X03255Y00201D01*
X03261Y00215D01*
X03263Y00230D01*
X03261Y00245D01*
X03255Y00259D01*
X03246Y00271D01*
X03234Y00280D01*
X03220Y00286D01*
X03209Y00287D01*
X03171Y00325D01*
X03173Y00330D01*
X03190D01*
X03199Y00331D01*
X03208Y00334D01*
X03215Y00340D01*
X03300Y00425D01*
X03330D01*
Y00000D01*
X00425D01*
Y03685D01*
X00754D01*
X00756Y03680D01*
D02*
G37*
G36*
X01630Y03481D02*
X01440Y03291D01*
X01440Y03291D01*
X01431Y03290D01*
X01422Y03286D01*
X01414Y03281D01*
X01409Y03273D01*
X01405Y03264D01*
X01404Y03255D01*
X01405Y03246D01*
X01409Y03237D01*
X01414Y03229D01*
X01422Y03224D01*
X01431Y03220D01*
X01440Y03219D01*
X01449Y03220D01*
X01458Y03224D01*
X01466Y03229D01*
X01471Y03237D01*
X01475Y03246D01*
X01476Y03255D01*
X01476Y03255D01*
X01625Y03404D01*
X01630Y03402D01*
Y02685D01*
X01740Y02575D01*
Y02421D01*
X01735Y02419D01*
X01702Y02452D01*
X01702Y02452D01*
X01699Y02461D01*
X01693Y02468D01*
X01608Y02553D01*
Y02638D01*
X01538D01*
X01380Y02795D01*
Y03035D01*
Y03335D01*
X01380Y03335D01*
X01380Y03335D01*
Y03335D01*
X01380D01*
X01380Y03335D01*
X01379Y03347D01*
X01376Y03353D01*
X01374Y03358D01*
X01367Y03367D01*
X01256Y03478D01*
X01247Y03485D01*
X01242Y03487D01*
X01236Y03490D01*
X01224Y03491D01*
X01163D01*
Y03512D01*
X01027D01*
Y03501D01*
X01000Y03500D01*
X00985Y03498D01*
X00975Y03494D01*
X00921D01*
D01*
D01*
X00921Y03494D01*
X00919D01*
Y03494D01*
X00890D01*
X00888Y03496D01*
X00878Y03501D01*
X00867Y03505D01*
X00855Y03506D01*
X00815D01*
Y03541D01*
X00959Y03685D01*
X01630D01*
Y03481D01*
D02*
G37*
G36*
X02270Y00996D02*
X02269Y00990D01*
X02270Y00981D01*
X02274Y00972D01*
X02279Y00965D01*
Y00870D01*
X02279Y00870D01*
X02280Y00863D01*
X02282Y00857D01*
X02286Y00851D01*
X02309Y00828D01*
X02309Y00828D01*
X02315Y00824D01*
X02316Y00824D01*
X02315Y00822D01*
X02314Y00820D01*
X02369D01*
X02369Y00821D01*
X02397D01*
X02444Y00774D01*
Y00722D01*
X02440Y00719D01*
X02437Y00720D01*
X02435Y00721D01*
Y00695D01*
Y00669D01*
X02437Y00670D01*
X02440Y00671D01*
X02444Y00668D01*
Y00649D01*
X02419Y00624D01*
X02415Y00618D01*
X02412Y00612D01*
X02411Y00605D01*
X02411Y00605D01*
Y00511D01*
X02407Y00508D01*
X02402Y00510D01*
X02400Y00511D01*
Y00485D01*
X02395D01*
Y00480D01*
X02369D01*
X02370Y00478D01*
X02372Y00472D01*
X02376Y00466D01*
X02382Y00462D01*
X02385Y00461D01*
X02384Y00456D01*
X02358D01*
Y00511D01*
X02364Y00516D01*
X02368Y00522D01*
X02370Y00528D01*
X02371Y00535D01*
X02371Y00535D01*
Y00641D01*
X02385D01*
Y00718D01*
X02375D01*
Y00722D01*
X02375D01*
Y00745D01*
X02345D01*
Y00750D01*
X02340D01*
Y00779D01*
X02315D01*
Y00778D01*
X02295D01*
Y00750D01*
X02285D01*
Y00778D01*
X02280D01*
X02279Y00783D01*
X02281Y00784D01*
X02286Y00792D01*
X02290Y00801D01*
X02291Y00810D01*
X02290Y00819D01*
X02286Y00828D01*
X02281Y00836D01*
X02273Y00841D01*
X02264Y00845D01*
X02255Y00846D01*
X02246Y00845D01*
X02237Y00841D01*
X02235Y00840D01*
X02218D01*
Y00848D01*
X02107D01*
Y00914D01*
X02023D01*
X02021Y00918D01*
X02016Y00926D01*
X02008Y00931D01*
X01999Y00935D01*
X01990Y00936D01*
X01981Y00935D01*
X01972Y00931D01*
X01964Y00926D01*
X01959Y00918D01*
X01957Y00916D01*
X01953Y00914D01*
X01948Y00918D01*
X01942Y00920D01*
X01935Y00921D01*
X01935Y00922D01*
X01934Y00928D01*
X01935Y00931D01*
X01936Y00940D01*
X01935Y00949D01*
X01931Y00958D01*
X01928Y00963D01*
X01930Y00967D01*
X02000D01*
Y00961D01*
X02107D01*
Y00967D01*
X02168D01*
X02177Y00969D01*
X02185Y00972D01*
X02193Y00978D01*
X02193Y00978D01*
X02193Y00978D01*
X02215Y01000D01*
X02266D01*
X02270Y00996D01*
D02*
G37*
G36*
X02040Y02275D02*
X02556D01*
X02560Y02271D01*
Y02042D01*
X02556Y02040D01*
X02553Y02041D01*
X02544Y02045D01*
X02535Y02046D01*
X02526Y02045D01*
X02517Y02041D01*
X02509Y02036D01*
X02504Y02028D01*
X02500Y02019D01*
X02499Y02010D01*
X02500Y02001D01*
X02504Y01992D01*
X02507Y01987D01*
Y01976D01*
X02508Y01969D01*
X02510Y01965D01*
X02511Y01962D01*
X02515Y01956D01*
X02516Y01956D01*
X02515Y01951D01*
X02513Y01950D01*
X02461Y02001D01*
Y02007D01*
X02465Y02012D01*
X02468Y02021D01*
X02470Y02030D01*
X02468Y02039D01*
X02465Y02048D01*
X02459Y02056D01*
X02452Y02061D01*
X02443Y02065D01*
X02433Y02066D01*
X02424Y02065D01*
X02415Y02061D01*
X02408Y02056D01*
X02402Y02048D01*
X02398Y02039D01*
X02397Y02030D01*
X02398Y02021D01*
X02402Y02012D01*
X02406Y02007D01*
Y01990D01*
X02407Y01983D01*
X02408Y01979D01*
X02409Y01976D01*
X02414Y01970D01*
X02492Y01892D01*
Y01684D01*
X02489Y01681D01*
X02485Y01681D01*
X02476Y01680D01*
X02467Y01676D01*
X02459Y01671D01*
X02454Y01663D01*
X02450Y01654D01*
X02449Y01645D01*
X02450Y01636D01*
X02450Y01634D01*
X02448Y01630D01*
X01988D01*
X01965Y01653D01*
Y01740D01*
X01964Y01748D01*
X01961Y01755D01*
X01957Y01761D01*
Y01775D01*
Y01801D01*
Y01826D01*
Y01878D01*
Y01903D01*
Y01905D01*
X01959Y01905D01*
X01967Y01911D01*
X01978Y01922D01*
X01984Y01930D01*
X01985Y01940D01*
Y01966D01*
X01984Y01976D01*
X01978Y01984D01*
X01969Y01993D01*
X01960Y01999D01*
X01951Y02001D01*
X01883D01*
X01830Y02054D01*
Y02307D01*
X01861D01*
X02165Y02002D01*
X02165Y02002D01*
X02169Y01999D01*
X02171Y01997D01*
X02174Y01996D01*
X02179Y01994D01*
X02186Y01993D01*
X02265D01*
X02266Y01992D01*
X02275Y01988D01*
X02283Y01987D01*
X02295Y01976D01*
Y01940D01*
X02305D01*
Y01940D01*
Y01937D01*
X02305Y01937D01*
X02305Y01937D01*
X02305D01*
Y01913D01*
X02364D01*
Y01937D01*
X02364Y01937D01*
D01*
D01*
X02364Y01937D01*
D01*
X02368Y01940D01*
X02374D01*
Y02018D01*
X02339D01*
X02317Y02039D01*
X02316Y02042D01*
X02310Y02049D01*
X02303Y02055D01*
X02294Y02059D01*
X02284Y02060D01*
X02275Y02059D01*
X02266Y02055D01*
X02265Y02054D01*
X02199D01*
X01892Y02361D01*
Y02413D01*
X01830D01*
Y02478D01*
X01835Y02480D01*
X02040Y02275D01*
D02*
G37*
G36*
X04565Y00000D02*
X03375D01*
Y00425D01*
X03870D01*
X03879Y00426D01*
X03888Y00430D01*
X03895Y00435D01*
X04090Y00630D01*
X04096Y00634D01*
X04101Y00642D01*
X04105Y00651D01*
X04106Y00660D01*
X04105Y00669D01*
X04101Y00678D01*
X04096Y00686D01*
X04088Y00691D01*
X04079Y00695D01*
X04070Y00696D01*
X04061Y00695D01*
X04052Y00691D01*
X04044Y00686D01*
X04040Y00680D01*
X03855Y00495D01*
X03375D01*
Y01335D01*
X02610D01*
Y01835D01*
X02702D01*
Y01813D01*
X02808D01*
Y01815D01*
X02824D01*
X02825Y01814D01*
X02834Y01810D01*
X02843Y01809D01*
X02853Y01810D01*
X02862Y01814D01*
X02869Y01819D01*
X02875Y01827D01*
X02878Y01836D01*
X02880Y01845D01*
X02878Y01854D01*
X02875Y01863D01*
X02869Y01871D01*
X02862Y01876D01*
X02853Y01880D01*
X02843Y01881D01*
X02834Y01880D01*
X02825Y01876D01*
X02824Y01875D01*
X02808D01*
Y01897D01*
X02730D01*
X02727Y01899D01*
X02725Y01900D01*
X02722Y01901D01*
Y01906D01*
Y01943D01*
X02808D01*
Y01984D01*
X02813Y01987D01*
X02817Y01984D01*
X02826Y01980D01*
X02835Y01979D01*
X02844Y01980D01*
X02853Y01984D01*
X02861Y01989D01*
X02866Y01997D01*
X02870Y02006D01*
X02870Y02008D01*
X02898Y02036D01*
X02903Y02033D01*
X02902Y02032D01*
X02902Y02030D01*
X02953D01*
X02953Y02032D01*
X02950Y02039D01*
X02946Y02044D01*
X02947Y02045D01*
X02950Y02048D01*
X02989D01*
Y02058D01*
X02989D01*
X02990D01*
X02992Y02058D01*
X02992Y02058D01*
Y02058D01*
X03030D01*
Y02108D01*
Y02157D01*
X02992D01*
X02992Y02157D01*
Y02157D01*
X02990Y02157D01*
X02989Y02158D01*
Y02167D01*
X02894D01*
X02892Y02172D01*
X02905Y02185D01*
X03053D01*
X03062Y02186D01*
X03071Y02189D01*
X03078Y02195D01*
X03084Y02202D01*
X03087Y02211D01*
X03088Y02220D01*
X03088Y02220D01*
X03088Y02220D01*
Y02220D01*
Y02277D01*
X03089Y02285D01*
X03088Y02293D01*
Y02420D01*
X03130Y02461D01*
X03135Y02468D01*
X03139Y02477D01*
X03140Y02486D01*
Y02637D01*
X03265D01*
Y02637D01*
X03328D01*
Y02708D01*
Y02783D01*
X03326D01*
X03324Y02787D01*
X03325Y02791D01*
X03326Y02800D01*
X03325Y02809D01*
X03321Y02818D01*
X03316Y02826D01*
X03308Y02831D01*
X03299Y02835D01*
X03290Y02836D01*
X03281Y02835D01*
X03272Y02831D01*
X03264Y02826D01*
X03262Y02822D01*
X03257D01*
X03253Y02828D01*
X03245Y02833D01*
X03241Y02835D01*
X03027Y03049D01*
X03019Y03055D01*
X03017Y03055D01*
X03016Y03057D01*
X03008Y03063D01*
X02999Y03066D01*
X02990Y03067D01*
X02981Y03066D01*
X02972Y03063D01*
X02964Y03057D01*
X02959Y03049D01*
X02955Y03041D01*
X02954Y03031D01*
X02955Y03022D01*
X02959Y03013D01*
X02964Y03006D01*
X02972Y03000D01*
X02981Y02996D01*
X02990Y02995D01*
X02999Y02996D01*
X03005Y02999D01*
X03164Y02840D01*
X03162Y02836D01*
X03158Y02835D01*
X03149Y02831D01*
X03142Y02826D01*
X03138Y02822D01*
X03133D01*
X03130Y02826D01*
X03123Y02831D01*
X03114Y02835D01*
X03105Y02836D01*
X03095Y02835D01*
X03086Y02831D01*
X03079Y02826D01*
X03075Y02821D01*
X03070Y02822D01*
Y02865D01*
X03069Y02874D01*
X03066Y02883D01*
X03060Y02890D01*
X02887Y03063D01*
Y03068D01*
X02881D01*
X02880Y03070D01*
Y03095D01*
X03023Y03238D01*
X03023D01*
X03027Y03236D01*
Y03167D01*
X03027Y03167D01*
X03030Y03164D01*
X03029Y03157D01*
X03030Y03148D01*
X03034Y03139D01*
X03039Y03131D01*
X03047Y03126D01*
X03056Y03122D01*
X03065Y03121D01*
X03074Y03122D01*
X03083Y03126D01*
X03090Y03131D01*
X03094Y03128D01*
X03094Y03126D01*
X03095Y03116D01*
X03099Y03108D01*
X03104Y03100D01*
X03112Y03094D01*
X03121Y03091D01*
X03130Y03089D01*
X03139Y03091D01*
X03148Y03094D01*
X03149Y03095D01*
X03154Y03093D01*
X03155Y03085D01*
X03159Y03076D01*
X03163Y03070D01*
X03161Y03065D01*
X03161Y03065D01*
X03152Y03061D01*
X03144Y03056D01*
X03139Y03048D01*
X03135Y03039D01*
X03134Y03030D01*
X03135Y03021D01*
X03139Y03012D01*
X03144Y03004D01*
X03152Y02999D01*
X03160Y02995D01*
X03159Y02990D01*
X03158Y02990D01*
X03152Y02988D01*
X03146Y02984D01*
X03142Y02978D01*
X03140Y02972D01*
X03139Y02970D01*
X03191D01*
X03190Y02972D01*
X03188Y02978D01*
X03184Y02984D01*
X03178Y02988D01*
X03174Y02989D01*
X03175Y02994D01*
X03179Y02995D01*
X03188Y02999D01*
X03196Y03004D01*
X03196Y03005D01*
X03304D01*
X03410Y02899D01*
Y02578D01*
X03405Y02576D01*
X03398Y02581D01*
X03389Y02585D01*
X03380Y02586D01*
X03371Y02585D01*
X03362Y02581D01*
X03354Y02576D01*
X03349Y02568D01*
X03345Y02559D01*
X03344Y02550D01*
X03345Y02541D01*
X03349Y02532D01*
X03354Y02524D01*
X03355Y02524D01*
Y01523D01*
X03350Y01521D01*
X03333Y01538D01*
X03325Y01544D01*
X03315Y01545D01*
X03006D01*
X03006Y01546D01*
X02998Y01551D01*
X02989Y01555D01*
X02980Y01556D01*
X02971Y01555D01*
X02962Y01551D01*
X02954Y01546D01*
X02949Y01538D01*
X02945Y01529D01*
X02944Y01520D01*
X02945Y01511D01*
X02949Y01502D01*
X02954Y01494D01*
X02962Y01489D01*
X02971Y01485D01*
X02980Y01484D01*
X02989Y01485D01*
X02998Y01489D01*
X03006Y01494D01*
X03006Y01495D01*
X03304D01*
X03512Y01287D01*
X03512D01*
X03512Y01287D01*
X03512Y01287D01*
Y01287D01*
X03520Y01281D01*
X03530Y01280D01*
X04030D01*
X04040Y01281D01*
X04048Y01287D01*
X04275Y01514D01*
X04275Y01514D01*
X04284Y01515D01*
X04293Y01519D01*
X04301Y01524D01*
X04301Y01525D01*
X04369D01*
X04369Y01524D01*
X04377Y01519D01*
X04386Y01515D01*
X04395Y01514D01*
X04404Y01515D01*
X04413Y01519D01*
X04421Y01524D01*
X04426Y01532D01*
X04430Y01541D01*
X04431Y01550D01*
X04430Y01559D01*
X04426Y01568D01*
X04421Y01576D01*
X04413Y01581D01*
X04404Y01585D01*
X04395Y01586D01*
X04386Y01585D01*
X04377Y01581D01*
X04369Y01576D01*
X04369Y01575D01*
X04301D01*
X04301Y01576D01*
X04293Y01581D01*
X04284Y01585D01*
X04275Y01586D01*
X04266Y01585D01*
X04257Y01581D01*
X04249Y01576D01*
X04244Y01568D01*
X04240Y01559D01*
X04239Y01550D01*
X04239Y01550D01*
X04019Y01330D01*
X03541D01*
X03506Y01365D01*
X03508Y01370D01*
X03684D01*
X03684Y01369D01*
X03692Y01364D01*
X03701Y01360D01*
X03710Y01359D01*
X03719Y01360D01*
X03728Y01364D01*
X03736Y01369D01*
X03741Y01377D01*
X03745Y01386D01*
X03746Y01391D01*
X03750Y01394D01*
X03750Y01394D01*
X03759Y01395D01*
X03768Y01399D01*
X03776Y01404D01*
X03781Y01412D01*
X03785Y01421D01*
X03786Y01430D01*
X03785Y01439D01*
X03781Y01448D01*
X03776Y01456D01*
X03768Y01461D01*
X03759Y01465D01*
X03750Y01466D01*
X03741Y01465D01*
X03732Y01461D01*
X03731Y01460D01*
X03717D01*
X03716Y01465D01*
X03723Y01469D01*
X03731Y01474D01*
X03736Y01482D01*
X03740Y01491D01*
X03741Y01500D01*
X03740Y01509D01*
X03739Y01512D01*
X03742Y01516D01*
X03850D01*
Y01518D01*
X03904D01*
X03913Y01520D01*
X03921Y01523D01*
X03929Y01529D01*
X03929Y01529D01*
X03929Y01529D01*
X04150Y01750D01*
X04156Y01754D01*
X04161Y01762D01*
X04165Y01771D01*
X04166Y01780D01*
X04165Y01789D01*
X04163Y01795D01*
X04166Y01799D01*
X04284D01*
X04284Y01799D01*
X04292Y01793D01*
X04301Y01789D01*
X04310Y01788D01*
X04319Y01789D01*
X04328Y01793D01*
X04336Y01799D01*
X04341Y01806D01*
X04345Y01815D01*
X04346Y01825D01*
X04345Y01834D01*
X04347Y01836D01*
X04347D01*
Y01924D01*
X04379D01*
Y01934D01*
X04382D01*
Y01934D01*
X04406D01*
Y01964D01*
X04411D01*
Y01969D01*
X04439D01*
Y01984D01*
X04440Y01984D01*
X04449Y01988D01*
X04457Y01993D01*
X04462Y02001D01*
X04466Y02010D01*
X04467Y02019D01*
X04466Y02028D01*
X04462Y02037D01*
X04457Y02045D01*
X04456Y02045D01*
X04461Y02052D01*
X04465Y02061D01*
X04466Y02070D01*
X04465Y02079D01*
X04461Y02088D01*
X04456Y02096D01*
X04448Y02101D01*
X04439Y02105D01*
X04430Y02106D01*
X04421Y02105D01*
X04418Y02107D01*
Y02107D01*
X04345D01*
Y02159D01*
X04345Y02160D01*
X04347Y02169D01*
X04345Y02178D01*
X04342Y02187D01*
X04341Y02189D01*
Y03070D01*
X04341Y03070D01*
X04340Y03077D01*
X04340Y03078D01*
X04338Y03081D01*
X04336Y03085D01*
X04332Y03091D01*
X04267Y03156D01*
X04260Y03161D01*
X04258Y03162D01*
X04253Y03164D01*
X04245Y03165D01*
X03868D01*
X03802Y03231D01*
Y03266D01*
X03814D01*
Y03266D01*
X03814D01*
X03814Y03266D01*
X03815D01*
Y03266D01*
X03901D01*
Y03279D01*
X03922D01*
Y03248D01*
X04057D01*
Y03266D01*
X04086D01*
X04086Y03266D01*
X04095Y03262D01*
X04105Y03261D01*
X04114Y03262D01*
X04123Y03266D01*
X04130Y03272D01*
X04136Y03279D01*
X04140Y03288D01*
X04141Y03297D01*
X04140Y03307D01*
X04136Y03316D01*
X04130Y03323D01*
X04123Y03329D01*
X04114Y03332D01*
X04105Y03334D01*
X04095Y03332D01*
X04086Y03329D01*
X04086Y03329D01*
X04057D01*
Y03381D01*
X03922D01*
Y03350D01*
X03901D01*
Y03363D01*
X03900D01*
Y03366D01*
X03900D01*
Y03442D01*
X03811D01*
Y03451D01*
X03801D01*
Y03451D01*
Y03454D01*
X03801Y03454D01*
X03801Y03454D01*
X03801D01*
Y03478D01*
X03742D01*
Y03454D01*
X03742Y03454D01*
X03742D01*
X03742Y03454D01*
X03738Y03451D01*
X03732D01*
Y03373D01*
X03736D01*
Y03363D01*
X03729D01*
Y03350D01*
X03707D01*
Y03381D01*
X03572D01*
Y03363D01*
X03567Y03361D01*
X03535Y03393D01*
Y03427D01*
X03444D01*
Y03351D01*
X03472D01*
X03475Y03350D01*
X03479Y03349D01*
X03539Y03290D01*
X03546Y03284D01*
X03555Y03280D01*
X03564Y03279D01*
X03572D01*
Y03248D01*
X03707D01*
Y03279D01*
X03729D01*
Y03266D01*
X03741D01*
Y03219D01*
X03742Y03211D01*
X03744Y03206D01*
X03745Y03204D01*
X03750Y03197D01*
X03834Y03113D01*
X03840Y03109D01*
X03842Y03108D01*
X03847Y03105D01*
X03855Y03104D01*
X04233D01*
X04280Y03057D01*
Y02189D01*
X04279Y02187D01*
X04275Y02178D01*
X04274Y02169D01*
X04275Y02165D01*
Y02107D01*
X04272D01*
Y02031D01*
X04273D01*
Y02002D01*
X04272Y02001D01*
X04266Y01997D01*
X04262Y01999D01*
Y02006D01*
X04198D01*
Y01974D01*
X04193Y01973D01*
X04191Y01978D01*
X04190Y01979D01*
Y01980D01*
X04189Y01987D01*
X04187Y01993D01*
X04186Y01995D01*
X04181Y02001D01*
X04153Y02029D01*
X04155Y02034D01*
X04198D01*
Y02033D01*
X04262D01*
Y02105D01*
X04198D01*
Y02094D01*
X04193D01*
Y02152D01*
Y02208D01*
X04193D01*
X04193Y02208D01*
X04193Y02228D01*
Y02228D01*
Y02229D01*
X04197Y02230D01*
X04203Y02232D01*
X04209Y02236D01*
X04213Y02242D01*
X04215Y02248D01*
X04216Y02250D01*
X04164D01*
X04165Y02248D01*
X04167Y02242D01*
X04171Y02236D01*
X04177Y02232D01*
X04175Y02229D01*
X04175Y02228D01*
X04153D01*
X04143Y02238D01*
X04135Y02244D01*
X04125Y02245D01*
X03940D01*
X03937Y02245D01*
X03934Y02248D01*
Y02292D01*
X03934Y02292D01*
X03933Y02299D01*
X03933Y02299D01*
X03930Y02307D01*
X03925Y02313D01*
X03925Y02313D01*
X03907Y02331D01*
X03909Y02335D01*
X03975D01*
Y02413D01*
X03965D01*
Y02416D01*
X03965D01*
Y02440D01*
X03936D01*
Y02445D01*
X03931D01*
Y02474D01*
X03913D01*
Y02493D01*
X03867D01*
X03861Y02494D01*
X03855Y02493D01*
X03825D01*
Y02511D01*
X03854Y02540D01*
X03913D01*
Y02554D01*
X04119D01*
X04129Y02555D01*
X04137Y02559D01*
X04144Y02564D01*
X04150Y02572D01*
X04153Y02580D01*
X04155Y02589D01*
Y02796D01*
X04153Y02805D01*
X04150Y02813D01*
X04144Y02821D01*
X04041Y02924D01*
X04034Y02929D01*
X04025Y02933D01*
X04016Y02934D01*
X03911D01*
Y02940D01*
X03804D01*
Y02934D01*
X03786D01*
X03420Y03300D01*
X03412Y03306D01*
X03404Y03310D01*
X03395Y03311D01*
X03228D01*
Y03313D01*
X03046D01*
Y03430D01*
X03046Y03435D01*
X03045Y03442D01*
Y03590D01*
X03044Y03599D01*
X03041Y03608D01*
X03035Y03615D01*
X02930Y03720D01*
Y03814D01*
X02935Y03815D01*
X02940Y03809D01*
X02947Y03804D01*
X02956Y03800D01*
X02965Y03799D01*
X02967Y03799D01*
X02993Y03773D01*
Y03737D01*
X03057D01*
Y03673D01*
X03164D01*
Y03683D01*
X03168Y03686D01*
X03171Y03685D01*
X03180Y03684D01*
X03190Y03685D01*
X03199Y03689D01*
X03203Y03692D01*
X03213D01*
Y03682D01*
X03288D01*
Y03757D01*
X03225D01*
Y03763D01*
X03245D01*
Y03790D01*
X03250D01*
Y03795D01*
X03278D01*
Y03818D01*
X03266D01*
X03265Y03823D01*
X03269Y03826D01*
X03273Y03832D01*
X03276Y03838D01*
X03276Y03840D01*
X03251D01*
Y03850D01*
X03276D01*
X03276Y03852D01*
X03273Y03858D01*
X03270Y03863D01*
X03272Y03867D01*
X03291D01*
X03295Y03864D01*
X03294Y03860D01*
X03295Y03851D01*
X03299Y03842D01*
X03305Y03834D01*
X03312Y03829D01*
X03321Y03825D01*
X03330Y03824D01*
X03340Y03825D01*
X03349Y03829D01*
X03356Y03834D01*
X03362Y03842D01*
X03366Y03851D01*
X03367Y03860D01*
X03366Y03869D01*
X03362Y03878D01*
X03356Y03886D01*
X03349Y03891D01*
X03348Y03892D01*
X03325Y03915D01*
X03319Y03919D01*
X03317Y03920D01*
X03313Y03922D01*
X03305Y03923D01*
X03133D01*
X03129Y03926D01*
X03120Y03930D01*
X03110Y03931D01*
X03103Y03930D01*
X02910D01*
X02901Y03929D01*
X02892Y03926D01*
X02885Y03920D01*
X02880Y03915D01*
X02440D01*
X02431Y03914D01*
X02422Y03911D01*
X02415Y03905D01*
X02398Y03887D01*
X02313D01*
Y03858D01*
X02303D01*
X02296Y03857D01*
X02289Y03854D01*
X02283Y03850D01*
X02202Y03768D01*
X02197Y03762D01*
X02196Y03759D01*
X02195Y03756D01*
X02190Y03757D01*
Y03760D01*
X02138D01*
X02111Y03786D01*
X02105Y03791D01*
X02103Y03792D01*
X02097Y03794D01*
X02090Y03795D01*
X02064D01*
X02063Y03796D01*
X02054Y03800D01*
X02045Y03801D01*
X02035Y03800D01*
X02027Y03796D01*
X02019Y03791D01*
X02013Y03783D01*
X02010Y03774D01*
X02008Y03765D01*
X02010Y03756D01*
X02013Y03747D01*
X02019Y03739D01*
X02027Y03734D01*
X02035Y03730D01*
X02045Y03729D01*
X02054Y03730D01*
X02063Y03734D01*
X02064Y03735D01*
X02077D01*
X02083Y03729D01*
Y03677D01*
X02179D01*
X02181Y03672D01*
X02139Y03630D01*
X02130D01*
X02128Y03631D01*
X02121Y03632D01*
X01993D01*
Y03662D01*
X01981D01*
X01979Y03666D01*
X01986Y03675D01*
X01992Y03689D01*
X01994Y03704D01*
X01992Y03719D01*
X01986Y03733D01*
X01977Y03745D01*
X01965Y03754D01*
X01958Y03757D01*
Y03762D01*
X01960Y03763D01*
X01970Y03770D01*
X01977Y03780D01*
X01982Y03792D01*
X01983Y03799D01*
X01889D01*
X01890Y03792D01*
X01894Y03780D01*
X01902Y03770D01*
X01912Y03763D01*
X01914Y03762D01*
Y03757D01*
X01907Y03754D01*
X01895Y03745D01*
X01886Y03733D01*
X01880Y03719D01*
X01878Y03704D01*
X01880Y03689D01*
X01886Y03675D01*
X01893Y03666D01*
X01890Y03662D01*
X01878D01*
Y03560D01*
X01720D01*
X01710Y03559D01*
X01702Y03553D01*
X01685Y03536D01*
X01680Y03538D01*
Y03730D01*
X01011D01*
X01009Y03735D01*
X01084Y03810D01*
X01240D01*
X01254Y03811D01*
X01267Y03815D01*
X01279Y03822D01*
X01290Y03830D01*
X01290Y03830D01*
X01325D01*
Y03860D01*
X01329Y03861D01*
X01332Y03855D01*
X01340Y03845D01*
X01350Y03837D01*
X01362Y03832D01*
X01375Y03830D01*
X01388Y03832D01*
X01400Y03837D01*
X01410Y03845D01*
X01418Y03855D01*
X01423Y03867D01*
X01425Y03880D01*
X01423Y03893D01*
X01418Y03905D01*
X01410Y03915D01*
X01400Y03923D01*
X01388Y03928D01*
X01375Y03930D01*
X01362Y03928D01*
X01350Y03923D01*
X01340Y03915D01*
X01332Y03905D01*
X01329Y03899D01*
X01325Y03900D01*
Y03930D01*
X01290D01*
X01290Y03930D01*
X01279Y03938D01*
X01267Y03945D01*
X01254Y03949D01*
X01240Y03950D01*
X01055D01*
X01041Y03949D01*
X01028Y03945D01*
X01016Y03938D01*
X01005Y03930D01*
X00806Y03730D01*
X00425D01*
Y04050D01*
X04565D01*
Y00000D01*
D02*
G37*
%LPC*%
G36*
X01343Y01553D02*
X01320D01*
Y01530D01*
X01343D01*
Y01553D01*
D02*
G37*
G36*
X02301Y01365D02*
X02280D01*
Y01344D01*
X02282Y01345D01*
X02288Y01347D01*
X02294Y01351D01*
X02298Y01357D01*
X02300Y01363D01*
X02301Y01365D01*
D02*
G37*
G36*
X02270D02*
X02249D01*
X02250Y01363D01*
X02252Y01357D01*
X02256Y01351D01*
X02262Y01347D01*
X02268Y01345D01*
X02270Y01344D01*
Y01365D01*
D02*
G37*
G36*
X02375Y01338D02*
X02335D01*
Y01310D01*
X02375D01*
Y01338D01*
D02*
G37*
G36*
X01380Y01640D02*
X01350D01*
Y01611D01*
X01354Y01611D01*
X01363Y01615D01*
X01370Y01620D01*
X01376Y01628D01*
X01379Y01636D01*
X01380Y01640D01*
D02*
G37*
G36*
X01310Y01553D02*
X01288D01*
Y01530D01*
X01310D01*
Y01553D01*
D02*
G37*
G36*
X01340Y01640D02*
X01310D01*
X01311Y01636D01*
X01314Y01628D01*
X01320Y01620D01*
X01327Y01615D01*
X01336Y01611D01*
X01340Y01611D01*
Y01640D01*
D02*
G37*
G36*
X01310Y01520D02*
X01288D01*
Y01497D01*
X01310D01*
Y01520D01*
D02*
G37*
G36*
X01343D02*
X01320D01*
Y01497D01*
X01343D01*
Y01520D01*
D02*
G37*
G36*
X01282Y01563D02*
X01207D01*
Y01561D01*
X01204Y01558D01*
X01203Y01557D01*
X01194Y01560D01*
X01185Y01561D01*
X01176Y01560D01*
X01167Y01557D01*
X01159Y01551D01*
X01154Y01543D01*
X01150Y01535D01*
X01149Y01525D01*
X01150Y01516D01*
X01154Y01507D01*
X01159Y01499D01*
X01167Y01494D01*
X01176Y01490D01*
X01185Y01489D01*
X01194Y01490D01*
X01203Y01494D01*
X01204Y01493D01*
X01207Y01489D01*
Y01487D01*
X01282D01*
Y01563D01*
D02*
G37*
G36*
X01400Y01630D02*
X01396Y01629D01*
X01387Y01626D01*
X01380Y01620D01*
X01374Y01613D01*
X01371Y01604D01*
X01370Y01600D01*
X01400D01*
Y01630D01*
D02*
G37*
G36*
X02130Y01516D02*
X02121Y01515D01*
X02112Y01511D01*
X02104Y01506D01*
X02099Y01498D01*
X02095Y01489D01*
X02094Y01480D01*
X02095Y01471D01*
X02099Y01462D01*
X02104Y01454D01*
X02112Y01449D01*
X02121Y01445D01*
X02130Y01444D01*
X02139Y01445D01*
X02148Y01449D01*
X02153Y01452D01*
X02163D01*
X02165Y01451D01*
Y01392D01*
X02254D01*
X02256Y01388D01*
X02252Y01383D01*
X02250Y01377D01*
X02249Y01375D01*
X02301D01*
X02300Y01377D01*
X02298Y01383D01*
X02294Y01388D01*
X02296Y01392D01*
X02385D01*
Y01409D01*
X02410D01*
X02410Y01409D01*
X02415Y01409D01*
X02420Y01409D01*
X02429Y01410D01*
X02438Y01414D01*
X02446Y01419D01*
X02451Y01427D01*
X02455Y01436D01*
X02456Y01445D01*
X02455Y01454D01*
X02451Y01463D01*
X02446Y01471D01*
X02438Y01476D01*
X02429Y01480D01*
X02420Y01481D01*
X02411Y01480D01*
X02402Y01476D01*
X02394Y01471D01*
X02390Y01465D01*
X02385Y01467D01*
Y01478D01*
X02217D01*
X02195Y01500D01*
X02189Y01504D01*
X02186Y01505D01*
X02182Y01507D01*
X02175Y01508D01*
X02153D01*
X02148Y01511D01*
X02139Y01515D01*
X02130Y01516D01*
D02*
G37*
G36*
X01400Y01590D02*
X01370D01*
X01371Y01586D01*
X01374Y01578D01*
X01380Y01570D01*
X01387Y01565D01*
X01396Y01561D01*
X01400Y01561D01*
Y01590D01*
D02*
G37*
G36*
X01380Y01090D02*
X01350D01*
Y01061D01*
X01354Y01061D01*
X01363Y01065D01*
X01370Y01070D01*
X01376Y01078D01*
X01379Y01086D01*
X01380Y01090D01*
D02*
G37*
G36*
X01340D02*
X01310D01*
X01311Y01086D01*
X01314Y01078D01*
X01320Y01070D01*
X01327Y01065D01*
X01336Y01061D01*
X01340Y01061D01*
Y01090D01*
D02*
G37*
G36*
X01350Y01130D02*
Y01100D01*
X01380D01*
X01379Y01104D01*
X01376Y01113D01*
X01370Y01120D01*
X01363Y01126D01*
X01354Y01129D01*
X01350Y01130D01*
D02*
G37*
G36*
X01340D02*
X01336Y01129D01*
X01327Y01126D01*
X01320Y01120D01*
X01314Y01113D01*
X01311Y01104D01*
X01310Y01100D01*
X01340D01*
Y01130D01*
D02*
G37*
G36*
X01410Y01080D02*
Y01050D01*
X01440D01*
X01439Y01054D01*
X01436Y01063D01*
X01430Y01070D01*
X01423Y01076D01*
X01414Y01079D01*
X01410Y01080D01*
D02*
G37*
G36*
X01400Y01040D02*
X01370D01*
X01371Y01036D01*
X01374Y01028D01*
X01380Y01020D01*
X01387Y01015D01*
X01396Y01011D01*
X01400Y01011D01*
Y01040D01*
D02*
G37*
G36*
X01282Y01013D02*
X01207D01*
Y01011D01*
X01204Y01008D01*
X01203Y01007D01*
X01194Y01010D01*
X01185Y01011D01*
X01176Y01010D01*
X01167Y01007D01*
X01159Y01001D01*
X01154Y00993D01*
X01150Y00985D01*
X01149Y00975D01*
X01150Y00966D01*
X01154Y00957D01*
X01159Y00949D01*
X01167Y00944D01*
X01176Y00940D01*
X01185Y00939D01*
X01194Y00940D01*
X01203Y00944D01*
X01204Y00943D01*
X01207Y00939D01*
Y00937D01*
X01282D01*
Y01013D01*
D02*
G37*
G36*
X01400Y01080D02*
X01396Y01079D01*
X01387Y01076D01*
X01380Y01070D01*
X01374Y01063D01*
X01371Y01054D01*
X01370Y01050D01*
X01400D01*
Y01080D01*
D02*
G37*
G36*
X01440Y01040D02*
X01410D01*
Y01011D01*
X01414Y01011D01*
X01423Y01015D01*
X01430Y01020D01*
X01436Y01028D01*
X01439Y01036D01*
X01440Y01040D01*
D02*
G37*
G36*
X01800Y01185D02*
X01775D01*
Y01161D01*
X01800D01*
Y01185D01*
D02*
G37*
G36*
X02215Y01338D02*
X02175D01*
Y01310D01*
X02215D01*
Y01338D01*
D02*
G37*
G36*
X02375Y01300D02*
X02335D01*
Y01272D01*
X02375D01*
Y01300D01*
D02*
G37*
G36*
X02325Y01338D02*
X02285D01*
Y01310D01*
X02325D01*
Y01338D01*
D02*
G37*
G36*
X02265D02*
X02225D01*
Y01310D01*
X02265D01*
Y01338D01*
D02*
G37*
G36*
X02325Y01300D02*
X02285D01*
Y01272D01*
X02325D01*
Y01300D01*
D02*
G37*
G36*
X04126Y01226D02*
X04124Y01226D01*
X04123Y01226D01*
X04120Y01225D01*
X04118Y01224D01*
X04117Y01223D01*
X04115Y01223D01*
X04114Y01221D01*
X04112Y01219D01*
X04111Y01218D01*
X04110Y01217D01*
X04109Y01215D01*
X04107Y01213D01*
X04054Y01066D01*
X04029Y01071D01*
X04026Y01072D01*
X04023Y01072D01*
X04022Y01072D01*
X04021Y01072D01*
X04018Y01071D01*
X04015Y01070D01*
X04015Y01069D01*
X04014Y01069D01*
X04011Y01067D01*
X04009Y01065D01*
X04009Y01064D01*
X04008Y01064D01*
X04007Y01061D01*
X04005Y01058D01*
X03997Y01031D01*
X03840Y01062D01*
X03838Y01062D01*
X03835Y01062D01*
X03834Y01062D01*
X03832Y01062D01*
X03830Y01060D01*
X03827Y01060D01*
X03826Y01059D01*
X03825Y01059D01*
X03823Y01056D01*
X03821Y01055D01*
X03820Y01054D01*
X03820Y01053D01*
X03818Y01050D01*
X03817Y01048D01*
X03817Y01047D01*
X03817Y01046D01*
X03817Y01043D01*
X03816Y01040D01*
X03817Y01039D01*
X03817Y01038D01*
X03818Y01035D01*
X03818Y01032D01*
X03819Y01031D01*
X03820Y01030D01*
X03822Y01028D01*
X03823Y01026D01*
X03824Y01025D01*
X03825Y01025D01*
X03828Y01024D01*
X03830Y01022D01*
X03962Y00981D01*
X03962Y00976D01*
X03959D01*
X03958Y00976D01*
X03957Y00976D01*
X03954Y00975D01*
X03951Y00974D01*
X03950Y00974D01*
X03949Y00974D01*
X03941Y00970D01*
X03941Y00970D01*
X03941Y00970D01*
X03941Y00970D01*
X03937Y00972D01*
X03934Y00974D01*
X03934Y00974D01*
X03934Y00975D01*
X03930Y00975D01*
X03927Y00976D01*
X03909D01*
X03905Y00975D01*
X03901Y00975D01*
X03901Y00974D01*
X03901Y00974D01*
X03897Y00972D01*
X03894Y00970D01*
X03894Y00970D01*
X03893Y00970D01*
Y00970D01*
X03893D01*
X03893Y00970D01*
X03893Y00970D01*
X03893Y00970D01*
D01*
X03890Y00972D01*
X03887Y00974D01*
X03887Y00974D01*
X03886Y00974D01*
X03883Y00975D01*
X03879Y00976D01*
X03879Y00976D01*
X03879Y00976D01*
X03865D01*
X03864Y00976D01*
X03864Y00976D01*
X03861Y00975D01*
X03857Y00974D01*
X03857Y00974D01*
X03856Y00974D01*
X03853Y00972D01*
X03851Y00970D01*
X03848Y00972D01*
X03846Y00974D01*
X03845Y00974D01*
X03844Y00974D01*
X03841Y00975D01*
X03839Y00976D01*
X03838Y00976D01*
X03837Y00976D01*
X03819D01*
X03815Y00975D01*
X03812Y00975D01*
X03811Y00975D01*
X03811Y00974D01*
X03808Y00973D01*
X03805Y00971D01*
X03805Y00970D01*
X03804Y00970D01*
X03802Y00967D01*
X03800Y00964D01*
X03800Y00964D01*
X03800Y00963D01*
X03799Y00960D01*
X03798Y00957D01*
X03796Y00953D01*
X03793Y00953D01*
X03792Y00953D01*
X03791Y00952D01*
X03788Y00951D01*
X03786Y00949D01*
X03784Y00948D01*
X03782Y00950D01*
Y00950D01*
D01*
X03782D01*
D01*
Y00950D01*
X03780Y00952D01*
X03779Y00954D01*
X03765Y00968D01*
X03762Y00970D01*
X03760Y00972D01*
X03759Y00972D01*
X03758Y00972D01*
X03755Y00973D01*
X03753Y00974D01*
X03733Y00976D01*
X03731Y00976D01*
X03729Y00976D01*
X03727Y00975D01*
X03725Y00975D01*
X03723Y00974D01*
X03721Y00974D01*
X03705Y00966D01*
X03705Y00965D01*
X03704Y00965D01*
X03702Y00963D01*
X03699Y00961D01*
X03699Y00960D01*
X03698Y00960D01*
X03692Y00952D01*
X03692Y00952D01*
X03687Y00955D01*
X03684Y00961D01*
X03684Y00962D01*
X03684Y00963D01*
X03682Y00965D01*
X03680Y00968D01*
X03680Y00969D01*
X03679Y00969D01*
X03676Y00971D01*
X03674Y00973D01*
X03673Y00973D01*
X03672Y00974D01*
X03669Y00974D01*
X03666Y00975D01*
X03665Y00975D01*
X03664Y00975D01*
X03661Y00974D01*
X03658Y00974D01*
X03658Y00973D01*
X03657Y00973D01*
X03654Y00971D01*
X03651Y00970D01*
X03651Y00969D01*
X03650Y00969D01*
X03649Y00966D01*
X03647Y00964D01*
X03646Y00963D01*
X03644Y00963D01*
X03641Y00963D01*
X03641Y00963D01*
X03637Y00970D01*
X03630Y00974D01*
X03623Y00976D01*
X03561D01*
X03558Y00975D01*
X03555Y00975D01*
X03554Y00975D01*
X03553Y00974D01*
X03550Y00973D01*
X03548Y00972D01*
X03547Y00971D01*
X03546Y00970D01*
X03545Y00968D01*
X03543Y00965D01*
X03542Y00964D01*
X03542Y00963D01*
X03541Y00961D01*
X03540Y00958D01*
X03540Y00956D01*
X03536Y00953D01*
X03534Y00953D01*
X03531Y00954D01*
X03507D01*
X03503Y00953D01*
X03500Y00953D01*
X03499Y00953D01*
X03499Y00952D01*
X03496Y00951D01*
X03493Y00949D01*
X03479Y00937D01*
X03479Y00936D01*
X03478Y00936D01*
X03476Y00933D01*
X03474Y00931D01*
X03474Y00930D01*
X03474Y00929D01*
X03473Y00926D01*
X03472Y00923D01*
X03472Y00922D01*
X03472Y00922D01*
Y00898D01*
X03474Y00890D01*
X03478Y00883D01*
X03478Y00883D01*
X03478Y00880D01*
X03478Y00879D01*
X03477Y00879D01*
X03476Y00876D01*
X03474Y00873D01*
X03474Y00873D01*
X03473Y00872D01*
X03473Y00869D01*
X03472Y00866D01*
Y00850D01*
X03474Y00842D01*
X03478Y00835D01*
X03485Y00831D01*
X03493Y00829D01*
X03551D01*
X03558Y00831D01*
X03565Y00835D01*
X03569Y00842D01*
X03570Y00843D01*
X03575Y00851D01*
X03583Y00849D01*
X03601D01*
X03608Y00851D01*
X03615Y00855D01*
X03618D01*
X03618Y00855D01*
X03619Y00855D01*
X03622Y00853D01*
X03625Y00851D01*
X03625Y00851D01*
X03625Y00851D01*
X03629Y00850D01*
X03633Y00849D01*
X03649D01*
X03652Y00850D01*
X03656Y00851D01*
X03656Y00851D01*
X03656Y00851D01*
X03660Y00853D01*
X03663Y00855D01*
X03663Y00855D01*
X03666Y00855D01*
X03669Y00853D01*
X03673Y00851D01*
X03673Y00851D01*
X03673Y00851D01*
X03677Y00850D01*
X03681Y00849D01*
X03695D01*
X03698Y00850D01*
X03701Y00850D01*
X03702Y00851D01*
X03702Y00851D01*
X03705Y00853D01*
X03708Y00854D01*
X03708Y00855D01*
X03709Y00855D01*
X03709Y00856D01*
X03723Y00851D01*
X03724Y00850D01*
X03725Y00850D01*
X03728Y00850D01*
X03731Y00849D01*
X03732Y00849D01*
X03733Y00849D01*
X03750Y00851D01*
X03752Y00852D01*
X03755Y00853D01*
X03770Y00859D01*
X03770Y00859D01*
X03771Y00859D01*
X03774Y00861D01*
X03777Y00863D01*
X03777Y00863D01*
X03777Y00864D01*
X03779Y00867D01*
X03781Y00870D01*
X03781Y00870D01*
X03782Y00870D01*
X03784Y00876D01*
X03788Y00878D01*
X03790Y00877D01*
X03790Y00877D01*
X03790Y00877D01*
X03794Y00876D01*
X03798Y00875D01*
X03798Y00875D01*
X03798Y00875D01*
X03802Y00876D01*
X03806Y00877D01*
X03806Y00877D01*
X03806Y00877D01*
X03809Y00879D01*
X03812Y00882D01*
X03812Y00882D01*
X03812Y00882D01*
X03817Y00886D01*
X03822Y00885D01*
X03829Y00863D01*
X03829Y00863D01*
X03829Y00862D01*
X03831Y00859D01*
X03833Y00856D01*
X03834Y00856D01*
X03834Y00856D01*
X03837Y00853D01*
X03840Y00851D01*
X03840Y00851D01*
X03840Y00851D01*
X03844Y00850D01*
X03847Y00849D01*
X03848Y00849D01*
X03848Y00849D01*
X03852Y00850D01*
X03855Y00850D01*
X03856Y00851D01*
X03856Y00851D01*
X03859Y00853D01*
X03862Y00854D01*
X03862Y00855D01*
X03863Y00855D01*
X03865Y00858D01*
X03867Y00861D01*
X03867Y00861D01*
X03867Y00861D01*
X03868Y00863D01*
X03873Y00863D01*
X03873Y00863D01*
X03874Y00862D01*
X03874Y00862D01*
X03876Y00859D01*
X03878Y00856D01*
X03878Y00855D01*
X03878Y00855D01*
X03881Y00853D01*
X03884Y00851D01*
X03885Y00851D01*
X03885Y00851D01*
X03888Y00850D01*
X03892Y00849D01*
X03892Y00849D01*
X03893Y00849D01*
X03896Y00850D01*
X03900Y00850D01*
X03900Y00851D01*
X03901Y00851D01*
X03903Y00853D01*
X03906Y00855D01*
X03907Y00855D01*
X03907Y00855D01*
X03909Y00858D01*
X03911Y00861D01*
X03911Y00862D01*
X03911Y00862D01*
X03922Y00890D01*
X03927Y00891D01*
X03927Y00890D01*
X03929Y00888D01*
X03930Y00888D01*
X03931Y00887D01*
X03943Y00879D01*
X03944Y00878D01*
X03945Y00878D01*
X03948Y00877D01*
X03951Y00876D01*
X03951D01*
X03954Y00872D01*
Y00870D01*
X03956Y00862D01*
X03960Y00855D01*
X03967Y00851D01*
X03975Y00849D01*
X03993D01*
X03999Y00851D01*
X04003Y00847D01*
X03985Y00760D01*
X03985Y00757D01*
X03984Y00754D01*
X03985Y00753D01*
X03984Y00752D01*
X03986Y00749D01*
X03986Y00747D01*
X03987Y00746D01*
X03987Y00744D01*
X03989Y00742D01*
X03991Y00740D01*
X03992Y00740D01*
X03993Y00739D01*
X03996Y00738D01*
X03998Y00736D01*
X03999Y00736D01*
X04000Y00736D01*
X04003Y00736D01*
X04006Y00735D01*
X04007Y00736D01*
X04008Y00736D01*
X04011Y00737D01*
X04014Y00737D01*
X04015Y00738D01*
X04016Y00739D01*
X04018Y00741D01*
X04020Y00742D01*
X04021Y00743D01*
X04021Y00744D01*
X04022Y00747D01*
X04024Y00749D01*
X04074Y00898D01*
X04102Y00892D01*
X04106Y00892D01*
X04109Y00891D01*
X04110Y00892D01*
X04110Y00892D01*
X04113Y00893D01*
X04117Y00894D01*
X04117Y00894D01*
X04118Y00894D01*
X04120Y00897D01*
X04123Y00899D01*
X04123Y00900D01*
X04123Y00900D01*
X04125Y00903D01*
X04126Y00906D01*
X04133Y00932D01*
X04289Y00902D01*
X04291Y00902D01*
X04294Y00901D01*
X04295Y00902D01*
X04297Y00902D01*
X04299Y00903D01*
X04302Y00903D01*
X04303Y00904D01*
X04304Y00905D01*
X04306Y00907D01*
X04308Y00908D01*
X04309Y00909D01*
X04310Y00910D01*
X04311Y00913D01*
X04312Y00915D01*
X04312Y00916D01*
X04313Y00918D01*
X04313Y00920D01*
X04313Y00923D01*
X04313Y00924D01*
X04313Y00926D01*
X04311Y00928D01*
X04311Y00931D01*
X04310Y00932D01*
X04309Y00933D01*
X04308Y00935D01*
X04306Y00937D01*
X04305Y00938D01*
X04304Y00939D01*
X04301Y00940D01*
X04299Y00941D01*
X04148Y00991D01*
X04154Y01017D01*
X04154Y01020D01*
X04155Y01023D01*
X04155Y01024D01*
X04155Y01025D01*
X04154Y01028D01*
X04153Y01031D01*
X04152Y01032D01*
X04152Y01032D01*
X04150Y01035D01*
X04148Y01037D01*
X04147Y01038D01*
X04146Y01038D01*
X04143Y01040D01*
X04141Y01041D01*
X04114Y01049D01*
X04146Y01201D01*
X04147Y01204D01*
X04147Y01206D01*
X04147Y01208D01*
X04147Y01209D01*
X04146Y01212D01*
X04145Y01214D01*
X04144Y01215D01*
X04144Y01217D01*
X04142Y01219D01*
X04140Y01221D01*
X04139Y01221D01*
X04138Y01222D01*
X04136Y01223D01*
X04134Y01225D01*
X04132Y01225D01*
X04131Y01226D01*
X04128Y01226D01*
X04126Y01226D01*
D02*
G37*
G36*
X01835Y01185D02*
X01810D01*
Y01161D01*
X01835D01*
Y01185D01*
D02*
G37*
G36*
X02265Y01300D02*
X02225D01*
Y01272D01*
X02265D01*
Y01300D01*
D02*
G37*
G36*
X02215D02*
X02175D01*
Y01272D01*
X02215D01*
Y01300D01*
D02*
G37*
G36*
X02910Y01665D02*
X02889D01*
X02890Y01663D01*
X02892Y01657D01*
X02896Y01651D01*
X02902Y01647D01*
X02908Y01645D01*
X02910Y01644D01*
Y01665D01*
D02*
G37*
G36*
X02418Y01871D02*
X02417Y01870D01*
X02410Y01868D01*
X02405Y01864D01*
X02401Y01858D01*
X02398Y01852D01*
X02398Y01850D01*
X02418D01*
Y01871D01*
D02*
G37*
G36*
X02339Y01869D02*
Y01848D01*
X02360D01*
X02360Y01850D01*
X02357Y01857D01*
X02353Y01862D01*
X02348Y01866D01*
X02341Y01869D01*
X02339Y01869D01*
D02*
G37*
G36*
X02428Y01871D02*
Y01850D01*
X02449D01*
X02449Y01852D01*
X02446Y01858D01*
X02442Y01864D01*
X02436Y01868D01*
X02430Y01870D01*
X02428Y01871D01*
D02*
G37*
G36*
X01354Y01913D02*
X01303D01*
Y01860D01*
X01354D01*
Y01913D01*
D02*
G37*
G36*
X01293D02*
X01241D01*
Y01860D01*
X01293D01*
Y01913D01*
D02*
G37*
G36*
X02116Y01850D02*
X02095D01*
Y01829D01*
X02097Y01830D01*
X02103Y01832D01*
X02109Y01836D01*
X02113Y01842D01*
X02115Y01848D01*
X02116Y01850D01*
D02*
G37*
G36*
X02085D02*
X02064D01*
X02065Y01848D01*
X02067Y01842D01*
X02071Y01836D01*
X02077Y01832D01*
X02083Y01830D01*
X02085Y01829D01*
Y01850D01*
D02*
G37*
G36*
X04406Y01854D02*
X04385D01*
X04385Y01852D01*
X04388Y01846D01*
X04392Y01840D01*
X04398Y01836D01*
X04404Y01834D01*
X04406Y01833D01*
Y01854D01*
D02*
G37*
G36*
X02329Y01869D02*
X02328Y01869D01*
X02321Y01866D01*
X02316Y01862D01*
X02312Y01857D01*
X02309Y01850D01*
X02309Y01848D01*
X02329D01*
Y01869D01*
D02*
G37*
G36*
X04436Y01854D02*
X04416D01*
Y01833D01*
X04417Y01834D01*
X04424Y01836D01*
X04429Y01840D01*
X04433Y01846D01*
X04436Y01852D01*
X04436Y01854D01*
D02*
G37*
G36*
X03696Y01905D02*
X03673D01*
Y01880D01*
X03696D01*
Y01905D01*
D02*
G37*
G36*
X02364Y01903D02*
X02339D01*
Y01879D01*
X02364D01*
Y01903D01*
D02*
G37*
G36*
X03635Y01905D02*
X03614D01*
X03615Y01903D01*
X03617Y01897D01*
X03621Y01891D01*
X03627Y01887D01*
X03633Y01885D01*
X03635Y01884D01*
Y01905D01*
D02*
G37*
G36*
X02928Y01937D02*
X02888D01*
Y01893D01*
X02928D01*
Y01937D01*
D02*
G37*
G36*
X03666Y01905D02*
X03645D01*
Y01884D01*
X03647Y01885D01*
X03653Y01887D01*
X03659Y01891D01*
X03663Y01897D01*
X03665Y01903D01*
X03666Y01905D01*
D02*
G37*
G36*
X02095Y01881D02*
Y01860D01*
X02116D01*
X02115Y01862D01*
X02113Y01868D01*
X02109Y01874D01*
X02103Y01878D01*
X02097Y01880D01*
X02095Y01881D01*
D02*
G37*
G36*
X02085D02*
X02083Y01880D01*
X02077Y01878D01*
X02071Y01874D01*
X02067Y01868D01*
X02065Y01862D01*
X02064Y01860D01*
X02085D01*
Y01881D01*
D02*
G37*
G36*
X04406Y01885D02*
X04404Y01884D01*
X04398Y01882D01*
X04392Y01878D01*
X04388Y01872D01*
X04385Y01866D01*
X04385Y01864D01*
X04406D01*
Y01885D01*
D02*
G37*
G36*
X02329Y01903D02*
X02305D01*
Y01879D01*
X02329D01*
Y01903D01*
D02*
G37*
G36*
X04416Y01885D02*
Y01864D01*
X04436D01*
X04436Y01866D01*
X04433Y01872D01*
X04429Y01878D01*
X04424Y01882D01*
X04417Y01884D01*
X04416Y01885D01*
D02*
G37*
G36*
X02449Y01840D02*
X02428D01*
Y01819D01*
X02430Y01820D01*
X02436Y01822D01*
X02442Y01826D01*
X02446Y01832D01*
X02449Y01838D01*
X02449Y01840D01*
D02*
G37*
G36*
X03160Y01715D02*
X03136D01*
Y01690D01*
X03160D01*
Y01715D01*
D02*
G37*
G36*
X02970D02*
X02946D01*
Y01690D01*
X02970D01*
Y01715D01*
D02*
G37*
G36*
X04382Y01736D02*
X04361D01*
X04362Y01734D01*
X04364Y01728D01*
X04368Y01723D01*
X04374Y01718D01*
X04380Y01716D01*
X04382Y01716D01*
Y01736D01*
D02*
G37*
G36*
X02970Y01750D02*
X02946D01*
Y01725D01*
X02970D01*
Y01750D01*
D02*
G37*
G36*
X04413Y01736D02*
X04392D01*
Y01716D01*
X04394Y01716D01*
X04400Y01718D01*
X04406Y01723D01*
X04410Y01728D01*
X04412Y01734D01*
X04413Y01736D01*
D02*
G37*
G36*
X01340Y01680D02*
X01336Y01679D01*
X01327Y01676D01*
X01320Y01670D01*
X01314Y01663D01*
X01311Y01654D01*
X01310Y01650D01*
X01340D01*
Y01680D01*
D02*
G37*
G36*
X02941Y01665D02*
X02920D01*
Y01644D01*
X02922Y01645D01*
X02928Y01647D01*
X02934Y01651D01*
X02938Y01657D01*
X02940Y01663D01*
X02941Y01665D01*
D02*
G37*
G36*
X01350Y01680D02*
Y01650D01*
X01380D01*
X01379Y01654D01*
X01376Y01663D01*
X01370Y01670D01*
X01363Y01676D01*
X01354Y01679D01*
X01350Y01680D01*
D02*
G37*
G36*
X02920Y01696D02*
Y01675D01*
X02941D01*
X02940Y01677D01*
X02938Y01683D01*
X02934Y01689D01*
X02928Y01693D01*
X02922Y01695D01*
X02920Y01696D01*
D02*
G37*
G36*
X02910D02*
X02908Y01695D01*
X02902Y01693D01*
X02896Y01689D01*
X02892Y01683D01*
X02890Y01677D01*
X02889Y01675D01*
X02910D01*
Y01696D01*
D02*
G37*
G36*
X01354Y01850D02*
X01303D01*
Y01797D01*
X01354D01*
Y01850D01*
D02*
G37*
G36*
X01293D02*
X01241D01*
Y01797D01*
X01293D01*
Y01850D01*
D02*
G37*
G36*
X02329Y01838D02*
X02309D01*
X02309Y01837D01*
X02312Y01830D01*
X02316Y01825D01*
X02321Y01821D01*
X02328Y01818D01*
X02329Y01818D01*
Y01838D01*
D02*
G37*
G36*
X02418Y01840D02*
X02398D01*
X02398Y01838D01*
X02401Y01832D01*
X02405Y01826D01*
X02410Y01822D01*
X02417Y01820D01*
X02418Y01819D01*
Y01840D01*
D02*
G37*
G36*
X02360Y01838D02*
X02339D01*
Y01818D01*
X02341Y01818D01*
X02348Y01821D01*
X02353Y01825D01*
X02357Y01830D01*
X02360Y01837D01*
X02360Y01838D01*
D02*
G37*
G36*
X04382Y01767D02*
X04380Y01766D01*
X04374Y01764D01*
X04368Y01760D01*
X04364Y01754D01*
X04362Y01748D01*
X04361Y01746D01*
X04382D01*
Y01767D01*
D02*
G37*
G36*
X03160Y01750D02*
X03136D01*
Y01725D01*
X03160D01*
Y01750D01*
D02*
G37*
G36*
X04392Y01767D02*
Y01746D01*
X04413D01*
X04412Y01748D01*
X04410Y01754D01*
X04406Y01760D01*
X04400Y01764D01*
X04394Y01766D01*
X04392Y01767D01*
D02*
G37*
G36*
X03238Y01840D02*
X03225Y01839D01*
X03212Y01834D01*
X03202Y01826D01*
X03194Y01815D01*
X03189Y01803D01*
X03187Y01790D01*
X03189Y01777D01*
X03194Y01765D01*
X03197Y01761D01*
X03197Y01760D01*
X03197D01*
X03197Y01760D01*
Y01753D01*
X03193Y01750D01*
X03193Y01750D01*
X03193Y01750D01*
Y01750D01*
X03170D01*
Y01720D01*
Y01690D01*
X03193D01*
X03193Y01690D01*
Y01690D01*
X03193Y01690D01*
X03197Y01687D01*
Y01680D01*
X03274D01*
Y01755D01*
X03281Y01765D01*
X03286Y01777D01*
X03288Y01790D01*
X03286Y01803D01*
X03281Y01815D01*
X03273Y01826D01*
X03263Y01834D01*
X03251Y01839D01*
X03238Y01840D01*
D02*
G37*
G36*
X03042D02*
X03029Y01839D01*
X03017Y01834D01*
X03007Y01826D01*
X02999Y01815D01*
X02994Y01803D01*
X02992Y01790D01*
X02994Y01777D01*
X02999Y01765D01*
X03007Y01754D01*
X03007Y01753D01*
X03003Y01750D01*
X03003Y01750D01*
X03003Y01750D01*
Y01750D01*
X02980D01*
Y01720D01*
Y01690D01*
X03003D01*
X03003Y01690D01*
Y01690D01*
X03003Y01690D01*
X03007Y01687D01*
Y01680D01*
X03084D01*
Y01760D01*
X03084Y01760D01*
X03084D01*
X03083Y01761D01*
X03086Y01765D01*
X03091Y01777D01*
X03093Y01790D01*
X03091Y01803D01*
X03086Y01815D01*
X03078Y01826D01*
X03068Y01834D01*
X03055Y01839D01*
X03042Y01840D01*
D02*
G37*
G36*
X01343Y01003D02*
X01320D01*
Y00980D01*
X01343D01*
Y01003D01*
D02*
G37*
G36*
X01965Y00407D02*
X01925D01*
Y00380D01*
Y00352D01*
X01965D01*
Y00380D01*
Y00407D01*
D02*
G37*
G36*
X01915Y00375D02*
X01892D01*
Y00352D01*
X01915D01*
Y00375D01*
D02*
G37*
G36*
X02703Y00407D02*
X02680D01*
Y00380D01*
Y00352D01*
X02697D01*
Y00352D01*
X02720D01*
Y00380D01*
Y00407D01*
X02703D01*
Y00407D01*
D02*
G37*
G36*
X03810Y00375D02*
X03789D01*
X03790Y00373D01*
X03792Y00367D01*
X03796Y00361D01*
X03802Y00357D01*
X03808Y00355D01*
X03810Y00354D01*
Y00375D01*
D02*
G37*
G36*
X02670Y00375D02*
X02647D01*
Y00352D01*
X02670D01*
Y00375D01*
D02*
G37*
G36*
X01460Y00280D02*
X01435D01*
Y00256D01*
X01460D01*
Y00280D01*
D02*
G37*
G36*
X01310D02*
X01285D01*
Y00256D01*
X01310D01*
Y00280D01*
D02*
G37*
G36*
X01495D02*
X01470D01*
Y00256D01*
X01495D01*
Y00280D01*
D02*
G37*
G36*
X01392Y00301D02*
X01375D01*
Y00272D01*
X01392D01*
Y00301D01*
D02*
G37*
G36*
X01365D02*
X01348D01*
Y00272D01*
X01365D01*
Y00301D01*
D02*
G37*
G36*
X03820Y00406D02*
Y00385D01*
X03841D01*
X03840Y00387D01*
X03838Y00393D01*
X03834Y00399D01*
X03828Y00403D01*
X03822Y00405D01*
X03820Y00406D01*
D02*
G37*
G36*
X03810D02*
X03808Y00405D01*
X03802Y00403D01*
X03796Y00399D01*
X03792Y00393D01*
X03790Y00387D01*
X03789Y00385D01*
X03810D01*
Y00406D01*
D02*
G37*
G36*
X01305Y00420D02*
X01283D01*
Y00397D01*
X01305D01*
Y00420D01*
D02*
G37*
G36*
Y00453D02*
X01283D01*
Y00430D01*
X01305D01*
Y00453D01*
D02*
G37*
G36*
X01338Y00420D02*
X01315D01*
Y00397D01*
X01338D01*
Y00420D01*
D02*
G37*
G36*
X01915Y00407D02*
X01892D01*
Y00385D01*
X01915D01*
Y00407D01*
D02*
G37*
G36*
X03841Y00375D02*
X03820D01*
Y00354D01*
X03822Y00355D01*
X03828Y00357D01*
X03834Y00361D01*
X03838Y00367D01*
X03840Y00373D01*
X03841Y00375D01*
D02*
G37*
G36*
X01998Y00407D02*
X01975D01*
Y00385D01*
X01998D01*
Y00407D01*
D02*
G37*
G36*
X02670Y00407D02*
X02647D01*
Y00385D01*
X02670D01*
Y00407D01*
D02*
G37*
G36*
X02753Y00407D02*
X02730D01*
Y00385D01*
X02753D01*
Y00407D01*
D02*
G37*
G36*
X04400Y00155D02*
X04283D01*
X04284Y00141D01*
X04288Y00122D01*
X04296Y00104D01*
X04306Y00088D01*
X04318Y00073D01*
X04333Y00061D01*
X04349Y00051D01*
X04367Y00043D01*
X04386Y00039D01*
X04400Y00038D01*
Y00155D01*
D02*
G37*
G36*
X00707D02*
X00590D01*
Y00038D01*
X00604Y00039D01*
X00623Y00043D01*
X00641Y00051D01*
X00657Y00061D01*
X00672Y00073D01*
X00684Y00088D01*
X00694Y00104D01*
X00702Y00122D01*
X00706Y00141D01*
X00707Y00155D01*
D02*
G37*
G36*
X04527D02*
X04410D01*
Y00038D01*
X04424Y00039D01*
X04443Y00043D01*
X04461Y00051D01*
X04477Y00061D01*
X04492Y00073D01*
X04504Y00088D01*
X04514Y00104D01*
X04522Y00122D01*
X04526Y00141D01*
X04527Y00155D01*
D02*
G37*
G36*
X02050Y00076D02*
Y00055D01*
X02071D01*
X02070Y00057D01*
X02068Y00063D01*
X02064Y00069D01*
X02058Y00073D01*
X02052Y00075D01*
X02050Y00076D01*
D02*
G37*
G36*
X02040D02*
X02038Y00075D01*
X02032Y00073D01*
X02026Y00069D01*
X02022Y00063D01*
X02020Y00057D01*
X02019Y00055D01*
X02040D01*
Y00076D01*
D02*
G37*
G36*
X02071Y00045D02*
X02050D01*
Y00024D01*
X02052Y00025D01*
X02058Y00027D01*
X02064Y00031D01*
X02068Y00037D01*
X02070Y00043D01*
X02071Y00045D01*
D02*
G37*
G36*
X02040D02*
X02019D01*
X02020Y00043D01*
X02022Y00037D01*
X02026Y00031D01*
X02032Y00027D01*
X02038Y00025D01*
X02040Y00024D01*
Y00045D01*
D02*
G37*
G36*
X02340D02*
X02319D01*
X02320Y00043D01*
X02322Y00037D01*
X02326Y00031D01*
X02332Y00027D01*
X02338Y00025D01*
X02340Y00024D01*
Y00045D01*
D02*
G37*
G36*
X00580Y00155D02*
X00463D01*
X00464Y00141D01*
X00468Y00122D01*
X00476Y00104D01*
X00486Y00088D01*
X00498Y00073D01*
X00513Y00061D01*
X00529Y00051D01*
X00547Y00043D01*
X00566Y00039D01*
X00580Y00038D01*
Y00155D01*
D02*
G37*
G36*
X02371Y00045D02*
X02350D01*
Y00024D01*
X02352Y00025D01*
X02358Y00027D01*
X02364Y00031D01*
X02368Y00037D01*
X02370Y00043D01*
X02371Y00045D01*
D02*
G37*
G36*
X01215Y00246D02*
X01192D01*
Y00223D01*
X01215D01*
Y00246D01*
D02*
G37*
G36*
X04410Y00282D02*
Y00165D01*
X04527D01*
X04526Y00179D01*
X04522Y00198D01*
X04514Y00216D01*
X04504Y00232D01*
X04492Y00247D01*
X04477Y00259D01*
X04461Y00269D01*
X04443Y00277D01*
X04424Y00281D01*
X04410Y00282D01*
D02*
G37*
G36*
X01365Y00262D02*
X01348D01*
Y00233D01*
X01365D01*
Y00262D01*
D02*
G37*
G36*
X01215Y00279D02*
X01192D01*
Y00256D01*
X01215D01*
Y00279D01*
D02*
G37*
G36*
X01392Y00262D02*
X01375D01*
Y00233D01*
X01392D01*
Y00262D01*
D02*
G37*
G36*
X02350Y00076D02*
Y00055D01*
X02371D01*
X02370Y00057D01*
X02368Y00063D01*
X02364Y00069D01*
X02358Y00073D01*
X02352Y00075D01*
X02350Y00076D01*
D02*
G37*
G36*
X02340D02*
X02338Y00075D01*
X02332Y00073D01*
X02326Y00069D01*
X02322Y00063D01*
X02320Y00057D01*
X02319Y00055D01*
X02340D01*
Y00076D01*
D02*
G37*
G36*
X00580Y00282D02*
X00566Y00281D01*
X00547Y00277D01*
X00529Y00269D01*
X00513Y00259D01*
X00498Y00247D01*
X00486Y00232D01*
X00476Y00216D01*
X00468Y00198D01*
X00464Y00179D01*
X00463Y00165D01*
X00580D01*
Y00282D01*
D02*
G37*
G36*
X04400D02*
X04386Y00281D01*
X04367Y00277D01*
X04349Y00269D01*
X04333Y00259D01*
X04318Y00247D01*
X04306Y00232D01*
X04296Y00216D01*
X04288Y00198D01*
X04284Y00179D01*
X04283Y00165D01*
X04400D01*
Y00282D01*
D02*
G37*
G36*
X00590D02*
Y00165D01*
X00707D01*
X00706Y00179D01*
X00702Y00198D01*
X00694Y00216D01*
X00684Y00232D01*
X00672Y00247D01*
X00657Y00259D01*
X00641Y00269D01*
X00623Y00277D01*
X00604Y00281D01*
X00590Y00282D01*
D02*
G37*
G36*
X01338Y00453D02*
X01315D01*
Y00430D01*
X01338D01*
Y00453D01*
D02*
G37*
G36*
X01928Y00767D02*
X01905D01*
Y00745D01*
X01928D01*
Y00767D01*
D02*
G37*
G36*
X01895D02*
X01872D01*
Y00745D01*
X01895D01*
Y00767D01*
D02*
G37*
G36*
X02650Y00767D02*
X02627D01*
Y00745D01*
X02650D01*
Y00767D01*
D02*
G37*
G36*
X03125Y00779D02*
X03100D01*
Y00755D01*
X03125D01*
Y00779D01*
D02*
G37*
G36*
X02683Y00767D02*
X02660D01*
Y00745D01*
X02683D01*
Y00767D01*
D02*
G37*
G36*
X01895Y00735D02*
X01872D01*
Y00712D01*
X01895D01*
Y00735D01*
D02*
G37*
G36*
X03180Y00721D02*
X03178Y00720D01*
X03172Y00718D01*
X03166Y00714D01*
X03162Y00708D01*
X03160Y00702D01*
X03159Y00700D01*
X03180D01*
Y00721D01*
D02*
G37*
G36*
X01928Y00735D02*
X01905D01*
Y00712D01*
X01928D01*
Y00735D01*
D02*
G37*
G36*
X02683Y00735D02*
X02660D01*
Y00712D01*
X02683D01*
Y00735D01*
D02*
G37*
G36*
X02650D02*
X02627D01*
Y00712D01*
X02650D01*
Y00735D01*
D02*
G37*
G36*
X02560Y00816D02*
Y00795D01*
X02581D01*
X02580Y00797D01*
X02578Y00803D01*
X02574Y00809D01*
X02568Y00813D01*
X02562Y00815D01*
X02560Y00816D01*
D02*
G37*
G36*
X03121Y00810D02*
X03100D01*
Y00789D01*
X03102Y00790D01*
X03108Y00792D01*
X03114Y00796D01*
X03118Y00802D01*
X03120Y00808D01*
X03121Y00810D01*
D02*
G37*
G36*
X01310Y00970D02*
X01288D01*
Y00947D01*
X01310D01*
Y00970D01*
D02*
G37*
G36*
Y01003D02*
X01288D01*
Y00980D01*
X01310D01*
Y01003D01*
D02*
G37*
G36*
X01343Y00970D02*
X01320D01*
Y00947D01*
X01343D01*
Y00970D01*
D02*
G37*
G36*
X02581Y00785D02*
X02560D01*
Y00764D01*
X02562Y00765D01*
X02568Y00767D01*
X02574Y00771D01*
X02578Y00777D01*
X02580Y00783D01*
X02581Y00785D01*
D02*
G37*
G36*
X02375Y00779D02*
X02350D01*
Y00755D01*
X02375D01*
Y00779D01*
D02*
G37*
G36*
X02335Y00810D02*
X02314D01*
X02315Y00808D01*
X02317Y00802D01*
X02321Y00796D01*
X02327Y00792D01*
X02333Y00790D01*
X02335Y00789D01*
Y00810D01*
D02*
G37*
G36*
X03090D02*
X03069D01*
X03070Y00808D01*
X03072Y00802D01*
X03076Y00796D01*
X03082Y00792D01*
X03088Y00790D01*
X03090Y00789D01*
Y00810D01*
D02*
G37*
G36*
X02366D02*
X02345D01*
Y00789D01*
X02347Y00790D01*
X02353Y00792D01*
X02359Y00796D01*
X02363Y00802D01*
X02365Y00808D01*
X02366Y00810D01*
D02*
G37*
G36*
X01405Y00530D02*
Y00500D01*
X01435D01*
X01434Y00504D01*
X01431Y00513D01*
X01425Y00520D01*
X01418Y00526D01*
X01409Y00529D01*
X01405Y00530D01*
D02*
G37*
G36*
X01395D02*
X01391Y00529D01*
X01382Y00526D01*
X01375Y00520D01*
X01369Y00513D01*
X01366Y00504D01*
X01365Y00500D01*
X01395D01*
Y00530D01*
D02*
G37*
G36*
X01335Y00540D02*
X01305D01*
X01306Y00536D01*
X01309Y00528D01*
X01315Y00520D01*
X01322Y00515D01*
X01331Y00511D01*
X01335Y00511D01*
Y00540D01*
D02*
G37*
G36*
X01970Y00536D02*
X01961Y00535D01*
X01952Y00531D01*
X01945Y00526D01*
X01938Y00531D01*
X01929Y00535D01*
X01920Y00536D01*
X01911Y00535D01*
X01902Y00531D01*
X01894Y00526D01*
X01889Y00518D01*
X01885Y00509D01*
X01884Y00500D01*
X01885Y00491D01*
X01885Y00491D01*
X01882Y00488D01*
X01882D01*
Y00413D01*
X02008D01*
Y00488D01*
X02008D01*
X02005Y00491D01*
X02005Y00491D01*
X02006Y00500D01*
X02005Y00509D01*
X02001Y00518D01*
X01996Y00526D01*
X01988Y00531D01*
X01979Y00535D01*
X01970Y00536D01*
D02*
G37*
G36*
X01375Y00540D02*
X01345D01*
Y00511D01*
X01349Y00511D01*
X01358Y00515D01*
X01365Y00520D01*
X01371Y00528D01*
X01374Y00536D01*
X01375Y00540D01*
D02*
G37*
G36*
X01395Y00490D02*
X01365D01*
X01366Y00486D01*
X01369Y00478D01*
X01375Y00470D01*
X01382Y00465D01*
X01391Y00461D01*
X01395Y00461D01*
Y00490D01*
D02*
G37*
G36*
X01277Y00463D02*
X01202D01*
Y00461D01*
X01199Y00458D01*
X01198Y00457D01*
X01189Y00460D01*
X01180Y00461D01*
X01171Y00460D01*
X01162Y00457D01*
X01154Y00451D01*
X01149Y00443D01*
X01145Y00435D01*
X01144Y00425D01*
X01145Y00416D01*
X01149Y00407D01*
X01154Y00399D01*
X01162Y00394D01*
X01171Y00390D01*
X01180Y00389D01*
X01189Y00390D01*
X01198Y00394D01*
X01199Y00393D01*
X01202Y00389D01*
Y00387D01*
X01277D01*
Y00463D01*
D02*
G37*
G36*
X01435Y00490D02*
X01405D01*
Y00461D01*
X01409Y00461D01*
X01418Y00465D01*
X01425Y00470D01*
X01431Y00478D01*
X01434Y00486D01*
X01435Y00490D01*
D02*
G37*
G36*
X03145Y00511D02*
X03143Y00510D01*
X03137Y00508D01*
X03131Y00504D01*
X03127Y00498D01*
X03125Y00492D01*
X03124Y00490D01*
X03145D01*
Y00511D01*
D02*
G37*
G36*
X02390D02*
X02388Y00510D01*
X02382Y00508D01*
X02376Y00504D01*
X02372Y00498D01*
X02370Y00492D01*
X02369Y00490D01*
X02390D01*
Y00511D01*
D02*
G37*
G36*
X03180Y00690D02*
X03159D01*
X03160Y00688D01*
X03162Y00682D01*
X03166Y00676D01*
X03172Y00672D01*
X03178Y00670D01*
X03180Y00669D01*
Y00690D01*
D02*
G37*
G36*
X02425D02*
X02404D01*
X02405Y00688D01*
X02407Y00682D01*
X02411Y00676D01*
X02417Y00672D01*
X02423Y00670D01*
X02425Y00669D01*
Y00690D01*
D02*
G37*
G36*
X01930Y00696D02*
X01928Y00695D01*
X01922Y00693D01*
X01916Y00689D01*
X01912Y00683D01*
X01910Y00677D01*
X01909Y00675D01*
X01930D01*
Y00696D01*
D02*
G37*
G36*
X02425Y00721D02*
X02423Y00720D01*
X02417Y00718D01*
X02411Y00714D01*
X02407Y00708D01*
X02405Y00702D01*
X02404Y00700D01*
X02425D01*
Y00721D01*
D02*
G37*
G36*
X02685Y00696D02*
X02683Y00695D01*
X02677Y00693D01*
X02671Y00689D01*
X02667Y00683D01*
X02665Y00677D01*
X02664Y00675D01*
X02685D01*
Y00696D01*
D02*
G37*
G36*
X01335Y00580D02*
X01331Y00579D01*
X01322Y00576D01*
X01315Y00570D01*
X01309Y00563D01*
X01306Y00554D01*
X01305Y00550D01*
X01335D01*
Y00580D01*
D02*
G37*
G36*
X02725Y00536D02*
X02716Y00535D01*
X02707Y00531D01*
X02700Y00526D01*
X02693Y00531D01*
X02684Y00535D01*
X02675Y00536D01*
X02666Y00535D01*
X02657Y00531D01*
X02649Y00526D01*
X02644Y00518D01*
X02640Y00509D01*
X02639Y00500D01*
X02640Y00491D01*
X02640Y00491D01*
X02637Y00488D01*
X02637D01*
Y00413D01*
X02687D01*
Y00413D01*
X02763D01*
Y00488D01*
X02763D01*
X02760Y00491D01*
X02760Y00491D01*
X02761Y00500D01*
X02760Y00509D01*
X02756Y00518D01*
X02751Y00526D01*
X02743Y00531D01*
X02734Y00535D01*
X02725Y00536D01*
D02*
G37*
G36*
X01345Y00580D02*
Y00550D01*
X01375D01*
X01374Y00554D01*
X01371Y00563D01*
X01365Y00570D01*
X01358Y00576D01*
X01349Y00579D01*
X01345Y00580D01*
D02*
G37*
G36*
X02685Y00665D02*
X02664D01*
X02665Y00663D01*
X02667Y00657D01*
X02671Y00651D01*
X02677Y00647D01*
X02683Y00645D01*
X02685Y00644D01*
Y00665D01*
D02*
G37*
G36*
X01930D02*
X01909D01*
X01910Y00663D01*
X01912Y00657D01*
X01916Y00651D01*
X01922Y00647D01*
X01928Y00645D01*
X01930Y00644D01*
Y00665D01*
D02*
G37*
G36*
X02979Y01937D02*
X02938D01*
Y01893D01*
X02979D01*
Y01937D01*
D02*
G37*
G36*
X00880Y03287D02*
X00846D01*
Y03260D01*
X00880D01*
Y03287D01*
D02*
G37*
G36*
X02589Y03270D02*
X02565D01*
Y03245D01*
X02589D01*
Y03270D01*
D02*
G37*
G36*
X00996Y03282D02*
X00965D01*
Y03260D01*
X00996D01*
Y03282D01*
D02*
G37*
G36*
X03525Y03503D02*
X03495D01*
Y03476D01*
Y03448D01*
X03525D01*
Y03467D01*
X03530Y03468D01*
X03532Y03463D01*
X03536Y03457D01*
X03542Y03453D01*
X03548Y03450D01*
X03550Y03450D01*
Y03476D01*
Y03501D01*
X03548Y03501D01*
X03542Y03498D01*
X03536Y03494D01*
X03532Y03489D01*
X03530Y03483D01*
X03525Y03484D01*
Y03503D01*
D02*
G37*
G36*
X03485Y03471D02*
X03454D01*
Y03448D01*
X03485D01*
Y03471D01*
D02*
G37*
G36*
X01250Y03228D02*
Y03208D01*
X01271D01*
X01270Y03210D01*
X01268Y03216D01*
X01264Y03221D01*
X01258Y03226D01*
X01252Y03228D01*
X01250Y03228D01*
D02*
G37*
G36*
X01240D02*
X01238Y03228D01*
X01232Y03226D01*
X01226Y03221D01*
X01222Y03216D01*
X01220Y03210D01*
X01219Y03208D01*
X01240D01*
Y03228D01*
D02*
G37*
G36*
X00880Y03250D02*
X00846D01*
Y03222D01*
X00880D01*
Y03250D01*
D02*
G37*
G36*
X00996D02*
X00965D01*
Y03227D01*
X00996D01*
Y03250D01*
D02*
G37*
G36*
X00924Y03287D02*
X00890D01*
Y03255D01*
Y03222D01*
X00924D01*
Y03226D01*
X00924Y03227D01*
X00927Y03227D01*
X00927Y03227D01*
Y03227D01*
X00955D01*
Y03255D01*
Y03282D01*
X00927D01*
X00927Y03282D01*
Y03282D01*
X00924Y03282D01*
X00924Y03283D01*
Y03287D01*
D02*
G37*
G36*
X02748Y03507D02*
X02728D01*
Y03487D01*
X02729Y03487D01*
X02736Y03490D01*
X02741Y03494D01*
X02745Y03499D01*
X02748Y03506D01*
X02748Y03507D01*
D02*
G37*
G36*
X02718D02*
X02697D01*
X02697Y03506D01*
X02700Y03499D01*
X02704Y03494D01*
X02710Y03490D01*
X02716Y03487D01*
X02718Y03487D01*
Y03507D01*
D02*
G37*
G36*
X03766Y03512D02*
X03742D01*
Y03488D01*
X03766D01*
Y03512D01*
D02*
G37*
G36*
X03850Y03518D02*
X03819D01*
Y03496D01*
X03850D01*
Y03518D01*
D02*
G37*
G36*
X03801Y03512D02*
X03776D01*
Y03488D01*
X03801D01*
Y03512D01*
D02*
G37*
G36*
X03850Y03486D02*
X03819D01*
Y03463D01*
X03850D01*
Y03486D01*
D02*
G37*
G36*
X03581Y03471D02*
X03560D01*
Y03450D01*
X03562Y03450D01*
X03568Y03453D01*
X03574Y03457D01*
X03578Y03463D01*
X03580Y03469D01*
X03581Y03471D01*
D02*
G37*
G36*
X03890Y03486D02*
X03860D01*
Y03463D01*
X03890D01*
Y03486D01*
D02*
G37*
G36*
X03560Y03501D02*
Y03481D01*
X03581D01*
X03580Y03482D01*
X03578Y03489D01*
X03574Y03494D01*
X03568Y03498D01*
X03562Y03501D01*
X03560Y03501D01*
D02*
G37*
G36*
X03485Y03503D02*
X03454D01*
Y03481D01*
X03485D01*
Y03503D01*
D02*
G37*
G36*
X02517Y03083D02*
X02495D01*
Y03060D01*
X02517D01*
Y03083D01*
D02*
G37*
G36*
X02485D02*
X02462D01*
Y03060D01*
X02485D01*
Y03083D01*
D02*
G37*
G36*
X02400Y03100D02*
X02375D01*
Y03076D01*
X02400D01*
Y03100D01*
D02*
G37*
G36*
X02497Y03135D02*
X02468D01*
Y03118D01*
X02497D01*
Y03135D01*
D02*
G37*
G36*
X02435Y03100D02*
X02410D01*
Y03076D01*
X02435D01*
Y03100D01*
D02*
G37*
G36*
X02446Y03025D02*
X02425D01*
Y03004D01*
X02427Y03005D01*
X02433Y03007D01*
X02439Y03011D01*
X02443Y03017D01*
X02445Y03023D01*
X02446Y03025D01*
D02*
G37*
G36*
X02415D02*
X02394D01*
X02395Y03023D01*
X02397Y03017D01*
X02401Y03011D01*
X02407Y03007D01*
X02413Y03005D01*
X02415Y03004D01*
Y03025D01*
D02*
G37*
G36*
X00590Y04012D02*
Y03895D01*
X00707D01*
X00706Y03909D01*
X00702Y03928D01*
X00694Y03946D01*
X00684Y03962D01*
X00672Y03977D01*
X00657Y03989D01*
X00641Y03999D01*
X00623Y04007D01*
X00604Y04011D01*
X00590Y04012D01*
D02*
G37*
G36*
X02425Y03056D02*
Y03035D01*
X02446D01*
X02445Y03037D01*
X02443Y03043D01*
X02439Y03049D01*
X02433Y03053D01*
X02427Y03055D01*
X02425Y03056D01*
D02*
G37*
G36*
X02415D02*
X02413Y03055D01*
X02407Y03053D01*
X02401Y03049D01*
X02397Y03043D01*
X02395Y03037D01*
X02394Y03035D01*
X02415D01*
Y03056D01*
D02*
G37*
G36*
X00740Y03257D02*
X00687D01*
Y03205D01*
X00740D01*
Y03257D01*
D02*
G37*
G36*
X01271Y03198D02*
X01250D01*
Y03177D01*
X01252Y03178D01*
X01258Y03180D01*
X01264Y03184D01*
X01268Y03190D01*
X01270Y03196D01*
X01271Y03198D01*
D02*
G37*
G36*
X00803Y03257D02*
X00750D01*
Y03205D01*
X00803D01*
Y03257D01*
D02*
G37*
G36*
X01153D02*
X01100D01*
Y03205D01*
X01153D01*
Y03257D01*
D02*
G37*
G36*
X01090D02*
X01037D01*
Y03205D01*
X01090D01*
Y03257D01*
D02*
G37*
G36*
X00803Y03195D02*
X00750D01*
Y03143D01*
X00803D01*
Y03195D01*
D02*
G37*
G36*
X00740D02*
X00687D01*
Y03143D01*
X00740D01*
Y03195D01*
D02*
G37*
G36*
X01090D02*
X01037D01*
Y03143D01*
X01090D01*
Y03195D01*
D02*
G37*
G36*
X01240Y03198D02*
X01219D01*
X01220Y03196D01*
X01222Y03190D01*
X01226Y03184D01*
X01232Y03180D01*
X01238Y03178D01*
X01240Y03177D01*
Y03198D01*
D02*
G37*
G36*
X01153Y03195D02*
X01100D01*
Y03143D01*
X01153D01*
Y03195D01*
D02*
G37*
G36*
X03890Y03518D02*
X03860D01*
Y03496D01*
X03890D01*
Y03518D01*
D02*
G37*
G36*
X03278Y03785D02*
X03255D01*
Y03763D01*
X03278D01*
Y03785D01*
D02*
G37*
G36*
X02538Y03703D02*
X02515D01*
Y03680D01*
X02538D01*
Y03703D01*
D02*
G37*
G36*
X04400Y03885D02*
X04283D01*
X04284Y03871D01*
X04288Y03852D01*
X04296Y03834D01*
X04306Y03818D01*
X04318Y03803D01*
X04333Y03791D01*
X04349Y03781D01*
X04367Y03773D01*
X04386Y03769D01*
X04400Y03768D01*
Y03885D01*
D02*
G37*
G36*
X00580Y03885D02*
X00463D01*
X00464Y03871D01*
X00468Y03852D01*
X00476Y03834D01*
X00486Y03818D01*
X00498Y03803D01*
X00513Y03791D01*
X00529Y03781D01*
X00547Y03773D01*
X00566Y03769D01*
X00580Y03768D01*
Y03885D01*
D02*
G37*
G36*
X04527Y03885D02*
X04410D01*
Y03768D01*
X04424Y03769D01*
X04443Y03773D01*
X04461Y03781D01*
X04477Y03791D01*
X04492Y03803D01*
X04504Y03818D01*
X04514Y03834D01*
X04522Y03852D01*
X04526Y03871D01*
X04527Y03885D01*
D02*
G37*
G36*
X03600Y03863D02*
X03585Y03861D01*
X03571Y03856D01*
X03559Y03846D01*
X03550Y03834D01*
X03545Y03820D01*
X03543Y03805D01*
X03545Y03790D01*
X03550Y03776D01*
X03557Y03767D01*
X03555Y03763D01*
X03543D01*
Y03648D01*
X03658D01*
Y03763D01*
X03646D01*
X03644Y03767D01*
X03651Y03776D01*
X03656Y03790D01*
X03658Y03805D01*
X03656Y03820D01*
X03651Y03834D01*
X03641Y03846D01*
X03629Y03856D01*
X03615Y03861D01*
X03600Y03863D01*
D02*
G37*
G36*
X02538Y03670D02*
X02515D01*
Y03647D01*
X02538D01*
Y03670D01*
D02*
G37*
G36*
X02630Y03696D02*
X02628Y03695D01*
X02622Y03693D01*
X02616Y03689D01*
X02612Y03683D01*
X02610Y03677D01*
X02609Y03675D01*
X02630D01*
Y03696D01*
D02*
G37*
G36*
X02505Y03703D02*
X02482D01*
Y03680D01*
X02505D01*
Y03703D01*
D02*
G37*
G36*
X02640Y03696D02*
Y03675D01*
X02661D01*
X02660Y03677D01*
X02658Y03683D01*
X02654Y03689D01*
X02648Y03693D01*
X02642Y03695D01*
X02640Y03696D01*
D02*
G37*
G36*
X01480Y03919D02*
Y03885D01*
X01514D01*
X01514Y03890D01*
X01510Y03900D01*
X01503Y03908D01*
X01495Y03915D01*
X01485Y03919D01*
X01480Y03919D01*
D02*
G37*
G36*
X01470D02*
X01465Y03919D01*
X01455Y03915D01*
X01447Y03908D01*
X01440Y03900D01*
X01436Y03890D01*
X01436Y03885D01*
X01470D01*
Y03919D01*
D02*
G37*
G36*
X04400Y04012D02*
X04386Y04011D01*
X04367Y04007D01*
X04349Y03999D01*
X04333Y03989D01*
X04318Y03977D01*
X04306Y03962D01*
X04296Y03946D01*
X04288Y03928D01*
X04284Y03909D01*
X04283Y03895D01*
X04400D01*
Y04012D01*
D02*
G37*
G36*
X00580Y04012D02*
X00566Y04011D01*
X00547Y04007D01*
X00529Y03999D01*
X00513Y03989D01*
X00498Y03977D01*
X00486Y03962D01*
X00476Y03946D01*
X00468Y03928D01*
X00464Y03909D01*
X00463Y03895D01*
X00580D01*
Y04012D01*
D02*
G37*
G36*
X04410Y04012D02*
Y03895D01*
X04527D01*
X04526Y03909D01*
X04522Y03928D01*
X04514Y03946D01*
X04504Y03962D01*
X04492Y03977D01*
X04477Y03989D01*
X04461Y03999D01*
X04443Y04007D01*
X04424Y04011D01*
X04410Y04012D01*
D02*
G37*
G36*
X01931Y03851D02*
X01923Y03850D01*
X01912Y03846D01*
X01902Y03838D01*
X01894Y03828D01*
X01890Y03817D01*
X01889Y03809D01*
X01931D01*
Y03851D01*
D02*
G37*
G36*
X00707Y03885D02*
X00590D01*
Y03768D01*
X00604Y03769D01*
X00623Y03773D01*
X00641Y03781D01*
X00657Y03791D01*
X00672Y03803D01*
X00684Y03818D01*
X00694Y03834D01*
X00702Y03852D01*
X00706Y03871D01*
X00707Y03885D01*
D02*
G37*
G36*
X01941Y03851D02*
Y03809D01*
X01983D01*
X01982Y03817D01*
X01977Y03828D01*
X01970Y03838D01*
X01960Y03846D01*
X01948Y03850D01*
X01941Y03851D01*
D02*
G37*
G36*
X01514Y03875D02*
X01480D01*
Y03841D01*
X01485Y03841D01*
X01495Y03845D01*
X01503Y03852D01*
X01510Y03860D01*
X01514Y03870D01*
X01514Y03875D01*
D02*
G37*
G36*
X01470D02*
X01436D01*
X01436Y03870D01*
X01440Y03860D01*
X01447Y03852D01*
X01455Y03845D01*
X01465Y03841D01*
X01470Y03841D01*
Y03875D01*
D02*
G37*
G36*
X02629Y03560D02*
X02605D01*
Y03536D01*
X02629D01*
Y03560D01*
D02*
G37*
G36*
X02728Y03538D02*
Y03517D01*
X02748D01*
X02748Y03519D01*
X02745Y03525D01*
X02741Y03531D01*
X02736Y03535D01*
X02729Y03538D01*
X02728Y03538D01*
D02*
G37*
G36*
X02664Y03560D02*
X02639D01*
Y03536D01*
X02664D01*
Y03560D01*
D02*
G37*
G36*
X04165Y03577D02*
X04145D01*
Y03557D01*
X04146Y03557D01*
X04153Y03560D01*
X04158Y03564D01*
X04162Y03569D01*
X04165Y03576D01*
X04165Y03577D01*
D02*
G37*
G36*
X04135D02*
X04114D01*
X04114Y03576D01*
X04117Y03569D01*
X04121Y03564D01*
X04126Y03560D01*
X04133Y03557D01*
X04135Y03557D01*
Y03577D01*
D02*
G37*
G36*
X03697Y03555D02*
X03645D01*
Y03504D01*
X03697D01*
Y03555D01*
D02*
G37*
G36*
X03635D02*
X03582D01*
Y03504D01*
X03635D01*
Y03555D01*
D02*
G37*
G36*
X03985D02*
X03932D01*
Y03504D01*
X03985D01*
Y03555D01*
D02*
G37*
G36*
X02718Y03538D02*
X02716Y03538D01*
X02710Y03535D01*
X02704Y03531D01*
X02700Y03525D01*
X02697Y03519D01*
X02697Y03517D01*
X02718D01*
Y03538D01*
D02*
G37*
G36*
X04047Y03555D02*
X03995D01*
Y03504D01*
X04047D01*
Y03555D01*
D02*
G37*
G36*
X02630Y03610D02*
X02606D01*
Y03586D01*
X02630D01*
Y03610D01*
D02*
G37*
G36*
X02417Y03625D02*
X02375D01*
Y03583D01*
X02382Y03584D01*
X02394Y03589D01*
X02404Y03596D01*
X02411Y03606D01*
X02416Y03618D01*
X02417Y03625D01*
D02*
G37*
G36*
X04135Y03608D02*
X04133Y03608D01*
X04126Y03605D01*
X04121Y03601D01*
X04117Y03596D01*
X04114Y03589D01*
X04114Y03587D01*
X04135D01*
Y03608D01*
D02*
G37*
G36*
X02505Y03670D02*
X02482D01*
Y03647D01*
X02505D01*
Y03670D01*
D02*
G37*
G36*
X04145Y03608D02*
Y03587D01*
X04165D01*
X04165Y03589D01*
X04162Y03596D01*
X04158Y03601D01*
X04153Y03605D01*
X04146Y03608D01*
X04145Y03608D01*
D02*
G37*
G36*
X03697Y03617D02*
X03645D01*
Y03565D01*
X03697D01*
Y03617D01*
D02*
G37*
G36*
X03635D02*
X03582D01*
Y03565D01*
X03635D01*
Y03617D01*
D02*
G37*
G36*
X03985D02*
X03932D01*
Y03565D01*
X03985D01*
Y03617D01*
D02*
G37*
G36*
X02365Y03625D02*
X02323D01*
X02324Y03618D01*
X02329Y03606D01*
X02336Y03596D01*
X02346Y03589D01*
X02358Y03584D01*
X02365Y03583D01*
Y03625D01*
D02*
G37*
G36*
X04047Y03617D02*
X03995D01*
Y03565D01*
X04047D01*
Y03617D01*
D02*
G37*
G36*
X01340Y02235D02*
X01336Y02234D01*
X01327Y02231D01*
X01320Y02225D01*
X01314Y02218D01*
X01311Y02209D01*
X01310Y02205D01*
X01340D01*
Y02235D01*
D02*
G37*
G36*
X01380Y02195D02*
X01350D01*
Y02165D01*
X01354Y02166D01*
X01363Y02169D01*
X01370Y02175D01*
X01376Y02182D01*
X01379Y02191D01*
X01380Y02195D01*
D02*
G37*
G36*
X01350Y02235D02*
Y02205D01*
X01380D01*
X01379Y02209D01*
X01376Y02218D01*
X01370Y02225D01*
X01363Y02231D01*
X01354Y02234D01*
X01350Y02235D01*
D02*
G37*
G36*
X01235Y02443D02*
X01097D01*
Y02423D01*
X01096Y02423D01*
X01087D01*
Y02422D01*
X01087Y02422D01*
X01077Y02418D01*
X01068Y02411D01*
X01010Y02353D01*
X01004Y02345D01*
X01000Y02335D01*
X00998Y02324D01*
Y02263D01*
X00992Y02259D01*
X00988Y02256D01*
X00983Y02258D01*
Y02443D01*
X00799D01*
Y02229D01*
X00952D01*
X00954Y02224D01*
X00913Y02182D01*
X00901Y02168D01*
X00892Y02152D01*
X00887Y02154D01*
Y02182D01*
X00773D01*
Y02068D01*
X00785D01*
X00787Y02063D01*
X00780Y02054D01*
X00774Y02040D01*
X00772Y02025D01*
X00774Y02010D01*
X00780Y01996D01*
X00789Y01984D01*
X00801Y01975D01*
X00815Y01969D01*
X00830Y01967D01*
X00845Y01969D01*
X00859Y01975D01*
X00871Y01984D01*
X00880Y01996D01*
X00885Y01994D01*
Y01628D01*
X00773D01*
Y01513D01*
X00785D01*
X00787Y01508D01*
X00780Y01499D01*
X00774Y01485D01*
X00772Y01470D01*
X00774Y01455D01*
X00780Y01441D01*
X00789Y01429D01*
X00801Y01420D01*
X00815Y01414D01*
X00830Y01412D01*
X00845Y01414D01*
X00859Y01420D01*
X00871Y01429D01*
X00880Y01441D01*
X00885Y01439D01*
Y01400D01*
Y01078D01*
X00773D01*
Y00963D01*
X00785D01*
X00787Y00958D01*
X00780Y00949D01*
X00774Y00935D01*
X00772Y00920D01*
X00774Y00905D01*
X00780Y00891D01*
X00789Y00879D01*
X00801Y00870D01*
X00815Y00864D01*
X00830Y00862D01*
X00845Y00864D01*
X00859Y00870D01*
X00871Y00879D01*
X00880Y00891D01*
X00885Y00889D01*
Y00528D01*
X00885D01*
X00882D01*
X00881Y00528D01*
X00881Y00528D01*
Y00528D01*
X00768D01*
Y00413D01*
X00780D01*
X00782Y00408D01*
X00775Y00399D01*
X00769Y00385D01*
X00767Y00370D01*
X00769Y00355D01*
X00775Y00341D01*
X00784Y00329D01*
X00796Y00320D01*
X00810Y00314D01*
X00825Y00312D01*
X00840Y00314D01*
X00854Y00320D01*
X00866Y00329D01*
X00875Y00341D01*
X00880Y00352D01*
X00885Y00351D01*
Y00290D01*
X00886Y00271D01*
X00892Y00253D01*
X00901Y00237D01*
X00913Y00222D01*
X00927Y00211D01*
X00943Y00202D01*
X00961Y00196D01*
X00980Y00195D01*
X00999Y00196D01*
X01017Y00202D01*
X01033Y00211D01*
X01048Y00222D01*
X01059Y00237D01*
X01068Y00253D01*
X01074Y00271D01*
X01075Y00290D01*
Y00370D01*
X01075Y00370D01*
X01075Y00370D01*
Y00370D01*
Y01400D01*
Y01787D01*
X01119D01*
Y01923D01*
X01075D01*
Y02074D01*
X01080Y02075D01*
X01080Y02075D01*
X01084Y02067D01*
X01089Y02059D01*
X01097Y02054D01*
X01106Y02050D01*
X01115Y02049D01*
X01124Y02050D01*
X01133Y02054D01*
X01135Y02055D01*
X01152D01*
Y02047D01*
X01227D01*
Y02123D01*
X01152D01*
Y02115D01*
X01135D01*
X01133Y02116D01*
X01124Y02120D01*
X01124Y02120D01*
X01123Y02125D01*
X01124Y02127D01*
X01133Y02143D01*
X01139Y02161D01*
X01140Y02180D01*
X01139Y02199D01*
X01133Y02217D01*
X01124Y02233D01*
X01112Y02247D01*
X01098Y02259D01*
X01082Y02268D01*
Y02303D01*
X01086Y02306D01*
X01087Y02305D01*
Y02273D01*
X01245D01*
Y02279D01*
X01252D01*
Y02270D01*
X01320D01*
Y02269D01*
X01400D01*
Y02270D01*
X01458D01*
Y02346D01*
X01400D01*
X01400Y02347D01*
X01400D01*
Y02347D01*
X01403Y02351D01*
X01415D01*
Y02379D01*
Y02406D01*
X01393D01*
X01393Y02406D01*
Y02406D01*
X01392Y02406D01*
D01*
X01390Y02407D01*
X01389Y02407D01*
X01389Y02407D01*
Y02407D01*
X01365D01*
Y02379D01*
X01355D01*
Y02407D01*
X01331D01*
X01331Y02407D01*
Y02407D01*
X01330Y02407D01*
X01328Y02410D01*
Y02416D01*
X01289D01*
X01287Y02417D01*
X01245D01*
Y02423D01*
X01235D01*
Y02443D01*
D02*
G37*
G36*
X00789D02*
X00605D01*
Y02229D01*
X00789D01*
Y02443D01*
D02*
G37*
G36*
X01340Y02195D02*
X01310D01*
X01311Y02191D01*
X01314Y02182D01*
X01320Y02175D01*
X01327Y02169D01*
X01336Y02166D01*
X01340Y02165D01*
Y02195D01*
D02*
G37*
G36*
X02210Y02166D02*
Y02145D01*
X02231D01*
X02230Y02147D01*
X02228Y02153D01*
X02224Y02159D01*
X02218Y02163D01*
X02212Y02165D01*
X02210Y02166D01*
D02*
G37*
G36*
X02200D02*
X02198Y02165D01*
X02192Y02163D01*
X02186Y02159D01*
X02182Y02153D01*
X02180Y02147D01*
X02179Y02145D01*
X02200D01*
Y02166D01*
D02*
G37*
G36*
X01400Y02185D02*
X01396Y02184D01*
X01387Y02181D01*
X01380Y02175D01*
X01374Y02168D01*
X01371Y02159D01*
X01370Y02155D01*
X01400D01*
Y02185D01*
D02*
G37*
G36*
X03192Y02167D02*
X03081D01*
Y02158D01*
X03080Y02157D01*
X03078Y02157D01*
X03078Y02157D01*
Y02157D01*
X03040D01*
Y02108D01*
Y02058D01*
X03078D01*
X03078Y02058D01*
Y02058D01*
X03080Y02058D01*
X03081Y02058D01*
Y02050D01*
X03076Y02044D01*
X03073Y02035D01*
X03071Y02025D01*
X03073Y02016D01*
X03076Y02007D01*
X03080Y02002D01*
X03080Y02002D01*
X03080D01*
X03080Y02002D01*
Y01992D01*
X03040D01*
Y01942D01*
Y01893D01*
X03080D01*
Y01883D01*
X03190D01*
Y02002D01*
X03167D01*
Y02026D01*
Y02048D01*
X03192D01*
Y02167D01*
D02*
G37*
G36*
X01410Y02185D02*
Y02155D01*
X01440D01*
X01439Y02159D01*
X01436Y02168D01*
X01430Y02175D01*
X01423Y02181D01*
X01414Y02184D01*
X01410Y02185D01*
D02*
G37*
G36*
X01448Y02406D02*
X01425D01*
Y02384D01*
X01448D01*
Y02406D01*
D02*
G37*
G36*
Y02374D02*
X01425D01*
Y02351D01*
X01448D01*
Y02374D01*
D02*
G37*
G36*
X01530Y02415D02*
X01509D01*
X01510Y02413D01*
X01512Y02407D01*
X01516Y02401D01*
X01522Y02397D01*
X01528Y02395D01*
X01530Y02394D01*
Y02415D01*
D02*
G37*
G36*
X02110Y02435D02*
X02087D01*
Y02412D01*
X02110D01*
Y02435D01*
D02*
G37*
G36*
X01561Y02415D02*
X01540D01*
Y02394D01*
X01542Y02395D01*
X01548Y02397D01*
X01554Y02401D01*
X01558Y02407D01*
X01560Y02413D01*
X01561Y02415D01*
D02*
G37*
G36*
X01598Y02382D02*
X01545D01*
Y02330D01*
X01598D01*
Y02382D01*
D02*
G37*
G36*
X04195Y02281D02*
Y02260D01*
X04216D01*
X04215Y02262D01*
X04213Y02268D01*
X04209Y02274D01*
X04203Y02278D01*
X04197Y02280D01*
X04195Y02281D01*
D02*
G37*
G36*
X04185D02*
X04183Y02280D01*
X04177Y02278D01*
X04171Y02274D01*
X04167Y02268D01*
X04165Y02262D01*
X04164Y02260D01*
X04185D01*
Y02281D01*
D02*
G37*
G36*
X01535Y02320D02*
X01482D01*
Y02269D01*
X01535D01*
Y02320D01*
D02*
G37*
G36*
Y02382D02*
X01482D01*
Y02330D01*
X01535D01*
Y02382D01*
D02*
G37*
G36*
X01598Y02320D02*
X01545D01*
Y02269D01*
X01598D01*
Y02320D01*
D02*
G37*
G36*
X03030Y01992D02*
X02990D01*
Y01947D01*
X03030D01*
Y01992D01*
D02*
G37*
G36*
X02979D02*
X02938D01*
Y01947D01*
X02979D01*
Y01992D01*
D02*
G37*
G36*
X02923Y02020D02*
X02902D01*
X02902Y02019D01*
X02905Y02012D01*
X02909Y02007D01*
X02915Y02003D01*
X02921Y02000D01*
X02923Y02000D01*
Y02020D01*
D02*
G37*
G36*
X01255Y02080D02*
X01233D01*
Y02057D01*
X01255D01*
Y02080D01*
D02*
G37*
G36*
X02953Y02020D02*
X02933D01*
Y02000D01*
X02934Y02000D01*
X02941Y02003D01*
X02946Y02007D01*
X02950Y02012D01*
X02953Y02019D01*
X02953Y02020D01*
D02*
G37*
G36*
X02928Y01992D02*
X02888D01*
Y01947D01*
X02928D01*
Y01992D01*
D02*
G37*
G36*
X03696Y01939D02*
X03673D01*
Y01915D01*
X03696D01*
Y01939D01*
D02*
G37*
G36*
X03030Y01937D02*
X02990D01*
Y01893D01*
X03030D01*
Y01937D01*
D02*
G37*
G36*
X03635Y01936D02*
X03633Y01935D01*
X03627Y01933D01*
X03621Y01929D01*
X03617Y01923D01*
X03615Y01917D01*
X03614Y01915D01*
X03635D01*
Y01936D01*
D02*
G37*
G36*
X04439Y01959D02*
X04416D01*
Y01934D01*
X04439D01*
Y01959D01*
D02*
G37*
G36*
X03645Y01936D02*
Y01915D01*
X03666D01*
X03665Y01917D01*
X03663Y01923D01*
X03659Y01929D01*
X03653Y01933D01*
X03647Y01935D01*
X03645Y01936D01*
D02*
G37*
G36*
X01400Y02145D02*
X01370D01*
X01371Y02141D01*
X01374Y02132D01*
X01380Y02125D01*
X01387Y02119D01*
X01396Y02116D01*
X01400Y02115D01*
Y02145D01*
D02*
G37*
G36*
X02231Y02135D02*
X02210D01*
Y02114D01*
X02212Y02115D01*
X02218Y02117D01*
X02224Y02121D01*
X02228Y02127D01*
X02230Y02133D01*
X02231Y02135D01*
D02*
G37*
G36*
X01440Y02145D02*
X01410D01*
Y02115D01*
X01414Y02116D01*
X01423Y02119D01*
X01430Y02125D01*
X01436Y02132D01*
X01439Y02141D01*
X01440Y02145D01*
D02*
G37*
G36*
X00665Y02166D02*
Y02145D01*
X00686D01*
X00685Y02147D01*
X00683Y02153D01*
X00679Y02159D01*
X00673Y02163D01*
X00667Y02165D01*
X00665Y02166D01*
D02*
G37*
G36*
X00655D02*
X00653Y02165D01*
X00647Y02163D01*
X00641Y02159D01*
X00637Y02153D01*
X00635Y02147D01*
X00634Y02145D01*
X00655D01*
Y02166D01*
D02*
G37*
G36*
X02200Y02135D02*
X02179D01*
X02180Y02133D01*
X02182Y02127D01*
X02186Y02121D01*
X02192Y02117D01*
X02198Y02115D01*
X02200Y02114D01*
Y02135D01*
D02*
G37*
G36*
X01255Y02113D02*
X01233D01*
Y02090D01*
X01255D01*
Y02113D01*
D02*
G37*
G36*
X01288Y02080D02*
X01265D01*
Y02057D01*
X01288D01*
Y02080D01*
D02*
G37*
G36*
Y02113D02*
X01265D01*
Y02090D01*
X01288D01*
Y02113D01*
D02*
G37*
G36*
X00686Y02135D02*
X00665D01*
Y02114D01*
X00667Y02115D01*
X00673Y02117D01*
X00679Y02121D01*
X00683Y02127D01*
X00685Y02133D01*
X00686Y02135D01*
D02*
G37*
G36*
X00655D02*
X00634D01*
X00635Y02133D01*
X00637Y02127D01*
X00641Y02121D01*
X00647Y02117D01*
X00653Y02115D01*
X00655Y02114D01*
Y02135D01*
D02*
G37*
G36*
X04058Y02749D02*
X04037D01*
Y02729D01*
X04039Y02729D01*
X04045Y02732D01*
X04051Y02736D01*
X04055Y02741D01*
X04057Y02748D01*
X04058Y02749D01*
D02*
G37*
G36*
X04027D02*
X04007D01*
X04007Y02748D01*
X04009Y02741D01*
X04014Y02736D01*
X04019Y02732D01*
X04025Y02729D01*
X04027Y02729D01*
Y02749D01*
D02*
G37*
G36*
X02043Y02770D02*
X02020D01*
Y02747D01*
X02043D01*
Y02770D01*
D02*
G37*
G36*
X02010D02*
X01988D01*
Y02747D01*
X02010D01*
Y02770D01*
D02*
G37*
G36*
X02927Y02723D02*
X02904D01*
Y02700D01*
X02927D01*
Y02723D01*
D02*
G37*
G36*
X03911Y02811D02*
X03804D01*
Y02727D01*
X03823D01*
Y02715D01*
X03823Y02713D01*
X03821Y02704D01*
X03823Y02694D01*
X03826Y02686D01*
X03832Y02678D01*
X03840Y02672D01*
X03841Y02672D01*
X03854Y02659D01*
X03861Y02654D01*
X03869Y02650D01*
X03878Y02649D01*
X03893D01*
Y02645D01*
X03972D01*
Y02722D01*
X03962D01*
Y02726D01*
X03962D01*
Y02749D01*
X03933D01*
Y02754D01*
X03928D01*
Y02783D01*
X03911D01*
Y02811D01*
D02*
G37*
G36*
X02869Y02585D02*
X02845D01*
Y02561D01*
X02869D01*
Y02585D01*
D02*
G37*
G36*
X02840Y02723D02*
X02817D01*
Y02700D01*
X02840D01*
Y02723D01*
D02*
G37*
G36*
X02927Y02690D02*
X02904D01*
Y02668D01*
X02927D01*
Y02690D01*
D02*
G37*
G36*
X02043Y02870D02*
X01988D01*
Y02853D01*
X01988D01*
Y02830D01*
X02043D01*
Y02847D01*
X02043D01*
Y02870D01*
D02*
G37*
G36*
X02739Y02835D02*
X02715D01*
Y02811D01*
X02739D01*
Y02835D01*
D02*
G37*
G36*
X03191Y02960D02*
X03170D01*
Y02939D01*
X03172Y02940D01*
X03178Y02942D01*
X03184Y02946D01*
X03188Y02952D01*
X03190Y02958D01*
X03191Y02960D01*
D02*
G37*
G36*
X03160D02*
X03139D01*
X03140Y02958D01*
X03142Y02952D01*
X03146Y02946D01*
X03152Y02942D01*
X03158Y02940D01*
X03160Y02939D01*
Y02960D01*
D02*
G37*
G36*
X02043Y02820D02*
X01988D01*
Y02803D01*
X01988D01*
Y02780D01*
X02043D01*
Y02797D01*
X02043D01*
Y02820D01*
D02*
G37*
G36*
X04027Y02780D02*
X04025Y02780D01*
X04019Y02777D01*
X04014Y02773D01*
X04009Y02768D01*
X04007Y02761D01*
X04007Y02759D01*
X04027D01*
Y02780D01*
D02*
G37*
G36*
X03962Y02783D02*
X03938D01*
Y02759D01*
X03962D01*
Y02783D01*
D02*
G37*
G36*
X02509Y02785D02*
X02488D01*
X02488Y02784D01*
X02491Y02777D01*
X02495Y02772D01*
X02500Y02768D01*
X02507Y02765D01*
X02509Y02765D01*
Y02785D01*
D02*
G37*
G36*
X04037Y02780D02*
Y02759D01*
X04058D01*
X04057Y02761D01*
X04055Y02768D01*
X04051Y02773D01*
X04045Y02777D01*
X04039Y02780D01*
X04037Y02780D01*
D02*
G37*
G36*
X01540Y02446D02*
Y02425D01*
X01561D01*
X01560Y02427D01*
X01558Y02433D01*
X01554Y02439D01*
X01548Y02443D01*
X01542Y02445D01*
X01540Y02446D01*
D02*
G37*
G36*
X01025Y02445D02*
X00995D01*
X00996Y02441D01*
X00999Y02432D01*
X01005Y02425D01*
X01012Y02419D01*
X01021Y02416D01*
X01025Y02415D01*
Y02445D01*
D02*
G37*
G36*
X02143Y02467D02*
X02120D01*
Y02445D01*
X02143D01*
Y02467D01*
D02*
G37*
G36*
X02110D02*
X02087D01*
Y02445D01*
X02110D01*
Y02467D01*
D02*
G37*
G36*
X01530Y02446D02*
X01528Y02445D01*
X01522Y02443D01*
X01516Y02439D01*
X01512Y02433D01*
X01510Y02427D01*
X01509Y02425D01*
X01530D01*
Y02446D01*
D02*
G37*
G36*
X01065Y02445D02*
X01035D01*
Y02415D01*
X01039Y02416D01*
X01048Y02419D01*
X01055Y02425D01*
X01061Y02432D01*
X01064Y02441D01*
X01065Y02445D01*
D02*
G37*
G36*
X04030Y02440D02*
X04009D01*
X04010Y02438D01*
X04012Y02432D01*
X04016Y02426D01*
X04022Y02422D01*
X04028Y02420D01*
X04030Y02419D01*
Y02440D01*
D02*
G37*
G36*
X02765Y02460D02*
X02726D01*
X02727Y02453D01*
X02731Y02443D01*
X02738Y02433D01*
X02748Y02426D01*
X02758Y02422D01*
X02765Y02421D01*
Y02460D01*
D02*
G37*
G36*
X04061Y02440D02*
X04040D01*
Y02419D01*
X04042Y02420D01*
X04048Y02422D01*
X04054Y02426D01*
X04058Y02432D01*
X04060Y02438D01*
X04061Y02440D01*
D02*
G37*
G36*
X01035Y02485D02*
Y02455D01*
X01065D01*
X01064Y02459D01*
X01061Y02468D01*
X01055Y02475D01*
X01048Y02481D01*
X01039Y02484D01*
X01035Y02485D01*
D02*
G37*
G36*
X01025D02*
X01021Y02484D01*
X01012Y02481D01*
X01005Y02475D01*
X00999Y02468D01*
X00996Y02459D01*
X00995Y02455D01*
X01025D01*
Y02485D01*
D02*
G37*
G36*
X02812Y02733D02*
X02736D01*
Y02662D01*
X02735Y02661D01*
X02732Y02652D01*
X02730Y02643D01*
X02732Y02634D01*
X02732Y02633D01*
X02730Y02630D01*
X02730D01*
Y02551D01*
X02808D01*
Y02561D01*
X02811D01*
Y02561D01*
X02835D01*
Y02590D01*
X02840D01*
Y02595D01*
X02869D01*
Y02620D01*
X02847D01*
X02845Y02625D01*
X02848Y02627D01*
X02852Y02632D01*
X02855Y02639D01*
X02855Y02640D01*
X02829D01*
Y02650D01*
X02855D01*
X02855Y02652D01*
X02852Y02659D01*
X02849Y02663D01*
X02851Y02668D01*
X02894D01*
Y02695D01*
Y02723D01*
X02850D01*
Y02695D01*
X02845D01*
Y02690D01*
X02817D01*
Y02672D01*
X02813Y02670D01*
X02812Y02670D01*
Y02733D01*
D02*
G37*
G36*
X02765Y02509D02*
X02758Y02508D01*
X02748Y02504D01*
X02738Y02497D01*
X02731Y02487D01*
X02727Y02477D01*
X02726Y02470D01*
X02765D01*
Y02509D01*
D02*
G37*
G36*
X00983Y02668D02*
X00799D01*
Y02453D01*
X00983D01*
Y02668D01*
D02*
G37*
G36*
X04030Y02471D02*
X04028Y02470D01*
X04022Y02468D01*
X04016Y02464D01*
X04012Y02458D01*
X04010Y02452D01*
X04009Y02450D01*
X04030D01*
Y02471D01*
D02*
G37*
G36*
X03965Y02474D02*
X03941D01*
Y02450D01*
X03965D01*
Y02474D01*
D02*
G37*
G36*
X00789Y02668D02*
X00605D01*
Y02453D01*
X00789D01*
Y02668D01*
D02*
G37*
G36*
X04040Y02471D02*
Y02450D01*
X04061D01*
X04060Y02452D01*
X04058Y02458D01*
X04054Y02464D01*
X04048Y02468D01*
X04042Y02470D01*
X04040Y02471D01*
D02*
G37*
%LPD*%
G36*
X03547Y00920D02*
X03549Y00906D01*
X03531D01*
X03527Y00918D01*
X03519Y00920D01*
X03511Y00916D01*
Y00906D01*
X03517Y00898D01*
X03541Y00876D01*
X03551Y00862D01*
Y00850D01*
X03493D01*
Y00866D01*
X03523Y00868D01*
X03493Y00898D01*
Y00922D01*
X03507Y00934D01*
X03531D01*
X03547Y00920D01*
D02*
G37*
G36*
X03893Y00870D02*
X03873Y00924D01*
X03849Y00870D01*
X03819Y00956D01*
X03837D01*
X03849Y00916D01*
X03865Y00956D01*
X03879D01*
X03893Y00918D01*
X03909Y00956D01*
X03927D01*
X03893Y00870D01*
D02*
G37*
G36*
X03817Y00916D02*
X03798Y00896D01*
X03777Y00916D01*
X03799Y00934D01*
X03817Y00916D01*
D02*
G37*
G36*
X03623Y00938D02*
X03601Y00936D01*
Y00870D01*
X03583D01*
Y00936D01*
X03559Y00938D01*
X03561Y00956D01*
X03623D01*
Y00938D01*
D02*
G37*
G36*
X04091Y01036D02*
X04135Y01022D01*
X04125Y00978D01*
X04293Y00922D01*
X04119Y00956D01*
X04107Y00912D01*
X04061Y00922D01*
X04005Y00756D01*
X04045Y00950D01*
X04093Y00940D01*
X04109Y01008D01*
X04039Y01024D01*
X04029Y00982D01*
X03837Y01042D01*
X04011Y01008D01*
X04025Y01052D01*
X04067Y01042D01*
X04127Y01206D01*
X04091Y01036D01*
D02*
G37*
G36*
X03695Y00870D02*
X03681D01*
X03665Y00908D01*
X03649Y00870D01*
X03633D01*
X03665Y00955D01*
X03695Y00870D01*
D02*
G37*
G36*
X03993D02*
X03975D01*
Y00894D01*
X03955Y00896D01*
X03943Y00904D01*
X03939Y00912D01*
X03937Y00920D01*
Y00930D01*
X03939Y00940D01*
X03947Y00950D01*
X03959Y00956D01*
X03993D01*
Y00870D01*
D02*
G37*
G36*
X03751Y00954D02*
X03765Y00940D01*
X03767Y00924D01*
X03759Y00912D01*
X03747Y00904D01*
X03741D01*
X03727Y00900D01*
X03723Y00894D01*
X03729Y00890D01*
X03747D01*
X03749Y00896D01*
X03769Y00894D01*
X03763Y00878D01*
X03748Y00872D01*
X03731Y00870D01*
X03715Y00876D01*
X03707Y00888D01*
Y00910D01*
X03721Y00918D01*
X03733Y00922D01*
X03747Y00926D01*
X03745Y00936D01*
X03731D01*
X03725Y00930D01*
X03709D01*
Y00940D01*
X03715Y00948D01*
X03731Y00956D01*
X03751Y00954D01*
D02*
G37*
%LPC*%
G36*
X03975Y00936D02*
X03959D01*
X03955Y00930D01*
X03953Y00920D01*
X03959Y00914D01*
X03963Y00912D01*
X03975D01*
Y00936D01*
D02*
G37*
%LPD*%
D10*
X01220Y00180D02*
D03*
Y00251D02*
D03*
X02945Y03505D02*
D03*
Y03435D02*
D03*
X02885Y03505D02*
D03*
Y03435D02*
D03*
X03105Y02675D02*
D03*
Y02745D02*
D03*
X02115Y02510D02*
D03*
Y02440D02*
D03*
X03030Y03845D02*
D03*
Y03775D02*
D03*
X01420Y02379D02*
D03*
Y02308D02*
D03*
X01290Y02379D02*
D03*
Y02308D02*
D03*
X03250Y03720D02*
D03*
Y03790D02*
D03*
X02675Y00380D02*
D03*
Y00450D02*
D03*
X02655Y00740D02*
D03*
Y00810D02*
D03*
X02725Y00380D02*
D03*
Y00450D02*
D03*
X03290Y02675D02*
D03*
Y02745D02*
D03*
X03227Y02675D02*
D03*
Y02745D02*
D03*
X03167Y02675D02*
D03*
Y02745D02*
D03*
X03045Y00750D02*
D03*
Y00680D02*
D03*
X02995D02*
D03*
Y00750D02*
D03*
X04090Y02020D02*
D03*
Y01949D02*
D03*
X04155Y02119D02*
D03*
Y02190D02*
D03*
X02684Y01873D02*
D03*
Y01944D02*
D03*
X02634Y01873D02*
D03*
Y01944D02*
D03*
X03812Y01625D02*
D03*
Y01554D02*
D03*
X03757D02*
D03*
Y01625D02*
D03*
X03647D02*
D03*
Y01554D02*
D03*
X03595Y01554D02*
D03*
Y01625D02*
D03*
X03867Y02114D02*
D03*
Y02185D02*
D03*
X03812D02*
D03*
Y02114D02*
D03*
X03702D02*
D03*
Y02185D02*
D03*
X03647D02*
D03*
Y02114D02*
D03*
X03190Y03205D02*
D03*
Y03275D02*
D03*
X03130Y03205D02*
D03*
Y03275D02*
D03*
X03065Y03205D02*
D03*
Y03275D02*
D03*
X02510Y03675D02*
D03*
Y03746D02*
D03*
X01920Y00450D02*
D03*
Y00380D02*
D03*
X01970Y00450D02*
D03*
Y00380D02*
D03*
X02290Y00680D02*
D03*
Y00750D02*
D03*
X02240D02*
D03*
Y00680D02*
D03*
X01900Y00810D02*
D03*
Y00740D02*
D03*
D11*
X02560Y03055D02*
D03*
X02490D02*
D03*
X01910Y01320D02*
D03*
X01840D02*
D03*
X02970Y02695D02*
D03*
X02899D02*
D03*
X02774D02*
D03*
X02845D02*
D03*
X02265Y02340D02*
D03*
X02195D02*
D03*
X02015Y02775D02*
D03*
X01945D02*
D03*
X02015Y02825D02*
D03*
X01945D02*
D03*
X02015Y02875D02*
D03*
X01945D02*
D03*
X01190Y02085D02*
D03*
X01260D02*
D03*
X01245Y01525D02*
D03*
X01315D02*
D03*
X02110Y00810D02*
D03*
X02180D02*
D03*
X02865D02*
D03*
X02935D02*
D03*
X01240Y00425D02*
D03*
X01310D02*
D03*
X04310Y02069D02*
D03*
X04381D02*
D03*
X04311Y02019D02*
D03*
X04382D02*
D03*
X04090Y02070D02*
D03*
X04020D02*
D03*
Y02120D02*
D03*
X04090D02*
D03*
X04020Y02170D02*
D03*
X04090D02*
D03*
X02015Y03477D02*
D03*
X01945D02*
D03*
X02015Y03427D02*
D03*
X01945D02*
D03*
X02015Y03377D02*
D03*
X01945D02*
D03*
X02015Y03327D02*
D03*
X01945D02*
D03*
X02015Y03277D02*
D03*
X01945D02*
D03*
X02015Y03227D02*
D03*
X01945D02*
D03*
X02015Y03177D02*
D03*
X01945D02*
D03*
X02015Y03127D02*
D03*
X01945D02*
D03*
X02015Y03077D02*
D03*
X01945D02*
D03*
X02015Y03027D02*
D03*
X01945D02*
D03*
X02015Y02977D02*
D03*
X01945D02*
D03*
X02015Y02925D02*
D03*
X01945D02*
D03*
X02715Y03291D02*
D03*
X02645D02*
D03*
X01315Y00975D02*
D03*
X01245D02*
D03*
D17*
X02567Y03177D02*
D03*
X02463Y03140D02*
D03*
X02567Y03103D02*
D03*
D18*
X01525Y00183D02*
D03*
Y00097D02*
D03*
X03855Y03404D02*
D03*
Y03491D02*
D03*
X03490Y03389D02*
D03*
Y03476D02*
D03*
X00960Y03341D02*
D03*
Y03255D02*
D03*
D19*
X02490Y03005D02*
D03*
X02560D02*
D03*
X02560Y03240D02*
D03*
X02490D02*
D03*
X02840Y02590D02*
D03*
X02769D02*
D03*
X02635Y03615D02*
D03*
X02705D02*
D03*
X03701Y01910D02*
D03*
X03772D02*
D03*
X02795Y00810D02*
D03*
X02725D02*
D03*
X02504Y02850D02*
D03*
X02433D02*
D03*
X02564Y02795D02*
D03*
X02635D02*
D03*
X02564Y02850D02*
D03*
X02635D02*
D03*
X02643Y03180D02*
D03*
X02714D02*
D03*
X02744Y02840D02*
D03*
X02815D02*
D03*
X03165Y01720D02*
D03*
X03235D02*
D03*
X02975D02*
D03*
X03045D02*
D03*
X04340Y01964D02*
D03*
X04411D02*
D03*
X02040Y00810D02*
D03*
X01970D02*
D03*
D22*
X02845Y03015D02*
D03*
X02715D02*
D03*
X03979Y01860D02*
D03*
X03849D02*
D03*
X02689Y02920D02*
D03*
X02819D02*
D03*
X04175Y01890D02*
D03*
X04305D02*
D03*
X01720Y02360D02*
D03*
X01850D02*
D03*
D26*
X03990Y03315D02*
D03*
Y03560D02*
D03*
X03640Y03315D02*
D03*
Y03560D02*
D03*
X01540Y02571D02*
D03*
Y02325D02*
D03*
X00745Y03446D02*
D03*
Y03200D02*
D03*
X01095Y03446D02*
D03*
Y03200D02*
D03*
D34*
X01670Y02155D02*
D03*
Y02285D02*
D03*
X03110Y03715D02*
D03*
Y03845D02*
D03*
X03858Y02899D02*
D03*
Y02769D02*
D03*
X02054Y01003D02*
D03*
Y00873D02*
D03*
X03060Y00495D02*
D03*
Y00365D02*
D03*
X02809Y00873D02*
D03*
Y01003D02*
D03*
X02136Y03588D02*
D03*
Y03718D02*
D03*
X02755Y01985D02*
D03*
Y01855D02*
D03*
X02305Y00495D02*
D03*
Y00365D02*
D03*
X03860Y02581D02*
D03*
Y02451D02*
D03*
D35*
X00885Y03341D02*
D03*
Y03255D02*
D03*
D36*
X04107Y00883D02*
Y00912D01*
X03984Y00844D02*
Y00870D01*
X03849Y00836D02*
Y00870D01*
X03798Y00862D02*
Y00896D01*
X03739Y00841D02*
Y00871D01*
X03641Y00839D02*
Y00870D01*
X03592Y00843D02*
Y00870D01*
X03522Y00817D02*
Y00850D01*
D37*
X02345Y00050D02*
Y00230D01*
X02045Y00050D02*
Y00195D01*
X00660Y02314D02*
X00794Y02448D01*
X00660Y02140D02*
Y02314D01*
X01484Y02515D02*
X01540Y02571D01*
X01166Y02515D02*
X01484D01*
X00745Y03200D02*
X00800Y03255D01*
X00960D02*
X01040D01*
X01095Y03200D01*
X00885Y03255D02*
X00960D01*
X00800D02*
X00885D01*
X00745Y03200D02*
X00785D01*
X00870Y03115D01*
X00794Y02477D02*
X00870Y02553D01*
Y03115D01*
X01224Y03446D02*
X01335Y03335D01*
Y02776D02*
Y03035D01*
Y02776D02*
X01540Y02571D01*
X01335Y03035D02*
Y03335D01*
X01095Y03446D02*
X01224D01*
D38*
X01440Y03255D02*
X01720Y03535D01*
X01719Y01276D02*
Y01629D01*
X01704Y01260D02*
X01719Y01276D01*
Y01629D02*
X01837Y01747D01*
X01739Y01264D02*
Y01619D01*
X01710Y01235D02*
X01739Y01264D01*
X01620Y01235D02*
X01710D01*
X01817Y01757D02*
Y01827D01*
X01575Y01515D02*
X01817Y01757D01*
X01794Y01766D02*
Y01839D01*
X01618Y01590D02*
X01794Y01766D01*
X01580Y01590D02*
X01618D01*
X01857Y01737D02*
Y01792D01*
X01739Y01619D02*
X01857Y01737D01*
X01531Y00269D02*
Y01379D01*
X01505Y01405D02*
X01531Y01379D01*
X01511Y00686D02*
Y01371D01*
X01485Y01397D02*
X01511Y01371D01*
X01465Y01388D02*
X01480Y01373D01*
Y01205D02*
Y01373D01*
X01505Y01405D02*
Y01625D01*
X01485Y01397D02*
Y01633D01*
X01465Y01388D02*
Y01642D01*
X01837Y01747D02*
Y01812D01*
X01575Y01455D02*
Y01515D01*
X01531Y00269D02*
X01625Y00175D01*
X01605Y01260D02*
X01704D01*
X01565Y01030D02*
Y01220D01*
X01605Y01260D01*
X01567Y00567D02*
X01610Y00610D01*
Y01225D01*
X01620Y01235D01*
X01875Y01260D02*
Y01390D01*
X01495Y02105D02*
X01554Y02164D01*
X01837Y01812D02*
X01852Y01827D01*
X01794Y01839D02*
X01833Y01878D01*
X01857Y01792D02*
X01866Y01801D01*
X01904D01*
X01852Y01827D02*
X01904D01*
X01842Y01852D02*
X01904D01*
X01817Y01827D02*
X01842Y01852D01*
X01833Y01878D02*
X01904D01*
X01873Y01975D02*
X01951D01*
X01805Y02043D02*
X01873Y01975D01*
X01904Y01929D02*
X01949D01*
X01951Y01975D02*
X01960Y01966D01*
Y01940D02*
Y01966D01*
X01949Y01929D02*
X01960Y01940D01*
X02370Y02895D02*
X02445Y02970D01*
X02370Y02785D02*
Y02895D01*
X02980Y01520D02*
X03315D01*
X03530Y01305D02*
X04030D01*
X03315Y01520D02*
X03530Y01305D01*
X03380Y01491D02*
X03476Y01395D01*
X03710D01*
X03480Y01435D02*
X03745D01*
X03750Y01430D01*
X03380Y01491D02*
Y02550D01*
X02525Y02970D02*
X02560Y03005D01*
X02445Y02970D02*
X02525D01*
X02065Y03535D02*
X02220Y03380D01*
Y03335D02*
Y03380D01*
X01722Y00112D02*
X01775Y00165D01*
Y00815D01*
X01900Y00940D01*
X03170Y03030D02*
X03315D01*
X03435Y02910D01*
Y02395D02*
Y02910D01*
Y02395D02*
X03490Y02340D01*
X04030Y01305D02*
X04275Y01550D01*
X03555Y02345D02*
Y02355D01*
X03455Y02455D02*
X03555Y02355D01*
X03455Y02455D02*
Y02978D01*
X03245Y03188D02*
X03455Y02978D01*
X03555Y02655D02*
Y02660D01*
X03480Y02735D02*
X03555Y02660D01*
X03480Y02735D02*
Y03015D01*
X03275Y03220D02*
X03480Y03015D01*
X03550Y02820D02*
Y02890D01*
X03600Y02940D01*
X04275Y01550D02*
X04395D01*
X03550Y02820D02*
X03610Y02760D01*
Y02565D02*
Y02760D01*
Y02865D02*
X03650D01*
X03720Y02795D01*
Y02310D02*
Y02795D01*
Y02310D02*
X03760Y02270D01*
X03009Y03031D02*
X03227Y02813D01*
X02990Y03031D02*
X03009D01*
X03914Y01804D02*
Y02194D01*
X04050Y01860D02*
X04130Y01780D01*
X03979Y01860D02*
X04050D01*
X03595Y01625D02*
Y01669D01*
X03647Y01625D02*
Y01669D01*
X03757D02*
Y01712D01*
X03835Y01790D01*
X03900D01*
X04125Y02220D02*
X04155Y02190D01*
X01785Y02035D02*
X01865Y01955D01*
X02833Y00347D02*
X02900Y00280D01*
X01598Y01827D02*
X01686D01*
X01570Y01798D02*
X01598Y01827D01*
X01570Y01718D02*
Y01798D01*
X01541Y01717D02*
Y01845D01*
X01465Y01642D02*
X01541Y01717D01*
X01485Y01633D02*
X01570Y01718D01*
X01595Y01715D02*
Y01795D01*
X01505Y01625D02*
X01595Y01715D01*
Y01795D02*
X01600Y01800D01*
X01685D01*
X01686Y01801D01*
X01541Y01845D02*
X01548Y01852D01*
X01686D01*
X01560Y01895D02*
X01577Y01878D01*
X01636Y01929D02*
X01686D01*
X01480Y00655D02*
X01511Y00686D01*
X01495Y01735D02*
Y02105D01*
X01686Y01955D02*
X01720D01*
X01867Y01903D02*
X01904D01*
X01577Y01878D02*
X01686D01*
X01567Y00488D02*
Y00567D01*
X02767Y02593D02*
X02769Y02590D01*
X02767Y02643D02*
X02774Y02650D01*
X03110Y03845D02*
X03110Y03845D01*
X02124Y00660D02*
X02130D01*
X02118Y00654D02*
X02124Y00660D01*
X02025Y00665D02*
X02078Y00612D01*
Y00347D02*
Y00612D01*
Y00347D02*
X02145Y00280D01*
Y00230D02*
Y00280D01*
X02080Y00638D02*
Y00660D01*
Y00638D02*
X02098Y00620D01*
Y00377D02*
Y00620D01*
Y00377D02*
X02245Y00230D01*
X02130Y00415D02*
Y00660D01*
Y00415D02*
X02235Y00310D01*
X02395D01*
X02445Y00260D01*
Y00230D02*
Y00260D01*
X04290Y01905D02*
Y01970D01*
Y01905D02*
X04305Y01890D01*
X04090Y01880D02*
Y01949D01*
X04065Y02170D02*
X04090D01*
X04055Y02160D02*
X04065Y02170D01*
X04055Y01985D02*
Y02160D01*
Y01985D02*
X04090Y01950D01*
Y01949D02*
Y01950D01*
Y01880D02*
X04145Y01825D01*
X04310D01*
X04296Y01964D02*
X04340D01*
X04290Y01970D02*
X04296Y01964D01*
X01865Y01955D02*
X01904D01*
X01686Y01929D02*
X01841D01*
X01867Y01903D01*
X01720Y01955D02*
X01765Y02000D01*
X02873Y00654D02*
X02879Y00660D01*
X02885D01*
X03150Y00310D02*
X03200Y00260D01*
X02885Y00415D02*
Y00660D01*
Y00415D02*
X02990Y00310D01*
X03150D01*
X02853Y00377D02*
X03000Y00230D01*
X02835Y00638D02*
Y00660D01*
X02853Y00377D02*
Y00620D01*
X02835Y00638D02*
X02853Y00620D01*
X02780Y00665D02*
X02833Y00612D01*
Y00347D02*
Y00612D01*
X01765Y02000D02*
Y02829D01*
X01811Y02875D01*
X01880D01*
X01810Y02825D02*
X01880D01*
X01785Y02800D02*
X01810Y02825D01*
X01785Y02035D02*
Y02800D01*
X01805Y02043D02*
Y02755D01*
X01825Y02775D01*
X01880D01*
X02231Y02574D02*
X02290Y02515D01*
X02165Y02574D02*
X02231D01*
X02115Y02524D02*
X02165Y02574D01*
X02115Y02510D02*
Y02524D01*
X02235Y02675D02*
X02340Y02570D01*
X02235Y02675D02*
Y02720D01*
X03065Y03157D02*
Y03205D01*
X03130Y03126D02*
Y03205D01*
X03190Y03094D02*
Y03205D01*
X03580Y02270D02*
X03760D01*
X03535Y01500D02*
Y01505D01*
X01630Y01935D02*
X01636Y01929D01*
X01600Y01928D02*
X01625Y01903D01*
X01686D01*
X01600Y02070D02*
X01610Y02080D01*
X01600Y01928D02*
Y02070D01*
X01610Y02080D02*
X01640D01*
X01630Y01935D02*
Y02000D01*
X01640Y02010D01*
X01904Y01903D02*
X02042D01*
X02090Y01855D01*
X02590Y02405D02*
Y02415D01*
X03900Y01790D02*
X03914Y01804D01*
Y02194D02*
X03940Y02220D01*
X04125D01*
X03445Y01470D02*
X03480Y01435D01*
X03445Y01470D02*
Y01510D01*
X01720Y03535D02*
X02065D01*
X02900Y00230D02*
Y00280D01*
X03535Y01500D02*
X03705D01*
X03200Y00230D02*
Y00260D01*
X03807Y02115D02*
X03812Y02110D01*
D39*
X01405Y02150D02*
X01535Y02280D01*
X00745Y03446D02*
X00855D01*
D40*
X01620Y01320D02*
X01687D01*
X01530Y01410D02*
X01620Y01320D01*
X01530Y01595D02*
X01686Y01751D01*
X01530Y01410D02*
Y01595D01*
X03150Y00485D02*
Y00742D01*
X01905Y00825D02*
Y00860D01*
X02410Y01435D02*
X02420Y01445D01*
X01895Y00815D02*
X01905Y00825D01*
X01935Y01740D02*
Y01745D01*
X01904Y01775D02*
X01935Y01745D01*
X02190Y00680D02*
X02240D01*
X02190Y00750D02*
X02240D01*
X02340Y00750D02*
X02340Y00750D01*
X02395Y00485D02*
Y00742D01*
X02387Y00750D02*
X02395Y00742D01*
X02290Y00750D02*
X02340D01*
Y00750D01*
X02305Y00870D02*
Y00990D01*
Y00870D02*
X02328Y00847D01*
X02175Y00430D02*
X02400D01*
X02165Y00440D02*
X02175Y00430D01*
X01900Y00740D02*
X01945D01*
X01970Y00765D01*
Y00810D01*
X01920Y00380D02*
X01970D01*
X01920Y00380D02*
X01920Y00380D01*
X01920Y00450D02*
Y00500D01*
X01970Y00450D02*
Y00500D01*
X01970Y00500D02*
X01970Y00500D01*
X01895Y00815D02*
X01900Y00810D01*
X02328Y00847D02*
X02408D01*
X02470Y00785D01*
X02437Y00467D02*
Y00605D01*
X02470Y00638D02*
Y00785D01*
X02437Y00605D02*
X02470Y00638D01*
X02400Y00430D02*
X02437Y00467D01*
X02430Y00695D02*
Y00707D01*
X02395Y00742D02*
X02430Y00707D01*
X02295Y00615D02*
X02340Y00660D01*
X02285Y00615D02*
X02295D01*
X02195D02*
X02240Y00660D01*
Y00680D01*
X01935Y00650D02*
Y00670D01*
X01984Y00646D02*
X02057Y00573D01*
Y00371D02*
Y00573D01*
X01984Y00646D02*
Y00699D01*
X02005Y00720D01*
X02165Y00440D02*
Y00520D01*
X02165Y00520D02*
X02165Y00520D01*
X02305Y00495D02*
X02345Y00535D01*
X01945Y00259D02*
X02057Y00371D01*
X01935Y00650D02*
X02015Y00570D01*
X01970Y00380D02*
X01970Y00380D01*
X02015Y00405D02*
Y00570D01*
X01990Y00380D02*
X02015Y00405D01*
X01970Y00380D02*
X01990D01*
X01945Y00230D02*
Y00259D01*
X02330Y01435D02*
X02410D01*
X01686Y01751D02*
Y01775D01*
X01687Y01320D02*
X01695D01*
X03142Y00750D02*
X03150Y00742D01*
X03095Y00750D02*
X03095Y00750D01*
X03142D01*
X03150Y00742D02*
X03185Y00707D01*
Y00695D02*
Y00707D01*
X02945Y00680D02*
X02995D01*
X02945Y00750D02*
X02995D01*
X02655Y00740D02*
X02700D01*
X02725Y00765D01*
Y00810D01*
X03045Y00750D02*
X03095D01*
Y00750D01*
Y00815D01*
X03040Y00615D02*
X03050D01*
X03095Y00660D01*
X03060Y00495D02*
X03100Y00535D01*
Y00675D01*
X03095Y00660D02*
Y00680D01*
X03100Y00675D01*
X02995Y00680D02*
X03045D01*
X02950Y00615D02*
X02995Y00660D01*
Y00680D01*
X02675Y00450D02*
Y00450D01*
Y00500D01*
X02725Y00450D02*
Y00500D01*
X02725Y00500D02*
X02725Y00500D01*
X02675Y00380D02*
X02675Y00380D01*
X02725D01*
X02650Y00815D02*
X02655Y00810D01*
X02650Y00815D02*
Y00860D01*
X02725Y00380D02*
X02725Y00380D01*
X02690Y00650D02*
Y00670D01*
X02725Y00380D02*
X02745D01*
X02770Y00405D01*
X02690Y00650D02*
X02770Y00570D01*
Y00405D02*
Y00570D01*
X02700Y00259D02*
X02812Y00371D01*
X02739Y00646D02*
Y00699D01*
X02760Y00720D01*
X02739Y00646D02*
X02812Y00573D01*
Y00371D02*
Y00573D01*
X02920Y00440D02*
Y00520D01*
X02920Y00520D02*
X02920Y00520D01*
X02930Y00430D02*
X03155D01*
X02920Y00440D02*
X02930Y00430D01*
X03155D02*
X03192Y00467D01*
Y00605D01*
X03225Y00638D01*
X03163Y00847D02*
X03225Y00785D01*
Y00638D02*
Y00785D01*
X03060Y00870D02*
Y00990D01*
X03083Y00847D02*
X03163D01*
X03060Y00870D02*
X03083Y00847D01*
X02240Y00680D02*
X02290D01*
X02340Y00660D02*
Y00675D01*
X02345Y00680D01*
Y00535D02*
Y00680D01*
Y00535D02*
X02345Y00535D01*
X02700Y00230D02*
Y00259D01*
X02340Y00750D02*
Y00815D01*
X02340Y00750D02*
X02387D01*
D41*
X03855Y03135D02*
X04245D01*
X04310Y03070D01*
Y02169D02*
Y03070D01*
X03771Y03219D02*
X03855Y03135D01*
X03771Y03219D02*
Y03315D01*
X04429Y02069D02*
X04430Y02070D01*
X04381Y02069D02*
X04429D01*
X04382Y02019D02*
X04382Y02019D01*
X04431D01*
X02420Y03030D02*
X02445Y03055D01*
X02490D01*
X02560Y03005D02*
X02567Y03011D01*
Y03177D02*
X02644Y03100D01*
X02670D01*
X02565Y03175D02*
X02567Y03177D01*
X02405Y03175D02*
X02565D01*
X02463Y03140D02*
X02490Y03114D01*
Y03055D02*
Y03114D01*
X02428Y03105D02*
X02463Y03140D01*
X02405Y03105D02*
X02428D01*
X02490Y03005D02*
Y03055D01*
X02643Y03240D02*
X02644Y03240D01*
X02560Y03240D02*
X02643D01*
X02740Y00160D02*
X02800Y00220D01*
X01298Y00112D02*
X01333Y00148D01*
Y00163D01*
X01935Y00895D02*
X01970Y00860D01*
X02405Y01570D02*
X02430Y01545D01*
X01465Y00180D02*
X01468Y00183D01*
X01525D01*
X01370Y00267D02*
Y00400D01*
X01407Y00163D02*
X01424Y00180D01*
X01316D02*
X01333Y00163D01*
X01370Y00267D02*
X01386Y00251D01*
X01354D02*
X01370Y00267D01*
X01424Y00180D02*
X01465D01*
X01980Y01570D02*
X02405D01*
X01935Y01525D02*
X01980Y01570D01*
X01935Y01640D02*
X01975Y01600D01*
X02465D01*
X02830Y03675D02*
X02945Y03560D01*
X02830Y03675D02*
Y03780D01*
X02785Y03660D02*
Y03730D01*
Y03660D02*
X02885Y03560D01*
X03290Y02800D02*
X03290Y02800D01*
Y02745D02*
Y02800D01*
X03227Y02745D02*
Y02802D01*
X03167Y02800D02*
X03167Y02800D01*
Y02745D02*
Y02800D01*
X03105Y02745D02*
Y02800D01*
X03105Y02800D02*
X03105Y02800D01*
X02885Y03505D02*
X02885Y03505D01*
X02885Y03505D02*
Y03560D01*
X02945Y03560D02*
X02945Y03560D01*
X02945Y03505D02*
Y03560D01*
X02885Y03380D02*
X02885Y03380D01*
Y03435D01*
X02945Y03380D02*
X02945Y03380D01*
X02945Y03380D02*
Y03435D01*
X02825Y03180D02*
X02945Y03300D01*
Y03380D01*
X02780Y03202D02*
X02885Y03307D01*
Y03380D01*
X02780Y03180D02*
Y03202D01*
X03150Y01670D02*
X03165Y01685D01*
Y01720D01*
X03042Y01723D02*
X03045Y01720D01*
X03042Y01723D02*
Y01790D01*
X03235Y01720D02*
X03238Y01722D01*
Y01790D01*
X02928Y02108D02*
X02933D01*
X02835Y02015D02*
X02928Y02108D01*
X01880Y03377D02*
X01945D01*
X01880Y03327D02*
X01945D01*
X01880Y03277D02*
X01945D01*
X01880Y03477D02*
X01945D01*
X01880Y03427D02*
X01945D01*
X01880Y02925D02*
X01945D01*
X01880Y03027D02*
X01945D01*
X01880Y03077D02*
X01945D01*
X01880Y02977D02*
X01945D01*
X01880Y03177D02*
X01945D01*
X01880Y03227D02*
X01945D01*
X01880Y03127D02*
X01945D01*
X01910Y01320D02*
X01935Y01345D01*
Y01525D01*
X02465Y01600D02*
X02485Y01620D01*
Y01645D01*
X01935Y01640D02*
Y01740D01*
X02422Y01843D02*
X02423Y01845D01*
X02334Y01843D02*
X02422D01*
X02045Y00195D02*
Y00230D01*
X02005Y00155D02*
X02045Y00195D01*
X01905Y00155D02*
X02005D01*
X01880Y00180D02*
X01905Y00155D01*
X01880Y00180D02*
Y00340D01*
X01806Y01320D02*
X01840D01*
X01773D02*
X01806D01*
X01805Y01319D02*
X01806Y01320D01*
X01805Y01260D02*
Y01319D01*
X02767Y02593D02*
Y02643D01*
X02774Y02650D02*
Y02695D01*
X03185Y03775D02*
X03185Y03775D01*
X03110Y03775D02*
X03185D01*
X03110Y03715D02*
Y03775D01*
X01185Y01525D02*
X01245D01*
X01180Y00425D02*
X01240D01*
X01185Y00975D02*
X01245D01*
X01115Y02085D02*
X01190D01*
X02040Y00810D02*
Y00850D01*
X02140Y00750D02*
X02140Y00750D01*
X02182D02*
X02190D01*
X02180Y00810D02*
X02255D01*
X02170Y00750D02*
X02170Y00750D01*
X02169Y00750D02*
X02170Y00750D01*
X02182D01*
X02140D02*
X02170D01*
X02140Y00750D02*
X02169D01*
X02110Y00780D02*
X02140Y00750D01*
X02110Y00780D02*
Y00810D01*
X01880Y00340D02*
X01920Y00380D01*
X02275Y01360D02*
Y01370D01*
Y01360D02*
X02330Y01305D01*
X02220Y01315D02*
X02275Y01370D01*
X03945Y02070D02*
X04020D01*
X03945Y02120D02*
X04020D01*
X03945Y02170D02*
X04020D01*
X04090Y02120D02*
X04155D01*
X04155Y02119D01*
Y02064D02*
Y02119D01*
Y02064D02*
X04225D01*
X04230Y02069D01*
X04160Y01960D02*
Y01980D01*
X04090Y02049D02*
Y02070D01*
X02334Y01843D02*
Y01908D01*
X02290Y02023D02*
X02334Y01979D01*
X02284Y02023D02*
X02290D01*
X03137Y01944D02*
Y02026D01*
X03135Y01942D02*
X03137Y01944D01*
Y02026D02*
Y02108D01*
X03108Y02026D02*
X03137D01*
X03108Y02025D02*
X03108Y02026D01*
X03757Y01625D02*
X03757Y01625D01*
X03807Y01625D02*
X03807Y01625D01*
X03647Y02114D02*
Y02115D01*
X03757Y01625D02*
Y01669D01*
X03812Y01630D02*
Y01669D01*
X02169Y00750D02*
X02182D01*
X02895Y00750D02*
X02895Y00750D01*
X02865Y00780D02*
X02895Y00750D01*
X02925D01*
X02865Y00780D02*
Y00810D01*
X02895Y00750D02*
X02924D01*
X02925Y00750D01*
X02937D01*
X02925D02*
X02925Y00750D01*
X02924Y00750D02*
X02937D01*
Y00750D02*
Y00750D01*
X02945D01*
X02725Y00810D02*
Y00860D01*
X02690Y00895D02*
X02725Y00860D01*
X02795Y00810D02*
Y00850D01*
X02935Y00810D02*
X03010D01*
X02635Y00340D02*
X02675Y00380D01*
X01970Y00810D02*
Y00860D01*
X02265Y02340D02*
Y02390D01*
X02290Y02415D01*
X03167Y02745D02*
X03167Y02745D01*
X02634Y01944D02*
Y02021D01*
Y01944D02*
X02634Y01944D01*
X02684Y02021D02*
X02684Y02021D01*
Y01944D02*
Y02021D01*
X02634Y01873D02*
X02684D01*
X02712D01*
X02740Y01845D01*
X02975Y01720D02*
Y01901D01*
X02928Y01948D02*
X02933Y01942D01*
X02975Y01901D01*
X02975Y01670D02*
Y01720D01*
X02975Y01720D02*
X02975Y01720D01*
X02915Y01670D02*
X02975D01*
X03150D01*
X03820Y01910D02*
X03852Y01878D01*
X03772Y01910D02*
X03820D01*
X03867Y02069D02*
Y02114D01*
X01880Y02875D02*
X01945D01*
X01880Y02825D02*
X01945D01*
X01880Y02825D02*
X01880Y02825D01*
X01880Y02775D02*
X01945D01*
X01880Y02775D02*
X01880Y02775D01*
X01701Y02220D02*
X01736Y02185D01*
X01595Y02220D02*
X01701D01*
X01535Y02280D02*
X01595Y02220D01*
X01736Y02030D02*
Y02185D01*
X01716Y02010D02*
X01736Y02030D01*
X01640Y02010D02*
X01716D01*
X01668Y02108D02*
Y02152D01*
X01640Y02080D02*
X01668Y02108D01*
X01805Y01190D02*
X02105D01*
X02220Y01305D01*
X03795Y02400D02*
X03903Y02292D01*
X03795Y02400D02*
Y02524D01*
X03903Y02221D02*
Y02292D01*
X03867Y02185D02*
X03903Y02221D01*
X01720Y02360D02*
Y02391D01*
X01668Y02443D02*
X01720Y02391D01*
X01850Y02360D02*
X02186Y02023D01*
X02284D01*
X02045Y03765D02*
X02090D01*
X02136Y03718D01*
X01990Y00900D02*
X02040Y00850D01*
X02182Y00750D02*
Y00750D01*
Y00757D01*
X02567Y03011D02*
Y03103D01*
X02745Y00900D02*
X02795Y00850D01*
X03790Y01840D02*
X03852D01*
Y01878D01*
X04090Y02049D02*
X04160Y01980D01*
X02740Y01845D02*
X02843D01*
X02819Y02780D02*
Y02905D01*
X03795Y02524D02*
X03861Y02589D01*
X03807Y01625D02*
X03810Y01627D01*
X03812Y01630D01*
X02937Y00750D02*
Y00757D01*
X02800Y00220D02*
Y00230D01*
X02635Y00192D02*
Y00340D01*
Y00192D02*
X02667Y00160D01*
X02740D01*
D42*
X02510Y03335D02*
X02641D01*
X02645Y03300D02*
Y03331D01*
Y03291D02*
Y03300D01*
X02650Y03305D01*
X02430Y03325D02*
X02510D01*
X02641Y03335D02*
X02745D01*
X02510D02*
Y03505D01*
X02745Y03335D02*
X02760Y03320D01*
X03490Y03476D02*
Y03585D01*
X03285Y03790D02*
X03490Y03585D01*
X02714Y03289D02*
X02715Y03291D01*
X02714Y03240D02*
Y03289D01*
X02760Y03240D02*
Y03320D01*
X02430Y03300D02*
Y03325D01*
Y03300D02*
X02490Y03240D01*
X02380Y03325D02*
X02430D01*
X02235Y03180D02*
X02380Y03325D01*
X02235Y02720D02*
Y03180D01*
X02635Y03670D02*
X02635Y03670D01*
X02635Y03615D02*
Y03670D01*
X02510Y03675D02*
X02575D01*
X03250Y03790D02*
X03285D01*
X02136Y03588D02*
X02221Y03673D01*
X02535Y01976D02*
Y02010D01*
Y01976D02*
X02545Y01966D01*
Y01255D02*
Y01966D01*
Y01255D02*
X02575Y01225D01*
X02433Y01990D02*
X02520Y01903D01*
Y01255D02*
Y01903D01*
X02485Y01220D02*
X02520Y01255D01*
X02433Y01990D02*
Y02030D01*
X02845Y02695D02*
X02899D01*
X02969Y02696D02*
X02970Y02695D01*
X02969Y02696D02*
Y02750D01*
X02829Y02601D02*
X02840Y02590D01*
X02829Y02601D02*
Y02645D01*
Y02680D02*
X02845Y02695D01*
X02829Y02645D02*
Y02680D01*
X02575Y03470D02*
X02624D01*
X02634Y03460D01*
X03330Y03860D02*
Y03870D01*
X03305Y03895D02*
X03330Y03870D01*
X03110Y03895D02*
X03305D01*
X03180Y03720D02*
X03181Y03720D01*
X03250D01*
Y03845D02*
X03251Y03845D01*
X03250Y03790D02*
Y03845D01*
X02965Y03835D02*
X02970D01*
X03030Y03775D01*
X02643Y03180D02*
X02644Y03181D01*
Y03240D01*
X02714Y03181D02*
Y03240D01*
X02433Y02796D02*
X02434Y02795D01*
X02504Y02850D02*
X02514Y02841D01*
X02221Y03673D02*
Y03748D01*
X02130Y01480D02*
X02175D01*
X02220Y01435D01*
X04230Y01945D02*
Y01970D01*
X04175Y01890D02*
X04230Y01945D01*
X04175Y01890D02*
X04240D01*
X04240Y01890D01*
X02771Y02769D02*
X02845Y02695D01*
X02744Y02769D02*
X02771D01*
X03035Y03275D02*
X03040Y03280D01*
X02121Y03604D02*
X02136Y03588D01*
X01936Y03604D02*
X02121D01*
X02634Y03531D02*
X02635Y03530D01*
X02634Y03565D02*
X02705D01*
X02634Y03565D02*
X02634Y03565D01*
X02634Y03531D02*
Y03565D01*
Y03615D01*
X02705Y03530D02*
Y03565D01*
Y03530D02*
X02723Y03512D01*
X02385Y03510D02*
X02505D01*
X02510Y03505D01*
X02510Y03746D02*
Y03810D01*
X02510Y03746D02*
X02510Y03746D01*
X02370Y03630D02*
X02405D01*
X02450Y03675D01*
X02510D01*
X02221Y03748D02*
X02303Y03830D01*
X02350D01*
X02710Y03610D02*
Y03665D01*
X02350Y03830D02*
X02360Y03820D01*
X02575Y03675D02*
X02634Y03615D01*
D43*
X03990Y03315D02*
X04007Y03297D01*
X04105D01*
D44*
X00955Y00065D02*
X01493D01*
X00550Y00470D02*
X00955Y00065D01*
X00550Y00470D02*
Y03205D01*
X03500Y01265D02*
X04265D01*
X03315Y01450D02*
X03500Y01265D01*
X02965Y01450D02*
X03315D01*
X02915Y01500D02*
X02965Y01450D01*
X02915Y01500D02*
Y01670D01*
X04140Y03582D02*
X04346D01*
X04485Y03444D01*
X03490Y03476D02*
X03555D01*
X03640Y03560D01*
X04485Y01975D02*
Y03444D01*
X04474Y01964D02*
X04485Y01975D01*
X04411Y01964D02*
X04474D01*
X02835Y03100D02*
X02845Y03110D01*
X02757Y03100D02*
X02835D01*
X01280Y00251D02*
X01354D01*
X01220D02*
X01280D01*
X03190Y00365D02*
X03285Y00460D01*
X03060Y00365D02*
X03190D01*
X02605Y00740D02*
X02655D01*
X02555Y00790D02*
X02605Y00740D01*
X02200Y01035D02*
X02505D01*
Y00470D02*
Y01035D01*
X02400Y00365D02*
X02505Y00470D01*
X03285Y00460D02*
X03870D01*
X04070Y00660D01*
X02015Y03227D02*
X02182D01*
X02015D02*
X02015D01*
X02136Y03588D02*
X02275Y03450D01*
Y03320D02*
Y03450D01*
X02182Y03227D02*
X02275Y03320D01*
X01493Y00065D02*
X01525Y00097D01*
X02514Y02790D02*
Y02841D01*
X01690Y00165D02*
Y00915D01*
X01525Y00097D02*
X01622D01*
X01690Y00165D01*
X01386Y00251D02*
X01465D01*
X01220Y00180D02*
X01280D01*
X01316D01*
X01690Y00915D02*
X01778Y01003D01*
X02054D01*
X02440Y03880D02*
X02895D01*
X02390Y03830D02*
X02440Y03880D01*
X02370Y03830D02*
X02390D01*
X02910Y03895D02*
X03110D01*
X02895Y03880D02*
X02910Y03895D01*
X02895Y03705D02*
Y03880D01*
Y03705D02*
X03010Y03590D01*
Y03435D02*
Y03590D01*
X04411Y01781D02*
Y01859D01*
Y01765D02*
Y01781D01*
X04485Y01485D02*
Y01707D01*
X04411Y01781D02*
X04485Y01707D01*
X04387Y01741D02*
X04411Y01765D01*
X03190Y03275D02*
X03395D01*
X03771Y02899D01*
X03858D01*
X03550Y02115D02*
X03620Y02185D01*
X03550Y01573D02*
Y02115D01*
X03531Y01554D02*
X03550Y01573D01*
X03531Y01554D02*
X03595D01*
X04411Y01859D02*
Y01964D01*
X03035Y02705D02*
Y02865D01*
Y02705D02*
X03065Y02675D01*
X03105D01*
X03010Y03275D02*
Y03434D01*
X03010Y03435D02*
X03010Y03434D01*
X02643Y03180D02*
X02643Y03180D01*
X03130Y03275D02*
X03190D01*
X03904Y01554D02*
X04130Y01780D01*
X03620Y02185D02*
X03647D01*
X03485Y03384D02*
X03490Y03389D01*
X04310Y02069D02*
Y02169D01*
X04310Y02169D01*
X03490Y03389D02*
X03564Y03315D01*
X01166Y02448D02*
X01327D01*
X01360Y02415D01*
Y02379D02*
Y02415D01*
X01166Y02314D02*
X01283D01*
X01290Y02308D02*
X01360D01*
X01166Y02381D02*
X01287D01*
X02504Y02850D02*
X02564D01*
X02433Y02796D02*
Y02850D01*
Y02884D01*
X02564Y02795D02*
Y02850D01*
X02635Y02795D02*
Y02850D01*
Y02920D01*
X01360Y02308D02*
X01420D01*
X01360Y02379D02*
X01420D01*
X03185Y03845D02*
X03186Y03845D01*
X03251D01*
X03564Y03315D02*
X03640D01*
X03858D02*
X03990D01*
X04012Y03582D02*
X04140D01*
X03990Y03560D02*
X04012Y03582D01*
X03640Y03560D02*
X03694D01*
X03771Y03483D01*
X03850D01*
X03927Y03560D02*
X03990D01*
X03640Y03315D02*
X03771D01*
Y03412D01*
X03110Y03845D02*
Y03895D01*
X03030Y03845D02*
X03110D01*
X01260Y02085D02*
X01364D01*
X04311Y02019D02*
Y02068D01*
X04310Y02069D02*
X04311Y02068D01*
X03035Y02071D02*
Y02108D01*
X02928Y01948D02*
Y02025D01*
X02933Y01942D02*
X03035D01*
X02988Y02025D02*
X02989Y02025D01*
X02928Y02025D02*
X02988D01*
X02989Y02025D02*
X03035Y02071D01*
X03647Y02070D02*
Y02114D01*
X03812Y02069D02*
Y02110D01*
Y02185D02*
X03867D01*
X03647D02*
X03702D01*
X03595Y01554D02*
X03647D01*
X03647Y01554D01*
X03757D01*
X03812D01*
X02015Y03477D02*
X02015Y03477D01*
X02015Y02775D02*
X02015Y02775D01*
X02564Y02751D02*
Y02795D01*
Y02751D02*
X02580Y02735D01*
X02710D01*
X02744Y02769D01*
Y02840D01*
X02115Y02440D02*
X02140Y02415D01*
X02190D01*
X02195Y02340D02*
Y02410D01*
X02190Y02415D02*
X02195Y02410D01*
X02689Y02920D02*
X02714Y02945D01*
X02489Y02940D02*
X02670D01*
X02689Y02920D01*
X02433Y02884D02*
X02489Y02940D01*
X02564Y02850D02*
Y02899D01*
X01166Y02582D02*
X01350D01*
X02015Y02500D02*
Y02775D01*
Y02500D02*
X02075Y02440D01*
X02115D01*
X01540Y02571D02*
X01668Y02443D01*
X01420Y02379D02*
X01534D01*
X01535Y02380D01*
Y02420D01*
X03065Y03275D02*
X03130D01*
X03105Y02486D02*
Y02675D01*
X02490Y02370D02*
Y02415D01*
X02054Y01003D02*
Y01091D01*
X02035Y01110D02*
X02054Y01091D01*
X02861Y01055D02*
X03131D01*
X03285Y00901D01*
X02054Y01003D02*
X02168D01*
X02200Y01035D01*
X02305Y00365D02*
X02400D01*
X03285Y00460D02*
Y00901D01*
X02840Y01034D02*
X02861Y01055D01*
X02490Y02370D02*
X02510Y02350D01*
X02968D01*
X03812Y01554D02*
X03904D01*
X03861Y02589D02*
X04119D01*
Y02796D01*
X04016Y02899D02*
X04119Y02796D01*
X03858Y02899D02*
X04016D01*
X03702Y02185D02*
X03812D01*
X02755Y01985D02*
Y02085D01*
X02890Y02220D01*
X03053D01*
X02968Y02350D02*
X03053Y02435D01*
X03105Y02486D01*
X03053Y02220D02*
Y02285D01*
Y02435D01*
X02845Y03110D02*
X03010Y03275D01*
X02845Y03055D02*
Y03110D01*
X03010Y03275D02*
X03035D01*
X03065D01*
X02714Y03125D02*
X02714Y03125D01*
X03815Y00380D02*
X03960Y00235D01*
X04005D01*
X04360Y00590D01*
Y01360D01*
X04265Y01265D02*
X04360Y01360D01*
X04485Y01485D01*
X00885Y03341D02*
X00960D01*
X00686D02*
X00885D01*
X00550Y03205D02*
X00686Y03341D01*
X02714Y02945D02*
Y03125D01*
Y03181D01*
X03858Y03315D02*
Y03404D01*
X01668Y02282D02*
Y02443D01*
X02505Y01035D02*
X02839D01*
X02840Y01034D01*
X02015Y02925D02*
Y03077D01*
Y03227D01*
Y03477D01*
X02845Y03055D02*
X03035Y02865D01*
X03105Y02675D02*
X03290D01*
X02015Y02775D02*
Y02875D01*
X03850Y03483D02*
X03927Y03560D01*
X00960Y03341D02*
Y03446D01*
D45*
X01055Y03880D02*
X01240D01*
X00745Y03446D02*
Y03570D01*
X01055Y03880D01*
D46*
X03702Y02069D02*
X03702Y02069D01*
Y02114D01*
X03640Y01910D02*
X03701D01*
X03701Y01910D01*
X03755Y02390D02*
Y02580D01*
Y02390D02*
X03867Y02278D01*
Y02255D02*
Y02278D01*
D48*
X03861Y02394D02*
X03881Y02374D01*
X03936D01*
Y02445D02*
X04035D01*
X04035Y02445D01*
X03933Y02754D02*
X04032D01*
X04032Y02754D01*
X03858Y02704D02*
X03878Y02683D01*
X03933D01*
X03858Y02704D02*
Y02769D01*
X04035Y02445D02*
X04190Y02290D01*
Y02255D02*
Y02290D01*
X03861Y02394D02*
Y02459D01*
D49*
X01415Y03707D02*
D03*
D50*
X04405Y03890D02*
D03*
X00585Y03890D02*
D03*
Y00160D02*
D03*
X04405D02*
D03*
D51*
X00830Y01570D02*
D03*
Y01020D02*
D03*
Y02125D02*
D03*
X01936Y03604D02*
D03*
X02370Y03830D02*
D03*
X00825Y00470D02*
D03*
X03600Y03705D02*
D03*
D52*
X00830Y01470D02*
D03*
Y00920D02*
D03*
Y02025D02*
D03*
X01936Y03704D02*
D03*
Y03804D02*
D03*
X02370Y03730D02*
D03*
Y03630D02*
D03*
X02805Y00230D02*
D03*
X02905D02*
D03*
X03005D02*
D03*
X03105D02*
D03*
X03205D02*
D03*
X02045D02*
D03*
X02145D02*
D03*
X02245D02*
D03*
X02345D02*
D03*
X02445D02*
D03*
X00825Y00370D02*
D03*
X03600Y03805D02*
D03*
X02390Y02415D02*
D03*
X02290D02*
D03*
D53*
X02705Y00230D02*
D03*
X01945D02*
D03*
D54*
X03238Y01790D02*
D03*
X03042D02*
D03*
D55*
X01475Y03880D02*
D03*
X01375D02*
D03*
D56*
X01275D02*
D03*
D57*
X02590Y02515D02*
D03*
X02970Y02465D02*
D03*
D58*
X02590Y02415D02*
D03*
X02490Y02515D02*
D03*
Y02415D02*
D03*
X02390Y02515D02*
D03*
X02770Y02465D02*
D03*
X02870D02*
D03*
D59*
X02290Y02515D02*
D03*
D60*
X02190D02*
D03*
Y02415D02*
D03*
D61*
X01440Y03255D02*
D03*
X01580Y01590D02*
D03*
X01575Y01455D02*
D03*
X01554Y02164D02*
D03*
X03150Y00485D02*
D03*
X02843Y01845D02*
D03*
X02370Y02785D02*
D03*
X03710Y01395D02*
D03*
X03750Y01430D02*
D03*
X03555Y03476D02*
D03*
X04431Y02019D02*
D03*
X04430Y02070D02*
D03*
X02420Y03030D02*
D03*
X02345Y00050D02*
D03*
X02045D02*
D03*
X00660Y02140D02*
D03*
X02555Y00790D02*
D03*
X04070Y00660D02*
D03*
X03815Y00380D02*
D03*
X02220Y03335D02*
D03*
X01298Y00112D02*
D03*
X01722D02*
D03*
X01900Y00940D02*
D03*
X01935Y00895D02*
D03*
X01905Y00860D02*
D03*
X02514Y02790D02*
D03*
X02430Y01545D02*
D03*
X02420Y01445D02*
D03*
X02635Y03670D02*
D03*
X03380Y02550D02*
D03*
X02830Y03780D02*
D03*
X02785Y03730D02*
D03*
X03170Y03030D02*
D03*
X03490Y02340D02*
D03*
X02980Y01520D02*
D03*
X03555Y02345D02*
D03*
X03245Y03188D02*
D03*
X03555Y02655D02*
D03*
X03275Y03220D02*
D03*
X04411Y01859D02*
D03*
X03600Y02940D02*
D03*
X04395Y01550D02*
D03*
X04275D02*
D03*
X03550Y02820D02*
D03*
X03610Y02565D02*
D03*
Y02865D02*
D03*
X02990Y03031D02*
D03*
X03290Y02800D02*
D03*
X03227Y02802D02*
D03*
X03167Y02800D02*
D03*
X03105D02*
D03*
X03010Y03435D02*
D03*
X02885Y03560D02*
D03*
X02945D02*
D03*
X02760Y03240D02*
D03*
X02825Y03180D02*
D03*
X02780D02*
D03*
X03595Y01669D02*
D03*
X03647Y01669D02*
D03*
X04310Y02169D02*
D03*
X02915Y01670D02*
D03*
X02835Y02015D02*
D03*
X04387Y01741D02*
D03*
X02535Y02010D02*
D03*
X02575Y01225D02*
D03*
X02485Y01645D02*
D03*
X02423Y01845D02*
D03*
X02433Y02030D02*
D03*
X02485Y01220D02*
D03*
X01495Y01735D02*
D03*
X01560Y01895D02*
D03*
X01480Y01205D02*
D03*
X01625Y00175D02*
D03*
X01480Y00655D02*
D03*
X01535Y02420D02*
D03*
X02819Y02780D02*
D03*
X02969Y02750D02*
D03*
X02829Y02645D02*
D03*
X02767Y02643D02*
D03*
X02715Y03665D02*
D03*
X03330Y03860D02*
D03*
X04140Y03582D02*
D03*
X04105Y03297D02*
D03*
X03110Y03895D02*
D03*
X03180Y03720D02*
D03*
X03251Y03845D02*
D03*
X02965Y03835D02*
D03*
X03110Y03775D02*
D03*
X01185Y01525D02*
D03*
X01180Y00425D02*
D03*
X01185Y00975D02*
D03*
X02644Y03240D02*
D03*
X02714D02*
D03*
X02434Y02795D02*
D03*
X01115Y02085D02*
D03*
X02395Y00485D02*
D03*
X02340Y00815D02*
D03*
X02255Y00810D02*
D03*
X02305Y00990D02*
D03*
X01970Y00500D02*
D03*
X01920D02*
D03*
X02430Y00695D02*
D03*
X02285Y00615D02*
D03*
X02195D02*
D03*
X01935Y00670D02*
D03*
X02005Y00720D02*
D03*
X02025Y00665D02*
D03*
X02080Y00660D02*
D03*
X02140Y00750D02*
D03*
X02130Y00660D02*
D03*
X02165Y00520D02*
D03*
X02284Y02023D02*
D03*
X02334Y01843D02*
D03*
X02130Y01480D02*
D03*
X03945Y02070D02*
D03*
Y02120D02*
D03*
Y02170D02*
D03*
X04160Y01960D02*
D03*
X04290Y01970D02*
D03*
X03861Y02394D02*
D03*
X04035Y02445D02*
D03*
X04310Y01825D02*
D03*
X02275Y01370D02*
D03*
X02928Y02025D02*
D03*
X03108D02*
D03*
X04240Y01890D02*
D03*
X04032Y02754D02*
D03*
X03858Y02704D02*
D03*
X03702Y02069D02*
D03*
X03647Y02070D02*
D03*
X03867Y02069D02*
D03*
X03812D02*
D03*
X03757Y01669D02*
D03*
X03812D02*
D03*
X01567Y00488D02*
D03*
X01565Y01030D02*
D03*
X03185Y00695D02*
D03*
X02895Y00750D02*
D03*
X02690Y00895D02*
D03*
X03095Y00815D02*
D03*
X03040Y00615D02*
D03*
X02950D02*
D03*
X03010Y00810D02*
D03*
X02675Y00500D02*
D03*
X02725D02*
D03*
X02650Y00860D02*
D03*
X02690Y00670D02*
D03*
X02745Y00900D02*
D03*
X02885Y00660D02*
D03*
X02835D02*
D03*
X02780Y00665D02*
D03*
X02760Y00720D02*
D03*
X02920Y00520D02*
D03*
X03060Y00990D02*
D03*
X01990Y00900D02*
D03*
X01880Y02875D02*
D03*
X01880Y02825D02*
D03*
X01880Y02775D02*
D03*
X01880Y03177D02*
D03*
X01880Y03127D02*
D03*
Y03077D02*
D03*
X01880Y03027D02*
D03*
Y02977D02*
D03*
X01880Y02925D02*
D03*
X01880Y03227D02*
D03*
X01880Y03277D02*
D03*
X01880Y03327D02*
D03*
Y03377D02*
D03*
Y03427D02*
D03*
Y03477D02*
D03*
X02340Y02570D02*
D03*
X03190Y03094D02*
D03*
X03130Y03126D02*
D03*
X03065Y03157D02*
D03*
X02634Y02021D02*
D03*
X02684D02*
D03*
X03760Y02270D02*
D03*
X03580D02*
D03*
X03705Y01500D02*
D03*
X03535Y01505D02*
D03*
X03790Y01840D02*
D03*
X03640Y01910D02*
D03*
X03755Y02580D02*
D03*
X04190Y02255D02*
D03*
X02564Y02899D02*
D03*
X01350Y02582D02*
D03*
X02035Y01110D02*
D03*
X02090Y01855D02*
D03*
X04130Y01780D02*
D03*
X03867Y02255D02*
D03*
X01245Y03203D02*
D03*
X03053Y02285D02*
D03*
X02575Y03470D02*
D03*
X02723Y03512D02*
D03*
X02045Y03765D02*
D03*
X02510Y03505D02*
D03*
X02385Y03510D02*
D03*
X02510Y03810D02*
D03*
X03165Y02965D02*
D03*
X02205Y02140D02*
D03*
X03445Y01510D02*
D03*
X01335Y03035D02*
D03*
D62*
X00965Y01955D02*
D03*
X00960Y00300D02*
D03*
X00965Y00855D02*
D03*
X01345Y01645D02*
D03*
X01405Y01595D02*
D03*
X01010Y01470D02*
D03*
Y02025D02*
D03*
X01405Y02150D02*
D03*
X01345Y02200D02*
D03*
X01005Y00370D02*
D03*
X01400Y00495D02*
D03*
X01340Y00545D02*
D03*
X01010Y00920D02*
D03*
X01345Y01095D02*
D03*
X01405Y01045D02*
D03*
X00965Y01400D02*
D03*
X01030Y02450D02*
D03*
D63*
X02405Y03105D02*
D03*
Y03175D02*
D03*
X01465Y00251D02*
D03*
Y00180D02*
D03*
X01280Y00251D02*
D03*
Y00180D02*
D03*
X01805Y01190D02*
D03*
Y01260D02*
D03*
X01640Y02080D02*
D03*
Y02010D02*
D03*
X02634Y03531D02*
D03*
Y03460D02*
D03*
X03185Y03775D02*
D03*
Y03845D02*
D03*
X03771Y03483D02*
D03*
Y03412D02*
D03*
X01360Y02379D02*
D03*
Y02308D02*
D03*
X03933Y02754D02*
D03*
Y02683D02*
D03*
X03095Y00680D02*
D03*
Y00750D02*
D03*
X03936Y02374D02*
D03*
Y02445D02*
D03*
X02190Y00680D02*
D03*
Y00750D02*
D03*
X02945Y00680D02*
D03*
Y00750D02*
D03*
X02334Y01908D02*
D03*
Y01979D02*
D03*
X02345Y00680D02*
D03*
Y00750D02*
D03*
D64*
X02670Y03100D02*
D03*
X02757D02*
D03*
X01687Y01320D02*
D03*
X01773D02*
D03*
D65*
X01407Y00163D02*
D03*
X01370Y00267D02*
D03*
X01333Y00163D02*
D03*
D66*
X01686Y01775D02*
D03*
Y01801D02*
D03*
Y01827D02*
D03*
Y01852D02*
D03*
Y01878D02*
D03*
Y01903D02*
D03*
Y01929D02*
D03*
Y01955D02*
D03*
X01904Y01775D02*
D03*
Y01801D02*
D03*
Y01827D02*
D03*
Y01852D02*
D03*
Y01878D02*
D03*
Y01903D02*
D03*
Y01929D02*
D03*
Y01955D02*
D03*
D67*
X03771Y03315D02*
D03*
X03858D02*
D03*
X00963Y03446D02*
D03*
X00877D02*
D03*
D68*
X01166Y02582D02*
D03*
Y02515D02*
D03*
Y02448D02*
D03*
Y02381D02*
D03*
Y02314D02*
D03*
D69*
X00794Y02448D02*
D03*
D70*
X01052Y01855D02*
D03*
X01298D02*
D03*
D71*
X02220Y01435D02*
D03*
Y01305D02*
D03*
X02330Y01435D02*
D03*
Y01305D02*
D03*
D72*
X04230Y01970D02*
D03*
Y02069D02*
D03*
D73*
X03035Y02108D02*
D03*
Y01942D02*
D03*
X03135D02*
D03*
X02933Y02108D02*
D03*
Y01942D02*
D03*
X03137Y02108D02*
D03*
D74*
X01097Y02381D02*
X01166D01*
X01040Y02324D02*
X01097Y02381D01*
X01040Y02195D02*
Y02324D01*
D75*
X00980Y02115D02*
X01045Y02180D01*
X00980Y00290D02*
Y00370D01*
Y01400D01*
Y02115D01*
X01370Y00400D02*
Y01855D01*
Y02150D01*
D76*
X01095Y03200D02*
X01098Y03203D01*
X01245D01*
X00794Y02448D02*
Y02477D01*
Y02448D02*
X01166D01*
D77*
X01000Y03445D02*
X01095Y03446D01*
M02*
