M48
;Layer_Color=9474304
;FILE_FORMAT=2:3
INCH
;TYPE=PLATED
T1F00S00C0.012
T2F00S00C0.020
T3F00S00C0.035
T4F00S00C0.043
T5F00S00C0.130
%
T01
X01298Y00112
X01180Y00425
X01480Y00655
Y01205
X01185Y00975
Y01525
X01575Y01455
X01565Y01030
X01900Y00940
X01935Y00895
X01990Y00900
X01905Y00860
X01935Y00670
X02025Y00665
X02080Y00660
X02130
X02140Y00750
X02005Y00720
X01970Y00500
X01920
X02165Y00520
X02195Y00615
X02285
X02255Y00810
X02340Y00815
X02305Y00990
X02035Y01110
X02130Y01480
X02275Y01370
X02420Y01445
X02430Y01545
X02485Y01220
X02575Y01225
X02650Y00860
X02690Y00895
X02745Y00900
X02760Y00720
X02780Y00665
X02835Y00660
X02885
X02895Y00750
X03010Y00810
X03095Y00815
X03060Y00990
X03040Y00615
X02950
X02920Y00520
X02725Y00500
X02675
X02690Y00670
X02555Y00790
X02430Y00695
X02395Y00485
X02345Y00050
X02045
X01722Y00112
X01625Y00175
X01567Y00488
X02980Y01520
X03445Y01510
X03535Y01505
X03705Y01500
X03710Y01395
X03750Y01430
X04275Y01550
X04395
X04070Y00660
X03815Y00380
X03150Y00485
X03185Y00695
X03595Y01669
X03647Y01669
X03757
X03812
X03790Y01840
X03640Y01910
X03647Y02070
X03702Y02069
X03812
X03867
X03945Y02070
Y02120
Y02170
X03867Y02255
X03760Y02270
X03580
X03555Y02345
X03490Y02340
X03380Y02550
X03610Y02565
X03555Y02655
X03550Y02820
X03610Y02865
X03600Y02940
X03290Y02800
X03227Y02802
X03167Y02800
X03165Y02965
X03170Y03030
X03190Y03094
X03858Y02704
X04032Y02754
X04035Y02445
X03861Y02394
X03755Y02580
X04190Y02255
X04310Y02169
X04430Y02070
X04431Y02019
X04411Y01859
X04310Y01825
X04240Y01890
X04290Y01970
X04160Y01960
X04130Y01780
X04387Y01741
X02915Y01670
X02843Y01845
X02835Y02015
X02928Y02025
X03108
X03053Y02285
X02969Y02750
X02819Y02780
X02829Y02645
X02767Y02643
X02514Y02790
X02434Y02795
X02370Y02785
X02340Y02570
X02420Y03030
X02564Y02899
X02990Y03031
X03105Y02800
X02684Y02021
X02634
X02535Y02010
X02433Y02030
X02284Y02023
X02205Y02140
X02090Y01855
X02334Y01843
X02423Y01845
X02485Y01645
X01580Y01590
X01880Y02775
X01880Y02825
X01880Y02875
X01880Y02925
X01880Y02977
Y03027
X01880Y03077
X01335Y03035
X01350Y02582
X01535Y02420
X01554Y02164
X01560Y01895
X01495Y01735
X01115Y02085
X00660Y02140
X01245Y03203
X01440Y03255
X01880Y03277
X01880Y03227
Y03177
X01880Y03127
X01880Y03327
Y03377
Y03427
Y03477
X02045Y03765
X02510Y03810
X02635Y03670
X02715Y03665
X02785Y03730
X02830Y03780
X02965Y03835
X03110Y03895
Y03775
X02945Y03560
X02885
X02723Y03512
X02575Y03470
X02510Y03505
X02385Y03510
X02220Y03335
X02644Y03240
X02714
X02760Y03240
X02780Y03180
X02825
X03065Y03157
X03010Y03435
X03130Y03126
X03245Y03188
X03275Y03220
X03555Y03476
X03330Y03860
X03251Y03845
X03180Y03720
X04140Y03582
X04105Y03297
T02
X00960Y00300
X01005Y00370
X01340Y00545
X01400Y00495
X01405Y01045
X01345Y01095
X01010Y00920
X00965Y00855
Y01400
X01010Y01470
X03238Y01790
X03042
X01405Y01595
X01345Y01645
Y02200
X01405Y02150
X01010Y02025
X00965Y01955
X01030Y02450
T03
X01275Y03880
X01375
X01475
T04
X00825Y00370
Y00470
X00830Y00920
Y01020
Y01470
X01945Y00230
X02045
X02145
X02245
X02345
X02445
X02705
X02805
X02905
X03005
X03105
X03205
X02970Y02465
X02870
X02770
X02590Y02515
Y02415
X02490
Y02515
X02390
Y02415
X02290
Y02515
X02190
Y02415
X00830Y02125
Y02025
Y01570
X01936Y03604
Y03704
Y03804
X02370Y03830
Y03730
Y03630
X03600Y03705
Y03805
T05
X00585Y00160
X04405
X00585Y03890
X04405Y03890
M30
