G04 Layer_Physical_Order=1*
G04 Layer_Color=255*
%FSAX25Y25*%
%MOIN*%
G70*
G01*
G75*
%ADD10R,0.06378X0.09055*%
%ADD11R,0.03543X0.03543*%
%ADD12R,0.03543X0.03543*%
%ADD13R,0.01575X0.03347*%
G04:AMPARAMS|DCode=14|XSize=20mil|YSize=12mil|CornerRadius=0.3mil|HoleSize=0mil|Usage=FLASHONLY|Rotation=270.000|XOffset=0mil|YOffset=0mil|HoleType=Round|Shape=RoundedRectangle|*
%AMROUNDEDRECTD14*
21,1,0.02000,0.01140,0,0,270.0*
21,1,0.01940,0.01200,0,0,270.0*
1,1,0.00060,-0.00570,-0.00970*
1,1,0.00060,-0.00570,0.00970*
1,1,0.00060,0.00570,0.00970*
1,1,0.00060,0.00570,-0.00970*
%
%ADD14ROUNDEDRECTD14*%
%ADD15R,0.07087X0.04528*%
%ADD16R,0.06693X0.04331*%
%ADD17R,0.03937X0.03740*%
%ADD18R,0.04528X0.07087*%
%ADD19R,0.04331X0.06693*%
%ADD20R,0.04803X0.02441*%
%ADD21R,0.03347X0.01575*%
%ADD22R,0.02441X0.04803*%
%ADD23R,0.02559X0.04331*%
%ADD24R,0.05709X0.04528*%
%ADD25R,0.09055X0.06378*%
G04:AMPARAMS|DCode=26|XSize=20mil|YSize=12mil|CornerRadius=0.3mil|HoleSize=0mil|Usage=FLASHONLY|Rotation=0.000|XOffset=0mil|YOffset=0mil|HoleType=Round|Shape=RoundedRectangle|*
%AMROUNDEDRECTD26*
21,1,0.02000,0.01140,0,0,0.0*
21,1,0.01940,0.01200,0,0,0.0*
1,1,0.00060,0.00970,-0.00570*
1,1,0.00060,-0.00970,-0.00570*
1,1,0.00060,-0.00970,0.00570*
1,1,0.00060,0.00970,0.00570*
%
%ADD26ROUNDEDRECTD26*%
%ADD27R,0.05118X0.03543*%
G04:AMPARAMS|DCode=28|XSize=20mil|YSize=12mil|CornerRadius=0.3mil|HoleSize=0mil|Usage=FLASHONLY|Rotation=220.000|XOffset=0mil|YOffset=0mil|HoleType=Round|Shape=RoundedRectangle|*
%AMROUNDEDRECTD28*
21,1,0.02000,0.01140,0,0,220.0*
21,1,0.01940,0.01200,0,0,220.0*
1,1,0.00060,-0.01110,-0.00187*
1,1,0.00060,0.00377,0.01060*
1,1,0.00060,0.01110,0.00187*
1,1,0.00060,-0.00377,-0.01060*
%
%ADD28ROUNDEDRECTD28*%
%ADD29R,0.03347X0.03347*%
%ADD30R,0.03740X0.03937*%
%ADD31R,0.07008X0.02835*%
%ADD32R,0.10630X0.04528*%
%ADD33O,0.01575X0.07677*%
%ADD34R,0.05118X0.04724*%
%ADD35R,0.04528X0.10630*%
%ADD36R,0.09646X0.02362*%
G04:AMPARAMS|DCode=37|XSize=23.62mil|YSize=96.46mil|CornerRadius=5.91mil|HoleSize=0mil|Usage=FLASHONLY|Rotation=90.000|XOffset=0mil|YOffset=0mil|HoleType=Round|Shape=RoundedRectangle|*
%AMROUNDEDRECTD37*
21,1,0.02362,0.08465,0,0,90.0*
21,1,0.01181,0.09646,0,0,90.0*
1,1,0.01181,0.04232,0.00591*
1,1,0.01181,0.04232,-0.00591*
1,1,0.01181,-0.04232,-0.00591*
1,1,0.01181,-0.04232,0.00591*
%
%ADD37ROUNDEDRECTD37*%
%ADD38R,0.02835X0.07008*%
%ADD39R,0.15748X0.21654*%
%ADD40R,0.12205X0.10236*%
%ADD41R,0.02362X0.06102*%
%ADD42R,0.01575X0.23622*%
%ADD43O,0.01575X0.06299*%
%ADD44R,0.07402X0.06614*%
%ADD45R,0.23622X0.01575*%
%ADD46R,0.19488X0.10787*%
%ADD47O,0.01378X0.06102*%
%ADD48R,0.04724X0.05118*%
%ADD49R,0.02756X0.02756*%
%ADD50R,0.02756X0.05118*%
%ADD51R,0.03347X0.03347*%
%ADD52R,0.03543X0.05118*%
%ADD53R,0.04331X0.02559*%
%ADD54R,0.02756X0.02756*%
%ADD55R,0.05118X0.02756*%
%ADD56R,0.04528X0.05709*%
%ADD57R,0.01772X0.01772*%
%ADD58R,0.01772X0.01181*%
%ADD59R,0.01772X0.01772*%
%ADD60R,0.01181X0.01772*%
%ADD61R,0.06496X0.05118*%
%ADD62O,0.02165X0.06890*%
%ADD63O,0.06890X0.02165*%
%ADD64C,0.02362*%
%ADD65C,0.02756*%
%ADD66C,0.01575*%
%ADD67C,0.01000*%
%ADD68C,0.01968*%
%ADD69C,0.01181*%
%ADD70C,0.03937*%
%ADD71C,0.00819*%
%ADD72C,0.01378*%
%ADD73C,0.03150*%
%ADD74C,0.00787*%
%ADD75C,0.05905*%
%ADD76C,0.02087*%
%ADD77C,0.00984*%
%ADD78C,0.05905*%
%ADD79R,0.05905X0.05905*%
%ADD80C,0.05315*%
%ADD81R,0.05905X0.05905*%
%ADD82C,0.23425*%
%ADD83C,0.25000*%
%ADD84R,0.06102X0.06102*%
%ADD85C,0.06102*%
%ADD86C,0.02756*%
%ADD87C,0.02362*%
%ADD88C,0.03347*%
%ADD89C,0.02953*%
%ADD90C,0.03937*%
%ADD91C,0.03150*%
G36*
X0491850Y0309350D02*
X0466850D01*
Y0319350D01*
X0491850D01*
Y0309350D01*
D02*
G37*
G36*
X0215850Y0308850D02*
X0207969D01*
Y0333600D01*
X0215850D01*
Y0308850D01*
D02*
G37*
G36*
X0264850Y0315350D02*
X0266350Y0313850D01*
X0266350Y0308350D01*
X0256350D01*
Y0313850D01*
X0257850Y0315350D01*
X0264850Y0315350D01*
D02*
G37*
G36*
X0273850Y0313394D02*
X0272350Y0314394D01*
X0268350Y0314394D01*
Y0317894D01*
X0266350Y0319894D01*
X0266350Y0326894D01*
X0267457Y0328000D01*
X0273850D01*
Y0313394D01*
D02*
G37*
G36*
X0305500Y0318000D02*
X0305500Y0313500D01*
X0302894Y0310894D01*
X0299850D01*
Y0320894D01*
X0302606D01*
X0305500Y0318000D01*
D02*
G37*
G36*
X0245277Y0316450D02*
X0243777Y0309950D01*
X0239777D01*
X0238277Y0316450D01*
X0239777Y0322628D01*
X0243777D01*
X0245277Y0316450D01*
D02*
G37*
G36*
X0286350Y0332350D02*
X0289000Y0332408D01*
Y0309543D01*
X0286850Y0307394D01*
X0285850Y0307394D01*
X0284350Y0308894D01*
Y0312394D01*
X0283544Y0313200D01*
X0282350D01*
Y0332350D01*
X0283851Y0334850D01*
X0286350Y0332350D01*
D02*
G37*
G36*
X0306583Y0298661D02*
X0320661D01*
Y0290787D01*
X0317452Y0290760D01*
X0317452Y0290760D01*
X0317041Y0291562D01*
X0316000Y0293028D01*
X0314699Y0294272D01*
X0313186Y0295246D01*
X0311516Y0295915D01*
X0309750Y0296256D01*
X0307951D01*
X0306184Y0295915D01*
X0304515Y0295246D01*
X0303002Y0294272D01*
X0301701Y0293028D01*
X0300660Y0291562D01*
X0300249Y0290760D01*
X0297039Y0290787D01*
Y0298661D01*
X0297898D01*
Y0307347D01*
X0306583Y0298661D01*
D02*
G37*
G36*
X0521850Y0295850D02*
Y0290350D01*
X0514850D01*
X0514850Y0294850D01*
X0517350Y0297350D01*
X0520350Y0297350D01*
X0521850Y0295850D01*
D02*
G37*
G36*
X0511150Y0297350D02*
X0513350Y0295150D01*
X0513350Y0290350D01*
X0506350D01*
Y0295850D01*
X0507850Y0297350D01*
X0511150Y0297350D01*
D02*
G37*
G36*
X0518661Y0310457D02*
Y0302583D01*
X0503125D01*
X0495850Y0295894D01*
X0495964Y0302583D01*
X0495039D01*
Y0310457D01*
X0498248Y0310484D01*
X0498660Y0309683D01*
X0499701Y0308215D01*
X0501002Y0306973D01*
X0502515Y0305998D01*
X0504184Y0305329D01*
X0505951Y0304988D01*
X0507750D01*
X0509516Y0305329D01*
X0511186Y0305998D01*
X0512699Y0306973D01*
X0514000Y0308215D01*
X0515041Y0309683D01*
X0515452Y0310484D01*
X0518661Y0310457D01*
D02*
G37*
G36*
X0228350Y0337350D02*
X0259850D01*
X0260000Y0330500D01*
X0253661Y0324161D01*
Y0304539D01*
X0245787D01*
X0245760Y0307749D01*
X0245760D01*
X0246562Y0308160D01*
X0248028Y0309201D01*
X0249272Y0310502D01*
X0250246Y0312015D01*
X0250915Y0313684D01*
X0251256Y0315451D01*
Y0317250D01*
X0250915Y0319016D01*
X0250246Y0320686D01*
X0249272Y0322199D01*
X0248028Y0323499D01*
X0246562Y0324541D01*
X0245760Y0324952D01*
X0245787Y0328161D01*
X0246350D01*
Y0333350D01*
X0244350Y0335350D01*
X0226850D01*
X0225950Y0336250D01*
Y0338350D01*
X0227350D01*
X0228350Y0337350D01*
D02*
G37*
G36*
X0225850Y0334350D02*
X0231850D01*
Y0328161D01*
X0237913D01*
X0237940Y0324952D01*
Y0324952D01*
X0237139Y0324541D01*
X0235672Y0323499D01*
X0234429Y0322199D01*
X0233455Y0320686D01*
X0232786Y0319016D01*
X0232445Y0317250D01*
Y0315451D01*
X0232786Y0313684D01*
X0233455Y0312015D01*
X0234429Y0310502D01*
X0235672Y0309201D01*
X0237139Y0308160D01*
X0237940Y0307749D01*
X0237913Y0304539D01*
X0230039D01*
Y0310350D01*
X0223850D01*
Y0336350D01*
X0225850Y0334350D01*
D02*
G37*
G36*
X0451800Y0349700D02*
X0452800Y0349700D01*
Y0347095D01*
X0450932D01*
X0448000Y0345000D01*
X0444500Y0342500D01*
X0443500Y0345000D01*
X0444800Y0346300D01*
X0444800Y0353700D01*
X0447800Y0353700D01*
X0451800Y0349700D01*
D02*
G37*
G36*
X0471000Y0341721D02*
X0469350D01*
X0465350Y0341721D01*
Y0347149D01*
X0464400Y0348100D01*
Y0354200D01*
X0465920Y0355720D01*
X0471000Y0355720D01*
Y0341721D01*
D02*
G37*
G36*
X0247850Y0368850D02*
X0249850Y0367850D01*
Y0354350D01*
X0251850Y0352350D01*
X0259350D01*
Y0346350D01*
X0250350D01*
Y0343350D01*
X0245350Y0339350D01*
X0242850D01*
Y0367850D01*
X0243850Y0368850D01*
Y0377350D01*
X0247850D01*
Y0368850D01*
D02*
G37*
G36*
X0506350Y0358350D02*
X0509350Y0355350D01*
X0514850D01*
Y0351350D01*
X0504850D01*
X0503350Y0349850D01*
X0497850Y0349850D01*
Y0359850D01*
X0503350D01*
X0506350Y0358350D01*
D02*
G37*
G36*
X0292500Y0345850D02*
X0285100D01*
Y0351850D01*
X0292500D01*
Y0345850D01*
D02*
G37*
G36*
X0324500Y0348000D02*
X0324500Y0347000D01*
X0320750Y0343250D01*
X0319000Y0345000D01*
X0317000Y0345000D01*
X0317000Y0355500D01*
X0324500Y0348000D01*
D02*
G37*
G36*
X0238350Y0367850D02*
X0236850Y0357350D01*
Y0339350D01*
X0230350D01*
Y0342350D01*
X0228850Y0343850D01*
X0216350D01*
X0213850Y0341350D01*
X0208350Y0341350D01*
X0207350Y0342350D01*
Y0350850D01*
X0228350Y0351350D01*
X0235350Y0363850D01*
Y0376850D01*
X0238350D01*
Y0367850D01*
D02*
G37*
G36*
X0516307Y0329350D02*
X0514807Y0327850D01*
X0507807Y0327850D01*
X0506307Y0329350D01*
X0506307Y0334850D01*
X0516307D01*
Y0329350D01*
D02*
G37*
G36*
X0306850Y0330894D02*
X0306850Y0323894D01*
X0305350Y0322394D01*
X0299850Y0322394D01*
Y0332394D01*
X0305350D01*
X0306850Y0330894D01*
D02*
G37*
G36*
X0503309Y0326205D02*
X0518661D01*
Y0318331D01*
X0515452Y0318304D01*
X0515452Y0318304D01*
X0515041Y0319105D01*
X0514000Y0320572D01*
X0512699Y0321815D01*
X0511186Y0322789D01*
X0509516Y0323459D01*
X0507750Y0323800D01*
X0505951D01*
X0504184Y0323459D01*
X0502515Y0322789D01*
X0501002Y0321815D01*
X0499701Y0320572D01*
X0498660Y0319105D01*
X0498248Y0318304D01*
X0495039Y0318331D01*
Y0326205D01*
X0495398D01*
Y0334116D01*
X0503309Y0326205D01*
D02*
G37*
G36*
X0503850Y0347350D02*
Y0339350D01*
X0502850Y0338350D01*
X0497850D01*
Y0348350D01*
X0502850D01*
X0503850Y0347350D01*
D02*
G37*
G36*
X0306850Y0342850D02*
X0306850Y0335850D01*
X0305350Y0334350D01*
X0299850Y0334350D01*
Y0344350D01*
X0305350D01*
X0306850Y0342850D01*
D02*
G37*
G36*
X0420000Y0329500D02*
X0414000D01*
Y0334500D01*
X0417000Y0337500D01*
X0426000D01*
X0420000Y0329500D01*
D02*
G37*
G36*
X0448850Y0252807D02*
Y0242807D01*
X0443350D01*
X0441850Y0244307D01*
X0441850Y0251307D01*
X0443350Y0252807D01*
X0448850Y0252807D01*
D02*
G37*
G36*
X0421000Y0245000D02*
X0423332D01*
Y0242519D01*
X0421281D01*
X0415400Y0248400D01*
X0417600D01*
X0421000Y0245000D01*
D02*
G37*
G36*
X0278350Y0239850D02*
X0273350D01*
Y0243850D01*
X0278350D01*
Y0239850D01*
D02*
G37*
G36*
X0249350Y0251850D02*
X0244350D01*
Y0254850D01*
X0249350D01*
Y0251850D01*
D02*
G37*
G36*
X0264350Y0247850D02*
X0259850D01*
Y0267850D01*
X0264350D01*
Y0247850D01*
D02*
G37*
G36*
X0306850Y0254894D02*
X0306850Y0247894D01*
X0305350Y0246394D01*
X0299850Y0246394D01*
Y0256394D01*
X0305350D01*
X0306850Y0254894D01*
D02*
G37*
G36*
X0286850Y0265372D02*
X0289850Y0262372D01*
Y0246329D01*
X0288850Y0245329D01*
Y0236329D01*
X0285350D01*
Y0250829D01*
X0283840Y0252340D01*
X0283850Y0261372D01*
X0284850Y0263372D01*
X0286350Y0266829D01*
X0286850Y0265372D01*
D02*
G37*
G36*
X0290250Y0214500D02*
X0285750D01*
X0282250Y0218000D01*
X0282500Y0220500D01*
X0284750Y0221500D01*
X0290250D01*
Y0214500D01*
D02*
G37*
G36*
X0237500Y0213500D02*
X0232000D01*
X0230500Y0215000D01*
Y0220000D01*
X0237500D01*
Y0213500D01*
D02*
G37*
G36*
X0492300Y0211500D02*
X0486000D01*
Y0217600D01*
X0492300D01*
Y0211500D01*
D02*
G37*
G36*
X0509350Y0232350D02*
X0507850Y0230850D01*
X0503850D01*
X0502350Y0232350D01*
Y0236850D01*
X0509350D01*
Y0232350D01*
D02*
G37*
G36*
X0448850Y0240807D02*
Y0230807D01*
X0443350D01*
X0441850Y0232307D01*
X0441850Y0239307D01*
X0443350Y0240807D01*
X0448850Y0240807D01*
D02*
G37*
G36*
X0376500Y0227000D02*
X0374000D01*
Y0231000D01*
X0376500D01*
Y0227000D01*
D02*
G37*
G36*
X0219850Y0285350D02*
X0218500Y0284000D01*
X0214961Y0287539D01*
X0214850Y0288850D01*
X0219850D01*
Y0285350D01*
D02*
G37*
G36*
X0315850Y0288850D02*
Y0284850D01*
X0309350Y0283350D01*
X0303173Y0284850D01*
Y0288850D01*
X0309350Y0290350D01*
X0315850Y0288850D01*
D02*
G37*
G36*
X0295350Y0281894D02*
X0270000D01*
Y0287500D01*
X0267000Y0288500D01*
Y0289500D01*
X0270000Y0290500D01*
Y0291894D01*
X0295350D01*
Y0281894D01*
D02*
G37*
G36*
X0381000Y0290500D02*
Y0290000D01*
X0377000D01*
Y0294500D01*
X0381000Y0290500D01*
D02*
G37*
G36*
X0326500Y0287500D02*
X0323000D01*
Y0289500D01*
X0326500Y0293000D01*
X0326500Y0287500D01*
D02*
G37*
G36*
X0203850Y0284850D02*
X0200350D01*
Y0298350D01*
X0203850D01*
Y0284850D01*
D02*
G37*
G36*
X0470850Y0289850D02*
Y0279850D01*
X0459500D01*
Y0284000D01*
X0465350Y0289850D01*
X0470850Y0289850D01*
D02*
G37*
G36*
X0244850Y0262850D02*
X0237850D01*
Y0266850D01*
X0244850D01*
Y0262850D01*
D02*
G37*
G36*
X0454391Y0255000D02*
X0444500D01*
Y0259500D01*
X0447669Y0259500D01*
X0454391Y0255000D01*
D02*
G37*
G36*
X0273350Y0262307D02*
Y0252307D01*
X0267850D01*
X0266350Y0253807D01*
X0266350Y0260807D01*
X0267850Y0262307D01*
X0273350Y0262307D01*
D02*
G37*
G36*
X0320661Y0282913D02*
Y0275039D01*
X0305685D01*
X0298039Y0267394D01*
Y0275039D01*
X0297039D01*
Y0282913D01*
X0300249Y0282940D01*
X0300660Y0282139D01*
X0301701Y0280672D01*
X0303002Y0279429D01*
X0304515Y0278455D01*
X0306184Y0277785D01*
X0307951Y0277445D01*
X0309750D01*
X0311516Y0277785D01*
X0313186Y0278455D01*
X0314699Y0279429D01*
X0316000Y0280672D01*
X0317041Y0282139D01*
X0317452Y0282940D01*
X0320661Y0282913D01*
D02*
G37*
G36*
X0486850Y0290850D02*
Y0274350D01*
X0484850D01*
X0480850Y0276850D01*
Y0288894D01*
X0481850Y0290894D01*
X0483350Y0294350D01*
X0486850Y0290850D01*
D02*
G37*
G36*
X0504350Y0282850D02*
Y0276350D01*
X0502339Y0274339D01*
X0497850D01*
X0497850Y0284350D01*
X0502339D01*
X0504350Y0282850D01*
D02*
G37*
G36*
X0384104Y0473081D02*
Y0468898D01*
X0375197D01*
Y0471457D01*
X0378642Y0474902D01*
X0382283D01*
X0384104Y0473081D01*
D02*
G37*
G36*
X0276134Y0471524D02*
X0274476Y0471524D01*
X0269100Y0466147D01*
Y0450100D01*
X0268613Y0449988D01*
X0265100Y0446475D01*
X0261075D01*
X0265300Y0450700D01*
X0266000D01*
Y0478543D01*
X0276181Y0478543D01*
X0276134Y0471524D01*
D02*
G37*
G36*
X0402165Y0470669D02*
X0398763Y0469347D01*
X0396819Y0467402D01*
X0396674Y0448574D01*
X0393615Y0445515D01*
X0390707D01*
X0388292Y0443100D01*
X0382000Y0443100D01*
X0390748Y0451848D01*
X0390748Y0477362D01*
X0402165Y0477362D01*
Y0470669D01*
D02*
G37*
G36*
X0488189Y0507677D02*
X0481496Y0500984D01*
Y0478937D01*
Y0472244D01*
X0466929D01*
X0473622Y0478937D01*
Y0500984D01*
X0466929Y0507677D01*
X0481496D01*
X0488189Y0507677D01*
D02*
G37*
G36*
X0361811Y0507283D02*
X0355118Y0500591D01*
Y0478543D01*
X0361811Y0471850D01*
X0347244D01*
Y0478543D01*
Y0500591D01*
X0340551Y0507283D01*
X0355118D01*
X0361811Y0507283D01*
D02*
G37*
G36*
X0255614Y0475886D02*
X0258514Y0472986D01*
X0258514Y0470026D01*
X0250833D01*
Y0473667D01*
X0253051Y0475886D01*
X0255614Y0475886D01*
D02*
G37*
G36*
X0258000Y0436000D02*
X0252000D01*
Y0439000D01*
X0258000D01*
Y0436000D01*
D02*
G37*
G36*
Y0431500D02*
X0252000D01*
Y0434500D01*
X0258000D01*
Y0431500D01*
D02*
G37*
G36*
X0511000Y0430000D02*
Y0426500D01*
X0500000D01*
Y0430000D01*
X0503000Y0433000D01*
X0508000Y0433000D01*
X0511000Y0430000D01*
D02*
G37*
G36*
X0375197Y0432899D02*
X0368503Y0426205D01*
X0350000D01*
Y0430905D01*
X0361024D01*
X0368718Y0438600D01*
X0375197D01*
Y0432899D01*
D02*
G37*
G36*
X0497244Y0445669D02*
X0487402Y0435827D01*
X0470669Y0435827D01*
Y0441732D01*
X0485433D01*
X0491339Y0447638D01*
X0491339Y0454528D01*
X0497244D01*
X0497244Y0445669D01*
D02*
G37*
G36*
X0370866Y0445276D02*
X0361024Y0435433D01*
X0344291Y0435433D01*
Y0441339D01*
X0359055D01*
X0364961Y0447244D01*
X0364961Y0454134D01*
X0370866D01*
X0370866Y0445276D01*
D02*
G37*
G36*
X0512350Y0433850D02*
X0510850Y0433350D01*
X0507850Y0434850D01*
X0507850Y0437534D01*
X0526500D01*
X0512350Y0433850D01*
D02*
G37*
G36*
X0266850Y0509500D02*
X0256350D01*
Y0515400D01*
X0266850D01*
Y0509500D01*
D02*
G37*
G36*
X0322400Y0503400D02*
X0313850D01*
Y0507500D01*
X0322400D01*
Y0503400D01*
D02*
G37*
G36*
X0450197Y0507677D02*
X0451378Y0506496D01*
X0451378Y0503543D01*
X0449335Y0501500D01*
X0439120D01*
X0438959Y0502541D01*
X0442913Y0506496D01*
X0444095Y0507677D01*
X0450197Y0507677D01*
D02*
G37*
G36*
X0472441Y0542520D02*
Y0541339D01*
X0471654Y0539370D01*
X0470079Y0541339D01*
X0465354D01*
Y0556299D01*
X0472441Y0542520D01*
D02*
G37*
G36*
X0473622Y0518504D02*
Y0511417D01*
X0469685D01*
Y0518504D01*
X0471654Y0520472D01*
X0473622Y0518504D01*
D02*
G37*
G36*
X0242600Y0518000D02*
X0244892Y0515708D01*
X0244850Y0510500D01*
X0234850D01*
X0234900Y0516750D01*
X0236150Y0518000D01*
X0242600Y0518000D01*
D02*
G37*
G36*
X0296850Y0498600D02*
X0287350D01*
Y0503600D01*
X0296850D01*
Y0498600D01*
D02*
G37*
G36*
X0267001Y0495700D02*
X0328543D01*
X0328543Y0490158D01*
X0263976D01*
X0262008Y0492126D01*
X0255350D01*
Y0498700D01*
X0264001D01*
X0267001Y0495700D01*
D02*
G37*
G36*
X0388000Y0483500D02*
X0381496D01*
Y0486000D01*
X0388000D01*
Y0483500D01*
D02*
G37*
G36*
X0248000Y0478500D02*
X0247000Y0475500D01*
X0243000Y0477500D01*
X0244000Y0480500D01*
X0248000Y0478500D01*
D02*
G37*
G36*
X0275350Y0498300D02*
X0270225Y0503425D01*
X0270757Y0504300D01*
X0275350D01*
Y0498300D01*
D02*
G37*
G36*
X0247850Y0506850D02*
Y0502848D01*
X0240352Y0495350D01*
X0234850D01*
Y0499850D01*
Y0503350D01*
X0240348Y0503350D01*
X0243848Y0506850D01*
X0247850Y0506850D01*
D02*
G37*
G36*
X0394567Y0495000D02*
X0454921Y0495000D01*
Y0490551D01*
X0390354D01*
X0388386Y0492520D01*
X0382283D01*
Y0499213D01*
X0390354D01*
X0394567Y0495000D01*
D02*
G37*
G36*
X0418500Y0391500D02*
Y0386500D01*
X0417500Y0385500D01*
X0417500Y0383000D01*
X0409500D01*
Y0389000D01*
X0414500D01*
X0417000Y0391500D01*
X0418500Y0391500D01*
D02*
G37*
G36*
X0402957Y0381348D02*
X0404500Y0379500D01*
X0403000Y0378000D01*
X0396000Y0378000D01*
Y0382000D01*
X0396894Y0385106D01*
X0402957Y0381348D01*
D02*
G37*
G36*
X0384000Y0379000D02*
Y0377000D01*
X0379500D01*
Y0383500D01*
X0384000Y0379000D01*
D02*
G37*
G36*
X0245500Y0393350D02*
Y0389350D01*
X0228850D01*
Y0393350D01*
X0239000D01*
Y0397500D01*
X0245500D01*
Y0393350D01*
D02*
G37*
G36*
X0467350Y0392350D02*
X0467350Y0389000D01*
X0461000Y0389000D01*
X0453937Y0396063D01*
X0453937Y0398819D01*
X0457874D01*
X0467350Y0392350D01*
D02*
G37*
G36*
X0337500Y0393000D02*
Y0388350D01*
X0334850D01*
X0327756Y0395669D01*
Y0397638D01*
X0331693D01*
X0337500Y0393000D01*
D02*
G37*
G36*
X0207850Y0376500D02*
X0201850D01*
Y0383500D01*
X0207850D01*
Y0376500D01*
D02*
G37*
G36*
X0439500Y0371000D02*
X0435000Y0366000D01*
Y0362000D01*
X0430000Y0362000D01*
X0426500Y0365500D01*
X0426500Y0370500D01*
X0434500Y0370500D01*
X0438500Y0374000D01*
X0441000D01*
X0439500Y0371000D01*
D02*
G37*
G36*
X0542350Y0368394D02*
Y0363850D01*
X0538350Y0361850D01*
X0535350D01*
Y0369894D01*
X0540850D01*
X0542350Y0368394D01*
D02*
G37*
G36*
X0487800Y0338300D02*
X0484850Y0335350D01*
X0483285Y0333785D01*
X0482350Y0335350D01*
Y0340350D01*
X0481201Y0341500D01*
X0478350Y0341500D01*
X0478350Y0353950D01*
X0480000Y0355600D01*
X0483400Y0355600D01*
X0484850Y0357050D01*
X0484850Y0365000D01*
X0487800D01*
Y0338300D01*
D02*
G37*
G36*
X0455500Y0375500D02*
X0449000D01*
Y0383500D01*
X0453000D01*
Y0385500D01*
X0455500D01*
Y0375500D01*
D02*
G37*
G36*
X0438500Y0380000D02*
Y0377000D01*
X0429000Y0374000D01*
Y0377000D01*
X0434500Y0382500D01*
X0441000D01*
X0438500Y0380000D01*
D02*
G37*
G36*
X0449500Y0363000D02*
X0446500D01*
Y0370500D01*
X0449500D01*
Y0363000D01*
D02*
G37*
G36*
X0266700Y0421300D02*
X0279528D01*
Y0417323D01*
X0265077Y0417323D01*
X0259900Y0422500D01*
X0264240Y0423760D01*
X0266700Y0421300D01*
D02*
G37*
G36*
X0220500Y0413500D02*
X0216500D01*
X0217000Y0417000D01*
X0219500D01*
X0220500Y0413500D01*
D02*
G37*
G36*
X0392126Y0425100D02*
X0387500D01*
Y0422600D01*
X0383994Y0421600D01*
X0387200D01*
Y0413100D01*
X0382600D01*
Y0421203D01*
X0381890Y0421000D01*
Y0425100D01*
Y0428740D01*
X0392126D01*
Y0425100D01*
D02*
G37*
G36*
X0225000Y0423000D02*
X0222000D01*
Y0427500D01*
X0225000D01*
Y0423000D01*
D02*
G37*
G36*
X0502700Y0434991D02*
X0494000Y0426291D01*
X0490268D01*
X0485963Y0421986D01*
X0477165D01*
Y0431299D01*
X0487402D01*
X0498819Y0442717D01*
Y0463583D01*
X0502756D01*
X0502700Y0434991D01*
D02*
G37*
G36*
X0255500Y0419000D02*
X0248500D01*
Y0422500D01*
X0255500D01*
Y0419000D01*
D02*
G37*
G36*
X0471063Y0427756D02*
Y0410039D01*
X0475984Y0405118D01*
X0464685Y0405118D01*
Y0436614D01*
X0471063Y0427756D01*
D02*
G37*
G36*
X0324606Y0454134D02*
X0362008D01*
X0362008Y0448228D01*
X0357087Y0443307D01*
X0324606D01*
Y0434449D01*
X0313779D01*
X0310827Y0431496D01*
X0309400Y0410482D01*
X0303346Y0405709D01*
Y0395866D01*
X0292850D01*
Y0406693D01*
X0297047D01*
X0299016Y0408661D01*
Y0416142D01*
X0297835Y0417323D01*
X0291339D01*
Y0429134D01*
X0297835D01*
X0299016Y0430315D01*
Y0434449D01*
Y0445177D01*
X0294693Y0449500D01*
X0286000Y0449500D01*
X0286000Y0458000D01*
X0299016Y0458000D01*
Y0458071D01*
X0324606D01*
Y0454134D01*
D02*
G37*
G36*
X0272047Y0400000D02*
X0271972Y0394972D01*
X0269500Y0392500D01*
X0266142Y0392500D01*
Y0413779D01*
X0272047Y0400000D01*
D02*
G37*
G36*
X0263850Y0391350D02*
X0256850D01*
X0253350Y0394850D01*
X0252000D01*
Y0397850D01*
X0263850D01*
Y0391350D01*
D02*
G37*
G36*
X0344685Y0427362D02*
X0344685Y0413500D01*
X0348721D01*
Y0409500D01*
X0345500D01*
X0340850Y0404850D01*
X0338307Y0404724D01*
Y0436221D01*
X0344685Y0427362D01*
D02*
G37*
G36*
X0421500Y0398500D02*
X0418500D01*
Y0402000D01*
X0421500D01*
Y0398500D01*
D02*
G37*
G36*
X0451000Y0454528D02*
X0488386D01*
X0488386Y0448622D01*
X0483465Y0443701D01*
X0449201D01*
X0437191Y0431691D01*
X0435778Y0410876D01*
X0429724Y0406102D01*
Y0396260D01*
X0423425D01*
Y0407087D01*
X0425394Y0409055D01*
Y0416535D01*
X0424213Y0417717D01*
X0417717D01*
Y0429528D01*
X0424213D01*
X0425394Y0430709D01*
Y0434842D01*
Y0442717D01*
X0419610Y0448500D01*
X0412000D01*
X0409055Y0451445D01*
X0409055Y0457480D01*
X0425394D01*
Y0458465D01*
X0451000D01*
Y0454528D01*
D02*
G37*
D10*
X0493525Y0215561D02*
D03*
X0476911D02*
D03*
D11*
X0463557Y0358800D02*
D03*
X0470643D02*
D03*
X0474457Y0359600D02*
D03*
X0481543D02*
D03*
X0435957Y0311900D02*
D03*
X0443043D02*
D03*
X0259043Y0388000D02*
D03*
X0251957D02*
D03*
X0393701Y0501968D02*
D03*
X0400787D02*
D03*
X0382543Y0392000D02*
D03*
X0375457D02*
D03*
X0311807Y0389000D02*
D03*
X0318894D02*
D03*
X0241457Y0293000D02*
D03*
X0248543D02*
D03*
X0347043Y0274500D02*
D03*
X0339957D02*
D03*
X0490894Y0253850D02*
D03*
X0483807D02*
D03*
X0429443Y0228900D02*
D03*
X0422357D02*
D03*
X0425543Y0285500D02*
D03*
X0418457D02*
D03*
X0480043Y0376300D02*
D03*
X0472957D02*
D03*
X0464543Y0325800D02*
D03*
X0457457D02*
D03*
X0508043Y0221900D02*
D03*
X0500957D02*
D03*
X0505457Y0403000D02*
D03*
X0512543D02*
D03*
X0455457Y0341000D02*
D03*
X0462543D02*
D03*
X0440043Y0344500D02*
D03*
X0432957D02*
D03*
X0433543Y0510000D02*
D03*
X0426457D02*
D03*
X0539543Y0451500D02*
D03*
X0532457D02*
D03*
X0274350Y0309394D02*
D03*
X0281437D02*
D03*
X0471350Y0336894D02*
D03*
X0478437D02*
D03*
X0416457Y0317000D02*
D03*
X0423543D02*
D03*
X0422457Y0353000D02*
D03*
X0429543D02*
D03*
X0417543Y0374000D02*
D03*
X0410457D02*
D03*
X0315257Y0510800D02*
D03*
X0322343D02*
D03*
X0386957Y0392000D02*
D03*
X0394043D02*
D03*
X0279457Y0443000D02*
D03*
X0286543D02*
D03*
X0403957Y0442500D02*
D03*
X0411043D02*
D03*
X0273622Y0425984D02*
D03*
X0280709D02*
D03*
X0285039D02*
D03*
X0292126D02*
D03*
X0411024Y0424803D02*
D03*
X0418110D02*
D03*
X0417543Y0230500D02*
D03*
X0410457D02*
D03*
X0422043Y0225000D02*
D03*
X0414957D02*
D03*
X0402957Y0379500D02*
D03*
X0410043D02*
D03*
X0415957Y0383500D02*
D03*
X0423043D02*
D03*
X0415043Y0301000D02*
D03*
X0407957D02*
D03*
X0384457Y0288500D02*
D03*
X0391543D02*
D03*
X0248457Y0270500D02*
D03*
X0255543D02*
D03*
X0228457Y0479500D02*
D03*
X0235543D02*
D03*
X0398957Y0392000D02*
D03*
X0406043D02*
D03*
X0225043Y0463000D02*
D03*
X0217957D02*
D03*
X0361807Y0248350D02*
D03*
X0368894D02*
D03*
X0365457Y0253500D02*
D03*
X0372543D02*
D03*
X0354894Y0231850D02*
D03*
X0347807D02*
D03*
X0406457Y0369000D02*
D03*
X0413543D02*
D03*
X0349457Y0284500D02*
D03*
X0356543D02*
D03*
X0217394Y0426350D02*
D03*
X0210307D02*
D03*
X0259043Y0383000D02*
D03*
X0251957D02*
D03*
X0535957Y0327500D02*
D03*
X0543043D02*
D03*
X0309807Y0346350D02*
D03*
X0316894D02*
D03*
X0297807Y0347350D02*
D03*
X0304894D02*
D03*
X0229307Y0279350D02*
D03*
X0236394D02*
D03*
X0256394Y0258350D02*
D03*
X0249307D02*
D03*
X0238307Y0215350D02*
D03*
X0245394D02*
D03*
X0237457Y0246000D02*
D03*
X0244543D02*
D03*
X0434257Y0307000D02*
D03*
X0441343D02*
D03*
X0448957Y0313000D02*
D03*
X0456043D02*
D03*
X0341043Y0358000D02*
D03*
X0333957D02*
D03*
X0342043Y0364000D02*
D03*
X0334957D02*
D03*
X0342043Y0369000D02*
D03*
X0334957D02*
D03*
X0345043Y0373500D02*
D03*
X0337957D02*
D03*
X0342543Y0378500D02*
D03*
X0335457D02*
D03*
X0483043Y0388000D02*
D03*
X0475957D02*
D03*
X0506057Y0471200D02*
D03*
X0513143D02*
D03*
X0528143Y0429900D02*
D03*
X0521057D02*
D03*
X0515843Y0506100D02*
D03*
X0508757D02*
D03*
D12*
X0430800Y0208157D02*
D03*
Y0215243D02*
D03*
X0438100Y0233757D02*
D03*
Y0240843D02*
D03*
X0203500Y0370043D02*
D03*
Y0362957D02*
D03*
X0217350Y0372894D02*
D03*
Y0365807D02*
D03*
X0221850D02*
D03*
Y0372894D02*
D03*
X0226400Y0371643D02*
D03*
Y0364557D02*
D03*
X0230800Y0364457D02*
D03*
Y0371543D02*
D03*
X0253850Y0395807D02*
D03*
Y0402894D02*
D03*
X0273500Y0383543D02*
D03*
Y0376457D02*
D03*
X0413000Y0406957D02*
D03*
Y0414043D02*
D03*
X0405100Y0418257D02*
D03*
Y0425343D02*
D03*
X0411500Y0503457D02*
D03*
Y0510543D02*
D03*
X0240350Y0485894D02*
D03*
Y0478807D02*
D03*
X0207500Y0459043D02*
D03*
Y0451957D02*
D03*
X0248000Y0466543D02*
D03*
Y0459457D02*
D03*
X0205500Y0438543D02*
D03*
Y0431457D02*
D03*
X0227500Y0433457D02*
D03*
Y0440543D02*
D03*
X0248500Y0440043D02*
D03*
Y0432957D02*
D03*
X0306850Y0385307D02*
D03*
Y0392394D02*
D03*
X0310350Y0366894D02*
D03*
Y0359807D02*
D03*
X0324000Y0355543D02*
D03*
Y0348457D02*
D03*
X0270100Y0304357D02*
D03*
Y0311443D02*
D03*
X0252500Y0274957D02*
D03*
Y0282043D02*
D03*
X0306850Y0236394D02*
D03*
Y0229307D02*
D03*
X0303000Y0204457D02*
D03*
Y0211543D02*
D03*
X0297500D02*
D03*
Y0204457D02*
D03*
X0361500Y0299043D02*
D03*
Y0291957D02*
D03*
X0356500Y0299043D02*
D03*
Y0291957D02*
D03*
X0367500Y0283957D02*
D03*
Y0291043D02*
D03*
X0385500Y0274957D02*
D03*
Y0282043D02*
D03*
X0370500Y0269957D02*
D03*
Y0277043D02*
D03*
X0365350Y0269807D02*
D03*
Y0276894D02*
D03*
X0375500Y0259957D02*
D03*
Y0267043D02*
D03*
X0380500Y0260457D02*
D03*
Y0267543D02*
D03*
X0393000Y0250957D02*
D03*
Y0258043D02*
D03*
X0358350Y0243894D02*
D03*
Y0236807D02*
D03*
X0432500Y0275957D02*
D03*
Y0283043D02*
D03*
X0455500Y0291043D02*
D03*
Y0283957D02*
D03*
X0429000Y0335543D02*
D03*
Y0328457D02*
D03*
X0436500Y0325043D02*
D03*
Y0317957D02*
D03*
X0425500Y0376543D02*
D03*
Y0369457D02*
D03*
X0438500Y0370543D02*
D03*
Y0363457D02*
D03*
X0443500Y0362757D02*
D03*
Y0369843D02*
D03*
X0449500Y0394043D02*
D03*
Y0386957D02*
D03*
X0459000Y0376457D02*
D03*
Y0383543D02*
D03*
X0464000D02*
D03*
Y0376457D02*
D03*
X0500500Y0380957D02*
D03*
Y0388043D02*
D03*
X0464700Y0370343D02*
D03*
Y0363257D02*
D03*
X0458800Y0353943D02*
D03*
Y0346857D02*
D03*
X0467000Y0331457D02*
D03*
Y0338543D02*
D03*
X0463000Y0320543D02*
D03*
Y0313457D02*
D03*
Y0308543D02*
D03*
Y0301457D02*
D03*
X0470350Y0237894D02*
D03*
Y0230807D02*
D03*
X0513350Y0237894D02*
D03*
Y0230807D02*
D03*
Y0249894D02*
D03*
Y0242807D02*
D03*
X0533500Y0379957D02*
D03*
Y0387043D02*
D03*
X0521500Y0401043D02*
D03*
Y0393957D02*
D03*
X0511000Y0406457D02*
D03*
Y0413543D02*
D03*
X0523000Y0416543D02*
D03*
Y0409457D02*
D03*
X0535400Y0438457D02*
D03*
Y0445543D02*
D03*
X0514500Y0451043D02*
D03*
Y0443957D02*
D03*
X0517800Y0492057D02*
D03*
Y0499143D02*
D03*
X0348900Y0304143D02*
D03*
Y0297057D02*
D03*
X0334100Y0247543D02*
D03*
Y0240457D02*
D03*
D13*
X0422441Y0340760D02*
D03*
X0425000D02*
D03*
X0427559D02*
D03*
Y0348240D02*
D03*
X0422441D02*
D03*
X0447059Y0340240D02*
D03*
X0444500D02*
D03*
X0441941D02*
D03*
Y0332760D02*
D03*
X0447059D02*
D03*
D14*
X0321900Y0341800D02*
D03*
Y0340200D02*
D03*
X0515000Y0415700D02*
D03*
Y0417300D02*
D03*
D15*
X0210850Y0348854D02*
D03*
Y0361846D02*
D03*
X0237000Y0378504D02*
D03*
Y0391496D02*
D03*
X0238350Y0510350D02*
D03*
Y0497358D02*
D03*
X0321654Y0458465D02*
D03*
Y0471457D02*
D03*
X0312795Y0458465D02*
D03*
Y0471457D02*
D03*
X0303937Y0458465D02*
D03*
Y0471457D02*
D03*
X0295079D02*
D03*
Y0458465D02*
D03*
X0286000Y0471996D02*
D03*
Y0459004D02*
D03*
X0276378Y0459646D02*
D03*
Y0472638D02*
D03*
X0447047Y0470866D02*
D03*
Y0457874D02*
D03*
X0438189Y0470866D02*
D03*
Y0457874D02*
D03*
X0429331D02*
D03*
Y0470866D02*
D03*
X0420472Y0457874D02*
D03*
Y0470866D02*
D03*
X0411614Y0457874D02*
D03*
Y0470866D02*
D03*
X0401968Y0458465D02*
D03*
Y0471457D02*
D03*
X0447047Y0490551D02*
D03*
Y0477559D02*
D03*
X0438189Y0490551D02*
D03*
Y0477559D02*
D03*
X0429331D02*
D03*
Y0490551D02*
D03*
X0420472Y0477559D02*
D03*
Y0490551D02*
D03*
X0411614Y0477559D02*
D03*
Y0490551D02*
D03*
X0321654Y0479134D02*
D03*
Y0492126D02*
D03*
X0312795Y0479134D02*
D03*
Y0492126D02*
D03*
X0303937Y0479134D02*
D03*
Y0492126D02*
D03*
X0295079D02*
D03*
Y0479134D02*
D03*
X0286221Y0492126D02*
D03*
Y0479134D02*
D03*
X0233500Y0441496D02*
D03*
Y0428504D02*
D03*
X0242500D02*
D03*
Y0441496D02*
D03*
X0370000Y0410496D02*
D03*
Y0397504D02*
D03*
X0378500D02*
D03*
Y0410496D02*
D03*
X0295500Y0359004D02*
D03*
Y0371996D02*
D03*
X0304000Y0361004D02*
D03*
Y0373996D02*
D03*
X0358850Y0270847D02*
D03*
Y0257854D02*
D03*
X0395900Y0232504D02*
D03*
Y0245496D02*
D03*
X0462350Y0279847D02*
D03*
Y0266854D02*
D03*
X0422500Y0322504D02*
D03*
Y0335496D02*
D03*
X0494000Y0373004D02*
D03*
Y0385996D02*
D03*
X0505850Y0235854D02*
D03*
Y0248847D02*
D03*
X0518350Y0291846D02*
D03*
Y0278854D02*
D03*
X0509850Y0291846D02*
D03*
Y0278854D02*
D03*
X0511850Y0353354D02*
D03*
Y0366347D02*
D03*
X0503000Y0427496D02*
D03*
Y0414504D02*
D03*
X0522600Y0449096D02*
D03*
Y0436104D02*
D03*
D16*
X0244850Y0378354D02*
D03*
Y0391347D02*
D03*
X0402165Y0490354D02*
D03*
Y0477362D02*
D03*
X0393307Y0490354D02*
D03*
Y0477362D02*
D03*
X0276400Y0490696D02*
D03*
Y0477704D02*
D03*
X0267717Y0491339D02*
D03*
Y0478346D02*
D03*
X0262850Y0220346D02*
D03*
Y0207354D02*
D03*
X0454000Y0274996D02*
D03*
Y0262004D02*
D03*
X0499000Y0405996D02*
D03*
Y0393004D02*
D03*
X0447500Y0293604D02*
D03*
Y0306596D02*
D03*
X0520850Y0355847D02*
D03*
Y0342854D02*
D03*
X0394000Y0263004D02*
D03*
Y0275996D02*
D03*
D17*
X0413000Y0401543D02*
D03*
Y0394457D02*
D03*
X0386417Y0484449D02*
D03*
Y0477362D02*
D03*
X0447000Y0502543D02*
D03*
Y0495457D02*
D03*
X0420500Y0511043D02*
D03*
Y0503957D02*
D03*
X0320472Y0502953D02*
D03*
Y0495866D02*
D03*
X0261500Y0485043D02*
D03*
Y0477957D02*
D03*
X0284500Y0360457D02*
D03*
Y0367543D02*
D03*
X0339500Y0345457D02*
D03*
Y0352543D02*
D03*
X0253000Y0286457D02*
D03*
Y0293543D02*
D03*
X0257500Y0282043D02*
D03*
Y0274957D02*
D03*
X0292500Y0204457D02*
D03*
Y0211543D02*
D03*
X0375500Y0290543D02*
D03*
Y0283457D02*
D03*
X0380500Y0280043D02*
D03*
Y0272957D02*
D03*
X0375500Y0278543D02*
D03*
Y0271457D02*
D03*
X0365350Y0265394D02*
D03*
Y0258307D02*
D03*
X0398000Y0250957D02*
D03*
Y0258043D02*
D03*
X0416500Y0305957D02*
D03*
Y0313043D02*
D03*
Y0321957D02*
D03*
Y0329043D02*
D03*
X0437000Y0332457D02*
D03*
Y0339543D02*
D03*
X0433500Y0368957D02*
D03*
Y0376043D02*
D03*
X0487000Y0379543D02*
D03*
Y0372457D02*
D03*
X0451000Y0348043D02*
D03*
Y0340957D02*
D03*
X0454500Y0305043D02*
D03*
Y0297957D02*
D03*
X0504850Y0359307D02*
D03*
Y0366394D02*
D03*
X0516500Y0393957D02*
D03*
Y0401043D02*
D03*
X0529000Y0414543D02*
D03*
Y0407457D02*
D03*
X0510000Y0427543D02*
D03*
Y0420457D02*
D03*
X0529350Y0445394D02*
D03*
Y0438307D02*
D03*
X0342600Y0296857D02*
D03*
Y0303943D02*
D03*
X0229500Y0407543D02*
D03*
Y0400457D02*
D03*
D18*
X0253740Y0410630D02*
D03*
X0266732D02*
D03*
X0244854Y0512350D02*
D03*
X0257846D02*
D03*
X0414370Y0451968D02*
D03*
X0401378D02*
D03*
X0395472Y0513779D02*
D03*
X0382480D02*
D03*
X0275354Y0501350D02*
D03*
X0288347D02*
D03*
X0247496Y0449500D02*
D03*
X0234504D02*
D03*
X0288496Y0453000D02*
D03*
X0275504D02*
D03*
X0289504Y0218000D02*
D03*
X0302496D02*
D03*
X0284347Y0208850D02*
D03*
X0271354D02*
D03*
X0285496Y0349000D02*
D03*
X0272504D02*
D03*
X0305906Y0436024D02*
D03*
X0292913D02*
D03*
X0431890Y0434842D02*
D03*
X0418898D02*
D03*
X0411496Y0385500D02*
D03*
X0398504D02*
D03*
X0431496Y0390000D02*
D03*
X0418504D02*
D03*
X0325847Y0231850D02*
D03*
X0312854D02*
D03*
X0227996Y0469500D02*
D03*
X0215004D02*
D03*
X0213004Y0455000D02*
D03*
X0225996D02*
D03*
X0318996Y0353500D02*
D03*
X0306004D02*
D03*
X0328847Y0361850D02*
D03*
X0315854D02*
D03*
X0261846Y0264850D02*
D03*
X0248854D02*
D03*
X0427504Y0300500D02*
D03*
X0440496D02*
D03*
D19*
X0258846Y0503850D02*
D03*
X0245854D02*
D03*
X0380315Y0451772D02*
D03*
X0393307D02*
D03*
X0308846Y0501350D02*
D03*
X0295854D02*
D03*
X0231004Y0299500D02*
D03*
X0243996D02*
D03*
X0464354Y0259350D02*
D03*
X0477347D02*
D03*
X0361496Y0401500D02*
D03*
X0348504D02*
D03*
X0345854Y0421350D02*
D03*
X0358846D02*
D03*
X0254134Y0453150D02*
D03*
X0267126D02*
D03*
X0487847Y0394850D02*
D03*
X0474854D02*
D03*
X0470504Y0417000D02*
D03*
X0483496D02*
D03*
X0230496Y0391500D02*
D03*
X0217504D02*
D03*
X0278346Y0512350D02*
D03*
X0265354D02*
D03*
X0284354Y0226350D02*
D03*
X0297346D02*
D03*
X0486704Y0365600D02*
D03*
X0499696D02*
D03*
X0283350Y0332850D02*
D03*
X0270358D02*
D03*
X0270354Y0340850D02*
D03*
X0283347D02*
D03*
X0362496Y0393000D02*
D03*
X0349504D02*
D03*
X0361496Y0386000D02*
D03*
X0348504D02*
D03*
D20*
X0401342Y0430760D02*
D03*
X0411657D02*
D03*
Y0434500D02*
D03*
Y0438240D02*
D03*
X0401342D02*
D03*
X0275342Y0431260D02*
D03*
X0285658D02*
D03*
Y0435000D02*
D03*
Y0438740D02*
D03*
X0275342D02*
D03*
X0403842Y0242240D02*
D03*
X0414157Y0238500D02*
D03*
X0403842Y0234760D02*
D03*
X0340193Y0270091D02*
D03*
X0350508D02*
D03*
Y0266350D02*
D03*
X0340193D02*
D03*
X0350508Y0262610D02*
D03*
X0340193D02*
D03*
X0480557Y0363960D02*
D03*
X0470243D02*
D03*
Y0367700D02*
D03*
X0480557D02*
D03*
X0470243Y0371440D02*
D03*
X0480557D02*
D03*
X0442742Y0325540D02*
D03*
X0453057D02*
D03*
Y0321800D02*
D03*
X0442742D02*
D03*
X0453057Y0318060D02*
D03*
X0442742D02*
D03*
D21*
X0434240Y0499441D02*
D03*
Y0502000D02*
D03*
Y0504559D02*
D03*
X0426760D02*
D03*
Y0499441D02*
D03*
X0266240Y0286441D02*
D03*
Y0289000D02*
D03*
Y0291559D02*
D03*
X0258760D02*
D03*
Y0286441D02*
D03*
D22*
X0324590Y0209193D02*
D03*
Y0219508D02*
D03*
X0320850D02*
D03*
X0317110D02*
D03*
Y0209193D02*
D03*
X0452660Y0360142D02*
D03*
Y0370458D02*
D03*
X0456400D02*
D03*
Y0360142D02*
D03*
X0460140Y0370458D02*
D03*
Y0360142D02*
D03*
X0520590Y0255193D02*
D03*
Y0265508D02*
D03*
X0516850D02*
D03*
X0513110D02*
D03*
Y0255193D02*
D03*
X0280240Y0371158D02*
D03*
Y0360842D02*
D03*
X0276500D02*
D03*
Y0371158D02*
D03*
X0272760Y0360842D02*
D03*
Y0371158D02*
D03*
X0210610Y0432693D02*
D03*
Y0443008D02*
D03*
X0214350D02*
D03*
Y0432693D02*
D03*
X0218091Y0443008D02*
D03*
Y0432693D02*
D03*
X0319590Y0384008D02*
D03*
Y0373693D02*
D03*
X0315850D02*
D03*
Y0384008D02*
D03*
X0312110Y0373693D02*
D03*
Y0384008D02*
D03*
X0437760Y0388158D02*
D03*
Y0377842D02*
D03*
X0441500D02*
D03*
X0445240D02*
D03*
Y0388158D02*
D03*
D23*
X0311319Y0221847D02*
D03*
Y0208854D02*
D03*
X0307382Y0221847D02*
D03*
Y0208854D02*
D03*
X0507819Y0267846D02*
D03*
Y0254854D02*
D03*
X0503882Y0267846D02*
D03*
Y0254854D02*
D03*
D24*
X0342700Y0283369D02*
D03*
Y0292031D02*
D03*
D25*
X0345811Y0238925D02*
D03*
Y0255539D02*
D03*
X0355945Y0452717D02*
D03*
Y0436102D02*
D03*
X0481539Y0452425D02*
D03*
Y0435811D02*
D03*
X0255811Y0332925D02*
D03*
Y0349539D02*
D03*
X0241961Y0397575D02*
D03*
Y0414189D02*
D03*
X0234811Y0221425D02*
D03*
Y0238039D02*
D03*
D26*
X0387700Y0226500D02*
D03*
X0389300D02*
D03*
X0523200Y0422500D02*
D03*
X0524800D02*
D03*
D27*
X0446500Y0269331D02*
D03*
Y0260669D02*
D03*
D28*
X0414387Y0247486D02*
D03*
X0415613Y0248514D02*
D03*
D29*
X0437807Y0284000D02*
D03*
X0451193D02*
D03*
D30*
X0448543Y0357700D02*
D03*
X0441457D02*
D03*
X0500557Y0227000D02*
D03*
X0507643D02*
D03*
X0520394Y0271350D02*
D03*
X0513307D02*
D03*
X0429043Y0358000D02*
D03*
X0421957D02*
D03*
X0351772Y0428543D02*
D03*
X0344685D02*
D03*
X0349606Y0460827D02*
D03*
X0356693D02*
D03*
X0477543Y0428500D02*
D03*
X0470457D02*
D03*
X0475957Y0462500D02*
D03*
X0483043D02*
D03*
X0231307Y0332350D02*
D03*
X0238394D02*
D03*
X0243394Y0353850D02*
D03*
X0236307D02*
D03*
X0499894Y0292350D02*
D03*
X0492807D02*
D03*
X0301894Y0264850D02*
D03*
X0294807D02*
D03*
X0502394Y0334350D02*
D03*
X0495307D02*
D03*
X0305043Y0307000D02*
D03*
X0297957D02*
D03*
X0485807Y0287394D02*
D03*
X0492894D02*
D03*
X0288807Y0259894D02*
D03*
X0295894D02*
D03*
X0478543Y0342600D02*
D03*
X0471457D02*
D03*
X0281843Y0315100D02*
D03*
X0274757D02*
D03*
X0283543Y0355000D02*
D03*
X0276457D02*
D03*
X0292126Y0420866D02*
D03*
X0285039D02*
D03*
X0418110Y0419685D02*
D03*
X0411024D02*
D03*
X0299803Y0443110D02*
D03*
X0292717D02*
D03*
X0425787Y0441929D02*
D03*
X0418701D02*
D03*
X0395276Y0507480D02*
D03*
X0388189D02*
D03*
X0259055Y0403543D02*
D03*
X0266142D02*
D03*
X0243543Y0456000D02*
D03*
X0236457D02*
D03*
X0324350Y0225350D02*
D03*
X0317264D02*
D03*
X0360043Y0277000D02*
D03*
X0352957D02*
D03*
X0534457Y0392500D02*
D03*
X0541543D02*
D03*
X0215307Y0448850D02*
D03*
X0222394D02*
D03*
X0322394Y0367850D02*
D03*
X0315307D02*
D03*
X0435957Y0393500D02*
D03*
X0443043D02*
D03*
D31*
X0495642Y0243409D02*
D03*
X0476823D02*
D03*
Y0248409D02*
D03*
X0495642D02*
D03*
Y0238409D02*
D03*
X0476823D02*
D03*
Y0233409D02*
D03*
X0495642D02*
D03*
X0507130Y0388480D02*
D03*
X0525949D02*
D03*
Y0383480D02*
D03*
X0507130D02*
D03*
Y0373480D02*
D03*
X0525949D02*
D03*
Y0378480D02*
D03*
X0507130D02*
D03*
X0406291Y0407059D02*
D03*
X0387472D02*
D03*
Y0412059D02*
D03*
X0406291D02*
D03*
Y0402059D02*
D03*
X0387472D02*
D03*
Y0397059D02*
D03*
X0406291D02*
D03*
X0280480Y0392831D02*
D03*
X0299299D02*
D03*
Y0387831D02*
D03*
X0280480D02*
D03*
Y0377831D02*
D03*
X0299299D02*
D03*
Y0382831D02*
D03*
X0280480D02*
D03*
D32*
X0511350Y0333945D02*
D03*
Y0345756D02*
D03*
X0280500Y0409905D02*
D03*
Y0398095D02*
D03*
X0251850Y0223445D02*
D03*
Y0235256D02*
D03*
X0253850Y0253256D02*
D03*
Y0241445D02*
D03*
X0383200Y0470405D02*
D03*
Y0458595D02*
D03*
X0367913Y0428543D02*
D03*
Y0416732D02*
D03*
X0257480Y0471654D02*
D03*
Y0459842D02*
D03*
X0492000Y0427906D02*
D03*
Y0416094D02*
D03*
X0261200Y0309206D02*
D03*
Y0297394D02*
D03*
D33*
X0542000Y0418307D02*
D03*
X0539500D02*
D03*
X0537000D02*
D03*
X0534500D02*
D03*
X0542000Y0400000D02*
D03*
X0539500D02*
D03*
X0537000D02*
D03*
X0534500D02*
D03*
D34*
X0273850Y0216126D02*
D03*
Y0225575D02*
D03*
X0339370Y0403740D02*
D03*
Y0394291D02*
D03*
X0465158Y0403937D02*
D03*
Y0394488D02*
D03*
X0473850Y0275850D02*
D03*
Y0266402D02*
D03*
X0492850Y0269575D02*
D03*
Y0260126D02*
D03*
D35*
X0536256Y0364850D02*
D03*
X0524445D02*
D03*
X0446945Y0247850D02*
D03*
X0458756D02*
D03*
X0446945Y0235850D02*
D03*
X0458756D02*
D03*
X0425595Y0402000D02*
D03*
X0437405D02*
D03*
X0299016Y0400984D02*
D03*
X0310827D02*
D03*
X0453094Y0427000D02*
D03*
X0464906D02*
D03*
X0435236Y0426968D02*
D03*
X0447047D02*
D03*
X0453094Y0414000D02*
D03*
X0464906D02*
D03*
X0435236Y0414173D02*
D03*
X0447047D02*
D03*
X0327559Y0413779D02*
D03*
X0339370D02*
D03*
X0327559Y0426575D02*
D03*
X0339370D02*
D03*
X0308858D02*
D03*
X0320669D02*
D03*
X0308858Y0413779D02*
D03*
X0320669D02*
D03*
X0214039Y0328350D02*
D03*
X0225850D02*
D03*
X0214039Y0316350D02*
D03*
X0225850D02*
D03*
X0235945Y0362350D02*
D03*
X0247756D02*
D03*
X0232945Y0345850D02*
D03*
X0244756D02*
D03*
X0498256Y0279350D02*
D03*
X0486445D02*
D03*
X0301256Y0251394D02*
D03*
X0289445D02*
D03*
X0468945Y0284894D02*
D03*
X0480756D02*
D03*
X0271945Y0257394D02*
D03*
X0283756D02*
D03*
X0469494Y0350400D02*
D03*
X0481306D02*
D03*
X0272094Y0323000D02*
D03*
X0283906D02*
D03*
X0498705Y0354900D02*
D03*
X0486895D02*
D03*
X0302406Y0327500D02*
D03*
X0290595D02*
D03*
X0498256Y0343394D02*
D03*
X0486445D02*
D03*
X0301256Y0315894D02*
D03*
X0289445D02*
D03*
X0316732Y0400984D02*
D03*
X0328543D02*
D03*
X0443094Y0402000D02*
D03*
X0454906D02*
D03*
X0202945Y0290350D02*
D03*
X0214756D02*
D03*
X0206945Y0381350D02*
D03*
X0218756D02*
D03*
X0300905Y0339000D02*
D03*
X0289094D02*
D03*
D36*
X0408555Y0266004D02*
D03*
Y0261004D02*
D03*
Y0256004D02*
D03*
Y0251004D02*
D03*
X0424500Y0266004D02*
D03*
Y0261004D02*
D03*
Y0256004D02*
D03*
Y0281004D02*
D03*
X0408555Y0276004D02*
D03*
Y0281004D02*
D03*
X0314350Y0324350D02*
D03*
Y0319350D02*
D03*
Y0314350D02*
D03*
Y0309350D02*
D03*
X0330295Y0324350D02*
D03*
Y0319350D02*
D03*
Y0314350D02*
D03*
Y0339350D02*
D03*
X0314350Y0334350D02*
D03*
Y0339350D02*
D03*
D37*
X0424500Y0251004D02*
D03*
Y0276004D02*
D03*
X0330295Y0309350D02*
D03*
Y0334350D02*
D03*
D38*
X0312870Y0240480D02*
D03*
Y0259299D02*
D03*
X0317870D02*
D03*
Y0240480D02*
D03*
X0327870D02*
D03*
Y0259299D02*
D03*
X0322870D02*
D03*
Y0240480D02*
D03*
X0208350Y0400350D02*
D03*
Y0419169D02*
D03*
X0213350D02*
D03*
Y0400350D02*
D03*
X0223350D02*
D03*
Y0419169D02*
D03*
X0218350D02*
D03*
Y0400350D02*
D03*
X0253370Y0357480D02*
D03*
Y0376299D02*
D03*
X0258370D02*
D03*
Y0357480D02*
D03*
X0268370D02*
D03*
Y0376299D02*
D03*
X0263370D02*
D03*
Y0357480D02*
D03*
X0542831Y0353720D02*
D03*
Y0334901D02*
D03*
X0537831D02*
D03*
Y0353720D02*
D03*
X0527831D02*
D03*
Y0334901D02*
D03*
X0532831D02*
D03*
Y0353720D02*
D03*
X0233791Y0272142D02*
D03*
Y0253323D02*
D03*
X0228791D02*
D03*
Y0272142D02*
D03*
X0238791D02*
D03*
Y0253323D02*
D03*
X0243791D02*
D03*
Y0272142D02*
D03*
D39*
X0334449Y0489567D02*
D03*
X0367913D02*
D03*
X0460827Y0489961D02*
D03*
X0494291D02*
D03*
D40*
X0337008Y0449016D02*
D03*
X0462185Y0449409D02*
D03*
D41*
X0344508Y0459646D02*
D03*
X0339508D02*
D03*
X0329508D02*
D03*
X0334508D02*
D03*
X0329508Y0438386D02*
D03*
X0334508D02*
D03*
X0339508D02*
D03*
X0344508D02*
D03*
X0469685Y0460039D02*
D03*
X0464685D02*
D03*
X0454685D02*
D03*
X0459685D02*
D03*
X0454685Y0438779D02*
D03*
X0459685D02*
D03*
X0464685D02*
D03*
X0469685D02*
D03*
D42*
X0252677Y0316350D02*
D03*
X0231024D02*
D03*
D43*
X0219012Y0338984D02*
D03*
X0221571D02*
D03*
X0224130D02*
D03*
X0226689D02*
D03*
X0219012Y0355716D02*
D03*
X0221571D02*
D03*
X0224130D02*
D03*
X0226689D02*
D03*
D44*
X0222850Y0347350D02*
D03*
D45*
X0506850Y0325220D02*
D03*
Y0303567D02*
D03*
X0308850Y0297677D02*
D03*
Y0276024D02*
D03*
D46*
X0479350Y0314394D02*
D03*
X0282350Y0286894D02*
D03*
D47*
X0467835Y0303075D02*
D03*
X0470394D02*
D03*
X0472953D02*
D03*
X0475512D02*
D03*
X0478071D02*
D03*
X0480630D02*
D03*
X0483189D02*
D03*
X0485748D02*
D03*
X0488307D02*
D03*
X0490866D02*
D03*
X0467835Y0325713D02*
D03*
X0470394D02*
D03*
X0472953D02*
D03*
X0475512D02*
D03*
X0478071D02*
D03*
X0480630D02*
D03*
X0483189D02*
D03*
X0485748D02*
D03*
X0488307D02*
D03*
X0490866D02*
D03*
X0270835Y0275575D02*
D03*
X0273394D02*
D03*
X0275953D02*
D03*
X0278512D02*
D03*
X0281071D02*
D03*
X0283630D02*
D03*
X0286189D02*
D03*
X0288748D02*
D03*
X0291307D02*
D03*
X0293866D02*
D03*
X0270835Y0298213D02*
D03*
X0273394D02*
D03*
X0275953D02*
D03*
X0278512D02*
D03*
X0281071D02*
D03*
X0283630D02*
D03*
X0286189D02*
D03*
X0288748D02*
D03*
X0291307D02*
D03*
X0293866D02*
D03*
D48*
X0348276Y0411500D02*
D03*
X0357724D02*
D03*
X0476126Y0405850D02*
D03*
X0485575D02*
D03*
X0222850Y0303350D02*
D03*
X0213402D02*
D03*
X0287626Y0237850D02*
D03*
X0297075D02*
D03*
D49*
X0423673Y0211134D02*
D03*
X0431813Y0234153D02*
D03*
D50*
X0418260Y0211528D02*
D03*
X0414520Y0219500D02*
D03*
X0422000D02*
D03*
X0426400Y0234546D02*
D03*
X0422660Y0242519D02*
D03*
X0430140D02*
D03*
X0332637Y0292243D02*
D03*
Y0272557D02*
D03*
X0268337Y0444543D02*
D03*
Y0424858D02*
D03*
X0391037Y0440642D02*
D03*
Y0420958D02*
D03*
D51*
X0428500Y0321993D02*
D03*
Y0308607D02*
D03*
D52*
X0379831Y0382500D02*
D03*
X0371169D02*
D03*
D53*
X0220854Y0292819D02*
D03*
X0233846D02*
D03*
X0220854Y0288882D02*
D03*
X0233846D02*
D03*
D54*
X0387216Y0257004D02*
D03*
X0363957Y0232937D02*
D03*
D55*
X0386823Y0251590D02*
D03*
X0378850Y0247850D02*
D03*
Y0255331D02*
D03*
X0364350Y0238350D02*
D03*
X0372323Y0242091D02*
D03*
Y0234610D02*
D03*
D56*
X0542831Y0426500D02*
D03*
X0534169D02*
D03*
D57*
X0433000Y0255904D02*
D03*
Y0262204D02*
D03*
X0436250D02*
D03*
Y0255904D02*
D03*
D58*
X0433000Y0260004D02*
D03*
Y0258104D02*
D03*
X0436250D02*
D03*
Y0260004D02*
D03*
D59*
X0320400Y0304500D02*
D03*
X0326700D02*
D03*
Y0301250D02*
D03*
X0320400D02*
D03*
D60*
X0324500Y0304500D02*
D03*
X0322600D02*
D03*
Y0301250D02*
D03*
X0324500D02*
D03*
D61*
X0326731Y0272557D02*
D03*
Y0292243D02*
D03*
X0262432Y0424858D02*
D03*
Y0444543D02*
D03*
X0385132Y0420958D02*
D03*
Y0440642D02*
D03*
D62*
X0354228Y0305732D02*
D03*
X0357378D02*
D03*
X0360528D02*
D03*
X0363677D02*
D03*
X0366827D02*
D03*
X0369976D02*
D03*
X0373126D02*
D03*
X0376276D02*
D03*
X0379425D02*
D03*
X0382575D02*
D03*
X0385724D02*
D03*
X0388874D02*
D03*
X0392024D02*
D03*
X0395173D02*
D03*
X0398323D02*
D03*
X0401472D02*
D03*
Y0365968D02*
D03*
X0398323D02*
D03*
X0395173D02*
D03*
X0392024D02*
D03*
X0388874D02*
D03*
X0385724D02*
D03*
X0382575D02*
D03*
X0379425D02*
D03*
X0376276D02*
D03*
X0373126D02*
D03*
X0369976D02*
D03*
X0366827D02*
D03*
X0363677D02*
D03*
X0360528D02*
D03*
X0357378D02*
D03*
X0354228D02*
D03*
D63*
X0407969Y0312228D02*
D03*
Y0315378D02*
D03*
Y0318528D02*
D03*
Y0321677D02*
D03*
Y0324827D02*
D03*
Y0327976D02*
D03*
Y0331126D02*
D03*
Y0334276D02*
D03*
Y0337425D02*
D03*
Y0340575D02*
D03*
Y0343724D02*
D03*
Y0346874D02*
D03*
Y0350024D02*
D03*
Y0353173D02*
D03*
Y0356323D02*
D03*
Y0359472D02*
D03*
X0347732D02*
D03*
Y0356323D02*
D03*
Y0353173D02*
D03*
Y0350024D02*
D03*
Y0346874D02*
D03*
Y0343724D02*
D03*
Y0340575D02*
D03*
Y0337425D02*
D03*
Y0334276D02*
D03*
Y0331126D02*
D03*
Y0327976D02*
D03*
Y0324827D02*
D03*
Y0321677D02*
D03*
Y0318528D02*
D03*
Y0315378D02*
D03*
Y0312228D02*
D03*
D64*
X0247835Y0448665D02*
Y0449606D01*
X0243394Y0454850D02*
X0248000Y0459457D01*
X0253937Y0410630D02*
Y0420193D01*
X0253740Y0410433D02*
X0253937Y0410630D01*
X0302850Y0204807D02*
X0306307D01*
X0258350Y0357531D02*
X0268370D01*
X0272354Y0348850D02*
X0272504Y0349000D01*
X0272760Y0355000D02*
X0276457D01*
X0304894Y0347350D02*
Y0347850D01*
X0271354Y0340850D02*
Y0353346D01*
X0294870Y0377831D02*
X0299299D01*
Y0382831D02*
X0304374D01*
X0284870Y0387831D02*
X0285850Y0386850D01*
X0274331Y0387831D02*
X0280480D01*
X0315854Y0361350D02*
Y0361850D01*
X0325847Y0226847D02*
Y0231850D01*
X0297150Y0211894D02*
X0302850D01*
X0448504Y0295004D02*
X0450957Y0297457D01*
X0452500D01*
X0506480Y0373331D02*
X0511831D01*
X0506480Y0378331D02*
X0511870D01*
X0506480Y0383331D02*
X0511870D01*
X0527831Y0353720D02*
Y0358870D01*
X0532831Y0353720D02*
Y0354220D01*
X0542831Y0348831D02*
Y0353720D01*
X0537831Y0349331D02*
Y0353720D01*
X0473850Y0275850D02*
X0486445D01*
X0393500Y0247996D02*
Y0250957D01*
Y0247996D02*
X0396000Y0245496D01*
X0327870Y0240480D02*
X0342850D01*
X0327850D02*
Y0246850D01*
X0402059Y0402059D02*
X0406291D01*
X0413000Y0414043D02*
X0415957D01*
X0229394Y0400350D02*
X0229500D01*
X0229478Y0400355D02*
X0229500Y0400350D01*
X0294870Y0382831D02*
X0299299D01*
X0268350Y0371350D02*
Y0377331D01*
X0213000Y0469000D02*
X0215500Y0471500D01*
X0279500Y0398594D02*
X0280480Y0397614D01*
X0233409Y0441500D02*
X0240791D01*
X0350008Y0270091D02*
X0350508Y0269590D01*
X0470000Y0461917D02*
X0475984D01*
X0464764Y0428937D02*
X0470472D01*
X0386957Y0391043D02*
Y0392000D01*
X0324350Y0225350D02*
X0325847Y0226847D01*
X0456445Y0465945D02*
X0458268D01*
X0454685Y0464185D02*
X0456445Y0465945D01*
X0454685Y0460039D02*
Y0464185D01*
X0227346Y0457346D02*
X0232500Y0462500D01*
X0238500D01*
X0225996Y0452453D02*
Y0455000D01*
X0222394Y0448850D02*
X0225996Y0452453D01*
X0262850Y0220346D02*
Y0233350D01*
X0268370Y0381370D02*
X0270894Y0383894D01*
X0268370Y0376299D02*
Y0381370D01*
X0270894Y0383894D02*
X0273350D01*
X0208750Y0406850D02*
X0212350D01*
X0208150D02*
X0208750D01*
X0208350Y0406451D02*
X0208750Y0406850D01*
X0208350Y0400350D02*
Y0406451D01*
X0203500Y0411500D02*
X0208150Y0406850D01*
X0203500Y0411500D02*
Y0424500D01*
X0204500Y0452000D02*
X0206201D01*
X0229500Y0391504D02*
Y0400350D01*
X0229412Y0400369D02*
X0229478Y0400355D01*
X0253500Y0437500D02*
Y0443000D01*
X0247835Y0448665D02*
X0253500Y0443000D01*
X0249307Y0432850D02*
X0249457Y0433000D01*
X0280480Y0392831D02*
Y0397614D01*
X0229000Y0400457D02*
X0229412Y0400369D01*
X0229500Y0400457D01*
X0229394Y0400350D02*
X0229412Y0400369D01*
X0249457Y0433000D02*
X0253500D01*
X0244500Y0428000D02*
X0248850Y0432350D01*
X0293264Y0211894D02*
X0297150D01*
X0287850Y0203850D02*
X0288807Y0204807D01*
X0287850Y0203850D02*
Y0205346D01*
X0284347Y0208850D02*
X0287850Y0205346D01*
X0308764Y0202350D02*
X0310850D01*
X0348504Y0391000D02*
X0349504Y0392000D01*
X0258405Y0402894D02*
X0259055Y0403543D01*
X0334957Y0369957D02*
X0337457Y0372457D01*
X0322870Y0253870D02*
Y0259299D01*
X0317870Y0254331D02*
Y0259299D01*
X0304374Y0382831D02*
X0306850Y0385307D01*
X0255543Y0271543D02*
X0257500Y0273500D01*
X0253701Y0282043D02*
X0257000D01*
X0238350Y0288850D02*
X0239350Y0287850D01*
Y0283850D02*
Y0287850D01*
X0273350Y0383894D02*
Y0386850D01*
X0274331Y0387831D01*
X0243394Y0454850D02*
X0247638Y0450606D01*
X0244850Y0391347D02*
X0248197Y0388000D01*
X0251957D01*
X0258370Y0371331D02*
Y0376299D01*
X0253350Y0377350D02*
Y0380150D01*
X0251807Y0381693D02*
X0253350Y0380150D01*
X0251807Y0381693D02*
Y0382894D01*
X0244000Y0298000D02*
X0257201D01*
X0460500Y0333500D02*
X0462543Y0335543D01*
Y0341000D01*
X0513272Y0402728D02*
X0515606Y0400394D01*
X0304894Y0346850D02*
Y0347350D01*
X0280480Y0377831D02*
X0284831D01*
X0280480Y0382831D02*
X0284831D01*
X0285850Y0378850D02*
Y0381850D01*
X0315307Y0367850D02*
X0315854Y0367303D01*
Y0361850D02*
Y0367303D01*
X0253350Y0358531D02*
Y0362350D01*
X0254350Y0363350D02*
X0256850D01*
X0258350Y0361850D01*
Y0357531D02*
Y0361850D01*
X0363464Y0416732D02*
X0367913D01*
X0358846Y0421350D02*
X0363464Y0416732D01*
X0358850Y0270847D02*
X0359890Y0269807D01*
X0365350D01*
X0350508Y0270091D02*
X0358095D01*
X0358850Y0270847D01*
Y0257854D02*
X0359303Y0258307D01*
X0365350D01*
X0350008Y0270091D02*
X0350508D01*
X0350008Y0262610D02*
X0350508D01*
X0327870Y0254370D02*
Y0256350D01*
Y0258831D01*
X0293850Y0383850D02*
X0294870Y0382831D01*
X0269350Y0370350D02*
X0272453D01*
X0233878Y0288850D02*
X0238350D01*
X0233846Y0288882D02*
X0233878Y0288850D01*
X0246850Y0258350D02*
X0249307D01*
X0245875Y0259326D02*
X0246850Y0258350D01*
X0234875Y0259326D02*
X0245875D01*
X0234850Y0259350D02*
X0234875Y0259326D01*
X0284831Y0382831D02*
X0285850Y0383850D01*
X0299299Y0392831D02*
X0306413D01*
X0263370Y0371370D02*
Y0376299D01*
X0284831Y0377831D02*
X0285850Y0378850D01*
X0284831Y0387831D02*
X0285850Y0388850D01*
X0268350Y0371350D02*
X0269350Y0370350D01*
X0294831Y0387831D02*
X0299299D01*
X0293850Y0386850D02*
X0294831Y0387831D01*
X0293850Y0383850D02*
Y0386850D01*
X0294831Y0382831D02*
X0294870D01*
X0280480Y0392831D02*
X0284870D01*
X0285850Y0388850D02*
Y0391850D01*
X0284870Y0392831D02*
X0285850Y0391850D01*
X0284831Y0387831D02*
X0284870D01*
X0280480D02*
X0284831D01*
X0285850Y0383850D02*
Y0386850D01*
X0284831Y0382831D02*
X0284870D01*
X0285850Y0381850D01*
X0262350Y0370350D02*
X0263370Y0371370D01*
X0259350Y0370350D02*
X0262350D01*
X0258370Y0371331D02*
X0259350Y0370350D01*
X0267350D02*
X0268350Y0371350D01*
X0264390Y0370350D02*
X0267350D01*
X0263370Y0371370D02*
X0264390Y0370350D01*
X0253350Y0362350D02*
X0254350Y0363350D01*
X0324350Y0225350D02*
X0324590Y0225110D01*
Y0219508D02*
Y0225110D01*
X0306307Y0204807D02*
X0308764Y0202350D01*
X0307382Y0205882D02*
Y0208854D01*
X0214350Y0406850D02*
X0222350D01*
X0223350Y0405850D01*
Y0400350D02*
Y0405850D01*
X0218350Y0400350D02*
Y0406350D01*
X0212350Y0406850D02*
X0213350Y0405850D01*
X0253740Y0408858D02*
X0256496Y0406102D01*
X0253740Y0408858D02*
Y0410433D01*
X0256496Y0405539D02*
Y0406102D01*
X0259055Y0403543D01*
X0253850Y0402894D02*
X0256496Y0405539D01*
X0238791Y0266909D02*
Y0272142D01*
X0243791Y0266791D02*
Y0272142D01*
X0233791Y0258291D02*
X0234850Y0259350D01*
X0233791Y0253323D02*
Y0258291D01*
X0242850Y0265850D02*
X0243791Y0266791D01*
X0239850Y0265850D02*
X0242850D01*
X0238791Y0266909D02*
X0239850Y0265850D01*
X0228791Y0272142D02*
Y0278835D01*
X0253264Y0420866D02*
X0253937Y0420193D01*
X0477756Y0428740D02*
X0481496D01*
X0477559Y0428937D02*
X0477756Y0428740D01*
X0469685Y0438779D02*
X0479252D01*
X0481535Y0436496D01*
X0464685Y0427047D02*
Y0438779D01*
Y0427047D02*
X0464764Y0428937D01*
X0462185Y0449409D02*
X0464685Y0451909D01*
X0459685D02*
X0462185Y0449409D01*
X0459685Y0446909D02*
X0462185Y0449409D01*
X0445472Y0504921D02*
X0447047Y0503346D01*
X0477559Y0428937D02*
X0477559Y0428937D01*
X0393307Y0490354D02*
X0402165D01*
X0337008Y0449016D02*
X0339508Y0451516D01*
X0334508D02*
X0337008Y0449016D01*
X0345689Y0460827D02*
X0349606D01*
X0344508Y0459646D02*
X0345689Y0460827D01*
X0334508Y0446516D02*
X0337008Y0449016D01*
X0339508Y0426713D02*
Y0438386D01*
X0339370Y0426575D02*
X0339508Y0426713D01*
X0306307Y0204807D02*
X0307382Y0205882D01*
Y0220382D02*
Y0221847D01*
X0302346Y0218350D02*
X0303346Y0219350D01*
X0306350D01*
X0307382Y0220382D01*
X0284347Y0208850D02*
Y0209850D01*
X0262850Y0207354D02*
X0269858D01*
X0271354Y0208850D01*
X0262850Y0220346D02*
X0267071Y0216126D01*
X0273850D01*
Y0225575D02*
X0283579D01*
X0284354Y0226350D01*
X0470847Y0272847D02*
X0473850Y0275850D01*
X0520590Y0265110D02*
Y0265508D01*
X0478346Y0258350D02*
X0487350D01*
X0477347Y0259350D02*
X0478346Y0258350D01*
X0532831Y0349370D02*
X0534350Y0347850D01*
X0536350D01*
X0537831Y0349331D01*
X0532831D02*
Y0349370D01*
X0537831Y0348870D02*
X0538850Y0347850D01*
X0537831Y0348870D02*
Y0349331D01*
Y0335402D02*
Y0340870D01*
X0536850Y0341850D02*
X0537831Y0340870D01*
X0533850Y0341850D02*
X0536850D01*
X0532831Y0340831D02*
X0533850Y0341850D01*
X0531850D02*
X0532831Y0340870D01*
Y0335402D02*
Y0340831D01*
Y0340870D01*
X0528850Y0341850D02*
X0531850D01*
X0538850Y0347850D02*
X0541850D01*
X0542831Y0335402D02*
Y0341331D01*
X0520331Y0383331D02*
X0525299D01*
X0519350Y0382350D02*
X0520331Y0383331D01*
X0519350Y0379350D02*
Y0382350D01*
Y0379350D02*
X0520370Y0378331D01*
X0525299D01*
X0519350Y0374850D02*
Y0377350D01*
X0520331Y0378331D01*
X0520370D01*
X0511870Y0383331D02*
X0512850Y0382350D01*
X0511870Y0378331D02*
X0512850Y0377350D01*
X0511831Y0373331D02*
X0512850Y0374350D01*
X0519350Y0374850D02*
X0520870Y0373331D01*
X0525445Y0361256D02*
X0527831Y0358870D01*
X0524445Y0364850D02*
X0525445D01*
X0537831Y0353720D02*
Y0354220D01*
X0542831Y0353720D02*
Y0354220D01*
X0532831Y0349370D02*
Y0353720D01*
X0542831Y0341331D02*
X0542850Y0341350D01*
X0312870Y0240480D02*
Y0247370D01*
X0313850Y0248350D01*
X0316850D01*
X0317870Y0247370D02*
X0318850Y0248350D01*
X0317870Y0240480D02*
Y0247331D01*
Y0247370D01*
X0322870Y0246870D02*
Y0247331D01*
X0324350Y0248350D02*
X0326350D01*
X0327850Y0246850D01*
X0321850Y0248350D02*
X0322870Y0247331D01*
Y0246870D02*
X0324350Y0248350D01*
X0318850D02*
X0321850D01*
X0316850D02*
X0317870Y0247331D01*
X0325847Y0231850D02*
Y0232850D01*
X0322870Y0239850D02*
Y0240480D01*
Y0246870D01*
X0317870Y0254331D02*
X0319350Y0252850D01*
X0321850D01*
X0322870Y0253870D01*
Y0253831D02*
X0323850Y0252850D01*
X0326350D01*
X0327870Y0254370D01*
X0322870Y0253831D02*
Y0253870D01*
X0529350Y0445394D02*
X0534850D01*
X0225043Y0463000D02*
Y0464043D01*
X0215004Y0466996D02*
Y0469500D01*
Y0466996D02*
X0217957Y0464043D01*
Y0463000D02*
Y0464043D01*
X0363705Y0410496D02*
X0370000D01*
X0401000Y0398000D02*
X0401941Y0397059D01*
X0406291D01*
X0401000Y0398000D02*
Y0401000D01*
X0402059Y0402059D01*
X0406291D02*
X0412484D01*
X0413000Y0401543D01*
X0406291Y0407059D02*
X0412898D01*
X0413000Y0406957D01*
X0406291Y0412059D02*
X0408276Y0414043D01*
X0413000D01*
X0386957Y0392000D02*
Y0396543D01*
X0387472Y0397059D01*
X0382543Y0392000D02*
X0386957D01*
X0413000Y0401543D02*
X0414457D01*
X0415500Y0400500D01*
Y0400000D02*
Y0400500D01*
X0361496Y0391000D02*
X0362496Y0392000D01*
X0455000Y0275000D02*
X0457154Y0272847D01*
X0213350Y0400350D02*
Y0405850D01*
Y0416150D02*
Y0419169D01*
Y0416150D02*
X0214846Y0414654D01*
X0215014D01*
X0215318Y0414350D01*
X0213350Y0405850D02*
X0214350Y0406850D01*
X0225043Y0464043D02*
X0227996Y0466996D01*
Y0469500D01*
X0215318Y0414350D02*
X0221850D01*
X0223350Y0415850D01*
Y0419169D01*
X0203500Y0424500D02*
X0205500Y0426500D01*
X0420000Y0401500D02*
Y0407500D01*
X0418000Y0409500D02*
X0420000Y0407500D01*
X0415957Y0414043D02*
X0418000Y0412000D01*
Y0409500D02*
Y0412000D01*
X0210500Y0469000D02*
X0213000D01*
X0223350Y0419169D02*
Y0423850D01*
X0223500Y0424000D01*
X0218091Y0443008D02*
X0222394Y0447311D01*
Y0448850D01*
X0299299Y0377831D02*
X0300169D01*
X0305500Y0342000D02*
Y0346244D01*
X0304894Y0346850D02*
X0305500Y0346244D01*
X0293850Y0381850D02*
X0294831Y0382831D01*
X0293850Y0378850D02*
X0294870Y0377831D01*
X0293850Y0378850D02*
Y0381850D01*
X0305000Y0372744D02*
X0310350Y0367394D01*
X0305000Y0372744D02*
Y0373000D01*
X0520590Y0265110D02*
X0523850Y0261850D01*
Y0260350D02*
Y0261850D01*
X0526744Y0448000D02*
X0529350Y0445394D01*
X0524000Y0448000D02*
X0526744D01*
X0397004Y0246500D02*
X0409500D01*
X0396000Y0245496D02*
X0397004Y0246500D01*
X0272760Y0349256D02*
Y0355000D01*
Y0360842D01*
X0268600Y0356100D02*
X0271354Y0353346D01*
X0276457Y0355000D02*
X0276957D01*
X0396000Y0245496D02*
X0397004D01*
X0400260Y0242240D01*
X0403842D01*
X0348504Y0384500D02*
Y0386000D01*
X0365350Y0265394D02*
Y0269807D01*
X0352500Y0274000D02*
Y0276543D01*
X0352957Y0277000D01*
X0350508Y0266350D02*
Y0269590D01*
X0375500Y0267043D02*
Y0271457D01*
X0525949Y0378480D02*
X0531524D01*
X0529000Y0414543D02*
Y0417500D01*
X0275957Y0446500D02*
X0279457Y0443000D01*
X0227996Y0469500D02*
X0229496Y0471000D01*
X0233500D01*
X0457154Y0272847D02*
X0470847D01*
X0363350Y0410850D02*
X0363705Y0410496D01*
X0386957Y0391043D02*
X0388710Y0389290D01*
X0272504Y0349000D02*
X0272760Y0349256D01*
X0327800Y0273100D02*
X0327870Y0273030D01*
X0274000Y0446500D02*
X0275957D01*
X0262850Y0233350D02*
X0266350Y0236850D01*
X0328201Y0463000D02*
X0329350Y0461850D01*
X0388710Y0386790D02*
Y0389290D01*
X0325870Y0273100D02*
X0327800D01*
X0327870Y0259299D02*
Y0273030D01*
X0494850Y0260850D02*
X0501050D01*
X0503882Y0263682D01*
Y0267846D01*
X0537831Y0329374D02*
Y0334901D01*
X0535957Y0327500D02*
X0537831Y0329374D01*
X0520870Y0373331D02*
X0525299D01*
X0524445Y0364850D02*
Y0366355D01*
X0520870Y0369930D02*
X0524445Y0366355D01*
X0520870Y0369930D02*
Y0373331D01*
X0533069Y0425400D02*
X0534169Y0426500D01*
X0527000Y0422500D02*
Y0423300D01*
X0529100Y0425400D01*
X0533069D01*
X0527000Y0419500D02*
X0529000Y0417500D01*
X0527000Y0419500D02*
Y0422500D01*
X0442913Y0504921D02*
X0445472D01*
X0334100Y0247543D02*
X0341457D01*
X0487350Y0258350D02*
X0488200Y0259200D01*
X0491924D01*
X0492850Y0260126D01*
X0527831Y0340831D02*
X0528850Y0341850D01*
X0527831Y0351370D02*
Y0353720D01*
Y0351370D02*
X0529870Y0349331D01*
X0525445Y0361256D02*
Y0364850D01*
X0529870Y0349331D02*
X0532831D01*
X0541850Y0347850D02*
X0542831Y0348831D01*
X0531524Y0378480D02*
X0533500Y0380457D01*
X0527800Y0335432D02*
X0527831Y0335402D01*
X0527800Y0335432D02*
Y0340800D01*
X0241311Y0415189D02*
X0242461D01*
X0300169Y0377831D02*
X0305000Y0373000D01*
X0266350Y0236850D02*
X0287626D01*
X0252850Y0282894D02*
X0253701Y0282043D01*
X0252850Y0282894D02*
Y0286500D01*
X0288807Y0204807D02*
X0297350D01*
X0248850Y0432350D02*
Y0433307D01*
X0249307Y0432850D01*
X0334508Y0438386D02*
Y0446516D01*
Y0451516D02*
Y0459646D01*
X0339508Y0451516D02*
Y0459646D01*
X0459685Y0438779D02*
Y0446909D01*
X0464685Y0451909D02*
Y0460039D01*
X0459685Y0451909D02*
Y0460039D01*
D65*
X0266929Y0404134D02*
Y0410630D01*
X0267500Y0401752D02*
X0267717Y0401968D01*
X0234646Y0448032D02*
Y0455350D01*
X0267500Y0396500D02*
Y0401752D01*
X0513350Y0367846D02*
Y0386850D01*
X0499346Y0365350D02*
X0500343Y0366347D01*
X0511850D01*
X0496350Y0297894D02*
Y0307894D01*
Y0320394D02*
Y0331394D01*
X0492499Y0335245D02*
X0496350Y0331394D01*
X0492850Y0287394D02*
X0492894D01*
X0505500Y0440701D02*
X0511350Y0434850D01*
X0510701Y0435854D02*
X0522350D01*
X0522573Y0435832D01*
X0522573Y0435832D02*
X0522582Y0435831D01*
X0522573Y0435832D02*
X0522573Y0435832D01*
X0522573Y0435832D02*
X0522573D01*
X0436500Y0328500D02*
Y0332457D01*
X0224300Y0426000D02*
X0225654Y0427354D01*
X0464354Y0259350D02*
X0465752Y0260748D01*
X0468197D01*
X0473850Y0266402D01*
X0476911Y0218511D02*
X0480900Y0222500D01*
X0476911Y0215561D02*
Y0218511D01*
X0464900Y0251400D02*
X0466350Y0252850D01*
X0459900Y0251400D02*
X0464900D01*
X0458350Y0249850D02*
X0459900Y0251400D01*
X0454000Y0262500D02*
X0456496D01*
X0299350Y0270394D02*
Y0280394D01*
X0291202Y0266042D02*
X0294999D01*
X0287945Y0340850D02*
X0289445Y0339350D01*
X0254331Y0453150D02*
Y0459449D01*
X0295499Y0307745D02*
X0299350Y0303894D01*
Y0292894D02*
Y0303894D01*
X0337350Y0256350D02*
X0345000D01*
X0261500Y0485043D02*
Y0488000D01*
X0234646Y0455350D02*
X0235807D01*
X0223350Y0400350D02*
X0229394D01*
X0301847Y0218350D02*
Y0220153D01*
X0297346Y0224654D02*
X0301847Y0220153D01*
X0297346Y0224654D02*
Y0226350D01*
X0214756Y0290350D02*
X0215500Y0289606D01*
X0266339Y0403543D02*
X0266929Y0404134D01*
X0248000Y0265705D02*
X0248854Y0264850D01*
X0249701Y0286500D02*
X0252850D01*
X0257201Y0298000D02*
X0257850Y0297350D01*
X0226701Y0299500D02*
X0231000D01*
X0511721Y0388480D02*
X0513350Y0386850D01*
X0507130Y0388480D02*
X0511721D01*
X0283347Y0340850D02*
X0287945D01*
X0239350Y0283850D02*
X0244850D01*
X0248854Y0264850D02*
X0252850D01*
X0256394Y0261307D01*
Y0258350D02*
Y0261307D01*
X0290600Y0306644D02*
X0291702Y0307745D01*
X0222850Y0303350D02*
X0226701Y0299500D01*
X0266339Y0403543D02*
X0267913Y0401968D01*
X0380315Y0451772D02*
Y0457677D01*
X0291702Y0307745D02*
X0295499D01*
X0294999Y0266042D02*
X0299350Y0270394D01*
X0290350Y0266894D02*
X0291202Y0266042D01*
X0488702Y0335245D02*
X0492499D01*
X0487600Y0334144D02*
X0488702Y0335245D01*
X0270354Y0332854D02*
X0270358Y0332850D01*
X0474791Y0248409D02*
X0476823D01*
X0486850Y0234350D02*
X0488850D01*
X0485909Y0233409D02*
X0486850Y0234350D01*
X0476823Y0233409D02*
X0485909D01*
X0489791D02*
X0495642D01*
X0488850Y0234350D02*
X0489791Y0233409D01*
X0490409Y0238409D02*
X0495642D01*
X0488850Y0236850D02*
X0490409Y0238409D01*
X0488850Y0234350D02*
Y0236850D01*
X0505413Y0248409D02*
X0505850Y0248847D01*
X0460850Y0266854D02*
X0462350D01*
X0495642Y0248409D02*
X0505413D01*
X0511850Y0366347D02*
X0513350Y0367846D01*
X0511350Y0345756D02*
X0515445D01*
X0492894Y0287394D02*
X0496850D01*
X0295894Y0259894D02*
X0299850D01*
X0345000Y0256350D02*
X0345811Y0255539D01*
X0491999Y0293543D02*
X0496350Y0297894D01*
X0487350Y0294394D02*
X0488202Y0293543D01*
X0491999D01*
X0456496Y0262500D02*
X0460850Y0266854D01*
X0470350Y0252850D02*
X0474791Y0248409D01*
X0466350Y0252850D02*
X0469350D01*
X0470350D01*
X0270354Y0332854D02*
Y0340850D01*
X0248850Y0287350D02*
X0249701Y0286500D01*
X0244850Y0283850D02*
X0248000Y0280701D01*
X0228791Y0244209D02*
Y0253323D01*
Y0244209D02*
X0234150Y0238850D01*
X0313500Y0305000D02*
Y0308500D01*
X0525083Y0435583D02*
X0527807Y0438307D01*
X0529350D01*
X0216224Y0288882D02*
X0217297Y0287809D01*
Y0286797D02*
Y0287809D01*
Y0286797D02*
X0218595Y0285500D01*
X0218595D01*
X0433000Y0339500D02*
X0436457D01*
X0541543Y0392500D02*
X0543000D01*
X0546000Y0395500D01*
X0518500Y0468500D02*
Y0472500D01*
X0505500Y0440701D02*
Y0455500D01*
X0518500Y0468500D01*
X0431500Y0304500D02*
X0433728Y0306728D01*
X0428000Y0301000D02*
X0431500Y0304500D01*
X0546000Y0395500D02*
Y0403500D01*
X0233000Y0455350D02*
X0234646D01*
X0413500Y0306500D02*
X0415957D01*
X0378500Y0410496D02*
X0379304Y0411300D01*
X0379700Y0409800D02*
X0381100D01*
X0384550Y0413250D02*
Y0414050D01*
X0522582Y0435831D02*
X0525083Y0435583D01*
X0327870Y0256350D02*
X0337350D01*
X0229307Y0279350D02*
Y0280707D01*
X0232450Y0283850D01*
X0239350D01*
X0248000Y0265705D02*
Y0280701D01*
X0528671Y0499143D02*
X0529528Y0500000D01*
X0515445Y0345756D02*
X0518347Y0342854D01*
X0520850D01*
X0223500Y0426000D02*
X0224300D01*
X0225654Y0427354D02*
X0234000D01*
X0295850Y0259894D02*
X0295894D01*
X0274307Y0314894D02*
Y0315387D01*
X0471307Y0342394D02*
Y0342887D01*
D66*
X0289500Y0367538D02*
X0294210Y0372248D01*
X0309903Y0378903D02*
X0310500Y0378306D01*
X0312854Y0230854D02*
Y0231850D01*
X0366000Y0227500D02*
X0369000Y0230500D01*
X0432000Y0344000D02*
Y0348000D01*
X0466850Y0338937D02*
X0468087Y0337700D01*
X0439543Y0345000D02*
X0440043Y0344500D01*
X0370350Y0270753D02*
X0371253D01*
X0370350Y0269807D02*
Y0270753D01*
X0393500Y0261504D02*
X0395000Y0263004D01*
X0393500Y0258043D02*
Y0261504D01*
X0379457Y0279000D02*
X0380500Y0280043D01*
X0349567Y0220073D02*
Y0225567D01*
X0348350Y0226784D02*
Y0231850D01*
X0393500Y0258043D02*
X0398000D01*
X0448543Y0358760D02*
X0452760D01*
X0425000Y0368957D02*
X0433500D01*
X0342500Y0363000D02*
Y0364000D01*
X0341500Y0365000D02*
X0342500Y0364000D01*
X0433500Y0376543D02*
X0437500D01*
X0323850Y0354894D02*
Y0355850D01*
X0462543Y0321000D02*
X0463000Y0320543D01*
X0456980Y0321021D02*
X0457339Y0321379D01*
Y0321339D02*
Y0321379D01*
X0457000Y0321000D02*
X0457339Y0321339D01*
X0442343Y0325240D02*
X0444440D01*
X0436500Y0325543D02*
X0442039D01*
X0446100Y0325600D02*
X0450600Y0330100D01*
X0456100D01*
X0444800Y0325600D02*
X0446100D01*
X0444440Y0325240D02*
X0444800Y0325600D01*
X0442039Y0325543D02*
X0442343Y0325240D01*
X0452658Y0317760D02*
X0457740D01*
X0421004Y0295004D02*
X0446000D01*
X0412500Y0286500D02*
X0421004Y0295004D01*
X0456400Y0356343D02*
X0458800Y0353943D01*
X0456400Y0356343D02*
Y0360142D01*
X0448700Y0357700D02*
X0452400Y0354000D01*
X0447276Y0340457D02*
X0452000D01*
X0448543Y0357700D02*
X0448700D01*
X0470544Y0337700D02*
X0471350Y0336894D01*
X0468087Y0337700D02*
X0470544D01*
X0460600Y0358800D02*
X0463557D01*
X0471443Y0359600D02*
X0474457D01*
X0460240Y0359842D02*
Y0360043D01*
X0448543Y0357700D02*
Y0358000D01*
Y0358760D01*
X0500000Y0387000D02*
Y0392004D01*
X0426400Y0232643D02*
Y0234546D01*
X0431420D02*
X0431813Y0234153D01*
X0413500Y0239158D02*
Y0247004D01*
Y0239158D02*
X0414157Y0238500D01*
X0421500Y0266000D02*
Y0269000D01*
X0426400Y0232643D02*
X0429643Y0229400D01*
X0426400Y0234546D02*
X0431420D01*
X0452000Y0340457D02*
X0452087Y0340543D01*
X0252850Y0274606D02*
Y0275307D01*
X0525736Y0387894D02*
X0537394D01*
X0525299Y0388331D02*
X0525736Y0387894D01*
X0521500Y0402043D02*
X0522500Y0401043D01*
X0418136Y0441364D02*
X0418898Y0440602D01*
X0411654Y0438779D02*
Y0442610D01*
X0214354Y0449803D02*
Y0455350D01*
X0212811Y0456894D02*
X0214354Y0455350D01*
X0240791Y0441500D02*
X0241898Y0440394D01*
X0248850D01*
X0227000D02*
X0232303D01*
X0286000Y0444000D02*
X0291827D01*
X0285669Y0443669D02*
X0286000Y0444000D01*
X0285669Y0439961D02*
Y0443669D01*
X0305000Y0353705D02*
X0309807Y0348898D01*
X0513000Y0404000D02*
X0513272Y0403728D01*
Y0402728D02*
Y0403728D01*
X0542394Y0334965D02*
X0542831Y0335402D01*
X0542394Y0327850D02*
Y0334965D01*
X0236807Y0245850D02*
X0238000Y0247043D01*
X0392500Y0290000D02*
X0399000Y0296500D01*
X0392000Y0290000D02*
X0392500D01*
X0450669Y0256500D02*
X0451500D01*
X0399000Y0296500D02*
X0402500D01*
X0347500Y0359705D02*
X0347732Y0359472D01*
X0451000Y0288500D02*
X0452957D01*
X0407000Y0301000D02*
X0407957D01*
X0437000Y0269000D02*
Y0283193D01*
Y0269000D02*
X0441500Y0264500D01*
X0418457Y0286457D02*
X0422795Y0290795D01*
X0462043Y0313457D02*
X0463000D01*
X0457740Y0317760D02*
X0462043Y0313457D01*
X0463000Y0308543D02*
Y0313457D01*
X0511000Y0413543D02*
X0511957Y0414500D01*
X0514400D01*
X0515000Y0415100D01*
X0411000Y0380457D02*
Y0384000D01*
X0353558Y0314854D02*
X0353902D01*
X0353034Y0315378D02*
X0353558Y0314854D01*
X0353902D02*
X0354000Y0314756D01*
X0347732Y0315378D02*
X0353034D01*
X0341417Y0346874D02*
X0347732D01*
X0345228Y0312228D02*
X0347732D01*
X0343024Y0327976D02*
X0347732D01*
X0346028Y0359472D02*
X0347732D01*
X0403028Y0321677D02*
X0407969D01*
X0342520Y0350024D02*
X0347732D01*
X0342500Y0309500D02*
X0345228Y0312228D01*
X0398000Y0258043D02*
X0398500D01*
X0356350Y0251350D02*
X0358350Y0249350D01*
X0213004Y0455000D02*
Y0456496D01*
X0210457Y0459043D02*
X0213004Y0456496D01*
X0207500Y0459043D02*
X0210457D01*
X0218091Y0432693D02*
Y0436410D01*
X0216500Y0438000D02*
X0218091Y0436410D01*
X0206500Y0438000D02*
X0216500D01*
X0212000Y0440500D02*
X0213000D01*
X0210610Y0441890D02*
X0212000Y0440500D01*
X0210610Y0441890D02*
Y0443008D01*
X0214350Y0441850D02*
Y0443008D01*
X0213000Y0440500D02*
X0214350Y0441850D01*
X0232303Y0440394D02*
X0233409Y0441500D01*
X0291827Y0444000D02*
X0292717Y0443110D01*
X0303898Y0360307D02*
X0305000Y0359205D01*
X0303850Y0360354D02*
X0303898Y0360307D01*
X0430043Y0353500D02*
X0433000D01*
X0429543Y0353000D02*
X0430043Y0353500D01*
X0297150Y0211894D02*
X0297500Y0211543D01*
X0297000Y0212043D02*
X0297150Y0211894D01*
X0297000Y0212043D02*
Y0217500D01*
X0312110Y0373693D02*
Y0374890D01*
X0310500Y0376500D02*
X0312110Y0374890D01*
X0310500Y0376500D02*
Y0378306D01*
X0338543Y0352543D02*
X0339500D01*
X0323850Y0355850D02*
X0328847Y0360846D01*
X0342500Y0363000D02*
X0346028Y0359472D01*
X0319590Y0370654D02*
X0322394Y0367850D01*
X0319590Y0370654D02*
Y0373693D01*
X0322394Y0367850D02*
X0322847D01*
X0328847Y0360846D02*
Y0361850D01*
X0319000Y0336000D02*
Y0338000D01*
X0317350Y0334350D02*
X0319000Y0336000D01*
X0317650Y0339350D02*
X0319000Y0338000D01*
X0314350Y0339350D02*
X0317650D01*
X0331500Y0334000D02*
X0332000Y0334500D01*
X0331500Y0339500D02*
X0332000Y0339000D01*
X0238791Y0250791D02*
Y0253323D01*
X0252500Y0274957D02*
X0252850Y0274606D01*
X0237307Y0370894D02*
X0237350Y0370850D01*
X0413130Y0324827D02*
X0416000Y0321957D01*
X0378850Y0255331D02*
X0382831D01*
X0369000Y0232000D02*
X0371610Y0234610D01*
X0372323D01*
X0402957Y0250957D02*
X0403000Y0251000D01*
X0398500Y0250957D02*
X0402957D01*
X0433500Y0368957D02*
X0435957D01*
X0437543Y0370543D02*
X0438500D01*
Y0371500D02*
X0441500Y0374500D01*
X0437760Y0388158D02*
X0443043Y0393441D01*
X0443000Y0336000D02*
X0447059D01*
X0441941Y0334941D02*
X0443000Y0336000D01*
X0441941Y0332760D02*
Y0334941D01*
X0440043Y0344500D02*
X0441000Y0343543D01*
Y0341181D02*
Y0343543D01*
Y0341181D02*
X0441941Y0340240D01*
X0451500Y0340957D02*
X0451543Y0341000D01*
X0447059Y0336000D02*
Y0340240D01*
Y0332760D02*
Y0336000D01*
Y0340240D02*
X0447276Y0340457D01*
X0444500Y0340240D02*
Y0344000D01*
X0438500Y0370553D02*
Y0371500D01*
X0441500Y0374500D02*
Y0377842D01*
X0435957Y0368957D02*
X0437543Y0370543D01*
X0443043Y0393441D02*
Y0393500D01*
X0511000Y0413500D02*
Y0413543D01*
X0516350Y0386850D02*
X0521000Y0391500D01*
X0513350Y0386850D02*
X0516350D01*
X0503850Y0401394D02*
X0505457Y0403000D01*
X0507850Y0398307D02*
X0512543Y0403000D01*
X0514894Y0393350D02*
X0515350Y0393807D01*
X0509850Y0392850D02*
X0510350Y0393350D01*
X0452760Y0358760D02*
Y0359842D01*
X0460240Y0361240D02*
X0460457Y0361457D01*
X0340000Y0352543D02*
X0342520Y0350024D01*
X0340000Y0345457D02*
X0341417Y0346874D01*
X0413043Y0329043D02*
X0416000D01*
X0411976Y0327976D02*
X0413043Y0329043D01*
X0230850Y0370894D02*
X0237307D01*
X0309807Y0347350D02*
Y0348898D01*
X0330146Y0334500D02*
X0330295Y0334350D01*
X0330146Y0339500D02*
X0330295Y0339350D01*
X0357347Y0257854D02*
X0358850D01*
X0352590Y0262610D02*
X0357347Y0257854D01*
X0350508Y0262610D02*
X0352590D01*
X0358850Y0248850D02*
X0361307D01*
X0358350Y0249350D02*
X0358850Y0248850D01*
X0358350Y0243894D02*
Y0249350D01*
Y0236807D02*
X0359894Y0238350D01*
X0364350D01*
X0343610Y0262610D02*
X0345350Y0264350D01*
X0341590Y0262610D02*
X0343610D01*
X0340193D02*
X0341590D01*
X0340193Y0270091D02*
Y0272736D01*
X0343850Y0257500D02*
X0345000Y0256350D01*
X0343850Y0257500D02*
Y0260350D01*
X0341590Y0262610D02*
X0343850Y0260350D01*
X0339693Y0262610D02*
X0340193D01*
X0424450Y0256054D02*
X0424500Y0256004D01*
X0226869Y0382369D02*
X0230198D01*
X0224850Y0380350D02*
X0226869Y0382369D01*
X0317110Y0225197D02*
X0317264Y0225350D01*
X0317110Y0219508D02*
Y0225197D01*
X0214354Y0449803D02*
X0215307Y0448850D01*
X0241850Y0427354D02*
X0241854Y0427350D01*
X0214350Y0447894D02*
X0215307Y0448850D01*
X0214350Y0443008D02*
Y0447894D01*
X0218091Y0420047D02*
Y0425693D01*
X0217394Y0426350D02*
X0218091Y0427047D01*
Y0432693D01*
X0209724Y0431807D02*
X0210610Y0432693D01*
X0205744Y0431807D02*
X0209724D01*
X0214350Y0430394D02*
Y0432693D01*
X0210307Y0426350D02*
X0214350Y0430394D01*
X0243791Y0253323D02*
X0243894Y0253221D01*
X0238350Y0332350D02*
X0238394D01*
X0219012Y0348512D02*
Y0355716D01*
X0210850Y0361846D02*
X0211846Y0360850D01*
X0224130Y0355716D02*
Y0360239D01*
X0221571Y0355716D02*
Y0359440D01*
X0211846Y0360850D02*
X0220160D01*
X0221571Y0359440D01*
X0222850Y0361519D02*
X0224130Y0360239D01*
X0222850Y0361519D02*
Y0364807D01*
X0221850Y0365807D02*
X0222850Y0364807D01*
X0217350Y0372894D02*
X0221850D01*
X0226689Y0355716D02*
Y0363469D01*
X0226350Y0363807D02*
X0226689Y0363469D01*
X0221571Y0334571D02*
Y0338984D01*
X0224130Y0330071D02*
Y0338984D01*
Y0330071D02*
X0225850Y0328350D01*
X0292913Y0436024D02*
Y0442126D01*
X0219850Y0330850D02*
Y0332850D01*
X0221571Y0334571D01*
X0510350Y0393350D02*
X0514894D01*
X0537831Y0334901D02*
Y0335402D01*
X0363957Y0232937D02*
Y0237957D01*
X0364350Y0238350D01*
X0339496Y0262807D02*
X0339693Y0262610D01*
X0312854Y0231850D02*
Y0232850D01*
X0307894Y0229850D02*
X0311850D01*
X0312854Y0230854D01*
Y0229760D02*
Y0230854D01*
Y0229760D02*
X0317264Y0225350D01*
X0372323Y0234610D02*
X0374110D01*
X0400787Y0501968D02*
X0401968Y0500787D01*
X0404000Y0499500D01*
X0421953Y0321957D02*
X0422500Y0322504D01*
X0352626Y0331126D02*
X0354000Y0332500D01*
X0343000Y0328000D02*
X0343024Y0327976D01*
X0373091Y0242091D02*
X0378850Y0247850D01*
X0213350Y0366850D02*
X0216307D01*
X0217350Y0365807D01*
X0341043Y0358000D02*
X0342721Y0356323D01*
X0294210Y0372248D02*
X0295248D01*
X0285000Y0367543D02*
X0285457Y0368000D01*
X0310000Y0379000D02*
X0310201D01*
X0285457Y0368000D02*
X0289500D01*
Y0367538D02*
Y0368000D01*
X0471654Y0517035D02*
Y0542126D01*
X0418898Y0434842D02*
Y0440602D01*
X0347732Y0331126D02*
X0352626D01*
X0354000Y0332500D02*
Y0336000D01*
X0331500Y0339500D02*
X0332000Y0340000D01*
X0338000Y0352000D02*
X0338543Y0352543D01*
X0402850Y0321500D02*
X0403028Y0321677D01*
X0506000Y0408500D02*
X0511000Y0413500D01*
X0503850Y0399150D02*
Y0401394D01*
X0507850Y0396850D02*
Y0398307D01*
X0514500Y0451043D02*
X0514543D01*
X0510000Y0452000D02*
X0513543D01*
X0514500Y0451043D01*
Y0443957D02*
X0514543D01*
X0516500Y0442000D01*
X0523500D01*
X0375350Y0230350D02*
X0378000Y0233000D01*
Y0237500D01*
X0373410Y0242091D02*
X0378000Y0237500D01*
X0372323Y0242091D02*
X0373091D01*
X0373410D01*
X0419050Y0256054D02*
X0424450D01*
X0366000Y0227500D02*
Y0228000D01*
X0369000Y0230500D02*
Y0232000D01*
X0418500Y0255504D02*
X0419050Y0256054D01*
X0280591Y0360693D02*
X0281283Y0360000D01*
X0332500Y0330000D02*
Y0333500D01*
X0333000Y0334000D01*
X0333957Y0357043D02*
X0338000Y0353000D01*
X0332000Y0340000D02*
Y0344000D01*
X0407969Y0324827D02*
X0413130D01*
X0452957Y0288500D02*
X0455500Y0291043D01*
X0380500Y0280043D02*
X0381500Y0281043D01*
X0407969Y0327976D02*
X0411976D01*
X0446500Y0260669D02*
X0450669Y0256500D01*
X0437000Y0283193D02*
X0437807Y0284000D01*
X0356350Y0251350D02*
X0357807Y0252807D01*
X0364850D01*
X0402500Y0296500D02*
X0407000Y0301000D01*
X0372807Y0272307D02*
X0375350D01*
X0371253Y0270753D02*
X0372500Y0272000D01*
X0372807Y0272307D01*
X0345350Y0264350D02*
Y0272850D01*
X0346522Y0274022D01*
X0360043Y0277000D02*
Y0278043D01*
X0361500Y0279500D01*
Y0280500D01*
X0348626Y0283669D02*
X0349457Y0284500D01*
X0521000Y0391500D02*
Y0393000D01*
X0517500Y0406500D02*
X0519500D01*
X0521500Y0404500D01*
Y0402043D02*
Y0404500D01*
X0537394Y0387894D02*
X0537500Y0388000D01*
X0521138Y0422500D02*
X0522600D01*
X0540500Y0448000D02*
Y0450543D01*
X0368894Y0248350D02*
X0371850D01*
X0372000Y0248500D01*
X0422795Y0290795D02*
X0422902D01*
X0347732Y0353173D02*
X0354327D01*
X0355000Y0352500D01*
X0353323Y0356323D02*
X0353500Y0356500D01*
X0336500Y0350500D02*
X0338000Y0352000D01*
X0499000Y0393004D02*
X0500000Y0392004D01*
X0496000Y0377500D02*
X0499457Y0380957D01*
X0496000Y0375004D02*
Y0377500D01*
X0494000Y0373004D02*
X0494500Y0373504D01*
X0496000Y0375004D01*
X0499457Y0380957D02*
X0500500D01*
X0534807Y0380807D02*
X0537750Y0383750D01*
X0425000Y0362043D02*
X0429043Y0358000D01*
X0425000Y0362043D02*
Y0362500D01*
X0383071Y0504724D02*
X0385433Y0502362D01*
X0393307D01*
X0434240Y0502000D02*
X0439992D01*
X0415957Y0306500D02*
X0416500Y0305957D01*
X0412043Y0443000D02*
X0417630D01*
X0418701Y0441929D01*
X0411654Y0442610D02*
X0412043Y0443000D01*
X0417500Y0513500D02*
X0419500Y0511500D01*
X0411500Y0503457D02*
X0418500D01*
X0474957Y0387000D02*
X0475957Y0388000D01*
X0489500Y0371957D02*
X0492453D01*
X0487500D02*
X0489500D01*
X0444500Y0344000D02*
X0444500Y0344000D01*
X0390500Y0291500D02*
X0392000Y0290000D01*
X0370350Y0276894D02*
X0370500Y0277043D01*
X0370957Y0277500D01*
X0306850Y0228807D02*
X0307894Y0229850D01*
X0347500Y0359705D02*
Y0362000D01*
X0347732Y0318528D02*
X0355472D01*
X0343000Y0283669D02*
X0348626D01*
X0346522Y0274022D02*
X0347522D01*
X0332779Y0274979D02*
Y0282779D01*
X0338000Y0288000D01*
X0287500Y0363000D02*
X0290600D01*
X0276850Y0360693D02*
X0280591D01*
X0281283Y0360000D02*
X0284500D01*
X0297307Y0347350D02*
Y0358300D01*
X0284500Y0360000D02*
X0287500Y0363000D01*
X0290600D02*
X0295400Y0358200D01*
X0208350Y0419169D02*
Y0423550D01*
X0210307Y0425507D01*
Y0426350D01*
X0400300Y0286500D02*
X0412500D01*
X0395000Y0275996D02*
X0396100Y0277096D01*
Y0282300D01*
X0400300Y0286500D01*
X0233791Y0272142D02*
Y0276748D01*
X0236394Y0279350D01*
X0269850Y0311437D02*
X0270394Y0310894D01*
X0238394Y0331200D02*
Y0332350D01*
Y0331200D02*
X0240850Y0328743D01*
Y0328350D02*
Y0328743D01*
X0211000Y0336500D02*
X0216528D01*
X0219012Y0338984D01*
X0224850Y0376750D02*
Y0380350D01*
Y0376750D02*
X0226350Y0375250D01*
Y0370894D02*
Y0375250D01*
Y0363807D02*
X0230850D01*
X0514543Y0451043D02*
X0517400Y0453900D01*
X0530057D01*
X0532457Y0451500D01*
X0517800Y0499143D02*
X0528671D01*
X0439992Y0502000D02*
X0442913Y0504921D01*
X0348350Y0226784D02*
X0349567Y0225567D01*
X0354350Y0232350D02*
X0355350D01*
X0342721Y0356323D02*
X0347732D01*
X0353323D01*
X0416457Y0312000D02*
Y0317000D01*
X0312502Y0519400D02*
X0316758Y0523656D01*
X0310400Y0519400D02*
X0312502D01*
X0298000Y0507000D02*
X0310400Y0519400D01*
X0264450Y0503850D02*
X0267600Y0507000D01*
X0258846Y0503850D02*
X0264450D01*
X0267600Y0507000D02*
X0298000D01*
X0320500Y0329500D02*
Y0332000D01*
X0318150Y0334350D02*
X0320500Y0332000D01*
X0533350Y0380807D02*
X0534807D01*
X0333957Y0357043D02*
X0334349Y0357795D01*
X0334457Y0358000D01*
Y0364000D01*
X0338000Y0352000D02*
Y0353000D01*
X0423311Y0321693D02*
X0428500D01*
X0487000Y0371957D02*
X0487500D01*
X0492453D02*
X0494000Y0373504D01*
X0494500D01*
X0312500Y0309500D02*
X0313500Y0308500D01*
X0425000Y0335000D02*
Y0340760D01*
X0243894Y0245850D02*
Y0253221D01*
X0370957Y0277500D02*
X0375500D01*
X0317846Y0352854D02*
Y0353850D01*
X0374957Y0279000D02*
X0379457D01*
X0456500Y0321500D02*
X0456980Y0321021D01*
X0452658Y0321500D02*
X0456500D01*
X0457000Y0321000D02*
X0462543D01*
X0224348Y0534472D02*
X0219100D01*
Y0526600D01*
X0224348D01*
X0219100Y0530536D02*
X0221724D01*
X0226972Y0526600D02*
Y0534472D01*
X0230907D01*
X0232219Y0533160D01*
Y0530536D01*
X0230907Y0529224D01*
X0226972D01*
X0240091Y0533160D02*
X0238779Y0534472D01*
X0236155D01*
X0234843Y0533160D01*
Y0531848D01*
X0236155Y0530536D01*
X0238779D01*
X0240091Y0529224D01*
Y0527912D01*
X0238779Y0526600D01*
X0236155D01*
X0234843Y0527912D01*
D67*
X0319590Y0383508D02*
Y0384008D01*
X0315850Y0383508D02*
Y0384008D01*
X0284500Y0367543D02*
X0285000D01*
X0398323Y0365968D02*
Y0372823D01*
X0438000Y0240043D02*
X0438800Y0240843D01*
X0438300Y0241343D02*
X0438800Y0240843D01*
X0398000Y0305410D02*
X0398500Y0304909D01*
X0424500Y0266004D02*
X0428000D01*
X0407969Y0343724D02*
X0416014D01*
X0443500Y0363043D02*
X0448543Y0358000D01*
X0443500Y0369543D02*
X0444200Y0370243D01*
X0452760Y0370158D02*
Y0371740D01*
X0319590Y0384008D02*
Y0388154D01*
X0315850Y0384008D02*
Y0385350D01*
X0460443Y0330100D02*
X0465043Y0325500D01*
X0456100Y0330100D02*
X0460443D01*
X0284000Y0417400D02*
Y0419827D01*
X0281100Y0414500D02*
X0284000Y0417400D01*
X0274000Y0414500D02*
X0281100D01*
X0440300Y0314600D02*
X0443000Y0311900D01*
X0443043D01*
X0442446Y0317957D02*
X0442642Y0317760D01*
X0442343Y0321500D02*
X0445700D01*
X0435957Y0317413D02*
X0436500Y0317957D01*
X0435957Y0311900D02*
Y0317413D01*
X0436500Y0317957D02*
X0442446D01*
X0446900Y0315400D02*
Y0320300D01*
X0445700Y0321500D02*
X0446900Y0320300D01*
Y0315400D02*
X0448200Y0314100D01*
X0465797Y0371440D02*
X0470243D01*
X0437760Y0379760D02*
X0440019Y0382019D01*
X0442912D01*
X0445300Y0373500D02*
X0451000D01*
X0444200Y0372400D02*
X0445300Y0373500D01*
X0444200Y0370243D02*
Y0372400D01*
X0429500Y0207757D02*
X0430743D01*
X0438300Y0241343D02*
Y0244300D01*
X0315350Y0384008D02*
Y0391350D01*
Y0384008D02*
X0315850Y0383508D01*
X0306413Y0392831D02*
X0313870D01*
X0395250Y0298721D02*
Y0305044D01*
X0388874Y0297626D02*
Y0305732D01*
X0398500Y0300500D02*
Y0304909D01*
X0342543Y0378500D02*
X0343543Y0377500D01*
X0354228Y0365968D02*
Y0368272D01*
X0345043Y0373500D02*
X0345543Y0373000D01*
X0398000Y0305410D02*
X0398323Y0305732D01*
X0395173D02*
X0395556Y0305350D01*
X0318894Y0388850D02*
X0319590Y0388154D01*
X0359000Y0322500D02*
X0361500Y0325000D01*
X0353500Y0311500D02*
X0355000D01*
X0361500Y0291957D02*
X0361543Y0292000D01*
X0399737Y0262763D02*
Y0265763D01*
X0397000Y0268500D02*
X0399737Y0265763D01*
X0404996Y0261004D02*
X0408555D01*
X0401537Y0264463D02*
X0404996Y0261004D01*
X0401537Y0264463D02*
Y0272500D01*
X0401768Y0258732D02*
Y0260732D01*
X0399737Y0262763D02*
X0401768Y0260732D01*
X0440596Y0264500D02*
X0441500D01*
X0436000Y0251000D02*
X0438944D01*
X0438400Y0258104D02*
X0439000Y0257504D01*
Y0256504D02*
Y0257504D01*
X0438400Y0255904D02*
X0439000Y0256504D01*
X0320850Y0217650D02*
Y0219508D01*
X0315850Y0373693D02*
Y0376850D01*
X0319590Y0373693D02*
Y0376610D01*
X0327850Y0309350D02*
X0330295D01*
X0323000Y0299500D02*
X0324000D01*
X0322600Y0299900D02*
Y0301250D01*
X0320400D02*
X0322600D01*
X0411823Y0321677D02*
X0413000Y0320500D01*
X0267000Y0291500D02*
X0268350Y0292850D01*
X0442912Y0382019D02*
X0445240Y0379691D01*
X0442500Y0384000D02*
X0445240Y0386740D01*
X0451000Y0373500D02*
X0452760Y0371740D01*
X0443500Y0363043D02*
Y0363457D01*
X0326700Y0300200D02*
Y0301250D01*
X0326000Y0299500D02*
X0326700Y0300200D01*
X0324500Y0300000D02*
X0325000Y0299500D01*
X0324500Y0300000D02*
Y0301250D01*
X0324000Y0299500D02*
X0324500Y0300000D01*
X0322600Y0299900D02*
X0323000Y0299500D01*
X0326350Y0324350D02*
X0330295D01*
X0431800Y0262204D02*
X0433000D01*
X0428000Y0266004D02*
X0431800Y0262204D01*
X0429500Y0260004D02*
X0433000D01*
X0439000Y0258504D02*
Y0259504D01*
X0438500Y0260004D02*
X0439000Y0259504D01*
X0438400Y0258104D02*
X0438600D01*
X0436250Y0255904D02*
X0438400D01*
X0436250Y0258104D02*
X0438400D01*
X0436250Y0260004D02*
X0438500D01*
X0438600Y0258104D02*
X0439000Y0258504D01*
X0438500Y0260004D02*
X0439000Y0260504D01*
Y0261504D01*
X0438300Y0262204D02*
X0439000Y0261504D01*
X0436250Y0262204D02*
X0438300D01*
X0428500Y0261004D02*
X0429500Y0260004D01*
X0424500Y0256004D02*
X0428500D01*
X0430600Y0258104D01*
X0433000D01*
X0271850Y0269350D02*
X0273850Y0267350D01*
X0312850Y0370307D02*
X0315307Y0367850D01*
X0283630Y0266130D02*
Y0275575D01*
X0313870Y0392831D02*
X0315350Y0391350D01*
X0312850Y0370307D02*
Y0371850D01*
X0253370Y0369331D02*
Y0376299D01*
Y0369331D02*
X0255395Y0367306D01*
X0278512Y0275575D02*
X0278729Y0275358D01*
X0480630Y0293630D02*
Y0303075D01*
X0474850Y0289567D02*
Y0292850D01*
X0468850Y0296850D02*
Y0297850D01*
Y0296850D02*
X0470850Y0294850D01*
X0468850Y0297850D02*
X0470394Y0299394D01*
Y0303075D01*
X0470850Y0294850D02*
X0473850D01*
X0475729Y0296729D01*
Y0302857D01*
X0475512Y0303075D02*
X0475729Y0302857D01*
X0479850Y0292850D02*
X0480630Y0293630D01*
X0438300Y0262204D02*
X0440596Y0264500D01*
X0325000Y0299500D02*
X0326000D01*
X0271850Y0269350D02*
Y0270350D01*
X0273394Y0271894D01*
Y0275575D01*
X0278729Y0269229D02*
Y0275358D01*
X0315850Y0376850D02*
X0316500Y0377500D01*
X0318701D01*
X0319590Y0376610D01*
X0347732Y0340575D02*
X0353425D01*
X0354000Y0340000D01*
X0433000Y0254000D02*
X0436000Y0251000D01*
X0433000Y0254000D02*
Y0255904D01*
X0430004Y0251004D02*
X0433000Y0254000D01*
X0424500Y0251004D02*
X0430004D01*
X0272760Y0360842D02*
Y0362760D01*
X0275500Y0365500D01*
X0274369Y0367306D02*
X0276500Y0369437D01*
Y0371158D01*
X0275500Y0365500D02*
X0282000D01*
X0284043Y0367543D01*
X0284500D01*
X0260500Y0304500D02*
X0261000D01*
X0262650Y0302850D01*
X0255395Y0367306D02*
X0274369D01*
X0273850Y0267350D02*
X0276850D01*
X0278729Y0269229D01*
X0282850Y0265350D02*
X0283630Y0266130D01*
X0277850Y0264000D02*
Y0265350D01*
X0281071Y0268571D01*
Y0275575D01*
X0401768Y0258732D02*
X0404496Y0256004D01*
X0408555D01*
X0422996Y0266004D02*
X0424500D01*
X0413000Y0318000D02*
Y0320500D01*
Y0318000D02*
X0414000Y0317000D01*
X0416457D01*
X0357378Y0365968D02*
Y0371622D01*
X0407969Y0321677D02*
X0411823D01*
X0367293Y0284163D02*
X0367500Y0283957D01*
X0284000Y0419827D02*
X0285039Y0420866D01*
X0272500Y0413000D02*
X0274000Y0414500D01*
X0272500Y0408000D02*
Y0413000D01*
X0334000Y0315000D02*
X0338000D01*
X0203000Y0362457D02*
X0203500Y0362957D01*
Y0370043D02*
X0204000Y0370543D01*
X0474850Y0292850D02*
X0478071Y0296071D01*
Y0303075D01*
X0426457Y0510000D02*
Y0514043D01*
X0361500Y0343000D02*
X0362500Y0344000D01*
X0385724Y0299811D02*
Y0305732D01*
X0379425Y0300075D02*
Y0305732D01*
X0360528Y0365968D02*
Y0371000D01*
X0355500Y0377500D02*
X0360528Y0372472D01*
Y0371000D02*
Y0372472D01*
X0424500Y0516000D02*
X0426457Y0514043D01*
X0420500Y0516000D02*
X0424500D01*
X0398323Y0372823D02*
X0398500Y0372646D01*
X0388874Y0374874D02*
X0389000Y0375000D01*
X0398500Y0372500D02*
Y0372646D01*
X0388874Y0365968D02*
Y0374874D01*
X0392000Y0300500D02*
Y0305709D01*
X0342043Y0369000D02*
X0342543Y0369500D01*
X0353000D02*
X0354228Y0368272D01*
X0342543Y0369500D02*
X0350500D01*
X0353000D01*
X0356000Y0373000D02*
X0357378Y0371622D01*
X0345543Y0373000D02*
X0356000D01*
X0343543Y0377500D02*
X0355500D01*
X0355000Y0311500D02*
X0359000Y0315500D01*
Y0322500D01*
X0351100Y0292700D02*
X0355757D01*
X0356300Y0292157D01*
Y0291100D02*
Y0292157D01*
X0347157Y0308700D02*
X0350700D01*
X0353500Y0311500D01*
X0361500Y0325000D02*
Y0343000D01*
X0203000Y0362457D02*
X0203500Y0361957D01*
X0342400Y0303943D02*
X0347157Y0308700D01*
X0262650Y0302850D02*
X0265750D01*
X0268350Y0300250D01*
Y0292850D02*
Y0300250D01*
X0517409Y0427620D02*
X0518977D01*
X0521057Y0429700D01*
X0519300Y0514900D02*
X0535500D01*
X0513143Y0471200D02*
X0514100Y0472157D01*
X0515843Y0511443D02*
X0519300Y0514900D01*
X0515843Y0506100D02*
Y0511443D01*
X0514100Y0472157D02*
Y0475200D01*
X0520400Y0481500D01*
X0522500D01*
X0388874Y0297626D02*
X0391000Y0295500D01*
X0350800Y0289000D02*
X0351800Y0288000D01*
X0360700Y0291157D02*
X0361500Y0291957D01*
X0351800Y0288000D02*
X0359400D01*
X0360700Y0289300D01*
Y0291157D01*
X0425500Y0376543D02*
X0432957Y0384000D01*
X0442500D01*
X0430743Y0207757D02*
X0437500Y0201000D01*
X0450100D01*
X0455300Y0206200D01*
X0324900Y0213600D02*
X0328000D01*
X0320850Y0217650D02*
X0324900Y0213600D01*
X0326700Y0301250D02*
X0330000D01*
X0395250Y0305044D02*
X0395556Y0305350D01*
D68*
X0312110Y0383508D02*
Y0384008D01*
X0502500Y0409496D02*
Y0415457D01*
X0508394Y0227850D02*
X0510850D01*
X0503882Y0249850D02*
Y0254854D01*
X0303807Y0235894D02*
X0306850D01*
X0503882Y0254854D02*
Y0255854D01*
X0507394Y0226850D02*
X0508394Y0227850D01*
X0389000Y0381500D02*
X0398500D01*
X0402957Y0379000D02*
Y0379500D01*
X0405118Y0424803D02*
X0411024D01*
X0472957Y0376000D02*
Y0376300D01*
X0235394Y0478850D02*
X0243850D01*
X0399504Y0383996D02*
Y0385500D01*
X0432043Y0376043D02*
X0433347Y0376491D01*
X0452917Y0325500D02*
X0457957D01*
X0362100Y0389500D02*
X0368400D01*
X0370100Y0387800D01*
X0382700D01*
X0510850Y0227850D02*
Y0228307D01*
X0465951Y0346857D02*
X0469494Y0350400D01*
X0458800Y0346857D02*
X0465951D01*
X0475900Y0380300D02*
X0485743D01*
X0472957Y0377357D02*
X0475900Y0380300D01*
X0472957Y0376300D02*
Y0377357D01*
X0422043Y0225000D02*
Y0228887D01*
X0418260Y0209760D02*
Y0211528D01*
X0418653Y0211134D02*
X0423673D01*
X0258370Y0376299D02*
Y0383327D01*
X0303898Y0360307D02*
X0310350D01*
X0228307Y0478850D02*
X0229000Y0479543D01*
X0302894Y0264850D02*
Y0267394D01*
X0411000Y0384000D02*
X0412496D01*
X0383500Y0288500D02*
X0384457D01*
X0423500Y0323504D02*
Y0327000D01*
X0423311Y0321693D02*
X0423543Y0321461D01*
X0408000Y0295986D02*
X0410486Y0293500D01*
X0415000D02*
X0420000Y0298500D01*
X0410486Y0293500D02*
X0415000D01*
X0420000Y0298500D02*
X0426000D01*
X0462957Y0301500D02*
X0463000Y0301457D01*
X0459500Y0301500D02*
X0462957D01*
X0402957Y0379500D02*
Y0380543D01*
X0334957Y0369000D02*
Y0369957D01*
X0501850Y0294307D02*
Y0296850D01*
X0264000Y0388000D02*
X0265000Y0389000D01*
X0259043Y0388000D02*
X0264000D01*
X0265000Y0389000D02*
X0270000D01*
X0229000Y0483000D02*
X0230850Y0484850D01*
X0229000Y0479543D02*
Y0483000D01*
X0232453Y0428504D02*
X0233500D01*
X0227500Y0433457D02*
X0232453Y0428504D01*
X0273716Y0420300D02*
Y0425716D01*
X0229500Y0408744D02*
X0229850Y0408394D01*
X0229500Y0408744D02*
Y0411500D01*
X0398500Y0381500D02*
X0399500Y0382500D01*
X0399504Y0383996D02*
X0402957Y0380543D01*
X0287000Y0431000D02*
X0288079Y0429921D01*
X0215500Y0289606D02*
X0216224Y0288882D01*
X0302894Y0267394D02*
X0304850Y0269350D01*
X0348504Y0386000D02*
Y0391000D01*
X0347500Y0388500D02*
X0348500Y0387500D01*
X0341000Y0388500D02*
X0347500D01*
X0361496Y0386000D02*
Y0391000D01*
X0334957Y0364000D02*
Y0369000D01*
X0248000Y0223500D02*
X0248500Y0224000D01*
X0238307Y0215350D02*
Y0220193D01*
X0237075Y0221425D02*
X0238307Y0220193D01*
X0234811Y0221425D02*
X0237075D01*
X0507850Y0275350D02*
Y0277850D01*
X0503882Y0271382D02*
X0507850Y0275350D01*
X0262107Y0274893D02*
X0264500Y0272500D01*
X0257564Y0274893D02*
X0262107D01*
X0257500Y0274957D02*
X0257564Y0274893D01*
X0252850Y0273193D02*
Y0274606D01*
Y0273193D02*
X0255543Y0270500D01*
X0257500Y0273500D02*
Y0274957D01*
X0255543Y0270500D02*
Y0271543D01*
X0302850Y0236850D02*
X0303807Y0235894D01*
X0396000Y0232504D02*
X0397504D01*
X0422000Y0219500D02*
X0422043Y0219543D01*
Y0225000D01*
X0430000Y0374000D02*
X0432043Y0376043D01*
X0433347Y0376491D02*
X0433500Y0376543D01*
X0444087Y0394043D02*
X0449500D01*
X0469000Y0376000D02*
X0472457D01*
X0499000Y0405996D02*
X0502500Y0409496D01*
X0488047Y0379043D02*
X0491500Y0382496D01*
X0408555Y0251004D02*
X0411500D01*
X0306850Y0385307D02*
X0308650Y0383508D01*
X0312110Y0384008D02*
Y0388547D01*
X0311807Y0388850D02*
X0312110Y0388547D01*
X0216224Y0288882D02*
X0220854D01*
X0224819Y0292819D02*
X0225350Y0293350D01*
X0220854Y0292819D02*
X0224819D01*
X0233815Y0292850D02*
X0233846Y0292819D01*
X0230350Y0292850D02*
X0233815D01*
X0229850Y0293350D02*
X0230350Y0292850D01*
X0320472Y0505512D02*
X0320866Y0505905D01*
X0378346Y0509646D02*
X0382480Y0513779D01*
X0378346Y0496850D02*
Y0509646D01*
X0395276Y0507480D02*
X0395472Y0507677D01*
Y0513779D01*
X0290551Y0429921D02*
X0292126Y0428346D01*
X0288079Y0429921D02*
X0290551D01*
X0411024Y0419685D02*
Y0424803D01*
X0413819Y0429134D02*
X0418110D01*
X0420079Y0427165D01*
X0292126Y0425984D02*
Y0428346D01*
X0285039Y0420866D02*
Y0425984D01*
X0280709D02*
X0285039D01*
X0316795Y0505905D02*
X0320866D01*
X0308846Y0501350D02*
Y0512347D01*
X0311850Y0515350D01*
X0502394Y0334350D02*
X0503350Y0333394D01*
X0503882Y0267846D02*
Y0271382D01*
X0499894Y0292350D02*
X0501850Y0294307D01*
X0518350Y0278854D02*
Y0283850D01*
X0510850Y0228307D02*
X0513350Y0230807D01*
X0240350Y0485894D02*
X0243807D01*
X0244350Y0485350D01*
X0382480Y0513189D02*
Y0513779D01*
Y0513189D02*
X0388189Y0507480D01*
X0422500Y0322504D02*
X0423500Y0323504D01*
X0423543Y0317000D02*
Y0321461D01*
X0306043Y0303500D02*
Y0306201D01*
X0305394Y0306850D02*
X0306043Y0306201D01*
X0410043Y0379000D02*
Y0379500D01*
X0412500Y0281004D02*
X0415000Y0278504D01*
X0412500Y0276004D02*
X0415000Y0278504D01*
X0418260Y0211528D02*
X0418653Y0211134D01*
X0305000Y0353705D02*
Y0359205D01*
X0312421Y0260850D02*
X0312870Y0261299D01*
X0309350Y0260850D02*
X0312421D01*
X0334957Y0377543D02*
X0337457Y0375043D01*
X0322847Y0367850D02*
X0328847Y0361850D01*
X0417000Y0208500D02*
X0418260Y0209760D01*
X0417000Y0206000D02*
Y0208500D01*
X0361543Y0292000D02*
X0362043Y0292500D01*
X0408555Y0281004D02*
X0412500D01*
X0408555Y0266004D02*
X0415500D01*
X0408555Y0276004D02*
X0412500D01*
X0369807Y0276894D02*
X0370350D01*
X0378500Y0293500D02*
X0383500Y0288500D01*
X0377000Y0293500D02*
X0378500D01*
X0371913Y0279000D02*
X0372500D01*
X0365350Y0276894D02*
X0369807D01*
X0523000Y0409457D02*
X0525000Y0407457D01*
X0529000D01*
X0523000Y0416543D02*
Y0419500D01*
X0521054Y0422583D02*
X0521138Y0422500D01*
X0394252Y0515000D02*
X0395472Y0513779D01*
X0326000Y0390201D02*
Y0390500D01*
Y0390201D02*
X0331201Y0385000D01*
X0203500Y0360000D02*
Y0361957D01*
X0204000Y0370543D02*
Y0373000D01*
X0230850Y0484850D02*
X0235850D01*
X0503350Y0330350D02*
Y0333394D01*
X0459000Y0383543D02*
Y0386500D01*
X0391500Y0515000D02*
X0394252D01*
X0487000Y0372457D02*
X0487500Y0371957D01*
X0311850Y0515350D02*
X0318453D01*
X0326758Y0523656D01*
X0412626Y0430326D02*
X0413819Y0429134D01*
X0397504Y0232504D02*
X0399760Y0234760D01*
X0403842D01*
X0382700Y0387800D02*
X0389000Y0381500D01*
X0331201Y0385000D02*
X0337500D01*
X0341000Y0388500D01*
X0332400Y0290600D02*
X0334000Y0289000D01*
X0342400Y0296857D02*
X0342600D01*
X0338743D02*
X0342400D01*
X0270772Y0311672D02*
X0273000Y0309444D01*
X0322638Y0510827D02*
X0327773D01*
X0329528Y0509072D01*
Y0503937D02*
Y0509072D01*
X0278346Y0512350D02*
X0278997Y0511700D01*
X0296500D01*
X0306758Y0521958D01*
Y0523656D01*
X0316000Y0324500D02*
Y0328000D01*
X0317500Y0329500D01*
X0320500D01*
X0422043Y0228887D02*
X0422557Y0229400D01*
X0408700Y0238500D02*
X0414157D01*
X0404960Y0234760D02*
X0408700Y0238500D01*
X0403842Y0234760D02*
X0404960D01*
X0527800Y0340800D02*
Y0345401D01*
X0522850Y0350350D02*
X0527800Y0345401D01*
X0308650Y0383508D02*
X0312110D01*
X0334957Y0377543D02*
Y0378500D01*
X0337457Y0372457D02*
Y0375043D01*
X0342400Y0292731D02*
X0343100Y0292031D01*
X0342400Y0292731D02*
Y0296857D01*
X0246244Y0215744D02*
Y0223445D01*
X0248000D02*
Y0223500D01*
X0284543Y0350654D02*
Y0355500D01*
X0369807Y0276894D02*
X0371913Y0279000D01*
X0314807Y0504500D02*
Y0510850D01*
X0485743Y0380300D02*
X0487000Y0379043D01*
X0488047D01*
X0491500Y0382496D02*
Y0386000D01*
D69*
X0513307Y0266705D02*
Y0271350D01*
X0520394Y0266705D02*
Y0271350D01*
X0506898Y0249894D02*
X0513350D01*
X0513307Y0271350D02*
Y0272350D01*
X0507394Y0221850D02*
Y0226850D01*
X0408095Y0347000D02*
X0408595Y0346500D01*
X0520394Y0271350D02*
Y0272350D01*
X0518008Y0256193D02*
X0520590D01*
X0466850Y0331850D02*
X0468250Y0330450D01*
X0371437Y0253850D02*
X0372650D01*
X0371500Y0283957D02*
X0375500D01*
X0407992Y0350000D02*
X0408256Y0350264D01*
X0425059Y0499441D02*
X0426760D01*
X0460000Y0370398D02*
Y0375457D01*
Y0370398D02*
X0460240Y0370158D01*
X0449500Y0386957D02*
X0450000D01*
X0437760Y0377343D02*
Y0377842D01*
X0445240Y0377343D02*
Y0377842D01*
X0529500Y0407457D02*
X0535043D01*
X0537000Y0405500D01*
X0395000Y0374654D02*
X0395154Y0374500D01*
X0395173Y0374480D02*
Y0374827D01*
X0410543Y0392000D02*
X0413000Y0394457D01*
X0410643Y0510543D02*
X0411500D01*
X0407000Y0506900D02*
X0410643Y0510543D01*
X0407000Y0499500D02*
Y0506900D01*
X0463557Y0358800D02*
Y0362513D01*
X0464600Y0363557D01*
X0474457Y0359600D02*
X0476500Y0357557D01*
Y0357300D02*
Y0357557D01*
X0480557Y0363960D02*
X0481543Y0362974D01*
Y0359600D02*
Y0362974D01*
X0437760Y0377842D02*
Y0379760D01*
X0470243Y0363960D02*
X0470643Y0363559D01*
Y0358800D02*
Y0363559D01*
Y0358800D02*
X0471443Y0359600D01*
X0456500Y0368600D02*
Y0370158D01*
X0454381Y0366481D02*
X0456500Y0368600D01*
X0449481Y0366481D02*
X0454381D01*
X0448500Y0365500D02*
X0449481Y0366481D01*
X0471900Y0367400D02*
X0474035Y0369535D01*
X0474000Y0373271D02*
Y0375400D01*
Y0373271D02*
X0474035Y0373237D01*
Y0369535D02*
Y0373237D01*
X0481600Y0371000D02*
X0482557Y0371957D01*
X0431200Y0216543D02*
Y0220800D01*
X0500557Y0226700D02*
X0500957Y0226300D01*
Y0221900D02*
Y0226300D01*
X0414520Y0219500D02*
Y0224563D01*
X0410957Y0230500D02*
X0411457Y0230000D01*
X0422457Y0353500D02*
Y0358000D01*
X0422441Y0348240D02*
Y0353484D01*
X0420522Y0503978D02*
X0425059Y0499441D01*
X0375500Y0392043D02*
Y0397504D01*
X0381500Y0273957D02*
X0385500D01*
X0507319Y0261882D02*
Y0268847D01*
X0512969Y0255236D02*
X0513110Y0255693D01*
X0512850Y0254850D02*
X0512969Y0255236D01*
X0398000Y0392000D02*
Y0399500D01*
X0372650Y0253850D02*
X0374909Y0251590D01*
X0451831Y0269331D02*
X0452500Y0270000D01*
X0446500Y0269331D02*
X0451831D01*
X0378543Y0379543D02*
X0378831Y0379831D01*
X0388874Y0365968D02*
X0389000Y0366094D01*
X0432500Y0283043D02*
Y0289500D01*
X0430500Y0291500D02*
X0432500Y0289500D01*
X0426500Y0291500D02*
X0430500D01*
X0428000Y0326000D02*
Y0326457D01*
X0455457Y0284000D02*
X0455500Y0283957D01*
X0422500Y0322504D02*
X0423311Y0321693D01*
X0425000Y0307500D02*
X0427693D01*
X0419500Y0302000D02*
X0425000Y0307500D01*
X0416043Y0302000D02*
X0419500D01*
X0415043Y0301000D02*
X0416043Y0302000D01*
X0417457Y0285500D02*
X0418457D01*
X0514957Y0420457D02*
X0515000Y0420413D01*
Y0417900D02*
Y0420413D01*
X0403476Y0350024D02*
X0407969D01*
X0407992Y0350000D01*
X0373126Y0360874D02*
Y0365968D01*
X0376276Y0361724D02*
Y0365968D01*
X0360528Y0300016D02*
Y0305732D01*
X0380792Y0360208D02*
X0382409Y0358591D01*
Y0354380D02*
Y0358591D01*
X0376232Y0357769D02*
X0377731D01*
X0377792Y0360208D02*
X0380792D01*
X0376276Y0361724D02*
X0377792Y0360208D01*
X0241500Y0293000D02*
X0243500Y0291000D01*
X0422457Y0353000D02*
Y0353500D01*
X0401457Y0365984D02*
X0401472Y0365968D01*
X0334000Y0263500D02*
X0334500D01*
X0320500Y0214500D02*
X0324590Y0210409D01*
X0314500Y0214500D02*
X0320500D01*
X0311319Y0217681D02*
X0314500Y0214500D01*
X0311319Y0217681D02*
Y0221847D01*
Y0208854D02*
Y0209819D01*
X0324590Y0209193D02*
Y0210409D01*
X0374500Y0312500D02*
Y0322500D01*
Y0312500D02*
X0376276Y0310724D01*
X0426500Y0345000D02*
X0427559Y0346059D01*
X0423500Y0345000D02*
X0426500D01*
X0422441Y0346059D02*
X0423500Y0345000D01*
X0422441Y0340760D02*
Y0346059D01*
Y0353484D02*
X0422457Y0353500D01*
X0422441Y0346059D02*
Y0348240D01*
X0427559Y0346059D02*
Y0348240D01*
X0429000Y0335543D02*
Y0338500D01*
X0427559Y0339941D02*
X0429000Y0338500D01*
X0427559Y0339941D02*
Y0340760D01*
X0428000Y0327457D02*
X0429000Y0328457D01*
X0241457Y0293000D02*
X0241500D01*
X0317350Y0334350D02*
X0318150D01*
X0314350D02*
X0317350D01*
X0238000Y0247043D02*
Y0250000D01*
X0515850Y0273850D02*
Y0277850D01*
X0514350Y0272350D02*
X0515850Y0273850D01*
X0262500Y0286441D02*
Y0290500D01*
X0261441Y0291559D02*
X0262500Y0290500D01*
X0258760Y0291559D02*
X0261441D01*
X0262500Y0286441D02*
X0266240D01*
X0258760D02*
X0262500D01*
X0256650Y0292850D02*
X0258000Y0291500D01*
X0424500Y0285457D02*
X0424543Y0285500D01*
X0424500Y0281004D02*
Y0285457D01*
Y0276004D02*
X0424547Y0275957D01*
X0414520Y0224563D02*
X0414957Y0225000D01*
X0417000Y0227043D01*
X0464457Y0383543D02*
X0469000Y0379000D01*
X0445240Y0377842D02*
Y0379691D01*
X0445941Y0386957D02*
X0449500D01*
Y0394043D02*
X0450000D01*
X0445240Y0387657D02*
X0445941Y0386957D01*
X0445240Y0386740D02*
Y0387657D01*
X0438500Y0370543D02*
Y0370553D01*
X0417500Y0395500D02*
X0420147Y0398147D01*
X0414043Y0395500D02*
X0417500D01*
X0413000Y0394457D02*
X0414043Y0395500D01*
X0459000Y0376457D02*
X0460000Y0375457D01*
X0420147Y0398147D02*
Y0399000D01*
X0464000Y0383543D02*
X0464457D01*
X0459000Y0376457D02*
X0464000D01*
X0281437Y0309394D02*
X0283630Y0307201D01*
Y0298213D02*
Y0307201D01*
X0419500Y0261004D02*
X0424500D01*
X0418500Y0260004D02*
X0419500Y0261004D01*
X0253350Y0292850D02*
X0256650D01*
X0252850Y0293350D02*
X0253350Y0292850D01*
X0317110Y0209193D02*
Y0210090D01*
X0281071Y0275575D02*
X0281194Y0275451D01*
X0478437Y0336894D02*
X0480630Y0334701D01*
Y0325713D02*
Y0334701D01*
X0470394Y0325713D02*
Y0329350D01*
X0478071Y0303075D02*
X0478195Y0302951D01*
X0470866Y0238409D02*
X0476823D01*
X0470350Y0237894D02*
X0470866Y0238409D01*
X0496244Y0242807D02*
X0513350D01*
X0495642Y0243409D02*
X0496244Y0242807D01*
X0513350Y0237894D02*
X0516394D01*
X0517350Y0238850D01*
X0513110Y0266508D02*
X0513307Y0266705D01*
X0516850Y0261850D02*
Y0265508D01*
X0505850Y0248847D02*
X0506898Y0249894D01*
X0507850Y0254850D02*
X0512850D01*
X0516850Y0257350D02*
X0518008Y0256193D01*
X0507319Y0261882D02*
X0509350Y0259850D01*
X0516850Y0261850D02*
X0518350Y0260350D01*
X0509350Y0259850D02*
X0515350D01*
X0516850Y0258350D01*
Y0257350D02*
Y0258350D01*
X0518350Y0260350D02*
X0519850D01*
X0386823Y0251590D02*
X0387216Y0251984D01*
Y0257004D01*
X0257846Y0512350D02*
X0259347Y0513850D01*
X0406043Y0392000D02*
X0410543D01*
X0375457D02*
X0375500Y0392043D01*
X0483043Y0388500D02*
Y0394457D01*
X0483000Y0394500D02*
X0483043Y0394457D01*
X0311319Y0209819D02*
X0313000Y0211500D01*
X0315701D01*
X0317110Y0210090D01*
X0334500Y0263500D02*
X0336250Y0265250D01*
X0337750D01*
X0338350Y0265850D01*
X0407969Y0359472D02*
X0408000Y0359504D01*
X0407969Y0346874D02*
X0408095Y0347000D01*
X0401500Y0367000D02*
Y0368000D01*
X0391841Y0368151D02*
X0392500Y0367492D01*
X0395000Y0374654D02*
X0395173Y0374827D01*
X0395154Y0374500D02*
X0395173Y0374480D01*
X0373126Y0360874D02*
X0376232Y0357769D01*
X0387472Y0402059D02*
X0390441D01*
X0394043Y0398457D01*
Y0392000D02*
Y0398457D01*
X0387472Y0407059D02*
X0390441D01*
X0398000Y0399500D01*
X0389900Y0226500D02*
X0391669Y0228269D01*
X0428000Y0326457D02*
X0428500Y0326957D01*
X0308507Y0317507D02*
X0310350Y0319350D01*
X0424547Y0275957D02*
X0432500D01*
X0400500Y0226500D02*
X0400769Y0226768D01*
Y0228269D01*
X0403000Y0230500D01*
X0451193Y0284000D02*
X0455457D01*
X0360528Y0300016D02*
X0361500Y0299043D01*
X0418457Y0285500D02*
Y0286457D01*
X0376276Y0305732D02*
Y0310724D01*
X0427693Y0307500D02*
X0428500Y0308307D01*
X0380500Y0272957D02*
X0381500Y0273957D01*
X0374909Y0251590D02*
X0386823D01*
X0367500Y0291043D02*
X0368543D01*
X0367500Y0283957D02*
X0371500D01*
X0361500Y0285500D02*
X0363000Y0287000D01*
X0380500Y0267543D02*
Y0272957D01*
X0375500Y0259957D02*
X0380000D01*
X0380500Y0260457D01*
X0365350Y0258307D02*
X0373850D01*
X0375500Y0259957D01*
X0361500Y0280500D02*
Y0285500D01*
X0534500Y0418307D02*
Y0426169D01*
X0534169Y0426500D02*
X0534500Y0426169D01*
X0542000Y0418307D02*
Y0425669D01*
X0542831Y0426500D01*
X0534457Y0392500D02*
Y0392543D01*
X0542831Y0426500D02*
X0545000Y0424331D01*
Y0423665D02*
Y0424331D01*
X0537000Y0400000D02*
Y0405500D01*
X0542000Y0400000D02*
Y0404500D01*
X0537000Y0413500D02*
Y0418307D01*
X0535000Y0411500D02*
X0537000Y0413500D01*
X0539543Y0451500D02*
X0540500Y0450543D01*
X0542000Y0404500D02*
X0545000Y0407500D01*
X0539500Y0411500D02*
Y0418307D01*
Y0400000D02*
Y0407500D01*
X0368000Y0298500D02*
Y0299000D01*
X0377731Y0357769D02*
X0379000Y0356500D01*
Y0336500D02*
Y0356500D01*
X0425000Y0376043D02*
X0425500Y0376543D01*
X0426760Y0499441D02*
X0434240D01*
X0421602Y0504559D02*
X0426760D01*
X0431000Y0507457D02*
X0433543Y0510000D01*
X0431000Y0505500D02*
Y0507457D01*
Y0505500D02*
X0431941Y0504559D01*
X0434240D01*
X0407000Y0499500D02*
X0408000Y0498500D01*
X0408500D01*
X0358514Y0350514D02*
Y0350986D01*
X0416500Y0375043D02*
Y0378500D01*
Y0375043D02*
X0417543Y0374000D01*
X0409500Y0347000D02*
X0414500D01*
X0415500Y0348000D01*
X0407969Y0356323D02*
X0408074Y0356428D01*
X0415500Y0358637D02*
Y0359000D01*
X0407969Y0353173D02*
X0413405D01*
X0416000Y0355768D01*
X0408074Y0356428D02*
X0412928D01*
X0415500Y0359000D01*
X0321900Y0342400D02*
Y0343600D01*
X0321000Y0344500D02*
X0321900Y0343600D01*
Y0337600D02*
Y0339600D01*
Y0337600D02*
X0322000Y0337500D01*
X0247894Y0292850D02*
X0251350D01*
X0252850Y0293350D02*
Y0294350D01*
X0251350Y0292850D02*
X0252850Y0294350D01*
X0513307Y0272350D02*
X0514350D01*
X0352800Y0253800D02*
X0356600Y0257600D01*
X0349300Y0239900D02*
Y0248000D01*
X0352800Y0251500D01*
Y0253800D01*
X0388959Y0412059D02*
X0393200Y0416300D01*
X0387472Y0412059D02*
X0388959D01*
X0393200Y0416300D02*
X0403143D01*
X0405100Y0418257D01*
X0408000Y0359504D02*
Y0363500D01*
X0401500Y0368000D02*
X0403000Y0369500D01*
X0382575Y0365968D02*
Y0374325D01*
X0395173Y0365968D02*
Y0374480D01*
X0399000Y0354500D02*
X0403476Y0350024D01*
X0391841Y0368151D02*
Y0370341D01*
X0395000Y0374500D02*
X0395154D01*
X0385724Y0367305D02*
Y0369792D01*
X0379425Y0365968D02*
Y0372425D01*
X0389300Y0346300D02*
X0390700Y0344900D01*
X0389300Y0346300D02*
Y0349400D01*
X0367500Y0291043D02*
X0371157Y0294700D01*
X0390700Y0344900D02*
X0399100D01*
X0403425Y0340575D01*
X0407969D01*
X0402275Y0337425D02*
X0407969D01*
X0397900Y0341800D02*
X0402275Y0337425D01*
X0385100Y0341800D02*
X0397900D01*
X0382800Y0339500D02*
X0385100Y0341800D01*
X0382800Y0335300D02*
Y0339500D01*
X0428000Y0327457D02*
X0428500Y0326957D01*
X0382800Y0335300D02*
X0385400Y0332700D01*
X0387800D01*
X0270750Y0304350D02*
X0273394Y0301706D01*
Y0298213D02*
Y0301706D01*
X0269850Y0304350D02*
X0270750D01*
X0476823Y0243409D02*
X0479409D01*
X0482900Y0246900D01*
Y0252943D01*
X0483807Y0253850D01*
X0490894Y0250406D02*
Y0253850D01*
Y0250406D02*
X0492891Y0248409D01*
X0495642D01*
X0470350Y0230807D02*
X0471543Y0232000D01*
X0473100D01*
X0474509Y0233409D01*
X0476823D01*
X0404457Y0442500D02*
X0405100Y0443143D01*
Y0445600D01*
X0407000Y0447500D01*
X0513350Y0249894D02*
X0514206D01*
X0517350Y0246750D01*
Y0238850D02*
Y0246750D01*
X0525400Y0422500D02*
X0527000D01*
X0533588Y0435145D02*
X0543355D01*
X0545000Y0433500D01*
X0542831Y0426500D02*
Y0427631D01*
X0545000Y0429800D01*
Y0433500D01*
X0508757Y0506100D02*
Y0513857D01*
X0508800Y0502600D02*
X0513700Y0497700D01*
X0510350Y0476350D02*
X0517800Y0483800D01*
Y0492057D01*
X0506057Y0471200D02*
Y0477857D01*
X0513700Y0485500D01*
Y0497700D01*
X0501350Y0227894D02*
Y0230250D01*
X0502950Y0231850D01*
X0403000Y0369500D02*
X0406457D01*
X0357378Y0299000D02*
Y0305732D01*
X0469294Y0330450D02*
X0470394Y0329350D01*
X0468250Y0330450D02*
X0469294D01*
X0429500Y0214843D02*
X0431200Y0216543D01*
X0534500Y0397300D02*
Y0400000D01*
X0532500Y0395300D02*
X0534500Y0397300D01*
X0532500Y0394457D02*
X0534457Y0392500D01*
X0531500Y0395500D02*
X0532500Y0394500D01*
X0534457Y0392543D01*
X0532500Y0394457D02*
Y0394500D01*
Y0395300D01*
X0417000Y0227043D02*
Y0230500D01*
X0403000D02*
X0410457D01*
X0410957D01*
X0502950Y0231850D02*
X0503850D01*
X0528143Y0429700D02*
X0533588Y0435145D01*
X0391669Y0228269D02*
X0400769D01*
X0378831Y0379831D02*
Y0382500D01*
X0482557Y0371957D02*
X0487000D01*
X0508800Y0502600D02*
Y0506100D01*
X0415500Y0358637D02*
X0415682Y0358818D01*
X0500307Y0226850D02*
X0501350Y0227894D01*
D70*
X0234150Y0238850D02*
X0255850D01*
X0258850Y0241850D01*
X0328543Y0399016D02*
X0333268Y0394291D01*
X0339370D01*
X0340791D02*
X0348502Y0402002D01*
X0455315Y0400197D02*
X0461024Y0394488D01*
X0447047Y0490551D02*
X0460236D01*
X0447047D02*
Y0494500D01*
X0411614Y0490551D02*
X0420472D01*
X0429331D01*
X0438189D01*
X0420472Y0457874D02*
X0429331D01*
X0438189D01*
X0245158Y0223445D02*
X0246244D01*
X0242846Y0225756D02*
X0245158Y0223445D01*
X0275787Y0452756D02*
Y0458071D01*
X0356693Y0461024D02*
X0367913D01*
X0465913Y0405937D02*
X0476126D01*
X0464764Y0414173D02*
Y0428937D01*
Y0407087D02*
Y0414173D01*
X0465158Y0405937D02*
X0465913D01*
X0484449Y0415945D02*
X0492717D01*
X0286221Y0473500D02*
Y0479134D01*
X0339370Y0394291D02*
X0340791D01*
X0328543Y0399016D02*
Y0400984D01*
X0310827D02*
X0316732D01*
X0248000Y0223445D02*
X0251850D01*
X0465520Y0394850D02*
X0474854D01*
X0437500Y0401500D02*
X0443000D01*
X0339370Y0394291D02*
X0339429Y0394350D01*
X0485575Y0405850D02*
X0487847Y0403579D01*
Y0394850D02*
Y0403579D01*
X0465913Y0405937D02*
X0465945Y0405905D01*
X0464764Y0407087D02*
X0465913Y0405937D01*
X0225850Y0306350D02*
Y0316350D01*
X0222850Y0303350D02*
X0225850Y0306350D01*
X0253783Y0253323D02*
X0253850Y0253256D01*
X0261350D01*
X0275787Y0458071D02*
X0276378Y0458661D01*
X0401575Y0457087D02*
X0402165Y0457677D01*
X0401575Y0452362D02*
Y0457087D01*
X0402165Y0472047D02*
Y0477362D01*
X0466756Y0543655D02*
Y0553655D01*
X0438189Y0490551D02*
X0447047D01*
X0438189Y0470866D02*
Y0477559D01*
X0429331Y0470866D02*
Y0477559D01*
X0420472Y0470866D02*
Y0477559D01*
X0411614Y0470866D02*
Y0477559D01*
Y0457874D02*
X0420472D01*
X0438189D02*
X0447047D01*
X0447047Y0426968D02*
X0452953D01*
X0447047Y0414173D02*
X0452953D01*
X0435236D02*
Y0426968D01*
X0447047Y0470866D02*
Y0477559D01*
X0460236Y0490551D02*
X0460827Y0489961D01*
X0464764Y0414173D02*
X0465551Y0414961D01*
X0402362Y0490551D02*
X0411614D01*
X0402165Y0490354D02*
X0402362Y0490551D01*
X0393307Y0477362D02*
X0393307Y0477362D01*
X0321654Y0471457D02*
Y0479134D01*
X0312795Y0471457D02*
Y0479134D01*
X0303937Y0471457D02*
Y0479134D01*
X0295079Y0471457D02*
Y0479134D01*
X0320669Y0426575D02*
X0327559D01*
X0320669Y0413779D02*
X0327559D01*
X0341339Y0428543D02*
X0344685D01*
X0339508Y0426713D02*
X0341339Y0428543D01*
X0339370Y0413779D02*
Y0426575D01*
X0386417Y0477362D02*
X0393307D01*
X0297346Y0226350D02*
Y0236579D01*
X0297075Y0236850D02*
X0297346Y0236579D01*
X0258850Y0241850D02*
X0273350D01*
X0458756Y0235850D02*
Y0247850D01*
X0461024Y0394488D02*
X0465158D01*
X0465520Y0394850D01*
X0280500Y0409905D02*
X0284095D01*
X0287000Y0407000D01*
X0292000D01*
X0298016Y0400984D02*
X0299016D01*
X0276378Y0472638D02*
Y0477704D01*
X0213402Y0295498D02*
Y0303350D01*
Y0295498D02*
X0214756Y0294144D01*
Y0290350D02*
Y0294144D01*
X0292000Y0407000D02*
X0298016Y0400984D01*
D71*
X0463400Y0369143D02*
X0464700Y0370443D01*
X0516800Y0522000D02*
X0521000D01*
X0381063Y0212199D02*
X0382199D01*
X0463400Y0368000D02*
Y0369143D01*
X0461300Y0365900D02*
X0463400Y0368000D01*
X0464700Y0370343D02*
X0465797Y0371440D01*
X0456700Y0365900D02*
X0461300D01*
X0479200Y0376000D02*
X0480043D01*
X0476400Y0373200D02*
X0479200Y0376000D01*
X0476400Y0370100D02*
Y0373200D01*
Y0370100D02*
X0479050Y0367450D01*
X0452660Y0360142D02*
Y0361860D01*
X0456700Y0365900D01*
X0226900Y0524100D02*
X0237400D01*
X0221300D02*
X0226900D01*
X0507000Y0522000D02*
X0510300D01*
X0514000D02*
X0516800D01*
X0326350Y0319350D02*
X0330295D01*
X0314350D02*
X0318350D01*
X0347732Y0324827D02*
X0352827D01*
X0343425Y0337425D02*
X0347732D01*
X0343724Y0343724D02*
X0347732D01*
X0340733Y0312233D02*
Y0320767D01*
X0337850Y0309350D02*
X0340733Y0312233D01*
X0392000Y0305709D02*
X0392024Y0305732D01*
X0337500Y0332000D02*
Y0334000D01*
X0330295Y0309350D02*
X0337850D01*
X0322372Y0307231D02*
X0322600Y0307004D01*
Y0304500D02*
Y0307004D01*
X0324172Y0312172D02*
X0326350Y0314350D01*
X0324172Y0307977D02*
Y0312172D01*
Y0307977D02*
X0324500Y0307649D01*
Y0304500D02*
Y0307649D01*
X0326350Y0314350D02*
X0330295D01*
Y0324350D02*
X0333850D01*
X0382199Y0212199D02*
X0385000Y0215000D01*
Y0224410D02*
X0387090Y0226500D01*
X0330295Y0319350D02*
X0333850D01*
X0338617Y0322883D02*
X0340733Y0320767D01*
X0333850Y0319350D02*
X0336998Y0322498D01*
X0333850Y0324350D02*
X0335380Y0325880D01*
X0322372Y0307231D02*
Y0315372D01*
X0338617Y0322883D02*
Y0328117D01*
X0340738Y0330238D01*
X0336998Y0322498D02*
Y0328998D01*
X0339119Y0331119D01*
X0335380Y0325880D02*
Y0329879D01*
X0337500Y0332000D01*
X0310350Y0319350D02*
X0314350D01*
X0339119Y0331119D02*
Y0333119D01*
X0343425Y0337425D01*
X0337500Y0334000D02*
X0342500Y0339000D01*
Y0342500D01*
X0343724Y0343724D01*
X0361000Y0281000D02*
X0361500Y0280500D01*
X0349457Y0284500D02*
X0352957Y0281000D01*
X0361000D01*
X0271111Y0435000D02*
X0285658D01*
X0352827Y0324827D02*
X0357000Y0329000D01*
Y0349000D02*
X0358514Y0350514D01*
X0359000Y0327000D02*
Y0346000D01*
X0360500Y0347500D01*
X0357000Y0329000D02*
Y0349000D01*
X0322372Y0315372D02*
X0326350Y0319350D01*
X0320500Y0317000D02*
X0322500Y0319000D01*
Y0320500D01*
X0326350Y0324350D01*
X0308423Y0317507D02*
X0308507D01*
X0347732Y0321677D02*
X0353677D01*
X0359000Y0327000D01*
X0405118Y0424803D02*
X0406421Y0423500D01*
X0408461Y0435039D02*
X0411654D01*
X0407500Y0436000D02*
X0408461Y0435039D01*
X0407500Y0444210D02*
X0409245Y0445956D01*
X0407500Y0436000D02*
Y0444210D01*
X0409245Y0445956D02*
X0414500D01*
X0409000Y0374000D02*
X0410457D01*
X0280240Y0371158D02*
Y0372760D01*
X0277796Y0375204D02*
X0280240Y0372760D01*
X0274753Y0375204D02*
X0277796D01*
X0273500Y0376457D02*
X0274753Y0375204D01*
X0514000Y0522000D02*
Y0524000D01*
X0507000Y0530000D02*
X0521000D01*
X0507000Y0522000D02*
Y0530000D01*
X0521000Y0522000D02*
Y0530000D01*
X0510300Y0522000D02*
Y0525000D01*
X0516800Y0522000D02*
Y0526600D01*
X0221300Y0524100D02*
Y0526500D01*
X0237400Y0524100D02*
Y0526000D01*
X0226900Y0524100D02*
Y0526600D01*
X0207900Y0514800D02*
Y0516200D01*
X0214500Y0514800D02*
Y0516100D01*
X0207800Y0512600D02*
Y0514700D01*
X0204000D02*
X0207800D01*
X0204000D02*
Y0516200D01*
X0216100Y0514700D02*
Y0516100D01*
X0207800Y0514700D02*
X0216100D01*
X0220300D02*
Y0516100D01*
X0216100Y0514700D02*
X0220300D01*
X0223400D02*
Y0516100D01*
X0220300Y0514700D02*
X0223400D01*
X0231600D02*
Y0516100D01*
X0227700Y0514700D02*
Y0516100D01*
X0223400Y0514700D02*
X0227700D01*
X0231600D01*
X0268500Y0437611D02*
X0271111Y0435000D01*
X0273660Y0438740D02*
X0275342D01*
X0268337Y0444063D02*
Y0444543D01*
X0401300Y0430717D02*
X0401342Y0430760D01*
X0408000Y0373000D02*
X0409000Y0374000D01*
X0375500Y0372000D02*
Y0377169D01*
X0369976Y0365968D02*
Y0374424D01*
X0366600Y0377800D02*
X0369976Y0374424D01*
X0404331Y0425591D02*
X0405118Y0424803D01*
X0394000Y0325700D02*
X0396800Y0328500D01*
Y0332300D01*
X0399000Y0334500D01*
X0369976Y0305732D02*
Y0322376D01*
X0373300Y0325700D01*
X0394000D01*
X0348300Y0285657D02*
X0349457Y0284500D01*
X0348300Y0285657D02*
Y0296457D01*
X0348900Y0297057D01*
Y0304143D02*
X0352943Y0300100D01*
X0355443D01*
X0356500Y0299043D01*
X0410000Y0306000D02*
Y0307600D01*
X0411200Y0308800D01*
X0268337Y0424858D02*
Y0429437D01*
X0270160Y0431260D01*
X0275342D01*
X0391037Y0440642D02*
X0397657D01*
X0400060Y0438240D01*
X0400799D02*
X0401339Y0438779D01*
X0400060Y0438240D02*
X0400799D01*
X0401342D01*
X0391037Y0420958D02*
X0398158D01*
X0401300Y0424100D01*
Y0430717D01*
X0340738Y0330238D02*
Y0331638D01*
X0343376Y0334276D01*
X0347732D01*
X0326700Y0304500D02*
Y0309500D01*
X0320500Y0304500D02*
Y0317000D01*
X0411200Y0308800D02*
Y0311100D01*
X0410072Y0312228D02*
X0411200Y0311100D01*
X0407969Y0312228D02*
X0410072D01*
X0430140Y0241717D02*
X0438100Y0233757D01*
X0430140Y0241717D02*
Y0242519D01*
X0370169Y0382500D02*
X0375500Y0377169D01*
X0510300Y0522000D02*
X0514000D01*
X0509000Y0527936D02*
X0511624D01*
X0510312D01*
Y0524000D01*
X0513592D02*
X0514904D01*
X0515560Y0524656D01*
Y0525968D01*
X0514904Y0526624D01*
X0513592D01*
X0512936Y0525968D01*
Y0524656D01*
X0513592Y0524000D01*
X0516872Y0522688D02*
Y0526624D01*
X0518839D01*
X0519495Y0525968D01*
Y0524656D01*
X0518839Y0524000D01*
X0516872D01*
X0204000Y0516200D02*
Y0520136D01*
X0205968D01*
X0206624Y0519480D01*
Y0518168D01*
X0205968Y0517512D01*
X0204000D01*
X0210560Y0520136D02*
X0207936D01*
Y0518168D01*
X0209248D01*
X0207936D01*
Y0516200D01*
X0211872D02*
Y0520136D01*
X0213183Y0518824D01*
X0214495Y0520136D01*
Y0516200D01*
X0215807D02*
Y0516856D01*
X0216463D01*
Y0516200D01*
X0215807D01*
X0219087Y0519480D02*
X0219743Y0520136D01*
X0221055D01*
X0221711Y0519480D01*
Y0518824D01*
X0221055Y0518168D01*
X0220399D01*
X0221055D01*
X0221711Y0517512D01*
Y0516856D01*
X0221055Y0516200D01*
X0219743D01*
X0219087Y0516856D01*
X0223023Y0516200D02*
Y0516856D01*
X0223679D01*
Y0516200D01*
X0223023D01*
X0226303Y0519480D02*
X0226958Y0520136D01*
X0228270D01*
X0228926Y0519480D01*
Y0516856D01*
X0228270Y0516200D01*
X0226958D01*
X0226303Y0516856D01*
Y0519480D01*
X0230238D02*
X0230894Y0520136D01*
X0232206D01*
X0232862Y0519480D01*
Y0518824D01*
X0232206Y0518168D01*
X0231550D01*
X0232206D01*
X0232862Y0517512D01*
Y0516856D01*
X0232206Y0516200D01*
X0230894D01*
X0230238Y0516856D01*
D72*
X0413543Y0369500D02*
X0417000D01*
X0467835Y0317910D02*
Y0325713D01*
X0353850Y0232850D02*
Y0247850D01*
X0286189Y0264894D02*
Y0275575D01*
X0270835Y0290409D02*
Y0298213D01*
X0282350Y0286894D02*
X0283630Y0288173D01*
X0275953Y0298213D02*
Y0304791D01*
X0270835Y0275575D02*
Y0283878D01*
X0288748Y0298213D02*
Y0304791D01*
X0290600Y0306644D01*
X0278512Y0302555D02*
X0280350Y0304394D01*
X0291307Y0298213D02*
Y0301850D01*
X0293350Y0303894D01*
X0270835Y0283878D02*
X0271350Y0284394D01*
X0281071Y0288173D02*
X0282350Y0286894D01*
X0293866Y0275575D02*
Y0283878D01*
Y0290910D02*
Y0298213D01*
X0278512D02*
Y0302555D01*
X0286189Y0298213D02*
X0286189Y0298213D01*
X0286189Y0308732D02*
X0286189Y0308732D01*
Y0298213D02*
Y0308732D01*
X0291307Y0271937D02*
Y0275575D01*
X0288748Y0268496D02*
X0290350Y0266894D01*
X0288748Y0268496D02*
Y0275575D01*
X0472953Y0325713D02*
Y0332291D01*
X0475512Y0325713D02*
Y0330055D01*
X0477350Y0331894D01*
X0488307Y0325713D02*
Y0329350D01*
X0490350Y0331394D01*
X0490866Y0318409D02*
Y0325713D01*
X0485748D02*
Y0332291D01*
X0487600Y0334144D01*
X0488307Y0299437D02*
Y0303075D01*
X0467835D02*
Y0311378D01*
X0468350Y0311894D01*
X0479350Y0314394D02*
X0480630Y0315673D01*
X0478071D02*
X0479350Y0314394D01*
X0483189Y0292394D02*
Y0303075D01*
X0490866D02*
Y0311378D01*
X0483189Y0325713D02*
Y0336232D01*
X0488307Y0299437D02*
X0490350Y0297394D01*
X0485748Y0295996D02*
Y0303075D01*
Y0295996D02*
X0487350Y0294394D01*
X0291307Y0271937D02*
X0293350Y0269894D01*
X0275953Y0270496D02*
Y0275575D01*
X0472953Y0297996D02*
Y0303075D01*
X0473000Y0387000D02*
X0474957D01*
X0281071Y0288173D02*
Y0298213D01*
X0283630Y0288173D02*
Y0298213D01*
X0381500Y0281043D02*
X0385500D01*
X0478071Y0315673D02*
Y0325713D01*
X0480630Y0315673D02*
Y0325713D01*
D73*
X0454500Y0304943D02*
Y0305043D01*
X0441457Y0354043D02*
Y0357700D01*
X0342850Y0232850D02*
Y0240480D01*
X0343575Y0238425D02*
X0346311D01*
X0504957Y0420457D02*
X0510000D01*
X0456043Y0309943D02*
Y0313000D01*
X0454500Y0308400D02*
X0456043Y0309943D01*
X0454500Y0305043D02*
Y0308400D01*
X0441543Y0306996D02*
X0446500D01*
X0441457Y0357700D02*
Y0358000D01*
X0412496Y0384000D02*
X0415957D01*
X0217004Y0389996D02*
Y0391500D01*
X0436500Y0325543D02*
Y0328500D01*
X0431496Y0390000D02*
X0434996Y0393500D01*
X0325197Y0233500D02*
X0325847Y0232850D01*
X0320500Y0233500D02*
X0325197D01*
X0319500Y0234500D02*
X0320500Y0233500D01*
X0234000Y0420000D02*
X0236500D01*
X0234000Y0427354D02*
Y0428000D01*
X0236500Y0420000D02*
X0241311Y0415189D01*
X0218756Y0381350D02*
Y0388244D01*
X0217004Y0389996D02*
X0218756Y0388244D01*
X0357575Y0406425D02*
X0361000Y0403000D01*
X0339457Y0345500D02*
X0339500Y0345457D01*
X0451543Y0341000D02*
X0455457D01*
X0438500Y0359500D02*
X0440000Y0358000D01*
X0438500Y0359500D02*
Y0363457D01*
X0434996Y0393500D02*
X0435957D01*
X0423043Y0383500D02*
X0424996D01*
X0510000Y0420457D02*
X0514957D01*
X0502500Y0415457D02*
Y0418000D01*
X0504957Y0420457D01*
X0357575Y0406425D02*
Y0410850D01*
X0486445Y0275980D02*
Y0279350D01*
Y0275980D02*
X0492850Y0269575D01*
X0511850Y0366347D02*
X0513354D01*
X0370000Y0397504D02*
X0375500D01*
X0416500Y0321957D02*
X0421953D01*
X0254153Y0471654D02*
X0257480D01*
X0248000Y0466543D02*
X0249043D01*
X0302500Y0372496D02*
X0304000Y0373996D01*
X0302500Y0370500D02*
Y0372496D01*
X0540307Y0438307D02*
X0540500Y0438500D01*
X0339500Y0342500D02*
Y0344457D01*
X0436457Y0339500D02*
X0436500Y0339543D01*
X0483043Y0462500D02*
X0493791D01*
X0494291Y0463000D01*
X0381100Y0409800D02*
X0384550Y0413250D01*
X0261221Y0477756D02*
X0267717D01*
X0535500Y0310000D02*
X0535957Y0310457D01*
X0517000Y0359201D02*
X0519350Y0356850D01*
X0517000Y0359201D02*
Y0362701D01*
X0513354Y0366347D02*
X0517000Y0362701D01*
X0234000Y0428000D02*
X0235000Y0429000D01*
X0234000Y0420000D02*
Y0427354D01*
X0326000Y0288500D02*
Y0292500D01*
X0249043Y0466543D02*
X0254153Y0471654D01*
X0439996Y0300500D02*
X0440496Y0300000D01*
X0444500D01*
X0440000Y0358000D02*
X0441457D01*
X0424996Y0383500D02*
X0431496Y0390000D01*
X0535350Y0438307D02*
X0540307D01*
D74*
X0385000Y0215000D02*
Y0224410D01*
D75*
X0367913Y0450197D02*
Y0461024D01*
Y0489567D01*
X0494291Y0450591D02*
Y0463000D01*
Y0489961D01*
D76*
X0449000Y0394500D02*
Y0402000D01*
D77*
X0268337Y0444063D02*
X0273660Y0438740D01*
D78*
X0539400Y0263874D02*
D03*
X0531526D02*
D03*
Y0248126D02*
D03*
X0539400Y0271748D02*
D03*
X0544813Y0280606D02*
D03*
X0526113D02*
D03*
X0526211Y0239268D02*
D03*
X0544912D02*
D03*
X0539400Y0248126D02*
D03*
Y0256000D02*
D03*
X0531526D02*
D03*
X0208626Y0255826D02*
D03*
X0216500D02*
D03*
Y0271574D02*
D03*
X0208626Y0247952D02*
D03*
X0203213Y0239094D02*
D03*
X0221913D02*
D03*
X0221815Y0280432D02*
D03*
X0203114D02*
D03*
X0208626Y0271574D02*
D03*
Y0263700D02*
D03*
X0216500D02*
D03*
X0405676Y0225487D02*
D03*
X0405676Y0206787D02*
D03*
X0396818Y0212200D02*
D03*
X0349574D02*
D03*
X0373196D02*
D03*
X0388944D02*
D03*
X0332842Y0225487D02*
D03*
Y0206787D02*
D03*
X0357448Y0220074D02*
D03*
X0341700D02*
D03*
X0357448Y0212200D02*
D03*
X0349574Y0220074D02*
D03*
X0365322Y0212200D02*
D03*
X0365322Y0220074D02*
D03*
X0381070Y0212200D02*
D03*
X0529528Y0476378D02*
D03*
X0537402D02*
D03*
X0529528Y0484252D02*
D03*
X0537402D02*
D03*
Y0468504D02*
D03*
X0542913Y0459646D02*
D03*
X0524213D02*
D03*
X0524114Y0508858D02*
D03*
X0542815D02*
D03*
X0537402Y0500000D02*
D03*
X0529528Y0468504D02*
D03*
Y0492126D02*
D03*
X0537402D02*
D03*
X0544850Y0318858D02*
D03*
X0526150D02*
D03*
X0535500Y0310000D02*
D03*
X0526150Y0293268D02*
D03*
X0544850D02*
D03*
X0203150Y0483368D02*
D03*
X0221850D02*
D03*
X0212500Y0492226D02*
D03*
X0221850Y0508958D02*
D03*
X0203150D02*
D03*
X0468132Y0206350D02*
D03*
Y0225050D02*
D03*
X0459274Y0215700D02*
D03*
X0442542Y0225050D02*
D03*
Y0206350D02*
D03*
D79*
X0531526Y0271748D02*
D03*
X0216500Y0247952D02*
D03*
X0529528Y0500000D02*
D03*
X0535500Y0302126D02*
D03*
X0212500Y0500100D02*
D03*
D80*
X0396818Y0220074D02*
D03*
X0381070D02*
D03*
X0373196D02*
D03*
X0388944D02*
D03*
D81*
X0341700Y0212200D02*
D03*
X0451400Y0215700D02*
D03*
D82*
X0226756Y0553655D02*
D03*
X0516762Y0553683D02*
D03*
D83*
X0526764Y0216165D02*
D03*
X0211756Y0216138D02*
D03*
D84*
X0246756Y0543655D02*
D03*
X0246758Y0523656D02*
D03*
D85*
X0246756Y0553655D02*
D03*
X0256756D02*
D03*
Y0543655D02*
D03*
X0266756Y0553655D02*
D03*
Y0543655D02*
D03*
X0276756Y0553655D02*
D03*
Y0543655D02*
D03*
X0286756Y0553655D02*
D03*
Y0543655D02*
D03*
X0336756D02*
D03*
Y0553655D02*
D03*
X0326756Y0543655D02*
D03*
Y0553655D02*
D03*
X0316756Y0543655D02*
D03*
Y0553655D02*
D03*
X0306756Y0543655D02*
D03*
Y0553655D02*
D03*
X0296756D02*
D03*
Y0543655D02*
D03*
X0386756D02*
D03*
Y0553655D02*
D03*
X0376756Y0543655D02*
D03*
Y0553655D02*
D03*
X0366756Y0543655D02*
D03*
Y0553655D02*
D03*
X0356756Y0543655D02*
D03*
Y0553655D02*
D03*
X0346756D02*
D03*
Y0543655D02*
D03*
X0436756D02*
D03*
Y0553655D02*
D03*
X0426756Y0543655D02*
D03*
Y0553655D02*
D03*
X0416756Y0543655D02*
D03*
Y0553655D02*
D03*
X0406756Y0543655D02*
D03*
Y0553655D02*
D03*
X0396756D02*
D03*
Y0543655D02*
D03*
X0486756D02*
D03*
Y0553655D02*
D03*
X0476756Y0543655D02*
D03*
Y0553655D02*
D03*
X0466756Y0543655D02*
D03*
Y0553655D02*
D03*
X0456756Y0543655D02*
D03*
Y0553655D02*
D03*
X0446756D02*
D03*
Y0543655D02*
D03*
X0496756Y0553655D02*
D03*
Y0543655D02*
D03*
X0246758Y0533656D02*
D03*
X0256758D02*
D03*
Y0523656D02*
D03*
X0266758Y0533656D02*
D03*
Y0523656D02*
D03*
X0276758Y0533656D02*
D03*
Y0523656D02*
D03*
X0286758Y0533656D02*
D03*
Y0523656D02*
D03*
X0336758D02*
D03*
Y0533656D02*
D03*
X0326758Y0523656D02*
D03*
Y0533656D02*
D03*
X0316758Y0523656D02*
D03*
Y0533656D02*
D03*
X0306758Y0523656D02*
D03*
Y0533656D02*
D03*
X0296758D02*
D03*
Y0523656D02*
D03*
X0386758D02*
D03*
Y0533656D02*
D03*
X0376758Y0523656D02*
D03*
Y0533656D02*
D03*
X0366758Y0523656D02*
D03*
Y0533656D02*
D03*
X0356758Y0523656D02*
D03*
Y0533656D02*
D03*
X0346758D02*
D03*
Y0523656D02*
D03*
X0436758D02*
D03*
Y0533656D02*
D03*
X0426758Y0523656D02*
D03*
Y0533656D02*
D03*
X0416758Y0523656D02*
D03*
Y0533656D02*
D03*
X0406758Y0523656D02*
D03*
Y0533656D02*
D03*
X0396758D02*
D03*
Y0523656D02*
D03*
X0486758D02*
D03*
Y0533656D02*
D03*
X0476758Y0523656D02*
D03*
Y0533656D02*
D03*
X0466758Y0523656D02*
D03*
Y0533656D02*
D03*
X0456758Y0523656D02*
D03*
Y0533656D02*
D03*
X0446758D02*
D03*
Y0523656D02*
D03*
X0496758Y0533656D02*
D03*
Y0523656D02*
D03*
D86*
X0457339Y0321379D02*
D03*
X0456100Y0330100D02*
D03*
X0440300Y0314600D02*
D03*
X0431900Y0315100D02*
D03*
X0452400Y0354000D02*
D03*
X0465700D02*
D03*
X0416500Y0249000D02*
D03*
X0413500Y0247004D02*
D03*
X0438300Y0244300D02*
D03*
X0434000Y0229400D02*
D03*
X0421800Y0247600D02*
D03*
X0513900Y0520800D02*
D03*
X0395250Y0298721D02*
D03*
X0382500Y0294500D02*
D03*
X0398500Y0300500D02*
D03*
X0428000Y0326000D02*
D03*
X0451000Y0288500D02*
D03*
X0453500Y0309000D02*
D03*
X0459500Y0301500D02*
D03*
X0391500Y0283000D02*
D03*
X0380500Y0284500D02*
D03*
X0332500Y0231000D02*
D03*
X0319500Y0234500D02*
D03*
X0508350Y0295850D02*
D03*
X0518000Y0296000D02*
D03*
X0510500D02*
D03*
X0341500Y0324000D02*
D03*
X0353558Y0314854D02*
D03*
X0342500Y0309500D02*
D03*
X0382409Y0354380D02*
D03*
X0540000Y0442500D02*
D03*
X0458268Y0465945D02*
D03*
X0334500Y0259944D02*
D03*
X0445500Y0276000D02*
D03*
X0442500Y0273000D02*
D03*
X0440500Y0276350D02*
D03*
X0441678Y0257556D02*
D03*
X0441000Y0254000D02*
D03*
X0438944Y0251000D02*
D03*
X0361000Y0206000D02*
D03*
X0426500Y0291500D02*
D03*
X0323500Y0484500D02*
D03*
X0319000Y0464000D02*
D03*
X0378500Y0437500D02*
D03*
X0238500Y0462500D02*
D03*
X0266500Y0385500D02*
D03*
X0270000Y0389000D02*
D03*
X0227000Y0415500D02*
D03*
X0234000Y0420000D02*
D03*
X0231000Y0455500D02*
D03*
X0242000Y0385500D02*
D03*
X0267500Y0248750D02*
D03*
X0274000Y0232500D02*
D03*
X0387500Y0238500D02*
D03*
X0253500Y0229000D02*
D03*
X0250000Y0420866D02*
D03*
X0264990Y0381981D02*
D03*
X0243500Y0291000D02*
D03*
X0248500Y0425500D02*
D03*
X0261500Y0488000D02*
D03*
X0236500Y0420000D02*
D03*
X0238000Y0408500D02*
D03*
X0238500Y0404500D02*
D03*
X0235500Y0402000D02*
D03*
X0252953Y0420866D02*
D03*
X0289000Y0502000D02*
D03*
X0341000Y0474500D02*
D03*
X0262500Y0431000D02*
D03*
X0292500Y0464500D02*
D03*
X0510500Y0495500D02*
D03*
X0471000Y0465500D02*
D03*
X0289000Y0413000D02*
D03*
X0288000Y0415000D02*
D03*
X0479500Y0411500D02*
D03*
X0222500Y0438000D02*
D03*
Y0436000D02*
D03*
X0294500Y0464500D02*
D03*
X0404000Y0499500D02*
D03*
X0378346Y0496850D02*
D03*
X0212500Y0391000D02*
D03*
Y0393000D02*
D03*
X0229500Y0411500D02*
D03*
X0256000Y0484000D02*
D03*
X0256500Y0488500D02*
D03*
Y0437500D02*
D03*
X0253500Y0433000D02*
D03*
Y0437500D02*
D03*
X0503000Y0287500D02*
D03*
X0292000Y0486000D02*
D03*
X0335000Y0474500D02*
D03*
X0327756Y0517323D02*
D03*
X0335236Y0516736D02*
D03*
X0295000Y0516000D02*
D03*
X0283500Y0517500D02*
D03*
X0270118Y0517717D02*
D03*
X0280000Y0483500D02*
D03*
X0417000Y0369500D02*
D03*
X0433000Y0353500D02*
D03*
X0305350Y0336850D02*
D03*
X0377500Y0314500D02*
D03*
X0392000Y0315500D02*
D03*
X0297000Y0217500D02*
D03*
X0305500Y0327500D02*
D03*
X0261500Y0343000D02*
D03*
X0262116Y0339050D02*
D03*
X0250000Y0210500D02*
D03*
X0247000D02*
D03*
X0319500Y0288000D02*
D03*
X0310500Y0265574D02*
D03*
X0334000Y0263500D02*
D03*
X0401500Y0314000D02*
D03*
X0383500Y0328500D02*
D03*
X0374500Y0322500D02*
D03*
X0296500Y0327500D02*
D03*
X0304850Y0269350D02*
D03*
X0242500Y0307000D02*
D03*
X0309846Y0303346D02*
D03*
X0222000Y0470500D02*
D03*
Y0468500D02*
D03*
X0237000Y0385500D02*
D03*
X0278806Y0341806D02*
D03*
X0397000Y0268500D02*
D03*
X0382831Y0255331D02*
D03*
X0403000Y0251000D02*
D03*
X0465551Y0399213D02*
D03*
X0469000Y0379000D02*
D03*
X0461811Y0389961D02*
D03*
X0454500Y0376500D02*
D03*
X0469000Y0376000D02*
D03*
X0454500Y0380500D02*
D03*
X0517500Y0406500D02*
D03*
X0515500Y0411000D02*
D03*
X0431850Y0463850D02*
D03*
X0418898Y0452362D02*
D03*
X0375350Y0230350D02*
D03*
Y0227350D02*
D03*
X0418500Y0260004D02*
D03*
X0286850Y0261850D02*
D03*
X0230198Y0382369D02*
D03*
X0324850Y0392350D02*
D03*
X0293350Y0303894D02*
D03*
X0481496Y0428740D02*
D03*
X0213350Y0366850D02*
D03*
X0282350Y0292894D02*
D03*
X0479350Y0320394D02*
D03*
X0482850Y0286894D02*
D03*
X0474850Y0289567D02*
D03*
X0514850Y0381350D02*
D03*
X0510350Y0393350D02*
D03*
X0510850Y0228307D02*
D03*
X0519850Y0295850D02*
D03*
X0353850Y0247850D02*
D03*
X0400350Y0484850D02*
D03*
X0484850Y0474350D02*
D03*
X0244350Y0485350D02*
D03*
X0386161Y0338161D02*
D03*
X0306043Y0303500D02*
D03*
X0343000Y0328000D02*
D03*
X0396500Y0337500D02*
D03*
X0394000Y0349000D02*
D03*
X0493000Y0393500D02*
D03*
X0490000Y0411000D02*
D03*
X0481500Y0400500D02*
D03*
X0415000Y0278504D02*
D03*
X0413000Y0297000D02*
D03*
X0385000Y0270500D02*
D03*
X0212000Y0411500D02*
D03*
X0421500Y0412000D02*
D03*
X0372000Y0248500D02*
D03*
X0380400Y0241500D02*
D03*
X0442850Y0238764D02*
D03*
X0442000Y0289043D02*
D03*
X0223500Y0424000D02*
D03*
Y0426000D02*
D03*
X0248000Y0471488D02*
D03*
X0233850Y0474850D02*
D03*
X0290000Y0500000D02*
D03*
X0301500Y0356000D02*
D03*
X0313500Y0305000D02*
D03*
X0338000Y0319000D02*
D03*
X0305500Y0339500D02*
D03*
Y0342000D02*
D03*
X0314000Y0379000D02*
D03*
X0288850Y0371850D02*
D03*
X0289500Y0368000D02*
D03*
X0323500Y0288500D02*
D03*
X0301500Y0366000D02*
D03*
X0400854Y0280146D02*
D03*
X0507000Y0489500D02*
D03*
X0509000D02*
D03*
X0417500Y0513500D02*
D03*
X0439000Y0506500D02*
D03*
X0386000Y0489000D02*
D03*
X0393000Y0334500D02*
D03*
X0354000Y0336000D02*
D03*
Y0340000D02*
D03*
X0402850Y0321500D02*
D03*
X0399888Y0326112D02*
D03*
X0526500Y0302500D02*
D03*
X0540567Y0323091D02*
D03*
X0399000Y0404850D02*
D03*
X0397000D02*
D03*
X0381110Y0404110D02*
D03*
X0525000Y0304000D02*
D03*
X0506000Y0408500D02*
D03*
X0503850Y0399150D02*
D03*
X0493000Y0398000D02*
D03*
X0507850Y0396850D02*
D03*
X0523500Y0442000D02*
D03*
X0446000Y0283000D02*
D03*
X0396500Y0225500D02*
D03*
X0383930Y0242999D02*
D03*
X0387500Y0242159D02*
D03*
X0409500Y0246500D02*
D03*
X0442500Y0250000D02*
D03*
Y0247500D02*
D03*
Y0245000D02*
D03*
X0534000Y0284500D02*
D03*
X0537500Y0288000D02*
D03*
X0390000Y0246000D02*
D03*
X0384500Y0247500D02*
D03*
X0390702Y0329298D02*
D03*
X0394085Y0330944D02*
D03*
X0366000Y0228000D02*
D03*
X0418500Y0255504D02*
D03*
X0408500Y0270000D02*
D03*
X0401537Y0272500D02*
D03*
X0289000Y0359500D02*
D03*
X0332500Y0330000D02*
D03*
X0323000Y0326500D02*
D03*
X0278500Y0346500D02*
D03*
X0261000Y0304500D02*
D03*
X0369000Y0354500D02*
D03*
X0375500Y0355000D02*
D03*
X0277850Y0264000D02*
D03*
X0337500Y0339000D02*
D03*
X0320500Y0329500D02*
D03*
X0322000Y0337500D02*
D03*
X0321000Y0344500D02*
D03*
X0339500Y0342500D02*
D03*
X0326500Y0344500D02*
D03*
X0328115Y0352444D02*
D03*
X0331057Y0347556D02*
D03*
X0332000Y0344000D02*
D03*
X0427000Y0272000D02*
D03*
X0413000Y0271000D02*
D03*
X0415500Y0266004D02*
D03*
X0421500Y0269000D02*
D03*
X0422500Y0272556D02*
D03*
X0380500Y0275500D02*
D03*
X0372500Y0272000D02*
D03*
X0455500Y0279500D02*
D03*
X0433000Y0339500D02*
D03*
X0433500Y0335944D02*
D03*
X0400500Y0226500D02*
D03*
X0365000Y0314843D02*
D03*
Y0295500D02*
D03*
X0399500Y0292000D02*
D03*
X0377000Y0293500D02*
D03*
X0372000Y0298500D02*
D03*
X0372500Y0279000D02*
D03*
X0352500Y0274000D02*
D03*
X0363000Y0287000D02*
D03*
X0361000Y0265000D02*
D03*
X0356500Y0265500D02*
D03*
X0361500Y0280500D02*
D03*
X0335500Y0302000D02*
D03*
X0326000Y0288500D02*
D03*
X0356750Y0284163D02*
D03*
X0537394Y0387894D02*
D03*
X0527850Y0397350D02*
D03*
X0531500Y0395500D02*
D03*
X0545000Y0423665D02*
D03*
X0523000Y0419500D02*
D03*
X0529000Y0417500D02*
D03*
X0535000Y0411500D02*
D03*
X0530500Y0421500D02*
D03*
X0545500Y0375500D02*
D03*
X0518500Y0472500D02*
D03*
Y0468500D02*
D03*
X0544000Y0474000D02*
D03*
X0523000Y0465500D02*
D03*
X0522500Y0481500D02*
D03*
X0534937Y0407350D02*
D03*
X0529000Y0324500D02*
D03*
X0431500Y0304500D02*
D03*
X0521054Y0422583D02*
D03*
X0540500Y0448000D02*
D03*
X0520000Y0235000D02*
D03*
X0256500Y0433000D02*
D03*
X0360500Y0347500D02*
D03*
X0492717Y0432677D02*
D03*
X0370000Y0264000D02*
D03*
X0545000Y0407500D02*
D03*
X0529850Y0401850D02*
D03*
X0539500Y0411500D02*
D03*
X0546000Y0403500D02*
D03*
X0539500Y0407500D02*
D03*
X0422902Y0290795D02*
D03*
X0421000Y0309000D02*
D03*
X0330500Y0232000D02*
D03*
X0262500Y0453000D02*
D03*
X0259500Y0450000D02*
D03*
X0364500Y0332500D02*
D03*
X0370276Y0333723D02*
D03*
X0263500Y0464500D02*
D03*
X0272500Y0408000D02*
D03*
X0355000Y0352500D02*
D03*
X0353500Y0356500D02*
D03*
X0329750Y0368000D02*
D03*
X0324000Y0390000D02*
D03*
X0326000Y0390500D02*
D03*
X0323500Y0386444D02*
D03*
X0325500Y0383000D02*
D03*
X0333000Y0374500D02*
D03*
X0330500Y0371556D02*
D03*
X0321000Y0362000D02*
D03*
X0336500Y0350500D02*
D03*
X0331663Y0354050D02*
D03*
X0328500Y0356000D02*
D03*
X0304500Y0313000D02*
D03*
X0305500Y0325000D02*
D03*
X0304500Y0318000D02*
D03*
Y0315500D02*
D03*
X0308423Y0317507D02*
D03*
X0305500Y0330000D02*
D03*
X0379000Y0495000D02*
D03*
X0368000Y0298500D02*
D03*
X0379000Y0336500D02*
D03*
X0338000Y0315000D02*
D03*
X0203500Y0360000D02*
D03*
X0204000Y0373000D02*
D03*
X0283500Y0447000D02*
D03*
X0274500Y0442500D02*
D03*
X0228350Y0377850D02*
D03*
X0233000Y0455350D02*
D03*
X0233500Y0471000D02*
D03*
X0244000Y0470500D02*
D03*
X0400000Y0330500D02*
D03*
X0399000Y0334500D02*
D03*
X0537750Y0383750D02*
D03*
X0431000Y0421500D02*
D03*
X0383071Y0504724D02*
D03*
X0490500Y0421500D02*
D03*
X0425000Y0362500D02*
D03*
X0432000Y0348000D02*
D03*
X0228000Y0504000D02*
D03*
X0362500Y0344000D02*
D03*
X0358514Y0350986D02*
D03*
X0362610Y0350419D02*
D03*
X0365000Y0347000D02*
D03*
X0368409Y0350909D02*
D03*
X0347000Y0366500D02*
D03*
X0229000Y0508000D02*
D03*
X0458000Y0395000D02*
D03*
X0460000Y0392500D02*
D03*
X0485433Y0428740D02*
D03*
X0481496Y0424409D02*
D03*
X0413000Y0498500D02*
D03*
X0413500Y0306500D02*
D03*
X0454500Y0384500D02*
D03*
X0416500Y0378500D02*
D03*
X0391500Y0515000D02*
D03*
X0388000Y0517500D02*
D03*
X0417000Y0363000D02*
D03*
X0421444Y0363444D02*
D03*
X0421000Y0367000D02*
D03*
X0489500Y0371957D02*
D03*
X0391000Y0295500D02*
D03*
X0390500Y0291500D02*
D03*
X0385724Y0299811D02*
D03*
X0379425Y0300075D02*
D03*
X0392000Y0300500D02*
D03*
X0375500Y0372000D02*
D03*
X0383000Y0349000D02*
D03*
X0485500Y0424500D02*
D03*
X0545400Y0502700D02*
D03*
X0393500Y0240500D02*
D03*
X0412400Y0205800D02*
D03*
X0386100Y0204700D02*
D03*
X0226900Y0524100D02*
D03*
X0207800Y0512600D02*
D03*
X0274000Y0446500D02*
D03*
X0268500Y0437611D02*
D03*
X0430709Y0425000D02*
D03*
X0378500Y0435500D02*
D03*
X0383000Y0434700D02*
D03*
X0323500Y0464500D02*
D03*
X0328201Y0463000D02*
D03*
X0379000Y0380000D02*
D03*
X0408000Y0373000D02*
D03*
X0382575Y0374325D02*
D03*
X0389000Y0375000D02*
D03*
X0398500Y0372500D02*
D03*
X0398000Y0358500D02*
D03*
X0399000Y0349000D02*
D03*
Y0354500D02*
D03*
X0391841Y0370341D02*
D03*
X0400500Y0379500D02*
D03*
X0395000Y0374500D02*
D03*
X0397500Y0379500D02*
D03*
X0388710Y0386790D02*
D03*
X0385724Y0369792D02*
D03*
X0379425Y0372425D02*
D03*
X0330000Y0302000D02*
D03*
X0309000Y0313000D02*
D03*
X0313300Y0426200D02*
D03*
X0315500Y0432000D02*
D03*
X0314000Y0430500D02*
D03*
X0488500Y0512500D02*
D03*
X0347500Y0362000D02*
D03*
X0350968Y0365944D02*
D03*
X0350500Y0369500D02*
D03*
X0341000Y0383500D02*
D03*
X0347309Y0380476D02*
D03*
X0354500Y0382000D02*
D03*
X0277000Y0334000D02*
D03*
X0277500Y0322000D02*
D03*
Y0326000D02*
D03*
Y0330000D02*
D03*
X0389300Y0349400D02*
D03*
X0371157Y0294700D02*
D03*
X0389300Y0336126D02*
D03*
X0374800Y0331200D02*
D03*
X0387800Y0332700D02*
D03*
X0355472Y0318528D02*
D03*
X0334900Y0298400D02*
D03*
X0338743Y0296857D02*
D03*
X0509307Y0339607D02*
D03*
X0400800Y0465500D02*
D03*
X0517409Y0427620D02*
D03*
X0535500Y0514900D02*
D03*
X0508757Y0513857D02*
D03*
X0447400Y0517400D02*
D03*
X0335500Y0233700D02*
D03*
X0341457Y0247543D02*
D03*
X0515000Y0425000D02*
D03*
X0474300Y0227400D02*
D03*
X0328000Y0213600D02*
D03*
X0334100Y0219300D02*
D03*
X0513800Y0339400D02*
D03*
X0518350Y0350350D02*
D03*
X0522850D02*
D03*
D87*
X0476500Y0357300D02*
D03*
X0408000Y0295986D02*
D03*
X0365500Y0517000D02*
D03*
X0470500Y0384500D02*
D03*
X0474500Y0383500D02*
D03*
X0487350Y0383850D02*
D03*
X0483000Y0394500D02*
D03*
X0481500Y0384000D02*
D03*
X0404004Y0290496D02*
D03*
X0277500Y0351000D02*
D03*
X0288091Y0355944D02*
D03*
X0371500Y0283957D02*
D03*
Y0287500D02*
D03*
X0346000Y0278500D02*
D03*
X0342139Y0278450D02*
D03*
X0334000Y0289000D02*
D03*
X0338000Y0288000D02*
D03*
X0359500Y0514000D02*
D03*
X0501448Y0376800D02*
D03*
X0494500Y0368500D02*
D03*
X0449550Y0440056D02*
D03*
X0450000Y0436500D02*
D03*
X0475000Y0283500D02*
D03*
X0408500Y0498500D02*
D03*
X0354000Y0398500D02*
D03*
X0355944Y0514500D02*
D03*
X0420500Y0464000D02*
D03*
X0406000Y0305500D02*
D03*
X0410000Y0306000D02*
D03*
X0470500Y0389000D02*
D03*
X0459000Y0386500D02*
D03*
X0406421Y0423500D02*
D03*
X0407000Y0447500D02*
D03*
X0414500Y0445956D02*
D03*
X0418000Y0499043D02*
D03*
X0344000Y0465000D02*
D03*
X0416014Y0344014D02*
D03*
X0415500Y0348000D02*
D03*
X0419250Y0346500D02*
D03*
X0414000Y0341000D02*
D03*
X0473000Y0387000D02*
D03*
X0415500Y0359000D02*
D03*
X0413000Y0362000D02*
D03*
X0418500Y0353000D02*
D03*
X0416000Y0355768D02*
D03*
X0458000Y0473000D02*
D03*
X0354000Y0423500D02*
D03*
X0350500Y0419500D02*
D03*
Y0423500D02*
D03*
X0360528Y0371000D02*
D03*
X0367000Y0381000D02*
D03*
X0310000Y0485500D02*
D03*
X0295082Y0250582D02*
D03*
X0420500Y0516000D02*
D03*
X0400854Y0238300D02*
D03*
X0418100Y0219100D02*
D03*
X0417100Y0463400D02*
D03*
X0408000Y0363500D02*
D03*
X0367500Y0372500D02*
D03*
X0366600Y0377800D02*
D03*
X0356000Y0373000D02*
D03*
X0360691Y0380476D02*
D03*
X0360500Y0377000D02*
D03*
X0257500Y0324300D02*
D03*
X0260111Y0319588D02*
D03*
X0263400Y0322700D02*
D03*
X0363900Y0372300D02*
D03*
X0363853Y0379525D02*
D03*
X0350800Y0289000D02*
D03*
X0351100Y0292700D02*
D03*
D88*
X0490500Y0206800D02*
D03*
X0487700Y0215857D02*
D03*
X0487600Y0213200D02*
D03*
X0483500Y0222500D02*
D03*
X0480900D02*
D03*
X0484800Y0227200D02*
D03*
X0455300Y0206200D02*
D03*
X0431200Y0220800D02*
D03*
X0460700Y0227300D02*
D03*
X0451000Y0225300D02*
D03*
X0340059Y0446457D02*
D03*
X0333957Y0446516D02*
D03*
Y0451516D02*
D03*
X0340059Y0451575D02*
D03*
X0459134Y0451909D02*
D03*
X0465236Y0451968D02*
D03*
Y0446850D02*
D03*
X0459134Y0446909D02*
D03*
X0472854Y0312228D02*
D03*
Y0316559D02*
D03*
X0477185Y0312228D02*
D03*
Y0316559D02*
D03*
X0481516Y0312228D02*
D03*
Y0316559D02*
D03*
X0485847Y0312228D02*
D03*
Y0316559D02*
D03*
X0284516Y0289059D02*
D03*
X0280185D02*
D03*
X0275854Y0284728D02*
D03*
Y0289059D02*
D03*
X0280185Y0284728D02*
D03*
X0284516D02*
D03*
X0288846D02*
D03*
Y0289059D02*
D03*
X0436500Y0328500D02*
D03*
X0423500Y0327000D02*
D03*
X0451500Y0295000D02*
D03*
X0501850Y0296850D02*
D03*
X0267850Y0254307D02*
D03*
X0261850Y0257350D02*
D03*
X0267850Y0260307D02*
D03*
X0261850Y0249350D02*
D03*
X0273850Y0241850D02*
D03*
X0262850Y0253350D02*
D03*
X0267850Y0257307D02*
D03*
X0500787Y0453740D02*
D03*
Y0457677D02*
D03*
X0356350Y0251350D02*
D03*
X0337350Y0256350D02*
D03*
X0441500Y0264500D02*
D03*
X0270500Y0396500D02*
D03*
X0267500D02*
D03*
X0269000Y0394000D02*
D03*
X0242846Y0233756D02*
D03*
X0262350Y0393350D02*
D03*
X0351181Y0489567D02*
D03*
Y0477756D02*
D03*
X0254500Y0475000D02*
D03*
X0259500Y0494500D02*
D03*
X0262000D02*
D03*
X0321654Y0453150D02*
D03*
X0265350Y0351350D02*
D03*
X0244277Y0316450D02*
D03*
X0241777Y0319950D02*
D03*
X0264350Y0313850D02*
D03*
X0261350D02*
D03*
X0258350D02*
D03*
X0267850Y0320394D02*
D03*
Y0323394D02*
D03*
X0209850Y0319850D02*
D03*
Y0322850D02*
D03*
X0287850Y0203850D02*
D03*
X0310850Y0202350D02*
D03*
X0219500Y0316000D02*
D03*
X0241777Y0312450D02*
D03*
Y0314950D02*
D03*
X0262350Y0396350D02*
D03*
X0287500Y0388500D02*
D03*
X0204000Y0468500D02*
D03*
X0220350Y0296818D02*
D03*
X0234500Y0215500D02*
D03*
X0232000Y0216500D02*
D03*
X0269350Y0316350D02*
D03*
X0263350Y0278350D02*
D03*
X0237350Y0370850D02*
D03*
X0243350Y0332350D02*
D03*
X0302850Y0236850D02*
D03*
X0460500Y0333500D02*
D03*
X0430000Y0374000D02*
D03*
X0449000Y0367000D02*
D03*
X0426500Y0385000D02*
D03*
X0419500Y0331500D02*
D03*
X0415500Y0332500D02*
D03*
X0366339Y0432283D02*
D03*
X0430709Y0411614D02*
D03*
Y0416339D02*
D03*
X0428740Y0452559D02*
D03*
Y0446260D02*
D03*
X0438976Y0439173D02*
D03*
X0397850Y0425850D02*
D03*
X0309350Y0289350D02*
D03*
X0308350Y0286850D02*
D03*
X0305850D02*
D03*
X0288350Y0231850D02*
D03*
X0276850Y0241850D02*
D03*
X0304350Y0251394D02*
D03*
X0275953Y0304791D02*
D03*
X0271850Y0284394D02*
D03*
Y0288894D02*
D03*
X0262350Y0282350D02*
D03*
X0280350Y0304394D02*
D03*
X0297850Y0397850D02*
D03*
X0331693Y0394685D02*
D03*
X0297850Y0400850D02*
D03*
X0293850Y0284894D02*
D03*
Y0289394D02*
D03*
X0202350Y0296850D02*
D03*
X0225850Y0306350D02*
D03*
X0229850Y0293350D02*
D03*
X0225350D02*
D03*
X0271850Y0202350D02*
D03*
X0268350D02*
D03*
X0264850D02*
D03*
X0239350Y0263850D02*
D03*
X0239277Y0316450D02*
D03*
X0241777Y0317450D02*
D03*
X0302362Y0438779D02*
D03*
X0274410Y0419685D02*
D03*
X0271654D02*
D03*
X0277165D02*
D03*
X0302362Y0452165D02*
D03*
Y0445866D02*
D03*
X0320866Y0505905D02*
D03*
X0329528Y0503937D02*
D03*
X0348031Y0514567D02*
D03*
X0320472Y0493307D02*
D03*
X0351181Y0493504D02*
D03*
X0387008Y0426772D02*
D03*
X0502953Y0508858D02*
D03*
X0399850Y0410850D02*
D03*
X0448032Y0453543D02*
D03*
X0450787Y0504921D02*
D03*
X0477559Y0501772D02*
D03*
X0500787Y0449803D02*
D03*
X0496654Y0436614D02*
D03*
Y0432677D02*
D03*
X0292520Y0451968D02*
D03*
X0312598Y0438779D02*
D03*
Y0445866D02*
D03*
X0321654Y0439370D02*
D03*
Y0446260D02*
D03*
X0312598Y0452559D02*
D03*
X0447244Y0492717D02*
D03*
X0304331Y0415945D02*
D03*
X0448032Y0446654D02*
D03*
X0438976Y0452953D02*
D03*
Y0446260D02*
D03*
X0304331Y0424606D02*
D03*
Y0411221D02*
D03*
X0370276Y0432283D02*
D03*
X0353937Y0428543D02*
D03*
X0370079Y0435827D02*
D03*
X0395669Y0424409D02*
D03*
X0210850Y0343850D02*
D03*
X0209850Y0331850D02*
D03*
Y0328850D02*
D03*
Y0325850D02*
D03*
Y0316850D02*
D03*
Y0313850D02*
D03*
Y0310850D02*
D03*
X0242846Y0225756D02*
D03*
X0219850Y0330850D02*
D03*
X0209850Y0346350D02*
D03*
X0246850Y0356350D02*
D03*
X0240850Y0328350D02*
D03*
X0229350Y0322350D02*
D03*
X0468269Y0344408D02*
D03*
X0277850Y0230350D02*
D03*
X0472953Y0332291D02*
D03*
X0477350Y0331894D02*
D03*
X0490350Y0331394D02*
D03*
X0496850Y0287394D02*
D03*
X0502350Y0343394D02*
D03*
Y0346394D02*
D03*
X0468850Y0316394D02*
D03*
X0502850Y0276350D02*
D03*
Y0279350D02*
D03*
Y0282350D02*
D03*
X0507850Y0231850D02*
D03*
X0465350Y0235850D02*
D03*
Y0232850D02*
D03*
X0463350Y0285350D02*
D03*
X0465350Y0287350D02*
D03*
X0484350Y0240350D02*
D03*
X0488850Y0234350D02*
D03*
X0485350Y0244850D02*
D03*
X0482850Y0262850D02*
D03*
X0482846Y0265756D02*
D03*
X0482850Y0268850D02*
D03*
X0518350Y0283850D02*
D03*
X0468850Y0312350D02*
D03*
X0502350Y0340394D02*
D03*
X0511350Y0329850D02*
D03*
X0513850D02*
D03*
X0543350Y0347350D02*
D03*
X0542850Y0341350D02*
D03*
X0540850Y0367850D02*
D03*
X0342850Y0232850D02*
D03*
X0339850D02*
D03*
X0299850Y0259894D02*
D03*
X0373622Y0433858D02*
D03*
X0351181Y0473819D02*
D03*
X0375984Y0470866D02*
D03*
X0488350Y0468350D02*
D03*
X0510350Y0476350D02*
D03*
X0500787Y0461614D02*
D03*
X0511350Y0434850D02*
D03*
X0243850Y0489850D02*
D03*
X0227500Y0497500D02*
D03*
X0247500Y0477000D02*
D03*
X0351181Y0481693D02*
D03*
X0396850Y0410850D02*
D03*
X0393850D02*
D03*
X0420000Y0401500D02*
D03*
X0420147Y0399000D02*
D03*
X0415500Y0400000D02*
D03*
X0471654Y0513386D02*
D03*
X0448000Y0363500D02*
D03*
Y0370500D02*
D03*
X0466350Y0252850D02*
D03*
X0469350D02*
D03*
X0205500Y0426500D02*
D03*
X0243350Y0263850D02*
D03*
X0313350Y0203850D02*
D03*
X0248850Y0287350D02*
D03*
X0241846Y0229756D02*
D03*
X0210500Y0469000D02*
D03*
X0206500Y0476000D02*
D03*
X0252000Y0473500D02*
D03*
X0204500Y0452000D02*
D03*
X0257000Y0494500D02*
D03*
X0258000Y0497000D02*
D03*
X0260500D02*
D03*
X0236500Y0501500D02*
D03*
X0240000D02*
D03*
X0304350Y0254394D02*
D03*
X0309350Y0260850D02*
D03*
X0293350Y0269894D02*
D03*
X0310000Y0379000D02*
D03*
X0302500Y0370500D02*
D03*
X0477500Y0485000D02*
D03*
Y0481500D02*
D03*
X0384500Y0494500D02*
D03*
X0471654Y0517035D02*
D03*
X0503500Y0431500D02*
D03*
X0508850Y0435850D02*
D03*
X0500787Y0441929D02*
D03*
Y0445866D02*
D03*
X0304350Y0248394D02*
D03*
X0313350Y0286850D02*
D03*
X0309850Y0284350D02*
D03*
X0310850Y0286850D02*
D03*
X0477559Y0478150D02*
D03*
X0540500Y0438500D02*
D03*
X0510000Y0452000D02*
D03*
X0527000Y0449500D02*
D03*
X0218595Y0285500D02*
D03*
X0209500Y0476000D02*
D03*
X0232850Y0353350D02*
D03*
X0230850Y0346850D02*
D03*
X0231350Y0349850D02*
D03*
X0232850Y0356350D02*
D03*
X0422500Y0206000D02*
D03*
X0267350Y0363850D02*
D03*
X0251500Y0498000D02*
D03*
X0236500Y0516000D02*
D03*
X0241000D02*
D03*
X0441500Y0354000D02*
D03*
X0461350Y0283350D02*
D03*
X0538000Y0432000D02*
D03*
X0541000D02*
D03*
X0540850Y0364850D02*
D03*
X0500591Y0436614D02*
D03*
X0507500Y0431000D02*
D03*
X0444500Y0300000D02*
D03*
X0333500Y0392500D02*
D03*
X0335500Y0390500D02*
D03*
X0477500Y0498500D02*
D03*
Y0495500D02*
D03*
X0477559Y0505709D02*
D03*
X0351500Y0497000D02*
D03*
X0385500D02*
D03*
X0387000Y0494500D02*
D03*
X0388000Y0497000D02*
D03*
X0389500Y0494500D02*
D03*
X0203000Y0381500D02*
D03*
Y0378000D02*
D03*
X0235850Y0484850D02*
D03*
X0243850Y0478850D02*
D03*
X0441500Y0349000D02*
D03*
X0449000Y0402000D02*
D03*
X0503350Y0330350D02*
D03*
X0490350Y0312350D02*
D03*
Y0316850D02*
D03*
X0508850Y0329850D02*
D03*
X0494850Y0314350D02*
D03*
X0542350Y0359850D02*
D03*
X0417500Y0335500D02*
D03*
X0262000Y0514000D02*
D03*
Y0511000D02*
D03*
X0478500Y0449500D02*
D03*
X0477559Y0474213D02*
D03*
X0474500Y0457500D02*
D03*
X0380709Y0474803D02*
D03*
X0357087Y0447244D02*
D03*
X0444500Y0344000D02*
D03*
X0352165Y0447244D02*
D03*
X0363350Y0410850D02*
D03*
X0211000Y0336500D02*
D03*
X0446600Y0346000D02*
D03*
X0383858Y0426772D02*
D03*
X0390158D02*
D03*
X0395850Y0427350D02*
D03*
X0351181Y0485630D02*
D03*
X0304331Y0429331D02*
D03*
X0442913Y0504921D02*
D03*
X0382480Y0484842D02*
D03*
X0519354Y0334850D02*
D03*
X0503850Y0231850D02*
D03*
D89*
X0468350Y0242350D02*
D03*
X0303500Y0224500D02*
D03*
X0514957Y0420457D02*
D03*
X0271850Y0269350D02*
D03*
X0468850Y0296850D02*
D03*
X0465350Y0242350D02*
D03*
X0502350Y0356850D02*
D03*
X0504350Y0354850D02*
D03*
X0502350Y0353850D02*
D03*
X0479850Y0292850D02*
D03*
X0271000Y0503000D02*
D03*
X0275953Y0270496D02*
D03*
X0282850Y0265350D02*
D03*
X0472953Y0297996D02*
D03*
D90*
X0221150Y0347350D02*
D03*
X0224350D02*
D03*
X0283350Y0219350D02*
D03*
D91*
X0220000Y0326000D02*
D03*
X0264500Y0272500D02*
D03*
X0250500Y0302000D02*
D03*
X0292350Y0350350D02*
D03*
Y0347350D02*
D03*
X0285350Y0317394D02*
D03*
X0482350Y0344894D02*
D03*
X0519850Y0260350D02*
D03*
X0530350Y0362307D02*
D03*
X0490350Y0297394D02*
D03*
X0451500Y0256500D02*
D03*
X0452500Y0270000D02*
D03*
X0305500Y0379000D02*
D03*
X0523850Y0260350D02*
D03*
X0417000Y0206000D02*
D03*
X0454000Y0256500D02*
D03*
X0498850Y0315350D02*
D03*
X0530350Y0366850D02*
D03*
X0507500Y0210000D02*
D03*
X0500500D02*
D03*
X0507500Y0215000D02*
D03*
X0504000D02*
D03*
X0500500D02*
D03*
X0504000Y0210000D02*
D03*
M02*
