G04 Layer_Physical_Order=8*
G04 Layer_Color=16711680*
%FSAX25Y25*%
%MOIN*%
G70*
G01*
G75*
%ADD10R,0.06378X0.09055*%
%ADD11R,0.03543X0.03543*%
%ADD12R,0.03543X0.03543*%
%ADD13R,0.01575X0.03347*%
G04:AMPARAMS|DCode=14|XSize=20mil|YSize=12mil|CornerRadius=0.3mil|HoleSize=0mil|Usage=FLASHONLY|Rotation=270.000|XOffset=0mil|YOffset=0mil|HoleType=Round|Shape=RoundedRectangle|*
%AMROUNDEDRECTD14*
21,1,0.02000,0.01140,0,0,270.0*
21,1,0.01940,0.01200,0,0,270.0*
1,1,0.00060,-0.00570,-0.00970*
1,1,0.00060,-0.00570,0.00970*
1,1,0.00060,0.00570,0.00970*
1,1,0.00060,0.00570,-0.00970*
%
%ADD14ROUNDEDRECTD14*%
%ADD15R,0.07087X0.04528*%
%ADD16R,0.06693X0.04331*%
%ADD17R,0.03937X0.03740*%
%ADD18R,0.04528X0.07087*%
%ADD19R,0.04331X0.06693*%
%ADD20R,0.04803X0.02441*%
%ADD21R,0.03347X0.01575*%
%ADD22R,0.02441X0.04803*%
G04:AMPARAMS|DCode=26|XSize=20mil|YSize=12mil|CornerRadius=0.3mil|HoleSize=0mil|Usage=FLASHONLY|Rotation=0.000|XOffset=0mil|YOffset=0mil|HoleType=Round|Shape=RoundedRectangle|*
%AMROUNDEDRECTD26*
21,1,0.02000,0.01140,0,0,0.0*
21,1,0.01940,0.01200,0,0,0.0*
1,1,0.00060,0.00970,-0.00570*
1,1,0.00060,-0.00970,-0.00570*
1,1,0.00060,-0.00970,0.00570*
1,1,0.00060,0.00970,0.00570*
%
%ADD26ROUNDEDRECTD26*%
%ADD30R,0.03740X0.03937*%
%ADD31R,0.07008X0.02835*%
%ADD32R,0.10630X0.04528*%
%ADD33O,0.01575X0.07677*%
%ADD35R,0.04528X0.10630*%
%ADD38R,0.02835X0.07008*%
%ADD48R,0.04724X0.05118*%
%ADD49R,0.02756X0.02756*%
%ADD50R,0.02756X0.05118*%
%ADD51R,0.03347X0.03347*%
%ADD54R,0.02756X0.02756*%
%ADD55R,0.05118X0.02756*%
%ADD57R,0.01772X0.01772*%
%ADD58R,0.01772X0.01181*%
%ADD59R,0.01772X0.01772*%
%ADD60R,0.01181X0.01772*%
%ADD64C,0.02362*%
%ADD65C,0.02756*%
%ADD66C,0.01575*%
%ADD67C,0.01000*%
%ADD68C,0.01968*%
%ADD69C,0.01181*%
%ADD70C,0.03937*%
%ADD71C,0.00819*%
%ADD72C,0.01378*%
%ADD73C,0.03150*%
%ADD74C,0.00787*%
%ADD78C,0.05905*%
%ADD79R,0.05905X0.05905*%
%ADD80C,0.05315*%
%ADD81R,0.05905X0.05905*%
%ADD82C,0.23425*%
%ADD83C,0.25000*%
%ADD84R,0.06102X0.06102*%
%ADD85C,0.06102*%
%ADD86C,0.02756*%
%ADD87C,0.02362*%
%ADD88C,0.03347*%
%ADD89C,0.02953*%
%ADD90C,0.03937*%
%ADD91C,0.03150*%
%ADD94O,0.05905X0.01772*%
%ADD95O,0.05709X0.00984*%
%ADD96R,0.02362X0.03150*%
%ADD97R,0.03150X0.02362*%
%ADD98O,0.02165X0.05709*%
%ADD99O,0.05709X0.02165*%
%ADD100R,0.09842X0.05905*%
%ADD101O,0.01772X0.05905*%
%ADD102R,0.01181X0.06496*%
G04:AMPARAMS|DCode=103|XSize=20mil|YSize=12mil|CornerRadius=0.3mil|HoleSize=0mil|Usage=FLASHONLY|Rotation=145.000|XOffset=0mil|YOffset=0mil|HoleType=Round|Shape=RoundedRectangle|*
%AMROUNDEDRECTD103*
21,1,0.02000,0.01140,0,0,145.0*
21,1,0.01940,0.01200,0,0,145.0*
1,1,0.00060,-0.00468,0.01023*
1,1,0.00060,0.01121,-0.00089*
1,1,0.00060,0.00468,-0.01023*
1,1,0.00060,-0.01121,0.00089*
%
%ADD103ROUNDEDRECTD103*%
%ADD104R,0.05118X0.06496*%
%ADD105C,0.03543*%
%ADD106C,0.01772*%
G36*
X0348646Y0314854D02*
X0353500Y0314013D01*
Y0299496D01*
X0347600Y0305396D01*
X0347600Y0316620D01*
X0348646Y0314854D01*
D02*
G37*
G36*
X0491350Y0309850D02*
X0492350Y0308850D01*
X0494350Y0308350D01*
Y0307350D01*
X0491350Y0306350D01*
X0487350D01*
Y0308850D01*
X0485350Y0310850D01*
X0467350D01*
Y0317850D01*
X0491350D01*
Y0309850D01*
D02*
G37*
G36*
X0211350Y0309350D02*
X0208350D01*
Y0333350D01*
X0211350D01*
Y0309350D01*
D02*
G37*
G36*
X0448656Y0304144D02*
X0444600Y0300089D01*
X0440600Y0297700D01*
Y0300900D01*
X0441000D01*
X0444600Y0304500D01*
X0448656Y0304144D01*
D02*
G37*
G36*
X0264850Y0282150D02*
X0264850Y0275850D01*
X0259350D01*
X0259350Y0281350D01*
X0252350Y0288350D01*
X0252350Y0293850D01*
X0253150D01*
X0264850Y0282150D01*
D02*
G37*
G36*
X0314750Y0287000D02*
X0309250Y0283000D01*
X0304250Y0287000D01*
X0309250Y0291000D01*
X0314750Y0287000D01*
D02*
G37*
G36*
X0294850Y0283350D02*
X0270850D01*
Y0290350D01*
X0294850D01*
Y0283350D01*
D02*
G37*
G36*
X0325500Y0334000D02*
X0315000D01*
Y0338000D01*
X0327000Y0338000D01*
X0325500Y0334000D01*
D02*
G37*
G36*
X0226100Y0347214D02*
X0223157Y0343850D01*
X0222621Y0343850D01*
X0219350Y0347380D01*
Y0347900D01*
X0226100D01*
X0226100Y0347214D01*
D02*
G37*
G36*
X0232850Y0349850D02*
X0231850Y0345850D01*
X0229350Y0346850D01*
X0230350Y0350850D01*
X0232850Y0349850D01*
D02*
G37*
G36*
X0269000Y0319500D02*
X0266500D01*
Y0324000D01*
X0269000D01*
Y0319500D01*
D02*
G37*
G36*
X0245850Y0316350D02*
X0241850Y0310850D01*
X0237850Y0316350D01*
X0241850Y0321350D01*
X0245850Y0316350D01*
D02*
G37*
G36*
X0264500Y0312500D02*
X0258500D01*
Y0315500D01*
X0264500D01*
Y0312500D01*
D02*
G37*
G36*
X0305500Y0312583D02*
X0303500D01*
Y0318500D01*
X0305500D01*
Y0312583D01*
D02*
G37*
G36*
X0485350Y0261350D02*
X0481347D01*
Y0270350D01*
X0485350D01*
Y0261350D01*
D02*
G37*
G36*
X0290850Y0224350D02*
X0275350D01*
Y0230350D01*
X0277850Y0232850D01*
X0290850D01*
Y0224350D01*
D02*
G37*
G36*
X0375847Y0232350D02*
X0376847Y0231350D01*
X0376846Y0227146D01*
X0375050Y0225350D01*
X0370847Y0225350D01*
Y0232350D01*
X0372348Y0233852D01*
X0372350Y0235350D01*
X0375847D01*
Y0232350D01*
D02*
G37*
G36*
X0486846Y0244354D02*
Y0235850D01*
X0488350D01*
X0489850Y0235350D01*
Y0233350D01*
X0487000Y0230500D01*
X0482000Y0230500D01*
X0482000Y0246350D01*
X0484850Y0246350D01*
X0486846Y0244354D01*
D02*
G37*
G36*
X0245847Y0223756D02*
X0240347D01*
Y0235756D01*
X0245847D01*
Y0223756D01*
D02*
G37*
G36*
X0273350Y0208350D02*
X0273350Y0201850D01*
X0263350Y0201850D01*
X0263350Y0208350D01*
X0273350Y0208350D01*
D02*
G37*
G36*
X0489900Y0217900D02*
X0489900Y0211100D01*
X0485500Y0211100D01*
X0485500Y0217900D01*
X0489900Y0217900D01*
D02*
G37*
G36*
X0502000Y0215000D02*
X0500500Y0213500D01*
X0499000D01*
Y0216500D01*
X0500500D01*
X0502000Y0215000D01*
D02*
G37*
G36*
X0264350Y0247850D02*
X0259350D01*
Y0258850D01*
X0264350D01*
Y0247850D01*
D02*
G37*
G36*
X0470850Y0256350D02*
Y0253850D01*
X0469350Y0252350D01*
X0465850D01*
X0465400Y0252801D01*
Y0265400D01*
X0470850D01*
Y0256350D01*
D02*
G37*
G36*
X0456250Y0254500D02*
X0449750D01*
Y0259500D01*
X0456250D01*
Y0254500D01*
D02*
G37*
G36*
X0305850Y0246850D02*
X0302850D01*
Y0249350D01*
X0300850Y0251350D01*
X0302850Y0253350D01*
Y0255850D01*
X0305850D01*
Y0246850D01*
D02*
G37*
G36*
X0479350Y0238850D02*
X0476201Y0238850D01*
X0473850Y0236500D01*
Y0230500D01*
X0466201D01*
X0464350Y0232350D01*
Y0236350D01*
X0465850Y0237850D01*
X0469850Y0237850D01*
X0474000Y0242000D01*
X0479350D01*
Y0238850D01*
D02*
G37*
G36*
X0278850Y0245850D02*
X0286850D01*
Y0240395D01*
X0273805D01*
X0271500Y0242701D01*
Y0247850D01*
X0276850D01*
X0278850Y0245850D01*
D02*
G37*
G36*
X0471350Y0244350D02*
X0468850Y0240945D01*
X0465756D01*
X0464350Y0242350D01*
Y0247850D01*
X0471350D01*
Y0244350D01*
D02*
G37*
G36*
X0258000Y0436000D02*
X0251750D01*
Y0439000D01*
X0258000D01*
Y0436000D01*
D02*
G37*
G36*
X0296000Y0462000D02*
X0294378D01*
X0294213Y0462165D01*
Y0467047D01*
X0296000D01*
Y0462000D01*
D02*
G37*
G36*
X0519000Y0473500D02*
Y0467500D01*
X0515500Y0467500D01*
Y0473500D01*
X0519000Y0473500D01*
D02*
G37*
G36*
X0223000Y0435000D02*
X0220500D01*
X0220500Y0439000D01*
X0223000D01*
X0223000Y0435000D01*
D02*
G37*
G36*
X0374000Y0435000D02*
X0374500Y0432500D01*
X0371000Y0431000D01*
X0366000D01*
X0365000Y0433000D01*
X0370000Y0437500D01*
X0374000Y0435000D01*
D02*
G37*
G36*
X0258000Y0431500D02*
X0252000D01*
Y0434500D01*
X0258000D01*
Y0431500D01*
D02*
G37*
G36*
X0445000Y0437957D02*
Y0435043D01*
X0439571D01*
X0438976Y0434449D01*
Y0439173D01*
X0443500Y0439457D01*
X0445000Y0437957D01*
D02*
G37*
G36*
X0271850Y0504350D02*
Y0501850D01*
X0265850D01*
Y0507850D01*
X0268350D01*
X0271850Y0504350D01*
D02*
G37*
G36*
X0427500Y0508250D02*
X0427000Y0507750D01*
X0425500D01*
Y0512750D01*
X0427500D01*
Y0508250D01*
D02*
G37*
G36*
X0474016Y0511417D02*
X0471260Y0508661D01*
X0469291Y0511417D01*
Y0518504D01*
X0474016D01*
Y0511417D01*
D02*
G37*
G36*
X0526575Y0501968D02*
X0529528D01*
Y0500000D01*
X0515590D01*
X0515590Y0508075D01*
X0526575Y0501968D01*
D02*
G37*
G36*
X0478500Y0477209D02*
X0476500Y0477300D01*
Y0481700D01*
X0472835Y0482874D01*
X0464567D01*
Y0484842D01*
X0472441D01*
X0478500Y0486000D01*
X0478500Y0477209D01*
D02*
G37*
G36*
X0399095Y0482590D02*
X0397508D01*
Y0487236D01*
X0397394Y0487350D01*
X0403854D01*
X0399095Y0482590D01*
D02*
G37*
G36*
X0380500Y0493500D02*
X0376500D01*
Y0498500D01*
X0380500D01*
Y0493500D01*
D02*
G37*
G36*
X0541750Y0430500D02*
X0537250D01*
Y0433500D01*
X0541750D01*
Y0430500D01*
D02*
G37*
G36*
X0402000Y0378000D02*
X0396000D01*
Y0381000D01*
X0402000D01*
Y0378000D01*
D02*
G37*
G36*
X0456000Y0391000D02*
X0456000Y0375000D01*
X0452500D01*
Y0382000D01*
X0434000D01*
X0435000Y0384500D01*
X0439500D01*
Y0390500D01*
X0441500D01*
Y0384500D01*
X0447500D01*
Y0396000D01*
X0451000D01*
X0456000Y0391000D01*
D02*
G37*
G36*
X0343701Y0411417D02*
X0341811Y0410630D01*
X0343898D01*
X0343898Y0396898D01*
X0335500Y0388500D01*
X0329913Y0394087D01*
X0338976Y0403150D01*
Y0409449D01*
X0335039Y0413386D01*
X0339370Y0414567D01*
X0343701Y0411417D01*
D02*
G37*
G36*
X0473000Y0374000D02*
X0467500D01*
Y0381000D01*
X0473000D01*
Y0374000D01*
D02*
G37*
G36*
X0293500Y0346500D02*
X0291000D01*
Y0350500D01*
X0293500D01*
Y0346500D01*
D02*
G37*
G36*
X0234350Y0352850D02*
X0231350D01*
Y0356850D01*
X0234350D01*
Y0352850D01*
D02*
G37*
G36*
X0449500Y0369000D02*
X0452500Y0367000D01*
X0449500Y0365000D01*
X0449500Y0362000D01*
X0446500D01*
Y0365500D01*
X0445000Y0367000D01*
X0446500Y0368500D01*
Y0372000D01*
X0449500D01*
X0449500Y0369000D01*
D02*
G37*
G36*
X0290000Y0413500D02*
X0289000Y0412500D01*
X0288000D01*
X0287000Y0414500D01*
X0289000Y0415500D01*
X0290000Y0413500D01*
D02*
G37*
G36*
X0400787Y0422350D02*
X0394350D01*
Y0429350D01*
X0400787D01*
Y0422350D01*
D02*
G37*
G36*
X0390500Y0425500D02*
X0384000D01*
Y0428000D01*
X0390500D01*
Y0425500D01*
D02*
G37*
G36*
X0409850Y0408850D02*
X0376850D01*
X0374850Y0412850D01*
X0411850D01*
X0409850Y0408850D01*
D02*
G37*
G36*
X0327500Y0392701D02*
X0327500Y0389500D01*
X0327000Y0389000D01*
X0323500Y0389000D01*
X0319291Y0393209D01*
X0319291Y0394882D01*
X0322047Y0398153D01*
X0327500Y0392701D01*
D02*
G37*
G36*
X0272047Y0399953D02*
Y0394547D01*
X0269500Y0392000D01*
X0266000D01*
Y0402000D01*
X0270000D01*
X0272047Y0399953D01*
D02*
G37*
G36*
X0298850Y0396850D02*
X0293850D01*
Y0401850D01*
X0293350Y0402350D01*
X0298850D01*
Y0396850D01*
D02*
G37*
D10*
X0241925Y0216311D02*
D03*
X0258539D02*
D03*
D11*
X0454331Y0408268D02*
D03*
X0461417D02*
D03*
X0512043Y0372500D02*
D03*
X0504957D02*
D03*
X0300394Y0342350D02*
D03*
X0293307D02*
D03*
X0295457Y0381500D02*
D03*
X0302543D02*
D03*
X0293394Y0403850D02*
D03*
X0286307D02*
D03*
X0267543Y0447500D02*
D03*
X0260457D02*
D03*
Y0455000D02*
D03*
X0267543D02*
D03*
X0311811Y0511024D02*
D03*
X0318898D02*
D03*
X0355307Y0498850D02*
D03*
X0362394D02*
D03*
X0363307Y0503350D02*
D03*
X0370394D02*
D03*
X0367543Y0508000D02*
D03*
X0360457D02*
D03*
X0447043Y0512500D02*
D03*
X0439957D02*
D03*
X0434043Y0513000D02*
D03*
X0426957D02*
D03*
X0350457Y0377000D02*
D03*
X0357543D02*
D03*
X0440857Y0325300D02*
D03*
X0447943D02*
D03*
X0435957Y0304500D02*
D03*
X0443043D02*
D03*
Y0359000D02*
D03*
X0435957D02*
D03*
X0380543Y0489000D02*
D03*
X0373457D02*
D03*
X0333543Y0439000D02*
D03*
X0326457D02*
D03*
X0207677Y0454724D02*
D03*
X0214764D02*
D03*
X0232957Y0411500D02*
D03*
X0240043D02*
D03*
X0262394Y0400350D02*
D03*
X0255307D02*
D03*
X0277457Y0384000D02*
D03*
X0284543D02*
D03*
X0284143Y0358900D02*
D03*
X0277057D02*
D03*
X0253043Y0381000D02*
D03*
X0245957D02*
D03*
X0242043D02*
D03*
X0234957D02*
D03*
X0241807Y0362350D02*
D03*
X0248894D02*
D03*
X0272807Y0308894D02*
D03*
X0279894D02*
D03*
X0297394Y0229850D02*
D03*
X0290307D02*
D03*
X0469807Y0336394D02*
D03*
X0476894D02*
D03*
X0506807Y0349850D02*
D03*
X0513894D02*
D03*
X0527807Y0354850D02*
D03*
X0534894D02*
D03*
X0515807Y0355350D02*
D03*
X0522894D02*
D03*
X0527894Y0359850D02*
D03*
X0520807D02*
D03*
X0528307Y0371350D02*
D03*
X0535394D02*
D03*
X0517457Y0396800D02*
D03*
X0524543D02*
D03*
X0528043Y0411000D02*
D03*
X0520957D02*
D03*
X0495457Y0424500D02*
D03*
X0502543D02*
D03*
X0486614Y0460630D02*
D03*
X0493701D02*
D03*
X0504331Y0461614D02*
D03*
X0511417D02*
D03*
X0471043Y0462500D02*
D03*
X0463957D02*
D03*
X0306894Y0205350D02*
D03*
X0299807D02*
D03*
X0318043Y0387000D02*
D03*
X0310957D02*
D03*
X0238543Y0511500D02*
D03*
X0231457D02*
D03*
X0243043Y0506500D02*
D03*
X0235957D02*
D03*
X0389894Y0470350D02*
D03*
X0382807D02*
D03*
X0333894Y0468850D02*
D03*
X0326807D02*
D03*
X0371357Y0440700D02*
D03*
X0378443D02*
D03*
X0521307Y0431350D02*
D03*
X0528394D02*
D03*
X0506307Y0456850D02*
D03*
X0513394D02*
D03*
X0297043Y0308500D02*
D03*
X0289957D02*
D03*
X0280894Y0316850D02*
D03*
X0273807D02*
D03*
X0431587Y0331000D02*
D03*
X0424500D02*
D03*
X0386457Y0359000D02*
D03*
X0393543D02*
D03*
X0393957Y0365000D02*
D03*
X0401043D02*
D03*
X0470957Y0490000D02*
D03*
X0478043D02*
D03*
X0314457Y0263000D02*
D03*
X0321543D02*
D03*
X0229807Y0362850D02*
D03*
X0236894D02*
D03*
X0219394Y0352350D02*
D03*
X0212307D02*
D03*
X0219394Y0356850D02*
D03*
X0212307D02*
D03*
X0210957Y0361500D02*
D03*
X0218043D02*
D03*
X0423043Y0210000D02*
D03*
X0415957D02*
D03*
X0435243Y0206000D02*
D03*
X0428157D02*
D03*
X0364567Y0513779D02*
D03*
X0371654D02*
D03*
X0260457Y0460000D02*
D03*
X0267543D02*
D03*
X0241957Y0400000D02*
D03*
X0249043D02*
D03*
X0286614Y0451575D02*
D03*
X0279528D02*
D03*
X0218957Y0406500D02*
D03*
X0226043D02*
D03*
X0289457Y0446500D02*
D03*
X0296543D02*
D03*
X0214543Y0406500D02*
D03*
X0207457D02*
D03*
X0248819Y0405118D02*
D03*
X0241732D02*
D03*
X0292894Y0398850D02*
D03*
X0285807D02*
D03*
X0246043Y0303000D02*
D03*
X0238957D02*
D03*
X0511307Y0287850D02*
D03*
X0518394D02*
D03*
X0301457Y0308500D02*
D03*
X0308543D02*
D03*
X0225543Y0382000D02*
D03*
X0218457D02*
D03*
X0238043Y0307500D02*
D03*
X0230957D02*
D03*
X0248043Y0352000D02*
D03*
X0240957D02*
D03*
X0325543Y0379000D02*
D03*
X0318457D02*
D03*
X0241457Y0338000D02*
D03*
X0248543D02*
D03*
X0404957Y0383500D02*
D03*
X0412043D02*
D03*
X0333394Y0433850D02*
D03*
X0326307D02*
D03*
X0431957Y0292000D02*
D03*
X0439043D02*
D03*
X0536957Y0397500D02*
D03*
X0544043D02*
D03*
X0530307Y0349850D02*
D03*
X0537394D02*
D03*
X0427543Y0378500D02*
D03*
X0420457D02*
D03*
X0444043Y0394000D02*
D03*
X0436957D02*
D03*
X0401557Y0460800D02*
D03*
X0408643D02*
D03*
X0351857Y0442500D02*
D03*
X0358943D02*
D03*
X0349807Y0416350D02*
D03*
X0356894D02*
D03*
X0407457Y0329500D02*
D03*
X0414543D02*
D03*
X0392543Y0306500D02*
D03*
X0385457D02*
D03*
X0493457Y0372500D02*
D03*
X0500543D02*
D03*
X0310087Y0360500D02*
D03*
X0303000D02*
D03*
X0503743Y0377500D02*
D03*
X0496657D02*
D03*
X0319543Y0299000D02*
D03*
X0312457D02*
D03*
X0328957Y0384500D02*
D03*
X0336043D02*
D03*
X0325457Y0339000D02*
D03*
X0332543D02*
D03*
X0305394Y0264350D02*
D03*
X0298307D02*
D03*
X0328307Y0237850D02*
D03*
X0335394D02*
D03*
X0363807Y0235850D02*
D03*
X0370894D02*
D03*
X0403257Y0213900D02*
D03*
X0410343D02*
D03*
X0403257Y0219100D02*
D03*
X0410343D02*
D03*
D12*
X0444000Y0318743D02*
D03*
Y0311657D02*
D03*
X0491000Y0220457D02*
D03*
Y0227543D02*
D03*
X0214850Y0324807D02*
D03*
Y0331894D02*
D03*
X0324000Y0208457D02*
D03*
Y0215543D02*
D03*
X0304500Y0273957D02*
D03*
Y0281043D02*
D03*
X0285500Y0336457D02*
D03*
Y0343543D02*
D03*
X0293500Y0362543D02*
D03*
Y0355457D02*
D03*
X0298350Y0352307D02*
D03*
Y0359394D02*
D03*
X0289500Y0382043D02*
D03*
Y0374957D02*
D03*
X0307000Y0365457D02*
D03*
Y0372543D02*
D03*
X0310400Y0418657D02*
D03*
Y0425743D02*
D03*
X0261500Y0435957D02*
D03*
Y0443043D02*
D03*
X0254528Y0449213D02*
D03*
Y0442126D02*
D03*
X0267500Y0482957D02*
D03*
Y0490043D02*
D03*
X0267850Y0502394D02*
D03*
Y0495307D02*
D03*
X0266850Y0506807D02*
D03*
Y0513894D02*
D03*
X0293701Y0505512D02*
D03*
Y0512598D02*
D03*
X0306299Y0514173D02*
D03*
Y0507087D02*
D03*
X0404331Y0514567D02*
D03*
Y0507480D02*
D03*
X0345669Y0505118D02*
D03*
Y0512205D02*
D03*
X0344850Y0418394D02*
D03*
Y0411307D02*
D03*
X0364850Y0397307D02*
D03*
Y0404394D02*
D03*
X0370350Y0402394D02*
D03*
Y0395307D02*
D03*
X0346350Y0385807D02*
D03*
Y0392894D02*
D03*
X0359000Y0385457D02*
D03*
Y0392543D02*
D03*
X0364000Y0385457D02*
D03*
Y0392543D02*
D03*
X0465850Y0326850D02*
D03*
Y0333937D02*
D03*
X0452500Y0325543D02*
D03*
Y0318457D02*
D03*
X0350500Y0344457D02*
D03*
Y0351543D02*
D03*
X0310350Y0344394D02*
D03*
Y0337307D02*
D03*
X0358500Y0323457D02*
D03*
Y0330543D02*
D03*
X0315000Y0328543D02*
D03*
Y0321457D02*
D03*
X0310000D02*
D03*
Y0328543D02*
D03*
X0373500Y0303957D02*
D03*
Y0311043D02*
D03*
X0397500Y0306957D02*
D03*
Y0314043D02*
D03*
X0428500Y0343043D02*
D03*
Y0335957D02*
D03*
X0410500Y0341543D02*
D03*
Y0334457D02*
D03*
X0404000Y0359043D02*
D03*
Y0351957D02*
D03*
X0409500Y0359043D02*
D03*
Y0351957D02*
D03*
X0429000Y0360543D02*
D03*
Y0353457D02*
D03*
X0392500Y0391043D02*
D03*
Y0383957D02*
D03*
X0397500Y0391043D02*
D03*
Y0383957D02*
D03*
X0432000Y0387543D02*
D03*
Y0380457D02*
D03*
X0436614Y0409055D02*
D03*
Y0416142D02*
D03*
X0424500Y0411543D02*
D03*
Y0404457D02*
D03*
X0416000Y0404957D02*
D03*
Y0412043D02*
D03*
X0374850Y0475807D02*
D03*
Y0482894D02*
D03*
X0378350Y0424307D02*
D03*
Y0431394D02*
D03*
X0388850Y0446894D02*
D03*
Y0439807D02*
D03*
X0383700Y0444443D02*
D03*
Y0437357D02*
D03*
X0346000Y0449543D02*
D03*
Y0442457D02*
D03*
X0307480Y0440354D02*
D03*
Y0447441D02*
D03*
X0317323Y0440354D02*
D03*
Y0447441D02*
D03*
Y0452559D02*
D03*
Y0459646D02*
D03*
X0333350Y0456307D02*
D03*
Y0463394D02*
D03*
X0314000Y0488543D02*
D03*
Y0481457D02*
D03*
X0319000D02*
D03*
Y0488543D02*
D03*
Y0468457D02*
D03*
Y0475543D02*
D03*
X0313850Y0466807D02*
D03*
Y0473894D02*
D03*
X0304500Y0479957D02*
D03*
Y0487043D02*
D03*
X0274000Y0460043D02*
D03*
Y0452957D02*
D03*
X0274016Y0464961D02*
D03*
Y0472047D02*
D03*
X0273500Y0485043D02*
D03*
Y0477957D02*
D03*
X0223850Y0497394D02*
D03*
Y0490307D02*
D03*
X0253740Y0458661D02*
D03*
Y0465748D02*
D03*
X0248000Y0465043D02*
D03*
Y0457957D02*
D03*
X0242500Y0465043D02*
D03*
Y0457957D02*
D03*
X0233500Y0467543D02*
D03*
Y0460457D02*
D03*
X0221500Y0462043D02*
D03*
Y0454957D02*
D03*
X0246500Y0409957D02*
D03*
Y0417043D02*
D03*
X0241500Y0422543D02*
D03*
Y0415457D02*
D03*
X0231500Y0398457D02*
D03*
Y0405543D02*
D03*
X0232000Y0394043D02*
D03*
Y0386957D02*
D03*
X0252500Y0394543D02*
D03*
Y0387457D02*
D03*
X0257850Y0394394D02*
D03*
Y0387307D02*
D03*
X0275000Y0388957D02*
D03*
Y0396043D02*
D03*
X0271850Y0359807D02*
D03*
Y0366894D02*
D03*
Y0378394D02*
D03*
Y0371307D02*
D03*
X0267350Y0376394D02*
D03*
Y0369307D02*
D03*
X0262000Y0382043D02*
D03*
Y0374957D02*
D03*
X0218000Y0365457D02*
D03*
Y0372543D02*
D03*
X0253850Y0363307D02*
D03*
Y0370394D02*
D03*
X0224350Y0352307D02*
D03*
Y0359394D02*
D03*
X0236500Y0345457D02*
D03*
Y0352543D02*
D03*
X0287000Y0321957D02*
D03*
Y0329043D02*
D03*
X0285350Y0312894D02*
D03*
Y0305807D02*
D03*
X0297850Y0293350D02*
D03*
Y0300437D02*
D03*
X0293350D02*
D03*
Y0293350D02*
D03*
X0255350Y0303894D02*
D03*
Y0296807D02*
D03*
X0265350Y0290307D02*
D03*
Y0297394D02*
D03*
X0260350Y0299894D02*
D03*
Y0292807D02*
D03*
X0235850Y0221307D02*
D03*
Y0228394D02*
D03*
X0296500Y0243043D02*
D03*
Y0235957D02*
D03*
X0376000Y0282543D02*
D03*
Y0275457D02*
D03*
X0367500Y0283957D02*
D03*
Y0291043D02*
D03*
X0345500Y0281457D02*
D03*
Y0288543D02*
D03*
X0350500Y0277957D02*
D03*
Y0285043D02*
D03*
X0345500Y0267957D02*
D03*
Y0275043D02*
D03*
X0376500Y0254543D02*
D03*
Y0247457D02*
D03*
X0375850Y0242394D02*
D03*
Y0235307D02*
D03*
X0391500Y0228457D02*
D03*
Y0235543D02*
D03*
X0396000Y0228457D02*
D03*
Y0235543D02*
D03*
X0477000Y0209757D02*
D03*
Y0216843D02*
D03*
X0460000Y0256457D02*
D03*
Y0263543D02*
D03*
X0460200Y0238943D02*
D03*
Y0231857D02*
D03*
X0520350Y0305807D02*
D03*
Y0312894D02*
D03*
X0507850Y0310394D02*
D03*
Y0303307D02*
D03*
X0539000Y0332343D02*
D03*
Y0325257D02*
D03*
X0504800Y0323043D02*
D03*
Y0315957D02*
D03*
X0495200Y0320857D02*
D03*
Y0327943D02*
D03*
X0490350Y0327937D02*
D03*
Y0320850D02*
D03*
X0481850Y0340437D02*
D03*
Y0333350D02*
D03*
X0472350Y0348394D02*
D03*
Y0341307D02*
D03*
X0476850Y0348437D02*
D03*
Y0341350D02*
D03*
X0481900Y0348357D02*
D03*
Y0355443D02*
D03*
X0469000Y0363457D02*
D03*
Y0370543D02*
D03*
X0474500Y0364157D02*
D03*
Y0371243D02*
D03*
X0485100Y0371943D02*
D03*
Y0364857D02*
D03*
X0487350Y0347894D02*
D03*
Y0340807D02*
D03*
X0492350Y0352894D02*
D03*
Y0345807D02*
D03*
X0523350Y0364807D02*
D03*
Y0371894D02*
D03*
X0540350Y0378894D02*
D03*
Y0371807D02*
D03*
X0542500Y0383957D02*
D03*
Y0391043D02*
D03*
X0544400Y0419043D02*
D03*
Y0411957D02*
D03*
X0534500Y0416457D02*
D03*
Y0423543D02*
D03*
X0423000Y0448957D02*
D03*
Y0456043D02*
D03*
X0429000Y0437543D02*
D03*
Y0430457D02*
D03*
X0445500Y0435043D02*
D03*
Y0427957D02*
D03*
X0443500Y0439457D02*
D03*
Y0446543D02*
D03*
X0434000Y0439457D02*
D03*
Y0446543D02*
D03*
X0443307Y0450984D02*
D03*
Y0458071D02*
D03*
X0453500Y0432457D02*
D03*
Y0439543D02*
D03*
X0485000Y0432957D02*
D03*
Y0440043D02*
D03*
X0490000Y0432957D02*
D03*
Y0440043D02*
D03*
X0422500Y0491957D02*
D03*
Y0499043D02*
D03*
X0447350Y0475807D02*
D03*
Y0482894D02*
D03*
X0452953Y0463779D02*
D03*
Y0470866D02*
D03*
X0488100Y0482343D02*
D03*
Y0475257D02*
D03*
X0494095Y0474803D02*
D03*
Y0481890D02*
D03*
X0523000Y0468957D02*
D03*
Y0476043D02*
D03*
X0494095Y0507480D02*
D03*
Y0500394D02*
D03*
X0522500Y0484957D02*
D03*
Y0492043D02*
D03*
X0544000Y0477457D02*
D03*
Y0484543D02*
D03*
X0544900Y0499043D02*
D03*
Y0491957D02*
D03*
X0458500Y0440543D02*
D03*
Y0433457D02*
D03*
X0424900Y0297157D02*
D03*
Y0304243D02*
D03*
X0539500Y0416257D02*
D03*
Y0423343D02*
D03*
D13*
X0220291Y0342590D02*
D03*
X0222850D02*
D03*
X0225409D02*
D03*
Y0335110D02*
D03*
X0220291D02*
D03*
X0453000Y0250980D02*
D03*
X0455559D02*
D03*
X0458118D02*
D03*
Y0243500D02*
D03*
X0453000D02*
D03*
D14*
X0321300Y0341600D02*
D03*
Y0340000D02*
D03*
X0330000Y0311800D02*
D03*
Y0310200D02*
D03*
X0251500Y0313800D02*
D03*
Y0312200D02*
D03*
D15*
X0302165Y0406102D02*
D03*
Y0393110D02*
D03*
X0311024D02*
D03*
Y0406102D02*
D03*
X0274410Y0413189D02*
D03*
Y0426181D02*
D03*
X0446457Y0422638D02*
D03*
Y0409646D02*
D03*
X0459000Y0339496D02*
D03*
Y0326504D02*
D03*
X0344500Y0338004D02*
D03*
Y0350996D02*
D03*
X0352000Y0309504D02*
D03*
Y0322496D02*
D03*
X0366850Y0480854D02*
D03*
Y0493847D02*
D03*
X0227000Y0463496D02*
D03*
Y0450504D02*
D03*
X0226500Y0443496D02*
D03*
Y0430504D02*
D03*
X0283350Y0230854D02*
D03*
Y0243847D02*
D03*
X0368850Y0241854D02*
D03*
Y0254847D02*
D03*
X0453000Y0260504D02*
D03*
Y0273496D02*
D03*
X0467850Y0246354D02*
D03*
Y0259347D02*
D03*
X0459100Y0307096D02*
D03*
Y0294104D02*
D03*
X0526500Y0312496D02*
D03*
Y0299504D02*
D03*
X0514350Y0300854D02*
D03*
Y0313846D02*
D03*
X0457500Y0345004D02*
D03*
Y0357996D02*
D03*
X0421000Y0444496D02*
D03*
Y0431504D02*
D03*
X0438976Y0434449D02*
D03*
Y0421457D02*
D03*
X0488000Y0500996D02*
D03*
Y0488004D02*
D03*
X0318000Y0221496D02*
D03*
Y0208504D02*
D03*
X0404850Y0479846D02*
D03*
Y0466854D02*
D03*
X0387350Y0452354D02*
D03*
Y0465346D02*
D03*
X0296850Y0499016D02*
D03*
Y0486024D02*
D03*
D16*
X0274500Y0258996D02*
D03*
Y0246004D02*
D03*
X0266850Y0239347D02*
D03*
Y0226354D02*
D03*
X0476500Y0252996D02*
D03*
Y0240004D02*
D03*
X0467900Y0277796D02*
D03*
Y0264804D02*
D03*
X0336500Y0310004D02*
D03*
Y0322996D02*
D03*
D17*
X0449000Y0305157D02*
D03*
Y0312243D02*
D03*
X0480000Y0367443D02*
D03*
Y0360357D02*
D03*
Y0372657D02*
D03*
Y0379743D02*
D03*
X0295500Y0373043D02*
D03*
Y0365957D02*
D03*
X0311500Y0372543D02*
D03*
Y0365457D02*
D03*
X0301181Y0514173D02*
D03*
Y0507087D02*
D03*
X0422000Y0512043D02*
D03*
Y0504957D02*
D03*
X0413500Y0511043D02*
D03*
Y0503957D02*
D03*
X0353500Y0385457D02*
D03*
Y0392543D02*
D03*
X0344000Y0372457D02*
D03*
Y0379543D02*
D03*
X0380500Y0366543D02*
D03*
Y0359457D02*
D03*
X0453000Y0339543D02*
D03*
Y0332457D02*
D03*
X0316000Y0344043D02*
D03*
Y0336957D02*
D03*
X0314000Y0309457D02*
D03*
Y0316543D02*
D03*
X0343000Y0319543D02*
D03*
Y0312457D02*
D03*
X0358500D02*
D03*
Y0319543D02*
D03*
X0419500Y0322543D02*
D03*
Y0315457D02*
D03*
X0423500Y0343043D02*
D03*
Y0335957D02*
D03*
X0449000Y0383543D02*
D03*
Y0376457D02*
D03*
X0307480Y0452559D02*
D03*
Y0459646D02*
D03*
X0325590Y0452559D02*
D03*
Y0459646D02*
D03*
X0307850Y0466850D02*
D03*
Y0473937D02*
D03*
X0257500Y0374957D02*
D03*
Y0382043D02*
D03*
X0223000Y0365457D02*
D03*
Y0372543D02*
D03*
X0258500Y0362957D02*
D03*
Y0370043D02*
D03*
X0252700Y0350957D02*
D03*
Y0358043D02*
D03*
X0257000D02*
D03*
Y0350957D02*
D03*
X0215350Y0347394D02*
D03*
Y0340307D02*
D03*
X0236500Y0341043D02*
D03*
Y0333957D02*
D03*
X0231500Y0341043D02*
D03*
Y0333957D02*
D03*
X0248850Y0326307D02*
D03*
Y0333394D02*
D03*
X0282000Y0322457D02*
D03*
Y0329543D02*
D03*
X0288850Y0293350D02*
D03*
Y0300437D02*
D03*
X0265350Y0302307D02*
D03*
Y0309394D02*
D03*
X0290500Y0235957D02*
D03*
Y0243043D02*
D03*
X0367500Y0271957D02*
D03*
Y0279043D02*
D03*
X0385000Y0259957D02*
D03*
Y0267043D02*
D03*
X0361850Y0241307D02*
D03*
Y0248394D02*
D03*
X0446500Y0258957D02*
D03*
Y0266043D02*
D03*
X0447500Y0251043D02*
D03*
Y0243957D02*
D03*
X0489350Y0308894D02*
D03*
Y0301807D02*
D03*
X0485850Y0320850D02*
D03*
Y0327937D02*
D03*
X0486850Y0353807D02*
D03*
Y0360894D02*
D03*
X0497350Y0345807D02*
D03*
Y0352894D02*
D03*
X0521350Y0344894D02*
D03*
Y0337807D02*
D03*
X0515850Y0360307D02*
D03*
Y0367394D02*
D03*
X0510500Y0383457D02*
D03*
Y0390543D02*
D03*
X0516000Y0392043D02*
D03*
Y0384957D02*
D03*
X0414500Y0449957D02*
D03*
Y0457043D02*
D03*
X0414850Y0440894D02*
D03*
Y0433807D02*
D03*
X0433858Y0450984D02*
D03*
Y0458071D02*
D03*
X0452953Y0450984D02*
D03*
Y0458071D02*
D03*
X0428600Y0501243D02*
D03*
Y0494157D02*
D03*
X0447350Y0463807D02*
D03*
Y0470894D02*
D03*
X0472441Y0483858D02*
D03*
Y0476772D02*
D03*
X0494095Y0495669D02*
D03*
Y0488583D02*
D03*
X0351500Y0505457D02*
D03*
Y0512543D02*
D03*
X0482350Y0419894D02*
D03*
Y0412807D02*
D03*
D18*
X0284496Y0278000D02*
D03*
X0271504D02*
D03*
X0334252Y0406102D02*
D03*
X0321260D02*
D03*
X0417346Y0389850D02*
D03*
X0404354D02*
D03*
X0383496Y0389500D02*
D03*
X0370504D02*
D03*
X0417496Y0298000D02*
D03*
X0404504D02*
D03*
X0353996Y0303300D02*
D03*
X0341004D02*
D03*
X0355904Y0473800D02*
D03*
X0368896D02*
D03*
X0345866Y0484252D02*
D03*
X0358858D02*
D03*
X0331504Y0475500D02*
D03*
X0344496D02*
D03*
X0282480Y0479134D02*
D03*
X0295472D02*
D03*
X0215004Y0472500D02*
D03*
X0227996D02*
D03*
X0251847Y0290350D02*
D03*
X0238854D02*
D03*
X0247354Y0229850D02*
D03*
X0260347D02*
D03*
X0325996Y0276000D02*
D03*
X0313004D02*
D03*
X0378996Y0265500D02*
D03*
X0366004D02*
D03*
X0352847Y0227350D02*
D03*
X0339854D02*
D03*
X0370847Y0228850D02*
D03*
X0357854D02*
D03*
X0414404Y0227500D02*
D03*
X0427396D02*
D03*
X0484496Y0234000D02*
D03*
X0471504D02*
D03*
X0481847Y0305894D02*
D03*
X0468854D02*
D03*
X0477362Y0435039D02*
D03*
X0464370D02*
D03*
X0403504Y0487500D02*
D03*
X0416496D02*
D03*
X0483018Y0467520D02*
D03*
X0496010D02*
D03*
X0501854Y0470350D02*
D03*
X0514847D02*
D03*
X0363204Y0464800D02*
D03*
X0376196D02*
D03*
X0354496Y0435000D02*
D03*
X0341504D02*
D03*
X0481354Y0453850D02*
D03*
X0494347D02*
D03*
X0494354Y0443350D02*
D03*
X0507346D02*
D03*
X0327504Y0266500D02*
D03*
X0340496D02*
D03*
X0411850Y0478350D02*
D03*
X0424843D02*
D03*
X0477362Y0469291D02*
D03*
X0464370D02*
D03*
X0358347Y0492350D02*
D03*
X0345354D02*
D03*
X0317126Y0499606D02*
D03*
X0304134D02*
D03*
X0280996Y0401500D02*
D03*
X0268004D02*
D03*
X0293996Y0392000D02*
D03*
X0281004D02*
D03*
X0204004Y0463000D02*
D03*
X0216996D02*
D03*
X0295276Y0411024D02*
D03*
X0282283D02*
D03*
X0206102Y0447638D02*
D03*
X0219094D02*
D03*
X0413346Y0425850D02*
D03*
X0400354D02*
D03*
X0431347Y0423350D02*
D03*
X0418354D02*
D03*
X0531496Y0378500D02*
D03*
X0518504D02*
D03*
X0533596Y0330300D02*
D03*
X0520604D02*
D03*
X0472996Y0377500D02*
D03*
X0460004D02*
D03*
X0450496Y0347900D02*
D03*
X0437504D02*
D03*
D19*
X0206354Y0290850D02*
D03*
X0219346D02*
D03*
X0441847Y0484850D02*
D03*
X0428854D02*
D03*
X0413854Y0470350D02*
D03*
X0426847D02*
D03*
X0413854Y0462850D02*
D03*
X0426847D02*
D03*
X0438704Y0232400D02*
D03*
X0451696D02*
D03*
X0350496Y0329500D02*
D03*
X0337504D02*
D03*
D20*
X0464157Y0363260D02*
D03*
X0453842D02*
D03*
Y0367000D02*
D03*
Y0370740D02*
D03*
X0464157D02*
D03*
X0532508Y0392091D02*
D03*
X0522193D02*
D03*
Y0388350D02*
D03*
X0532508D02*
D03*
X0522193Y0384610D02*
D03*
X0532508D02*
D03*
X0456243Y0484040D02*
D03*
X0466558D02*
D03*
Y0480300D02*
D03*
Y0476560D02*
D03*
X0456243D02*
D03*
X0345693Y0461091D02*
D03*
X0356008D02*
D03*
Y0457350D02*
D03*
Y0453610D02*
D03*
X0345693D02*
D03*
X0387193Y0482590D02*
D03*
X0397508D02*
D03*
Y0478850D02*
D03*
Y0475110D02*
D03*
X0387193D02*
D03*
X0272508Y0355090D02*
D03*
X0262193D02*
D03*
Y0351350D02*
D03*
X0272508D02*
D03*
X0262193Y0347610D02*
D03*
X0272508D02*
D03*
X0324008Y0356090D02*
D03*
X0313693D02*
D03*
Y0352350D02*
D03*
X0324008D02*
D03*
X0313693Y0348610D02*
D03*
X0324008D02*
D03*
X0537508Y0345091D02*
D03*
X0527193D02*
D03*
Y0341350D02*
D03*
X0537508D02*
D03*
X0527193Y0337610D02*
D03*
X0537508D02*
D03*
D21*
X0257240Y0509559D02*
D03*
Y0507000D02*
D03*
Y0504441D02*
D03*
X0249760D02*
D03*
Y0509559D02*
D03*
X0443240Y0369559D02*
D03*
Y0367000D02*
D03*
Y0364441D02*
D03*
X0435760D02*
D03*
Y0369559D02*
D03*
X0299091Y0253909D02*
D03*
Y0251350D02*
D03*
Y0248791D02*
D03*
X0291610D02*
D03*
Y0253909D02*
D03*
X0495110Y0305291D02*
D03*
Y0307850D02*
D03*
Y0310409D02*
D03*
X0502591D02*
D03*
Y0305291D02*
D03*
D22*
X0318760Y0304693D02*
D03*
Y0315008D02*
D03*
X0322500Y0304693D02*
D03*
Y0315008D02*
D03*
X0326240D02*
D03*
Y0304693D02*
D03*
X0444240Y0388657D02*
D03*
Y0378343D02*
D03*
X0440500D02*
D03*
X0436760D02*
D03*
Y0388657D02*
D03*
X0370740Y0322657D02*
D03*
X0367000Y0312343D02*
D03*
X0363260Y0322657D02*
D03*
X0338740Y0289657D02*
D03*
Y0279343D02*
D03*
X0335000D02*
D03*
X0331260D02*
D03*
Y0289657D02*
D03*
X0326091Y0293508D02*
D03*
Y0283193D02*
D03*
X0322350D02*
D03*
X0318610D02*
D03*
Y0293508D02*
D03*
X0224850Y0288350D02*
D03*
Y0298665D02*
D03*
X0228590D02*
D03*
X0232331D02*
D03*
Y0288350D02*
D03*
X0484760Y0389008D02*
D03*
Y0378693D02*
D03*
X0488500D02*
D03*
Y0389008D02*
D03*
X0492240Y0378693D02*
D03*
Y0389008D02*
D03*
X0440760Y0329842D02*
D03*
Y0340158D02*
D03*
X0444500D02*
D03*
X0448240D02*
D03*
Y0329842D02*
D03*
X0439240Y0309842D02*
D03*
Y0320158D02*
D03*
X0435500D02*
D03*
Y0309842D02*
D03*
X0431760Y0320158D02*
D03*
Y0309842D02*
D03*
X0407260Y0324158D02*
D03*
Y0313843D02*
D03*
X0411000D02*
D03*
X0414740D02*
D03*
Y0324158D02*
D03*
X0277110Y0364193D02*
D03*
Y0374508D02*
D03*
X0280850Y0364193D02*
D03*
Y0374508D02*
D03*
X0284591D02*
D03*
Y0364193D02*
D03*
X0497610Y0383193D02*
D03*
Y0393508D02*
D03*
X0501350Y0383193D02*
D03*
Y0393508D02*
D03*
X0505091D02*
D03*
Y0383193D02*
D03*
D26*
X0505700Y0339600D02*
D03*
X0507300D02*
D03*
D30*
X0338043Y0379000D02*
D03*
X0330957D02*
D03*
X0426957Y0508500D02*
D03*
X0434043D02*
D03*
X0357394Y0411350D02*
D03*
X0350307D02*
D03*
X0368457Y0368000D02*
D03*
X0375543D02*
D03*
X0439043Y0299500D02*
D03*
X0431957D02*
D03*
X0417043Y0292000D02*
D03*
X0409957D02*
D03*
X0370543Y0328000D02*
D03*
X0363457D02*
D03*
X0324457Y0334500D02*
D03*
X0331543D02*
D03*
X0309457Y0333000D02*
D03*
X0316543D02*
D03*
X0388543Y0314500D02*
D03*
X0381457D02*
D03*
X0332500Y0483500D02*
D03*
X0339587D02*
D03*
X0281496Y0486221D02*
D03*
X0288583D02*
D03*
X0237457Y0475000D02*
D03*
X0244543D02*
D03*
X0277307Y0379850D02*
D03*
X0284394D02*
D03*
X0215957Y0377000D02*
D03*
X0223043D02*
D03*
X0248543Y0342500D02*
D03*
X0241457D02*
D03*
X0270307Y0293850D02*
D03*
X0277394D02*
D03*
X0270307Y0298850D02*
D03*
X0277394D02*
D03*
X0245894Y0298350D02*
D03*
X0238807D02*
D03*
X0321043Y0269500D02*
D03*
X0313957D02*
D03*
X0409043Y0231500D02*
D03*
X0401957D02*
D03*
X0413957Y0233500D02*
D03*
X0421043D02*
D03*
X0467307Y0321894D02*
D03*
X0474394D02*
D03*
X0470807Y0327394D02*
D03*
X0477894D02*
D03*
X0516394Y0344850D02*
D03*
X0509307D02*
D03*
X0503307Y0414350D02*
D03*
X0510394D02*
D03*
X0520957Y0406500D02*
D03*
X0528043D02*
D03*
X0423457Y0369000D02*
D03*
X0430543D02*
D03*
X0248957Y0514000D02*
D03*
X0256043D02*
D03*
X0354894Y0465850D02*
D03*
X0347807D02*
D03*
X0397394Y0487350D02*
D03*
X0390307D02*
D03*
X0521457Y0426000D02*
D03*
X0528543D02*
D03*
X0470157Y0352800D02*
D03*
X0477243D02*
D03*
X0376957Y0288500D02*
D03*
X0384043D02*
D03*
X0386457Y0354000D02*
D03*
X0393543D02*
D03*
X0331957Y0274000D02*
D03*
X0339043D02*
D03*
X0507957Y0509000D02*
D03*
X0515043D02*
D03*
X0477953Y0441732D02*
D03*
X0470866D02*
D03*
X0303894Y0347350D02*
D03*
X0296807D02*
D03*
X0300394Y0313350D02*
D03*
X0293307D02*
D03*
X0233043Y0313000D02*
D03*
X0225957D02*
D03*
X0495457Y0419000D02*
D03*
X0502543D02*
D03*
X0248043Y0347400D02*
D03*
X0240957D02*
D03*
X0519457Y0401500D02*
D03*
X0526543D02*
D03*
X0424543Y0416500D02*
D03*
X0417457D02*
D03*
X0328346Y0399213D02*
D03*
X0321260D02*
D03*
X0544043Y0402500D02*
D03*
X0536957D02*
D03*
X0436957Y0399500D02*
D03*
X0444043D02*
D03*
X0464457Y0358500D02*
D03*
X0471543D02*
D03*
X0306307Y0433850D02*
D03*
X0313394D02*
D03*
X0359957Y0304500D02*
D03*
X0367043D02*
D03*
X0389757Y0205900D02*
D03*
X0396843D02*
D03*
D31*
X0309642Y0215291D02*
D03*
X0290823D02*
D03*
Y0210291D02*
D03*
X0309642D02*
D03*
Y0220291D02*
D03*
X0290823D02*
D03*
Y0225291D02*
D03*
X0309642D02*
D03*
X0534142Y0441791D02*
D03*
X0515323D02*
D03*
Y0436791D02*
D03*
X0534142D02*
D03*
Y0446791D02*
D03*
X0515323D02*
D03*
Y0451791D02*
D03*
X0534142D02*
D03*
X0396693Y0504528D02*
D03*
X0377874D02*
D03*
Y0499528D02*
D03*
X0396693D02*
D03*
Y0509528D02*
D03*
X0377874D02*
D03*
Y0514528D02*
D03*
X0396693D02*
D03*
X0475039Y0418307D02*
D03*
X0456220D02*
D03*
Y0413307D02*
D03*
X0475039D02*
D03*
Y0423307D02*
D03*
X0456220D02*
D03*
Y0428307D02*
D03*
X0475039D02*
D03*
X0300315Y0472047D02*
D03*
X0281496D02*
D03*
Y0467047D02*
D03*
X0300315D02*
D03*
Y0457047D02*
D03*
X0281496D02*
D03*
Y0462047D02*
D03*
X0300315D02*
D03*
X0205787Y0386614D02*
D03*
X0224606D02*
D03*
Y0391614D02*
D03*
X0205787D02*
D03*
Y0401614D02*
D03*
X0224606D02*
D03*
Y0396614D02*
D03*
X0205787D02*
D03*
X0249642Y0484791D02*
D03*
X0230823D02*
D03*
Y0479791D02*
D03*
X0249642D02*
D03*
Y0489791D02*
D03*
X0230823D02*
D03*
Y0494791D02*
D03*
X0249642D02*
D03*
X0337835Y0418701D02*
D03*
X0319016D02*
D03*
Y0413701D02*
D03*
X0337835D02*
D03*
Y0423701D02*
D03*
X0319016D02*
D03*
Y0428701D02*
D03*
X0337835D02*
D03*
D32*
X0330850Y0243445D02*
D03*
Y0255256D02*
D03*
X0268350Y0207350D02*
D03*
Y0219161D02*
D03*
X0280350Y0225350D02*
D03*
Y0213539D02*
D03*
X0438350Y0463945D02*
D03*
Y0475756D02*
D03*
X0307350Y0231445D02*
D03*
Y0243256D02*
D03*
X0319350Y0231445D02*
D03*
Y0243256D02*
D03*
D33*
X0361750Y0273847D02*
D03*
X0359250D02*
D03*
X0356750D02*
D03*
X0354250D02*
D03*
X0361750Y0292154D02*
D03*
X0359250D02*
D03*
X0356750D02*
D03*
X0354250D02*
D03*
D35*
X0309945Y0252350D02*
D03*
X0321756D02*
D03*
D38*
X0510433Y0500433D02*
D03*
Y0481614D02*
D03*
X0515433D02*
D03*
Y0500433D02*
D03*
X0505433D02*
D03*
Y0481614D02*
D03*
X0500433D02*
D03*
Y0500433D02*
D03*
X0335236Y0511260D02*
D03*
Y0492441D02*
D03*
X0340236D02*
D03*
Y0511260D02*
D03*
X0330236D02*
D03*
Y0492441D02*
D03*
X0325236D02*
D03*
Y0511260D02*
D03*
X0283268Y0511654D02*
D03*
Y0492835D02*
D03*
X0288268D02*
D03*
Y0511654D02*
D03*
X0278268D02*
D03*
Y0492835D02*
D03*
X0273268D02*
D03*
Y0511654D02*
D03*
X0296850Y0420157D02*
D03*
Y0438976D02*
D03*
X0291850D02*
D03*
Y0420157D02*
D03*
X0281850D02*
D03*
Y0438976D02*
D03*
X0286850D02*
D03*
Y0420157D02*
D03*
X0204527Y0438504D02*
D03*
Y0419685D02*
D03*
X0209528D02*
D03*
Y0438504D02*
D03*
X0219528D02*
D03*
Y0419685D02*
D03*
X0214528D02*
D03*
Y0438504D02*
D03*
X0262795Y0426221D02*
D03*
Y0407402D02*
D03*
X0267795D02*
D03*
Y0426221D02*
D03*
X0257795D02*
D03*
Y0407402D02*
D03*
X0252795D02*
D03*
Y0426221D02*
D03*
X0238189Y0432441D02*
D03*
Y0451260D02*
D03*
X0233189D02*
D03*
Y0432441D02*
D03*
X0243189D02*
D03*
Y0451260D02*
D03*
X0248189D02*
D03*
Y0432441D02*
D03*
X0375370Y0417220D02*
D03*
Y0398401D02*
D03*
X0380370D02*
D03*
Y0417220D02*
D03*
X0390370D02*
D03*
Y0398401D02*
D03*
X0385370D02*
D03*
Y0417220D02*
D03*
X0396370D02*
D03*
Y0398401D02*
D03*
X0401370D02*
D03*
Y0417220D02*
D03*
X0411370D02*
D03*
Y0398401D02*
D03*
X0406370D02*
D03*
Y0417220D02*
D03*
X0403909Y0453142D02*
D03*
Y0434323D02*
D03*
X0408909D02*
D03*
Y0453142D02*
D03*
X0398909D02*
D03*
Y0434323D02*
D03*
X0393909D02*
D03*
Y0453142D02*
D03*
X0346291Y0238059D02*
D03*
Y0256878D02*
D03*
X0341291D02*
D03*
Y0238059D02*
D03*
X0351291D02*
D03*
Y0256878D02*
D03*
X0356291D02*
D03*
Y0238059D02*
D03*
D48*
X0218350Y0301850D02*
D03*
X0208902D02*
D03*
D49*
X0422437Y0390957D02*
D03*
D50*
X0427850Y0391350D02*
D03*
X0431591Y0399323D02*
D03*
X0424110D02*
D03*
D51*
X0378500Y0457893D02*
D03*
Y0444507D02*
D03*
X0365500Y0441293D02*
D03*
Y0427907D02*
D03*
D54*
X0227453Y0425413D02*
D03*
X0426506Y0220713D02*
D03*
X0268047Y0466587D02*
D03*
X0238106Y0395913D02*
D03*
X0276378Y0432382D02*
D03*
X0357394Y0397087D02*
D03*
X0372194Y0445787D02*
D03*
X0370847Y0413787D02*
D03*
D55*
X0227847Y0420000D02*
D03*
X0235819Y0416260D02*
D03*
Y0423740D02*
D03*
X0426900Y0215300D02*
D03*
X0434872Y0211560D02*
D03*
Y0219040D02*
D03*
X0267653Y0472000D02*
D03*
X0259681Y0475740D02*
D03*
Y0468260D02*
D03*
X0238500Y0390500D02*
D03*
X0246472Y0386760D02*
D03*
Y0394240D02*
D03*
X0275984Y0437795D02*
D03*
X0268012Y0441535D02*
D03*
Y0434055D02*
D03*
X0357000Y0402500D02*
D03*
X0349028Y0406240D02*
D03*
Y0398760D02*
D03*
X0371800Y0451200D02*
D03*
X0363828Y0454940D02*
D03*
Y0447460D02*
D03*
X0370454Y0419200D02*
D03*
X0362481Y0422940D02*
D03*
Y0415460D02*
D03*
X0437957Y0491663D02*
D03*
X0457643D02*
D03*
D57*
X0473000Y0402600D02*
D03*
Y0396300D02*
D03*
X0476250D02*
D03*
Y0402600D02*
D03*
D58*
X0473000Y0398500D02*
D03*
Y0400400D02*
D03*
X0476250D02*
D03*
Y0398500D02*
D03*
D59*
X0386700Y0231500D02*
D03*
X0380400D02*
D03*
Y0228250D02*
D03*
X0386700D02*
D03*
X0257800Y0327500D02*
D03*
X0264100D02*
D03*
Y0330750D02*
D03*
X0257800D02*
D03*
X0337800Y0358250D02*
D03*
X0344100D02*
D03*
Y0361500D02*
D03*
X0337800D02*
D03*
D60*
X0382600Y0231500D02*
D03*
X0384500D02*
D03*
Y0228250D02*
D03*
X0382600D02*
D03*
X0261900Y0327500D02*
D03*
X0260000D02*
D03*
Y0330750D02*
D03*
X0261900D02*
D03*
X0341900Y0358250D02*
D03*
X0340000D02*
D03*
Y0361500D02*
D03*
X0341900D02*
D03*
D64*
X0224988Y0430500D02*
X0225984Y0431496D01*
X0226000Y0407075D02*
X0226575Y0406500D01*
X0226114Y0401614D02*
Y0405500D01*
X0274016Y0453150D02*
X0274665Y0452500D01*
X0257992Y0422992D02*
Y0426221D01*
X0313350Y0203850D02*
X0318354Y0208854D01*
X0324000D01*
X0336500Y0322496D02*
X0338000Y0323996D01*
Y0331000D01*
X0497350Y0345807D02*
X0497850D01*
X0451696Y0232000D02*
X0458957D01*
X0345669Y0512205D02*
Y0516142D01*
X0346063Y0512598D02*
X0350787D01*
X0443307Y0458071D02*
X0452953D01*
X0293701Y0512598D02*
Y0516535D01*
X0340709Y0410827D02*
X0350307D01*
X0229000Y0473504D02*
Y0479791D01*
X0293307Y0463779D02*
Y0465748D01*
Y0463779D02*
X0295039Y0462047D01*
X0294213Y0467047D02*
X0300315D01*
X0294331Y0462047D02*
X0295039D01*
X0365850Y0493847D02*
X0366850D01*
X0211496Y0391614D02*
X0212795Y0392913D01*
Y0388189D02*
Y0392913D01*
Y0395590D01*
X0307480Y0459646D02*
X0317323D01*
X0409600Y0460800D02*
X0411800Y0458600D01*
X0413854Y0456890D02*
Y0458600D01*
X0411800D02*
X0413854D01*
X0281850Y0434291D02*
Y0438976D01*
X0281496Y0457047D02*
X0286181D01*
X0282283Y0411024D02*
X0286350Y0406957D01*
X0286850Y0420157D02*
Y0424961D01*
X0447244Y0482894D02*
Y0492717D01*
X0381000Y0486323D02*
Y0488744D01*
X0366850Y0493847D02*
X0369847D01*
X0482768Y0441732D02*
X0484728Y0439772D01*
X0313850Y0488394D02*
X0322894D01*
X0266929Y0513894D02*
Y0516536D01*
X0331890Y0475000D02*
Y0483858D01*
X0458496Y0295000D02*
X0458500Y0295004D01*
X0451500Y0295000D02*
X0458496D01*
X0460700Y0227300D02*
Y0230257D01*
X0420543Y0234453D02*
X0429755Y0225241D01*
X0438004Y0228104D02*
Y0229000D01*
X0435141Y0225241D02*
X0438004Y0228104D01*
X0429755Y0225241D02*
X0435141D01*
X0309642Y0215394D02*
X0324000D01*
X0358858Y0484252D02*
Y0492520D01*
X0532846Y0378850D02*
X0540350D01*
X0531347Y0377350D02*
X0532846Y0378850D01*
X0443307Y0446260D02*
Y0450984D01*
X0433858Y0446260D02*
Y0450984D01*
X0296063Y0446457D02*
X0296850Y0445669D01*
X0214543Y0406587D02*
X0219488D01*
X0295276Y0409276D02*
Y0411024D01*
X0293000Y0407000D02*
X0295276Y0409276D01*
X0429000Y0437543D02*
X0430913Y0439457D01*
X0434000D01*
X0477953Y0441732D02*
X0482768D01*
X0338004Y0324000D02*
X0341500D01*
X0456102Y0463779D02*
X0458268Y0465945D01*
X0450394Y0453543D02*
X0452953Y0450984D01*
X0448032Y0453543D02*
X0450394D01*
X0322894Y0488394D02*
X0325350Y0490850D01*
X0306307Y0432807D02*
Y0433850D01*
X0317323Y0459646D02*
X0323854D01*
X0250000Y0420866D02*
X0252953D01*
X0232000Y0398339D02*
X0232087Y0395043D01*
Y0398425D01*
X0232000Y0398339D02*
X0232087Y0398425D01*
X0226114Y0405500D02*
X0231000D01*
X0219528Y0416722D02*
X0226000Y0410250D01*
Y0407075D02*
Y0410250D01*
X0219528Y0416722D02*
Y0419685D01*
X0252953Y0420866D02*
Y0426181D01*
X0343201Y0474500D02*
X0344291Y0475591D01*
X0341000Y0474500D02*
X0343201D01*
X0255866Y0420866D02*
X0257992Y0422992D01*
X0253264Y0420866D02*
X0255866D01*
X0281850Y0438976D02*
Y0441650D01*
X0267520Y0442224D02*
Y0447480D01*
X0207457Y0406500D02*
Y0411043D01*
X0204527Y0413973D02*
X0207457Y0411043D01*
X0204527Y0413973D02*
Y0419685D01*
X0353457Y0497000D02*
X0355307Y0498850D01*
X0353606Y0500551D02*
X0355307Y0498850D01*
X0353606Y0500551D02*
Y0503350D01*
X0351500Y0505457D02*
X0353606Y0503350D01*
X0510433Y0495567D02*
X0510500Y0495500D01*
X0510433Y0495567D02*
Y0500433D01*
X0286850Y0417150D02*
X0288000Y0415000D01*
X0286850Y0417150D02*
Y0420157D01*
X0223512Y0444488D02*
X0225984D01*
X0222500Y0445500D02*
X0223512Y0444488D01*
X0221232Y0445500D02*
X0222500D01*
X0217500Y0434500D02*
X0219528Y0436527D01*
X0215327Y0434500D02*
X0217500D01*
X0214528Y0433701D02*
X0215327Y0434500D01*
X0219528Y0436527D02*
Y0438504D01*
X0353606Y0503350D02*
X0363307D01*
X0211221Y0386614D02*
X0212795Y0388189D01*
X0250000Y0437500D02*
X0253500D01*
X0248189Y0435689D02*
X0250000Y0437500D01*
X0248189Y0432441D02*
Y0435689D01*
X0385039Y0391043D02*
X0390240D01*
X0392500D01*
X0390240D02*
X0390370Y0391173D01*
X0278602Y0452500D02*
X0279528Y0451575D01*
X0274665Y0452500D02*
X0278602D01*
X0280047Y0457047D02*
X0281496D01*
X0279528Y0456528D02*
X0280047Y0457047D01*
X0279528Y0451575D02*
Y0456528D01*
X0321654Y0453150D02*
X0325000D01*
X0325590Y0452559D01*
X0327756Y0517323D02*
X0329134D01*
X0326378D02*
X0327756D01*
X0270118Y0517717D02*
X0272126D01*
X0268110D02*
X0270118D01*
X0232709Y0430709D02*
X0233000Y0431000D01*
X0247000Y0210500D02*
X0250000D01*
X0241925Y0215575D02*
X0247000Y0210500D01*
X0241925Y0215575D02*
Y0216311D01*
X0310850Y0202350D02*
X0311350D01*
X0308394D02*
X0310850D01*
X0236929Y0221307D02*
X0241925Y0216311D01*
X0235850Y0221307D02*
X0236929D01*
X0285850Y0210350D02*
X0289850D01*
X0282661Y0213539D02*
X0285850Y0210350D01*
X0336500Y0322496D02*
X0338000Y0320996D01*
X0223003Y0296818D02*
X0224850Y0298665D01*
X0220350Y0296818D02*
X0223003D01*
X0224606Y0386614D02*
X0230658D01*
X0248000Y0433500D02*
Y0436449D01*
X0301957Y0235957D02*
X0302850Y0236850D01*
X0296500Y0235957D02*
X0301957D01*
X0449000Y0367000D02*
X0453842D01*
X0517500Y0406500D02*
X0517780D01*
X0284516Y0278724D02*
Y0284728D01*
X0441347Y0475850D02*
Y0484350D01*
X0452925Y0463807D02*
X0452953Y0463779D01*
X0447350Y0463807D02*
X0452925D01*
Y0470894D02*
X0452953Y0470866D01*
X0447350Y0470894D02*
X0452925D01*
X0447350D02*
Y0475807D01*
X0438976Y0439173D02*
X0443307D01*
X0438976Y0434842D02*
Y0439173D01*
X0313807Y0466850D02*
X0313850Y0466807D01*
X0307850Y0466850D02*
X0313807D01*
X0307480Y0466480D02*
X0307850Y0466850D01*
X0307480Y0459646D02*
Y0466480D01*
X0313807Y0473937D02*
X0313850Y0473894D01*
X0307850Y0473937D02*
X0313807D01*
X0245894Y0297307D02*
X0251847Y0291354D01*
Y0290350D02*
Y0291354D01*
X0245894Y0297307D02*
Y0298350D01*
X0286350Y0404988D02*
Y0406957D01*
X0326350Y0426350D02*
Y0432807D01*
X0323701Y0423701D02*
X0326350Y0426350D01*
X0319016Y0423701D02*
X0323701D01*
X0280350Y0225350D02*
X0281350Y0224350D01*
X0236894Y0228394D02*
X0238256Y0229756D01*
X0235850Y0228394D02*
X0236894D01*
X0320669Y0440354D02*
X0321654Y0439370D01*
X0218701Y0392520D02*
X0219606Y0391614D01*
X0218701Y0392520D02*
Y0395669D01*
X0219646Y0396614D01*
X0218701Y0397638D02*
Y0400394D01*
Y0397638D02*
X0219724Y0396614D01*
X0219606Y0391614D02*
X0224606D01*
X0219646Y0396614D02*
X0219724D01*
X0224606D01*
X0218701Y0400394D02*
X0219921Y0401614D01*
X0224606D01*
X0205787Y0396614D02*
X0211772D01*
X0205787Y0401614D02*
X0211575D01*
X0209528Y0419685D02*
Y0424685D01*
X0213189Y0425591D02*
X0214528Y0424252D01*
X0210433Y0425591D02*
X0213189D01*
X0209528Y0424685D02*
X0210433Y0425591D01*
X0214528Y0424252D02*
Y0424567D01*
Y0419685D02*
Y0424252D01*
X0219528Y0419685D02*
Y0424370D01*
X0218307Y0425591D02*
X0219528Y0424370D01*
X0215551Y0425591D02*
X0218307D01*
X0214528Y0424567D02*
X0215551Y0425591D01*
X0204527Y0433858D02*
X0205709Y0432677D01*
X0208465D01*
X0209528Y0433740D01*
Y0434370D02*
X0211221Y0432677D01*
X0209528Y0433740D02*
Y0434370D01*
X0204527Y0433858D02*
Y0438504D01*
X0209528Y0434370D02*
Y0438504D01*
X0213583Y0432677D02*
X0214528Y0433622D01*
X0211221Y0432677D02*
X0213583D01*
X0214528Y0433622D02*
Y0433701D01*
Y0438504D01*
X0206102Y0447638D02*
X0206890Y0448425D01*
X0252953Y0426181D02*
X0252992Y0426221D01*
X0302362Y0438779D02*
X0303937Y0440354D01*
X0307480D01*
X0281850Y0431063D02*
Y0434291D01*
X0277953Y0427165D02*
X0281850Y0431063D01*
X0275394Y0427165D02*
X0277953D01*
X0274410Y0426181D02*
X0275394Y0427165D01*
X0285827Y0425984D02*
X0286850Y0424961D01*
X0283071Y0425984D02*
X0285827D01*
X0281850Y0424764D02*
X0283071Y0425984D01*
X0290158D02*
X0291850Y0424291D01*
X0287795Y0425984D02*
X0290158D01*
X0286850Y0425039D02*
X0287795Y0425984D01*
X0286850Y0424961D02*
Y0425039D01*
X0274370Y0426221D02*
X0274410Y0426181D01*
X0267795Y0426221D02*
X0274370D01*
X0280118Y0413189D02*
X0282283Y0411024D01*
X0274410Y0413189D02*
X0280118D01*
X0291850Y0424291D02*
Y0424921D01*
X0295669Y0425984D02*
X0296850Y0424803D01*
X0292913Y0425984D02*
X0295669D01*
X0291850Y0424921D02*
X0292913Y0425984D01*
X0291850Y0433976D02*
Y0438976D01*
X0290945Y0433071D02*
X0291850Y0433976D01*
X0288189Y0433071D02*
X0290945D01*
X0286850Y0434094D02*
Y0434409D01*
X0288189Y0433071D01*
X0286850Y0434409D02*
Y0438976D01*
X0285827Y0433071D02*
X0286850Y0434094D01*
X0283071Y0433071D02*
X0285827D01*
X0281850Y0434291D02*
X0283071Y0433071D01*
X0267323Y0442224D02*
X0268012Y0441535D01*
X0274016Y0460236D02*
Y0464961D01*
X0286378Y0462047D02*
X0286457D01*
X0286181Y0457047D02*
X0287402Y0458268D01*
Y0461024D01*
X0286378Y0462047D02*
X0287402Y0461024D01*
X0281496Y0462047D02*
X0286378D01*
X0286457D02*
X0287402Y0462992D01*
Y0466142D01*
X0286496Y0467047D02*
X0287402Y0466142D01*
X0281496Y0467047D02*
X0286496D01*
X0274016Y0472047D02*
X0281496D01*
X0294213Y0467047D02*
Y0467598D01*
Y0466653D02*
Y0467047D01*
X0293307Y0465748D02*
X0294213Y0466653D01*
X0293307Y0470866D02*
X0294488Y0472047D01*
X0293307Y0468504D02*
Y0470866D01*
Y0468504D02*
X0294213Y0467598D01*
X0293307Y0461024D02*
X0294331Y0462047D01*
X0293307Y0458268D02*
Y0461024D01*
Y0458268D02*
X0294528Y0457047D01*
X0477362Y0428346D02*
Y0435039D01*
X0477953Y0435630D01*
Y0441732D01*
X0470787Y0423307D02*
X0475039D01*
X0469291Y0424803D02*
X0470787Y0423307D01*
X0469291Y0424803D02*
Y0426772D01*
X0470827Y0428307D01*
X0475039D01*
X0289370Y0517323D02*
X0292913D01*
X0293701Y0516535D01*
X0288268Y0516221D02*
X0289370Y0517323D01*
X0288268Y0511654D02*
Y0516221D01*
X0277165Y0517717D02*
X0278268Y0516614D01*
X0274409Y0517717D02*
X0277165D01*
X0278268Y0511654D02*
Y0516614D01*
X0272126Y0517717D02*
X0273268Y0516575D01*
X0274409Y0517717D01*
X0266929Y0516536D02*
X0268110Y0517717D01*
X0273268Y0511654D02*
Y0516575D01*
X0337402Y0501575D02*
X0342126D01*
X0335236Y0499409D02*
X0337402Y0501575D01*
X0345669Y0512205D02*
X0346063Y0512598D01*
X0344882Y0516929D02*
X0345669Y0516142D01*
X0341339Y0516929D02*
X0344882D01*
X0340236Y0515827D02*
X0341339Y0516929D01*
X0320079Y0517323D02*
X0324095D01*
X0318898Y0516142D02*
X0320079Y0517323D01*
X0324095D02*
X0325236Y0516181D01*
Y0511260D02*
Y0516181D01*
X0326378Y0517323D01*
X0329134D02*
X0330236Y0516221D01*
Y0511260D02*
Y0516221D01*
X0452953Y0458071D02*
Y0463779D01*
X0434252Y0458071D02*
X0443307D01*
X0452953Y0470866D02*
X0453150Y0471063D01*
X0452953Y0463779D02*
X0456102D01*
X0317323Y0447441D02*
Y0452559D01*
X0307480Y0447441D02*
Y0452559D01*
X0317323Y0440354D02*
X0320669D01*
X0311024Y0410433D02*
X0314291Y0413701D01*
X0205787Y0386614D02*
X0211221D01*
X0205787Y0391614D02*
X0211496D01*
X0211772Y0396614D02*
X0212795Y0397638D01*
Y0400394D01*
X0211575Y0401614D02*
X0212795Y0400394D01*
X0211772Y0396614D02*
X0212795Y0395590D01*
X0243189Y0432441D02*
Y0436693D01*
X0244291Y0437795D01*
X0246654D01*
X0248000Y0436449D01*
X0206102Y0453150D02*
X0207677Y0454724D01*
X0228740Y0430709D02*
X0232709D01*
X0314291Y0413701D02*
X0319016D01*
X0311024Y0406102D02*
Y0410433D01*
X0340236Y0511260D02*
Y0515827D01*
X0318898Y0511024D02*
Y0516142D01*
X0296850Y0420157D02*
Y0424803D01*
X0291850Y0420157D02*
Y0424291D01*
X0281850Y0420157D02*
Y0424764D01*
X0296850Y0438976D02*
Y0445669D01*
X0342126Y0501575D02*
X0345669Y0505118D01*
X0335236Y0492441D02*
Y0499409D01*
X0294488Y0472047D02*
X0300315D01*
X0295039Y0462047D02*
X0300315D01*
X0294528Y0457047D02*
X0300315D01*
X0283268Y0492835D02*
Y0502268D01*
X0287005Y0506005D01*
X0293208D02*
X0293701Y0505512D01*
X0215350Y0347394D02*
X0221107D01*
X0221150Y0347350D01*
X0284516Y0278724D02*
X0284846Y0278394D01*
X0481516Y0306224D02*
X0481847Y0305894D01*
X0481516Y0306224D02*
Y0312228D01*
X0537508Y0345091D02*
Y0349736D01*
X0537394Y0349850D02*
X0537508Y0349736D01*
X0512354Y0300354D02*
X0513350D01*
X0527894Y0359850D02*
X0530350Y0362307D01*
X0492850Y0345807D02*
X0497350D01*
X0541134Y0367850D02*
X0541221Y0367937D01*
X0540850Y0367850D02*
X0541134D01*
X0540850D02*
Y0371307D01*
X0540350Y0371807D02*
X0540850Y0371307D01*
X0370894Y0235850D02*
X0375307D01*
X0375850Y0235307D01*
X0335394Y0237850D02*
Y0238350D01*
X0306894Y0203850D02*
X0308394Y0202350D01*
X0309642Y0208098D02*
Y0210291D01*
X0306894Y0205350D02*
X0309642Y0208098D01*
X0375984Y0465000D02*
Y0470866D01*
X0528909Y0446791D02*
X0534142D01*
X0529291Y0451791D02*
X0534142D01*
X0243850Y0489850D02*
X0249583D01*
X0249642Y0489791D01*
X0214004Y0471500D02*
X0215004Y0472500D01*
X0224366Y0489791D02*
X0230823D01*
X0223850Y0490307D02*
X0224366Y0489791D01*
X0223850Y0497394D02*
X0226606D01*
X0229209Y0494791D02*
X0230823D01*
X0343000Y0319543D02*
X0343957D01*
X0348646Y0314854D01*
X0517780Y0406500D02*
X0520457D01*
X0433268Y0409055D02*
X0436614D01*
X0431591Y0410732D02*
X0433268Y0409055D01*
X0224606Y0401614D02*
X0226114D01*
X0338000Y0323996D02*
X0338004Y0324000D01*
X0311350Y0202350D02*
X0312850Y0203850D01*
X0313350D01*
X0238256Y0229756D02*
X0241846D01*
X0228500Y0464500D02*
X0232543Y0460457D01*
X0233500D01*
X0219094Y0447638D02*
X0221232Y0445500D01*
X0219528Y0424370D02*
Y0428527D01*
X0221500Y0430500D01*
X0224988D01*
X0253307Y0458228D02*
X0253740Y0458661D01*
X0214764Y0453736D02*
Y0454724D01*
Y0453736D02*
X0219094Y0449405D01*
Y0447638D02*
Y0449405D01*
X0338000Y0319000D02*
Y0320996D01*
X0287005Y0506005D02*
X0293208D01*
X0369847Y0493847D02*
X0375528Y0499528D01*
X0377874D01*
X0520350Y0305654D02*
Y0305807D01*
X0526500Y0299504D02*
Y0302500D01*
X0525000Y0304000D02*
X0526500Y0302500D01*
X0527000Y0448701D02*
Y0449500D01*
Y0448701D02*
X0528909Y0446791D01*
X0527000Y0449500D02*
X0529291Y0451791D01*
X0232850Y0353350D02*
X0233307Y0352894D01*
X0230850Y0346850D02*
X0231850Y0345850D01*
X0251500Y0495201D02*
X0251850Y0494850D01*
X0251500Y0495201D02*
Y0498000D01*
X0323854Y0459646D02*
X0324350Y0459150D01*
X0323854Y0459646D02*
X0324847D01*
X0325590D01*
X0379000Y0263500D02*
X0380500D01*
X0383398Y0260602D01*
X0384642D01*
X0360000Y0330500D02*
X0362250Y0328250D01*
X0365000Y0313843D02*
Y0314843D01*
Y0313843D02*
X0366500Y0312343D01*
X0355496Y0304500D02*
X0359957D01*
X0358500Y0312457D02*
X0358614Y0312343D01*
X0358000Y0312957D02*
X0358500Y0312457D01*
X0351500Y0497000D02*
X0353457D01*
X0279528Y0443972D02*
X0281850Y0441650D01*
X0279528Y0443972D02*
Y0451575D01*
X0426256Y0511500D02*
X0427106Y0512350D01*
X0413500Y0511043D02*
X0413957Y0511500D01*
X0344000Y0465000D02*
X0345957D01*
X0304500Y0487043D02*
X0310764Y0493307D01*
X0320472D01*
X0304500Y0478500D02*
Y0479957D01*
Y0478500D02*
X0307850Y0475150D01*
Y0473937D02*
Y0475150D01*
X0413854Y0458600D02*
Y0462850D01*
X0408643Y0460800D02*
X0409600D01*
X0408909Y0453142D02*
Y0454009D01*
X0411790Y0456890D01*
X0413854D01*
Y0462850D02*
Y0470350D01*
X0414404Y0463400D02*
X0417100D01*
X0413854Y0462850D02*
X0414404Y0463400D01*
X0383000Y0434700D02*
X0384300Y0436000D01*
Y0436757D01*
X0383700Y0437357D02*
X0384300Y0436757D01*
X0324847Y0459646D02*
X0328201Y0463000D01*
X0304331Y0430831D02*
X0306307Y0432807D01*
X0304331Y0429331D02*
Y0430831D01*
X0350496Y0331543D02*
X0351539Y0330500D01*
X0360000D01*
X0348646Y0314854D02*
X0353558D01*
X0507850Y0303307D02*
X0509557Y0301600D01*
X0513800D01*
X0512354Y0299254D02*
Y0300354D01*
X0510500Y0296000D02*
Y0297400D01*
X0512354Y0299254D01*
X0381000Y0486323D02*
X0382480Y0484842D01*
X0335394Y0237850D02*
X0335500Y0237744D01*
Y0233700D02*
Y0237744D01*
X0520350Y0305654D02*
X0526500Y0299504D01*
X0486500Y0232043D02*
Y0233500D01*
Y0232043D02*
X0491000Y0227543D01*
X0353996Y0303000D02*
X0355496Y0304500D01*
X0358614Y0312343D02*
X0366500D01*
X0370740Y0322657D02*
Y0328803D01*
X0281850Y0321807D02*
X0286850D01*
X0231850Y0340894D02*
Y0345850D01*
X0233307Y0352894D02*
X0236850D01*
X0206102Y0447638D02*
Y0453150D01*
X0226606Y0497394D02*
X0229209Y0494791D01*
X0293000Y0392630D02*
X0293898Y0391732D01*
X0293000Y0392630D02*
Y0407000D01*
X0350787Y0505512D02*
X0351181Y0505118D01*
X0538350Y0325307D02*
X0540567Y0323091D01*
X0541079Y0368079D02*
X0541221Y0367937D01*
X0438976Y0434842D02*
X0439764Y0434055D01*
X0433858Y0439173D02*
X0438976D01*
X0380394Y0489350D02*
X0381000Y0488744D01*
X0413957Y0511500D02*
X0426256D01*
D65*
X0419146Y0430854D02*
X0421850D01*
X0396370Y0412331D02*
X0397850Y0410850D01*
X0395850D02*
X0396370Y0411370D01*
X0225504Y0450500D02*
X0232500D01*
X0267795Y0399724D02*
Y0407402D01*
X0510303Y0312846D02*
X0526350D01*
X0341291Y0228913D02*
Y0238059D01*
X0403606Y0499606D02*
X0407000Y0503000D01*
X0222000Y0470500D02*
X0225996D01*
X0464370Y0415945D02*
Y0435039D01*
X0426847Y0470350D02*
Y0479347D01*
X0414850Y0433807D02*
X0416193D01*
X0508850Y0435850D02*
X0509791Y0436791D01*
X0515323D01*
X0494095Y0488583D02*
X0513118D01*
X0486221D02*
X0494095D01*
X0515433Y0471535D02*
Y0481614D01*
X0333394Y0429850D02*
Y0433850D01*
X0385370Y0412331D02*
Y0417220D01*
X0494134Y0495630D02*
X0500433D01*
X0487402Y0500394D02*
X0494095D01*
X0486221Y0501575D02*
X0487402Y0500394D01*
X0456900Y0307000D02*
X0457504D01*
X0454900Y0309000D02*
X0456900Y0307000D01*
X0453500Y0309000D02*
X0454900D01*
X0529528Y0500000D02*
X0537402D01*
X0281693Y0398819D02*
X0285807D01*
X0280906Y0391732D02*
Y0399606D01*
X0406014Y0295986D02*
X0408000D01*
X0490000Y0440043D02*
X0491047D01*
X0494354Y0443350D01*
X0414850Y0440894D02*
X0415894D01*
X0418847Y0443847D01*
X0416193Y0433807D02*
X0419146Y0430854D01*
X0515433Y0500433D02*
Y0507795D01*
X0320866Y0503346D02*
Y0505905D01*
X0317126Y0499606D02*
X0320866Y0503346D01*
X0377500Y0314500D02*
X0381457D01*
X0219346Y0289846D02*
Y0290850D01*
X0328346Y0399213D02*
Y0400197D01*
X0334252Y0406102D01*
X0280906Y0399606D02*
X0281693Y0398819D01*
X0302165Y0409055D02*
X0304331Y0411221D01*
X0288850Y0289063D02*
Y0293350D01*
X0416758Y0521758D02*
Y0523656D01*
X0408909Y0434323D02*
X0409425Y0433807D01*
X0414850D01*
X0337835Y0418701D02*
X0344488D01*
X0333394Y0433850D02*
Y0438350D01*
X0259541Y0239947D02*
X0266450D01*
X0293350Y0289894D02*
Y0293350D01*
Y0289894D02*
X0293850Y0289394D01*
X0332244Y0428701D02*
X0333394Y0429850D01*
X0206354Y0290850D02*
Y0297854D01*
X0208902Y0300402D01*
Y0301850D01*
X0267795Y0399724D02*
X0267913Y0399606D01*
X0456220Y0413307D02*
X0461732D01*
X0306693Y0502165D02*
Y0505905D01*
X0304134Y0499606D02*
X0306693Y0502165D01*
X0296850Y0499016D02*
X0297441Y0499606D01*
X0399850Y0410850D02*
X0400850D01*
X0397850D02*
X0399850D01*
X0485236Y0460630D02*
X0486614D01*
X0515433Y0500433D02*
X0515866Y0500000D01*
X0497638Y0507480D02*
X0499016Y0508858D01*
X0494095Y0507480D02*
X0497638D01*
X0500433Y0495630D02*
Y0500433D01*
X0494095Y0495669D02*
X0494134Y0495630D01*
X0494095Y0495669D02*
Y0500394D01*
X0505433Y0495590D02*
Y0500433D01*
X0503937Y0494095D02*
X0505433Y0495590D01*
X0501968Y0494095D02*
X0503937D01*
X0500433Y0495630D02*
X0501968Y0494095D01*
X0496010Y0467520D02*
X0496994Y0468504D01*
X0500984Y0470472D02*
X0501378D01*
X0380370Y0412370D02*
Y0417220D01*
X0411370Y0412370D02*
Y0417220D01*
X0409850Y0410850D02*
X0411370Y0412370D01*
X0407890Y0410850D02*
X0409850D01*
X0406370Y0412370D02*
X0407890Y0410850D01*
X0406370Y0412370D02*
Y0417220D01*
X0401370Y0411370D02*
Y0412331D01*
X0404850Y0410850D02*
X0406370Y0412370D01*
X0402850Y0410850D02*
X0404850D01*
X0401370Y0412331D02*
X0402850Y0410850D01*
X0401370Y0412331D02*
Y0417220D01*
X0396370Y0411370D02*
Y0412331D01*
X0400850Y0410850D02*
X0401370Y0411370D01*
X0390370Y0412370D02*
Y0417220D01*
X0385370Y0411370D02*
Y0412331D01*
X0388850Y0410850D02*
X0390370Y0412370D01*
X0386850Y0410850D02*
X0388850D01*
X0385370Y0412331D02*
X0386850Y0410850D01*
X0384850D02*
X0385370Y0411370D01*
X0381850Y0410850D02*
X0384850D01*
X0380370Y0412331D02*
X0381850Y0410850D01*
X0380370Y0412331D02*
Y0412370D01*
X0378850Y0410850D02*
X0380370Y0412370D01*
X0375370Y0412331D02*
Y0417220D01*
X0390370Y0403331D02*
Y0403370D01*
X0399890Y0404850D02*
X0401370Y0403370D01*
X0406370Y0403331D02*
Y0403370D01*
Y0398401D02*
Y0403331D01*
X0411370Y0398401D02*
Y0403331D01*
X0409850Y0404850D02*
X0411370Y0403331D01*
X0407850Y0404850D02*
X0409850D01*
X0406370Y0403370D02*
X0407850Y0404850D01*
X0404850D02*
X0406370Y0403331D01*
X0402850Y0404850D02*
X0404850D01*
X0401370Y0403370D02*
X0402850Y0404850D01*
X0401370Y0398401D02*
Y0403370D01*
X0385370Y0403331D02*
Y0403370D01*
Y0398401D02*
Y0403331D01*
X0390370Y0398401D02*
Y0403331D01*
X0388850Y0404850D02*
X0390370Y0403331D01*
X0386850Y0404850D02*
X0388850D01*
X0385370Y0403370D02*
X0386850Y0404850D01*
X0383850D02*
X0385370Y0403331D01*
X0381850Y0404850D02*
X0383850D01*
X0380370Y0398401D02*
Y0403370D01*
X0477362Y0469291D02*
Y0474016D01*
X0472244Y0484055D02*
X0472441Y0483858D01*
X0466575Y0484055D02*
X0472244D01*
X0331693Y0428150D02*
X0332244Y0428701D01*
X0331693Y0425157D02*
Y0428150D01*
Y0425157D02*
X0333150Y0423701D01*
X0329724Y0411417D02*
X0334252Y0406890D01*
X0329724Y0420276D02*
X0333150Y0423701D01*
X0329724Y0411417D02*
Y0420276D01*
X0321654Y0446260D02*
X0321850Y0446457D01*
X0499016Y0508858D02*
X0502953D01*
X0500787Y0461614D02*
X0504331D01*
X0376850Y0410850D02*
X0378850D01*
X0375370Y0412331D02*
X0376850Y0410850D01*
X0332244Y0428701D02*
X0337835D01*
X0333150Y0423701D02*
X0337835D01*
X0334252Y0406102D02*
Y0406890D01*
X0302165Y0406102D02*
Y0409055D01*
X0297441Y0499606D02*
X0304134D01*
X0288846Y0289059D02*
X0288850Y0289063D01*
X0485850Y0316563D02*
Y0320850D01*
X0507850Y0310394D02*
X0510303Y0312846D01*
X0351291Y0238059D02*
X0356291D01*
X0361850Y0241307D02*
X0368303D01*
X0357559Y0238059D02*
X0360807Y0241307D01*
X0368303D02*
X0368850Y0241854D01*
X0360807Y0241307D02*
X0361850D01*
X0356291Y0238059D02*
X0357559D01*
X0366850Y0480854D02*
X0368347Y0479358D01*
X0426847Y0462850D02*
Y0470350D01*
Y0479347D02*
X0428854Y0481354D01*
Y0484850D01*
X0515433Y0481614D02*
Y0486268D01*
X0513118Y0488583D02*
X0515433Y0486268D01*
X0494095Y0481890D02*
X0500157D01*
X0515866Y0500000D02*
X0529528D01*
X0507346Y0438362D02*
Y0443350D01*
X0494354D02*
Y0453842D01*
X0494347Y0453850D02*
X0494354Y0453842D01*
X0500787Y0461614D02*
X0500787Y0461614D01*
X0368850Y0241854D02*
X0369390Y0242394D01*
X0375850D01*
X0301500Y0366000D02*
X0302000Y0365500D01*
X0301000D02*
X0301500Y0366000D01*
X0296000Y0365500D02*
X0301000D01*
X0507346Y0438362D02*
X0508850Y0436858D01*
Y0435850D02*
Y0436858D01*
X0396370Y0412331D02*
Y0417220D01*
X0390370Y0412331D02*
Y0412370D01*
X0393850Y0410850D02*
X0395850D01*
X0391850D02*
X0393850D01*
X0390370Y0412331D02*
X0391850Y0410850D01*
X0399000Y0404850D02*
X0399890D01*
X0390370Y0403370D02*
X0391850Y0404850D01*
X0397000D01*
X0399000D01*
X0380370Y0403370D02*
X0381110Y0404110D01*
X0381850Y0404850D01*
X0218595Y0285500D02*
Y0289094D01*
X0219346Y0289846D01*
X0352000Y0322000D02*
Y0322496D01*
X0409000Y0514000D02*
X0416758Y0521758D01*
X0314000Y0317543D02*
Y0320500D01*
X0366004Y0265500D02*
X0367504Y0264000D01*
X0370000D01*
X0233500Y0467543D02*
Y0471000D01*
X0490350Y0316850D02*
Y0320850D01*
X0485847Y0316559D02*
X0485850Y0316563D01*
X0423000Y0369000D02*
X0423457D01*
X0397402Y0499606D02*
X0403606D01*
X0409000Y0503807D02*
Y0514000D01*
X0407000Y0503000D02*
X0408500D01*
X0409307Y0503807D01*
X0461732Y0413307D02*
X0464370Y0415945D01*
Y0435039D02*
Y0435236D01*
X0470866Y0441732D01*
Y0453866D01*
X0474500Y0457500D01*
X0411850Y0478350D02*
Y0480350D01*
X0416847Y0485347D01*
Y0487350D01*
X0421000Y0367000D02*
X0423000Y0369000D01*
X0502953Y0508858D02*
X0507283D01*
X0418847Y0443847D02*
X0421850D01*
X0422850Y0443850D02*
Y0448807D01*
X0428400Y0486100D02*
X0429200Y0486900D01*
Y0493000D01*
X0432500Y0496300D02*
X0437889D01*
X0438489Y0495700D01*
X0429200Y0493000D02*
X0432500Y0496300D01*
X0277500Y0322000D02*
X0281658D01*
X0352000D02*
X0355472Y0318528D01*
X0331850Y0255256D02*
X0341291D01*
X0368347Y0472350D02*
Y0479358D01*
X0487700Y0215857D02*
Y0216700D01*
X0491000Y0220000D01*
Y0220457D01*
X0493701Y0460630D02*
X0495300Y0462229D01*
Y0466810D01*
X0496010Y0467520D01*
X0496994Y0468504D02*
X0501968D01*
X0483600Y0462266D02*
X0485236Y0460630D01*
X0483600Y0462266D02*
Y0466938D01*
X0483018Y0467520D02*
X0483600Y0466938D01*
X0293750Y0362293D02*
Y0363250D01*
X0296000Y0365500D01*
X0302000D02*
X0311500D01*
X0233850Y0474850D02*
X0237807D01*
X0479134Y0469488D02*
X0483018D01*
D66*
X0243189Y0451260D02*
Y0458457D01*
X0248189Y0451260D02*
Y0458228D01*
X0350500Y0344957D02*
X0351957D01*
X0249016Y0405118D02*
X0253000D01*
X0249016Y0401181D02*
X0249803Y0400394D01*
X0249016Y0401181D02*
Y0405118D01*
X0400350Y0428350D02*
X0405850D01*
X0221500Y0454457D02*
X0221547D01*
X0271000Y0396000D02*
X0275500D01*
X0317957Y0379000D02*
X0318457Y0379500D01*
X0245894Y0303350D02*
X0249150D01*
X0471000Y0461543D02*
Y0465500D01*
X0260764Y0292807D02*
X0265350Y0297394D01*
X0252953Y0387402D02*
X0257850D01*
X0353850Y0392394D02*
X0359350D01*
X0416500Y0411894D02*
Y0415500D01*
X0417850Y0416850D01*
X0514850Y0381850D02*
X0518354Y0378346D01*
X0514850Y0384307D02*
X0515850Y0385307D01*
X0516547Y0384610D01*
X0521547Y0345091D02*
X0527193D01*
X0516153Y0392091D02*
X0522193D01*
X0532764Y0388094D02*
X0537394D01*
X0524394Y0397350D02*
X0527850D01*
X0471850Y0341350D02*
X0476850D01*
X0482264Y0340850D02*
X0487850D01*
X0544000Y0499043D02*
X0545400Y0500443D01*
X0470307Y0351493D02*
Y0353394D01*
X0359350Y0385307D02*
X0365193D01*
X0379265Y0383769D02*
X0384347Y0388850D01*
X0413039Y0405000D02*
X0416589D01*
X0477394Y0348980D02*
Y0353394D01*
X0480000Y0379043D02*
X0484410D01*
X0485110Y0378693D02*
Y0382110D01*
X0469807Y0336394D02*
Y0339307D01*
X0391406Y0260602D02*
X0395602D01*
X0410303Y0237303D02*
Y0241705D01*
X0413453Y0234504D02*
Y0241705D01*
X0409957Y0291000D02*
Y0292000D01*
X0339350Y0457350D02*
X0356008D01*
X0313394Y0432606D02*
X0317299Y0428701D01*
X0319000Y0467957D02*
X0319500Y0468457D01*
X0434043Y0507500D02*
Y0508500D01*
X0357350Y0411350D02*
X0357394D01*
X0354894Y0461350D02*
Y0465850D01*
X0382996Y0389000D02*
X0383496Y0389500D01*
X0403957Y0333000D02*
Y0352500D01*
X0504406Y0323394D02*
X0505350D01*
X0508909Y0451791D02*
X0515323D01*
X0256972Y0375528D02*
X0257693Y0374807D01*
X0264721D01*
X0354500Y0382000D02*
Y0383658D01*
X0383900Y0455000D02*
X0387550Y0451350D01*
X0384850D02*
X0387550D01*
X0266543Y0489500D02*
X0273268D01*
X0506850Y0466575D02*
X0511614Y0461811D01*
X0440300Y0318943D02*
X0444100D01*
X0440760Y0328740D02*
X0440857Y0328643D01*
Y0325300D02*
Y0328643D01*
X0481037Y0355937D02*
X0481850D01*
X0477394Y0353394D02*
X0478494D01*
X0485128Y0371872D02*
X0489811Y0367189D01*
X0471850Y0348437D02*
Y0349950D01*
X0470307Y0351493D02*
X0471850Y0349950D01*
X0452400Y0354000D02*
X0456396Y0357996D01*
X0457500D01*
X0537402Y0484252D02*
X0543709D01*
X0537402Y0492126D02*
X0543831D01*
X0413453Y0246957D02*
X0413500Y0247004D01*
X0413453Y0241705D02*
Y0246957D01*
X0459500Y0238043D02*
Y0239700D01*
X0458118Y0241082D02*
X0459500Y0239700D01*
X0458118Y0241082D02*
Y0243500D01*
X0455600Y0247000D02*
X0458000Y0244600D01*
X0510350Y0383457D02*
X0511500Y0382307D01*
X0284437Y0382394D02*
X0289850D01*
X0261500Y0435457D02*
X0265043D01*
X0392043Y0384500D02*
X0404354D01*
X0370354Y0388850D02*
Y0395307D01*
X0364850Y0392394D02*
Y0396850D01*
X0348610Y0398610D02*
X0349878D01*
X0310350Y0321307D02*
X0315350D01*
X0308543Y0308978D02*
X0313000D01*
X0396870Y0390874D02*
Y0398401D01*
X0424110Y0401669D02*
Y0405350D01*
X0333850Y0468394D02*
X0337728D01*
X0234842Y0423516D02*
X0241142D01*
X0232087Y0395043D02*
X0238342D01*
X0238386Y0390500D02*
Y0395000D01*
X0247342Y0394488D02*
X0252953D01*
X0280181Y0392457D02*
X0280906Y0391732D01*
X0235457Y0381000D02*
Y0381957D01*
X0223000Y0365000D02*
X0225850Y0367850D01*
X0219158Y0365000D02*
X0223000D01*
X0217850Y0366307D02*
X0219158Y0365000D01*
X0236850Y0340894D02*
Y0345807D01*
X0230807Y0333807D02*
X0236850D01*
X0284850Y0312937D02*
X0285264Y0313350D01*
X0255350Y0296807D02*
X0259850Y0292307D01*
X0265350Y0291307D02*
X0267764D01*
X0531347Y0377350D02*
Y0379153D01*
X0515850Y0392394D02*
X0516153Y0392091D01*
X0227000Y0415500D02*
Y0424165D01*
X0288976Y0446457D02*
Y0448024D01*
X0274500Y0437500D02*
Y0442500D01*
X0304894Y0259807D02*
Y0264350D01*
X0404043Y0368000D02*
X0412000D01*
X0415398Y0323500D02*
X0418543D01*
X0430543Y0365957D02*
Y0369000D01*
X0435760Y0369559D02*
X0443240D01*
X0275500Y0388913D02*
X0276087Y0389500D01*
X0280500D01*
X0270500Y0396500D02*
X0271000Y0396000D01*
X0267913Y0399606D02*
X0267976Y0399543D01*
X0311024Y0387067D02*
Y0393110D01*
X0310957Y0387000D02*
X0311024Y0387067D01*
X0351957Y0344957D02*
X0355000Y0348000D01*
X0376043Y0367500D02*
X0380043D01*
X0375543Y0368000D02*
X0376043Y0367500D01*
X0331890Y0475000D02*
X0332390Y0474500D01*
X0500787Y0457677D02*
X0505480D01*
X0425406Y0416339D02*
X0430709D01*
X0439919Y0261021D02*
X0444435D01*
X0439500Y0260602D02*
X0439919Y0261021D01*
X0319000Y0481457D02*
X0319000D01*
X0320772Y0483228D01*
X0322228D01*
X0323500Y0484500D01*
X0319000Y0475543D02*
Y0481457D01*
Y0464000D02*
Y0467957D01*
X0350312Y0244688D02*
X0355688D01*
X0341291Y0253709D02*
X0350312Y0244688D01*
X0341291Y0253709D02*
Y0255256D01*
X0378350Y0431894D02*
X0378500Y0431744D01*
Y0431630D02*
Y0431744D01*
X0378307Y0431437D02*
X0378350Y0431394D01*
X0227000Y0424165D02*
X0227500Y0424665D01*
X0244760Y0386760D02*
X0246472D01*
X0243500Y0385500D02*
X0244760Y0386760D01*
X0242000Y0385500D02*
X0243500D01*
X0264990Y0381981D02*
X0267981D01*
X0237000Y0383500D02*
Y0385500D01*
X0235457Y0381957D02*
X0237000Y0383500D01*
X0228350Y0375894D02*
X0228716Y0375528D01*
X0267981Y0381981D02*
X0270350Y0384350D01*
X0277307D01*
X0269350Y0378394D02*
X0271850D01*
X0267350Y0376394D02*
X0269350Y0378394D01*
X0232866Y0414559D02*
X0234842Y0416535D01*
X0232866Y0411850D02*
Y0414559D01*
X0240043Y0410543D02*
Y0411500D01*
X0240748D02*
X0241043D01*
X0240043D02*
X0240748D01*
X0241614Y0405000D02*
X0241732Y0405118D01*
X0262500Y0426516D02*
X0262795Y0426221D01*
X0267520Y0455043D02*
Y0459768D01*
X0266445Y0434055D02*
X0268012D01*
X0265043Y0435457D02*
X0266445Y0434055D01*
X0286614Y0450386D02*
Y0451575D01*
Y0450114D02*
Y0450386D01*
X0300394Y0343350D02*
X0303894Y0346850D01*
X0321654Y0439370D02*
X0325287D01*
X0317299Y0428701D02*
X0319016D01*
X0313394Y0432606D02*
Y0433850D01*
X0471000Y0461543D02*
X0471043Y0461500D01*
X0365500Y0514713D02*
Y0517000D01*
X0364567Y0513779D02*
X0365500Y0514713D01*
X0387350Y0452354D02*
Y0453350D01*
X0389500Y0453000D02*
Y0457500D01*
X0392429Y0460429D01*
X0229500Y0411500D02*
X0232516D01*
X0266500Y0489543D02*
X0266543Y0489500D01*
X0250590Y0445276D02*
X0254528Y0449213D01*
X0241224Y0445276D02*
X0250590D01*
X0503000Y0287500D02*
X0510957D01*
X0511307Y0287850D01*
X0335236Y0511260D02*
Y0516736D01*
X0283500Y0511886D02*
Y0517500D01*
X0283268Y0511654D02*
X0283500Y0511886D01*
X0422543Y0343043D02*
X0423500D01*
X0417761Y0338261D02*
X0422543Y0343043D01*
X0430543Y0365000D02*
Y0365957D01*
Y0365000D02*
Y0365000D01*
X0432059Y0364441D02*
X0435760D01*
X0430543Y0365957D02*
X0432059Y0364441D01*
X0430522Y0365022D02*
X0430543Y0365000D01*
X0432957Y0353457D02*
X0433000Y0353500D01*
X0429000Y0353457D02*
X0432957D01*
X0430543Y0369000D02*
Y0370000D01*
X0385457Y0306500D02*
X0385724Y0306232D01*
X0385457Y0306500D02*
Y0307000D01*
X0293709Y0215291D02*
X0299807Y0209193D01*
X0290823Y0215291D02*
X0293709D01*
X0297394Y0223894D02*
Y0229850D01*
X0293791Y0220291D02*
X0297394Y0223894D01*
X0290823Y0220291D02*
X0293791D01*
X0299807Y0205350D02*
Y0209193D01*
X0310500Y0265574D02*
X0310926D01*
X0308350Y0267724D02*
X0310500Y0265574D01*
X0310926D02*
X0313000Y0263500D01*
X0401500Y0314000D02*
X0401657Y0313843D01*
X0407260D01*
X0219500Y0316000D02*
X0223457D01*
X0277110Y0359154D02*
Y0364193D01*
X0266307Y0376394D02*
X0267350D01*
X0262350Y0396350D02*
Y0400307D01*
X0284394Y0379850D02*
X0284591Y0379654D01*
X0252795Y0407402D02*
X0252992D01*
X0271850Y0366894D02*
Y0371307D01*
X0272807Y0370350D01*
X0277110Y0372610D02*
Y0374508D01*
X0338043Y0379500D02*
Y0379543D01*
X0318457Y0379500D02*
X0318807Y0379850D01*
X0317957Y0380000D02*
X0318457Y0379500D01*
X0315350Y0331807D02*
X0316394Y0332850D01*
X0353850Y0385307D02*
X0354000Y0385157D01*
X0346807Y0385807D02*
X0353394Y0392394D01*
X0299091Y0251350D02*
X0304307D01*
X0300644Y0309313D02*
Y0313100D01*
Y0309313D02*
X0301457Y0308500D01*
X0284850Y0301850D02*
Y0305350D01*
X0282350Y0299350D02*
X0284850Y0301850D01*
X0282350Y0292894D02*
Y0299350D01*
X0423500Y0343043D02*
X0428500D01*
X0262350Y0400307D02*
X0262394Y0400350D01*
X0262193Y0355090D02*
X0267350Y0360248D01*
X0230957Y0307500D02*
Y0308000D01*
Y0304457D02*
Y0307500D01*
X0228590Y0302091D02*
X0230957Y0304457D01*
X0245795Y0375528D02*
X0256972D01*
X0264721Y0374807D02*
X0266307Y0376394D01*
X0238889Y0374111D02*
X0242590Y0370409D01*
X0234500Y0374111D02*
X0238889D01*
X0218457Y0382000D02*
X0223043Y0377413D01*
Y0377000D02*
Y0377413D01*
X0223000Y0376957D02*
X0223043Y0377000D01*
X0223000Y0372543D02*
Y0376957D01*
X0215957Y0377000D02*
X0218000Y0374957D01*
Y0372543D02*
Y0374957D01*
X0206350Y0357350D02*
X0210350Y0361350D01*
X0206350Y0341350D02*
Y0357350D01*
X0211500Y0357658D02*
Y0361350D01*
Y0357658D02*
X0212307Y0356850D01*
X0225590Y0370409D02*
X0229850D01*
X0223350Y0372650D02*
X0225590Y0370409D01*
X0225850Y0367850D02*
X0229850D01*
X0218500Y0362244D02*
Y0364500D01*
X0242590Y0370409D02*
X0245795D01*
X0238342Y0395043D02*
X0238386Y0395000D01*
X0285500Y0343543D02*
Y0353000D01*
X0241807Y0333894D02*
X0243350Y0332350D01*
X0275850Y0370350D02*
X0276850Y0369350D01*
X0275350Y0370850D02*
X0275850Y0370350D01*
X0275350Y0370850D02*
X0277110Y0372610D01*
X0228590Y0298665D02*
Y0302091D01*
X0395602Y0260602D02*
X0397000Y0262000D01*
X0413453Y0234504D02*
X0413457Y0234500D01*
X0430543Y0370000D02*
X0430984Y0369559D01*
X0435760D01*
X0505091Y0393508D02*
Y0394091D01*
X0280350Y0307850D02*
X0282350D01*
X0284394Y0379850D02*
Y0382350D01*
X0284591Y0374508D02*
Y0379654D01*
X0280850Y0374508D02*
Y0376850D01*
X0265807Y0297850D02*
X0268850D01*
X0270307Y0299146D02*
X0275953Y0304791D01*
X0272807Y0370350D02*
X0275850D01*
X0284591Y0364193D02*
Y0368110D01*
X0393909Y0432409D02*
Y0434323D01*
X0392350Y0430850D02*
X0393909Y0432409D01*
X0379394Y0430850D02*
X0392350D01*
X0359350Y0425350D02*
Y0427461D01*
X0355090Y0406090D02*
X0357350Y0408350D01*
X0349878Y0406090D02*
X0355090D01*
X0370850Y0422850D02*
X0372807Y0424807D01*
X0358347Y0492350D02*
Y0494803D01*
X0362394Y0498850D01*
X0420350Y0383350D02*
X0422437Y0385437D01*
Y0390957D01*
X0398909Y0434323D02*
Y0438791D01*
X0397894Y0439807D02*
X0398909Y0438791D01*
X0388850Y0439807D02*
X0397894D01*
X0408909Y0431409D02*
Y0434323D01*
X0405850Y0428350D02*
X0408909Y0431409D01*
X0431591Y0401669D02*
Y0410732D01*
X0427457Y0390957D02*
X0427850Y0391350D01*
X0422437Y0390957D02*
X0427457D01*
X0360894Y0404394D02*
X0364850D01*
X0358850Y0402350D02*
X0360894Y0404394D01*
X0357850Y0402350D02*
X0358850D01*
X0370350Y0402394D02*
X0373307D01*
X0375370Y0400331D01*
X0364850Y0397307D02*
X0368350D01*
X0370350Y0395307D01*
Y0395807D01*
X0282350Y0307850D02*
X0284850Y0305350D01*
X0413453Y0285799D02*
X0413500Y0285846D01*
X0308350Y0267724D02*
Y0270807D01*
X0304307Y0251350D02*
X0304350Y0251394D01*
X0309945Y0252350D02*
Y0254756D01*
X0277850Y0379850D02*
X0280850Y0376850D01*
X0269850Y0298850D02*
X0270307D01*
X0268850Y0297850D02*
X0269850Y0298850D01*
X0272807Y0307937D02*
X0275953Y0304791D01*
X0260350Y0292807D02*
X0260764D01*
X0265350Y0297394D02*
X0265807Y0297850D01*
X0267764Y0291307D02*
X0270307Y0293850D01*
X0276850Y0369350D02*
X0283350D01*
X0220291Y0335110D02*
Y0339323D01*
X0221264Y0338350D02*
X0224350D01*
X0225409Y0337291D01*
X0219394Y0352350D02*
X0219437Y0352307D01*
X0270307Y0298850D02*
Y0299146D01*
X0272807Y0307937D02*
Y0308894D01*
X0284394Y0382350D02*
X0284437Y0382394D01*
X0310457Y0418701D02*
X0319016D01*
X0257850Y0394394D02*
X0260394D01*
X0375370Y0398401D02*
Y0400331D01*
X0215350Y0340307D02*
X0219307D01*
X0220291Y0339323D01*
Y0341291D02*
Y0342590D01*
X0225409Y0335110D02*
Y0337291D01*
X0220291Y0339323D02*
X0221264Y0338350D01*
X0219307Y0340307D02*
X0220291Y0341291D01*
X0214850Y0331894D02*
Y0332850D01*
X0217110Y0335110D01*
X0220291D01*
X0245709Y0370495D02*
X0245795Y0370409D01*
X0219850Y0330850D02*
X0227850D01*
X0230807Y0333807D01*
X0219350Y0352394D02*
X0219394Y0352350D01*
X0212307D02*
Y0356850D01*
X0219437Y0352307D02*
X0224350D01*
X0229850Y0372969D02*
X0233357D01*
X0234500Y0374111D01*
X0246850Y0356350D02*
Y0356850D01*
X0244850Y0358350D02*
X0246850Y0356350D01*
X0238850Y0358350D02*
X0244850D01*
X0241807Y0333894D02*
Y0337350D01*
X0277307Y0379850D02*
X0277850D01*
X0283350Y0369350D02*
X0284591Y0368110D01*
X0470807Y0327394D02*
Y0330146D01*
X0472953Y0332291D01*
X0470953D02*
X0472953D01*
X0481850Y0340437D02*
X0482264Y0340850D01*
X0476894Y0336394D02*
X0478807D01*
X0479350Y0320394D02*
X0481850Y0322894D01*
X0478807Y0336394D02*
X0481850Y0333350D01*
Y0322894D02*
Y0333350D01*
X0469807Y0339307D02*
X0471850Y0341350D01*
X0476850Y0348437D02*
X0477394Y0348980D01*
X0521350Y0344894D02*
X0521547Y0345091D01*
X0521547Y0337610D02*
X0527193D01*
X0521350Y0337807D02*
X0521547Y0337610D01*
X0519354Y0335811D02*
X0521350Y0337807D01*
X0534390Y0332394D02*
X0538350D01*
X0527193Y0341350D02*
X0530350D01*
X0531350Y0342350D01*
X0530610Y0345091D02*
X0531350Y0344350D01*
Y0342350D02*
Y0344350D01*
X0516547Y0384610D02*
X0522193D01*
Y0388350D02*
X0525350D01*
X0514850Y0381850D02*
Y0384307D01*
X0476850Y0341350D02*
X0480937D01*
X0481850Y0340437D01*
X0518354Y0377350D02*
Y0378346D01*
X0485110Y0382110D02*
X0486850Y0383850D01*
X0509323Y0354421D02*
Y0359512D01*
X0530350Y0341350D02*
X0531350Y0340350D01*
Y0333850D02*
Y0340350D01*
Y0333850D02*
X0533598Y0331602D01*
X0534390Y0332394D01*
X0486850Y0383850D02*
X0487350D01*
X0501350Y0379894D02*
Y0383193D01*
X0497610Y0378153D02*
Y0383193D01*
X0487350Y0383850D02*
X0496953D01*
X0509323Y0354421D02*
X0513894Y0349850D01*
X0496953Y0383850D02*
X0497610Y0383193D01*
X0489811Y0367189D02*
X0493378D01*
X0527193Y0345091D02*
X0530610D01*
X0525350Y0388350D02*
X0526350Y0389350D01*
X0537508Y0341350D02*
X0542850D01*
X0542850Y0341350D01*
X0523350Y0364807D02*
X0527894Y0360264D01*
Y0359850D02*
Y0360264D01*
X0533850Y0366850D02*
X0535394Y0368394D01*
Y0371350D01*
X0360807Y0247350D02*
X0361850Y0248394D01*
X0341291Y0255256D02*
Y0256878D01*
X0328307Y0237850D02*
Y0242350D01*
X0355688Y0244688D02*
X0358350Y0247350D01*
X0360807D01*
X0371850Y0441894D02*
Y0450870D01*
X0356008Y0448323D02*
Y0453610D01*
X0356008Y0457350D02*
X0356008Y0457350D01*
X0387193Y0473051D02*
Y0475110D01*
Y0473051D02*
X0389894Y0470350D01*
X0382807Y0469890D02*
Y0470350D01*
X0394850Y0470272D02*
X0397508Y0472929D01*
Y0475110D01*
X0394850Y0470272D02*
X0398268Y0466854D01*
X0397508Y0482590D02*
Y0487236D01*
X0397394Y0487350D02*
X0397508Y0487236D01*
X0389850Y0486894D02*
X0390307Y0487350D01*
X0389850Y0484350D02*
Y0486894D01*
X0388090Y0482590D02*
X0389850Y0484350D01*
X0387193Y0482590D02*
X0388090D01*
X0392429Y0460429D02*
X0394850D01*
X0403909Y0453142D02*
Y0458248D01*
X0337728Y0468394D02*
X0339350Y0466772D01*
X0333972Y0456929D02*
X0339350D01*
X0333350Y0456307D02*
X0333972Y0456929D01*
X0345693Y0449551D02*
Y0453610D01*
X0354894Y0473819D02*
Y0473890D01*
X0481496Y0420748D02*
X0482350Y0419894D01*
X0488350Y0469059D02*
X0494095Y0474803D01*
X0488350Y0468350D02*
Y0469059D01*
Y0482394D02*
X0493590D01*
X0494095Y0481890D01*
X0484850Y0474350D02*
X0487394D01*
X0510433Y0476433D02*
Y0481614D01*
X0510350Y0476350D02*
X0510433Y0476433D01*
X0528394Y0431350D02*
X0533807D01*
X0505480Y0457677D02*
X0506307Y0456850D01*
X0411394Y0382695D02*
X0412049Y0383350D01*
X0411425Y0397075D02*
Y0398346D01*
Y0397075D02*
X0417346Y0391154D01*
Y0389850D02*
Y0391154D01*
X0411370Y0403331D02*
X0413039Y0405000D01*
X0297394Y0308350D02*
X0301307D01*
X0392543Y0307000D02*
X0392587Y0306957D01*
X0413500Y0318500D02*
X0414740Y0317260D01*
X0408500Y0318500D02*
X0413500D01*
X0407260Y0317260D02*
X0408500Y0318500D01*
X0419500Y0322543D02*
X0423500Y0326543D01*
X0418543Y0314500D02*
X0419500Y0315457D01*
X0407260Y0329303D02*
X0407457Y0329500D01*
X0414543Y0331543D02*
X0415500Y0332500D01*
X0404354Y0384500D02*
Y0388850D01*
X0443043Y0266043D02*
X0446000D01*
X0435500Y0263752D02*
X0440748D01*
X0388295D02*
X0391406D01*
X0413457Y0228547D02*
X0414004Y0228000D01*
X0413457Y0228547D02*
Y0232500D01*
X0451500Y0256500D02*
X0452000Y0256000D01*
X0455559Y0250980D02*
Y0254941D01*
X0453000Y0247000D02*
X0455600D01*
X0453000Y0243500D02*
Y0247000D01*
Y0250980D01*
X0458118D02*
Y0254575D01*
X0460000Y0256457D01*
X0447500Y0243957D02*
X0452543D01*
X0453000Y0243500D01*
X0451500Y0255043D02*
Y0256500D01*
X0213500Y0411500D02*
X0214543Y0410457D01*
Y0406500D02*
Y0406587D01*
Y0410457D01*
X0212000Y0411500D02*
X0213500D01*
X0410500Y0333500D02*
Y0334457D01*
X0414740Y0324158D02*
X0415398Y0323500D01*
Y0314500D02*
X0418543D01*
X0234043Y0311500D02*
Y0312500D01*
Y0311500D02*
X0238043Y0307500D01*
X0249150Y0303350D02*
X0250500Y0302000D01*
X0423744Y0412000D02*
X0423850Y0411894D01*
X0421500Y0412000D02*
X0423744D01*
X0416500Y0411894D02*
X0416606Y0412000D01*
X0421500D01*
X0439043Y0292000D02*
X0442000Y0289043D01*
X0221547Y0454457D02*
X0225504Y0450500D01*
X0248189Y0458228D02*
X0253307D01*
X0238189Y0448311D02*
Y0451260D01*
Y0448311D02*
X0241224Y0445276D01*
X0297130Y0336323D02*
Y0340130D01*
X0299350Y0342350D01*
X0293307Y0343350D02*
X0296807Y0346850D01*
X0294693Y0354807D02*
X0297193Y0352307D01*
X0304894Y0259807D02*
X0309945Y0254756D01*
X0314000Y0379000D02*
X0317957D01*
X0303272Y0381228D02*
X0305500Y0379000D01*
X0434193Y0512350D02*
X0439807D01*
X0439957Y0512500D01*
X0470768D02*
X0471654Y0513386D01*
X0386000Y0489000D02*
X0388657D01*
X0390307Y0487350D01*
X0346350Y0392894D02*
Y0396350D01*
X0348610Y0398610D01*
X0346291Y0252709D02*
Y0256878D01*
Y0252709D02*
X0351150Y0247850D01*
X0353850D01*
X0345500Y0351000D02*
X0346500Y0350000D01*
X0522193Y0392091D02*
X0525110D01*
X0526350Y0390850D01*
Y0389350D02*
Y0390850D01*
X0501350Y0393508D02*
Y0396650D01*
X0503850Y0399150D01*
X0505091Y0394091D02*
X0507850Y0396850D01*
X0508909Y0451791D02*
X0509118Y0452000D01*
X0510000D01*
X0515323Y0441791D02*
X0518209D01*
X0521307Y0438693D01*
Y0431350D02*
Y0438693D01*
X0410043Y0231000D02*
X0411957D01*
X0413457Y0232500D01*
X0416602Y0238394D02*
Y0241705D01*
Y0238394D02*
X0420543Y0234453D01*
X0410303Y0241705D02*
Y0245197D01*
X0409500Y0246000D02*
X0410303Y0245197D01*
X0409500Y0246000D02*
Y0246500D01*
X0353500Y0384658D02*
X0354500Y0383658D01*
X0435500Y0260602D02*
X0439500D01*
X0444435Y0261021D02*
X0446500Y0258957D01*
X0272858Y0351000D02*
X0277500D01*
X0285500Y0353000D02*
X0288091Y0355591D01*
X0324500Y0333500D02*
X0327000Y0331000D01*
X0322500Y0320500D02*
X0327000Y0325000D01*
Y0331000D01*
X0322500Y0315008D02*
Y0320500D01*
X0267350Y0363850D02*
Y0369307D01*
Y0360248D02*
Y0363850D01*
X0288091Y0355591D02*
Y0355944D01*
X0332543Y0339000D02*
X0337500D01*
X0322000Y0337500D02*
X0323957Y0335543D01*
X0343457Y0380043D02*
X0343957Y0379543D01*
X0391500Y0228457D02*
X0396000D01*
X0396500D01*
X0359717Y0321260D02*
X0362760D01*
X0412049Y0383350D02*
X0420350D01*
X0407457Y0329500D02*
Y0330457D01*
X0407260Y0324158D02*
Y0329303D01*
X0404000Y0351957D02*
X0409500D01*
X0403957Y0333000D02*
X0407457Y0329500D01*
X0392587Y0306957D02*
X0397500D01*
X0418543Y0323500D02*
X0419500Y0322543D01*
X0358500Y0320043D02*
X0359717Y0321260D01*
X0414740Y0313843D02*
Y0317260D01*
X0414543Y0329500D02*
Y0331543D01*
X0407260Y0313843D02*
Y0317260D01*
X0417043Y0292504D02*
X0417543Y0293004D01*
X0414740Y0313843D02*
X0415398Y0314500D01*
X0413500Y0285846D02*
Y0288961D01*
X0409957Y0292000D02*
Y0292043D01*
Y0293004D02*
X0410303Y0292657D01*
X0401043Y0365000D02*
X0404043Y0368000D01*
X0403004Y0299500D02*
X0404504Y0298000D01*
X0397000Y0262000D02*
Y0268500D01*
X0378996Y0265500D02*
X0380000Y0266504D01*
X0376000Y0270504D02*
Y0274000D01*
X0354097D02*
X0354250Y0273847D01*
X0352500Y0274000D02*
X0354097D01*
X0525350Y0388350D02*
X0527000Y0386701D01*
X0537394Y0387894D02*
Y0388094D01*
X0532508Y0388350D02*
X0532764Y0388094D01*
X0528543Y0426000D02*
Y0431201D01*
X0533850Y0431394D02*
X0534457Y0432000D01*
X0533807Y0431350D02*
Y0432000D01*
X0522500Y0492043D02*
X0529445D01*
X0523000Y0476043D02*
X0529193D01*
X0544000Y0474000D02*
Y0477457D01*
X0523000Y0465500D02*
Y0468957D01*
X0522500Y0481500D02*
Y0484957D01*
X0431500Y0299957D02*
X0431957Y0299500D01*
X0431500Y0309583D02*
X0431760Y0309842D01*
X0431500Y0299957D02*
Y0304500D01*
Y0309583D01*
X0454000Y0256500D02*
X0455559Y0254941D01*
X0262500Y0452500D02*
X0267520Y0447480D01*
X0262500Y0452500D02*
Y0453000D01*
X0262457D02*
X0262500D01*
X0260457Y0455000D02*
X0262457Y0453000D01*
X0275984Y0437795D02*
X0276378Y0437402D01*
X0255240Y0475740D02*
X0259681D01*
X0254500Y0475000D02*
X0255240Y0475740D01*
X0267653Y0466980D02*
Y0472000D01*
Y0466980D02*
X0268047Y0466587D01*
X0272390D01*
X0274016Y0464961D01*
X0259681Y0460252D02*
Y0468260D01*
X0276378Y0432382D02*
Y0437402D01*
X0345457Y0372957D02*
X0349500Y0377000D01*
X0355000Y0348000D02*
Y0352500D01*
X0345000Y0350500D02*
X0345500Y0351000D01*
X0283500Y0447000D02*
X0286614Y0450114D01*
X0225543Y0382000D02*
X0228350Y0379193D01*
Y0375894D02*
Y0377850D01*
Y0379193D01*
X0233500Y0467543D02*
X0239957D01*
X0241957Y0465543D01*
X0496807Y0377350D02*
X0497610Y0378153D01*
X0501350Y0379894D02*
X0502622Y0378622D01*
X0484760Y0378693D02*
X0485110D01*
X0377874Y0504528D02*
X0378071Y0504724D01*
X0383071D01*
X0429000Y0360543D02*
Y0363500D01*
X0430522Y0365022D01*
X0417761Y0335761D02*
Y0338261D01*
X0417500Y0335500D02*
X0417761Y0335761D01*
X0257240Y0507000D02*
X0266657D01*
X0266850Y0506807D01*
X0357850Y0397331D02*
Y0402350D01*
X0481496Y0420748D02*
Y0424409D01*
X0397500Y0306957D02*
X0400957D01*
X0411000Y0310500D02*
Y0313843D01*
X0400957Y0306957D02*
X0403000Y0309000D01*
X0409500D01*
X0411000Y0310500D01*
X0422000Y0504957D02*
X0422957Y0504000D01*
X0425500D01*
X0427500Y0502000D01*
X0434043Y0508500D02*
Y0512201D01*
X0438000Y0507500D02*
X0439000Y0506500D01*
X0356008Y0448323D02*
X0357087Y0447244D01*
X0345693Y0461091D02*
Y0464736D01*
X0346807Y0465850D02*
X0347807D01*
X0345693Y0464736D02*
X0345957Y0465000D01*
X0346807Y0465850D01*
X0412000Y0368000D02*
X0417000Y0363000D01*
X0409500Y0351957D02*
X0417457D01*
X0418500Y0353000D01*
X0527000Y0383500D02*
Y0386701D01*
Y0383500D02*
X0531347Y0379153D01*
X0511500Y0373457D02*
Y0382307D01*
X0484410Y0379043D02*
X0484760Y0378693D01*
X0488448Y0376448D02*
Y0378291D01*
X0485000Y0373000D02*
X0488448Y0376448D01*
X0385724Y0299811D02*
Y0306232D01*
X0353937Y0428543D02*
X0355020Y0427461D01*
X0359350D01*
X0350500Y0417000D02*
Y0419500D01*
X0357394Y0411350D02*
X0362850D01*
X0363350Y0410850D01*
X0358124Y0376920D02*
X0358204Y0377000D01*
X0383496Y0389500D02*
X0385039Y0391043D01*
X0365193Y0385307D02*
X0366732Y0383769D01*
X0379265D01*
X0206350Y0341350D02*
X0211000Y0336701D01*
Y0336500D02*
Y0336701D01*
X0545400Y0500443D02*
Y0502700D01*
X0403100Y0232000D02*
X0406600Y0235500D01*
X0408500D01*
X0410303Y0237303D01*
X0288850Y0371850D02*
Y0374957D01*
X0219350Y0352394D02*
Y0356850D01*
X0447043Y0512500D02*
X0470768D01*
X0400807Y0461350D02*
X0403909Y0458248D01*
X0378500Y0435500D02*
Y0437500D01*
Y0431744D02*
Y0435500D01*
X0323500Y0464500D02*
X0326807Y0467807D01*
X0310350Y0418807D02*
X0310457Y0418701D01*
X0398000Y0358500D02*
X0403457D01*
X0358204Y0377000D02*
X0360500D01*
X0434043Y0507500D02*
X0438000D01*
X0425157Y0304500D02*
X0431500D01*
X0424900Y0304243D02*
X0425157Y0304500D01*
X0509307Y0339607D02*
Y0344850D01*
X0210350Y0361350D02*
X0211500D01*
X0505433Y0476667D02*
Y0481614D01*
Y0476667D02*
X0506850Y0475250D01*
Y0466575D02*
Y0475250D01*
X0501200Y0335500D02*
X0512000D01*
X0499400Y0328400D02*
X0504406Y0323394D01*
X0499400Y0328400D02*
Y0333700D01*
X0501200Y0335500D01*
X0410343Y0210557D02*
Y0213900D01*
Y0210557D02*
X0412400Y0208500D01*
Y0205800D02*
Y0208500D01*
X0288350Y0231850D02*
X0289850D01*
X0356008Y0457350D02*
X0359150D01*
X0362000Y0460200D01*
X0381100Y0455000D02*
X0383900D01*
X0379000Y0457100D02*
X0381100Y0455000D01*
X0359350Y0425350D02*
X0361994Y0422707D01*
X0362000Y0460200D02*
Y0462600D01*
X0356894Y0415850D02*
X0362350D01*
X0370216Y0413937D02*
X0370850Y0414571D01*
Y0422850D01*
X0372807Y0424807D02*
X0378350D01*
X0365350Y0427929D02*
X0374386D01*
X0378100Y0431644D01*
X0378307Y0431437D02*
X0378500Y0431630D01*
Y0431744D02*
X0379394Y0430850D01*
X0378500Y0437500D02*
Y0443508D01*
X0377850Y0444158D02*
X0378500Y0443508D01*
X0465850Y0333937D02*
X0466613Y0334700D01*
X0469807Y0333437D02*
X0470953Y0332291D01*
X0466613Y0334700D02*
X0469600D01*
X0469807Y0334907D01*
Y0336394D01*
Y0333437D02*
Y0334907D01*
X0370807Y0440850D02*
X0371850Y0441894D01*
X0371457Y0451264D02*
X0371850Y0450870D01*
X0356008Y0453610D02*
X0361310D01*
X0362100Y0454400D01*
X0259681Y0460252D02*
X0260433Y0459500D01*
X0401957Y0232000D02*
X0403100D01*
X0342500Y0312957D02*
X0343000Y0313457D01*
X0487394Y0474350D02*
X0488350Y0475307D01*
X0357543Y0377500D02*
X0358124Y0376920D01*
X0357043Y0377000D02*
X0357543Y0377500D01*
X0512000Y0335500D02*
X0513800Y0337300D01*
Y0339400D01*
X0519354Y0330350D02*
Y0334850D01*
Y0335811D01*
X0530350Y0366850D02*
X0533850D01*
X0384642Y0260602D02*
X0391406D01*
X0376000Y0274000D02*
X0377000Y0275000D01*
X0376000Y0270504D02*
X0380000Y0266504D01*
X0410303Y0285799D02*
Y0292657D01*
X0440748Y0263752D02*
X0443043Y0266047D01*
X0304850Y0274307D02*
X0308350Y0270807D01*
X0336500Y0350500D02*
X0345000D01*
X0346000Y0352043D02*
X0350500D01*
X0237500Y0359701D02*
X0238850Y0358350D01*
X0237500Y0359701D02*
Y0362201D01*
X0236850Y0362850D02*
X0237500Y0362201D01*
X0384500Y0267547D02*
X0388295Y0263752D01*
X0376457Y0288500D02*
X0377000Y0289043D01*
X0380043Y0367500D02*
X0381000Y0366543D01*
X0409043Y0232000D02*
X0410043Y0231000D01*
X0413500Y0288961D02*
X0417043Y0292504D01*
X0223457Y0316000D02*
X0226957Y0312500D01*
X0241807Y0337350D02*
Y0346850D01*
X0241307Y0337850D02*
X0241807Y0337350D01*
X0315350Y0328394D02*
Y0331807D01*
X0253850Y0381894D02*
X0261894D01*
X0277307Y0379850D02*
Y0384350D01*
X0323957Y0334500D02*
Y0335543D01*
X0480000Y0373000D02*
X0485000D01*
X0338043Y0379543D02*
X0343957D01*
X0343457Y0380043D02*
X0344000D01*
X0488448Y0378291D02*
X0488850Y0378693D01*
X0343889Y0380476D02*
X0347309D01*
X0510350Y0389394D02*
Y0393350D01*
X0527500Y0401850D02*
Y0410394D01*
X0289850Y0231850D02*
Y0235807D01*
X0232516Y0411500D02*
X0232866Y0411850D01*
X0260394Y0394394D02*
X0262350Y0396350D01*
X0241957Y0465543D02*
X0243500D01*
X0353500Y0384658D02*
X0354000Y0385157D01*
X0357350Y0408350D02*
Y0411350D01*
X0325287Y0439370D02*
X0326307Y0438350D01*
X0354894Y0465850D02*
Y0473819D01*
Y0473890D02*
X0355354Y0474350D01*
X0424894Y0416850D02*
X0425406Y0416339D01*
X0398268Y0466854D02*
X0404850D01*
X0397394Y0487350D02*
X0403854D01*
X0418898Y0452362D02*
X0422929Y0456394D01*
X0423850D01*
D67*
X0318760Y0315008D02*
Y0322260D01*
X0313693Y0355591D02*
Y0356090D01*
X0321378Y0367882D02*
X0324306D01*
X0297130Y0320378D02*
Y0324130D01*
X0307500Y0371819D02*
X0321378D01*
X0297130Y0316673D02*
Y0320378D01*
X0299689Y0314555D02*
X0300894Y0313350D01*
X0300644Y0313100D02*
X0300894Y0313350D01*
X0353394Y0392394D02*
X0353850D01*
X0514662Y0403382D02*
X0517780Y0406500D01*
X0393839Y0321575D02*
Y0330944D01*
X0407154Y0238154D02*
Y0241705D01*
X0311157Y0426500D02*
X0311457Y0426200D01*
X0444100Y0318943D02*
X0448000Y0315043D01*
X0440300Y0318943D02*
Y0319098D01*
Y0314600D02*
Y0318943D01*
X0439240Y0320158D02*
X0440300Y0319098D01*
X0443143Y0310800D02*
X0444000Y0311657D01*
X0439240Y0309842D02*
X0440198Y0310800D01*
X0448000Y0313243D02*
Y0315043D01*
Y0313243D02*
X0449000Y0312243D01*
X0414500Y0254800D02*
X0417300Y0252000D01*
X0421500D01*
X0426051Y0247449D01*
X0309684Y0321973D02*
X0310350Y0321307D01*
X0241500Y0379957D02*
X0242293Y0380750D01*
X0257900Y0330750D02*
Y0332891D01*
X0248000Y0346850D02*
X0250850D01*
X0383543Y0288500D02*
X0383793Y0288250D01*
X0385000Y0284500D02*
Y0287543D01*
X0377043Y0281500D02*
X0382000D01*
X0387299Y0273201D02*
X0391406D01*
X0385500Y0275000D02*
X0387299Y0273201D01*
X0385500Y0275000D02*
Y0280000D01*
X0392500Y0288500D02*
X0394500Y0286500D01*
Y0282074D02*
Y0286500D01*
Y0282074D02*
X0401537Y0275037D01*
X0388500Y0283000D02*
X0391500D01*
X0385500Y0280000D02*
X0388500Y0283000D01*
X0384043Y0288500D02*
X0385000Y0287543D01*
X0376000Y0282543D02*
X0377043Y0281500D01*
X0310000Y0379000D02*
Y0380500D01*
X0304500Y0386000D02*
X0310000Y0380500D01*
X0289701Y0386000D02*
X0304500D01*
X0372898Y0346398D02*
X0375898Y0349398D01*
X0380000Y0347000D02*
X0381043Y0345957D01*
X0377000Y0347000D02*
X0380000D01*
X0375457Y0345457D02*
X0377000Y0347000D01*
X0482000Y0506000D02*
X0488500Y0512500D01*
X0495378Y0400378D02*
Y0401413D01*
X0493000Y0398000D02*
X0495378Y0400378D01*
X0435500Y0279500D02*
X0455500D01*
X0244000Y0470043D02*
X0248000Y0466043D01*
X0245500Y0425500D02*
X0248500D01*
X0244500Y0426500D02*
X0245500Y0425500D01*
X0241500Y0426500D02*
X0244500D01*
X0238189Y0429811D02*
X0241500Y0426500D01*
X0238189Y0429811D02*
Y0432441D01*
X0336043Y0384500D02*
X0337043Y0383500D01*
X0220000Y0326000D02*
X0237500D01*
X0216043D02*
X0220000D01*
X0261500Y0342500D02*
Y0343000D01*
X0243000Y0325000D02*
X0245500Y0322500D01*
X0238500Y0325000D02*
X0243000D01*
X0262116Y0339050D02*
X0262150D01*
X0398957Y0324457D02*
X0400000Y0325500D01*
X0357543Y0354457D02*
Y0360425D01*
X0381043Y0326043D02*
X0383500Y0328500D01*
X0478500Y0398500D02*
X0480250Y0396750D01*
X0476250Y0398500D02*
X0478500D01*
X0298350Y0325350D02*
X0301150D01*
X0297130Y0324130D02*
X0298350Y0325350D01*
X0344000Y0372457D02*
X0344250Y0372707D01*
X0315807Y0366307D02*
X0317382Y0367882D01*
X0276268Y0363350D02*
X0277110Y0364193D01*
X0317382Y0367882D02*
X0321378D01*
X0331957Y0380413D02*
X0336043Y0384500D01*
X0315894Y0369850D02*
X0321378D01*
X0272508Y0351350D02*
X0272858Y0351000D01*
X0346350Y0385807D02*
X0346807D01*
X0313693Y0356090D02*
Y0359193D01*
X0311500Y0365457D02*
X0315894Y0369850D01*
X0237500Y0326000D02*
X0238500Y0325000D01*
X0214850Y0324807D02*
X0216043Y0326000D01*
X0343612Y0371819D02*
X0344000Y0372207D01*
X0513894Y0347350D02*
X0516394Y0344850D01*
X0513894Y0347350D02*
Y0349850D01*
X0302350Y0323150D02*
Y0324150D01*
X0299689Y0314555D02*
Y0320378D01*
X0301307Y0308350D02*
X0301457Y0308500D01*
X0287500Y0388201D02*
Y0388500D01*
X0267500Y0363350D02*
X0276268D01*
X0259819Y0340819D02*
X0261500Y0342500D01*
X0255878Y0340819D02*
X0259819D01*
X0248894D02*
X0255878D01*
X0248894Y0338350D02*
Y0340819D01*
X0241500Y0374500D02*
Y0379957D01*
Y0374500D02*
X0243032Y0372969D01*
X0245795D01*
X0277819Y0340819D02*
X0278806Y0341806D01*
X0282000Y0340500D02*
Y0353500D01*
X0280350Y0338850D02*
X0282000Y0340500D01*
X0271823Y0338850D02*
X0280350D01*
X0271823Y0342787D02*
X0274787D01*
X0271823Y0340819D02*
X0277819D01*
X0280410Y0355090D02*
X0282000Y0353500D01*
X0272508Y0355090D02*
X0280410D01*
X0262150Y0339050D02*
X0262350Y0338850D01*
X0255878Y0334913D02*
X0257900Y0332891D01*
X0249384Y0333316D02*
X0251724Y0335656D01*
X0248543Y0338000D02*
X0248894Y0338350D01*
X0248394Y0337850D02*
X0248543Y0338000D01*
X0251724Y0335656D02*
X0252950Y0336882D01*
X0406587Y0237587D02*
X0407154Y0238154D01*
X0405635Y0237587D02*
X0406587D01*
X0486850Y0403350D02*
X0488850Y0405350D01*
X0486850Y0399350D02*
Y0403350D01*
X0485000Y0397500D02*
X0486850Y0399350D01*
X0513787Y0409287D02*
X0515500Y0411000D01*
X0470500Y0384500D02*
Y0384934D01*
X0383850Y0443394D02*
X0391807D01*
X0392850Y0442350D01*
X0297437Y0308394D02*
X0297937D01*
X0297394Y0308350D02*
X0297437Y0308394D01*
X0293807Y0313350D02*
X0297130Y0316673D01*
X0253413Y0342787D02*
X0255878D01*
X0252350Y0343850D02*
X0253413Y0342787D01*
X0252350Y0343850D02*
Y0345350D01*
X0250850Y0346850D02*
X0252350Y0345350D01*
X0252950Y0336882D02*
X0255878D01*
X0511323Y0403382D02*
X0514662D01*
X0511323Y0401413D02*
X0518350D01*
X0386090Y0482590D02*
X0387193D01*
X0397508Y0478850D02*
X0403854D01*
X0404850Y0479846D01*
X0338110Y0461091D02*
X0345693D01*
X0300394Y0313350D02*
X0300644Y0313100D01*
X0301150Y0325350D02*
X0302350Y0324150D01*
X0491713Y0409287D02*
X0495378D01*
X0495457Y0415543D02*
Y0419000D01*
Y0415543D02*
X0500350Y0410650D01*
Y0404850D02*
Y0410650D01*
X0483000Y0394500D02*
X0487000D01*
X0490000Y0411000D02*
X0491713Y0409287D01*
X0481000Y0397500D02*
X0485000D01*
X0488850Y0405350D02*
X0495378D01*
X0511323Y0409287D02*
X0513787D01*
X0476250Y0402600D02*
X0479534D01*
X0484253Y0407319D01*
X0495378D01*
X0480250Y0396750D02*
X0481000Y0397500D01*
X0476250Y0400400D02*
X0481400D01*
X0481500Y0400500D01*
X0520957Y0406500D02*
Y0411000D01*
X0506500Y0408701D02*
Y0410500D01*
X0509100Y0413100D01*
X0502850Y0406650D02*
X0504150Y0405350D01*
X0511323D01*
X0472986Y0398486D02*
X0473000Y0398500D01*
X0471576Y0398486D02*
X0472986D01*
X0470500Y0397410D02*
X0471576Y0398486D01*
X0396398Y0337602D02*
Y0343425D01*
X0386161Y0338161D02*
Y0343425D01*
X0245500Y0322500D02*
X0251500D01*
X0248000Y0471488D02*
X0253740Y0465748D01*
X0318610Y0293508D02*
Y0293610D01*
X0313693Y0359193D02*
X0315807Y0361307D01*
Y0366307D01*
X0296000Y0373500D02*
X0298500Y0376000D01*
X0295457Y0373087D02*
Y0381500D01*
Y0373087D02*
X0295500Y0373043D01*
X0392850Y0442350D02*
X0400650D01*
X0403909Y0439091D01*
Y0434323D02*
Y0439091D01*
X0329000Y0377000D02*
X0330807Y0378807D01*
X0399888Y0325612D02*
X0400000Y0325500D01*
X0399888Y0325612D02*
Y0326112D01*
X0506500Y0408701D02*
X0507882Y0407319D01*
X0511323D01*
X0503850Y0399150D02*
Y0405350D01*
X0495378Y0403382D02*
X0498882D01*
X0500350Y0404850D01*
X0534142Y0441791D02*
X0534850Y0442500D01*
X0391500Y0235543D02*
Y0238500D01*
X0391406Y0254303D02*
X0398803D01*
X0405000Y0260500D01*
X0406000Y0246000D02*
Y0250500D01*
Y0246000D02*
X0407154Y0244847D01*
Y0241705D02*
Y0244847D01*
X0402000Y0247000D02*
X0404004Y0244996D01*
Y0241705D02*
Y0244996D01*
X0406000Y0250500D02*
X0411178Y0255678D01*
X0280850Y0363150D02*
Y0364193D01*
X0287500Y0388201D02*
X0289701Y0386000D01*
X0264693Y0387307D02*
X0266500Y0385500D01*
X0257850Y0387307D02*
X0264693D01*
X0326240Y0304693D02*
Y0308760D01*
X0325000Y0310000D02*
X0326240Y0308760D01*
X0320000Y0310000D02*
X0325000D01*
X0318760Y0311240D02*
X0320000Y0310000D01*
X0318760Y0311240D02*
Y0315008D01*
X0274787Y0342787D02*
X0278500Y0346500D01*
X0331957Y0379500D02*
Y0380413D01*
X0413000Y0269000D02*
Y0271000D01*
X0426051Y0241705D02*
Y0247449D01*
X0414500Y0261000D02*
X0417000Y0263500D01*
X0419500D01*
X0421500Y0265500D01*
Y0269000D01*
X0360102Y0334898D02*
Y0338575D01*
Y0334898D02*
X0362500Y0332500D01*
X0366000Y0303457D02*
X0367043Y0304500D01*
X0365000Y0300500D02*
X0366000Y0301500D01*
Y0303457D01*
X0365000Y0295500D02*
Y0300500D01*
X0381043Y0321575D02*
Y0326043D01*
Y0343425D02*
Y0345957D01*
X0375457Y0338575D02*
Y0345457D01*
X0372898Y0338575D02*
Y0346398D01*
X0396398Y0321575D02*
Y0327185D01*
X0411178Y0267178D02*
X0413000Y0269000D01*
X0411178Y0255678D02*
Y0267178D01*
X0398957Y0321575D02*
Y0324457D01*
X0405000Y0260500D02*
Y0266500D01*
X0408500Y0270000D01*
X0404004Y0285799D02*
Y0290496D01*
X0382000Y0281500D02*
X0385000Y0284500D01*
X0367500Y0279043D02*
Y0283957D01*
X0359250Y0286250D02*
Y0292154D01*
Y0286250D02*
X0361000Y0284500D01*
X0361543Y0283957D02*
X0367500D01*
X0361000Y0284500D02*
X0361543Y0283957D01*
X0354250Y0292154D02*
Y0296750D01*
X0355500Y0298000D01*
X0360500D01*
X0361750Y0296750D01*
Y0292154D02*
Y0296750D01*
X0356750Y0284163D02*
Y0292154D01*
X0502543Y0424500D02*
X0503043Y0425000D01*
X0362500Y0332500D02*
X0364500D01*
X0357543Y0354457D02*
X0358514Y0353486D01*
X0362661Y0355839D02*
Y0360425D01*
X0360102Y0355398D02*
Y0360425D01*
X0321378Y0371819D02*
X0324819D01*
X0327822Y0374322D02*
X0329000Y0375500D01*
Y0377000D01*
X0324819Y0371819D02*
X0326022Y0373022D01*
Y0378065D01*
X0324306Y0367882D02*
X0327822Y0371398D01*
Y0374322D01*
X0318760Y0322260D02*
X0323000Y0326500D01*
X0302350Y0323150D02*
X0303527Y0321973D01*
X0309684D01*
X0396398Y0327185D02*
X0399713Y0330500D01*
X0400000D01*
X0484760Y0389008D02*
X0485110D01*
X0455543Y0443500D02*
X0458500Y0440543D01*
X0450500Y0443500D02*
X0455543D01*
X0449550Y0442550D02*
X0450500Y0443500D01*
X0449550Y0440056D02*
Y0442550D01*
X0256441Y0504441D02*
X0257240D01*
X0254000Y0502000D02*
X0256441Y0504441D01*
X0245500Y0502000D02*
X0254000D01*
X0244000Y0503500D02*
X0245500Y0502000D01*
X0244000Y0503500D02*
Y0505543D01*
X0243043Y0506500D02*
X0244000Y0505543D01*
X0233457Y0504000D02*
X0235957Y0506500D01*
X0228000Y0504000D02*
X0233457D01*
X0358514Y0350986D02*
Y0353486D01*
X0360102Y0355398D02*
X0362610Y0352890D01*
Y0350419D02*
Y0352890D01*
X0362661Y0355839D02*
X0367591Y0350909D01*
X0368409D01*
X0455413Y0417500D02*
X0456220Y0418307D01*
X0444000Y0417500D02*
X0455413D01*
X0440500Y0414000D02*
X0444000Y0417500D01*
X0440500Y0406500D02*
Y0414000D01*
Y0406500D02*
X0442000Y0405000D01*
X0451063D01*
X0454331Y0408268D01*
X0384350Y0480850D02*
X0386090Y0482590D01*
X0470500Y0389000D02*
Y0397410D01*
X0391472Y0504528D02*
X0396693D01*
X0388000Y0508000D02*
X0391472Y0504528D01*
X0388000Y0508000D02*
Y0517500D01*
X0384043Y0288500D02*
X0392500D01*
X0310000Y0485457D02*
X0314000Y0481457D01*
X0310000Y0485457D02*
Y0485500D01*
X0298500Y0376000D02*
X0314500D01*
X0316713Y0373787D01*
X0321378D01*
X0518350Y0397000D02*
Y0401413D01*
X0393500Y0240500D02*
Y0243500D01*
X0391500Y0238500D02*
X0393500Y0240500D01*
Y0243500D02*
X0397000Y0247000D01*
X0402000D01*
X0403448Y0235400D02*
X0405635Y0237587D01*
X0396500Y0236000D02*
X0397100Y0235400D01*
X0403448D01*
X0400854Y0238300D02*
Y0241705D01*
X0410343Y0219100D02*
X0418100D01*
X0330807Y0378807D02*
Y0379850D01*
X0310400Y0425743D02*
X0311157Y0426500D01*
X0311457Y0426200D02*
X0313300D01*
X0337043Y0383500D02*
X0341000D01*
X0271823Y0334913D02*
X0276087D01*
X0277000Y0334000D01*
X0389300Y0336126D02*
X0391280Y0338105D01*
Y0343425D01*
X0478043Y0490000D02*
X0482000Y0493957D01*
Y0506000D01*
X0473000Y0392400D02*
Y0396300D01*
X0474500Y0383500D02*
X0476200Y0385200D01*
Y0389200D01*
X0473000Y0392400D02*
X0476200Y0389200D01*
X0478900Y0386600D02*
X0481500Y0384000D01*
X0480250Y0392150D02*
Y0396750D01*
Y0392150D02*
X0482066Y0390334D01*
X0485000D01*
X0476250Y0392550D02*
Y0396300D01*
Y0392550D02*
X0478900Y0389900D01*
Y0386600D02*
Y0389900D01*
X0513800Y0339800D02*
X0515400Y0341400D01*
Y0343857D01*
X0516394Y0344850D01*
X0530307Y0349850D02*
X0533500Y0346657D01*
Y0339700D02*
Y0346657D01*
Y0339700D02*
X0535590Y0337610D01*
X0537508D01*
X0414500Y0254800D02*
Y0261000D01*
X0333350Y0463394D02*
X0334244Y0462500D01*
X0336701D01*
X0338110Y0461091D01*
X0488100Y0389758D02*
Y0393400D01*
X0487000Y0394500D02*
X0488100Y0393400D01*
Y0389758D02*
X0488850Y0389008D01*
X0539500Y0411500D02*
Y0415557D01*
X0503043Y0425000D02*
X0515000D01*
X0513800Y0339400D02*
Y0339800D01*
X0464500Y0490000D02*
X0470457D01*
X0461500Y0487000D02*
X0464500Y0490000D01*
X0461500Y0481900D02*
Y0487000D01*
Y0481900D02*
X0463085Y0480315D01*
X0466575D01*
X0374850Y0482894D02*
X0378806D01*
X0380850Y0480850D01*
X0384350D01*
X0375898Y0349398D02*
X0383602D01*
X0374850Y0475807D02*
X0377894Y0478850D01*
X0397508D01*
X0255878Y0338850D02*
X0262350D01*
X0502850Y0406650D02*
Y0414350D01*
D68*
X0307209Y0220291D02*
X0309642D01*
X0462764Y0363260D02*
X0464157D01*
X0453000Y0332457D02*
X0458953Y0326504D01*
X0437504Y0347500D02*
Y0347900D01*
X0240748Y0411417D02*
Y0411500D01*
Y0414205D01*
X0391500Y0514528D02*
X0396693D01*
X0295000Y0512087D02*
Y0516000D01*
X0415760Y0374240D02*
X0436760D01*
X0468697Y0363260D02*
X0469000Y0362957D01*
X0475039Y0413307D02*
X0481850D01*
X0472807D02*
X0475039D01*
X0288779Y0486024D02*
X0296850D01*
X0340000Y0479882D02*
Y0490000D01*
X0340709Y0492913D02*
X0345472D01*
X0460004Y0375004D02*
Y0377500D01*
X0244894Y0474850D02*
Y0477807D01*
X0281496Y0480118D02*
Y0486221D01*
X0444240Y0376457D02*
X0449000D01*
X0281043Y0330000D02*
X0282000Y0329043D01*
X0309850Y0329394D02*
Y0337307D01*
X0288583Y0486221D02*
X0288779Y0486024D01*
X0301181Y0514173D02*
X0306299D01*
X0311811Y0511024D02*
Y0512189D01*
X0371614Y0514528D02*
X0377874D01*
X0370472Y0502756D02*
Y0503937D01*
X0461811Y0407874D02*
X0462437Y0408500D01*
X0456220Y0428307D02*
Y0433000D01*
X0452500Y0318457D02*
X0455423Y0321379D01*
X0457339D01*
X0435500Y0316300D02*
Y0320158D01*
X0434300Y0315100D02*
X0435500Y0316300D01*
X0440520Y0328500D02*
X0440760Y0328740D01*
X0436500Y0328500D02*
X0440520D01*
X0431900Y0315100D02*
X0434300D01*
X0443043Y0304500D02*
X0447557D01*
X0472996Y0377500D02*
X0473900Y0376596D01*
Y0372143D02*
Y0376596D01*
Y0372143D02*
X0474500Y0371543D01*
X0468303Y0370740D02*
X0469000Y0370043D01*
X0478494Y0353394D02*
X0481037Y0355937D01*
X0464457Y0355343D02*
Y0358500D01*
X0396811Y0212199D02*
X0401555D01*
X0396811D02*
X0396843Y0212167D01*
Y0205900D02*
Y0212167D01*
X0420500Y0215500D02*
X0426700D01*
X0426900Y0215300D01*
X0426506Y0215694D02*
X0426700Y0215500D01*
X0426506Y0215694D02*
Y0220713D01*
X0312354Y0276350D02*
X0318610Y0282606D01*
X0304850Y0281394D02*
X0306894Y0279350D01*
X0312307Y0274693D02*
Y0277693D01*
X0340354Y0435811D02*
X0346350Y0441807D01*
X0238043Y0308000D02*
X0239043Y0307000D01*
X0358500Y0228850D02*
Y0230543D01*
X0331307Y0270303D02*
Y0279390D01*
X0431760Y0323760D02*
X0436500Y0328500D01*
X0318043Y0387000D02*
X0318599Y0386444D01*
X0481354Y0452354D02*
Y0453850D01*
X0414244Y0441500D02*
X0414850Y0440894D01*
X0407000Y0441500D02*
X0414244D01*
X0402709Y0445791D02*
X0407000Y0441500D01*
X0340000Y0479882D02*
X0344291Y0475591D01*
X0340000Y0490000D02*
X0340236Y0490236D01*
Y0492441D01*
X0468000Y0408500D02*
X0472807Y0413307D01*
X0462437Y0408500D02*
X0468000D01*
X0451307Y0413307D02*
X0456220D01*
X0448630Y0410630D02*
X0451307Y0413307D01*
X0447638Y0410630D02*
X0448630D01*
X0436614Y0416142D02*
Y0420500D01*
X0438976Y0421457D02*
X0440158Y0422638D01*
X0446457D01*
X0263019Y0381981D02*
X0264990D01*
X0262500Y0382500D02*
X0263019Y0381981D01*
X0240748Y0414205D02*
X0241500Y0414957D01*
X0238000Y0408500D02*
X0240043Y0410543D01*
X0238500Y0404500D02*
X0241114D01*
X0241614Y0405000D01*
X0262500Y0427516D02*
Y0431000D01*
Y0427516D02*
X0263000Y0427016D01*
X0286614Y0450386D02*
X0288976Y0448024D01*
X0273268Y0486260D02*
Y0489500D01*
X0390370Y0391173D02*
Y0398401D01*
X0332390Y0474500D02*
X0335000D01*
X0295000Y0512087D02*
X0300000Y0507087D01*
X0309827Y0514173D02*
X0311811Y0512189D01*
X0306299Y0514173D02*
X0309827D01*
X0316094Y0505905D02*
X0320866D01*
X0314173Y0507827D02*
X0316094Y0505905D01*
X0311811Y0510189D02*
X0314173Y0507827D01*
X0311811Y0510189D02*
Y0511024D01*
X0310650Y0279350D02*
X0312307Y0277693D01*
X0306894Y0279350D02*
X0310650D01*
X0312307Y0274693D02*
X0313000Y0274000D01*
X0321043Y0270043D02*
X0324850Y0273850D01*
X0321043Y0269500D02*
Y0270043D01*
X0321543Y0263000D02*
X0323543Y0265000D01*
X0326004D01*
X0299850Y0259894D02*
Y0262307D01*
X0303500Y0224000D02*
X0307209Y0220291D01*
X0303500Y0224000D02*
Y0224500D01*
Y0225000D01*
X0303791Y0225291D02*
X0309642D01*
X0303500Y0225000D02*
X0303791Y0225291D01*
X0327504Y0266500D02*
X0331307Y0270303D01*
X0326004Y0265000D02*
X0327504Y0266500D01*
X0338347Y0270354D02*
X0340701Y0268000D01*
X0239043Y0307000D02*
X0242500D01*
X0318610Y0282606D02*
Y0283193D01*
X0424500Y0327543D02*
Y0331000D01*
X0423500Y0335957D02*
X0428500D01*
X0225996Y0470500D02*
X0227996Y0472500D01*
X0242043Y0381000D02*
X0245957D01*
X0243350Y0331807D02*
Y0332350D01*
X0258106Y0357894D02*
X0260910Y0355090D01*
X0243350Y0331807D02*
X0248850Y0326307D01*
X0435457Y0304500D02*
X0435500Y0304543D01*
Y0309842D01*
X0431760Y0320158D02*
Y0323760D01*
X0437504Y0346496D02*
Y0347500D01*
Y0346496D02*
X0440760Y0343240D01*
Y0340158D02*
Y0343240D01*
X0440500Y0382000D02*
X0442043Y0383543D01*
X0439000Y0383500D02*
X0440500Y0382000D01*
X0434500Y0383500D02*
X0439000D01*
X0442043Y0383543D02*
X0449000D01*
X0453842Y0370740D02*
X0455740D01*
X0453842Y0363260D02*
X0457260D01*
X0455740Y0370740D02*
X0456750Y0371750D01*
X0464157Y0370740D02*
X0468303D01*
X0464157Y0363260D02*
X0468697D01*
X0471543Y0358500D02*
Y0359457D01*
X0469000Y0362000D02*
X0471543Y0359457D01*
X0469000Y0362000D02*
Y0362957D01*
X0293350Y0300437D02*
Y0303894D01*
X0326091Y0277095D02*
Y0283193D01*
X0232331Y0298665D02*
X0238492D01*
X0238854Y0290350D02*
Y0298303D01*
X0238492Y0298665D02*
X0238807Y0298350D01*
X0398909Y0445791D02*
Y0453142D01*
X0393512Y0446894D02*
X0393909Y0447291D01*
X0388850Y0446894D02*
X0393512D01*
X0395409Y0445791D02*
X0398909D01*
X0393909Y0447291D02*
X0395409Y0445791D01*
X0393909Y0447291D02*
Y0453142D01*
X0326091Y0293508D02*
Y0294508D01*
X0238807Y0298350D02*
X0238854Y0298303D01*
X0224850Y0292850D02*
X0225350Y0293350D01*
X0224850Y0288350D02*
Y0292850D01*
X0232331Y0288350D02*
Y0290870D01*
X0229850Y0293350D02*
X0232331Y0290870D01*
X0288268Y0486536D02*
X0288583Y0486221D01*
X0288268Y0486536D02*
Y0492835D01*
X0295472Y0479134D02*
X0296850Y0480512D01*
X0329528Y0503937D02*
X0330236Y0503228D01*
X0288268Y0492835D02*
X0288583Y0492520D01*
X0296850Y0480512D02*
Y0486024D01*
X0340236Y0492441D02*
X0340709Y0492913D01*
X0371654Y0512992D02*
Y0513779D01*
X0367717Y0509055D02*
X0371654Y0512992D01*
X0373307Y0509528D02*
X0377874D01*
X0371654Y0507874D02*
X0373307Y0509528D01*
X0371654Y0505118D02*
Y0507874D01*
X0370472Y0503937D02*
X0371654Y0505118D01*
X0403150Y0507480D02*
X0404331D01*
X0401102Y0509528D02*
X0403150Y0507480D01*
X0396693Y0509528D02*
X0401102D01*
X0406758Y0518175D02*
Y0523656D01*
X0407087Y0523327D01*
X0466575Y0476575D02*
X0472244D01*
X0300000Y0507087D02*
X0301181D01*
X0330236Y0492441D02*
Y0503228D01*
X0281496Y0480118D02*
X0282480Y0479134D01*
X0367717Y0508268D02*
Y0509055D01*
X0518350Y0283850D02*
Y0287807D01*
X0518394Y0287850D01*
X0502850Y0414807D02*
X0503307Y0414350D01*
X0534894Y0354850D02*
X0539350D01*
X0361850Y0248394D02*
X0368303Y0254847D01*
X0368850D01*
X0309642Y0220291D02*
X0316799D01*
X0338347Y0273803D02*
X0338394Y0273850D01*
X0318610Y0283193D02*
Y0284193D01*
X0382807Y0469890D02*
X0387350Y0465346D01*
X0481850Y0413307D02*
X0482350Y0412807D01*
X0246350Y0478850D02*
X0247291Y0479791D01*
X0249642D01*
X0230823Y0484791D02*
X0230882Y0484850D01*
X0244909Y0484791D02*
X0249642D01*
X0244350Y0485350D02*
X0244909Y0484791D01*
X0227996Y0472500D02*
X0229000Y0473504D01*
Y0479791D02*
X0230823D01*
X0358500Y0230543D02*
X0363807Y0235850D01*
X0436760Y0374240D02*
X0438000Y0373000D01*
X0443000D01*
X0444240Y0374240D01*
X0440500Y0378343D02*
Y0382000D01*
X0444240Y0374240D02*
Y0376457D01*
X0436760Y0388657D02*
Y0393803D01*
X0436957Y0394000D01*
X0444240Y0388657D02*
Y0393803D01*
X0444043Y0394000D02*
X0444240Y0393803D01*
X0432000Y0387543D02*
X0435646D01*
X0436760Y0388657D01*
X0432000Y0380457D02*
Y0381000D01*
X0434500Y0383500D01*
X0431768Y0399500D02*
X0436957D01*
X0431591Y0399323D02*
X0431768Y0399500D01*
X0444043Y0394000D02*
Y0399500D01*
X0427543Y0378500D02*
X0430043D01*
X0432000Y0380457D01*
X0436760Y0374240D02*
Y0378343D01*
X0456750Y0371750D02*
X0459000Y0369500D01*
X0456750Y0371750D02*
X0460004Y0375004D01*
X0453842Y0367000D02*
X0453842Y0367000D01*
X0457260Y0363260D02*
X0459000Y0365000D01*
Y0369500D01*
X0457500Y0357996D02*
X0462764Y0363260D01*
X0447500Y0251043D02*
X0451500Y0255043D01*
X0407457Y0330457D02*
X0410500Y0333500D01*
X0338347Y0270354D02*
Y0273803D01*
X0331260Y0289657D02*
X0331917Y0289000D01*
X0398909Y0445791D02*
X0402709D01*
X0224350Y0359394D02*
X0225394D01*
X0228850Y0362850D01*
X0229807D01*
X0326500Y0292500D02*
X0330201D01*
X0331350Y0291350D01*
X0422500Y0206000D02*
Y0208957D01*
X0415957Y0207043D02*
Y0210000D01*
Y0207043D02*
X0417000Y0206000D01*
X0327457Y0383000D02*
X0328457Y0384000D01*
X0428500Y0333000D02*
Y0335957D01*
Y0333000D02*
X0430500Y0331000D01*
X0431587D01*
X0433500Y0332913D01*
Y0335944D01*
X0373500Y0303457D02*
Y0303957D01*
X0377000Y0289043D02*
Y0293500D01*
X0372000Y0301957D02*
X0373500Y0303457D01*
X0372000Y0298500D02*
Y0301957D01*
X0367000Y0271457D02*
X0367500Y0271957D01*
X0367000Y0266496D02*
Y0271457D01*
X0366004Y0265500D02*
X0367000Y0266496D01*
X0344978Y0275565D02*
X0345500Y0275043D01*
X0346000Y0276587D02*
Y0278500D01*
X0331917Y0289000D02*
X0334000D01*
X0521054Y0422583D02*
Y0425598D01*
X0521457Y0426000D01*
X0527500Y0401850D02*
X0529850D01*
X0318599Y0386444D02*
X0323500D01*
X0325500Y0383000D02*
X0327457D01*
X0230882Y0484850D02*
X0235850D01*
X0243850Y0478850D02*
X0246350D01*
X0243850D02*
X0244894Y0477807D01*
X0539350Y0354850D02*
X0542350Y0357850D01*
Y0359850D01*
X0409307Y0503807D02*
X0413350D01*
X0241000Y0516000D02*
X0246957D01*
X0248957Y0514000D01*
X0478500Y0449500D02*
X0481354Y0452354D01*
X0485433Y0428740D02*
Y0432024D01*
X0460004Y0379504D02*
X0465500Y0385000D01*
Y0393500D01*
X0460500Y0398500D02*
X0465500Y0393500D01*
X0445043Y0398500D02*
X0460500D01*
X0444043Y0399500D02*
X0445043Y0398500D01*
X0460004Y0377500D02*
Y0379504D01*
X0413000Y0377000D02*
X0415760Y0374240D01*
X0391500Y0514528D02*
Y0515000D01*
Y0512500D02*
Y0514528D01*
Y0512500D02*
X0394500Y0509500D01*
X0418000Y0499043D02*
X0422500D01*
X0444500Y0340158D02*
Y0344000D01*
X0437504Y0347900D02*
Y0348000D01*
X0446500Y0346000D02*
X0446600D01*
X0450500D02*
X0451000Y0345500D01*
X0444500Y0344000D02*
X0446500Y0346000D01*
X0415957Y0210000D02*
Y0210957D01*
X0420500Y0215500D01*
X0403257Y0213900D02*
Y0219100D01*
X0401555Y0212199D02*
X0403257Y0213900D01*
X0386100Y0204700D02*
X0386700Y0205300D01*
X0389157D01*
X0389757Y0205900D01*
X0253350Y0357894D02*
X0258106D01*
X0338394Y0273850D02*
Y0278996D01*
X0340701Y0268000D02*
X0345500D01*
X0325346Y0276350D02*
X0326091Y0277095D01*
X0238807Y0298980D02*
Y0303350D01*
X0238492Y0298665D02*
X0238807Y0298980D01*
X0345866Y0484252D02*
X0347244Y0485630D01*
X0351181D01*
X0400500Y0379500D02*
X0403000Y0377000D01*
X0413000D01*
X0277500Y0330000D02*
X0281043D01*
X0346000Y0278500D02*
Y0280957D01*
X0345500Y0281457D02*
X0346000Y0280957D01*
X0468161Y0471311D02*
X0472441Y0475591D01*
X0464900Y0471311D02*
X0468161D01*
X0464370Y0469291D02*
X0464370D01*
X0464173Y0462500D02*
Y0469095D01*
X0422500Y0208957D02*
X0423543Y0210000D01*
X0428157Y0206000D02*
Y0215300D01*
X0426700Y0215500D02*
X0427800D01*
X0396500Y0225500D02*
Y0228457D01*
X0406014Y0295986D02*
X0409957Y0292043D01*
X0252894Y0351350D02*
X0261193D01*
X0261894Y0381894D02*
X0262500Y0382500D01*
X0502850Y0414807D02*
Y0419350D01*
X0297807Y0264350D02*
X0299850Y0262307D01*
X0316799Y0220291D02*
X0318850Y0222342D01*
X0344978Y0275565D02*
X0346000Y0276587D01*
X0446600Y0346000D02*
X0450500D01*
X0464457Y0355343D02*
X0465800Y0354000D01*
X0403740Y0515158D02*
X0406758Y0518175D01*
X0484500Y0432957D02*
X0485433Y0432024D01*
X0489500Y0432957D02*
X0489780Y0432677D01*
X0492717D01*
D69*
X0262992Y0407402D02*
Y0410008D01*
X0335996Y0322496D02*
X0336500D01*
X0228228Y0508272D02*
X0228478Y0508522D01*
X0231457Y0511500D01*
X0367500Y0367957D02*
X0370339Y0365118D01*
X0367500Y0367957D02*
Y0372500D01*
X0297193Y0352307D02*
X0298350D01*
X0286850Y0321807D02*
X0287000Y0321957D01*
X0285500Y0333000D02*
Y0336457D01*
X0294571Y0336323D02*
Y0341087D01*
X0285500Y0336457D02*
Y0336701D01*
X0435697Y0254500D02*
X0436197Y0254000D01*
X0501448Y0377448D02*
X0502622Y0378622D01*
X0505091Y0383193D02*
Y0387110D01*
X0487850Y0347894D02*
Y0353307D01*
X0493378Y0362071D02*
X0497130D01*
X0522894Y0355350D02*
X0523394Y0354850D01*
X0509323Y0362071D02*
X0514087D01*
X0440760Y0328740D02*
Y0329842D01*
X0487528Y0362071D02*
X0493378D01*
X0390000Y0246598D02*
X0390500Y0246098D01*
X0515122Y0366622D02*
X0517079D01*
X0487807Y0353350D02*
X0492394D01*
X0492850Y0352894D01*
X0283994Y0359500D02*
X0289000D01*
X0465500Y0399000D02*
Y0401000D01*
X0411043Y0340500D02*
X0411543Y0341000D01*
X0410000Y0341543D02*
X0411043Y0340500D01*
X0426051Y0285799D02*
Y0292051D01*
X0291610Y0243043D02*
Y0248791D01*
X0511500Y0372244D02*
X0511894Y0371850D01*
X0474500Y0371243D02*
Y0371543D01*
X0414350Y0449807D02*
X0414500Y0449957D01*
X0330543Y0333000D02*
Y0334500D01*
X0331543D02*
Y0339000D01*
X0309846Y0301154D02*
X0312250Y0298750D01*
X0316500Y0303000D01*
X0344000Y0372957D02*
X0345457D01*
X0453500Y0433457D02*
X0458500D01*
X0439800Y0318943D02*
X0440300D01*
X0440198Y0310800D02*
X0443143D01*
X0452500Y0326400D02*
X0453600Y0325300D01*
X0452257D02*
X0453600D01*
X0447943Y0329546D02*
X0448240Y0329842D01*
X0447943Y0325300D02*
Y0329546D01*
X0452257Y0325300D02*
X0452500Y0325543D01*
X0451957Y0325000D02*
X0452257Y0325300D01*
X0447943D02*
X0452257D01*
X0452500Y0325543D02*
Y0326400D01*
X0480000Y0367443D02*
Y0367443D01*
X0478872Y0368572D02*
X0480000Y0367443D01*
X0477128Y0368572D02*
X0478872D01*
X0474500Y0371200D02*
X0477128Y0368572D01*
X0474500Y0371200D02*
Y0371243D01*
X0476943Y0357300D02*
X0480000Y0360357D01*
X0476500Y0357300D02*
X0476943D01*
X0485100Y0364857D02*
X0485900Y0364057D01*
Y0361844D02*
Y0364057D01*
Y0361844D02*
X0486850Y0360894D01*
X0442192Y0206000D02*
X0442542Y0206350D01*
X0435243Y0206000D02*
X0442192D01*
X0434872Y0211560D02*
X0435243Y0211189D01*
Y0206000D02*
Y0211189D01*
X0434000Y0229400D02*
Y0232600D01*
X0431900Y0234700D02*
X0434000Y0232600D01*
X0426800Y0234700D02*
X0431900D01*
X0421600Y0247600D02*
X0421800D01*
X0419752Y0245752D02*
X0421600Y0247600D01*
X0422902Y0238598D02*
X0426800Y0234700D01*
X0524350Y0371894D02*
X0528307D01*
X0511894Y0371850D02*
X0524350D01*
X0500543Y0372850D02*
X0505850D01*
X0286772Y0328772D02*
X0289350Y0331350D01*
X0286500Y0329043D02*
Y0332000D01*
X0310350Y0344350D02*
X0314394D01*
X0315350Y0343394D01*
X0307850Y0346850D02*
X0310350Y0344350D01*
X0292307Y0354807D02*
X0294693D01*
X0302350Y0359850D02*
X0303307D01*
X0255543Y0514000D02*
X0257240Y0512303D01*
X0345693Y0449551D02*
X0346350Y0448894D01*
X0261933Y0347850D02*
X0264018D01*
X0245709Y0370495D02*
X0248706D01*
X0248000Y0350957D02*
X0248894Y0351850D01*
X0248000Y0346850D02*
Y0350957D01*
X0285850Y0312894D02*
X0290394Y0308350D01*
X0276264Y0312350D02*
X0286264D01*
X0285264Y0313350D02*
X0286264Y0312350D01*
X0264500Y0308500D02*
X0268500Y0312500D01*
X0309350Y0359850D02*
X0310394D01*
X0312345Y0348110D02*
X0313693D01*
X0492591Y0373634D02*
Y0378693D01*
X0330000Y0312400D02*
Y0317500D01*
X0343000Y0206000D02*
X0361000D01*
X0338000Y0201000D02*
X0343000Y0206000D01*
X0330500Y0201000D02*
X0338000D01*
X0418354Y0423350D02*
X0420504Y0425500D01*
X0424043D01*
X0429000Y0430457D01*
X0415543Y0451000D02*
X0417535D01*
X0418898Y0452362D01*
X0534850Y0442500D02*
X0540000D01*
X0467100Y0402600D02*
X0473000D01*
X0465500Y0401000D02*
X0467100Y0402600D01*
X0356291Y0251409D02*
X0356350Y0251350D01*
X0441575Y0257453D02*
X0441678Y0257556D01*
X0436197Y0254000D02*
X0441000D01*
X0426500Y0291500D02*
Y0291602D01*
X0429201Y0289244D02*
X0431957Y0292000D01*
X0429201Y0285799D02*
Y0289244D01*
X0247047Y0416535D02*
X0247441Y0416929D01*
X0264567D01*
X0233189Y0439189D02*
X0236126Y0442126D01*
X0233189Y0432441D02*
Y0439189D01*
X0236126Y0442126D02*
X0254528D01*
X0237500Y0400000D02*
X0241957D01*
X0235500Y0402000D02*
X0237500Y0400000D01*
X0259500Y0480500D02*
X0262500D01*
X0256000Y0484000D02*
X0259500Y0480500D01*
X0308000Y0358500D02*
X0309350Y0359850D01*
X0308000Y0352455D02*
Y0358500D01*
Y0352455D02*
X0312345Y0348110D01*
X0289000Y0351500D02*
X0292307Y0354807D01*
X0289000Y0339438D02*
Y0351500D01*
X0300394Y0342350D02*
Y0343350D01*
X0355944Y0512056D02*
X0359732Y0508268D01*
X0267795Y0419961D02*
Y0426221D01*
X0264764Y0416929D02*
X0267795Y0419961D01*
X0266957Y0483500D02*
X0267500Y0482957D01*
X0261500Y0483500D02*
X0266957D01*
X0256500Y0488500D02*
X0261500Y0483500D01*
X0257795Y0402839D02*
Y0407402D01*
X0255307Y0400350D02*
X0257795Y0402839D01*
X0389543Y0315500D02*
X0392000D01*
X0250000Y0332500D02*
X0253350Y0329150D01*
Y0324350D02*
Y0329150D01*
X0268414Y0348914D02*
Y0357414D01*
X0267287Y0347787D02*
X0268414Y0348914D01*
X0264081Y0347787D02*
X0267287D01*
X0251500Y0314400D02*
Y0322500D01*
X0291610Y0243043D02*
X0296500D01*
X0290500D02*
X0291610D01*
X0322350Y0283193D02*
Y0285150D01*
X0319500Y0288000D02*
X0322350Y0285150D01*
X0297000Y0255000D02*
X0298091Y0253909D01*
X0294000Y0255000D02*
X0297000D01*
X0292910Y0253909D02*
X0294000Y0255000D01*
X0298091Y0253909D02*
X0299091D01*
X0291610D02*
X0292910D01*
X0309846Y0301154D02*
Y0303346D01*
X0287000Y0321957D02*
X0289394Y0324350D01*
X0291350D01*
X0294571Y0332571D02*
Y0336323D01*
X0293350Y0331350D02*
X0294571Y0332571D01*
X0289350Y0331350D02*
X0293350D01*
X0296500Y0327500D02*
X0299689Y0330689D01*
X0285500Y0333000D02*
X0286500Y0332000D01*
X0313693Y0352350D02*
X0316850D01*
X0260910Y0355090D02*
X0262193D01*
X0253850Y0370394D02*
X0258350D01*
X0251807D02*
X0253850D01*
Y0363307D02*
X0258350D01*
X0261193Y0347110D02*
X0261933Y0347850D01*
X0270807Y0359807D02*
X0271850D01*
X0307850Y0346850D02*
Y0349650D01*
X0305193Y0352307D02*
X0307850Y0349650D01*
X0298350Y0352307D02*
X0305193D01*
X0330000Y0312000D02*
Y0312400D01*
X0299689Y0330689D02*
Y0334811D01*
X0301650Y0332850D02*
X0309307D01*
X0299689Y0334811D02*
X0301650Y0332850D01*
X0299689Y0334811D02*
Y0336323D01*
X0255350Y0303894D02*
Y0304850D01*
X0249232Y0372969D02*
X0251807Y0370394D01*
X0245795Y0372969D02*
X0249232D01*
X0233291Y0370409D02*
X0236850Y0366850D01*
X0289000Y0339438D02*
X0292012Y0336426D01*
X0251500Y0322500D02*
X0253350Y0324350D01*
X0264018Y0347850D02*
X0264081Y0347787D01*
X0292012Y0320378D02*
Y0323689D01*
X0291350Y0324350D02*
X0292012Y0323689D01*
Y0336323D02*
Y0336426D01*
X0240957Y0352000D02*
Y0355043D01*
X0239944Y0356056D02*
X0240957Y0355043D01*
X0296709Y0248791D02*
X0299091D01*
X0290000Y0243043D02*
X0290500D01*
X0289409Y0253909D02*
X0291610D01*
X0288350Y0252850D02*
X0289409Y0253909D01*
X0288350Y0249650D02*
Y0252850D01*
X0289209Y0248791D02*
X0291610D01*
X0288350Y0249650D02*
X0289209Y0248791D01*
X0255350Y0304850D02*
X0259000Y0308500D01*
X0440760Y0329842D02*
Y0331260D01*
X0443069Y0336000D02*
X0446000D01*
X0448500Y0334500D02*
X0451000D01*
X0448019Y0334019D02*
X0448500Y0334500D01*
X0443519Y0334019D02*
X0448019D01*
X0446000Y0336000D02*
X0448240Y0338240D01*
X0440760Y0338309D02*
X0443069Y0336000D01*
X0440760Y0338309D02*
Y0340158D01*
Y0331260D02*
X0443519Y0334019D01*
X0458953Y0326504D02*
X0459000D01*
X0451000Y0334500D02*
X0453000Y0332500D01*
Y0332457D02*
Y0332500D01*
X0448240Y0338240D02*
Y0340158D01*
X0443240Y0367000D02*
X0449000D01*
X0420457Y0378500D02*
X0426500Y0384543D01*
Y0385000D01*
X0272807Y0308894D02*
X0276264Y0312350D01*
X0241807Y0362350D02*
Y0365394D01*
X0366850Y0480854D02*
Y0486350D01*
X0368850Y0488350D01*
X0372307D01*
X0418500Y0260004D02*
Y0260504D01*
X0245795Y0365449D02*
Y0367850D01*
X0293307Y0342350D02*
X0294571Y0341087D01*
X0290394Y0308350D02*
X0290807D01*
X0250688Y0366469D02*
X0253850Y0363307D01*
X0250688Y0366469D02*
Y0368513D01*
X0229850Y0370409D02*
X0233291D01*
X0268414Y0357414D02*
X0270807Y0359807D01*
X0228716Y0375528D02*
X0229850D01*
X0254134Y0441732D02*
X0254528Y0442126D01*
X0445500Y0427957D02*
X0449602D01*
X0454252Y0423307D01*
X0456220D01*
X0267850Y0495307D02*
X0271311Y0498768D01*
X0276933D01*
X0278268Y0497433D01*
Y0492835D02*
Y0497433D01*
X0266850Y0506807D02*
X0267394D01*
X0240350Y0366850D02*
X0241807Y0365394D01*
X0248706Y0370495D02*
X0250688Y0368513D01*
X0225409Y0342590D02*
X0226590D01*
X0227787Y0343787D01*
X0236850Y0366850D02*
X0240350D01*
X0237645Y0356056D02*
X0239944D01*
X0245795Y0365449D02*
X0248894Y0362350D01*
X0529807Y0350350D02*
X0530307Y0349850D01*
X0532508Y0384610D02*
X0533591D01*
X0495110Y0305291D02*
X0497791D01*
X0498850Y0306350D01*
X0499909Y0305291D01*
X0487807Y0353350D02*
X0487850Y0353307D01*
X0493378Y0353421D02*
Y0359512D01*
X0492850Y0352894D02*
X0493378Y0353421D01*
X0497130Y0362071D02*
X0498850Y0360350D01*
X0497850Y0352894D02*
X0500894Y0349850D01*
X0486850Y0361394D02*
X0487528Y0362071D01*
X0493378Y0364630D02*
X0500571D01*
X0503130Y0362071D01*
X0498850Y0353894D02*
Y0360350D01*
X0497850Y0352894D02*
X0498850Y0353894D01*
Y0302894D02*
Y0306350D01*
X0497764Y0301807D02*
X0498850Y0302894D01*
X0489350Y0301807D02*
X0497764D01*
X0509323Y0364630D02*
X0513130D01*
X0515122Y0366622D01*
X0519850Y0361307D02*
Y0363850D01*
X0517079Y0366622D02*
X0519850Y0363850D01*
X0520807Y0357437D02*
Y0359850D01*
X0515807Y0355350D02*
X0515850Y0355394D01*
X0503350Y0388850D02*
X0505091Y0387110D01*
X0514087Y0362071D02*
X0515850Y0360307D01*
Y0355394D02*
Y0360307D01*
X0503130Y0362071D02*
X0509323D01*
X0499909Y0305291D02*
X0502591D01*
X0500894Y0349850D02*
X0506807D01*
X0520807Y0357437D02*
X0522894Y0355350D01*
X0519850Y0361307D02*
X0520807Y0360350D01*
X0523394Y0354850D02*
X0527807D01*
X0502350Y0310650D02*
X0502591Y0310409D01*
X0498850Y0306350D02*
Y0307850D01*
X0501409Y0310409D01*
X0502591D01*
X0495110D02*
X0497909D01*
X0356291Y0251409D02*
Y0256878D01*
X0404850Y0479846D02*
X0409350Y0484346D01*
X0513394Y0456850D02*
X0519850D01*
X0521850Y0454850D01*
Y0448350D02*
Y0454850D01*
X0520291Y0446791D02*
X0521850Y0448350D01*
X0515323Y0446791D02*
X0520291D01*
X0393839Y0348839D02*
X0394000Y0349000D01*
X0396398Y0337602D02*
X0396500Y0337500D01*
X0492591Y0393091D02*
X0493000Y0393500D01*
X0469000Y0369957D02*
X0474500Y0364457D01*
X0469000Y0369957D02*
Y0370043D01*
X0393543Y0354000D02*
X0394000Y0353543D01*
X0386161Y0316882D02*
Y0321575D01*
X0394000Y0349000D02*
Y0353543D01*
X0372898Y0365354D02*
X0375043Y0367500D01*
X0383602Y0316646D02*
Y0321575D01*
X0269957Y0312500D02*
X0273807Y0316350D01*
X0268500Y0312500D02*
X0269957D01*
X0259000Y0308500D02*
X0264500D01*
X0343750Y0379793D02*
X0344000Y0379543D01*
X0299350Y0342350D02*
X0300394D01*
X0293307D02*
Y0343350D01*
X0302350Y0359850D02*
X0303000Y0360500D01*
X0301500Y0356000D02*
Y0359000D01*
X0316850Y0352350D02*
X0318000Y0353500D01*
Y0359000D01*
X0400854Y0280146D02*
Y0285799D01*
X0349500Y0377000D02*
X0350457D01*
X0393457Y0364000D02*
X0393543Y0363913D01*
X0460000Y0263543D02*
Y0279500D01*
X0456500Y0283000D02*
X0460000Y0279500D01*
X0446000Y0283000D02*
X0456500D01*
X0419752Y0241705D02*
Y0245752D01*
X0422902Y0238598D02*
Y0241705D01*
X0401537Y0275037D02*
X0407154Y0280654D01*
Y0285799D01*
X0390000Y0246598D02*
X0391406Y0248004D01*
X0390402Y0246000D02*
X0390500Y0246098D01*
X0390000Y0246000D02*
X0390402D01*
X0390702Y0329298D02*
X0391280Y0328720D01*
X0435500Y0254303D02*
X0435697Y0254500D01*
X0435500Y0257453D02*
X0441575D01*
X0401537Y0272500D02*
Y0275037D01*
X0229000Y0352000D02*
Y0357000D01*
X0227787Y0350787D02*
X0229000Y0352000D01*
X0280850Y0362345D02*
Y0363150D01*
Y0362345D02*
X0283844Y0359350D01*
X0283994Y0359500D01*
X0298350Y0359394D02*
X0301894D01*
X0301500Y0359000D02*
X0301894Y0359394D01*
X0302350Y0359850D01*
X0247835Y0410630D02*
X0250705Y0413500D01*
X0259500D01*
X0262992Y0410008D01*
X0330000Y0317500D02*
X0335000Y0322500D01*
X0329500Y0331957D02*
X0330543Y0333000D01*
X0316500Y0303000D02*
X0318000D01*
X0326240Y0315008D02*
Y0318740D01*
X0329500Y0322000D01*
Y0331957D01*
X0319543Y0299000D02*
X0320500D01*
X0260350Y0299894D02*
X0260726D01*
X0262183Y0301350D01*
X0263850D01*
X0375457Y0355043D02*
X0375500Y0355000D01*
X0324008Y0352350D02*
X0324102Y0352444D01*
X0229000Y0357000D02*
X0231414Y0359414D01*
X0227787Y0343787D02*
Y0350787D01*
X0231414Y0359414D02*
X0234287D01*
X0237645Y0356056D01*
X0324102Y0352444D02*
X0328115D01*
X0328457Y0384000D02*
X0328957Y0384500D01*
X0426051Y0292051D02*
X0426500Y0291602D01*
X0375850Y0242394D02*
Y0246807D01*
X0376500Y0247457D01*
X0426051Y0239701D02*
Y0241705D01*
X0330000Y0307500D02*
Y0309600D01*
X0397705Y0285799D02*
Y0290205D01*
X0391280Y0321575D02*
Y0328720D01*
X0406696Y0286257D02*
X0407154Y0285799D01*
X0370339Y0360425D02*
Y0365118D01*
X0388543Y0314500D02*
X0389543Y0315500D01*
X0386161Y0316882D02*
X0388543Y0314500D01*
X0357543Y0338575D02*
Y0344543D01*
X0393543Y0354000D02*
Y0359000D01*
X0393839Y0343425D02*
Y0348839D01*
X0393543Y0359000D02*
Y0363913D01*
X0398957Y0343425D02*
Y0348957D01*
X0409500Y0359043D02*
X0410043D01*
X0372898Y0360425D02*
Y0365354D01*
X0370339Y0328205D02*
X0370543Y0328000D01*
X0381457Y0314500D02*
X0383602Y0316646D01*
X0397705Y0290205D02*
X0399500Y0292000D01*
X0361750Y0273847D02*
Y0280250D01*
Y0288250D02*
Y0292154D01*
Y0288250D02*
X0363000Y0287000D01*
X0359000Y0262500D02*
X0362000Y0259500D01*
X0374500D01*
X0376500Y0257500D01*
Y0254543D02*
Y0257500D01*
X0330000Y0307500D02*
X0335500Y0302000D01*
X0537957Y0403457D02*
X0539500Y0405000D01*
X0544043Y0401457D02*
Y0402500D01*
X0532508Y0392091D02*
X0541453D01*
X0542500Y0391043D01*
X0532000Y0413500D02*
X0534500Y0416000D01*
Y0416457D01*
X0536957Y0397500D02*
Y0402500D01*
X0540500Y0407500D02*
X0544000Y0411000D01*
X0545000Y0420043D02*
Y0423665D01*
X0530500Y0421500D02*
X0532457D01*
X0534500Y0423543D01*
X0545500Y0375500D02*
X0547000Y0377000D01*
Y0394543D01*
X0544043Y0397500D02*
X0547000Y0394543D01*
X0529445Y0492043D02*
X0529528Y0492126D01*
X0543831D02*
X0544000Y0491957D01*
X0543709Y0484252D02*
X0544000Y0484543D01*
X0529193Y0476043D02*
X0529528Y0476378D01*
X0357543Y0344543D02*
X0360500Y0347500D01*
X0546000Y0403413D02*
Y0403500D01*
X0539500Y0407500D02*
X0540500D01*
X0539500Y0405000D02*
Y0407500D01*
X0422902Y0285799D02*
Y0290795D01*
X0262500Y0480500D02*
X0264543Y0478457D01*
X0263500Y0464043D02*
Y0464500D01*
X0318000Y0359000D02*
X0321000Y0362000D01*
X0325000Y0356000D02*
X0328500D01*
X0367500Y0291043D02*
X0368000Y0291543D01*
Y0298500D01*
X0244000Y0470043D02*
Y0470500D01*
X0497850Y0390150D02*
Y0391850D01*
Y0390150D02*
X0499150Y0388850D01*
X0503350D01*
X0505850Y0372850D02*
X0507350Y0374350D01*
X0501448Y0376800D02*
Y0377448D01*
X0542043Y0383500D02*
X0542500Y0383957D01*
X0537750Y0383750D02*
X0541793D01*
X0537000Y0384500D02*
X0537750Y0383750D01*
X0453500Y0439000D02*
Y0439543D01*
X0451000Y0436500D02*
X0453500Y0439000D01*
X0450000Y0436500D02*
X0451000D01*
X0497909Y0310409D02*
X0498850Y0311350D01*
X0502350Y0310650D02*
Y0313307D01*
X0498850Y0311350D02*
Y0315350D01*
X0257240Y0509559D02*
Y0512303D01*
X0249760Y0504441D02*
Y0509559D01*
X0257240D01*
X0256043Y0514000D02*
Y0514457D01*
X0238543Y0511500D02*
X0244500D01*
X0246441Y0509559D01*
X0249760D01*
X0228228Y0508272D02*
X0228500Y0508000D01*
X0229000D01*
X0353500Y0392543D02*
X0354000Y0393043D01*
Y0398500D01*
X0355944Y0512056D02*
Y0514500D01*
X0414500Y0449957D02*
X0415543Y0451000D01*
X0409350Y0484346D02*
Y0491228D01*
X0406579Y0494000D02*
X0409350Y0491228D01*
X0416421Y0494000D02*
X0420457D01*
X0422500Y0491957D01*
X0411543Y0341000D02*
X0414000D01*
X0410043Y0359043D02*
X0413000Y0362000D01*
X0510894Y0367350D02*
X0511500Y0367957D01*
Y0372244D01*
X0510894Y0372850D02*
X0511500Y0372244D01*
X0340354Y0435350D02*
Y0435811D01*
X0375500Y0369043D02*
Y0372000D01*
X0295082Y0250418D02*
X0296709Y0248791D01*
X0295082Y0250418D02*
Y0250582D01*
X0495457Y0419000D02*
Y0424500D01*
X0505091Y0382109D02*
Y0383193D01*
Y0382109D02*
X0507350Y0379850D01*
Y0374350D02*
Y0379850D01*
X0283844Y0359350D02*
X0283888Y0358904D01*
X0283891Y0358875D02*
X0283894Y0358850D01*
X0283888Y0358904D02*
X0283891Y0358875D01*
X0321300Y0342200D02*
Y0344200D01*
X0321000Y0344500D02*
X0321300Y0344200D01*
Y0338200D02*
Y0339400D01*
Y0338200D02*
X0322000Y0337500D01*
X0248894Y0362350D02*
X0253350Y0357894D01*
X0443240Y0359000D02*
Y0364441D01*
X0456243Y0484040D02*
Y0491100D01*
X0398957Y0348957D02*
X0399000Y0349000D01*
X0250500Y0302000D02*
X0251500Y0303000D01*
Y0311600D01*
X0422902Y0290795D02*
Y0295158D01*
X0424900Y0297157D01*
X0503144Y0339600D02*
X0505100D01*
X0502350Y0340394D02*
X0503144Y0339600D01*
X0492591Y0389008D02*
Y0393091D01*
X0502350Y0313307D02*
X0505350Y0316307D01*
X0351291Y0256878D02*
Y0259791D01*
X0354000Y0262500D01*
X0359000D01*
X0372307Y0488350D02*
X0373307Y0489350D01*
X0362271Y0437772D02*
X0364720Y0440221D01*
X0353350Y0437772D02*
X0362271D01*
X0358943Y0442500D02*
X0359800D01*
X0361800Y0444500D01*
Y0446900D01*
X0263500Y0464043D02*
X0267543Y0460000D01*
X0384500Y0247500D02*
Y0249500D01*
X0386154Y0251153D01*
X0391406D01*
X0537957Y0402500D02*
Y0403457D01*
X0544000Y0411000D02*
Y0411957D01*
X0544357Y0419043D02*
X0544400D01*
X0540757Y0422643D02*
X0544178Y0419222D01*
X0544357Y0419043D01*
X0544000D02*
X0544178Y0419222D01*
X0532000Y0410287D02*
Y0413500D01*
Y0410287D02*
X0534937Y0407350D01*
X0346291Y0238059D02*
Y0242709D01*
X0341457Y0247543D02*
X0346291Y0242709D01*
X0359732Y0508268D02*
X0360630D01*
X0264543Y0478457D02*
X0273500D01*
X0328200Y0203300D02*
X0330500Y0201000D01*
X0328200Y0203300D02*
Y0208900D01*
X0334100Y0214800D02*
Y0219300D01*
X0328200Y0208900D02*
X0334100Y0214800D01*
X0532508Y0384500D02*
X0537000D01*
X0541793Y0383750D02*
X0542043Y0383500D01*
X0522850Y0350350D02*
X0529807D01*
X0474300Y0220200D02*
Y0227400D01*
Y0220200D02*
X0476600Y0217900D01*
X0475900Y0217200D02*
X0476600Y0217900D01*
X0539500Y0422643D02*
X0540757D01*
X0544178Y0419222D02*
X0545000Y0420043D01*
X0370339Y0328205D02*
Y0333723D01*
Y0338575D01*
X0544043Y0401457D02*
X0546000Y0403413D01*
X0252500Y0350957D02*
X0252894Y0351350D01*
X0270894Y0502394D02*
X0271350Y0502850D01*
D70*
X0208661Y0248031D02*
X0222669D01*
X0208661Y0255906D02*
X0226594D01*
X0258539Y0216311D02*
X0272890D01*
X0524047Y0271654D02*
X0539370D01*
X0208661Y0263779D02*
X0225780D01*
X0208661Y0271654D02*
X0222654D01*
X0529405Y0255906D02*
X0539370D01*
X0341693Y0212199D02*
Y0220073D01*
X0349567D01*
X0341291Y0220475D02*
Y0228913D01*
X0349567Y0212199D02*
Y0220073D01*
X0331693Y0394685D02*
X0337205D01*
X0321260Y0394882D02*
Y0399213D01*
X0528421Y0263779D02*
X0539370D01*
X0309539Y0243350D02*
Y0252350D01*
X0302165Y0393110D02*
X0311024D01*
X0321260Y0399213D02*
Y0406102D01*
X0311024D02*
X0321260D01*
X0457500Y0340996D02*
X0459000Y0339496D01*
X0457500Y0340996D02*
Y0345004D01*
X0354346Y0228850D02*
X0357854D01*
X0341291Y0220475D02*
X0341693Y0220073D01*
X0222850Y0306350D02*
X0225850D01*
X0218350Y0301850D02*
X0222850Y0306350D01*
X0222654Y0271654D02*
X0229756Y0278756D01*
X0231858D01*
X0337205Y0394685D02*
X0340709Y0398189D01*
Y0410827D01*
X0517945Y0277756D02*
X0524047Y0271654D01*
X0515842Y0277756D02*
X0517945D01*
X0222669Y0248031D02*
X0229256Y0241445D01*
X0231858D01*
X0527850Y0245850D02*
X0530031Y0248031D01*
X0468100Y0277756D02*
X0489858D01*
X0515842Y0265945D02*
X0526256D01*
X0528421Y0263779D01*
X0319350Y0243256D02*
X0319539Y0243445D01*
X0330850Y0255256D02*
X0331850D01*
X0330850Y0243445D02*
X0331850D01*
X0319539D02*
X0330850D01*
X0321850Y0255256D02*
X0330850D01*
X0272890Y0216311D02*
X0275661Y0213539D01*
X0280350D01*
X0225780Y0263779D02*
X0228945Y0266945D01*
X0231858D01*
X0226594Y0255906D02*
X0229244Y0253256D01*
X0231858D01*
X0526256Y0252756D02*
X0529405Y0255906D01*
X0515842Y0252756D02*
X0526256D01*
X0451996Y0349000D02*
X0456000D01*
Y0346000D02*
Y0349000D01*
X0471654Y0509854D02*
Y0513386D01*
X0458300Y0496500D02*
X0471654Y0509854D01*
X0515842Y0240945D02*
X0517945D01*
X0522850Y0245850D01*
X0527850D01*
X0530031Y0248031D02*
X0539370D01*
D71*
X0332150Y0369850D02*
X0337323D01*
X0422444Y0272556D02*
X0426000Y0269000D01*
X0379500Y0357957D02*
X0381000Y0359457D01*
X0373189Y0212199D02*
X0374199D01*
X0377100Y0215100D01*
X0388937Y0212199D02*
X0392900Y0216161D01*
X0386600Y0226400D02*
Y0228250D01*
X0391000Y0225000D02*
X0392900Y0223100D01*
X0373189Y0220073D02*
Y0221501D01*
X0384400Y0224610D02*
Y0228250D01*
Y0224610D02*
X0388937Y0220073D01*
X0431200Y0219800D02*
Y0220800D01*
X0434113Y0219800D02*
X0434872Y0219040D01*
X0435917D01*
X0264200Y0330750D02*
Y0332059D01*
X0262000Y0330750D02*
Y0332210D01*
X0260100Y0330750D02*
Y0332600D01*
X0222300Y0515000D02*
X0231400D01*
X0218300D02*
X0222300D01*
X0226950Y0526300D02*
X0231700D01*
X0222200D02*
X0226950D01*
X0207800Y0515000D02*
X0218300D01*
X0519000Y0522000D02*
X0521000D01*
X0507000D02*
X0513700D01*
X0344100Y0358250D02*
X0348250D01*
X0337323Y0367882D02*
X0340618D01*
X0367689Y0338484D02*
X0367779Y0338575D01*
X0377500Y0352000D02*
X0379500Y0354000D01*
X0371500Y0352000D02*
X0377500D01*
X0369000Y0354500D02*
X0371500Y0352000D01*
X0379500Y0354000D02*
Y0357957D01*
X0445500Y0271500D02*
Y0276000D01*
X0435701Y0273000D02*
X0442500D01*
X0435500Y0276350D02*
X0440500D01*
X0444051Y0270051D02*
X0445500Y0271500D01*
X0435500Y0273201D02*
X0435701Y0273000D01*
X0435500Y0270051D02*
X0444051D01*
X0386700Y0237700D02*
X0387500Y0238500D01*
X0268500Y0345000D02*
X0271110Y0347610D01*
X0267500Y0345000D02*
X0268500D01*
X0265000Y0342500D02*
X0267500Y0345000D01*
X0265000Y0337500D02*
Y0342500D01*
X0260100Y0332600D02*
X0265000Y0337500D01*
X0268640Y0338850D02*
X0271823D01*
X0262000Y0332210D02*
X0268640Y0338850D01*
X0269023Y0336882D02*
X0271823D01*
X0264200Y0332059D02*
X0269023Y0336882D01*
X0326091Y0283193D02*
Y0284090D01*
X0335879Y0358250D02*
X0337800D01*
X0367779Y0355720D02*
Y0360425D01*
X0362500Y0338736D02*
X0362661Y0338575D01*
X0377500Y0319500D02*
Y0327000D01*
X0372500Y0314500D02*
X0377500Y0319500D01*
X0375457Y0334543D02*
Y0338575D01*
X0374500Y0322500D02*
Y0327000D01*
X0297130Y0332130D02*
Y0336323D01*
X0293000Y0328000D02*
X0297130Y0332130D01*
X0293000Y0326500D02*
Y0328000D01*
Y0326500D02*
X0294571Y0324929D01*
Y0320378D02*
Y0324929D01*
X0340000Y0355500D02*
Y0358250D01*
X0322415Y0348610D02*
X0324008D01*
X0319800Y0351226D02*
X0322415Y0348610D01*
X0351056Y0365944D02*
X0352500Y0364500D01*
X0343913Y0361687D02*
X0344100Y0361500D01*
X0337323Y0369850D02*
X0340939D01*
X0330500Y0371500D02*
X0332150Y0369850D01*
X0333713Y0373787D02*
X0337323D01*
X0271110Y0347610D02*
X0272508D01*
X0331837Y0365913D02*
X0337323D01*
Y0371819D02*
X0343612D01*
X0388000Y0225000D02*
X0391000D01*
X0386600Y0226400D02*
X0388000Y0225000D01*
X0386457Y0359000D02*
Y0359500D01*
X0375457Y0355043D02*
Y0360425D01*
X0386700Y0231500D02*
Y0237700D01*
X0380400Y0231500D02*
Y0241500D01*
X0326091Y0284090D02*
X0327119Y0285119D01*
X0319800Y0351226D02*
Y0357300D01*
X0434043Y0512201D02*
X0434193Y0512350D01*
X0339500Y0364000D02*
X0340000Y0363500D01*
Y0361500D02*
Y0363500D01*
X0403457Y0358500D02*
X0404000Y0359043D01*
X0329000Y0364000D02*
X0339500D01*
X0327500Y0361500D02*
X0337800D01*
X0391406Y0257453D02*
X0396953D01*
X0383930Y0241371D02*
Y0242999D01*
X0387486Y0242174D02*
X0387500Y0242159D01*
X0382600Y0240041D02*
X0383930Y0241371D01*
X0384500Y0239159D02*
X0387500Y0242159D01*
X0382600Y0231500D02*
Y0240041D01*
X0384500Y0231500D02*
Y0239159D01*
X0396953Y0257453D02*
X0401486Y0261986D01*
X0418500Y0255504D02*
X0420996D01*
X0418500Y0260004D02*
X0419496D01*
X0431496Y0248004D01*
X0435500D01*
X0338740Y0289657D02*
Y0290760D01*
X0319000Y0295000D02*
X0321500D01*
X0324000Y0297500D01*
X0322500Y0301000D02*
X0323000D01*
X0324881Y0299119D01*
X0367779Y0355720D02*
X0369000Y0354500D01*
X0331679Y0354050D02*
X0335879Y0358250D01*
X0326807Y0467807D02*
Y0468850D01*
X0410087Y0275587D02*
X0423413D01*
X0427000Y0272000D01*
X0426000Y0269000D02*
X0429500D01*
X0431598Y0266902D01*
X0435500D01*
X0429201Y0241705D02*
Y0247299D01*
X0420996Y0255504D02*
X0429201Y0247299D01*
X0422444Y0272556D02*
X0422500D01*
X0370000Y0307457D02*
Y0316000D01*
X0367000Y0319000D02*
X0370000Y0316000D01*
X0341900Y0356100D02*
Y0358250D01*
Y0356100D02*
X0342500Y0355500D01*
X0348500D01*
X0365220Y0360425D02*
Y0364779D01*
Y0338575D02*
Y0346779D01*
X0367043Y0304500D02*
X0370000Y0307457D01*
X0362661Y0338575D02*
Y0343839D01*
X0401486Y0266986D02*
X0410087Y0275587D01*
X0401486Y0261986D02*
Y0266986D01*
X0386457Y0354000D02*
Y0359000D01*
X0351543Y0279000D02*
X0353000D01*
X0350500Y0277957D02*
X0351543Y0279000D01*
X0359250Y0269250D02*
Y0273847D01*
Y0269250D02*
X0361000Y0267500D01*
Y0265000D02*
Y0267500D01*
X0356500Y0273597D02*
X0356750Y0273847D01*
Y0265750D02*
Y0273847D01*
X0356500Y0265500D02*
X0356750Y0265750D01*
X0353000Y0279000D02*
X0353500Y0279500D01*
X0341000Y0283500D02*
X0342139Y0282361D01*
Y0278450D02*
Y0282361D01*
X0334850Y0280193D02*
Y0282350D01*
X0336000Y0283500D01*
X0341000D01*
X0350500Y0285043D02*
X0354043Y0281500D01*
X0358000D01*
X0361000Y0284500D01*
X0353500Y0279500D02*
X0361000D01*
X0327119Y0285119D02*
X0342076D01*
X0345500Y0288543D01*
X0367000Y0319000D02*
Y0331000D01*
X0367689Y0332652D02*
Y0338484D01*
Y0332652D02*
X0367779Y0332561D01*
Y0331780D02*
Y0332561D01*
X0367000Y0331000D02*
X0367779Y0331780D01*
X0348250Y0358250D02*
X0350500Y0360500D01*
X0348500Y0355500D02*
X0352500Y0359500D01*
Y0364500D01*
X0321378Y0365913D02*
X0327087D01*
X0329000Y0364000D01*
X0329750Y0368000D02*
X0331837Y0365913D01*
X0333000Y0374500D02*
X0333713Y0373787D01*
X0330500Y0371500D02*
Y0371556D01*
X0338500Y0354000D02*
X0340000Y0355500D01*
X0335923Y0354000D02*
X0338500D01*
X0331663Y0354050D02*
X0331679D01*
X0319800Y0357300D02*
X0321913Y0359413D01*
X0325413D01*
X0327500Y0361500D01*
X0375457Y0334543D02*
X0377500Y0332500D01*
X0374500Y0327000D02*
X0377500Y0330000D01*
Y0332500D01*
X0340618Y0367882D02*
X0341900Y0366600D01*
Y0361500D02*
Y0366600D01*
X0340939Y0369850D02*
X0343913Y0366877D01*
Y0361687D02*
Y0366877D01*
X0475039Y0418307D02*
X0477193D01*
X0479000Y0416500D01*
X0488500D01*
X0490500Y0418500D01*
Y0421500D01*
X0347500Y0365659D02*
Y0366000D01*
X0362500Y0344000D02*
X0362661Y0343839D01*
X0365000Y0347000D02*
X0365220Y0346779D01*
X0347000Y0366500D02*
X0347500Y0366000D01*
X0470400Y0400400D02*
X0473000D01*
X0468500Y0398500D02*
X0470400Y0400400D01*
X0468000Y0387000D02*
X0470500Y0384500D01*
X0433957Y0357000D02*
X0435957Y0359000D01*
X0425500Y0357000D02*
X0433957D01*
X0424000Y0355500D02*
X0425500Y0357000D01*
X0363500Y0366500D02*
X0365220Y0364779D01*
X0386161Y0353705D02*
X0386457Y0354000D01*
X0386161Y0343425D02*
Y0353705D01*
X0507000Y0522000D02*
Y0530000D01*
X0521000Y0522000D02*
Y0530000D01*
X0507000D02*
X0521000D01*
X0509800Y0522200D02*
Y0525200D01*
X0513700Y0522000D02*
Y0523800D01*
X0519000Y0522000D02*
Y0525000D01*
X0222200Y0526300D02*
Y0527800D01*
X0231700Y0526300D02*
Y0527800D01*
X0228100Y0526400D02*
Y0527700D01*
X0225000Y0526600D02*
Y0527800D01*
X0226950Y0524150D02*
Y0526300D01*
X0231400Y0515000D02*
Y0516400D01*
X0207800Y0515000D02*
Y0516500D01*
X0210500Y0515500D02*
Y0516300D01*
X0210300Y0515300D02*
X0210500Y0515500D01*
X0214300Y0515100D02*
Y0516200D01*
X0218300Y0515000D02*
Y0516300D01*
X0224900Y0515400D02*
Y0516400D01*
X0222300Y0515000D02*
Y0518100D01*
X0207800Y0512600D02*
Y0515000D01*
X0455040Y0476560D02*
X0456243D01*
X0452100Y0479500D02*
X0455040Y0476560D01*
X0452100Y0479500D02*
Y0494300D01*
X0450200Y0496200D02*
X0452100Y0494300D01*
X0446200Y0496200D02*
X0450200D01*
X0438100Y0491395D02*
X0439694D01*
X0439000Y0492400D02*
X0442400D01*
X0446200Y0496200D01*
X0398000Y0358500D02*
X0398500Y0359000D01*
X0264100Y0327500D02*
X0269500D01*
X0347500Y0365659D02*
X0350500Y0362659D01*
Y0360500D02*
Y0362659D01*
X0350968Y0365944D02*
X0351056D01*
X0269500Y0327500D02*
X0271000Y0326000D01*
X0277500D01*
X0261900Y0324200D02*
Y0327500D01*
X0257500Y0327200D02*
X0257800Y0327500D01*
X0257500Y0324300D02*
Y0327200D01*
X0260000Y0319700D02*
Y0327500D01*
Y0319700D02*
X0260111Y0319588D01*
X0263400Y0322700D02*
X0263500Y0322600D01*
X0261900Y0324200D02*
X0263400Y0322700D01*
X0363500Y0366500D02*
X0363900Y0366900D01*
Y0372300D01*
X0377500Y0327000D02*
X0381587Y0331087D01*
X0384572D02*
X0388720Y0326939D01*
X0381587Y0331087D02*
X0384572D01*
X0388720Y0321575D02*
Y0326939D01*
X0372500Y0310543D02*
Y0314500D01*
X0324881Y0299119D02*
X0334181D01*
X0334900Y0298400D01*
X0468000Y0387000D02*
Y0391500D01*
X0468500Y0392000D01*
Y0398500D01*
X0324000Y0297500D02*
X0328700D01*
X0331200Y0295000D01*
X0334500D01*
X0338740Y0290760D01*
X0348000Y0438100D02*
X0351300Y0441400D01*
X0419250Y0346500D02*
X0424000Y0351250D01*
Y0355500D01*
X0479957Y0206800D02*
X0490500D01*
X0477000Y0209757D02*
X0479957Y0206800D01*
X0430500Y0219800D02*
X0431200D01*
X0434113D01*
X0361000Y0279500D02*
X0361750Y0280250D01*
X0383602Y0343425D02*
Y0349398D01*
X0348000Y0426000D02*
Y0438100D01*
Y0426000D02*
X0350500Y0423500D01*
X0331057Y0347556D02*
X0333300Y0349799D01*
Y0351377D01*
X0335923Y0354000D01*
X0497500Y0210000D02*
X0500500D01*
X0504000Y0220500D02*
X0505000D01*
X0496500Y0215000D02*
X0500500D01*
X0501000Y0215500D02*
Y0219000D01*
X0513700Y0522000D02*
X0519000D01*
Y0527936D02*
Y0524000D01*
X0517032D01*
X0516376Y0524656D01*
Y0525312D01*
X0517032Y0525968D01*
X0519000D01*
X0517032D01*
X0516376Y0526624D01*
Y0527280D01*
X0517032Y0527936D01*
X0519000D01*
X0513096D02*
X0514408D01*
X0515064Y0527280D01*
Y0524656D01*
X0514408Y0524000D01*
X0513096D01*
X0512440Y0524656D01*
Y0527280D01*
X0513096Y0527936D01*
X0511129D02*
X0508505D01*
X0509817D01*
Y0524000D01*
X0230776Y0528000D02*
X0233400D01*
X0230776Y0530624D01*
Y0531280D01*
X0231432Y0531936D01*
X0232744D01*
X0233400Y0531280D01*
X0229464D02*
X0228808Y0531936D01*
X0227496D01*
X0226840Y0531280D01*
Y0528656D01*
X0227496Y0528000D01*
X0228808D01*
X0229464Y0528656D01*
Y0531280D01*
X0225529Y0528000D02*
X0224217D01*
X0224873D01*
Y0531936D01*
X0225529Y0531280D01*
X0222249Y0531936D02*
X0219625D01*
Y0531280D01*
X0222249Y0528656D01*
Y0528000D01*
X0231400Y0516400D02*
Y0520336D01*
X0229432D01*
X0228776Y0519680D01*
Y0518368D01*
X0229432Y0517712D01*
X0231400D01*
X0227464Y0520336D02*
Y0516400D01*
X0226152Y0517712D01*
X0224840Y0516400D01*
Y0520336D01*
X0223529Y0518368D02*
X0220905D01*
X0216969Y0519680D02*
X0217625Y0520336D01*
X0218937D01*
X0219593Y0519680D01*
Y0519024D01*
X0218937Y0518368D01*
X0217625D01*
X0216969Y0517712D01*
Y0517056D01*
X0217625Y0516400D01*
X0218937D01*
X0219593Y0517056D01*
X0215001Y0519024D02*
X0213689D01*
X0213033Y0518368D01*
Y0516400D01*
X0215001D01*
X0215657Y0517056D01*
X0215001Y0517712D01*
X0213033D01*
X0211065Y0519680D02*
Y0519024D01*
X0211721D01*
X0210409D01*
X0211065D01*
Y0517056D01*
X0210409Y0516400D01*
X0205818D02*
X0208441D01*
X0205818Y0519024D01*
Y0519680D01*
X0206474Y0520336D01*
X0207786D01*
X0208441Y0519680D01*
X0497500Y0211280D02*
X0496844Y0211936D01*
X0495532D01*
X0494876Y0211280D01*
Y0208656D01*
X0495532Y0208000D01*
X0496844D01*
X0497500Y0208656D01*
Y0211280D01*
X0497000Y0213500D02*
X0495688D01*
X0496344D01*
Y0217436D01*
X0497000Y0216780D01*
X0504876Y0222280D02*
X0505532Y0222936D01*
X0506844D01*
X0507500Y0222280D01*
Y0221624D01*
X0506844Y0220968D01*
X0505532D01*
X0504876Y0220312D01*
Y0219656D01*
X0505532Y0219000D01*
X0506844D01*
X0507500Y0219656D01*
X0503564Y0219000D02*
Y0222936D01*
X0500940Y0219000D01*
Y0222936D01*
D72*
X0280894Y0316350D02*
X0281937Y0317394D01*
X0481850Y0348850D02*
X0482350Y0348350D01*
X0494850Y0327937D02*
Y0329250D01*
X0271850Y0277150D02*
Y0278390D01*
Y0269350D02*
Y0277150D01*
X0281937Y0317394D02*
X0285350D01*
X0277394Y0293850D02*
Y0298850D01*
X0280350Y0301807D01*
X0288850Y0300437D02*
X0293350D01*
X0297850D01*
X0286850Y0264807D02*
X0288394Y0266350D01*
X0286850Y0261850D02*
Y0264807D01*
X0294350Y0266350D02*
X0297850Y0269850D01*
X0280350Y0301807D02*
Y0304394D01*
X0271850Y0278390D02*
X0271854Y0278394D01*
X0474394Y0321894D02*
X0477894Y0325394D01*
Y0327394D01*
X0477350Y0327937D02*
Y0331894D01*
Y0327937D02*
X0477894Y0327394D01*
X0485850Y0327937D02*
Y0330394D01*
X0486850Y0331394D01*
X0490350D01*
Y0327937D02*
Y0331394D01*
X0465850Y0323350D02*
X0467307Y0321894D01*
X0465850Y0323350D02*
Y0326850D01*
X0482350Y0344894D02*
Y0348350D01*
X0468850Y0296850D02*
Y0304894D01*
Y0305890D02*
X0468854Y0305894D01*
X0481350Y0296350D02*
X0482850Y0294850D01*
X0470350Y0303350D02*
X0474350D01*
X0477850Y0299850D01*
X0482350D01*
X0288394Y0266350D02*
X0294350D01*
X0297850Y0269850D02*
Y0293350D01*
X0482850Y0286894D02*
Y0294850D01*
X0482350Y0299850D02*
X0484807Y0297394D01*
X0490350D01*
X0271850Y0277150D02*
X0274500Y0274500D01*
X0277500D01*
X0286244Y0268500D02*
X0288394Y0266350D01*
X0287701Y0271500D02*
X0289307Y0269894D01*
X0293350D01*
X0275953Y0270496D02*
X0277949Y0268500D01*
X0277500Y0274500D02*
X0280500Y0271500D01*
X0287701D01*
X0277949Y0268500D02*
X0286244D01*
X0320500Y0299000D02*
X0322500Y0301000D01*
Y0304693D01*
X0259500Y0448457D02*
X0260457Y0447500D01*
X0259500Y0448457D02*
Y0450000D01*
X0494850Y0314350D02*
Y0320850D01*
X0490350Y0331394D02*
X0492706D01*
X0494850Y0329250D01*
X0472953Y0297996D02*
X0474598Y0296350D01*
X0481350D01*
X0260433Y0442520D02*
Y0446850D01*
D73*
X0437504Y0347500D02*
X0439004Y0349000D01*
X0319500Y0232295D02*
Y0234500D01*
X0341500Y0309500D02*
X0342500D01*
X0303791Y0225291D02*
Y0230291D01*
X0303850Y0230350D01*
X0343000Y0310008D02*
Y0312457D01*
X0204000Y0468500D02*
X0204004Y0468496D01*
X0443043Y0302543D02*
Y0304500D01*
X0439043Y0299500D02*
X0440000D01*
X0453000Y0339543D02*
X0453047Y0339496D01*
X0459000D01*
X0438256Y0463850D02*
X0438350Y0463945D01*
X0431850Y0463850D02*
X0438256D01*
X0413346Y0425850D02*
X0414847Y0424350D01*
X0417354D01*
X0418354Y0423350D01*
X0266850Y0220661D02*
X0268350Y0219161D01*
X0477941Y0252756D02*
X0489858D01*
X0280350Y0213539D02*
X0282661D01*
X0351181Y0473819D02*
X0354894D01*
X0204004Y0463000D02*
Y0468496D01*
X0397500Y0314043D02*
X0397543Y0314000D01*
X0417043Y0296051D02*
X0417992Y0297000D01*
X0417043Y0292000D02*
Y0292504D01*
X0449957Y0270000D02*
X0452500D01*
Y0272996D01*
X0453000Y0273496D01*
X0451453Y0258957D02*
X0453000Y0260504D01*
X0446500Y0258957D02*
X0451453D01*
X0260347Y0229850D02*
X0263843Y0226354D01*
X0266850D01*
Y0220661D02*
Y0226354D01*
X0210500Y0469000D02*
X0214500Y0473000D01*
X0352000Y0322496D02*
X0354453Y0320043D01*
X0257842Y0266945D02*
X0258787Y0266000D01*
X0339500Y0342500D02*
X0342996Y0339004D01*
X0385000Y0268047D02*
Y0270500D01*
X0358500Y0320043D02*
Y0323457D01*
X0417043Y0292504D02*
Y0296051D01*
X0397543Y0314000D02*
X0401500D01*
X0528394Y0431350D02*
X0528543Y0431201D01*
X0534457Y0432000D02*
X0538000D01*
X0533850Y0432043D02*
Y0436500D01*
X0533807Y0432000D02*
X0533850Y0432043D01*
X0439004Y0349000D02*
X0441500D01*
X0258787Y0266000D02*
X0268400D01*
X0273850Y0260550D01*
Y0258350D02*
Y0260550D01*
X0266450Y0239947D02*
X0267006Y0239708D01*
X0267850Y0239347D01*
X0341500Y0304496D02*
Y0309500D01*
X0336500Y0309504D02*
X0342496D01*
X0343000Y0310008D01*
X0354453Y0320043D02*
X0358500D01*
X0446000Y0266043D02*
X0449957Y0270000D01*
X0413000Y0297000D02*
X0417992D01*
X0319000Y0231795D02*
X0319500Y0232295D01*
X0440000Y0299500D02*
X0443043Y0302543D01*
X0450496Y0347500D02*
X0451996Y0349000D01*
D74*
X0377100Y0222300D02*
X0379800Y0225000D01*
X0377100Y0215100D02*
Y0222300D01*
X0392900Y0216161D02*
Y0223100D01*
X0381300Y0225000D02*
X0382600Y0226300D01*
X0379800Y0225000D02*
X0381300D01*
X0382600Y0226300D02*
Y0228250D01*
X0379688Y0228000D02*
X0380300D01*
X0373189Y0221501D02*
X0379688Y0228000D01*
D78*
X0539400Y0263874D02*
D03*
X0531526D02*
D03*
Y0248126D02*
D03*
X0539400Y0271748D02*
D03*
X0544813Y0280606D02*
D03*
X0526113D02*
D03*
X0526211Y0239268D02*
D03*
X0544912D02*
D03*
X0539400Y0248126D02*
D03*
Y0256000D02*
D03*
X0531526D02*
D03*
X0208626Y0255826D02*
D03*
X0216500D02*
D03*
Y0271574D02*
D03*
X0208626Y0247952D02*
D03*
X0203213Y0239094D02*
D03*
X0221913D02*
D03*
X0221815Y0280432D02*
D03*
X0203114D02*
D03*
X0208626Y0271574D02*
D03*
Y0263700D02*
D03*
X0216500D02*
D03*
X0405676Y0225487D02*
D03*
X0405676Y0206787D02*
D03*
X0396818Y0212200D02*
D03*
X0349574D02*
D03*
X0373196D02*
D03*
X0388944D02*
D03*
X0332842Y0225487D02*
D03*
Y0206787D02*
D03*
X0357448Y0220074D02*
D03*
X0341700D02*
D03*
X0357448Y0212200D02*
D03*
X0349574Y0220074D02*
D03*
X0365322Y0212200D02*
D03*
X0365322Y0220074D02*
D03*
X0381070Y0212200D02*
D03*
X0529528Y0476378D02*
D03*
X0537402D02*
D03*
X0529528Y0484252D02*
D03*
X0537402D02*
D03*
Y0468504D02*
D03*
X0542913Y0459646D02*
D03*
X0524213D02*
D03*
X0524114Y0508858D02*
D03*
X0542815D02*
D03*
X0537402Y0500000D02*
D03*
X0529528Y0468504D02*
D03*
Y0492126D02*
D03*
X0537402D02*
D03*
X0544850Y0318858D02*
D03*
X0526150D02*
D03*
X0535500Y0310000D02*
D03*
X0526150Y0293268D02*
D03*
X0544850D02*
D03*
X0203150Y0483368D02*
D03*
X0221850D02*
D03*
X0212500Y0492226D02*
D03*
X0221850Y0508958D02*
D03*
X0203150D02*
D03*
X0468132Y0206350D02*
D03*
Y0225050D02*
D03*
X0459274Y0215700D02*
D03*
X0442542Y0225050D02*
D03*
Y0206350D02*
D03*
D79*
X0531526Y0271748D02*
D03*
X0216500Y0247952D02*
D03*
X0529528Y0500000D02*
D03*
X0535500Y0302126D02*
D03*
X0212500Y0500100D02*
D03*
D80*
X0396818Y0220074D02*
D03*
X0381070D02*
D03*
X0373196D02*
D03*
X0388944D02*
D03*
D81*
X0341700Y0212200D02*
D03*
X0451400Y0215700D02*
D03*
D82*
X0226756Y0553655D02*
D03*
X0516762Y0553683D02*
D03*
D83*
X0526764Y0216165D02*
D03*
X0211756Y0216138D02*
D03*
D84*
X0246756Y0543655D02*
D03*
X0246758Y0523656D02*
D03*
D85*
X0246756Y0553655D02*
D03*
X0256756D02*
D03*
Y0543655D02*
D03*
X0266756Y0553655D02*
D03*
Y0543655D02*
D03*
X0276756Y0553655D02*
D03*
Y0543655D02*
D03*
X0286756Y0553655D02*
D03*
Y0543655D02*
D03*
X0336756D02*
D03*
Y0553655D02*
D03*
X0326756Y0543655D02*
D03*
Y0553655D02*
D03*
X0316756Y0543655D02*
D03*
Y0553655D02*
D03*
X0306756Y0543655D02*
D03*
Y0553655D02*
D03*
X0296756D02*
D03*
Y0543655D02*
D03*
X0386756D02*
D03*
Y0553655D02*
D03*
X0376756Y0543655D02*
D03*
Y0553655D02*
D03*
X0366756Y0543655D02*
D03*
Y0553655D02*
D03*
X0356756Y0543655D02*
D03*
Y0553655D02*
D03*
X0346756D02*
D03*
Y0543655D02*
D03*
X0436756D02*
D03*
Y0553655D02*
D03*
X0426756Y0543655D02*
D03*
Y0553655D02*
D03*
X0416756Y0543655D02*
D03*
Y0553655D02*
D03*
X0406756Y0543655D02*
D03*
Y0553655D02*
D03*
X0396756D02*
D03*
Y0543655D02*
D03*
X0486756D02*
D03*
Y0553655D02*
D03*
X0476756Y0543655D02*
D03*
Y0553655D02*
D03*
X0466756Y0543655D02*
D03*
Y0553655D02*
D03*
X0456756Y0543655D02*
D03*
Y0553655D02*
D03*
X0446756D02*
D03*
Y0543655D02*
D03*
X0496756Y0553655D02*
D03*
Y0543655D02*
D03*
X0246758Y0533656D02*
D03*
X0256758D02*
D03*
Y0523656D02*
D03*
X0266758Y0533656D02*
D03*
Y0523656D02*
D03*
X0276758Y0533656D02*
D03*
Y0523656D02*
D03*
X0286758Y0533656D02*
D03*
Y0523656D02*
D03*
X0336758D02*
D03*
Y0533656D02*
D03*
X0326758Y0523656D02*
D03*
Y0533656D02*
D03*
X0316758Y0523656D02*
D03*
Y0533656D02*
D03*
X0306758Y0523656D02*
D03*
Y0533656D02*
D03*
X0296758D02*
D03*
Y0523656D02*
D03*
X0386758D02*
D03*
Y0533656D02*
D03*
X0376758Y0523656D02*
D03*
Y0533656D02*
D03*
X0366758Y0523656D02*
D03*
Y0533656D02*
D03*
X0356758Y0523656D02*
D03*
Y0533656D02*
D03*
X0346758D02*
D03*
Y0523656D02*
D03*
X0436758D02*
D03*
Y0533656D02*
D03*
X0426758Y0523656D02*
D03*
Y0533656D02*
D03*
X0416758Y0523656D02*
D03*
Y0533656D02*
D03*
X0406758Y0523656D02*
D03*
Y0533656D02*
D03*
X0396758D02*
D03*
Y0523656D02*
D03*
X0486758D02*
D03*
Y0533656D02*
D03*
X0476758Y0523656D02*
D03*
Y0533656D02*
D03*
X0466758Y0523656D02*
D03*
Y0533656D02*
D03*
X0456758Y0523656D02*
D03*
Y0533656D02*
D03*
X0446758D02*
D03*
Y0523656D02*
D03*
X0496758Y0533656D02*
D03*
Y0523656D02*
D03*
D86*
X0457339Y0321379D02*
D03*
X0456100Y0330100D02*
D03*
X0440300Y0314600D02*
D03*
X0431900Y0315100D02*
D03*
X0452400Y0354000D02*
D03*
X0465700D02*
D03*
X0416500Y0249000D02*
D03*
X0413500Y0247004D02*
D03*
X0438300Y0244300D02*
D03*
X0434000Y0229400D02*
D03*
X0421800Y0247600D02*
D03*
X0513900Y0520800D02*
D03*
X0395250Y0298721D02*
D03*
X0382500Y0294500D02*
D03*
X0398500Y0300500D02*
D03*
X0428000Y0326000D02*
D03*
X0451000Y0288500D02*
D03*
X0453500Y0309000D02*
D03*
X0459500Y0301500D02*
D03*
X0391500Y0283000D02*
D03*
X0380500Y0284500D02*
D03*
X0332500Y0231000D02*
D03*
X0319500Y0234500D02*
D03*
X0508350Y0295850D02*
D03*
X0518000Y0296000D02*
D03*
X0510500D02*
D03*
X0341500Y0324000D02*
D03*
X0353558Y0314854D02*
D03*
X0342500Y0309500D02*
D03*
X0382409Y0354380D02*
D03*
X0540000Y0442500D02*
D03*
X0458268Y0465945D02*
D03*
X0334500Y0259944D02*
D03*
X0445500Y0276000D02*
D03*
X0442500Y0273000D02*
D03*
X0440500Y0276350D02*
D03*
X0441678Y0257556D02*
D03*
X0441000Y0254000D02*
D03*
X0438944Y0251000D02*
D03*
X0361000Y0206000D02*
D03*
X0426500Y0291500D02*
D03*
X0323500Y0484500D02*
D03*
X0319000Y0464000D02*
D03*
X0378500Y0437500D02*
D03*
X0238500Y0462500D02*
D03*
X0266500Y0385500D02*
D03*
X0270000Y0389000D02*
D03*
X0227000Y0415500D02*
D03*
X0234000Y0420000D02*
D03*
X0231000Y0455500D02*
D03*
X0242000Y0385500D02*
D03*
X0267500Y0248750D02*
D03*
X0274000Y0232500D02*
D03*
X0387500Y0238500D02*
D03*
X0253500Y0229000D02*
D03*
X0250000Y0420866D02*
D03*
X0264990Y0381981D02*
D03*
X0243500Y0291000D02*
D03*
X0248500Y0425500D02*
D03*
X0261500Y0488000D02*
D03*
X0236500Y0420000D02*
D03*
X0238000Y0408500D02*
D03*
X0238500Y0404500D02*
D03*
X0235500Y0402000D02*
D03*
X0252953Y0420866D02*
D03*
X0289000Y0502000D02*
D03*
X0341000Y0474500D02*
D03*
X0262500Y0431000D02*
D03*
X0292500Y0464500D02*
D03*
X0510500Y0495500D02*
D03*
X0471000Y0465500D02*
D03*
X0289000Y0413000D02*
D03*
X0288000Y0415000D02*
D03*
X0479500Y0411500D02*
D03*
X0222500Y0438000D02*
D03*
Y0436000D02*
D03*
X0294500Y0464500D02*
D03*
X0404000Y0499500D02*
D03*
X0378346Y0496850D02*
D03*
X0212500Y0391000D02*
D03*
Y0393000D02*
D03*
X0229500Y0411500D02*
D03*
X0256000Y0484000D02*
D03*
X0256500Y0488500D02*
D03*
Y0437500D02*
D03*
X0253500Y0433000D02*
D03*
Y0437500D02*
D03*
X0503000Y0287500D02*
D03*
X0292000Y0486000D02*
D03*
X0335000Y0474500D02*
D03*
X0327756Y0517323D02*
D03*
X0335236Y0516736D02*
D03*
X0295000Y0516000D02*
D03*
X0283500Y0517500D02*
D03*
X0270118Y0517717D02*
D03*
X0280000Y0483500D02*
D03*
X0417000Y0369500D02*
D03*
X0433000Y0353500D02*
D03*
X0305350Y0336850D02*
D03*
X0377500Y0314500D02*
D03*
X0392000Y0315500D02*
D03*
X0297000Y0217500D02*
D03*
X0305500Y0327500D02*
D03*
X0261500Y0343000D02*
D03*
X0262116Y0339050D02*
D03*
X0250000Y0210500D02*
D03*
X0247000D02*
D03*
X0319500Y0288000D02*
D03*
X0310500Y0265574D02*
D03*
X0334000Y0263500D02*
D03*
X0401500Y0314000D02*
D03*
X0383500Y0328500D02*
D03*
X0374500Y0322500D02*
D03*
X0296500Y0327500D02*
D03*
X0304850Y0269350D02*
D03*
X0242500Y0307000D02*
D03*
X0309846Y0303346D02*
D03*
X0222000Y0470500D02*
D03*
Y0468500D02*
D03*
X0237000Y0385500D02*
D03*
X0278806Y0341806D02*
D03*
X0397000Y0268500D02*
D03*
X0382831Y0255331D02*
D03*
X0403000Y0251000D02*
D03*
X0465551Y0399213D02*
D03*
X0469000Y0379000D02*
D03*
X0461811Y0389961D02*
D03*
X0454500Y0376500D02*
D03*
X0469000Y0376000D02*
D03*
X0454500Y0380500D02*
D03*
X0517500Y0406500D02*
D03*
X0515500Y0411000D02*
D03*
X0431850Y0463850D02*
D03*
X0418898Y0452362D02*
D03*
X0375350Y0230350D02*
D03*
Y0227350D02*
D03*
X0418500Y0260004D02*
D03*
X0286850Y0261850D02*
D03*
X0230198Y0382369D02*
D03*
X0324850Y0392350D02*
D03*
X0293350Y0303894D02*
D03*
X0481496Y0428740D02*
D03*
X0213350Y0366850D02*
D03*
X0282350Y0292894D02*
D03*
X0479350Y0320394D02*
D03*
X0482850Y0286894D02*
D03*
X0474850Y0289567D02*
D03*
X0514850Y0381350D02*
D03*
X0510350Y0393350D02*
D03*
X0510850Y0228307D02*
D03*
X0519850Y0295850D02*
D03*
X0353850Y0247850D02*
D03*
X0400350Y0484850D02*
D03*
X0484850Y0474350D02*
D03*
X0244350Y0485350D02*
D03*
X0386161Y0338161D02*
D03*
X0306043Y0303500D02*
D03*
X0343000Y0328000D02*
D03*
X0396500Y0337500D02*
D03*
X0394000Y0349000D02*
D03*
X0493000Y0393500D02*
D03*
X0490000Y0411000D02*
D03*
X0481500Y0400500D02*
D03*
X0415000Y0278504D02*
D03*
X0413000Y0297000D02*
D03*
X0385000Y0270500D02*
D03*
X0212000Y0411500D02*
D03*
X0421500Y0412000D02*
D03*
X0372000Y0248500D02*
D03*
X0380400Y0241500D02*
D03*
X0442850Y0238764D02*
D03*
X0442000Y0289043D02*
D03*
X0223500Y0424000D02*
D03*
Y0426000D02*
D03*
X0248000Y0471488D02*
D03*
X0233850Y0474850D02*
D03*
X0290000Y0500000D02*
D03*
X0301500Y0356000D02*
D03*
X0313500Y0305000D02*
D03*
X0338000Y0319000D02*
D03*
X0305500Y0339500D02*
D03*
Y0342000D02*
D03*
X0314000Y0379000D02*
D03*
X0288850Y0371850D02*
D03*
X0289500Y0368000D02*
D03*
X0323500Y0288500D02*
D03*
X0301500Y0366000D02*
D03*
X0400854Y0280146D02*
D03*
X0507000Y0489500D02*
D03*
X0509000D02*
D03*
X0417500Y0513500D02*
D03*
X0439000Y0506500D02*
D03*
X0386000Y0489000D02*
D03*
X0393000Y0334500D02*
D03*
X0354000Y0336000D02*
D03*
Y0340000D02*
D03*
X0402850Y0321500D02*
D03*
X0399888Y0326112D02*
D03*
X0526500Y0302500D02*
D03*
X0540567Y0323091D02*
D03*
X0399000Y0404850D02*
D03*
X0397000D02*
D03*
X0381110Y0404110D02*
D03*
X0525000Y0304000D02*
D03*
X0506000Y0408500D02*
D03*
X0503850Y0399150D02*
D03*
X0493000Y0398000D02*
D03*
X0507850Y0396850D02*
D03*
X0523500Y0442000D02*
D03*
X0446000Y0283000D02*
D03*
X0396500Y0225500D02*
D03*
X0383930Y0242999D02*
D03*
X0387500Y0242159D02*
D03*
X0409500Y0246500D02*
D03*
X0442500Y0250000D02*
D03*
Y0247500D02*
D03*
Y0245000D02*
D03*
X0534000Y0284500D02*
D03*
X0537500Y0288000D02*
D03*
X0390000Y0246000D02*
D03*
X0384500Y0247500D02*
D03*
X0390702Y0329298D02*
D03*
X0394085Y0330944D02*
D03*
X0366000Y0228000D02*
D03*
X0418500Y0255504D02*
D03*
X0408500Y0270000D02*
D03*
X0401537Y0272500D02*
D03*
X0289000Y0359500D02*
D03*
X0332500Y0330000D02*
D03*
X0323000Y0326500D02*
D03*
X0278500Y0346500D02*
D03*
X0261000Y0304500D02*
D03*
X0369000Y0354500D02*
D03*
X0375500Y0355000D02*
D03*
X0277850Y0264000D02*
D03*
X0337500Y0339000D02*
D03*
X0320500Y0329500D02*
D03*
X0322000Y0337500D02*
D03*
X0321000Y0344500D02*
D03*
X0339500Y0342500D02*
D03*
X0326500Y0344500D02*
D03*
X0328115Y0352444D02*
D03*
X0331057Y0347556D02*
D03*
X0332000Y0344000D02*
D03*
X0427000Y0272000D02*
D03*
X0413000Y0271000D02*
D03*
X0415500Y0266004D02*
D03*
X0421500Y0269000D02*
D03*
X0422500Y0272556D02*
D03*
X0380500Y0275500D02*
D03*
X0372500Y0272000D02*
D03*
X0455500Y0279500D02*
D03*
X0433000Y0339500D02*
D03*
X0433500Y0335944D02*
D03*
X0400500Y0226500D02*
D03*
X0365000Y0314843D02*
D03*
Y0295500D02*
D03*
X0399500Y0292000D02*
D03*
X0377000Y0293500D02*
D03*
X0372000Y0298500D02*
D03*
X0372500Y0279000D02*
D03*
X0352500Y0274000D02*
D03*
X0363000Y0287000D02*
D03*
X0361000Y0265000D02*
D03*
X0356500Y0265500D02*
D03*
X0361500Y0280500D02*
D03*
X0335500Y0302000D02*
D03*
X0326000Y0288500D02*
D03*
X0356750Y0284163D02*
D03*
X0537394Y0387894D02*
D03*
X0527850Y0397350D02*
D03*
X0531500Y0395500D02*
D03*
X0545000Y0423665D02*
D03*
X0523000Y0419500D02*
D03*
X0529000Y0417500D02*
D03*
X0535000Y0411500D02*
D03*
X0530500Y0421500D02*
D03*
X0545500Y0375500D02*
D03*
X0518500Y0472500D02*
D03*
Y0468500D02*
D03*
X0544000Y0474000D02*
D03*
X0523000Y0465500D02*
D03*
X0522500Y0481500D02*
D03*
X0534937Y0407350D02*
D03*
X0529000Y0324500D02*
D03*
X0431500Y0304500D02*
D03*
X0521054Y0422583D02*
D03*
X0540500Y0448000D02*
D03*
X0520000Y0235000D02*
D03*
X0256500Y0433000D02*
D03*
X0360500Y0347500D02*
D03*
X0492717Y0432677D02*
D03*
X0370000Y0264000D02*
D03*
X0545000Y0407500D02*
D03*
X0529850Y0401850D02*
D03*
X0539500Y0411500D02*
D03*
X0546000Y0403500D02*
D03*
X0539500Y0407500D02*
D03*
X0422902Y0290795D02*
D03*
X0421000Y0309000D02*
D03*
X0330500Y0232000D02*
D03*
X0262500Y0453000D02*
D03*
X0259500Y0450000D02*
D03*
X0364500Y0332500D02*
D03*
X0370276Y0333723D02*
D03*
X0263500Y0464500D02*
D03*
X0272500Y0408000D02*
D03*
X0355000Y0352500D02*
D03*
X0353500Y0356500D02*
D03*
X0329750Y0368000D02*
D03*
X0324000Y0390000D02*
D03*
X0326000Y0390500D02*
D03*
X0323500Y0386444D02*
D03*
X0325500Y0383000D02*
D03*
X0333000Y0374500D02*
D03*
X0330500Y0371556D02*
D03*
X0321000Y0362000D02*
D03*
X0336500Y0350500D02*
D03*
X0331663Y0354050D02*
D03*
X0328500Y0356000D02*
D03*
X0304500Y0313000D02*
D03*
X0305500Y0325000D02*
D03*
X0304500Y0318000D02*
D03*
Y0315500D02*
D03*
X0308423Y0317507D02*
D03*
X0305500Y0330000D02*
D03*
X0379000Y0495000D02*
D03*
X0368000Y0298500D02*
D03*
X0379000Y0336500D02*
D03*
X0338000Y0315000D02*
D03*
X0203500Y0360000D02*
D03*
X0204000Y0373000D02*
D03*
X0283500Y0447000D02*
D03*
X0274500Y0442500D02*
D03*
X0228350Y0377850D02*
D03*
X0233000Y0455350D02*
D03*
X0233500Y0471000D02*
D03*
X0244000Y0470500D02*
D03*
X0400000Y0330500D02*
D03*
X0399000Y0334500D02*
D03*
X0537750Y0383750D02*
D03*
X0431000Y0421500D02*
D03*
X0383071Y0504724D02*
D03*
X0490500Y0421500D02*
D03*
X0425000Y0362500D02*
D03*
X0432000Y0348000D02*
D03*
X0228000Y0504000D02*
D03*
X0362500Y0344000D02*
D03*
X0358514Y0350986D02*
D03*
X0362610Y0350419D02*
D03*
X0365000Y0347000D02*
D03*
X0368409Y0350909D02*
D03*
X0347000Y0366500D02*
D03*
X0229000Y0508000D02*
D03*
X0458000Y0395000D02*
D03*
X0460000Y0392500D02*
D03*
X0485433Y0428740D02*
D03*
X0481496Y0424409D02*
D03*
X0413000Y0498500D02*
D03*
X0413500Y0306500D02*
D03*
X0454500Y0384500D02*
D03*
X0416500Y0378500D02*
D03*
X0391500Y0515000D02*
D03*
X0388000Y0517500D02*
D03*
X0417000Y0363000D02*
D03*
X0421444Y0363444D02*
D03*
X0421000Y0367000D02*
D03*
X0489500Y0371957D02*
D03*
X0391000Y0295500D02*
D03*
X0390500Y0291500D02*
D03*
X0385724Y0299811D02*
D03*
X0379425Y0300075D02*
D03*
X0392000Y0300500D02*
D03*
X0375500Y0372000D02*
D03*
X0383000Y0349000D02*
D03*
X0485500Y0424500D02*
D03*
X0545400Y0502700D02*
D03*
X0393500Y0240500D02*
D03*
X0412400Y0205800D02*
D03*
X0386100Y0204700D02*
D03*
X0226900Y0524100D02*
D03*
X0207800Y0512600D02*
D03*
X0274000Y0446500D02*
D03*
X0268500Y0437611D02*
D03*
X0430709Y0425000D02*
D03*
X0378500Y0435500D02*
D03*
X0383000Y0434700D02*
D03*
X0323500Y0464500D02*
D03*
X0328201Y0463000D02*
D03*
X0379000Y0380000D02*
D03*
X0408000Y0373000D02*
D03*
X0382575Y0374325D02*
D03*
X0389000Y0375000D02*
D03*
X0398500Y0372500D02*
D03*
X0398000Y0358500D02*
D03*
X0399000Y0349000D02*
D03*
Y0354500D02*
D03*
X0391841Y0370341D02*
D03*
X0400500Y0379500D02*
D03*
X0395000Y0374500D02*
D03*
X0397500Y0379500D02*
D03*
X0388710Y0386790D02*
D03*
X0385724Y0369792D02*
D03*
X0379425Y0372425D02*
D03*
X0330000Y0302000D02*
D03*
X0309000Y0313000D02*
D03*
X0313300Y0426200D02*
D03*
X0315500Y0432000D02*
D03*
X0314000Y0430500D02*
D03*
X0488500Y0512500D02*
D03*
X0347500Y0362000D02*
D03*
X0350968Y0365944D02*
D03*
X0350500Y0369500D02*
D03*
X0341000Y0383500D02*
D03*
X0347309Y0380476D02*
D03*
X0354500Y0382000D02*
D03*
X0277000Y0334000D02*
D03*
X0277500Y0322000D02*
D03*
Y0326000D02*
D03*
Y0330000D02*
D03*
X0389300Y0349400D02*
D03*
X0371157Y0294700D02*
D03*
X0389300Y0336126D02*
D03*
X0374800Y0331200D02*
D03*
X0387800Y0332700D02*
D03*
X0355472Y0318528D02*
D03*
X0334900Y0298400D02*
D03*
X0338743Y0296857D02*
D03*
X0509307Y0339607D02*
D03*
X0400800Y0465500D02*
D03*
X0517409Y0427620D02*
D03*
X0535500Y0514900D02*
D03*
X0508757Y0513857D02*
D03*
X0447400Y0517400D02*
D03*
X0335500Y0233700D02*
D03*
X0341457Y0247543D02*
D03*
X0515000Y0425000D02*
D03*
X0474300Y0227400D02*
D03*
X0328000Y0213600D02*
D03*
X0334100Y0219300D02*
D03*
X0513800Y0339400D02*
D03*
X0518350Y0350350D02*
D03*
X0522850D02*
D03*
D87*
X0476500Y0357300D02*
D03*
X0408000Y0295986D02*
D03*
X0365500Y0517000D02*
D03*
X0470500Y0384500D02*
D03*
X0474500Y0383500D02*
D03*
X0487350Y0383850D02*
D03*
X0483000Y0394500D02*
D03*
X0481500Y0384000D02*
D03*
X0404004Y0290496D02*
D03*
X0277500Y0351000D02*
D03*
X0288091Y0355944D02*
D03*
X0371500Y0283957D02*
D03*
Y0287500D02*
D03*
X0346000Y0278500D02*
D03*
X0342139Y0278450D02*
D03*
X0334000Y0289000D02*
D03*
X0338000Y0288000D02*
D03*
X0359500Y0514000D02*
D03*
X0501448Y0376800D02*
D03*
X0494500Y0368500D02*
D03*
X0449550Y0440056D02*
D03*
X0450000Y0436500D02*
D03*
X0475000Y0283500D02*
D03*
X0408500Y0498500D02*
D03*
X0354000Y0398500D02*
D03*
X0355944Y0514500D02*
D03*
X0420500Y0464000D02*
D03*
X0406000Y0305500D02*
D03*
X0410000Y0306000D02*
D03*
X0470500Y0389000D02*
D03*
X0459000Y0386500D02*
D03*
X0406421Y0423500D02*
D03*
X0407000Y0447500D02*
D03*
X0414500Y0445956D02*
D03*
X0418000Y0499043D02*
D03*
X0344000Y0465000D02*
D03*
X0416014Y0344014D02*
D03*
X0415500Y0348000D02*
D03*
X0419250Y0346500D02*
D03*
X0414000Y0341000D02*
D03*
X0473000Y0387000D02*
D03*
X0415500Y0359000D02*
D03*
X0413000Y0362000D02*
D03*
X0418500Y0353000D02*
D03*
X0416000Y0355768D02*
D03*
X0458000Y0473000D02*
D03*
X0354000Y0423500D02*
D03*
X0350500Y0419500D02*
D03*
Y0423500D02*
D03*
X0360528Y0371000D02*
D03*
X0367000Y0381000D02*
D03*
X0310000Y0485500D02*
D03*
X0295082Y0250582D02*
D03*
X0420500Y0516000D02*
D03*
X0400854Y0238300D02*
D03*
X0418100Y0219100D02*
D03*
X0417100Y0463400D02*
D03*
X0408000Y0363500D02*
D03*
X0367500Y0372500D02*
D03*
X0366600Y0377800D02*
D03*
X0356000Y0373000D02*
D03*
X0360691Y0380476D02*
D03*
X0360500Y0377000D02*
D03*
X0257500Y0324300D02*
D03*
X0260111Y0319588D02*
D03*
X0263400Y0322700D02*
D03*
X0363900Y0372300D02*
D03*
X0363853Y0379525D02*
D03*
X0350800Y0289000D02*
D03*
X0351100Y0292700D02*
D03*
D88*
X0490500Y0206800D02*
D03*
X0487700Y0215857D02*
D03*
X0487600Y0213200D02*
D03*
X0483500Y0222500D02*
D03*
X0480900D02*
D03*
X0484800Y0227200D02*
D03*
X0455300Y0206200D02*
D03*
X0431200Y0220800D02*
D03*
X0460700Y0227300D02*
D03*
X0451000Y0225300D02*
D03*
X0340059Y0446457D02*
D03*
X0333957Y0446516D02*
D03*
Y0451516D02*
D03*
X0340059Y0451575D02*
D03*
X0459134Y0451909D02*
D03*
X0465236Y0451968D02*
D03*
Y0446850D02*
D03*
X0459134Y0446909D02*
D03*
X0472854Y0312228D02*
D03*
Y0316559D02*
D03*
X0477185Y0312228D02*
D03*
Y0316559D02*
D03*
X0481516Y0312228D02*
D03*
Y0316559D02*
D03*
X0485847Y0312228D02*
D03*
Y0316559D02*
D03*
X0284516Y0289059D02*
D03*
X0280185D02*
D03*
X0275854Y0284728D02*
D03*
Y0289059D02*
D03*
X0280185Y0284728D02*
D03*
X0284516D02*
D03*
X0288846D02*
D03*
Y0289059D02*
D03*
X0436500Y0328500D02*
D03*
X0423500Y0327000D02*
D03*
X0451500Y0295000D02*
D03*
X0501850Y0296850D02*
D03*
X0267850Y0254307D02*
D03*
X0261850Y0257350D02*
D03*
X0267850Y0260307D02*
D03*
X0261850Y0249350D02*
D03*
X0273850Y0241850D02*
D03*
X0262850Y0253350D02*
D03*
X0267850Y0257307D02*
D03*
X0500787Y0453740D02*
D03*
Y0457677D02*
D03*
X0356350Y0251350D02*
D03*
X0337350Y0256350D02*
D03*
X0441500Y0264500D02*
D03*
X0270500Y0396500D02*
D03*
X0267500D02*
D03*
X0269000Y0394000D02*
D03*
X0242846Y0233756D02*
D03*
X0262350Y0393350D02*
D03*
X0351181Y0489567D02*
D03*
Y0477756D02*
D03*
X0254500Y0475000D02*
D03*
X0259500Y0494500D02*
D03*
X0262000D02*
D03*
X0321654Y0453150D02*
D03*
X0265350Y0351350D02*
D03*
X0244277Y0316450D02*
D03*
X0241777Y0319950D02*
D03*
X0264350Y0313850D02*
D03*
X0261350D02*
D03*
X0258350D02*
D03*
X0267850Y0320394D02*
D03*
Y0323394D02*
D03*
X0209850Y0319850D02*
D03*
Y0322850D02*
D03*
X0287850Y0203850D02*
D03*
X0310850Y0202350D02*
D03*
X0219500Y0316000D02*
D03*
X0241777Y0312450D02*
D03*
Y0314950D02*
D03*
X0262350Y0396350D02*
D03*
X0287500Y0388500D02*
D03*
X0204000Y0468500D02*
D03*
X0220350Y0296818D02*
D03*
X0234500Y0215500D02*
D03*
X0232000Y0216500D02*
D03*
X0269350Y0316350D02*
D03*
X0263350Y0278350D02*
D03*
X0237350Y0370850D02*
D03*
X0243350Y0332350D02*
D03*
X0302850Y0236850D02*
D03*
X0460500Y0333500D02*
D03*
X0430000Y0374000D02*
D03*
X0449000Y0367000D02*
D03*
X0426500Y0385000D02*
D03*
X0419500Y0331500D02*
D03*
X0415500Y0332500D02*
D03*
X0366339Y0432283D02*
D03*
X0430709Y0411614D02*
D03*
Y0416339D02*
D03*
X0428740Y0452559D02*
D03*
Y0446260D02*
D03*
X0438976Y0439173D02*
D03*
X0397850Y0425850D02*
D03*
X0309350Y0289350D02*
D03*
X0308350Y0286850D02*
D03*
X0305850D02*
D03*
X0288350Y0231850D02*
D03*
X0276850Y0241850D02*
D03*
X0304350Y0251394D02*
D03*
X0275953Y0304791D02*
D03*
X0271850Y0284394D02*
D03*
Y0288894D02*
D03*
X0262350Y0282350D02*
D03*
X0280350Y0304394D02*
D03*
X0297850Y0397850D02*
D03*
X0331693Y0394685D02*
D03*
X0297850Y0400850D02*
D03*
X0293850Y0284894D02*
D03*
Y0289394D02*
D03*
X0202350Y0296850D02*
D03*
X0225850Y0306350D02*
D03*
X0229850Y0293350D02*
D03*
X0225350D02*
D03*
X0271850Y0202350D02*
D03*
X0268350D02*
D03*
X0264850D02*
D03*
X0239350Y0263850D02*
D03*
X0239277Y0316450D02*
D03*
X0241777Y0317450D02*
D03*
X0302362Y0438779D02*
D03*
X0274410Y0419685D02*
D03*
X0271654D02*
D03*
X0277165D02*
D03*
X0302362Y0452165D02*
D03*
Y0445866D02*
D03*
X0320866Y0505905D02*
D03*
X0329528Y0503937D02*
D03*
X0348031Y0514567D02*
D03*
X0320472Y0493307D02*
D03*
X0351181Y0493504D02*
D03*
X0387008Y0426772D02*
D03*
X0502953Y0508858D02*
D03*
X0399850Y0410850D02*
D03*
X0448032Y0453543D02*
D03*
X0450787Y0504921D02*
D03*
X0477559Y0501772D02*
D03*
X0500787Y0449803D02*
D03*
X0496654Y0436614D02*
D03*
Y0432677D02*
D03*
X0292520Y0451968D02*
D03*
X0312598Y0438779D02*
D03*
Y0445866D02*
D03*
X0321654Y0439370D02*
D03*
Y0446260D02*
D03*
X0312598Y0452559D02*
D03*
X0447244Y0492717D02*
D03*
X0304331Y0415945D02*
D03*
X0448032Y0446654D02*
D03*
X0438976Y0452953D02*
D03*
Y0446260D02*
D03*
X0304331Y0424606D02*
D03*
Y0411221D02*
D03*
X0370276Y0432283D02*
D03*
X0353937Y0428543D02*
D03*
X0370079Y0435827D02*
D03*
X0395669Y0424409D02*
D03*
X0210850Y0343850D02*
D03*
X0209850Y0331850D02*
D03*
Y0328850D02*
D03*
Y0325850D02*
D03*
Y0316850D02*
D03*
Y0313850D02*
D03*
Y0310850D02*
D03*
X0242846Y0225756D02*
D03*
X0219850Y0330850D02*
D03*
X0209850Y0346350D02*
D03*
X0246850Y0356350D02*
D03*
X0240850Y0328350D02*
D03*
X0229350Y0322350D02*
D03*
X0468269Y0344408D02*
D03*
X0277850Y0230350D02*
D03*
X0472953Y0332291D02*
D03*
X0477350Y0331894D02*
D03*
X0490350Y0331394D02*
D03*
X0496850Y0287394D02*
D03*
X0502350Y0343394D02*
D03*
Y0346394D02*
D03*
X0468850Y0316394D02*
D03*
X0502850Y0276350D02*
D03*
Y0279350D02*
D03*
Y0282350D02*
D03*
X0507850Y0231850D02*
D03*
X0465350Y0235850D02*
D03*
Y0232850D02*
D03*
X0463350Y0285350D02*
D03*
X0465350Y0287350D02*
D03*
X0484350Y0240350D02*
D03*
X0488850Y0234350D02*
D03*
X0485350Y0244850D02*
D03*
X0482850Y0262850D02*
D03*
X0482846Y0265756D02*
D03*
X0482850Y0268850D02*
D03*
X0518350Y0283850D02*
D03*
X0468850Y0312350D02*
D03*
X0502350Y0340394D02*
D03*
X0511350Y0329850D02*
D03*
X0513850D02*
D03*
X0543350Y0347350D02*
D03*
X0542850Y0341350D02*
D03*
X0540850Y0367850D02*
D03*
X0342850Y0232850D02*
D03*
X0339850D02*
D03*
X0299850Y0259894D02*
D03*
X0373622Y0433858D02*
D03*
X0351181Y0473819D02*
D03*
X0375984Y0470866D02*
D03*
X0488350Y0468350D02*
D03*
X0510350Y0476350D02*
D03*
X0500787Y0461614D02*
D03*
X0511350Y0434850D02*
D03*
X0243850Y0489850D02*
D03*
X0227500Y0497500D02*
D03*
X0247500Y0477000D02*
D03*
X0351181Y0481693D02*
D03*
X0396850Y0410850D02*
D03*
X0393850D02*
D03*
X0420000Y0401500D02*
D03*
X0420147Y0399000D02*
D03*
X0415500Y0400000D02*
D03*
X0471654Y0513386D02*
D03*
X0448000Y0363500D02*
D03*
Y0370500D02*
D03*
X0466350Y0252850D02*
D03*
X0469350D02*
D03*
X0205500Y0426500D02*
D03*
X0243350Y0263850D02*
D03*
X0313350Y0203850D02*
D03*
X0248850Y0287350D02*
D03*
X0241846Y0229756D02*
D03*
X0210500Y0469000D02*
D03*
X0206500Y0476000D02*
D03*
X0252000Y0473500D02*
D03*
X0204500Y0452000D02*
D03*
X0257000Y0494500D02*
D03*
X0258000Y0497000D02*
D03*
X0260500D02*
D03*
X0236500Y0501500D02*
D03*
X0240000D02*
D03*
X0304350Y0254394D02*
D03*
X0309350Y0260850D02*
D03*
X0293350Y0269894D02*
D03*
X0310000Y0379000D02*
D03*
X0302500Y0370500D02*
D03*
X0477500Y0485000D02*
D03*
Y0481500D02*
D03*
X0384500Y0494500D02*
D03*
X0471654Y0517035D02*
D03*
X0503500Y0431500D02*
D03*
X0508850Y0435850D02*
D03*
X0500787Y0441929D02*
D03*
Y0445866D02*
D03*
X0304350Y0248394D02*
D03*
X0313350Y0286850D02*
D03*
X0309850Y0284350D02*
D03*
X0310850Y0286850D02*
D03*
X0477559Y0478150D02*
D03*
X0540500Y0438500D02*
D03*
X0510000Y0452000D02*
D03*
X0527000Y0449500D02*
D03*
X0218595Y0285500D02*
D03*
X0209500Y0476000D02*
D03*
X0232850Y0353350D02*
D03*
X0230850Y0346850D02*
D03*
X0231350Y0349850D02*
D03*
X0232850Y0356350D02*
D03*
X0422500Y0206000D02*
D03*
X0267350Y0363850D02*
D03*
X0251500Y0498000D02*
D03*
X0236500Y0516000D02*
D03*
X0241000D02*
D03*
X0441500Y0354000D02*
D03*
X0461350Y0283350D02*
D03*
X0538000Y0432000D02*
D03*
X0541000D02*
D03*
X0540850Y0364850D02*
D03*
X0500591Y0436614D02*
D03*
X0507500Y0431000D02*
D03*
X0444500Y0300000D02*
D03*
X0333500Y0392500D02*
D03*
X0335500Y0390500D02*
D03*
X0477500Y0498500D02*
D03*
Y0495500D02*
D03*
X0477559Y0505709D02*
D03*
X0351500Y0497000D02*
D03*
X0385500D02*
D03*
X0387000Y0494500D02*
D03*
X0388000Y0497000D02*
D03*
X0389500Y0494500D02*
D03*
X0203000Y0381500D02*
D03*
Y0378000D02*
D03*
X0235850Y0484850D02*
D03*
X0243850Y0478850D02*
D03*
X0441500Y0349000D02*
D03*
X0449000Y0402000D02*
D03*
X0503350Y0330350D02*
D03*
X0490350Y0312350D02*
D03*
Y0316850D02*
D03*
X0508850Y0329850D02*
D03*
X0494850Y0314350D02*
D03*
X0542350Y0359850D02*
D03*
X0417500Y0335500D02*
D03*
X0262000Y0514000D02*
D03*
Y0511000D02*
D03*
X0478500Y0449500D02*
D03*
X0477559Y0474213D02*
D03*
X0474500Y0457500D02*
D03*
X0380709Y0474803D02*
D03*
X0357087Y0447244D02*
D03*
X0444500Y0344000D02*
D03*
X0352165Y0447244D02*
D03*
X0363350Y0410850D02*
D03*
X0211000Y0336500D02*
D03*
X0446600Y0346000D02*
D03*
X0383858Y0426772D02*
D03*
X0390158D02*
D03*
X0395850Y0427350D02*
D03*
X0351181Y0485630D02*
D03*
X0304331Y0429331D02*
D03*
X0442913Y0504921D02*
D03*
X0382480Y0484842D02*
D03*
X0519354Y0334850D02*
D03*
X0503850Y0231850D02*
D03*
D89*
X0468350Y0242350D02*
D03*
X0303500Y0224500D02*
D03*
X0514957Y0420457D02*
D03*
X0271850Y0269350D02*
D03*
X0468850Y0296850D02*
D03*
X0465350Y0242350D02*
D03*
X0502350Y0356850D02*
D03*
X0504350Y0354850D02*
D03*
X0502350Y0353850D02*
D03*
X0479850Y0292850D02*
D03*
X0271000Y0503000D02*
D03*
X0275953Y0270496D02*
D03*
X0282850Y0265350D02*
D03*
X0472953Y0297996D02*
D03*
D90*
X0221150Y0347350D02*
D03*
X0224350D02*
D03*
X0283350Y0219350D02*
D03*
D91*
X0220000Y0326000D02*
D03*
X0264500Y0272500D02*
D03*
X0250500Y0302000D02*
D03*
X0292350Y0350350D02*
D03*
Y0347350D02*
D03*
X0285350Y0317394D02*
D03*
X0482350Y0344894D02*
D03*
X0519850Y0260350D02*
D03*
X0530350Y0362307D02*
D03*
X0490350Y0297394D02*
D03*
X0451500Y0256500D02*
D03*
X0452500Y0270000D02*
D03*
X0305500Y0379000D02*
D03*
X0523850Y0260350D02*
D03*
X0417000Y0206000D02*
D03*
X0454000Y0256500D02*
D03*
X0498850Y0315350D02*
D03*
X0530350Y0366850D02*
D03*
X0507500Y0210000D02*
D03*
X0500500D02*
D03*
X0507500Y0215000D02*
D03*
X0504000D02*
D03*
X0500500D02*
D03*
X0504000Y0210000D02*
D03*
D94*
X0509323Y0367189D02*
D03*
Y0364630D02*
D03*
Y0362071D02*
D03*
Y0359512D02*
D03*
X0493378Y0367189D02*
D03*
Y0364630D02*
D03*
Y0362071D02*
D03*
Y0359512D02*
D03*
X0245795Y0375528D02*
D03*
Y0372969D02*
D03*
Y0370409D02*
D03*
Y0367850D02*
D03*
X0229850Y0375528D02*
D03*
Y0372969D02*
D03*
Y0370409D02*
D03*
Y0367850D02*
D03*
D95*
X0321378Y0365913D02*
D03*
Y0367882D02*
D03*
Y0369850D02*
D03*
Y0371819D02*
D03*
Y0373787D02*
D03*
X0337323Y0365913D02*
D03*
Y0367882D02*
D03*
Y0369850D02*
D03*
Y0371819D02*
D03*
Y0373787D02*
D03*
X0255878Y0334913D02*
D03*
Y0336882D02*
D03*
Y0338850D02*
D03*
Y0340819D02*
D03*
Y0342787D02*
D03*
X0271823Y0334913D02*
D03*
Y0336882D02*
D03*
Y0338850D02*
D03*
Y0340819D02*
D03*
Y0342787D02*
D03*
X0511323Y0409287D02*
D03*
Y0407319D02*
D03*
Y0405350D02*
D03*
Y0403382D02*
D03*
Y0401413D02*
D03*
X0495378Y0409287D02*
D03*
Y0407319D02*
D03*
Y0405350D02*
D03*
Y0403382D02*
D03*
Y0401413D02*
D03*
D96*
X0394850Y0460429D02*
D03*
Y0470272D02*
D03*
X0359500Y0437421D02*
D03*
Y0427579D02*
D03*
X0339350Y0466772D02*
D03*
Y0456929D02*
D03*
D97*
X0416421Y0494000D02*
D03*
X0406579D02*
D03*
D98*
X0397705Y0285799D02*
D03*
X0400854D02*
D03*
X0404004D02*
D03*
X0407154D02*
D03*
X0410303D02*
D03*
X0413453D02*
D03*
X0416602D02*
D03*
X0419752D02*
D03*
X0422902D02*
D03*
X0426051D02*
D03*
X0429201D02*
D03*
Y0241705D02*
D03*
X0426051D02*
D03*
X0422902D02*
D03*
X0419752D02*
D03*
X0416602D02*
D03*
X0413453D02*
D03*
X0410303D02*
D03*
X0407154D02*
D03*
X0404004D02*
D03*
X0400854D02*
D03*
X0397705D02*
D03*
D99*
X0435500Y0279500D02*
D03*
Y0276350D02*
D03*
Y0273201D02*
D03*
Y0270051D02*
D03*
Y0266902D02*
D03*
Y0263752D02*
D03*
Y0260602D02*
D03*
Y0257453D02*
D03*
Y0254303D02*
D03*
Y0251153D02*
D03*
Y0248004D02*
D03*
X0391406D02*
D03*
Y0251153D02*
D03*
Y0254303D02*
D03*
Y0257453D02*
D03*
Y0260602D02*
D03*
Y0263752D02*
D03*
Y0266902D02*
D03*
Y0270051D02*
D03*
Y0273201D02*
D03*
Y0276350D02*
D03*
Y0279500D02*
D03*
D100*
X0231858Y0241445D02*
D03*
X0257842D02*
D03*
Y0253256D02*
D03*
X0231858D02*
D03*
X0515842Y0277756D02*
D03*
X0489858D02*
D03*
Y0265945D02*
D03*
X0515842D02*
D03*
Y0252756D02*
D03*
X0489858D02*
D03*
Y0240945D02*
D03*
X0515842D02*
D03*
X0231858Y0266945D02*
D03*
X0257842D02*
D03*
Y0278756D02*
D03*
X0231858D02*
D03*
D101*
X0292012Y0336323D02*
D03*
X0294571D02*
D03*
X0297130D02*
D03*
X0299689D02*
D03*
X0292012Y0320378D02*
D03*
X0294571D02*
D03*
X0297130D02*
D03*
X0299689D02*
D03*
D102*
X0375457Y0338575D02*
D03*
X0372898D02*
D03*
X0370339D02*
D03*
X0367779D02*
D03*
X0365220D02*
D03*
X0362661D02*
D03*
X0360102D02*
D03*
X0357543D02*
D03*
X0375457Y0360425D02*
D03*
X0372898D02*
D03*
X0370339D02*
D03*
X0367779D02*
D03*
X0365220D02*
D03*
X0362661D02*
D03*
X0360102D02*
D03*
X0357543D02*
D03*
X0381043Y0343425D02*
D03*
X0383602D02*
D03*
X0386161D02*
D03*
X0388720D02*
D03*
X0391280D02*
D03*
X0393839D02*
D03*
X0396398D02*
D03*
X0398957D02*
D03*
X0381043Y0321575D02*
D03*
X0383602D02*
D03*
X0386161D02*
D03*
X0388720D02*
D03*
X0391280D02*
D03*
X0393839D02*
D03*
X0396398D02*
D03*
X0398957D02*
D03*
D103*
X0371845Y0332959D02*
D03*
X0373155Y0332041D02*
D03*
D104*
X0457643Y0497569D02*
D03*
X0437957D02*
D03*
D105*
X0218000Y0462000D02*
X0223000D01*
X0225000Y0464000D01*
D106*
X0313000Y0270457D02*
Y0274000D01*
M02*
