M48
;Layer_Color=9474304
;FILE_FORMAT=2:3
INCH
;TYPE=PLATED
T1F00S00C0.024
T2F00S00C0.031
T3F00S00C0.035
T4F00S00C0.051
T5F00S00C0.126
%
T01
X01480Y01450
X02005Y01387
X02110Y01380
X02195Y01415
X02255Y01325
X02276Y01524
X02522Y01372
X02589Y01429
X02840Y01560
X02952Y01563
X02940Y01795
X02910Y01960
X02495Y01925
X02570Y01815
X02528Y01683
X02410Y01590
X02280Y01865
Y01950
X02181Y01875
X02085Y01840
X01976Y01840
X01795Y01755
X01700
X01735Y02255
X01790Y02225
X02374Y02053
X02543Y02167
X02570Y02290
X02595Y02375
X02600Y02450
X02530Y02485
X02440Y02425
X02695Y02220
T02
X01430Y01145
Y01224
X01509
Y01145
X01815
Y01224
X01894
Y01145
X01960Y02375
Y02454
X02039
X02117
X02196
X02275
Y02375
X02196
X02117
X02039
T03
X01341Y01091
Y01278
X01597Y01279
X01726Y01278
Y01091
X01597Y01092
X01982
Y01279
X01871Y02321
Y02508
X02364Y02509
Y02322
T04
X01220Y01760
Y01860
X01420
Y01760
Y02095
Y02195
X01220
Y02095
T05
X01142Y01142
X02913
Y02441
X01142
M30
