G04 Layer_Physical_Order=4*
G04 Layer_Color=16711680*
%FSAX23Y23*%
%MOIN*%
G70*
G01*
G75*
%ADD11R,0.024X0.020*%
%ADD12R,0.020X0.024*%
%ADD13R,0.024X0.024*%
%ADD14R,0.037X0.039*%
%ADD15R,0.024X0.024*%
%ADD18R,0.024X0.048*%
%ADD19C,0.008*%
%ADD20C,0.020*%
%ADD21C,0.012*%
%ADD22C,0.010*%
%ADD24C,0.022*%
%ADD25C,0.039*%
%ADD26R,0.059X0.059*%
%ADD27C,0.035*%
%ADD28R,0.051X0.051*%
%ADD29R,0.051X0.051*%
%ADD30C,0.120*%
%ADD31C,0.028*%
%ADD32R,0.035X0.035*%
%ADD33R,0.039X0.037*%
%ADD34R,0.035X0.035*%
%ADD35R,0.070X0.028*%
%ADD36R,0.079X0.047*%
D11*
X06620Y01349D02*
D03*
Y01393D02*
D03*
X05935Y01294D02*
D03*
Y01338D02*
D03*
X06888Y01842D02*
D03*
Y01885D02*
D03*
X06755Y01499D02*
D03*
Y01542D02*
D03*
X06373Y01725D02*
D03*
Y01768D02*
D03*
X05935Y01421D02*
D03*
Y01464D02*
D03*
X06888Y01716D02*
D03*
Y01759D02*
D03*
Y01643D02*
D03*
Y01687D02*
D03*
X05932Y01546D02*
D03*
Y01590D02*
D03*
X06888Y01547D02*
D03*
Y01590D02*
D03*
X05932Y01621D02*
D03*
Y01665D02*
D03*
X06888Y01421D02*
D03*
Y01464D02*
D03*
X05935Y01716D02*
D03*
Y01759D02*
D03*
D12*
X06085Y01255D02*
D03*
X06129D02*
D03*
X06803Y01776D02*
D03*
X06759D02*
D03*
X06093Y01960D02*
D03*
X06137D02*
D03*
X06115Y02068D02*
D03*
X06158D02*
D03*
X06662Y01110D02*
D03*
X06705D02*
D03*
X06621Y01655D02*
D03*
X06664D02*
D03*
X06214Y01671D02*
D03*
X06258D02*
D03*
X06373Y01689D02*
D03*
X06417D02*
D03*
X06193Y02068D02*
D03*
X06237D02*
D03*
X06493Y01110D02*
D03*
X06536D02*
D03*
X06410Y02068D02*
D03*
X06453D02*
D03*
X06367Y01110D02*
D03*
X06410D02*
D03*
X06284D02*
D03*
X06327D02*
D03*
X06492Y02068D02*
D03*
X06536D02*
D03*
X06284D02*
D03*
X06327D02*
D03*
X06373Y01654D02*
D03*
X06417D02*
D03*
D13*
X06743Y01717D02*
D03*
Y01682D02*
D03*
X05969Y01294D02*
D03*
Y01259D02*
D03*
X06050Y01818D02*
D03*
Y01854D02*
D03*
X06373Y01797D02*
D03*
Y01833D02*
D03*
X06296Y01634D02*
D03*
Y01670D02*
D03*
X06595Y01938D02*
D03*
Y01974D02*
D03*
X06707Y01682D02*
D03*
Y01717D02*
D03*
X06479Y01658D02*
D03*
Y01694D02*
D03*
X06515Y01658D02*
D03*
Y01694D02*
D03*
X06550Y01658D02*
D03*
Y01694D02*
D03*
X06586Y01658D02*
D03*
Y01694D02*
D03*
D14*
X06632Y01442D02*
D03*
X06702D02*
D03*
D15*
X06723Y01154D02*
D03*
X06759D02*
D03*
X06667Y01393D02*
D03*
X06702D02*
D03*
X06485Y01556D02*
D03*
X06521D02*
D03*
D18*
X06630Y01499D02*
D03*
X06667Y01602D02*
D03*
X06704Y01499D02*
D03*
D19*
X06759Y01134D02*
X06770Y01123D01*
X06759Y01134D02*
Y01154D01*
X06734Y01111D02*
Y01127D01*
X06723Y01138D02*
X06734Y01127D01*
X06723Y01138D02*
Y01154D01*
X05969Y01231D02*
Y01259D01*
X05935Y01294D02*
X05969D01*
X06467Y01725D02*
X06479Y01713D01*
Y01694D02*
Y01713D01*
X06550Y01730D02*
X06567Y01747D01*
X06550Y01694D02*
Y01730D01*
X06590Y01423D02*
X06620Y01393D01*
X06590Y01423D02*
Y01460D01*
X06659Y01393D02*
X06667D01*
X06632Y01420D02*
X06659Y01393D01*
X06632Y01420D02*
Y01442D01*
X06563Y01487D02*
X06590Y01460D01*
X06620Y01324D02*
Y01349D01*
X06514Y01694D02*
X06515Y01694D01*
X06514Y01694D02*
Y01753D01*
X06237Y01868D02*
X06302D01*
X06229Y01876D02*
X06237Y01868D01*
X06180Y01876D02*
X06229D01*
X06067Y01960D02*
X06093D01*
X06137D02*
X06165D01*
X06702Y01497D02*
X06704Y01499D01*
X06755D01*
X06702Y01442D02*
Y01497D01*
Y01393D02*
Y01442D01*
X06726Y01393D02*
X06736Y01404D01*
X06702Y01393D02*
X06726D01*
X05879Y01338D02*
X05935D01*
X06058Y01255D02*
X06085D01*
X06129D02*
X06157D01*
X06607Y01736D02*
Y01817D01*
X06586Y01715D02*
X06607Y01736D01*
X06586Y01694D02*
Y01715D01*
X06759Y01764D02*
X06781Y01742D01*
X06759Y01764D02*
Y01776D01*
X06750Y01742D02*
X06781D01*
X06743Y01735D02*
X06750Y01742D01*
X06743Y01717D02*
Y01735D01*
X06707Y01717D02*
Y01748D01*
X06810Y01748D02*
X06859D01*
X06352Y01559D02*
X06485D01*
X06296Y01615D02*
X06352Y01559D01*
X06485Y01556D02*
Y01559D01*
X06379Y01437D02*
X06496D01*
X06296Y01615D02*
Y01634D01*
X06165D02*
X06296D01*
X06125Y01594D02*
X06165Y01634D01*
X06125Y01530D02*
Y01594D01*
X06327Y01437D02*
X06379D01*
X06320Y01444D02*
X06327Y01437D01*
X06271Y01444D02*
X06320D01*
X06379Y01437D02*
X06379Y01437D01*
X05935Y01546D02*
X05953D01*
X05964Y01557D01*
X06010D01*
X05932Y01621D02*
X06010D01*
X06010Y01622D01*
X06367Y01110D02*
Y01124D01*
X06380Y01137D02*
Y01190D01*
X06367Y01124D02*
X06380Y01137D01*
X06190Y01989D02*
X06191Y01990D01*
Y02066D01*
X06193Y02068D01*
X06493Y01110D02*
Y01124D01*
X06506Y01137D01*
Y01190D01*
X06859Y01432D02*
X06870Y01421D01*
X06888D01*
X06810Y01432D02*
X06859D01*
X06870Y01547D02*
X06888D01*
X06810Y01558D02*
X06859D01*
X06870Y01547D01*
X06427Y01989D02*
X06442Y02004D01*
Y02039D01*
X06453Y02050D01*
Y02068D01*
X06859Y01748D02*
X06870Y01759D01*
X06888D01*
X06056Y01769D02*
X06113D01*
X06114Y01768D01*
X06102Y01530D02*
X06125D01*
X06114Y01683D02*
Y01718D01*
X06050Y01854D02*
X06062D01*
X06076Y01868D01*
X06114D01*
X06057Y01452D02*
Y01466D01*
X06256Y01818D02*
X06302D01*
X06271Y01530D02*
X06342D01*
X06245Y01807D02*
X06256Y01818D01*
X06222Y01807D02*
X06245D01*
X06888Y01464D02*
X06941D01*
X06888Y01590D02*
X06941D01*
X06888Y01716D02*
X06941D01*
X06888Y01842D02*
X06941D01*
X06316Y01992D02*
Y02039D01*
X06327Y02050D01*
Y02068D01*
X06158D02*
Y02121D01*
X06284Y02068D02*
Y02121D01*
X06410Y02068D02*
Y02121D01*
X06536Y02068D02*
Y02121D01*
X06453Y02068D02*
X06492D01*
X05879Y01716D02*
X05932D01*
X05879Y01590D02*
X05932D01*
X05879Y01464D02*
X05932D01*
X05935Y01421D02*
X05952D01*
X05964Y01432D01*
X06010D01*
X05935Y01759D02*
X05952D01*
X05964Y01748D01*
X06010D01*
X06662Y01059D02*
Y01110D01*
X06662Y01110D02*
X06662Y01110D01*
X06888Y01686D02*
Y01687D01*
X06811Y01686D02*
X06888D01*
Y01643D02*
X06931D01*
X06941Y01653D01*
X05891Y01665D02*
X05932D01*
X05879Y01653D02*
X05891Y01665D01*
X06237Y02068D02*
Y02105D01*
X06221Y02121D02*
X06237Y02105D01*
X06284Y01060D02*
Y01110D01*
X06327D02*
X06367D01*
X06410Y01060D02*
Y01110D01*
X06536Y01060D02*
Y01110D01*
X06190Y01135D02*
Y01188D01*
X06158Y01103D02*
X06190Y01135D01*
X06158Y01060D02*
Y01103D01*
X06897Y01338D02*
X06941D01*
X06865Y01370D02*
X06897Y01338D01*
X06812Y01370D02*
X06865D01*
X06074Y02068D02*
X06115D01*
X05935Y01259D02*
Y01294D01*
X06705Y01110D02*
X06733D01*
X06734Y01111D01*
X06887Y01914D02*
X06888Y01913D01*
Y01885D02*
Y01913D01*
X06678Y01358D02*
X06709D01*
X06667Y01369D02*
X06678Y01358D01*
X06667Y01369D02*
Y01393D01*
X06351Y01868D02*
X06373Y01846D01*
Y01833D02*
Y01846D01*
X06387Y01904D02*
X06421Y01938D01*
X06351Y01895D02*
X06360Y01904D01*
X06387D01*
X06351Y01868D02*
Y01895D01*
X06050Y01854D02*
Y01883D01*
X06046Y01887D02*
X06050Y01883D01*
X06621Y01974D02*
X06632Y01985D01*
X06595Y01974D02*
X06621D01*
X06632Y01985D02*
X06742D01*
X06751Y01976D01*
Y01938D02*
Y01976D01*
X06102Y01672D02*
X06114Y01683D01*
X06039Y01672D02*
X06102D01*
X06028Y01661D02*
X06039Y01672D01*
X06028Y01398D02*
Y01661D01*
Y01398D02*
X06037Y01389D01*
X06127D01*
X06141Y01375D01*
Y01313D02*
Y01375D01*
X06057Y01452D02*
X06065Y01444D01*
X06125D02*
X06125Y01444D01*
X06065Y01444D02*
X06125D01*
D20*
X06421Y01867D02*
X06478D01*
X06417Y01689D02*
Y01824D01*
Y01654D02*
Y01689D01*
X06538Y01877D02*
X06806D01*
X06478Y01867D02*
X06528D01*
X06538Y01877D01*
X06417Y01824D02*
X06421Y01828D01*
Y01867D01*
D21*
X06083Y01190D02*
X06380D01*
X06010Y01263D02*
Y01557D01*
Y01263D02*
X06083Y01190D01*
X06810Y01312D02*
Y01432D01*
X06707Y01682D02*
X06743D01*
X06617Y01658D02*
X06621Y01655D01*
X06586Y01658D02*
X06617D01*
X06632Y01682D02*
X06707D01*
X06621Y01671D02*
X06632Y01682D01*
X06621Y01655D02*
Y01671D01*
X06810Y01748D02*
Y01985D01*
X06441Y01602D02*
X06451Y01612D01*
X06416Y01602D02*
X06441D01*
X06397Y01621D02*
X06416Y01602D01*
X06373Y01621D02*
X06397D01*
X06355Y01725D02*
X06373D01*
X06346Y01716D02*
X06355Y01725D01*
X06304Y01716D02*
X06346D01*
X06586Y01643D02*
Y01658D01*
X06573Y01630D02*
X06586Y01643D01*
X06573Y01608D02*
Y01630D01*
Y01608D02*
X06599D01*
X06581Y01561D02*
X06582Y01560D01*
X06550Y01561D02*
X06581D01*
X06545Y01556D02*
X06550Y01561D01*
X06521Y01556D02*
X06545D01*
X06521D02*
X06521Y01557D01*
Y01602D01*
X06667Y01602D02*
Y01653D01*
X06010Y01557D02*
Y01622D01*
Y01715D01*
X06380Y01190D02*
X06506D01*
X06010Y01715D02*
Y01973D01*
X06027Y01989D01*
X06190D01*
X06427D01*
X06506Y01190D02*
X06593D01*
X06617Y01214D02*
Y01256D01*
X06593Y01190D02*
X06617Y01214D01*
Y01256D02*
X06645Y01284D01*
X06782D01*
X06810Y01312D01*
Y01432D02*
Y01558D01*
Y01748D01*
X06697Y02037D02*
X06758D01*
X06662Y02072D02*
X06697Y02037D01*
X06662Y02072D02*
Y02121D01*
X06758Y02037D02*
X06810Y01985D01*
X06302Y01718D02*
X06304Y01716D01*
X06302Y01768D02*
X06373D01*
X06302Y01677D02*
Y01718D01*
X06373Y01768D02*
Y01797D01*
X06050Y01818D02*
X06114D01*
X06050Y01818D02*
X06050Y01818D01*
X06258Y01671D02*
X06302D01*
X06373Y01689D02*
Y01725D01*
Y01689D02*
X06373Y01689D01*
X06373Y01621D02*
Y01654D01*
X06373Y01654D01*
X06550Y01658D02*
X06586D01*
X06515D02*
X06550D01*
X06479D02*
X06515D01*
X06114Y01818D02*
X06171D01*
X06214Y01671D02*
Y01762D01*
Y01775D01*
X06171Y01818D02*
X06214Y01775D01*
X06755Y01542D02*
X06808D01*
X06632Y01442D02*
Y01497D01*
X06630Y01499D02*
Y01577D01*
X06599Y01608D02*
X06630Y01577D01*
D22*
X06485Y01559D02*
Y01631D01*
X06479Y01637D02*
X06485Y01631D01*
X06479Y01637D02*
Y01658D01*
X06010Y01715D02*
X06011Y01714D01*
X06043D01*
X05959Y01811D02*
X06010D01*
X05928Y01842D02*
X05959Y01811D01*
X05879Y01842D02*
X05928D01*
X06464Y01970D02*
X06474Y01980D01*
X06430Y01970D02*
X06464D01*
X06421Y01961D02*
X06430Y01970D01*
X06421Y01938D02*
Y01961D01*
D24*
X06478Y01938D02*
X06676D01*
D25*
Y01839D02*
D03*
X06751Y01324D02*
D03*
X06676D02*
D03*
X06751Y01839D02*
D03*
D26*
X06676Y01938D02*
D03*
X06751Y01225D02*
D03*
X06676D02*
D03*
X06751Y01938D02*
D03*
D27*
X05979Y01842D02*
D03*
Y01779D02*
D03*
Y01716D02*
D03*
Y01653D02*
D03*
Y01590D02*
D03*
Y01527D02*
D03*
Y01464D02*
D03*
Y01401D02*
D03*
X05979Y01338D02*
D03*
X06662Y02021D02*
D03*
X06599D02*
D03*
X06536D02*
D03*
X06473D02*
D03*
X06410D02*
D03*
X06347D02*
D03*
X06284D02*
D03*
X06221D02*
D03*
X06158Y02021D02*
D03*
X06158Y01159D02*
D03*
X06221D02*
D03*
X06284D02*
D03*
X06347D02*
D03*
X06410D02*
D03*
X06473D02*
D03*
X06536D02*
D03*
X06599D02*
D03*
X06662Y01159D02*
D03*
X06841Y01338D02*
D03*
Y01401D02*
D03*
Y01464D02*
D03*
Y01527D02*
D03*
Y01590D02*
D03*
Y01653D02*
D03*
Y01716D02*
D03*
Y01779D02*
D03*
X06841Y01842D02*
D03*
D28*
X05879Y01842D02*
D03*
Y01779D02*
D03*
Y01716D02*
D03*
Y01653D02*
D03*
Y01590D02*
D03*
Y01527D02*
D03*
Y01464D02*
D03*
Y01401D02*
D03*
X05879Y01338D02*
D03*
X06941Y01338D02*
D03*
Y01401D02*
D03*
Y01464D02*
D03*
Y01527D02*
D03*
Y01590D02*
D03*
Y01653D02*
D03*
Y01716D02*
D03*
Y01779D02*
D03*
X06941Y01842D02*
D03*
D29*
X06662Y02121D02*
D03*
X06599D02*
D03*
X06536D02*
D03*
X06473D02*
D03*
X06410D02*
D03*
X06347D02*
D03*
X06284D02*
D03*
X06221D02*
D03*
X06158Y02121D02*
D03*
X06158Y01060D02*
D03*
X06221D02*
D03*
X06284D02*
D03*
X06347D02*
D03*
X06410D02*
D03*
X06473D02*
D03*
X06536D02*
D03*
X06599D02*
D03*
X06662Y01059D02*
D03*
D30*
X05918Y01098D02*
D03*
X06902D02*
D03*
Y02082D02*
D03*
X05918D02*
D03*
D31*
X06770Y01123D02*
D03*
X05969Y01231D02*
D03*
X06563Y01487D02*
D03*
X06620Y01324D02*
D03*
X06583Y01298D02*
D03*
X06180Y01876D02*
D03*
X06067Y01960D02*
D03*
X06165D02*
D03*
X06754Y01464D02*
D03*
X06736Y01404D02*
D03*
X06781D02*
D03*
X06058Y01255D02*
D03*
X06157D02*
D03*
X06607Y01817D02*
D03*
X06707Y01748D02*
D03*
X06781Y01742D02*
D03*
X06467Y01725D02*
D03*
X06514Y01753D02*
D03*
X06567Y01747D02*
D03*
X06496Y01437D02*
D03*
X06573Y01608D02*
D03*
X06043Y01714D02*
D03*
X06777Y01649D02*
D03*
X06056Y01769D02*
D03*
X06373Y01621D02*
D03*
X06704D02*
D03*
X06294Y01314D02*
D03*
X06389Y01258D02*
D03*
X06441Y01532D02*
D03*
X06541Y01979D02*
D03*
X06191Y01930D02*
D03*
X06456Y01227D02*
D03*
X06292Y01258D02*
D03*
X06268Y01230D02*
D03*
X06333Y01636D02*
D03*
X06357Y01317D02*
D03*
X06209Y01380D02*
D03*
X06057Y01465D02*
D03*
X06342Y01530D02*
D03*
X06334Y01471D02*
D03*
X06267Y01584D02*
D03*
X06469Y01277D02*
D03*
X06496Y01506D02*
D03*
X06554Y01431D02*
D03*
X06379Y01878D02*
D03*
X06222Y01807D02*
D03*
X06223Y01844D02*
D03*
X06059Y01418D02*
D03*
X06216Y01238D02*
D03*
X06251Y01899D02*
D03*
X06294Y01930D02*
D03*
X06235Y01956D02*
D03*
X06352Y01951D02*
D03*
X06565Y01525D02*
D03*
X06582Y01560D02*
D03*
X06546Y01297D02*
D03*
X06074Y02068D02*
D03*
X05935Y01259D02*
D03*
X06734Y01111D02*
D03*
X06887Y01914D02*
D03*
X06709Y01358D02*
D03*
X06474Y01980D02*
D03*
X06046Y01887D02*
D03*
X06231Y01316D02*
D03*
X06185Y01344D02*
D03*
X06141Y01313D02*
D03*
D32*
X06478Y01867D02*
D03*
Y01938D02*
D03*
D33*
X06421Y01867D02*
D03*
Y01938D02*
D03*
D34*
X06451Y01602D02*
D03*
X06521D02*
D03*
D35*
X06114Y01718D02*
D03*
Y01768D02*
D03*
Y01868D02*
D03*
Y01818D02*
D03*
X06302Y01718D02*
D03*
Y01768D02*
D03*
Y01818D02*
D03*
Y01868D02*
D03*
D36*
X06125Y01530D02*
D03*
X06271Y01444D02*
D03*
Y01530D02*
D03*
X06125Y01444D02*
D03*
M02*
