G04 Layer_Physical_Order=3*
G04 Layer_Color=16440176*
%FSAX23Y23*%
%MOIN*%
G70*
G01*
G75*
%ADD19C,0.008*%
%ADD28R,0.051X0.051*%
%ADD31C,0.028*%
D19*
X05879Y01338D02*
X05930D01*
X06012Y01255D01*
X06058D01*
X06126Y01119D02*
X06726D01*
X05986Y01259D02*
X06126Y01119D01*
X05935Y01259D02*
X05986D01*
X06556Y01198D02*
X06583Y01225D01*
X06256Y01198D02*
X06556D01*
X06583Y01225D02*
Y01298D01*
X06165Y01917D02*
Y01960D01*
Y01917D02*
X06180Y01902D01*
X06206D01*
X06236Y01872D01*
X06255D01*
X06373Y01754D01*
X06157Y01255D02*
X06188Y01286D01*
X06436D01*
X06371Y01779D02*
X06573D01*
X06599Y01753D01*
X06373Y01754D02*
X06513D01*
X06379Y01532D02*
X06441D01*
X06288Y01623D02*
X06379Y01532D01*
X05966Y01623D02*
X06288D01*
X06743Y01683D02*
X06769Y01656D01*
X05970Y01683D02*
X06743D01*
X06618Y01699D02*
X06811D01*
X06827Y01683D01*
X06854D01*
X05879Y01716D02*
X05937D01*
X05879Y01590D02*
X05937D01*
X05879Y01653D02*
X05937D01*
X05966Y01623D01*
X05879Y01527D02*
X05937D01*
X05966Y01497D01*
X05879Y01464D02*
X05937D01*
X05879Y01401D02*
X05937D01*
X06883Y01716D02*
X06941D01*
X06883Y01653D02*
X06941D01*
X06854Y01683D02*
X06883Y01653D01*
Y01590D02*
X06941D01*
X06854Y01620D02*
X06883Y01590D01*
Y01527D02*
X06941D01*
X05937Y01464D02*
X05970Y01431D01*
X05937Y01716D02*
X05970Y01683D01*
X06292Y01258D02*
X06389D01*
X06268Y01230D02*
X06271Y01227D01*
X06456D01*
X06332Y01637D02*
X06344Y01648D01*
X06715D01*
X06743Y01620D01*
X06854D01*
X05937Y01401D02*
X05970Y01368D01*
X05937Y01590D02*
X05970Y01557D01*
X06445Y01277D02*
X06469D01*
X06436Y01286D02*
X06445Y01277D01*
X06850Y01749D02*
X06883Y01716D01*
X06379Y01878D02*
Y01904D01*
X06856Y01812D02*
X06889Y01779D01*
X06941D01*
X06793Y01896D02*
X06811Y01878D01*
X06786Y01880D02*
X06795Y01871D01*
X06897Y01464D02*
X06941D01*
X06554Y01431D02*
X06864D01*
X06897Y01464D01*
X06444Y01532D02*
X06558D01*
X06594Y01496D02*
X06852D01*
X06883Y01527D01*
X06795Y01783D02*
X06829Y01749D01*
X06795Y01783D02*
Y01871D01*
X06829Y01749D02*
X06850D01*
X06811Y01830D02*
X06829Y01812D01*
X06811Y01830D02*
Y01878D01*
X06829Y01812D02*
X06856D01*
X05966Y01497D02*
X05987D01*
X06216Y01238D02*
X06256Y01198D01*
X06251Y01899D02*
X06371Y01779D01*
X06379Y01904D02*
X06389Y01914D01*
X06600D01*
X06191Y01930D02*
X06294D01*
X06512Y01951D02*
X06540Y01979D01*
X06352Y01951D02*
X06512D01*
X06363Y01925D02*
X06368Y01930D01*
X06607D01*
X06294D02*
X06299Y01925D01*
X06363D01*
X06607Y01930D02*
X06641Y01896D01*
X06793D01*
X06600Y01914D02*
X06634Y01880D01*
X06786D01*
X06558Y01532D02*
X06565Y01525D01*
X06594Y01496D01*
X06726Y01119D02*
X06734Y01111D01*
X06599Y01718D02*
Y01753D01*
Y01718D02*
X06618Y01699D01*
X06245Y01606D02*
X06267Y01584D01*
X06042Y01606D02*
X06245D01*
X05970Y01557D02*
X05993D01*
X06042Y01606D01*
X05970Y01431D02*
X05991D01*
X06038Y01384D01*
X06205D02*
X06209Y01380D01*
X06038Y01384D02*
X06205D01*
X06010Y01459D02*
X06051Y01418D01*
X06010Y01459D02*
Y01475D01*
X05987Y01497D02*
X06010Y01475D01*
X06499Y01344D02*
X06546Y01297D01*
X06051Y01418D02*
X06059D01*
X05970Y01368D02*
X06161D01*
X06185Y01344D01*
X06499D01*
D28*
X05879Y01716D02*
D03*
Y01653D02*
D03*
Y01590D02*
D03*
Y01527D02*
D03*
Y01464D02*
D03*
Y01401D02*
D03*
X05879Y01338D02*
D03*
X06941Y01464D02*
D03*
Y01527D02*
D03*
Y01590D02*
D03*
Y01653D02*
D03*
Y01716D02*
D03*
Y01779D02*
D03*
D31*
X06583Y01298D02*
D03*
X06165Y01960D02*
D03*
X06058Y01255D02*
D03*
X06157D02*
D03*
X06514Y01753D02*
D03*
X06777Y01649D02*
D03*
X06389Y01258D02*
D03*
X06441Y01532D02*
D03*
X06541Y01979D02*
D03*
X06191Y01930D02*
D03*
X06456Y01227D02*
D03*
X06292Y01258D02*
D03*
X06268Y01230D02*
D03*
X06333Y01636D02*
D03*
X06209Y01380D02*
D03*
X06267Y01584D02*
D03*
X06469Y01277D02*
D03*
X06554Y01431D02*
D03*
X06379Y01878D02*
D03*
X06059Y01418D02*
D03*
X06216Y01238D02*
D03*
X06251Y01899D02*
D03*
X06294Y01930D02*
D03*
X06352Y01951D02*
D03*
X06565Y01525D02*
D03*
X06546Y01297D02*
D03*
X05935Y01259D02*
D03*
X06734Y01111D02*
D03*
X06185Y01344D02*
D03*
M02*
