G04 Layer_Physical_Order=1*
G04 Layer_Color=255*
%FSAX23Y23*%
%MOIN*%
G70*
G01*
G75*
%ADD10R,0.059X0.039*%
%ADD11R,0.024X0.020*%
%ADD12R,0.020X0.024*%
%ADD13R,0.024X0.024*%
%ADD14R,0.037X0.039*%
%ADD15R,0.024X0.024*%
%ADD16O,0.022X0.069*%
%ADD17O,0.069X0.022*%
%ADD18R,0.024X0.048*%
%ADD19C,0.008*%
%ADD20C,0.020*%
%ADD21C,0.012*%
%ADD22C,0.010*%
%ADD23C,0.016*%
%ADD24C,0.022*%
%ADD25C,0.039*%
%ADD26R,0.059X0.059*%
%ADD27C,0.035*%
%ADD28R,0.051X0.051*%
%ADD29R,0.051X0.051*%
%ADD30C,0.120*%
%ADD31C,0.028*%
D10*
X06058Y01359D02*
D03*
Y01301D02*
D03*
Y01818D02*
D03*
D11*
X06100Y01716D02*
D03*
Y01759D02*
D03*
X06134Y01751D02*
D03*
Y01795D02*
D03*
X06142Y01340D02*
D03*
Y01384D02*
D03*
X06746Y01702D02*
D03*
Y01745D02*
D03*
D12*
X06089Y01681D02*
D03*
X06133D02*
D03*
X06736Y01431D02*
D03*
X06780D02*
D03*
X06789Y01777D02*
D03*
X06745D02*
D03*
X06524Y01259D02*
D03*
X06568D02*
D03*
X06524Y01225D02*
D03*
X06568D02*
D03*
D13*
X06050Y01642D02*
D03*
Y01678D02*
D03*
X06093Y01607D02*
D03*
Y01643D02*
D03*
X06132Y01586D02*
D03*
Y01621D02*
D03*
D14*
X06715Y02007D02*
D03*
X06785D02*
D03*
D15*
X06704Y01542D02*
D03*
X06740D02*
D03*
X06080Y01552D02*
D03*
X06116D02*
D03*
X06042Y01513D02*
D03*
X06078D02*
D03*
X06416Y01877D02*
D03*
X06451D02*
D03*
X06416Y01312D02*
D03*
X06452D02*
D03*
X06061Y02118D02*
D03*
X06097D02*
D03*
X06887Y01945D02*
D03*
X06851D02*
D03*
D16*
X06263Y01812D02*
D03*
X06294D02*
D03*
X06326D02*
D03*
X06357D02*
D03*
X06389D02*
D03*
X06420D02*
D03*
X06451D02*
D03*
X06483D02*
D03*
X06514D02*
D03*
X06546D02*
D03*
X06577D02*
D03*
Y01368D02*
D03*
X06546D02*
D03*
X06514D02*
D03*
X06483D02*
D03*
X06451D02*
D03*
X06420D02*
D03*
X06389D02*
D03*
X06357D02*
D03*
X06326D02*
D03*
X06294D02*
D03*
X06263D02*
D03*
D17*
X06642Y01747D02*
D03*
Y01716D02*
D03*
Y01684D02*
D03*
Y01653D02*
D03*
Y01621D02*
D03*
Y01590D02*
D03*
Y01559D02*
D03*
Y01527D02*
D03*
Y01496D02*
D03*
Y01464D02*
D03*
Y01433D02*
D03*
X06198D02*
D03*
Y01464D02*
D03*
Y01496D02*
D03*
Y01527D02*
D03*
Y01559D02*
D03*
Y01590D02*
D03*
Y01621D02*
D03*
Y01653D02*
D03*
Y01684D02*
D03*
Y01716D02*
D03*
Y01747D02*
D03*
D18*
X06708Y01702D02*
D03*
X06745Y01598D02*
D03*
X06782Y01702D02*
D03*
D19*
X06770Y01150D02*
X06774Y01154D01*
X06770Y01123D02*
Y01150D01*
X05969Y01231D02*
X05989Y01251D01*
X06520Y01457D02*
X06565D01*
X06496Y01481D02*
X06520Y01457D01*
X06496Y01481D02*
Y01506D01*
X06565Y01457D02*
X06589Y01433D01*
X06577Y01323D02*
Y01368D01*
Y01323D02*
X06583Y01317D01*
Y01298D02*
Y01317D01*
X06546Y01768D02*
X06567Y01747D01*
X06546Y01768D02*
Y01812D01*
X06900Y01842D02*
X06941D01*
X06869Y01811D02*
X06900Y01842D01*
X06802Y01811D02*
X06869D01*
X06789Y01798D02*
X06802Y01811D01*
X06789Y01777D02*
Y01798D01*
X06097Y02091D02*
X06120Y02068D01*
X06097Y02091D02*
Y02118D01*
X06074Y02068D02*
Y02084D01*
X06061Y02097D02*
X06074Y02084D01*
X06061Y02097D02*
Y02118D01*
X06514Y01753D02*
Y01812D01*
X06100Y01759D02*
Y01804D01*
X06172Y01876D01*
X06180D01*
X06770Y01509D02*
X06788Y01491D01*
Y01457D02*
Y01491D01*
X06780Y01449D02*
X06788Y01457D01*
X06642Y01464D02*
X06754D01*
X06712Y01509D02*
X06770D01*
X06704Y01542D02*
Y01543D01*
Y01517D02*
Y01542D01*
Y01517D02*
X06712Y01509D01*
X06780Y01431D02*
Y01449D01*
X06736Y01404D02*
Y01431D01*
X06780Y01405D02*
X06781Y01404D01*
X06780Y01405D02*
Y01431D01*
X06483Y01764D02*
Y01812D01*
X06467Y01748D02*
X06483Y01764D01*
X06467Y01725D02*
Y01748D01*
X05879Y01338D02*
X05880Y01337D01*
X06688Y01777D02*
X06745D01*
X06648Y01817D02*
X06688Y01777D01*
X06607Y01817D02*
X06648D01*
X06582D02*
X06607D01*
X06887Y01914D02*
X06887Y01914D01*
X06887Y01914D02*
Y01945D01*
X06657Y01747D02*
X06726D01*
X06729Y01745D01*
X06746D01*
X06642Y01747D02*
X06657D01*
X06708Y01702D02*
X06746D01*
X06781Y01703D02*
X06782Y01702D01*
X06781Y01703D02*
Y01742D01*
X06568Y01225D02*
X06676D01*
X06751D02*
Y01265D01*
X06736Y01280D02*
X06751Y01265D01*
X06623Y01280D02*
X06736D01*
X06602Y01259D02*
X06623Y01280D01*
X06568Y01259D02*
X06602D01*
X06495Y01234D02*
Y01308D01*
X06483Y01320D02*
X06495Y01308D01*
X06483Y01320D02*
Y01368D01*
X06514Y01269D02*
Y01367D01*
X06514Y01368D01*
X06514Y01269D02*
X06524Y01259D01*
X06495Y01234D02*
X06504Y01225D01*
X06524D01*
X06452Y01419D02*
X06470Y01437D01*
X06496D01*
X06143Y01552D02*
X06150Y01559D01*
X06116Y01552D02*
X06143D01*
X06150Y01559D02*
X06198D01*
X06132Y01621D02*
X06198D01*
X06078Y01493D02*
Y01513D01*
X06057Y01472D02*
X06078Y01493D01*
X06093Y01643D02*
X06111D01*
X06121Y01653D01*
X06198D01*
X06134Y01795D02*
X06199D01*
X06056Y01769D02*
X06076Y01749D01*
Y01695D02*
Y01749D01*
Y01695D02*
X06089Y01681D01*
X06157Y01590D02*
X06198D01*
X06153Y01586D02*
X06157Y01590D01*
X06132Y01586D02*
X06153D01*
X06093Y01607D02*
X06114Y01586D01*
X06132D01*
X06294Y01314D02*
Y01366D01*
X06293Y01367D02*
X06294Y01368D01*
X06199Y01795D02*
X06211Y01807D01*
X06389Y01368D02*
X06389Y01367D01*
Y01258D02*
Y01367D01*
X06326Y01368D02*
Y01463D01*
X06357Y01317D02*
Y01368D01*
X06057Y01465D02*
Y01472D01*
X06326Y01463D02*
X06334Y01471D01*
X06198Y01559D02*
X06233D01*
X06262Y01530D01*
X06332D01*
X06589Y01433D02*
X06642D01*
X06357Y01812D02*
Y01853D01*
X06351Y01859D02*
X06357Y01853D01*
X06379Y01862D02*
Y01878D01*
Y01862D02*
X06389Y01852D01*
Y01812D02*
Y01852D01*
X06594Y01496D02*
X06642D01*
X06546Y01368D02*
Y01404D01*
X06554Y01412D01*
Y01431D01*
X06211Y01807D02*
X06222D01*
X06351Y01859D02*
Y01951D01*
X06257Y01812D02*
X06263D01*
X06223Y01844D02*
Y01846D01*
X06257Y01812D01*
X06294D02*
Y01930D01*
X06235Y01956D02*
X06313D01*
X06326Y01943D01*
Y01812D02*
Y01943D01*
X06565Y01525D02*
X06594Y01496D01*
X06709Y01358D02*
X06806D01*
X06817Y01369D01*
X06881D01*
X06080Y01552D02*
Y01571D01*
X06093Y01584D01*
Y01607D01*
X06023Y01513D02*
X06042D01*
X06006Y01496D02*
X06023Y01513D01*
X05933Y01496D02*
X06006D01*
X05992Y01941D02*
X06046Y01887D01*
X06042Y01513D02*
Y01523D01*
X06071Y01552D01*
X06080D01*
X06430Y01198D02*
X06442Y01186D01*
Y01116D02*
Y01186D01*
X06452Y01312D02*
Y01419D01*
Y01297D02*
Y01312D01*
X06430Y01275D02*
X06452Y01297D01*
X06430Y01198D02*
Y01275D01*
X06231Y01314D02*
X06263Y01346D01*
Y01368D01*
X06146Y01384D02*
X06176D01*
X06198Y01406D01*
Y01433D01*
X06141Y01313D02*
Y01339D01*
X06142Y01340D01*
X06020Y01642D02*
X06050D01*
X06011Y01651D02*
X06020Y01642D01*
X06011Y01651D02*
Y01792D01*
X06047Y01828D01*
X06050Y01643D02*
X06093D01*
X06058Y01359D02*
Y01380D01*
X06070Y01392D01*
X06070D01*
X06090Y01412D01*
X06058Y01301D02*
X06092D01*
X06106Y01315D01*
X06131Y01496D02*
X06198D01*
X06090Y01412D02*
Y01455D01*
X06131Y01496D01*
X06106Y01315D02*
Y01448D01*
X06122Y01464D01*
X06198D01*
X06078Y01513D02*
X06098D01*
X06112Y01527D01*
X06198D01*
X06047Y01828D02*
X06054D01*
D20*
X05989Y01251D02*
X06124Y01116D01*
X05933Y01307D02*
X05989Y01251D01*
X06120Y02068D02*
X06441D01*
X05992Y01941D02*
X06120Y02068D01*
X05933Y01881D02*
X05992Y01941D01*
X05933Y01496D02*
Y01881D01*
X06881Y01369D02*
Y01481D01*
X06785Y01972D02*
Y02007D01*
X06751Y01938D02*
X06785Y01972D01*
Y02007D02*
Y02046D01*
X06763Y02068D02*
X06785Y02046D01*
X06774Y01154D02*
X06881Y01261D01*
X06724Y01154D02*
X06774D01*
X06686Y01116D02*
X06724Y01154D01*
X06599Y02069D02*
Y02121D01*
X05879Y01779D02*
X05931D01*
X06221Y01060D02*
Y01111D01*
X06889Y01401D02*
X06941D01*
X06881Y01261D02*
Y01369D01*
X06441Y02068D02*
X06763D01*
X06442Y01116D02*
X06686D01*
X05933Y01307D02*
Y01496D01*
X06124Y01116D02*
X06442D01*
D21*
X06339Y01590D02*
X06407D01*
X06308Y01621D02*
X06339Y01590D01*
X06407Y01429D02*
Y01590D01*
Y01621D01*
X06198D02*
X06308D01*
X06407D02*
Y01726D01*
X06420Y01368D02*
Y01416D01*
X06407Y01429D02*
X06420Y01416D01*
X06451Y01770D02*
Y01812D01*
X06407Y01726D02*
X06451Y01770D01*
X06577Y01812D02*
X06582Y01817D01*
X06820Y01945D02*
X06844D01*
X06813Y01938D02*
X06820Y01945D01*
X06751Y01938D02*
X06813D01*
X06573Y01608D02*
X06591Y01590D01*
X06416Y01859D02*
X06420Y01855D01*
Y01812D02*
Y01855D01*
X06416Y01859D02*
Y01877D01*
X06451Y01812D02*
Y01877D01*
X06704Y01543D02*
Y01620D01*
X06642Y01621D02*
X06704D01*
X06136Y01747D02*
X06198D01*
X06133Y01750D02*
X06136Y01747D01*
X06100Y01716D02*
X06198D01*
X06136Y01684D02*
X06198D01*
X06133Y01681D02*
X06136Y01684D01*
X06416Y01312D02*
X06420Y01316D01*
Y01368D01*
X06373Y01621D02*
X06407D01*
X06591Y01590D02*
X06642D01*
D22*
X06764Y01542D02*
X06811Y01495D01*
X06742Y01542D02*
X06764D01*
X06867Y01495D02*
X06881Y01481D01*
X06811Y01495D02*
X06867D01*
X06043Y01714D02*
X06050Y01707D01*
Y01678D02*
Y01707D01*
X06740Y01565D02*
X06745Y01570D01*
Y01598D01*
X06740Y01542D02*
Y01565D01*
X06416Y01877D02*
Y01954D01*
X06441Y01979D01*
Y02068D01*
X06442Y01980D02*
X06474D01*
X06441Y01979D02*
X06442Y01980D01*
D23*
X06582Y01560D02*
X06641D01*
X06642Y01559D01*
D24*
X06676Y01938D02*
Y01968D01*
X06715Y02007D01*
D25*
X06676Y01839D02*
D03*
X06751Y01324D02*
D03*
X06676D02*
D03*
X06751Y01839D02*
D03*
D26*
X06676Y01938D02*
D03*
X06751Y01225D02*
D03*
X06676D02*
D03*
X06751Y01938D02*
D03*
D27*
X05979Y01842D02*
D03*
Y01779D02*
D03*
Y01716D02*
D03*
Y01653D02*
D03*
Y01590D02*
D03*
Y01527D02*
D03*
Y01464D02*
D03*
Y01401D02*
D03*
X05979Y01338D02*
D03*
X06662Y02021D02*
D03*
X06599D02*
D03*
X06536D02*
D03*
X06473D02*
D03*
X06410D02*
D03*
X06347D02*
D03*
X06284D02*
D03*
X06221D02*
D03*
X06158Y02021D02*
D03*
X06158Y01159D02*
D03*
X06221D02*
D03*
X06284D02*
D03*
X06347D02*
D03*
X06410D02*
D03*
X06473D02*
D03*
X06536D02*
D03*
X06599D02*
D03*
X06662Y01159D02*
D03*
X06841Y01338D02*
D03*
Y01401D02*
D03*
Y01464D02*
D03*
Y01527D02*
D03*
Y01590D02*
D03*
Y01653D02*
D03*
Y01716D02*
D03*
Y01779D02*
D03*
X06841Y01842D02*
D03*
D28*
X05879Y01842D02*
D03*
Y01779D02*
D03*
Y01716D02*
D03*
Y01653D02*
D03*
Y01590D02*
D03*
Y01527D02*
D03*
Y01464D02*
D03*
Y01401D02*
D03*
X05879Y01338D02*
D03*
X06941Y01338D02*
D03*
Y01401D02*
D03*
Y01464D02*
D03*
Y01527D02*
D03*
Y01590D02*
D03*
Y01653D02*
D03*
Y01716D02*
D03*
Y01779D02*
D03*
X06941Y01842D02*
D03*
D29*
X06662Y02121D02*
D03*
X06599D02*
D03*
X06536D02*
D03*
X06473D02*
D03*
X06410D02*
D03*
X06347D02*
D03*
X06284D02*
D03*
X06221D02*
D03*
X06158Y02121D02*
D03*
X06158Y01060D02*
D03*
X06221D02*
D03*
X06284D02*
D03*
X06347D02*
D03*
X06410D02*
D03*
X06473D02*
D03*
X06536D02*
D03*
X06599D02*
D03*
X06662Y01059D02*
D03*
D30*
X05918Y01098D02*
D03*
X06902D02*
D03*
Y02082D02*
D03*
X05918D02*
D03*
D31*
X06770Y01123D02*
D03*
X05969Y01231D02*
D03*
X06563Y01487D02*
D03*
X06620Y01324D02*
D03*
X06583Y01298D02*
D03*
X06180Y01876D02*
D03*
X06067Y01960D02*
D03*
X06165D02*
D03*
X06754Y01464D02*
D03*
X06736Y01404D02*
D03*
X06781D02*
D03*
X06058Y01255D02*
D03*
X06157D02*
D03*
X06607Y01817D02*
D03*
X06707Y01748D02*
D03*
X06781Y01742D02*
D03*
X06467Y01725D02*
D03*
X06514Y01753D02*
D03*
X06567Y01747D02*
D03*
X06496Y01437D02*
D03*
X06573Y01608D02*
D03*
X06043Y01714D02*
D03*
X06777Y01649D02*
D03*
X06056Y01769D02*
D03*
X06373Y01621D02*
D03*
X06704D02*
D03*
X06294Y01314D02*
D03*
X06389Y01258D02*
D03*
X06441Y01532D02*
D03*
X06541Y01979D02*
D03*
X06191Y01930D02*
D03*
X06456Y01227D02*
D03*
X06292Y01258D02*
D03*
X06268Y01230D02*
D03*
X06333Y01636D02*
D03*
X06357Y01317D02*
D03*
X06209Y01380D02*
D03*
X06057Y01465D02*
D03*
X06342Y01530D02*
D03*
X06334Y01471D02*
D03*
X06267Y01584D02*
D03*
X06469Y01277D02*
D03*
X06496Y01506D02*
D03*
X06554Y01431D02*
D03*
X06379Y01878D02*
D03*
X06222Y01807D02*
D03*
X06223Y01844D02*
D03*
X06059Y01418D02*
D03*
X06216Y01238D02*
D03*
X06251Y01899D02*
D03*
X06294Y01930D02*
D03*
X06235Y01956D02*
D03*
X06352Y01951D02*
D03*
X06565Y01525D02*
D03*
X06582Y01560D02*
D03*
X06546Y01297D02*
D03*
X06074Y02068D02*
D03*
X05935Y01259D02*
D03*
X06734Y01111D02*
D03*
X06887Y01914D02*
D03*
X06709Y01358D02*
D03*
X06474Y01980D02*
D03*
X06046Y01887D02*
D03*
X06231Y01316D02*
D03*
X06185Y01344D02*
D03*
X06141Y01313D02*
D03*
M02*
