G04 Layer_Physical_Order=2*
G04 Layer_Color=36540*
%FSAX23Y23*%
%MOIN*%
G70*
G01*
G75*
%ADD19C,0.008*%
%ADD29R,0.051X0.051*%
%ADD31C,0.028*%
D19*
X06887Y01279D02*
Y01431D01*
X06734Y01126D02*
X06887Y01279D01*
X06734Y01111D02*
Y01126D01*
X06009Y01326D02*
Y01955D01*
X05991Y01308D02*
X06009Y01326D01*
X05959Y01308D02*
X05991D01*
X05935Y01284D02*
X05959Y01308D01*
X05935Y01259D02*
Y01284D01*
X06469Y01420D02*
Y01726D01*
X06539Y01511D02*
X06563Y01487D01*
X06620Y01310D02*
Y01324D01*
Y01310D02*
X06629Y01301D01*
Y01136D02*
Y01301D01*
Y01136D02*
X06662Y01103D01*
Y01059D02*
Y01103D01*
X06540Y01979D02*
X06541Y01978D01*
X06009Y01955D02*
X06074Y02020D01*
Y02068D01*
X06158Y02081D02*
Y02121D01*
X06067Y01990D02*
X06158Y02081D01*
X06067Y01960D02*
Y01990D01*
X06206Y01864D02*
Y01915D01*
X06191Y01930D02*
X06206Y01915D01*
X06191Y01849D02*
X06206Y01864D01*
X06191Y01399D02*
Y01849D01*
X06183Y01391D02*
X06191Y01399D01*
X06754Y01464D02*
X06769D01*
X06887Y01431D02*
Y01914D01*
X06808Y01431D02*
X06887D01*
X06781Y01404D02*
X06808Y01431D01*
X06488Y01742D02*
Y01764D01*
Y01742D02*
X06496Y01734D01*
X06541Y01742D02*
Y01978D01*
X06506Y01779D02*
Y02034D01*
X06504Y01779D02*
X06506D01*
X06488Y01764D02*
X06504Y01779D01*
X06368Y01354D02*
Y01543D01*
X06333Y01578D02*
X06368Y01543D01*
X06333Y01578D02*
Y01636D01*
X06599Y01060D02*
Y01117D01*
X06506Y01146D02*
X06536Y01117D01*
Y01060D02*
Y01117D01*
X06443Y01146D02*
X06473Y01117D01*
Y01060D02*
Y01117D01*
X06380Y01146D02*
X06410Y01117D01*
Y01060D02*
Y01117D01*
X06317Y01146D02*
X06347Y01117D01*
Y01060D02*
Y01117D01*
X06284Y01060D02*
Y01117D01*
X06506Y02034D02*
X06536Y02063D01*
Y02121D01*
X06410Y02063D02*
Y02121D01*
X06443Y01146D02*
Y01185D01*
X06221Y02063D02*
Y02121D01*
X06191Y02034D02*
X06221Y02063D01*
X06347D02*
Y02121D01*
X06284Y02063D02*
Y02121D01*
X06473Y02063D02*
Y02121D01*
X06389Y01239D02*
X06443Y01185D01*
X06294Y01293D02*
Y01314D01*
X06389Y01239D02*
Y01258D01*
X06441Y02031D02*
X06473Y02063D01*
X06496Y01506D02*
Y01734D01*
X06380Y02034D02*
X06410Y02063D01*
X06191Y01930D02*
Y02034D01*
X06441Y01535D02*
X06443Y01532D01*
X06441Y01535D02*
Y02031D01*
X06380Y01146D02*
Y01207D01*
X06294Y01293D02*
X06303Y01284D01*
X06303D01*
X06380Y01207D01*
X06302Y01505D02*
X06334Y01473D01*
X06357Y01317D02*
Y01343D01*
X06777Y01472D02*
Y01649D01*
X06284Y01564D02*
X06293Y01573D01*
Y01595D01*
X06284Y01604D02*
X06293Y01595D01*
X06302Y01505D02*
Y01559D01*
X06309Y01567D01*
Y01601D01*
X06302Y01609D02*
X06309Y01601D01*
X06284Y01341D02*
Y01564D01*
X06267Y01350D02*
Y01584D01*
X06469Y01420D02*
X06469Y01277D01*
X06357Y01343D02*
X06368Y01354D01*
X06769Y01464D02*
X06777Y01472D01*
X06223Y01844D02*
Y01846D01*
X06223Y01846D01*
X06209Y01380D02*
Y01744D01*
X06248Y01783D02*
Y01821D01*
X06223Y01846D02*
X06248Y01821D01*
X06209Y01744D02*
X06248Y01783D01*
X06314Y02030D02*
X06347Y02063D01*
X06284Y01604D02*
Y01866D01*
X06268Y01230D02*
X06317Y01181D01*
Y01146D02*
Y01181D01*
X06441Y01265D02*
Y01532D01*
Y01265D02*
X06456Y01250D01*
Y01227D02*
Y01250D01*
X06252Y01149D02*
X06284Y01117D01*
X06252Y01149D02*
Y01202D01*
X06216Y01238D02*
X06252Y01202D01*
X06251Y01899D02*
X06284Y01866D01*
X06251Y02030D02*
X06284Y02063D01*
X06283Y01956D02*
X06302D01*
X06314Y01968D01*
Y02030D01*
X06251Y01924D02*
X06283Y01956D01*
X06251Y01899D02*
Y01924D01*
X06235Y01956D02*
Y01994D01*
X06251Y02009D01*
Y02030D01*
X06368Y01904D02*
X06368D01*
X06302Y01838D02*
X06368Y01904D01*
X06302Y01609D02*
Y01838D01*
X06368Y01904D02*
X06380Y01916D01*
Y02034D01*
X06539Y01511D02*
Y01536D01*
X06523Y01724D02*
X06541Y01742D01*
X06539Y01536D02*
X06539Y01536D01*
Y01718D01*
X06567Y01746D01*
X06523Y01311D02*
Y01724D01*
X06506Y01146D02*
Y01294D01*
X06566Y01150D02*
X06599Y01117D01*
X06546Y01297D02*
X06566Y01277D01*
Y01150D02*
Y01277D01*
X06506Y01294D02*
X06523Y01311D01*
X06262Y01319D02*
X06284Y01341D01*
X06262Y01288D02*
X06292Y01258D01*
X06262Y01288D02*
Y01319D01*
X06231Y01314D02*
X06267Y01350D01*
X06051Y01418D02*
X06134D01*
X06159Y01393D01*
Y01333D02*
Y01393D01*
Y01333D02*
X06204Y01288D01*
X06262D01*
X06183Y01346D02*
Y01391D01*
Y01346D02*
X06185Y01344D01*
D29*
X06536Y02121D02*
D03*
X06473D02*
D03*
X06410D02*
D03*
X06347D02*
D03*
X06284D02*
D03*
X06221D02*
D03*
X06158Y02121D02*
D03*
X06284Y01060D02*
D03*
X06347D02*
D03*
X06410D02*
D03*
X06473D02*
D03*
X06536D02*
D03*
X06599D02*
D03*
X06662Y01059D02*
D03*
D31*
X06563Y01487D02*
D03*
X06620Y01324D02*
D03*
X06067Y01960D02*
D03*
X06754Y01464D02*
D03*
X06781Y01404D02*
D03*
X06467Y01725D02*
D03*
X06567Y01747D02*
D03*
X06777Y01649D02*
D03*
X06294Y01314D02*
D03*
X06389Y01258D02*
D03*
X06441Y01532D02*
D03*
X06541Y01979D02*
D03*
X06191Y01930D02*
D03*
X06456Y01227D02*
D03*
X06292Y01258D02*
D03*
X06268Y01230D02*
D03*
X06333Y01636D02*
D03*
X06357Y01317D02*
D03*
X06209Y01380D02*
D03*
X06334Y01471D02*
D03*
X06267Y01584D02*
D03*
X06469Y01277D02*
D03*
X06496Y01506D02*
D03*
X06223Y01844D02*
D03*
X06059Y01418D02*
D03*
X06216Y01238D02*
D03*
X06251Y01899D02*
D03*
X06235Y01956D02*
D03*
X06546Y01297D02*
D03*
X06074Y02068D02*
D03*
X05935Y01259D02*
D03*
X06734Y01111D02*
D03*
X06887Y01914D02*
D03*
X06231Y01316D02*
D03*
X06185Y01344D02*
D03*
M02*
