G04 Layer_Color=8388736*
%FSAX25Y25*%
%MOIN*%
G70*
G01*
G75*
%ADD69R,0.04540X0.04737*%
%ADD70R,0.04737X0.04540*%
%ADD71R,0.04343X0.04343*%
%ADD72R,0.20485X0.03162*%
%ADD73R,0.07493X0.05131*%
%ADD74R,0.07887X0.08674*%
%ADD75R,0.05131X0.08674*%
%ADD76R,0.08674X0.05131*%
%ADD77R,0.04343X0.04343*%
G04:AMPARAMS|DCode=78|XSize=165.48mil|YSize=88.71mil|CornerRadius=14.09mil|HoleSize=0mil|Usage=FLASHONLY|Rotation=90.000|XOffset=0mil|YOffset=0mil|HoleType=Round|Shape=RoundedRectangle|*
%AMROUNDEDRECTD78*
21,1,0.16548,0.06053,0,0,90.0*
21,1,0.13730,0.08871,0,0,90.0*
1,1,0.02818,0.03027,0.06865*
1,1,0.02818,0.03027,-0.06865*
1,1,0.02818,-0.03027,-0.06865*
1,1,0.02818,-0.03027,0.06865*
%
%ADD78ROUNDEDRECTD78*%
G04:AMPARAMS|DCode=79|XSize=145.79mil|YSize=88.71mil|CornerRadius=14.09mil|HoleSize=0mil|Usage=FLASHONLY|Rotation=90.000|XOffset=0mil|YOffset=0mil|HoleType=Round|Shape=RoundedRectangle|*
%AMROUNDEDRECTD79*
21,1,0.14579,0.06053,0,0,90.0*
21,1,0.11762,0.08871,0,0,90.0*
1,1,0.02818,0.03027,0.05881*
1,1,0.02818,0.03027,-0.05881*
1,1,0.02818,-0.03027,-0.05881*
1,1,0.02818,-0.03027,0.05881*
%
%ADD79ROUNDEDRECTD79*%
G04:AMPARAMS|DCode=80|XSize=96.58mil|YSize=27.68mil|CornerRadius=6.46mil|HoleSize=0mil|Usage=FLASHONLY|Rotation=90.000|XOffset=0mil|YOffset=0mil|HoleType=Round|Shape=RoundedRectangle|*
%AMROUNDEDRECTD80*
21,1,0.09658,0.01476,0,0,90.0*
21,1,0.08366,0.02768,0,0,90.0*
1,1,0.01292,0.00738,0.04183*
1,1,0.01292,0.00738,-0.04183*
1,1,0.01292,-0.00738,-0.04183*
1,1,0.01292,-0.00738,0.04183*
%
%ADD80ROUNDEDRECTD80*%
%ADD81R,0.05524X0.05524*%
%ADD82R,0.05524X0.05524*%
%ADD83O,0.03556X0.10642*%
%ADD84R,0.03162X0.20485*%
%ADD85R,0.05328X0.07887*%
%ADD86R,0.10131X0.10367*%
%ADD87R,0.10642X0.13792*%
%ADD88R,0.10642X0.04737*%
%ADD89R,0.07887X0.05328*%
%ADD90R,0.10367X0.10131*%
%ADD91R,0.06706X0.06706*%
%ADD92C,0.06706*%
%ADD93C,0.25800*%
%ADD94C,0.12611*%
%ADD95R,0.06706X0.06706*%
%ADD96C,0.04900*%
%ADD97C,0.05131*%
%ADD98C,0.04343*%
%ADD99C,0.16548*%
%ADD100C,0.06800*%
%ADD101C,0.03300*%
G36*
X0071209Y0354275D02*
X0071211Y0354275D01*
X0071236Y0354272D01*
X0071259Y0354270D01*
X0071261Y0354269D01*
X0071263Y0354269D01*
X0071287Y0354263D01*
X0071310Y0354257D01*
X0071312Y0354257D01*
X0071314Y0354256D01*
X0071337Y0354247D01*
X0071359Y0354238D01*
X0071360Y0354237D01*
X0071363Y0354237D01*
X0071384Y0354225D01*
X0071405Y0354213D01*
X0071406Y0354212D01*
X0071408Y0354211D01*
X0071428Y0354196D01*
X0071447Y0354182D01*
X0071448Y0354181D01*
X0071450Y0354179D01*
X0071467Y0354163D01*
X0071485Y0354146D01*
X0071486Y0354144D01*
X0071488Y0354143D01*
X0071502Y0354124D01*
X0071518Y0354105D01*
X0071519Y0354103D01*
X0071520Y0354102D01*
X0071533Y0354081D01*
X0071545Y0354061D01*
X0071546Y0354058D01*
X0071547Y0354057D01*
X0071556Y0354035D01*
X0071566Y0354012D01*
X0077444Y0337947D01*
X0081297Y0338865D01*
X0081308Y0338867D01*
X0081319Y0338869D01*
X0081334Y0338871D01*
X0081349Y0338874D01*
X0081360Y0338874D01*
X0081371Y0338875D01*
X0081386Y0338875D01*
X0081401Y0338876D01*
X0081412Y0338874D01*
X0081424Y0338874D01*
X0081438Y0338872D01*
X0081453Y0338871D01*
X0081464Y0338868D01*
X0081476Y0338866D01*
X0081490Y0338862D01*
X0081504Y0338859D01*
X0081515Y0338855D01*
X0081526Y0338852D01*
X0081540Y0338846D01*
X0081554Y0338841D01*
X0081564Y0338835D01*
X0081574Y0338831D01*
X0081587Y0338823D01*
X0081600Y0338816D01*
X0081609Y0338810D01*
X0081619Y0338804D01*
X0081630Y0338794D01*
X0081643Y0338786D01*
X0081651Y0338778D01*
X0081660Y0338771D01*
X0081670Y0338760D01*
X0081681Y0338750D01*
X0081688Y0338741D01*
X0081696Y0338733D01*
X0081705Y0338721D01*
X0081714Y0338710D01*
X0081721Y0338700D01*
X0081727Y0338691D01*
X0081735Y0338678D01*
X0081742Y0338665D01*
X0081747Y0338655D01*
X0081753Y0338645D01*
X0081758Y0338631D01*
X0081764Y0338618D01*
X0081768Y0338607D01*
X0081772Y0338596D01*
X0083064Y0334537D01*
X0100113Y0337868D01*
X0100117Y0337869D01*
X0100121Y0337870D01*
X0100143Y0337872D01*
X0100165Y0337875D01*
X0100169Y0337875D01*
X0100173Y0337875D01*
X0100195Y0337875D01*
X0100217Y0337875D01*
X0100222Y0337874D01*
X0100226Y0337874D01*
X0100248Y0337871D01*
X0100269Y0337868D01*
X0100273Y0337867D01*
X0100277Y0337866D01*
X0100299Y0337860D01*
X0100320Y0337854D01*
X0100324Y0337852D01*
X0100328Y0337851D01*
X0100348Y0337842D01*
X0100368Y0337834D01*
X0100372Y0337832D01*
X0100376Y0337830D01*
X0100394Y0337819D01*
X0100414Y0337807D01*
X0100417Y0337805D01*
X0100420Y0337803D01*
X0100437Y0337789D01*
X0100455Y0337775D01*
X0100458Y0337772D01*
X0100461Y0337770D01*
X0100477Y0337754D01*
X0100492Y0337738D01*
X0100495Y0337735D01*
X0100497Y0337732D01*
X0100511Y0337714D01*
X0100524Y0337696D01*
X0100526Y0337693D01*
X0100528Y0337689D01*
X0100539Y0337670D01*
X0100550Y0337651D01*
X0100551Y0337647D01*
X0100554Y0337643D01*
X0100561Y0337623D01*
X0100570Y0337602D01*
X0100571Y0337598D01*
X0100572Y0337594D01*
X0100577Y0337573D01*
X0100583Y0337552D01*
X0100584Y0337547D01*
X0100585Y0337543D01*
X0100587Y0337522D01*
X0100590Y0337500D01*
X0100590Y0337495D01*
X0100590Y0337491D01*
X0100590Y0337469D01*
X0100590Y0337447D01*
X0100589Y0337443D01*
X0100589Y0337439D01*
X0100586Y0337417D01*
X0100583Y0337395D01*
X0100582Y0337391D01*
X0100581Y0337387D01*
X0100575Y0337366D01*
X0100569Y0337345D01*
X0100567Y0337341D01*
X0100566Y0337337D01*
X0100557Y0337316D01*
X0100549Y0337296D01*
X0100547Y0337293D01*
X0100545Y0337289D01*
X0100533Y0337270D01*
X0100522Y0337251D01*
X0100520Y0337248D01*
X0100517Y0337244D01*
X0100504Y0337227D01*
X0100490Y0337210D01*
X0100487Y0337207D01*
X0100485Y0337203D01*
X0100469Y0337188D01*
X0100453Y0337173D01*
X0100450Y0337170D01*
X0100447Y0337167D01*
X0100429Y0337154D01*
X0100411Y0337141D01*
X0100408Y0337139D01*
X0100404Y0337136D01*
X0100385Y0337126D01*
X0100366Y0337115D01*
X0100362Y0337113D01*
X0100358Y0337111D01*
X0100338Y0337103D01*
X0100317Y0337095D01*
X0100313Y0337094D01*
X0100309Y0337092D01*
X0081109Y0331092D01*
X0081096Y0331089D01*
X0081083Y0331085D01*
X0081070Y0331083D01*
X0081058Y0331080D01*
X0081045Y0331078D01*
X0081031Y0331076D01*
X0081019Y0331076D01*
X0081006Y0331074D01*
X0080992Y0331075D01*
X0080979Y0331074D01*
X0080966Y0331075D01*
X0080954Y0331076D01*
X0080940Y0331078D01*
X0080926Y0331079D01*
X0080914Y0331082D01*
X0080902Y0331084D01*
X0080889Y0331088D01*
X0080875Y0331091D01*
X0080864Y0331095D01*
X0080852Y0331099D01*
X0080839Y0331104D01*
X0080826Y0331109D01*
X0080815Y0331115D01*
X0080804Y0331120D01*
X0080792Y0331127D01*
X0080780Y0331133D01*
X0080770Y0331140D01*
X0080759Y0331147D01*
X0080748Y0331156D01*
X0080737Y0331164D01*
X0080728Y0331172D01*
X0080718Y0331180D01*
X0080709Y0331190D01*
X0080699Y0331199D01*
X0080691Y0331209D01*
X0080682Y0331218D01*
X0080674Y0331229D01*
X0080665Y0331240D01*
X0080658Y0331250D01*
X0080651Y0331260D01*
X0080645Y0331273D01*
X0080637Y0331284D01*
X0080632Y0331295D01*
X0080626Y0331306D01*
X0080621Y0331319D01*
X0080615Y0331332D01*
X0080612Y0331344D01*
X0080607Y0331355D01*
X0080604Y0331369D01*
X0080600Y0331382D01*
X0079692Y0335195D01*
X0073472Y0333774D01*
X0074891Y0327747D01*
X0079308Y0328667D01*
X0079308Y0328667D01*
X0079309Y0328667D01*
X0079334Y0328671D01*
X0079360Y0328675D01*
X0079360D01*
X0079361Y0328675D01*
X0079386Y0328675D01*
X0079412Y0328675D01*
X0079413Y0328675D01*
X0079413D01*
X0079439Y0328672D01*
X0079464Y0328669D01*
X0079465Y0328669D01*
X0079465Y0328668D01*
X0079491Y0328662D01*
X0079515Y0328656D01*
X0079516Y0328655D01*
X0079516Y0328655D01*
X0079540Y0328646D01*
X0079564Y0328636D01*
X0079564Y0328636D01*
X0079564Y0328636D01*
X0079587Y0328623D01*
X0079610Y0328610D01*
X0079610Y0328610D01*
X0079610Y0328610D01*
X0079632Y0328593D01*
X0079651Y0328579D01*
X0079652Y0328578D01*
X0079652Y0328578D01*
X0079671Y0328560D01*
X0079689Y0328542D01*
X0079689Y0328541D01*
X0079689Y0328541D01*
X0079705Y0328521D01*
X0079721Y0328501D01*
X0079721Y0328500D01*
X0079721Y0328500D01*
X0079734Y0328479D01*
X0079748Y0328455D01*
X0079748Y0328455D01*
X0079748Y0328455D01*
X0079758Y0328432D01*
X0079768Y0328407D01*
X0079768Y0328407D01*
X0079768Y0328406D01*
X0079775Y0328381D01*
X0079782Y0328357D01*
X0079782Y0328356D01*
X0079782Y0328356D01*
X0083782Y0308956D01*
X0083783Y0308954D01*
X0083783Y0308952D01*
X0083786Y0308928D01*
X0083790Y0308904D01*
X0083790Y0308902D01*
X0083790Y0308900D01*
X0083790Y0308876D01*
X0083790Y0308851D01*
X0083790Y0308850D01*
Y0308848D01*
X0083786Y0308824D01*
X0083784Y0308799D01*
X0083783Y0308798D01*
X0083783Y0308796D01*
X0083776Y0308773D01*
X0083770Y0308749D01*
X0083770Y0308747D01*
X0083769Y0308745D01*
X0083760Y0308723D01*
X0083750Y0308700D01*
X0083750Y0308698D01*
X0083749Y0308697D01*
X0083737Y0308676D01*
X0083725Y0308654D01*
X0083723Y0308653D01*
X0083723Y0308651D01*
X0083708Y0308632D01*
X0083693Y0308613D01*
X0083692Y0308611D01*
X0083691Y0308610D01*
X0083673Y0308592D01*
X0083656Y0308575D01*
X0083655Y0308574D01*
X0083653Y0308573D01*
X0083634Y0308558D01*
X0083615Y0308543D01*
X0083613Y0308542D01*
X0083612Y0308541D01*
X0083591Y0308529D01*
X0083570Y0308517D01*
X0083568Y0308516D01*
X0083566Y0308515D01*
X0083544Y0308506D01*
X0083521Y0308496D01*
X0083520Y0308496D01*
X0083518Y0308495D01*
X0083495Y0308489D01*
X0083471Y0308482D01*
X0083469Y0308482D01*
X0083467Y0308482D01*
X0083443Y0308478D01*
X0083419Y0308475D01*
X0083417Y0308475D01*
X0083415Y0308475D01*
X0083391Y0308475D01*
X0083366Y0308475D01*
X0083365Y0308475D01*
X0083363D01*
X0083339Y0308478D01*
X0083314Y0308481D01*
X0083312Y0308482D01*
X0083311Y0308482D01*
X0083288Y0308488D01*
X0083264Y0308494D01*
X0083262Y0308495D01*
X0083260Y0308495D01*
X0083238Y0308505D01*
X0083215Y0308514D01*
X0083213Y0308515D01*
X0083212Y0308516D01*
X0083191Y0308528D01*
X0083169Y0308540D01*
X0083168Y0308541D01*
X0083166Y0308542D01*
X0083147Y0308557D01*
X0083128Y0308572D01*
X0083126Y0308573D01*
X0083125Y0308574D01*
X0083107Y0308592D01*
X0083090Y0308608D01*
X0083089Y0308610D01*
X0083088Y0308611D01*
X0083073Y0308631D01*
X0083058Y0308650D01*
X0083057Y0308651D01*
X0083056Y0308653D01*
X0083044Y0308674D01*
X0083031Y0308695D01*
X0083031Y0308697D01*
X0083030Y0308698D01*
X0083021Y0308721D01*
X0083011Y0308743D01*
X0083011Y0308745D01*
X0083010Y0308747D01*
X0077525Y0325007D01*
X0073275Y0324083D01*
X0073259Y0324081D01*
X0073244Y0324078D01*
X0073233Y0324077D01*
X0073223Y0324075D01*
X0073207Y0324075D01*
X0073191Y0324074D01*
X0073181Y0324075D01*
X0073171Y0324074D01*
X0073155Y0324076D01*
X0073139Y0324077D01*
X0073129Y0324079D01*
X0073119Y0324080D01*
X0073103Y0324084D01*
X0073088Y0324087D01*
X0073078Y0324091D01*
X0073068Y0324093D01*
X0073053Y0324099D01*
X0073038Y0324104D01*
X0073029Y0324108D01*
X0073019Y0324112D01*
X0073005Y0324120D01*
X0072991Y0324127D01*
X0072982Y0324132D01*
X0072973Y0324138D01*
X0072960Y0324147D01*
X0072947Y0324156D01*
X0072939Y0324163D01*
X0072931Y0324169D01*
X0072919Y0324180D01*
X0072908Y0324190D01*
X0072901Y0324198D01*
X0072893Y0324205D01*
X0072883Y0324218D01*
X0072873Y0324229D01*
X0072867Y0324238D01*
X0072860Y0324246D01*
X0072852Y0324260D01*
X0072843Y0324273D01*
X0072839Y0324282D01*
X0072834Y0324291D01*
X0072827Y0324306D01*
X0072820Y0324320D01*
X0072817Y0324330D01*
X0072812Y0324339D01*
X0072808Y0324354D01*
X0072803Y0324369D01*
X0071701Y0328410D01*
X0054667Y0325081D01*
X0054666Y0325081D01*
X0054666Y0325081D01*
X0054641Y0325078D01*
X0054615Y0325075D01*
X0054614D01*
X0054614Y0325075D01*
X0054589Y0325075D01*
X0054562Y0325075D01*
X0054562Y0325075D01*
X0054561D01*
X0054536Y0325078D01*
X0054510Y0325082D01*
X0054510Y0325082D01*
X0054509Y0325082D01*
X0054482Y0325090D01*
X0054460Y0325096D01*
X0054459Y0325096D01*
X0054459Y0325096D01*
X0054434Y0325107D01*
X0054411Y0325116D01*
X0054411Y0325116D01*
X0054410Y0325116D01*
X0054390Y0325129D01*
X0054366Y0325142D01*
X0054366Y0325143D01*
X0054365Y0325143D01*
X0054348Y0325156D01*
X0054325Y0325174D01*
X0054324Y0325175D01*
X0054324Y0325175D01*
X0054306Y0325193D01*
X0054287Y0325212D01*
X0054287Y0325212D01*
X0054287Y0325212D01*
X0054271Y0325233D01*
X0054256Y0325253D01*
X0054255Y0325254D01*
X0054255Y0325254D01*
X0054243Y0325275D01*
X0054230Y0325299D01*
X0054229Y0325299D01*
X0054229Y0325300D01*
X0054219Y0325324D01*
X0054210Y0325347D01*
X0054210Y0325348D01*
X0054210Y0325348D01*
X0054203Y0325373D01*
X0054196Y0325398D01*
X0054196Y0325398D01*
X0054196Y0325399D01*
X0054193Y0325426D01*
X0054190Y0325450D01*
Y0325450D01*
X0054190Y0325451D01*
X0054190Y0325478D01*
X0054190Y0325502D01*
X0054190Y0325503D01*
Y0325503D01*
X0054193Y0325529D01*
X0054197Y0325554D01*
X0054197Y0325555D01*
X0054197Y0325555D01*
X0054204Y0325582D01*
X0054211Y0325605D01*
X0054211Y0325605D01*
X0054211Y0325606D01*
X0054222Y0325633D01*
X0054231Y0325653D01*
X0054231Y0325654D01*
X0054231Y0325654D01*
X0054244Y0325677D01*
X0054257Y0325699D01*
X0054258Y0325699D01*
X0054258Y0325699D01*
X0054271Y0325717D01*
X0054289Y0325740D01*
X0054290Y0325741D01*
X0054290Y0325741D01*
X0054308Y0325759D01*
X0054326Y0325777D01*
X0054327Y0325777D01*
X0054327Y0325778D01*
X0054349Y0325794D01*
X0054368Y0325809D01*
X0054369Y0325809D01*
X0054369Y0325809D01*
X0054390Y0325821D01*
X0054414Y0325835D01*
X0054414Y0325835D01*
X0054414Y0325835D01*
X0054438Y0325845D01*
X0054462Y0325855D01*
X0054463Y0325855D01*
X0054463Y0325855D01*
X0070918Y0331340D01*
X0069999Y0335386D01*
X0069997Y0335395D01*
X0069995Y0335404D01*
X0069993Y0335421D01*
X0069991Y0335438D01*
X0069990Y0335447D01*
X0069989Y0335456D01*
X0069990Y0335473D01*
X0069989Y0335490D01*
X0069990Y0335499D01*
X0069990Y0335509D01*
X0069993Y0335525D01*
X0069995Y0335542D01*
X0069997Y0335551D01*
X0069998Y0335560D01*
X0070003Y0335577D01*
X0070007Y0335593D01*
X0070010Y0335602D01*
X0070013Y0335611D01*
X0070020Y0335627D01*
X0070026Y0335642D01*
X0070030Y0335650D01*
X0070034Y0335659D01*
X0070042Y0335673D01*
X0070051Y0335688D01*
X0070056Y0335696D01*
X0070061Y0335704D01*
X0070071Y0335717D01*
X0070081Y0335731D01*
X0070088Y0335738D01*
X0070094Y0335745D01*
X0070106Y0335757D01*
X0070117Y0335769D01*
X0070125Y0335775D01*
X0070131Y0335781D01*
X0070145Y0335791D01*
X0070158Y0335802D01*
X0070166Y0335807D01*
X0070174Y0335812D01*
X0070188Y0335821D01*
X0070203Y0335829D01*
X0070211Y0335833D01*
X0070219Y0335838D01*
X0070235Y0335844D01*
X0070251Y0335851D01*
X0070260Y0335853D01*
X0070268Y0335857D01*
X0074322Y0337147D01*
X0070798Y0353792D01*
X0070794Y0353816D01*
X0070790Y0353839D01*
X0070790Y0353841D01*
X0070790Y0353844D01*
X0070790Y0353868D01*
X0070789Y0353892D01*
X0070789Y0353894D01*
X0070789Y0353896D01*
X0070792Y0353920D01*
X0070795Y0353944D01*
X0070795Y0353946D01*
X0070796Y0353948D01*
X0070802Y0353972D01*
X0070807Y0353995D01*
X0070808Y0353997D01*
X0070809Y0353999D01*
X0070818Y0354022D01*
X0070826Y0354044D01*
X0070827Y0354046D01*
X0070828Y0354048D01*
X0070840Y0354069D01*
X0070851Y0354090D01*
X0070853Y0354091D01*
X0070854Y0354093D01*
X0070868Y0354113D01*
X0070882Y0354132D01*
X0070884Y0354134D01*
X0070885Y0354135D01*
X0070902Y0354153D01*
X0070919Y0354170D01*
X0070920Y0354171D01*
X0070922Y0354173D01*
X0070941Y0354188D01*
X0070959Y0354203D01*
X0070961Y0354204D01*
X0070963Y0354205D01*
X0070984Y0354218D01*
X0071004Y0354230D01*
X0071006Y0354231D01*
X0071008Y0354232D01*
X0071030Y0354242D01*
X0071052Y0354251D01*
X0071054Y0354252D01*
X0071056Y0354253D01*
X0071080Y0354259D01*
X0071102Y0354266D01*
X0071105Y0354266D01*
X0071107Y0354267D01*
X0071131Y0354271D01*
X0071154Y0354274D01*
X0071156Y0354274D01*
X0071159Y0354274D01*
X0071183Y0354275D01*
X0071207Y0354275D01*
X0071209Y0354275D01*
D02*
G37*
G36*
X0110810Y0329275D02*
X0110818Y0329275D01*
X0110836Y0329272D01*
X0110854Y0329270D01*
X0110862Y0329269D01*
X0110870Y0329268D01*
X0110888Y0329263D01*
X0110906Y0329259D01*
X0110913Y0329256D01*
X0110921Y0329254D01*
X0110938Y0329246D01*
X0110955Y0329240D01*
X0110962Y0329237D01*
X0110969Y0329233D01*
X0112569Y0328433D01*
X0112581Y0328426D01*
X0112594Y0328420D01*
X0112604Y0328413D01*
X0112614Y0328407D01*
X0112626Y0328398D01*
X0112637Y0328390D01*
X0112646Y0328382D01*
X0112656Y0328375D01*
X0112666Y0328365D01*
X0112676Y0328355D01*
X0112684Y0328346D01*
X0112693Y0328337D01*
X0112701Y0328326D01*
X0112710Y0328315D01*
X0113311Y0327515D01*
X0113324Y0327495D01*
X0113337Y0327475D01*
X0113338Y0327473D01*
X0113339Y0327471D01*
X0113349Y0327450D01*
X0113360Y0327428D01*
X0113361Y0327426D01*
X0113362Y0327424D01*
X0113369Y0327401D01*
X0113377Y0327379D01*
X0113377Y0327376D01*
X0113378Y0327374D01*
X0113382Y0327351D01*
X0113387Y0327327D01*
X0113387Y0327325D01*
X0113388Y0327323D01*
X0113389Y0327299D01*
X0113391Y0327275D01*
Y0326275D01*
X0113387Y0326222D01*
X0113377Y0326171D01*
X0113360Y0326121D01*
X0113337Y0326074D01*
X0113308Y0326031D01*
X0113273Y0325991D01*
X0113234Y0325957D01*
X0113190Y0325928D01*
X0113143Y0325904D01*
X0113093Y0325888D01*
X0113042Y0325877D01*
X0112990Y0325874D01*
X0111390D01*
X0111337Y0325877D01*
X0111286Y0325888D01*
X0111236Y0325904D01*
X0111189Y0325928D01*
X0111146Y0325957D01*
X0111106Y0325991D01*
X0110624Y0326474D01*
X0109718D01*
X0109655Y0326159D01*
X0110700Y0325860D01*
X0110708Y0325857D01*
X0110716Y0325855D01*
X0111916Y0325455D01*
X0111929Y0325450D01*
X0111942Y0325446D01*
X0111953Y0325440D01*
X0111965Y0325435D01*
X0111977Y0325429D01*
X0111989Y0325423D01*
X0113389Y0324623D01*
X0113389Y0324622D01*
X0113390Y0324622D01*
X0113411Y0324608D01*
X0113432Y0324594D01*
X0113433Y0324593D01*
X0113434Y0324593D01*
X0113452Y0324577D01*
X0113472Y0324559D01*
X0113473Y0324559D01*
X0113473Y0324558D01*
X0113489Y0324540D01*
X0113507Y0324520D01*
X0113507Y0324519D01*
X0113508Y0324519D01*
X0113521Y0324499D01*
X0113536Y0324477D01*
X0113536Y0324476D01*
X0113537Y0324475D01*
X0113548Y0324453D01*
X0113559Y0324430D01*
X0113560Y0324429D01*
X0113560Y0324428D01*
X0113568Y0324404D01*
X0113576Y0324380D01*
X0113577Y0324379D01*
X0113577Y0324379D01*
X0113582Y0324354D01*
X0113587Y0324329D01*
X0113587Y0324328D01*
X0113587Y0324327D01*
X0113589Y0324301D01*
X0113591Y0324277D01*
X0113591Y0324276D01*
X0113591Y0324275D01*
Y0322075D01*
X0113590Y0322062D01*
X0113590Y0322049D01*
X0113588Y0322036D01*
X0113587Y0322023D01*
X0113585Y0322010D01*
X0113583Y0321997D01*
X0113580Y0321984D01*
X0113577Y0321971D01*
X0113573Y0321959D01*
X0113569Y0321946D01*
X0113564Y0321934D01*
X0113560Y0321921D01*
X0113554Y0321910D01*
X0113549Y0321898D01*
X0113543Y0321886D01*
X0113537Y0321874D01*
X0113530Y0321864D01*
X0113523Y0321852D01*
X0112723Y0320652D01*
X0112711Y0320636D01*
X0112699Y0320620D01*
X0112695Y0320616D01*
X0112691Y0320611D01*
X0112677Y0320597D01*
X0112663Y0320582D01*
X0112659Y0320578D01*
X0112654Y0320574D01*
X0112638Y0320562D01*
X0112623Y0320549D01*
X0112618Y0320546D01*
X0112613Y0320542D01*
X0112595Y0320532D01*
X0112578Y0320521D01*
X0112573Y0320518D01*
X0112567Y0320515D01*
X0112549Y0320508D01*
X0112531Y0320499D01*
X0110931Y0319900D01*
X0110915Y0319895D01*
X0110899Y0319889D01*
X0110889Y0319887D01*
X0110880Y0319884D01*
X0110864Y0319882D01*
X0110848Y0319878D01*
X0110838Y0319877D01*
X0110829Y0319876D01*
X0110812Y0319875D01*
X0110795Y0319874D01*
X0110786Y0319875D01*
X0110776Y0319874D01*
X0110760Y0319876D01*
X0110743Y0319877D01*
X0109043Y0320077D01*
X0109043Y0320077D01*
X0109042Y0320077D01*
X0109013Y0320082D01*
X0108991Y0320086D01*
X0108991Y0320086D01*
X0108991Y0320086D01*
X0108963Y0320095D01*
X0108941Y0320102D01*
X0108941Y0320103D01*
X0108941Y0320103D01*
X0107441Y0320703D01*
X0107432Y0320707D01*
X0107424Y0320710D01*
X0107409Y0320718D01*
X0107394Y0320725D01*
X0107386Y0320730D01*
X0107378Y0320735D01*
X0107364Y0320745D01*
X0107350Y0320754D01*
X0107343Y0320760D01*
X0107335Y0320765D01*
X0107323Y0320777D01*
X0107310Y0320788D01*
X0107304Y0320795D01*
X0107297Y0320801D01*
X0107286Y0320814D01*
X0107275Y0320827D01*
X0107270Y0320834D01*
X0107264Y0320842D01*
X0107255Y0320856D01*
X0107245Y0320870D01*
X0107241Y0320878D01*
X0107236Y0320886D01*
X0107229Y0320902D01*
X0107221Y0320917D01*
X0107218Y0320926D01*
X0107214Y0320934D01*
X0106614Y0322534D01*
X0106606Y0322561D01*
X0106599Y0322583D01*
X0106599Y0322584D01*
X0106599Y0322584D01*
X0106595Y0322611D01*
X0106591Y0322635D01*
X0106591Y0322635D01*
X0106591Y0322636D01*
X0106590Y0322663D01*
X0106589Y0322687D01*
X0106589Y0322688D01*
X0106589Y0322688D01*
X0106592Y0322714D01*
X0106594Y0322740D01*
X0106594Y0322740D01*
X0106594Y0322741D01*
X0106600Y0322764D01*
X0106606Y0322791D01*
X0106606Y0322791D01*
X0106606Y0322792D01*
X0106616Y0322816D01*
X0106624Y0322840D01*
X0106625Y0322840D01*
X0106625Y0322841D01*
X0106639Y0322866D01*
X0106649Y0322886D01*
X0106649Y0322886D01*
X0106650Y0322887D01*
X0106665Y0322908D01*
X0106679Y0322929D01*
X0106680Y0322929D01*
X0106680Y0322930D01*
X0106698Y0322948D01*
X0106715Y0322967D01*
X0106716Y0322967D01*
X0106716Y0322968D01*
X0106738Y0322986D01*
X0106756Y0323000D01*
X0106756Y0323001D01*
X0106757Y0323001D01*
X0106778Y0323014D01*
X0106800Y0323028D01*
X0106801Y0323028D01*
X0106801Y0323028D01*
X0106824Y0323039D01*
X0106848Y0323050D01*
X0106849Y0323050D01*
X0106849Y0323050D01*
X0106876Y0323058D01*
X0106898Y0323065D01*
X0106899Y0323065D01*
X0106899Y0323065D01*
X0106926Y0323070D01*
X0106950Y0323074D01*
X0106951Y0323074D01*
X0106951Y0323074D01*
X0106951D01*
X0108950Y0323274D01*
X0108958Y0323274D01*
X0108966Y0323275D01*
X0108984Y0323275D01*
X0109002Y0323275D01*
X0109010Y0323275D01*
X0109018Y0323275D01*
X0109036Y0323272D01*
X0109055Y0323270D01*
X0109062Y0323269D01*
X0109070Y0323268D01*
X0109088Y0323263D01*
X0109106Y0323259D01*
X0109113Y0323256D01*
X0109121Y0323254D01*
X0109137Y0323247D01*
X0109155Y0323240D01*
X0109162Y0323236D01*
X0109169Y0323233D01*
X0109185Y0323224D01*
X0109201Y0323216D01*
X0109207Y0323211D01*
X0109214Y0323207D01*
X0109229Y0323196D01*
X0109244Y0323185D01*
X0109249Y0323180D01*
X0109256Y0323175D01*
X0109269Y0323162D01*
X0109282Y0323149D01*
X0109287Y0323143D01*
X0109293Y0323137D01*
X0109304Y0323123D01*
X0109315Y0323109D01*
X0109319Y0323102D01*
X0109324Y0323096D01*
X0109333Y0323080D01*
X0109343Y0323064D01*
X0109346Y0323057D01*
X0109350Y0323050D01*
X0109357Y0323033D01*
X0109365Y0323017D01*
X0109367Y0323009D01*
X0109370Y0323002D01*
X0109479Y0322676D01*
X0110868D01*
X0111034Y0322786D01*
X0110938Y0322930D01*
X0109734Y0323274D01*
X0109190Y0323274D01*
X0109177Y0323275D01*
X0109164Y0323275D01*
X0109151Y0323276D01*
X0109137Y0323277D01*
X0109125Y0323280D01*
X0109112Y0323282D01*
X0109099Y0323285D01*
X0109086Y0323288D01*
X0109074Y0323292D01*
X0109061Y0323295D01*
X0109049Y0323300D01*
X0109036Y0323304D01*
X0109025Y0323310D01*
X0109013Y0323315D01*
X0109001Y0323322D01*
X0108989Y0323328D01*
X0108979Y0323335D01*
X0108967Y0323341D01*
X0107767Y0324141D01*
X0107767Y0324142D01*
X0107767Y0324142D01*
X0107746Y0324158D01*
X0107726Y0324173D01*
X0107726Y0324173D01*
X0107725Y0324174D01*
X0107706Y0324193D01*
X0107689Y0324210D01*
X0107688Y0324211D01*
X0107688Y0324211D01*
X0107673Y0324231D01*
X0107657Y0324252D01*
X0107657Y0324252D01*
X0107656Y0324252D01*
X0106856Y0325452D01*
X0106850Y0325463D01*
X0106844Y0325472D01*
X0106837Y0325485D01*
X0106830Y0325498D01*
X0106826Y0325509D01*
X0106820Y0325519D01*
X0106816Y0325533D01*
X0106810Y0325546D01*
X0106807Y0325557D01*
X0106803Y0325569D01*
X0106800Y0325583D01*
X0106797Y0325597D01*
X0106795Y0325608D01*
X0106793Y0325620D01*
X0106792Y0325635D01*
X0106790Y0325649D01*
X0106790Y0325661D01*
X0106789Y0325672D01*
X0106790Y0325687D01*
X0106790Y0325701D01*
X0106791Y0325713D01*
X0106792Y0325725D01*
X0106992Y0327325D01*
X0106992Y0327326D01*
X0106992Y0327327D01*
X0106997Y0327352D01*
X0107002Y0327376D01*
X0107002Y0327377D01*
X0107003Y0327379D01*
X0107011Y0327403D01*
X0107018Y0327426D01*
X0107019Y0327427D01*
X0107019Y0327428D01*
X0107031Y0327451D01*
X0107041Y0327473D01*
X0107042Y0327474D01*
X0107043Y0327475D01*
X0107056Y0327496D01*
X0107070Y0327517D01*
X0107071Y0327518D01*
X0107072Y0327519D01*
X0107089Y0327538D01*
X0107105Y0327556D01*
X0107105Y0327557D01*
X0107106Y0327558D01*
X0108506Y0328958D01*
X0108511Y0328962D01*
X0108515Y0328967D01*
X0108531Y0328980D01*
X0108546Y0328993D01*
X0108551Y0328996D01*
X0108556Y0329000D01*
X0108573Y0329011D01*
X0108589Y0329022D01*
X0108595Y0329025D01*
X0108600Y0329028D01*
X0108618Y0329036D01*
X0108636Y0329045D01*
X0108642Y0329047D01*
X0108648Y0329050D01*
X0108667Y0329056D01*
X0108686Y0329062D01*
X0108692Y0329063D01*
X0108698Y0329065D01*
X0108718Y0329068D01*
X0108737Y0329072D01*
X0108744Y0329073D01*
X0108750Y0329074D01*
X0110750Y0329274D01*
X0110758Y0329274D01*
X0110766Y0329275D01*
X0110784Y0329275D01*
X0110802Y0329275D01*
X0110810Y0329275D01*
D02*
G37*
G36*
X0117360Y0329175D02*
X0117369Y0329175D01*
X0117386Y0329172D01*
X0117403Y0329171D01*
X0117412Y0329169D01*
X0117421Y0329167D01*
X0117437Y0329163D01*
X0117454Y0329159D01*
X0117463Y0329156D01*
X0117471Y0329153D01*
X0117487Y0329147D01*
X0117503Y0329141D01*
X0117511Y0329137D01*
X0117519Y0329133D01*
X0117534Y0329124D01*
X0117550Y0329116D01*
X0117557Y0329111D01*
X0117565Y0329107D01*
X0117578Y0329096D01*
X0117593Y0329086D01*
X0117599Y0329080D01*
X0117606Y0329074D01*
X0117618Y0329062D01*
X0117631Y0329050D01*
X0117637Y0329043D01*
X0117643Y0329037D01*
X0117653Y0329023D01*
X0117664Y0329010D01*
X0117669Y0329002D01*
X0117675Y0328995D01*
X0117683Y0328980D01*
X0117692Y0328966D01*
X0117696Y0328958D01*
X0117701Y0328950D01*
X0117707Y0328934D01*
X0117714Y0328918D01*
X0120964Y0320418D01*
X0120970Y0320398D01*
X0120977Y0320378D01*
X0120978Y0320373D01*
X0120980Y0320368D01*
X0120983Y0320347D01*
X0120987Y0320327D01*
X0120988Y0320322D01*
X0120989Y0320316D01*
X0120989Y0320295D01*
X0120991Y0320275D01*
X0120990Y0320269D01*
X0120991Y0320264D01*
X0120989Y0320243D01*
X0120987Y0320222D01*
X0120986Y0320217D01*
X0120986Y0320212D01*
X0120981Y0320191D01*
X0120977Y0320171D01*
X0120975Y0320166D01*
X0120974Y0320160D01*
X0120967Y0320141D01*
X0120960Y0320121D01*
X0120958Y0320116D01*
X0120956Y0320111D01*
X0120946Y0320093D01*
X0120937Y0320074D01*
X0120934Y0320070D01*
X0120931Y0320065D01*
X0120919Y0320048D01*
X0120908Y0320031D01*
X0120904Y0320027D01*
X0120901Y0320022D01*
X0120887Y0320007D01*
X0120873Y0319991D01*
X0120869Y0319988D01*
X0120865Y0319984D01*
X0120849Y0319970D01*
X0120834Y0319957D01*
X0120829Y0319954D01*
X0120825Y0319950D01*
X0120807Y0319939D01*
X0120790Y0319928D01*
X0120785Y0319925D01*
X0120781Y0319922D01*
X0120762Y0319914D01*
X0120743Y0319904D01*
X0120738Y0319903D01*
X0120733Y0319900D01*
X0120713Y0319894D01*
X0120694Y0319888D01*
X0120688Y0319886D01*
X0120683Y0319885D01*
X0120662Y0319881D01*
X0120642Y0319877D01*
X0120637Y0319877D01*
X0120631Y0319876D01*
X0120610Y0319875D01*
X0120590Y0319874D01*
X0118990D01*
X0118965Y0319876D01*
X0118940Y0319877D01*
X0118939Y0319877D01*
X0118937Y0319877D01*
X0118913Y0319882D01*
X0118888Y0319887D01*
X0118887Y0319887D01*
X0118886Y0319888D01*
X0118862Y0319896D01*
X0118839Y0319904D01*
X0118837Y0319904D01*
X0118836Y0319904D01*
X0118814Y0319916D01*
X0118791Y0319927D01*
X0118790Y0319927D01*
X0118789Y0319928D01*
X0118769Y0319941D01*
X0118748Y0319955D01*
X0118747Y0319956D01*
X0118746Y0319957D01*
X0118727Y0319973D01*
X0118708Y0319990D01*
X0118707Y0319991D01*
X0118706Y0319991D01*
X0118691Y0320009D01*
X0118673Y0320029D01*
X0118673Y0320030D01*
X0118672Y0320031D01*
X0118658Y0320051D01*
X0118644Y0320072D01*
X0118643Y0320073D01*
X0118643Y0320074D01*
X0118632Y0320096D01*
X0118620Y0320119D01*
X0117390Y0323042D01*
X0116159Y0320119D01*
X0116148Y0320097D01*
X0116137Y0320074D01*
X0116136Y0320073D01*
X0116136Y0320072D01*
X0116122Y0320052D01*
X0116108Y0320031D01*
X0116107Y0320030D01*
X0116106Y0320029D01*
X0116090Y0320010D01*
X0116073Y0319991D01*
X0116072Y0319991D01*
X0116072Y0319990D01*
X0116053Y0319973D01*
X0116034Y0319957D01*
X0116033Y0319956D01*
X0116032Y0319955D01*
X0116011Y0319942D01*
X0115990Y0319928D01*
X0115989Y0319927D01*
X0115988Y0319927D01*
X0115966Y0319916D01*
X0115943Y0319904D01*
X0115942Y0319904D01*
X0115941Y0319904D01*
X0115918Y0319896D01*
X0115893Y0319888D01*
X0115892Y0319887D01*
X0115891Y0319887D01*
X0115868Y0319882D01*
X0115842Y0319877D01*
X0115841Y0319877D01*
X0115840Y0319877D01*
X0115816Y0319876D01*
X0115790Y0319874D01*
X0114390D01*
X0114375Y0319875D01*
X0114361Y0319875D01*
X0114349Y0319877D01*
X0114337Y0319877D01*
X0114323Y0319880D01*
X0114309Y0319882D01*
X0114297Y0319885D01*
X0114286Y0319888D01*
X0114272Y0319892D01*
X0114258Y0319896D01*
X0114248Y0319901D01*
X0114236Y0319904D01*
X0114223Y0319911D01*
X0114210Y0319917D01*
X0114200Y0319922D01*
X0114189Y0319928D01*
X0114177Y0319936D01*
X0114165Y0319943D01*
X0114155Y0319950D01*
X0114146Y0319957D01*
X0114135Y0319966D01*
X0114123Y0319975D01*
X0114115Y0319984D01*
X0114106Y0319991D01*
X0114097Y0320002D01*
X0114087Y0320013D01*
X0114079Y0320022D01*
X0114072Y0320031D01*
X0114064Y0320043D01*
X0114055Y0320054D01*
X0114049Y0320065D01*
X0114043Y0320074D01*
X0114036Y0320087D01*
X0114029Y0320100D01*
X0114025Y0320111D01*
X0114019Y0320121D01*
X0114015Y0320135D01*
X0114009Y0320148D01*
X0114006Y0320160D01*
X0114003Y0320171D01*
X0114000Y0320185D01*
X0113996Y0320199D01*
X0113995Y0320211D01*
X0113992Y0320222D01*
X0113991Y0320237D01*
X0113990Y0320251D01*
X0113990Y0320263D01*
X0113989Y0320275D01*
X0113990Y0320289D01*
X0113990Y0320304D01*
X0113992Y0320315D01*
X0113992Y0320327D01*
X0113995Y0320341D01*
X0113997Y0320356D01*
X0114000Y0320367D01*
X0114003Y0320378D01*
X0114007Y0320392D01*
X0114011Y0320406D01*
X0116961Y0328906D01*
X0116968Y0328922D01*
X0116974Y0328938D01*
X0116978Y0328946D01*
X0116981Y0328955D01*
X0116990Y0328970D01*
X0116998Y0328985D01*
X0117003Y0328992D01*
X0117008Y0329000D01*
X0117019Y0329013D01*
X0117029Y0329028D01*
X0117035Y0329034D01*
X0117040Y0329041D01*
X0117052Y0329053D01*
X0117064Y0329066D01*
X0117071Y0329072D01*
X0117078Y0329078D01*
X0117091Y0329088D01*
X0117105Y0329099D01*
X0117112Y0329104D01*
X0117119Y0329110D01*
X0117134Y0329118D01*
X0117149Y0329127D01*
X0117157Y0329131D01*
X0117165Y0329135D01*
X0117181Y0329142D01*
X0117197Y0329149D01*
X0117205Y0329152D01*
X0117213Y0329155D01*
X0117230Y0329160D01*
X0117247Y0329165D01*
X0117256Y0329166D01*
X0117264Y0329169D01*
X0117281Y0329171D01*
X0117298Y0329173D01*
X0117307Y0329174D01*
X0117316Y0329175D01*
X0117333Y0329175D01*
X0117351Y0329175D01*
X0117360Y0329175D01*
D02*
G37*
G36*
X0133201Y0327075D02*
X0133211Y0327075D01*
X0133227Y0327073D01*
X0133242Y0327072D01*
X0133253Y0327070D01*
X0133264Y0327069D01*
X0133278Y0327065D01*
X0133293Y0327062D01*
X0133304Y0327059D01*
X0133314Y0327056D01*
X0133328Y0327050D01*
X0133343Y0327045D01*
X0133353Y0327040D01*
X0133363Y0327036D01*
X0133376Y0327029D01*
X0133390Y0327022D01*
X0133399Y0327016D01*
X0133409Y0327011D01*
X0133421Y0327001D01*
X0133434Y0326993D01*
X0133442Y0326986D01*
X0133451Y0326979D01*
X0134851Y0325779D01*
X0134862Y0325768D01*
X0134873Y0325758D01*
X0134880Y0325750D01*
X0134888Y0325743D01*
X0134898Y0325730D01*
X0134908Y0325719D01*
X0134914Y0325710D01*
X0134921Y0325701D01*
X0134928Y0325688D01*
X0134937Y0325675D01*
X0134942Y0325665D01*
X0134947Y0325656D01*
X0134953Y0325642D01*
X0134960Y0325628D01*
X0134964Y0325618D01*
X0134968Y0325608D01*
X0134972Y0325593D01*
X0134977Y0325578D01*
X0134979Y0325568D01*
X0134982Y0325557D01*
X0134984Y0325542D01*
X0134987Y0325527D01*
X0134988Y0325516D01*
X0134990Y0325505D01*
X0134990Y0325490D01*
X0134991Y0325475D01*
Y0323075D01*
X0134987Y0323023D01*
X0134977Y0322971D01*
X0134960Y0322921D01*
X0134937Y0322874D01*
X0134908Y0322831D01*
X0134873Y0322791D01*
X0132498Y0320416D01*
X0134616Y0320275D01*
X0134629Y0320273D01*
X0134642Y0320272D01*
X0134655Y0320270D01*
X0134668Y0320268D01*
X0134681Y0320265D01*
X0134694Y0320262D01*
X0134706Y0320258D01*
X0134719Y0320254D01*
X0134731Y0320249D01*
X0134743Y0320245D01*
X0134755Y0320239D01*
X0134767Y0320234D01*
X0134779Y0320228D01*
X0134790Y0320222D01*
X0134801Y0320215D01*
X0134813Y0320208D01*
X0134823Y0320200D01*
X0134834Y0320193D01*
X0134844Y0320184D01*
X0134854Y0320176D01*
X0134863Y0320167D01*
X0134873Y0320158D01*
X0134882Y0320148D01*
X0134891Y0320139D01*
X0134899Y0320128D01*
X0134908Y0320119D01*
X0134915Y0320108D01*
X0134923Y0320097D01*
X0134930Y0320086D01*
X0134937Y0320075D01*
X0134943Y0320063D01*
X0134950Y0320052D01*
X0134954Y0320040D01*
X0134960Y0320028D01*
X0134964Y0320016D01*
X0134969Y0320003D01*
X0134973Y0319991D01*
X0134977Y0319978D01*
X0134980Y0319965D01*
X0134983Y0319953D01*
X0134985Y0319940D01*
X0134987Y0319927D01*
X0134988Y0319914D01*
X0134990Y0319901D01*
X0134990Y0319888D01*
X0134991Y0319875D01*
Y0318275D01*
X0134987Y0318222D01*
X0134977Y0318171D01*
X0134960Y0318121D01*
X0134937Y0318074D01*
X0134908Y0318031D01*
X0134873Y0317991D01*
X0134834Y0317957D01*
X0134790Y0317928D01*
X0134743Y0317904D01*
X0134694Y0317888D01*
X0134642Y0317877D01*
X0134590Y0317874D01*
X0128790D01*
X0128737Y0317877D01*
X0128686Y0317888D01*
X0128636Y0317904D01*
X0128589Y0317928D01*
X0128546Y0317957D01*
X0128506Y0317991D01*
X0128472Y0318031D01*
X0128443Y0318074D01*
X0128419Y0318121D01*
X0128403Y0318171D01*
X0128392Y0318222D01*
X0128389Y0318275D01*
Y0319475D01*
X0128390Y0319494D01*
X0128391Y0319514D01*
X0128392Y0319520D01*
X0128392Y0319527D01*
X0128396Y0319546D01*
X0128399Y0319565D01*
X0128401Y0319572D01*
X0128403Y0319579D01*
X0128409Y0319597D01*
X0128414Y0319615D01*
X0128417Y0319622D01*
X0128419Y0319628D01*
X0128428Y0319646D01*
X0128436Y0319663D01*
X0128440Y0319669D01*
X0128443Y0319675D01*
X0128453Y0319691D01*
X0128464Y0319708D01*
X0129464Y0321108D01*
X0129473Y0321120D01*
X0129483Y0321132D01*
X0129490Y0321140D01*
X0129497Y0321148D01*
X0129508Y0321159D01*
X0129519Y0321170D01*
X0131891Y0323345D01*
X0132389Y0324008D01*
Y0324627D01*
X0131943Y0324850D01*
X0131500Y0324739D01*
X0131170Y0323748D01*
X0131165Y0323735D01*
X0131160Y0323721D01*
X0131155Y0323711D01*
X0131150Y0323699D01*
X0131143Y0323687D01*
X0131137Y0323674D01*
X0131130Y0323664D01*
X0131124Y0323654D01*
X0131116Y0323643D01*
X0131108Y0323631D01*
X0131100Y0323622D01*
X0131093Y0323612D01*
X0131083Y0323602D01*
X0131073Y0323591D01*
X0131064Y0323583D01*
X0131056Y0323575D01*
X0131045Y0323566D01*
X0131034Y0323557D01*
X0131024Y0323550D01*
X0131014Y0323543D01*
X0131002Y0323536D01*
X0130990Y0323528D01*
X0130979Y0323522D01*
X0130969Y0323516D01*
X0130956Y0323511D01*
X0130943Y0323504D01*
X0130932Y0323501D01*
X0130921Y0323496D01*
X0130907Y0323492D01*
X0130894Y0323488D01*
X0130882Y0323485D01*
X0130870Y0323482D01*
X0130856Y0323480D01*
X0130842Y0323477D01*
X0130830Y0323477D01*
X0130818Y0323475D01*
X0130804Y0323475D01*
X0130790Y0323474D01*
X0128990D01*
X0128988Y0323474D01*
X0128985Y0323474D01*
X0128962Y0323476D01*
X0128937Y0323477D01*
X0128935Y0323478D01*
X0128933Y0323478D01*
X0128910Y0323483D01*
X0128886Y0323488D01*
X0128884Y0323488D01*
X0128882Y0323489D01*
X0128860Y0323497D01*
X0128836Y0323504D01*
X0128834Y0323505D01*
X0128832Y0323506D01*
X0128811Y0323517D01*
X0128789Y0323528D01*
X0128788Y0323529D01*
X0128786Y0323530D01*
X0128766Y0323543D01*
X0128746Y0323557D01*
X0128744Y0323558D01*
X0128742Y0323559D01*
X0128725Y0323575D01*
X0128706Y0323591D01*
X0128705Y0323593D01*
X0128703Y0323594D01*
X0128688Y0323613D01*
X0128672Y0323631D01*
X0128671Y0323633D01*
X0128669Y0323634D01*
X0128656Y0323654D01*
X0128643Y0323674D01*
X0128642Y0323676D01*
X0128640Y0323678D01*
X0128630Y0323700D01*
X0128619Y0323721D01*
X0128619Y0323724D01*
X0128618Y0323726D01*
X0128610Y0323748D01*
X0128603Y0323771D01*
X0128602Y0323773D01*
X0128601Y0323775D01*
X0128597Y0323799D01*
X0128592Y0323822D01*
X0128592Y0323825D01*
X0128592Y0323827D01*
X0128591Y0323850D01*
X0128589Y0323875D01*
X0128589Y0323877D01*
X0128589Y0323879D01*
X0128591Y0323903D01*
X0128592Y0323927D01*
X0128593Y0323929D01*
X0128593Y0323932D01*
X0128793Y0325331D01*
X0128795Y0325342D01*
X0128797Y0325353D01*
X0128801Y0325368D01*
X0128804Y0325383D01*
X0128807Y0325393D01*
X0128810Y0325404D01*
X0128816Y0325418D01*
X0128821Y0325432D01*
X0128826Y0325442D01*
X0128830Y0325452D01*
X0128838Y0325466D01*
X0128845Y0325479D01*
X0128851Y0325488D01*
X0128857Y0325498D01*
X0128866Y0325510D01*
X0128875Y0325522D01*
X0128882Y0325531D01*
X0128889Y0325539D01*
X0128899Y0325550D01*
X0128910Y0325561D01*
X0128918Y0325569D01*
X0128926Y0325576D01*
X0130526Y0326976D01*
X0130536Y0326984D01*
X0130546Y0326993D01*
X0130557Y0327000D01*
X0130567Y0327008D01*
X0130579Y0327015D01*
X0130589Y0327022D01*
X0130601Y0327028D01*
X0130613Y0327034D01*
X0130625Y0327039D01*
X0130636Y0327045D01*
X0130649Y0327049D01*
X0130661Y0327055D01*
X0130674Y0327058D01*
X0130686Y0327062D01*
X0130699Y0327065D01*
X0130712Y0327068D01*
X0130725Y0327070D01*
X0130737Y0327072D01*
X0130751Y0327073D01*
X0130764Y0327075D01*
X0130777Y0327075D01*
X0130790Y0327076D01*
X0133190D01*
X0133201Y0327075D01*
D02*
G37*
G36*
X0102005Y0329275D02*
X0102019Y0329275D01*
X0102031Y0329273D01*
X0102042Y0329272D01*
X0102057Y0329269D01*
X0102071Y0329267D01*
X0102082Y0329264D01*
X0102094Y0329262D01*
X0102108Y0329257D01*
X0102122Y0329253D01*
X0102132Y0329249D01*
X0102143Y0329245D01*
X0102156Y0329239D01*
X0102170Y0329233D01*
X0102180Y0329227D01*
X0102190Y0329222D01*
X0102202Y0329214D01*
X0102215Y0329206D01*
X0102224Y0329199D01*
X0102234Y0329193D01*
X0102245Y0329183D01*
X0102257Y0329174D01*
X0102265Y0329166D01*
X0102273Y0329158D01*
X0102283Y0329147D01*
X0102293Y0329137D01*
X0102300Y0329127D01*
X0102308Y0329119D01*
X0102316Y0329107D01*
X0102325Y0329095D01*
X0102331Y0329085D01*
X0102337Y0329075D01*
X0102343Y0329062D01*
X0102351Y0329049D01*
X0102355Y0329039D01*
X0102360Y0329028D01*
X0102365Y0329014D01*
X0102370Y0329000D01*
X0102373Y0328989D01*
X0102377Y0328978D01*
X0102380Y0328964D01*
X0102384Y0328950D01*
X0102385Y0328938D01*
X0102387Y0328927D01*
X0102388Y0328912D01*
X0102390Y0328898D01*
X0102390Y0328886D01*
X0102391Y0328875D01*
X0102390Y0328860D01*
X0102390Y0328845D01*
X0102388Y0328834D01*
X0102387Y0328822D01*
X0102384Y0328808D01*
X0102382Y0328793D01*
X0102379Y0328782D01*
X0102377Y0328771D01*
X0102372Y0328757D01*
X0102368Y0328743D01*
X0099368Y0320143D01*
X0099366Y0320137D01*
X0099364Y0320131D01*
X0099356Y0320113D01*
X0099348Y0320094D01*
X0099345Y0320089D01*
X0099342Y0320083D01*
X0099331Y0320066D01*
X0099321Y0320049D01*
X0099317Y0320044D01*
X0099314Y0320039D01*
X0099301Y0320024D01*
X0099289Y0320008D01*
X0099284Y0320004D01*
X0099280Y0319999D01*
X0099266Y0319985D01*
X0099252Y0319971D01*
X0099247Y0319967D01*
X0099242Y0319963D01*
X0099226Y0319952D01*
X0099210Y0319940D01*
X0099204Y0319936D01*
X0099199Y0319933D01*
X0099181Y0319924D01*
X0099164Y0319914D01*
X0099158Y0319911D01*
X0099153Y0319908D01*
X0099134Y0319902D01*
X0099115Y0319894D01*
X0099109Y0319893D01*
X0099103Y0319890D01*
X0099084Y0319886D01*
X0099065Y0319881D01*
X0099058Y0319880D01*
X0099052Y0319879D01*
X0099032Y0319877D01*
X0099013Y0319875D01*
X0099006Y0319875D01*
X0099000Y0319874D01*
X0098980Y0319875D01*
X0098960Y0319875D01*
X0098954Y0319876D01*
X0098948Y0319876D01*
X0098928Y0319880D01*
X0098908Y0319882D01*
X0098902Y0319884D01*
X0098896Y0319885D01*
X0098877Y0319891D01*
X0098858Y0319896D01*
X0098852Y0319899D01*
X0098846Y0319901D01*
X0098828Y0319909D01*
X0098809Y0319917D01*
X0098804Y0319920D01*
X0098798Y0319923D01*
X0098782Y0319933D01*
X0098764Y0319943D01*
X0098759Y0319947D01*
X0098754Y0319951D01*
X0098739Y0319963D01*
X0098723Y0319976D01*
X0098719Y0319980D01*
X0098714Y0319984D01*
X0098700Y0319999D01*
X0098686Y0320013D01*
X0098682Y0320018D01*
X0098678Y0320023D01*
X0098667Y0320039D01*
X0098655Y0320055D01*
X0098651Y0320060D01*
X0098648Y0320066D01*
X0098638Y0320083D01*
X0098629Y0320100D01*
X0098626Y0320106D01*
X0098624Y0320112D01*
X0096624Y0324612D01*
X0094966Y0320136D01*
X0094961Y0320126D01*
X0094958Y0320115D01*
X0094951Y0320102D01*
X0094944Y0320088D01*
X0094938Y0320078D01*
X0094934Y0320069D01*
X0094925Y0320056D01*
X0094917Y0320043D01*
X0094910Y0320035D01*
X0094904Y0320026D01*
X0094894Y0320014D01*
X0094884Y0320002D01*
X0094876Y0319995D01*
X0094869Y0319987D01*
X0094857Y0319977D01*
X0094846Y0319966D01*
X0094837Y0319960D01*
X0094829Y0319953D01*
X0094816Y0319945D01*
X0094803Y0319935D01*
X0094794Y0319930D01*
X0094784Y0319924D01*
X0094771Y0319918D01*
X0094757Y0319911D01*
X0094747Y0319907D01*
X0094737Y0319902D01*
X0094723Y0319897D01*
X0094708Y0319892D01*
X0094698Y0319889D01*
X0094687Y0319886D01*
X0094672Y0319883D01*
X0094657Y0319880D01*
X0094646Y0319879D01*
X0094636Y0319877D01*
X0094620Y0319876D01*
X0094605Y0319874D01*
X0094594Y0319875D01*
X0094583Y0319874D01*
X0094568Y0319875D01*
X0094553Y0319876D01*
X0094542Y0319877D01*
X0094531Y0319878D01*
X0094516Y0319882D01*
X0094501Y0319884D01*
X0094490Y0319887D01*
X0094480Y0319889D01*
X0094465Y0319895D01*
X0094450Y0319899D01*
X0094441Y0319903D01*
X0094430Y0319907D01*
X0094417Y0319914D01*
X0094403Y0319920D01*
X0094393Y0319926D01*
X0094384Y0319931D01*
X0094371Y0319940D01*
X0094358Y0319948D01*
X0094349Y0319955D01*
X0094341Y0319961D01*
X0094329Y0319971D01*
X0094317Y0319981D01*
X0094310Y0319989D01*
X0094302Y0319996D01*
X0094292Y0320008D01*
X0094281Y0320019D01*
X0094275Y0320028D01*
X0094268Y0320036D01*
X0094260Y0320049D01*
X0094251Y0320061D01*
X0094245Y0320071D01*
X0094239Y0320080D01*
X0094233Y0320094D01*
X0094226Y0320107D01*
X0094222Y0320118D01*
X0094217Y0320127D01*
X0090817Y0328727D01*
X0090810Y0328749D01*
X0090803Y0328771D01*
X0090802Y0328774D01*
X0090801Y0328777D01*
X0090797Y0328800D01*
X0090792Y0328822D01*
X0090792Y0328826D01*
X0090791Y0328829D01*
X0090790Y0328852D01*
X0090789Y0328875D01*
X0090789Y0328878D01*
X0090789Y0328881D01*
X0090791Y0328904D01*
X0090792Y0328927D01*
X0090793Y0328930D01*
X0090793Y0328934D01*
X0090798Y0328956D01*
X0090803Y0328978D01*
X0090804Y0328982D01*
X0090804Y0328985D01*
X0090812Y0329006D01*
X0090819Y0329028D01*
X0090821Y0329031D01*
X0090822Y0329034D01*
X0090832Y0329055D01*
X0090843Y0329075D01*
X0090844Y0329078D01*
X0090846Y0329081D01*
X0090859Y0329100D01*
X0090872Y0329119D01*
X0090874Y0329121D01*
X0090876Y0329124D01*
X0090891Y0329141D01*
X0090906Y0329158D01*
X0090909Y0329160D01*
X0090911Y0329163D01*
X0090929Y0329178D01*
X0090946Y0329193D01*
X0090948Y0329195D01*
X0090951Y0329197D01*
X0090970Y0329209D01*
X0090989Y0329222D01*
X0090992Y0329223D01*
X0090995Y0329225D01*
X0091016Y0329235D01*
X0091036Y0329245D01*
X0091040Y0329246D01*
X0091042Y0329248D01*
X0091064Y0329255D01*
X0091086Y0329262D01*
X0091089Y0329263D01*
X0091092Y0329264D01*
X0091115Y0329268D01*
X0091137Y0329272D01*
X0091141Y0329272D01*
X0091144Y0329273D01*
X0091167Y0329274D01*
X0091190Y0329276D01*
X0092990D01*
X0093014Y0329274D01*
X0093040Y0329273D01*
X0093041Y0329272D01*
X0093042Y0329272D01*
X0093066Y0329268D01*
X0093091Y0329263D01*
X0093092Y0329262D01*
X0093094Y0329262D01*
X0093117Y0329254D01*
X0093141Y0329246D01*
X0093142Y0329245D01*
X0093143Y0329245D01*
X0093165Y0329234D01*
X0093188Y0329223D01*
X0093189Y0329222D01*
X0093190Y0329222D01*
X0093211Y0329208D01*
X0093232Y0329194D01*
X0093233Y0329193D01*
X0093234Y0329193D01*
X0093252Y0329177D01*
X0093272Y0329160D01*
X0093272Y0329159D01*
X0093273Y0329158D01*
X0093289Y0329140D01*
X0093306Y0329121D01*
X0093307Y0329120D01*
X0093308Y0329119D01*
X0093322Y0329098D01*
X0093336Y0329077D01*
X0093336Y0329076D01*
X0093337Y0329075D01*
X0093348Y0329053D01*
X0093359Y0329030D01*
X0094565Y0326167D01*
X0095614Y0329013D01*
X0095617Y0329021D01*
X0095619Y0329028D01*
X0095627Y0329045D01*
X0095635Y0329061D01*
X0095639Y0329068D01*
X0095643Y0329075D01*
X0095653Y0329090D01*
X0095662Y0329106D01*
X0095667Y0329112D01*
X0095672Y0329119D01*
X0095684Y0329133D01*
X0095695Y0329147D01*
X0095701Y0329152D01*
X0095706Y0329158D01*
X0095720Y0329170D01*
X0095733Y0329183D01*
X0095740Y0329188D01*
X0095746Y0329193D01*
X0095761Y0329203D01*
X0095776Y0329214D01*
X0095783Y0329218D01*
X0095789Y0329222D01*
X0095806Y0329230D01*
X0095822Y0329239D01*
X0095829Y0329242D01*
X0095836Y0329245D01*
X0095854Y0329251D01*
X0095871Y0329258D01*
X0095878Y0329259D01*
X0095886Y0329262D01*
X0095904Y0329266D01*
X0095922Y0329270D01*
X0095930Y0329271D01*
X0095938Y0329272D01*
X0095956Y0329273D01*
X0095974Y0329275D01*
X0095982Y0329275D01*
X0095990Y0329276D01*
X0097390D01*
X0097392Y0329275D01*
X0097395Y0329276D01*
X0097418Y0329274D01*
X0097442Y0329272D01*
X0097444Y0329272D01*
X0097447Y0329272D01*
X0097470Y0329267D01*
X0097493Y0329262D01*
X0097496Y0329261D01*
X0097498Y0329261D01*
X0097521Y0329253D01*
X0097543Y0329245D01*
X0097545Y0329244D01*
X0097548Y0329243D01*
X0097569Y0329232D01*
X0097590Y0329222D01*
X0097592Y0329221D01*
X0097594Y0329220D01*
X0097614Y0329206D01*
X0097634Y0329193D01*
X0097636Y0329191D01*
X0097638Y0329190D01*
X0097655Y0329174D01*
X0097673Y0329158D01*
X0097675Y0329156D01*
X0097677Y0329155D01*
X0097692Y0329137D01*
X0097708Y0329119D01*
X0097709Y0329117D01*
X0097711Y0329115D01*
X0097724Y0329095D01*
X0097737Y0329075D01*
X0097738Y0329073D01*
X0097739Y0329071D01*
X0097750Y0329049D01*
X0097760Y0329028D01*
X0097761Y0329026D01*
X0097762Y0329024D01*
X0098936Y0326089D01*
X0099806Y0328990D01*
X0099813Y0329009D01*
X0099819Y0329028D01*
X0099822Y0329034D01*
X0099824Y0329039D01*
X0099834Y0329057D01*
X0099843Y0329075D01*
X0099846Y0329080D01*
X0099849Y0329085D01*
X0099861Y0329102D01*
X0099872Y0329119D01*
X0099876Y0329123D01*
X0099879Y0329128D01*
X0099893Y0329143D01*
X0099906Y0329158D01*
X0099911Y0329162D01*
X0099915Y0329167D01*
X0099931Y0329179D01*
X0099946Y0329193D01*
X0099951Y0329196D01*
X0099955Y0329200D01*
X0099973Y0329211D01*
X0099989Y0329222D01*
X0099995Y0329224D01*
X0100000Y0329228D01*
X0100018Y0329236D01*
X0100036Y0329245D01*
X0100042Y0329247D01*
X0100047Y0329250D01*
X0100067Y0329255D01*
X0100086Y0329262D01*
X0100092Y0329263D01*
X0100098Y0329265D01*
X0100118Y0329268D01*
X0100137Y0329272D01*
X0100143Y0329273D01*
X0100149Y0329274D01*
X0100170Y0329274D01*
X0100190Y0329276D01*
X0101990D01*
X0102005Y0329275D01*
D02*
G37*
G36*
X0103996Y0327075D02*
X0104002Y0327076D01*
X0104022Y0327074D01*
X0104042Y0327072D01*
X0104048Y0327071D01*
X0104054Y0327070D01*
X0104074Y0327066D01*
X0104094Y0327062D01*
X0104100Y0327060D01*
X0104106Y0327059D01*
X0104124Y0327052D01*
X0104143Y0327045D01*
X0104149Y0327042D01*
X0104155Y0327040D01*
X0104172Y0327031D01*
X0104190Y0327022D01*
X0104195Y0327018D01*
X0104201Y0327015D01*
X0104217Y0327004D01*
X0104234Y0326993D01*
X0104238Y0326989D01*
X0104244Y0326985D01*
X0106444Y0325185D01*
X0106461Y0325168D01*
X0106480Y0325151D01*
X0106481Y0325150D01*
X0106482Y0325149D01*
X0106497Y0325130D01*
X0106514Y0325111D01*
X0106514Y0325110D01*
X0106515Y0325109D01*
X0106528Y0325088D01*
X0106542Y0325067D01*
X0106542Y0325065D01*
X0106543Y0325064D01*
X0106553Y0325043D01*
X0106564Y0325019D01*
X0106564Y0325018D01*
X0106565Y0325017D01*
X0106572Y0324993D01*
X0106579Y0324969D01*
X0106580Y0324968D01*
X0106580Y0324966D01*
X0106584Y0324942D01*
X0106588Y0324917D01*
X0106588Y0324916D01*
X0106589Y0324915D01*
X0106589Y0324890D01*
X0106590Y0324865D01*
X0106590Y0324864D01*
X0106590Y0324862D01*
X0106588Y0324838D01*
X0106586Y0324813D01*
X0106586Y0324811D01*
X0106585Y0324810D01*
X0106580Y0324786D01*
X0106574Y0324762D01*
X0106574Y0324760D01*
X0106573Y0324759D01*
X0106565Y0324736D01*
X0106556Y0324712D01*
X0106556Y0324711D01*
X0106555Y0324710D01*
X0106544Y0324689D01*
X0106532Y0324666D01*
X0106531Y0324665D01*
X0106530Y0324664D01*
X0106516Y0324644D01*
X0106502Y0324623D01*
X0106501Y0324622D01*
X0106500Y0324621D01*
X0106483Y0324603D01*
X0106466Y0324585D01*
X0104366Y0322585D01*
X0104366Y0322584D01*
X0104366Y0322584D01*
X0104344Y0322566D01*
X0104326Y0322551D01*
X0104326Y0322551D01*
X0104326Y0322551D01*
X0104304Y0322537D01*
X0104282Y0322523D01*
X0104281Y0322523D01*
X0104281Y0322523D01*
X0104258Y0322512D01*
X0104234Y0322501D01*
X0104234Y0322501D01*
X0104234Y0322501D01*
X0104207Y0322492D01*
X0104184Y0322485D01*
X0104184Y0322485D01*
X0104183Y0322485D01*
X0104158Y0322481D01*
X0104132Y0322476D01*
X0104132Y0322476D01*
X0104132Y0322476D01*
X0104106Y0322475D01*
X0104080Y0322474D01*
X0104080Y0322474D01*
X0104079Y0322474D01*
X0104053Y0322477D01*
X0104028Y0322479D01*
X0104027Y0322479D01*
X0104027Y0322479D01*
X0104002Y0322485D01*
X0103977Y0322490D01*
X0103976Y0322490D01*
X0103976Y0322490D01*
X0103953Y0322499D01*
X0103927Y0322508D01*
X0103927Y0322508D01*
X0103927Y0322509D01*
X0103907Y0322519D01*
X0103881Y0322533D01*
X0103881Y0322533D01*
X0103881Y0322533D01*
X0103862Y0322546D01*
X0103838Y0322563D01*
X0103838Y0322563D01*
X0103838Y0322563D01*
X0103820Y0322579D01*
X0103799Y0322598D01*
X0103799Y0322599D01*
X0103799Y0322599D01*
X0101899Y0324599D01*
X0101886Y0324615D01*
X0101872Y0324631D01*
X0101869Y0324635D01*
X0101866Y0324639D01*
X0101854Y0324657D01*
X0101843Y0324674D01*
X0101840Y0324679D01*
X0101838Y0324683D01*
X0101829Y0324702D01*
X0101819Y0324721D01*
X0101818Y0324726D01*
X0101816Y0324731D01*
X0101809Y0324751D01*
X0101803Y0324771D01*
X0101802Y0324776D01*
X0101800Y0324781D01*
X0101796Y0324802D01*
X0101792Y0324822D01*
X0101792Y0324828D01*
X0101791Y0324833D01*
X0101790Y0324854D01*
X0101789Y0324875D01*
X0101789Y0324880D01*
X0101789Y0324885D01*
X0101791Y0324906D01*
X0101792Y0324927D01*
X0101793Y0324932D01*
X0101794Y0324937D01*
X0101798Y0324958D01*
X0101803Y0324978D01*
X0101804Y0324983D01*
X0101805Y0324988D01*
X0101813Y0325008D01*
X0101819Y0325028D01*
X0101822Y0325033D01*
X0101823Y0325038D01*
X0101833Y0325056D01*
X0101843Y0325075D01*
X0101846Y0325080D01*
X0101848Y0325084D01*
X0101860Y0325101D01*
X0101872Y0325119D01*
X0101875Y0325123D01*
X0101878Y0325127D01*
X0101892Y0325142D01*
X0101906Y0325158D01*
X0103706Y0326958D01*
X0103711Y0326962D01*
X0103715Y0326967D01*
X0103731Y0326980D01*
X0103746Y0326993D01*
X0103751Y0326996D01*
X0103756Y0327000D01*
X0103773Y0327011D01*
X0103789Y0327022D01*
X0103795Y0327025D01*
X0103800Y0327028D01*
X0103818Y0327036D01*
X0103836Y0327045D01*
X0103842Y0327047D01*
X0103848Y0327050D01*
X0103867Y0327056D01*
X0103886Y0327062D01*
X0103892Y0327063D01*
X0103898Y0327065D01*
X0103918Y0327068D01*
X0103937Y0327072D01*
X0103944Y0327073D01*
X0103950Y0327074D01*
X0103970Y0327074D01*
X0103990Y0327076D01*
X0103996Y0327075D01*
D02*
G37*
G36*
X0088004Y0329275D02*
X0088018Y0329275D01*
X0088030Y0329273D01*
X0088042Y0329272D01*
X0088056Y0329270D01*
X0088070Y0329268D01*
X0088082Y0329264D01*
X0088094Y0329262D01*
X0088107Y0329257D01*
X0088121Y0329254D01*
X0088132Y0329249D01*
X0088143Y0329245D01*
X0088156Y0329239D01*
X0088169Y0329233D01*
X0089369Y0328633D01*
X0089376Y0328629D01*
X0089383Y0328626D01*
X0089399Y0328616D01*
X0089414Y0328607D01*
X0089420Y0328602D01*
X0089427Y0328598D01*
X0089441Y0328586D01*
X0089456Y0328575D01*
X0089461Y0328569D01*
X0089467Y0328564D01*
X0089480Y0328550D01*
X0089493Y0328537D01*
X0089497Y0328531D01*
X0089503Y0328525D01*
X0090303Y0327525D01*
X0090312Y0327511D01*
X0090323Y0327498D01*
X0090328Y0327490D01*
X0090333Y0327482D01*
X0090341Y0327467D01*
X0090349Y0327452D01*
X0090353Y0327444D01*
X0090357Y0327436D01*
X0090363Y0327420D01*
X0090369Y0327404D01*
X0090372Y0327395D01*
X0090375Y0327386D01*
X0090378Y0327370D01*
X0090383Y0327353D01*
X0090583Y0326353D01*
X0090585Y0326340D01*
X0090587Y0326327D01*
X0090588Y0326314D01*
X0090590Y0326301D01*
X0090590Y0326288D01*
X0090591Y0326275D01*
X0090591Y0325275D01*
X0090589Y0325252D01*
X0090588Y0325229D01*
X0090587Y0325226D01*
X0090587Y0325222D01*
X0090583Y0325200D01*
X0090579Y0325178D01*
X0090379Y0324378D01*
X0090373Y0324361D01*
X0090369Y0324344D01*
X0090365Y0324336D01*
X0090363Y0324328D01*
X0090355Y0324312D01*
X0090348Y0324295D01*
X0089948Y0323496D01*
X0089935Y0323474D01*
X0089923Y0323452D01*
X0089922Y0323451D01*
X0089922Y0323450D01*
X0089906Y0323430D01*
X0089891Y0323410D01*
X0089890Y0323410D01*
X0089890Y0323409D01*
X0089871Y0323391D01*
X0089854Y0323373D01*
X0089853Y0323373D01*
X0089852Y0323372D01*
X0089833Y0323357D01*
X0089812Y0323341D01*
X0088612Y0322541D01*
X0088596Y0322532D01*
X0088579Y0322521D01*
X0088573Y0322519D01*
X0088567Y0322515D01*
X0088549Y0322508D01*
X0088532Y0322500D01*
X0088525Y0322498D01*
X0088518Y0322495D01*
X0088500Y0322490D01*
X0088481Y0322484D01*
X0088474Y0322483D01*
X0088468Y0322482D01*
X0088449Y0322479D01*
X0088430Y0322476D01*
X0086791Y0322312D01*
Y0320275D01*
X0086787Y0320222D01*
X0086777Y0320171D01*
X0086760Y0320121D01*
X0086737Y0320074D01*
X0086708Y0320031D01*
X0086673Y0319991D01*
X0086634Y0319957D01*
X0086590Y0319928D01*
X0086543Y0319904D01*
X0086493Y0319888D01*
X0086442Y0319877D01*
X0086390Y0319874D01*
X0084590D01*
X0084538Y0319877D01*
X0084486Y0319888D01*
X0084436Y0319904D01*
X0084389Y0319928D01*
X0084346Y0319957D01*
X0084306Y0319991D01*
X0084272Y0320031D01*
X0084243Y0320074D01*
X0084219Y0320121D01*
X0084203Y0320171D01*
X0084192Y0320222D01*
X0084189Y0320275D01*
X0084189Y0328875D01*
X0084192Y0328927D01*
X0084203Y0328978D01*
X0084219Y0329028D01*
X0084243Y0329075D01*
X0084272Y0329119D01*
X0084306Y0329158D01*
X0084346Y0329193D01*
X0084389Y0329222D01*
X0084436Y0329245D01*
X0084486Y0329262D01*
X0084538Y0329272D01*
X0084590Y0329276D01*
X0087990D01*
X0088004Y0329275D01*
D02*
G37*
G36*
X0127794Y0329275D02*
X0127798Y0329276D01*
X0127820Y0329274D01*
X0127842Y0329272D01*
X0127846Y0329271D01*
X0127850Y0329271D01*
X0127872Y0329266D01*
X0127893Y0329262D01*
X0127897Y0329261D01*
X0127901Y0329260D01*
X0127922Y0329252D01*
X0127943Y0329245D01*
X0127947Y0329243D01*
X0127951Y0329242D01*
X0127970Y0329232D01*
X0127990Y0329222D01*
X0127994Y0329220D01*
X0127997Y0329218D01*
X0128016Y0329205D01*
X0128034Y0329193D01*
X0128037Y0329190D01*
X0128040Y0329188D01*
X0128057Y0329173D01*
X0128073Y0329158D01*
X0128076Y0329155D01*
X0128079Y0329152D01*
X0128093Y0329136D01*
X0128108Y0329119D01*
X0128110Y0329115D01*
X0128113Y0329112D01*
X0128125Y0329094D01*
X0128137Y0329075D01*
X0128139Y0329072D01*
X0128141Y0329068D01*
X0128150Y0329048D01*
X0128160Y0329028D01*
X0128161Y0329024D01*
X0128163Y0329021D01*
X0128170Y0329000D01*
X0128177Y0328978D01*
X0128178Y0328975D01*
X0128179Y0328971D01*
X0128183Y0328949D01*
X0128187Y0328927D01*
X0128188Y0328923D01*
X0128188Y0328919D01*
X0128388Y0327119D01*
X0128388Y0327114D01*
X0128389Y0327108D01*
X0128390Y0327087D01*
X0128391Y0327067D01*
X0128390Y0327061D01*
X0128390Y0327056D01*
X0128388Y0327035D01*
X0128386Y0327014D01*
X0128385Y0327009D01*
X0128384Y0327004D01*
X0128379Y0326983D01*
X0128375Y0326963D01*
X0128373Y0326958D01*
X0128372Y0326953D01*
X0128364Y0326933D01*
X0128357Y0326914D01*
X0128354Y0326909D01*
X0128352Y0326904D01*
X0128342Y0326886D01*
X0128333Y0326867D01*
X0128330Y0326863D01*
X0128327Y0326858D01*
X0128315Y0326841D01*
X0128303Y0326824D01*
X0128299Y0326820D01*
X0128296Y0326816D01*
X0128281Y0326801D01*
X0128267Y0326786D01*
X0128263Y0326782D01*
X0128259Y0326778D01*
X0128243Y0326765D01*
X0128227Y0326752D01*
X0128223Y0326749D01*
X0128218Y0326746D01*
X0128200Y0326735D01*
X0128183Y0326724D01*
X0128178Y0326721D01*
X0128173Y0326718D01*
X0128154Y0326710D01*
X0128136Y0326701D01*
X0128130Y0326700D01*
X0128125Y0326698D01*
X0128105Y0326692D01*
X0128086Y0326686D01*
X0128080Y0326685D01*
X0128075Y0326683D01*
X0128054Y0326680D01*
X0128034Y0326676D01*
X0128029Y0326676D01*
X0128023Y0326675D01*
X0125991Y0326506D01*
Y0320275D01*
X0125987Y0320222D01*
X0125977Y0320171D01*
X0125960Y0320121D01*
X0125937Y0320074D01*
X0125908Y0320031D01*
X0125873Y0319991D01*
X0125834Y0319957D01*
X0125790Y0319928D01*
X0125743Y0319904D01*
X0125694Y0319888D01*
X0125642Y0319877D01*
X0125590Y0319874D01*
X0123790Y0319874D01*
X0123737Y0319877D01*
X0123686Y0319888D01*
X0123636Y0319904D01*
X0123589Y0319928D01*
X0123546Y0319957D01*
X0123506Y0319991D01*
X0123472Y0320031D01*
X0123443Y0320074D01*
X0123419Y0320121D01*
X0123403Y0320171D01*
X0123392Y0320222D01*
X0123389Y0320275D01*
Y0326509D01*
X0121554Y0326676D01*
X0121546Y0326677D01*
X0121537Y0326677D01*
X0121520Y0326681D01*
X0121502Y0326684D01*
X0121494Y0326686D01*
X0121486Y0326688D01*
X0121469Y0326693D01*
X0121451Y0326699D01*
X0121444Y0326702D01*
X0121436Y0326704D01*
X0121420Y0326712D01*
X0121404Y0326720D01*
X0121397Y0326724D01*
X0121389Y0326728D01*
X0121374Y0326738D01*
X0121359Y0326747D01*
X0121352Y0326752D01*
X0121346Y0326757D01*
X0121332Y0326769D01*
X0121318Y0326780D01*
X0121312Y0326786D01*
X0121306Y0326791D01*
X0121294Y0326805D01*
X0121282Y0326818D01*
X0121277Y0326825D01*
X0121272Y0326831D01*
X0121262Y0326846D01*
X0121251Y0326861D01*
X0121247Y0326868D01*
X0121243Y0326874D01*
X0121235Y0326891D01*
X0121226Y0326907D01*
X0121223Y0326914D01*
X0121219Y0326921D01*
X0121214Y0326939D01*
X0121207Y0326956D01*
X0121205Y0326963D01*
X0121203Y0326971D01*
X0121199Y0326989D01*
X0121195Y0327007D01*
X0121194Y0327014D01*
X0121192Y0327023D01*
X0121191Y0327041D01*
X0121189Y0327059D01*
X0121189Y0327067D01*
X0121189Y0327075D01*
Y0328875D01*
X0121192Y0328927D01*
X0121203Y0328978D01*
X0121219Y0329028D01*
X0121243Y0329075D01*
X0121272Y0329119D01*
X0121306Y0329158D01*
X0121346Y0329193D01*
X0121389Y0329222D01*
X0121436Y0329245D01*
X0121486Y0329262D01*
X0121537Y0329272D01*
X0121590Y0329276D01*
X0127790D01*
X0127794Y0329275D01*
D02*
G37*
G36*
X0136590Y0305356D02*
X0118951D01*
Y0314000D01*
X0136590D01*
Y0305356D01*
D02*
G37*
G36*
X0296800Y0134800D02*
Y0123800D01*
X0267300Y0123800D01*
Y0134800D01*
X0296800Y0134800D01*
D02*
G37*
G36*
X0325800Y0115800D02*
X0296800D01*
Y0139800D01*
X0325800D01*
Y0115800D01*
D02*
G37*
%LPC*%
G36*
X0087775Y0326474D02*
X0086791D01*
Y0324876D01*
X0087495D01*
X0087752Y0325004D01*
X0088155Y0325407D01*
X0088012Y0326118D01*
X0087775Y0326474D01*
D02*
G37*
%LPD*%
D69*
X0342957Y0306900D02*
D03*
X0350043D02*
D03*
X0314257Y0074000D02*
D03*
X0321343D02*
D03*
X0325744Y0068800D02*
D03*
X0318657D02*
D03*
X0361544Y0293765D02*
D03*
X0354457D02*
D03*
X0367557Y0281500D02*
D03*
X0374643D02*
D03*
X0354869Y0320165D02*
D03*
X0361955D02*
D03*
X0329943Y0083000D02*
D03*
X0322857D02*
D03*
D70*
X0369000Y0312043D02*
D03*
Y0304957D02*
D03*
X0358200Y0032257D02*
D03*
Y0039343D02*
D03*
X0338445Y0061630D02*
D03*
Y0068717D02*
D03*
X0297200Y0075557D02*
D03*
Y0082643D02*
D03*
D71*
X0307200Y0335157D02*
D03*
Y0342243D02*
D03*
X0277200D02*
D03*
Y0335157D02*
D03*
X0297200D02*
D03*
Y0342243D02*
D03*
X0317200D02*
D03*
Y0335157D02*
D03*
X0333327Y0068717D02*
D03*
Y0061630D02*
D03*
X0318100Y0048744D02*
D03*
Y0041657D02*
D03*
X0322800Y0048744D02*
D03*
Y0041657D02*
D03*
D72*
X0020172Y0212647D02*
D03*
Y0208710D02*
D03*
Y0181150D02*
D03*
Y0185087D02*
D03*
Y0189024D02*
D03*
Y0192961D02*
D03*
Y0196898D02*
D03*
Y0200835D02*
D03*
Y0204772D02*
D03*
X0373187Y0188928D02*
D03*
Y0192865D02*
D03*
Y0196802D02*
D03*
Y0200739D02*
D03*
Y0204676D02*
D03*
Y0208613D02*
D03*
X0373187Y0212550D02*
D03*
X0373187Y0184991D02*
D03*
Y0181054D02*
D03*
D73*
X0350500Y0029504D02*
D03*
Y0042496D02*
D03*
X0310800Y0042104D02*
D03*
Y0055096D02*
D03*
D74*
X0372854Y0269600D02*
D03*
X0342146D02*
D03*
D75*
X0166851Y0098876D02*
D03*
Y0064231D02*
D03*
X0176851Y0098876D02*
D03*
Y0064231D02*
D03*
X0186851Y0098876D02*
D03*
Y0064231D02*
D03*
X0196851Y0098876D02*
D03*
Y0064231D02*
D03*
X0206851Y0098876D02*
D03*
Y0064231D02*
D03*
X0216851Y0098876D02*
D03*
Y0064231D02*
D03*
X0226851D02*
D03*
X0236851D02*
D03*
Y0098876D02*
D03*
X0226851D02*
D03*
X0226676Y0295131D02*
D03*
Y0329776D02*
D03*
X0216676Y0295131D02*
D03*
Y0329776D02*
D03*
X0206676Y0295131D02*
D03*
Y0329776D02*
D03*
X0196676Y0295131D02*
D03*
Y0329776D02*
D03*
X0186676Y0295131D02*
D03*
Y0329776D02*
D03*
X0176676Y0295131D02*
D03*
Y0329776D02*
D03*
X0166676D02*
D03*
X0156676D02*
D03*
Y0295131D02*
D03*
X0166676D02*
D03*
D76*
X0294657Y0166851D02*
D03*
X0329302D02*
D03*
X0294657Y0176851D02*
D03*
X0329302D02*
D03*
X0294657Y0186851D02*
D03*
X0329302D02*
D03*
X0294657Y0196851D02*
D03*
X0329302D02*
D03*
X0294657Y0206851D02*
D03*
X0329302D02*
D03*
X0294657Y0216851D02*
D03*
X0329302D02*
D03*
Y0226851D02*
D03*
Y0236851D02*
D03*
X0294657D02*
D03*
Y0226851D02*
D03*
X0098702Y0226850D02*
D03*
X0064057D02*
D03*
X0098702Y0216850D02*
D03*
X0064057D02*
D03*
X0098702Y0206850D02*
D03*
X0064057D02*
D03*
X0098702Y0196850D02*
D03*
X0064057D02*
D03*
X0098702Y0186850D02*
D03*
X0064057D02*
D03*
X0098702Y0176850D02*
D03*
X0064057D02*
D03*
Y0166850D02*
D03*
Y0156850D02*
D03*
X0098702D02*
D03*
Y0166850D02*
D03*
D77*
X0387543Y0269600D02*
D03*
X0380457D02*
D03*
X0368243Y0286500D02*
D03*
X0361157D02*
D03*
X0341343Y0312600D02*
D03*
X0334257Y0312600D02*
D03*
X0341343Y0317349D02*
D03*
X0334257D02*
D03*
X0067443Y0052450D02*
D03*
X0060357D02*
D03*
Y0057500D02*
D03*
X0067443D02*
D03*
X0128343Y0098100D02*
D03*
X0121257D02*
D03*
D78*
X0339335Y0012748D02*
D03*
X0304689D02*
D03*
D79*
X0339335Y0029480D02*
D03*
X0304689D02*
D03*
D80*
X0328311D02*
D03*
X0325161D02*
D03*
X0322012D02*
D03*
X0318862D02*
D03*
X0315713D02*
D03*
D81*
X0281600Y0015634D02*
D03*
Y0007366D02*
D03*
X0289400Y0015634D02*
D03*
Y0007366D02*
D03*
X0322300Y0106434D02*
D03*
Y0098167D02*
D03*
X0315500Y0106334D02*
D03*
Y0098066D02*
D03*
D82*
X0106435Y0098100D02*
D03*
X0114703D02*
D03*
D83*
X0061700Y0022304D02*
D03*
X0066700D02*
D03*
X0071700D02*
D03*
X0076700D02*
D03*
X0061700Y0041595D02*
D03*
X0066700D02*
D03*
X0071700D02*
D03*
X0076700D02*
D03*
D84*
X0188928Y0020346D02*
D03*
X0192865D02*
D03*
X0196802D02*
D03*
X0200739D02*
D03*
X0204676D02*
D03*
X0208613D02*
D03*
X0212550Y0020346D02*
D03*
X0184991Y0020346D02*
D03*
X0181054D02*
D03*
X0204550Y0373707D02*
D03*
X0200613D02*
D03*
X0196676D02*
D03*
X0192739D02*
D03*
X0188802D02*
D03*
X0184865D02*
D03*
X0180928Y0373707D02*
D03*
X0208487Y0373707D02*
D03*
X0212424D02*
D03*
D85*
X0093443Y0088600D02*
D03*
X0106435D02*
D03*
X0119428Y0045847D02*
D03*
X0106435D02*
D03*
D86*
X0105948Y0031846D02*
D03*
X0130515D02*
D03*
D87*
X0082420Y0068100D02*
D03*
D88*
X0106435Y0077155D02*
D03*
X0106435Y0068100D02*
D03*
X0106435Y0059045D02*
D03*
D89*
X0346800Y0299396D02*
D03*
Y0286404D02*
D03*
D90*
X0286300Y0060184D02*
D03*
Y0035616D02*
D03*
D91*
X0011600Y0107000D02*
D03*
Y0128800D02*
D03*
X0091769Y0360896D02*
D03*
Y0383896D02*
D03*
X0273400Y0109100D02*
D03*
X0134700Y0118254D02*
D03*
X0236851D02*
D03*
X0045200Y0289800D02*
D03*
X0277200Y0363400D02*
D03*
X0156676Y0275654D02*
D03*
X0246200Y0323400D02*
D03*
D92*
X0031600Y0107000D02*
D03*
X0041600D02*
D03*
X0051600D02*
D03*
X0061600D02*
D03*
X0071600D02*
D03*
X0081600D02*
D03*
X0091600D02*
D03*
X0021600D02*
D03*
X0031600Y0128800D02*
D03*
X0041600D02*
D03*
X0051600D02*
D03*
X0061600D02*
D03*
X0071600D02*
D03*
X0081600D02*
D03*
X0091600D02*
D03*
X0021600D02*
D03*
X0081769Y0360896D02*
D03*
X0011769D02*
D03*
X0021769D02*
D03*
X0031769D02*
D03*
X0041769D02*
D03*
X0051769D02*
D03*
X0061769D02*
D03*
X0071769D02*
D03*
X0081769Y0383896D02*
D03*
X0011769D02*
D03*
X0021769D02*
D03*
X0031769D02*
D03*
X0041769D02*
D03*
X0051769Y0383896D02*
D03*
X0061769Y0383896D02*
D03*
X0071769D02*
D03*
X0283400Y0109100D02*
D03*
X0092300Y0031595D02*
D03*
Y0041595D02*
D03*
X0124700Y0118254D02*
D03*
X0114700D02*
D03*
X0104700D02*
D03*
X0292900Y0306349D02*
D03*
Y0296349D02*
D03*
Y0286349D02*
D03*
X0226851Y0118254D02*
D03*
X0156851D02*
D03*
X0166851D02*
D03*
X0176851D02*
D03*
X0186851D02*
D03*
X0196851D02*
D03*
X0206851D02*
D03*
X0216851D02*
D03*
X0118079Y0166850D02*
D03*
Y0236850D02*
D03*
Y0226850D02*
D03*
Y0216850D02*
D03*
Y0206850D02*
D03*
Y0196850D02*
D03*
Y0186850D02*
D03*
Y0176850D02*
D03*
X0085200Y0299800D02*
D03*
Y0289800D02*
D03*
X0075200Y0299800D02*
D03*
Y0289800D02*
D03*
X0065200Y0299800D02*
D03*
X0065200Y0289800D02*
D03*
X0055200Y0299800D02*
D03*
Y0289800D02*
D03*
X0045200Y0299800D02*
D03*
X0317200Y0373400D02*
D03*
Y0363400D02*
D03*
X0307200Y0373400D02*
D03*
Y0363400D02*
D03*
X0297200Y0373400D02*
D03*
X0297200Y0363400D02*
D03*
X0287200Y0373400D02*
D03*
Y0363400D02*
D03*
X0277200Y0373400D02*
D03*
X0275279Y0216851D02*
D03*
Y0206851D02*
D03*
Y0196851D02*
D03*
Y0186851D02*
D03*
Y0176851D02*
D03*
Y0166851D02*
D03*
Y0156851D02*
D03*
Y0226851D02*
D03*
X0176676Y0275654D02*
D03*
X0186676D02*
D03*
X0196676D02*
D03*
X0206676D02*
D03*
X0216676D02*
D03*
X0226676D02*
D03*
X0236676D02*
D03*
X0166676D02*
D03*
X0042500Y0012300D02*
D03*
X0380800Y0084957D02*
D03*
Y0094957D02*
D03*
Y0104957D02*
D03*
X0256200Y0323400D02*
D03*
D93*
X0371035Y0369933D02*
D03*
Y0019933D02*
D03*
X0039933Y0049933D02*
D03*
Y0339933D02*
D03*
D94*
X0035667Y0162422D02*
D03*
Y0231359D02*
D03*
X0162341Y0035841D02*
D03*
X0231278D02*
D03*
X0357692Y0162341D02*
D03*
Y0231278D02*
D03*
X0231137Y0358213D02*
D03*
X0162200D02*
D03*
D95*
X0092300Y0021595D02*
D03*
X0292900Y0316349D02*
D03*
X0118079Y0156850D02*
D03*
X0275279Y0236851D02*
D03*
X0042500Y0022300D02*
D03*
X0380800Y0114957D02*
D03*
D96*
X0191709Y0143453D02*
D03*
X0186709D02*
D03*
X0201709D02*
D03*
X0196709D02*
D03*
X0181709D02*
D03*
X0176709D02*
D03*
X0206709D02*
D03*
X0216709D02*
D03*
X0211709D02*
D03*
X0250055Y0216883D02*
D03*
Y0211883D02*
D03*
Y0206883D02*
D03*
Y0201883D02*
D03*
Y0196883D02*
D03*
Y0191883D02*
D03*
Y0186883D02*
D03*
Y0181883D02*
D03*
Y0176883D02*
D03*
X0176709Y0250229D02*
D03*
X0181709D02*
D03*
X0186709D02*
D03*
X0191709D02*
D03*
X0196709D02*
D03*
X0201709D02*
D03*
X0206709D02*
D03*
X0211709D02*
D03*
X0216709D02*
D03*
X0143362Y0176883D02*
D03*
Y0181883D02*
D03*
Y0186883D02*
D03*
Y0191883D02*
D03*
Y0196883D02*
D03*
Y0201883D02*
D03*
Y0206883D02*
D03*
Y0211883D02*
D03*
Y0216883D02*
D03*
X0173179Y0225453D02*
D03*
X0168180D02*
D03*
X0163180D02*
D03*
X0158179D02*
D03*
X0219280Y0184153D02*
D03*
Y0189154D02*
D03*
Y0194153D02*
D03*
Y0199153D02*
D03*
Y0204153D02*
D03*
Y0209154D02*
D03*
X0167780Y0165654D02*
D03*
X0172780D02*
D03*
X0177779D02*
D03*
D97*
X0171709Y0143453D02*
D03*
X0221709D02*
D03*
X0250055Y0221883D02*
D03*
Y0171883D02*
D03*
X0171709Y0250229D02*
D03*
X0221709D02*
D03*
X0143362Y0171883D02*
D03*
Y0221883D02*
D03*
X0153180Y0225453D02*
D03*
X0178180D02*
D03*
X0219280Y0179154D02*
D03*
Y0214154D02*
D03*
X0162779Y0165654D02*
D03*
X0182780D02*
D03*
D98*
X0330673Y0020622D02*
D03*
X0313350D02*
D03*
D99*
X0245921Y0246095D02*
D03*
Y0147670D02*
D03*
X0147496D02*
D03*
Y0246095D02*
D03*
D100*
X0357000Y0066436D02*
D03*
Y0085964D02*
D03*
D101*
X0381496Y0334331D02*
D03*
Y0274331D02*
D03*
Y0244331D02*
D03*
X0388996Y0229331D02*
D03*
Y0199331D02*
D03*
Y0169331D02*
D03*
X0381496Y0154331D02*
D03*
Y0124331D02*
D03*
Y0064331D02*
D03*
X0373996Y0349331D02*
D03*
Y0259331D02*
D03*
Y0229331D02*
D03*
Y0169331D02*
D03*
Y0049331D02*
D03*
X0366496Y0034331D02*
D03*
X0351496Y0364331D02*
D03*
X0358996Y0349331D02*
D03*
Y0259331D02*
D03*
Y0139331D02*
D03*
X0343996Y0379331D02*
D03*
X0336496Y0364331D02*
D03*
X0343996Y0259331D02*
D03*
X0336496Y0184331D02*
D03*
Y0154331D02*
D03*
X0321496Y0274331D02*
D03*
Y0214331D02*
D03*
Y0184331D02*
D03*
X0328996Y0139331D02*
D03*
X0313996Y0289331D02*
D03*
X0306496Y0274331D02*
D03*
X0313996Y0259331D02*
D03*
Y0229331D02*
D03*
X0306496Y0214331D02*
D03*
X0313996Y0199331D02*
D03*
X0306496Y0184331D02*
D03*
X0313996Y0169331D02*
D03*
X0298996Y0289331D02*
D03*
X0291496Y0274331D02*
D03*
X0298996Y0259331D02*
D03*
X0283996Y0379331D02*
D03*
Y0349331D02*
D03*
Y0319331D02*
D03*
X0276496Y0304331D02*
D03*
X0283996Y0289331D02*
D03*
X0276496Y0274331D02*
D03*
X0283996Y0259331D02*
D03*
Y0139331D02*
D03*
X0268996Y0379331D02*
D03*
X0261496Y0364331D02*
D03*
X0268996Y0349331D02*
D03*
X0261496Y0334331D02*
D03*
X0268996Y0319331D02*
D03*
X0261496Y0304331D02*
D03*
X0268996Y0259331D02*
D03*
X0261496Y0154331D02*
D03*
X0268996Y0139331D02*
D03*
X0261496Y0064331D02*
D03*
X0253996Y0379331D02*
D03*
X0246496Y0364331D02*
D03*
X0253996Y0349331D02*
D03*
Y0289331D02*
D03*
Y0259331D02*
D03*
Y0229331D02*
D03*
Y0169331D02*
D03*
Y0139331D02*
D03*
Y0109331D02*
D03*
Y0049331D02*
D03*
X0231496Y0304331D02*
D03*
Y0184331D02*
D03*
X0238996Y0139331D02*
D03*
Y0079331D02*
D03*
X0223996Y0379331D02*
D03*
X0216496Y0364331D02*
D03*
X0223996Y0349331D02*
D03*
Y0319331D02*
D03*
X0216496Y0304331D02*
D03*
X0223996Y0169331D02*
D03*
Y0139331D02*
D03*
Y0079331D02*
D03*
Y0019331D02*
D03*
X0201496Y0334331D02*
D03*
X0208996Y0319331D02*
D03*
X0201496Y0304331D02*
D03*
X0208996Y0229331D02*
D03*
X0201496Y0214331D02*
D03*
X0208996Y0199331D02*
D03*
Y0169331D02*
D03*
Y0079331D02*
D03*
X0193996Y0319331D02*
D03*
X0186496Y0304331D02*
D03*
Y0214331D02*
D03*
Y0184331D02*
D03*
X0193996Y0079331D02*
D03*
X0171496Y0364331D02*
D03*
Y0334331D02*
D03*
X0178996Y0319331D02*
D03*
X0171496Y0304331D02*
D03*
Y0214331D02*
D03*
X0178996Y0199331D02*
D03*
Y0079331D02*
D03*
X0171496Y0034331D02*
D03*
X0163996Y0379331D02*
D03*
Y0349331D02*
D03*
Y0319331D02*
D03*
X0156496Y0304331D02*
D03*
X0163996Y0259331D02*
D03*
X0156496Y0214331D02*
D03*
X0163996Y0199331D02*
D03*
X0156496Y0184331D02*
D03*
Y0124331D02*
D03*
X0163996Y0049331D02*
D03*
X0148996Y0379331D02*
D03*
X0141496Y0364331D02*
D03*
Y0304331D02*
D03*
Y0274331D02*
D03*
X0148996Y0199331D02*
D03*
Y0169331D02*
D03*
X0141496Y0064331D02*
D03*
Y0034331D02*
D03*
X0148996Y0019331D02*
D03*
X0133996Y0379331D02*
D03*
X0126496Y0364331D02*
D03*
X0133996Y0349331D02*
D03*
X0126496Y0304331D02*
D03*
X0133996Y0289331D02*
D03*
X0126496Y0274331D02*
D03*
X0133996Y0259331D02*
D03*
Y0079331D02*
D03*
X0126496Y0064331D02*
D03*
X0133996Y0049331D02*
D03*
Y0019331D02*
D03*
X0118996Y0379331D02*
D03*
X0111496Y0364331D02*
D03*
X0118996Y0349331D02*
D03*
X0111496Y0304331D02*
D03*
X0118996Y0289331D02*
D03*
X0111496Y0274331D02*
D03*
X0118996Y0259331D02*
D03*
X0111496Y0124331D02*
D03*
X0118996Y0079331D02*
D03*
Y0019331D02*
D03*
X0103996Y0379331D02*
D03*
Y0349331D02*
D03*
Y0319331D02*
D03*
X0096496Y0304331D02*
D03*
X0103996Y0289331D02*
D03*
X0096496Y0274331D02*
D03*
X0103996Y0139331D02*
D03*
X0096496Y0124331D02*
D03*
Y0094331D02*
D03*
Y0064331D02*
D03*
X0103996Y0019331D02*
D03*
X0088996Y0349331D02*
D03*
Y0319331D02*
D03*
X0081496Y0304331D02*
D03*
X0088996Y0229331D02*
D03*
X0081496Y0214331D02*
D03*
X0088996Y0199331D02*
D03*
X0081496Y0184331D02*
D03*
X0088996Y0169331D02*
D03*
X0081496Y0154331D02*
D03*
X0088996Y0139331D02*
D03*
X0081496Y0094331D02*
D03*
X0088996Y0079331D02*
D03*
Y0049331D02*
D03*
X0081496Y0034331D02*
D03*
X0066496Y0364331D02*
D03*
X0073996Y0319331D02*
D03*
Y0229331D02*
D03*
Y0199331D02*
D03*
Y0169331D02*
D03*
Y0139331D02*
D03*
X0066496Y0124331D02*
D03*
Y0094331D02*
D03*
X0073996Y0079331D02*
D03*
X0066496Y0064331D02*
D03*
X0073996Y0049331D02*
D03*
X0058996Y0349331D02*
D03*
Y0319331D02*
D03*
X0051496Y0274331D02*
D03*
Y0214331D02*
D03*
Y0154331D02*
D03*
X0058996Y0139331D02*
D03*
X0051496Y0094331D02*
D03*
X0058996Y0079331D02*
D03*
X0051496Y0064331D02*
D03*
Y0004331D02*
D03*
X0036496Y0364331D02*
D03*
X0043996Y0319331D02*
D03*
Y0259331D02*
D03*
X0036496Y0244331D02*
D03*
X0043996Y0229331D02*
D03*
Y0139331D02*
D03*
X0036496Y0124331D02*
D03*
Y0094331D02*
D03*
X0043996Y0079331D02*
D03*
X0036496Y0034331D02*
D03*
Y0004331D02*
D03*
X0021496Y0334331D02*
D03*
X0028996Y0319331D02*
D03*
Y0289331D02*
D03*
Y0259331D02*
D03*
Y0169331D02*
D03*
Y0139331D02*
D03*
X0021496Y0094331D02*
D03*
X0028996Y0079331D02*
D03*
X0021496Y0034331D02*
D03*
X0028996Y0019331D02*
D03*
X0021496Y0004331D02*
D03*
X0013996Y0349331D02*
D03*
Y0319331D02*
D03*
Y0289331D02*
D03*
Y0259331D02*
D03*
Y0229331D02*
D03*
Y0169331D02*
D03*
X0006496Y0064331D02*
D03*
X0013996Y0049331D02*
D03*
X0006496Y0034331D02*
D03*
X0013996Y0019331D02*
D03*
X0006496Y0004331D02*
D03*
X0291496Y0069331D02*
D03*
X0296496Y0019331D02*
D03*
Y0039331D02*
D03*
X0301496Y0089331D02*
D03*
X0296496Y0099331D02*
D03*
X0311496Y0029331D02*
D03*
X0306496Y0099331D02*
D03*
X0326496Y0019331D02*
D03*
X0331496Y0029331D02*
D03*
X0326496Y0039331D02*
D03*
Y0079331D02*
D03*
X0336496Y0039331D02*
D03*
X0341496Y0089331D02*
D03*
X0346496Y0019331D02*
D03*
X0351496Y0049331D02*
D03*
X0346496Y0059331D02*
D03*
Y0079331D02*
D03*
X0351496Y0089331D02*
D03*
X0361496Y0069331D02*
D03*
X0356496Y0079331D02*
D03*
X0366496D02*
D03*
X0374200Y0004000D02*
D03*
X0387000Y0006300D02*
D03*
X0388600Y0026000D02*
D03*
X0388400Y0363000D02*
D03*
X0387600Y0385600D02*
D03*
X0366700Y0388200D02*
D03*
X0307200Y0308500D02*
D03*
X0321800Y0308800D02*
D03*
X0140500Y0134600D02*
D03*
X0140600Y0125700D02*
D03*
X0119600Y0125900D02*
D03*
X0130100Y0125400D02*
D03*
X0130000Y0139600D02*
D03*
X0119600Y0138400D02*
D03*
M02*
