G04 Layer_Color=65535*
%FSAX25Y25*%
%MOIN*%
G70*
G01*
G75*
%ADD61C,0.01000*%
%ADD62C,0.00984*%
%ADD63C,0.00394*%
%ADD64C,0.00787*%
%ADD65C,0.00600*%
%ADD66C,0.00500*%
%ADD67C,0.00800*%
%ADD68C,0.01700*%
D61*
X0167709Y0138453D02*
Y0148453D01*
X0225709D01*
X0167709Y0138453D02*
X0225709D01*
Y0148453D01*
X0245055Y0167883D02*
Y0225883D01*
X0255055Y0167883D02*
Y0225883D01*
X0245055D02*
X0255055D01*
X0245055Y0167883D02*
X0255055D01*
X0167709Y0245229D02*
X0225709D01*
X0167709Y0255229D02*
X0225709D01*
X0167709Y0245229D02*
Y0255229D01*
X0225709Y0245229D02*
Y0255229D01*
X0148362Y0167883D02*
Y0225883D01*
X0138362Y0167883D02*
Y0225883D01*
Y0167883D02*
X0148362D01*
X0138362Y0225883D02*
X0148362D01*
X0182080Y0220454D02*
Y0230453D01*
X0149179Y0220454D02*
Y0230453D01*
X0182080D01*
X0149179Y0220454D02*
X0182080D01*
X0214389Y0175253D02*
X0224200D01*
X0214389Y0217914D02*
X0224200D01*
Y0175253D02*
Y0217914D01*
X0214389Y0175253D02*
Y0217914D01*
X0158780Y0160653D02*
Y0170653D01*
X0186779Y0160653D02*
Y0170653D01*
X0158780Y0160653D02*
X0186779D01*
X0158780Y0170653D02*
X0186779D01*
X0036171Y0173350D02*
Y0175350D01*
Y0174350D01*
X0030173D01*
X0031173Y0173350D01*
X0220350Y0036345D02*
X0218351D01*
X0219351D01*
Y0030347D01*
X0220350Y0031347D01*
X0357188Y0220350D02*
Y0218351D01*
Y0219351D01*
X0363186D01*
X0362186Y0220350D01*
X0173128Y0357708D02*
X0175127D01*
X0174128D01*
Y0363706D01*
X0173128Y0362706D01*
D62*
X0373839Y0263104D02*
G03*
X0373839Y0263104I-0000492J0000000D01*
G01*
X0244443Y0099054D02*
G03*
X0244443Y0099054I-0000492J0000000D01*
G01*
X0294972Y0243951D02*
G03*
X0294972Y0243951I-0000492J0000000D01*
G01*
X0099372Y0149750D02*
G03*
X0099372Y0149750I-0000492J0000000D01*
G01*
X0150068Y0294953D02*
G03*
X0150068Y0294953I-0000492J0000000D01*
G01*
X0080735Y0041595D02*
G03*
X0080735Y0041595I-0000492J0000000D01*
G01*
X0106928Y0054911D02*
G03*
X0106928Y0054911I-0000492J0000000D01*
G01*
D63*
X0285797Y0004500D02*
G03*
X0285797Y0004500I-0000197J0000000D01*
G01*
X0293597D02*
G03*
X0293597Y0004500I-0000197J0000000D01*
G01*
X0326497Y0095300D02*
G03*
X0326497Y0095300I-0000197J0000000D01*
G01*
X0319697Y0095200D02*
G03*
X0319697Y0095200I-0000197J0000000D01*
G01*
X0117766Y0102100D02*
G03*
X0117766Y0102100I-0000197J0000000D01*
G01*
X0345516Y0305128D02*
X0347484D01*
X0345516Y0308672D02*
X0347484D01*
X0367228Y0307516D02*
Y0309485D01*
X0370771D02*
X0370771Y0307516D01*
X0308972Y0337716D02*
Y0339684D01*
X0305428Y0337716D02*
Y0339684D01*
X0316816Y0072228D02*
X0318784D01*
X0316816Y0075772D02*
X0318784D01*
X0321216Y0070572D02*
X0323184D01*
X0321216Y0067028D02*
X0323184D01*
X0357016Y0295536D02*
X0358985D01*
X0357016Y0291993D02*
X0358985Y0291993D01*
X0275428Y0337716D02*
Y0339684D01*
X0278972Y0337716D02*
Y0339684D01*
X0298972Y0337716D02*
Y0339684D01*
X0295428Y0337716D02*
Y0339684D01*
X0315428Y0337716D02*
Y0339684D01*
X0318972Y0337716D02*
Y0339684D01*
X0347153Y0032457D02*
Y0039543D01*
X0353847Y0032457D02*
Y0039543D01*
X0359972Y0034816D02*
Y0036784D01*
X0356428Y0034816D02*
Y0036784D01*
X0383016Y0271372D02*
X0384984D01*
X0383016Y0267828D02*
X0384984D01*
X0363716Y0288272D02*
X0365684D01*
X0363716Y0284728D02*
X0365684D01*
X0370116Y0279728D02*
X0372084D01*
X0370116Y0283272D02*
X0372084D01*
X0357428Y0318393D02*
X0359396D01*
X0357428Y0321936D02*
X0359396D01*
X0325416Y0084772D02*
X0327384D01*
X0325416Y0081228D02*
X0327384D01*
X0307453Y0045057D02*
Y0052143D01*
X0314146Y0045057D02*
Y0052143D01*
X0336816Y0314372D02*
X0338784D01*
X0336816Y0310828D02*
X0338784D01*
X0336816Y0319121D02*
X0338784D01*
X0336816Y0315577D02*
X0338784D01*
X0062916Y0054221D02*
X0064884D01*
X0062916Y0050678D02*
X0064884D01*
X0062916Y0055728D02*
X0064884D01*
X0062916Y0059272D02*
X0064884D01*
X0331555Y0064189D02*
Y0066158D01*
X0335098Y0064189D02*
Y0066158D01*
X0316328Y0044216D02*
Y0046185D01*
X0319871Y0044216D02*
Y0046185D01*
X0321028Y0044216D02*
Y0046185D01*
X0324571Y0044216D02*
Y0046185D01*
X0123816Y0099872D02*
X0125784D01*
X0123816Y0096328D02*
X0125784D01*
X0096396Y0091947D02*
X0103483D01*
X0096396Y0085254D02*
X0103483D01*
X0106932Y0023382D02*
X0132405D01*
X0111263Y0023382D02*
Y0040311D01*
X0111972Y0023382D02*
Y0040311D01*
X0103901Y0026413D02*
X0106932Y0023382D01*
X0132405D02*
Y0026413D01*
Y0037279D02*
Y0040311D01*
X0103901Y0037279D02*
X0106932Y0040311D01*
X0132405D01*
X0109388Y0042500D02*
X0116475D01*
X0109388Y0049193D02*
X0116475D01*
X0340216Y0064189D02*
Y0066158D01*
X0336673Y0064189D02*
Y0066158D01*
X0350147Y0289357D02*
Y0296443D01*
X0343454Y0289357D02*
Y0296443D01*
X0298972Y0078116D02*
Y0080084D01*
X0295428Y0078116D02*
Y0080084D01*
X0277835Y0033727D02*
Y0059199D01*
X0277835Y0054869D02*
X0294765D01*
X0277835Y0054160D02*
X0294765D01*
X0277835Y0059199D02*
X0280867Y0062231D01*
X0277835Y0033727D02*
X0280867D01*
X0291733D02*
X0294765D01*
X0291733Y0062231D02*
X0294765Y0059199D01*
Y0033727D02*
Y0059199D01*
D64*
X0096600Y0102000D02*
Y0112000D01*
X0006600Y0102000D02*
X0096600D01*
X0006600D02*
Y0112000D01*
X0096600D01*
Y0123800D02*
Y0133800D01*
X0006600Y0123800D02*
X0096600D01*
X0006600D02*
Y0133800D01*
X0096600D01*
X0006769Y0355896D02*
X0096769D01*
X0096769Y0365896D01*
X0006769D02*
X0096769D01*
X0006769Y0355896D02*
X0006769Y0365896D01*
Y0378896D02*
X0096769D01*
X0096769Y0388896D02*
X0096769Y0378896D01*
X0006769Y0388896D02*
X0096769D01*
X0006769D02*
X0006769Y0378896D01*
X0268400Y0114100D02*
X0288400D01*
X0268400Y0104100D02*
Y0114100D01*
Y0104100D02*
X0288400D01*
Y0114100D01*
X0097300Y0046595D02*
X0097300Y0016595D01*
X0087300Y0046595D02*
X0097300D01*
X0087300Y0016595D02*
X0087300Y0046595D01*
X0087300Y0016595D02*
X0097300D01*
X0099700Y0113253D02*
Y0123254D01*
X0139700D01*
X0099700Y0113253D02*
X0139700D01*
Y0123254D01*
X0287900Y0281349D02*
X0297900D01*
X0287900D02*
Y0321349D01*
X0297900Y0281349D02*
Y0321349D01*
X0287900D02*
X0297900D01*
X0345689Y0263695D02*
X0369311Y0263695D01*
X0345689Y0275505D02*
X0369311Y0275505D01*
X0162047Y0062263D02*
Y0100845D01*
X0241654Y0062262D02*
Y0100844D01*
X0292688Y0162047D02*
X0331270D01*
X0292689Y0241654D02*
X0331271D01*
X0062089Y0231653D02*
X0100671D01*
X0062088Y0152047D02*
X0100670D01*
X0231480Y0293162D02*
Y0331744D01*
X0151873Y0293163D02*
Y0331745D01*
X0151851Y0113253D02*
X0241851D01*
Y0123254D01*
X0151851D02*
X0241851D01*
X0151851Y0113253D02*
Y0123254D01*
X0113080Y0151850D02*
Y0241850D01*
Y0151850D02*
X0123080D01*
Y0241850D01*
X0113080D02*
X0123080D01*
X0025200Y0277800D02*
X0105200Y0277800D01*
X0025200Y0312900D02*
X0105200D01*
X0025200Y0277800D02*
Y0312900D01*
X0105200Y0277800D02*
Y0312900D01*
X0257200Y0351400D02*
X0337200D01*
X0257200Y0386500D02*
X0337200D01*
X0257200Y0351400D02*
X0257200Y0386500D01*
X0337200D02*
X0337200Y0351400D01*
X0059358Y0028800D02*
Y0035099D01*
X0079043Y0028800D02*
Y0035099D01*
X0059358Y0028800D02*
X0079043D01*
X0059358Y0035099D02*
X0079043D01*
X0270280Y0151851D02*
X0280279D01*
X0270280D02*
Y0241851D01*
X0280279D01*
Y0151851D02*
Y0241851D01*
X0241676Y0270654D02*
Y0280654D01*
X0151676Y0270654D02*
X0241676D01*
X0151676D02*
Y0280654D01*
X0241676D01*
X0019167Y0010633D02*
X0032500D01*
X0017500Y0012300D02*
X0019167Y0010633D01*
X0017500Y0012300D02*
X0019167Y0013967D01*
X0032500D01*
X0019167Y0020633D02*
X0032500D01*
X0017500Y0022300D02*
X0019167Y0020633D01*
X0017500Y0022300D02*
X0019167Y0023967D01*
X0032500D01*
X0037500Y0007300D02*
Y0027300D01*
X0032500D02*
X0037500D01*
X0032500Y0007300D02*
X0037500D01*
X0032500D02*
Y0027300D01*
X0088522Y0081289D02*
X0100333D01*
X0088522Y0054911D02*
X0100333D01*
X0088522D02*
Y0081289D01*
X0100333Y0054911D02*
X0100333Y0081289D01*
X0375800Y0119957D02*
X0385800D01*
Y0079957D02*
Y0119957D01*
X0375800Y0079957D02*
Y0119957D01*
Y0079957D02*
X0385800D01*
X0261200Y0318400D02*
Y0328400D01*
X0241200Y0318400D02*
X0261200D01*
X0241200D02*
Y0328400D01*
X0261200D01*
D65*
X0022379Y0214848D02*
X0030580D01*
X0022379Y0178948D02*
X0030580D01*
Y0214848D01*
X0022379Y0154450D02*
X0048979D01*
Y0239250D01*
X0022379D02*
X0048979D01*
X0022379Y0154450D02*
Y0239250D01*
X0154450Y0022554D02*
X0239250D01*
X0154450D02*
Y0049154D01*
X0239250D01*
Y0022554D02*
Y0049154D01*
X0178852Y0030753D02*
X0214752D01*
Y0022554D02*
Y0030753D01*
X0178852Y0022554D02*
Y0030753D01*
X0370979Y0154450D02*
Y0239250D01*
X0344379Y0154450D02*
X0370979D01*
X0344379D02*
Y0239250D01*
X0370979D01*
X0362779Y0178852D02*
Y0214752D01*
X0370979D01*
X0362779Y0178852D02*
X0370979D01*
X0154228Y0371500D02*
X0239028D01*
Y0344900D02*
Y0371500D01*
X0154228Y0344900D02*
X0239028D01*
X0154228D02*
Y0371500D01*
X0178726Y0363300D02*
X0214626D01*
X0178726D02*
Y0371500D01*
X0214626Y0363300D02*
Y0371500D01*
D66*
X0310004Y0032433D02*
Y0036370D01*
X0333626D01*
Y0032433D02*
Y0036370D01*
X0337169Y0002905D02*
X0337169Y-0003000D01*
X0306067D02*
X0337169D01*
X0306067Y0002905D02*
X0306067Y-0003000D01*
D67*
X0260403Y0155351D02*
Y0158350D01*
X0261902D01*
X0262402Y0157850D01*
Y0156851D01*
X0261902Y0156351D01*
X0260403D01*
X0261402D02*
X0262402Y0155351D01*
X0263402Y0158350D02*
X0265401D01*
X0264401D01*
Y0155351D01*
X0266401Y0158350D02*
Y0155351D01*
X0267900D01*
X0268400Y0155851D01*
Y0157850D01*
X0267900Y0158350D01*
X0266401D01*
X0104999Y0019018D02*
X0104499Y0019518D01*
X0103500D01*
X0103000Y0019018D01*
Y0018518D01*
X0103500Y0018018D01*
X0104499D01*
X0104999Y0017518D01*
Y0017019D01*
X0104499Y0016519D01*
X0103500D01*
X0103000Y0017019D01*
X0105999Y0019518D02*
Y0017019D01*
X0106499Y0016519D01*
X0107499D01*
X0107998Y0017019D01*
Y0019518D01*
X0108998Y0016519D02*
Y0019518D01*
X0110498D01*
X0110997Y0019018D01*
Y0018018D01*
X0110498Y0017518D01*
X0108998D01*
X0111997Y0016519D02*
Y0019518D01*
X0113497D01*
X0113996Y0019018D01*
Y0018018D01*
X0113497Y0017518D01*
X0111997D01*
X0114996Y0019518D02*
Y0016519D01*
X0116996D01*
X0117995Y0019518D02*
Y0019018D01*
X0118995Y0018018D01*
X0119994Y0019018D01*
Y0019518D01*
X0118995Y0018018D02*
Y0016519D01*
X0104999Y0013499D02*
X0104499Y0013999D01*
X0103500D01*
X0103000Y0013499D01*
Y0012999D01*
X0103500Y0012500D01*
X0104499D01*
X0104999Y0012000D01*
Y0011500D01*
X0104499Y0011000D01*
X0103500D01*
X0103000Y0011500D01*
X0107998Y0013999D02*
X0105999D01*
Y0011000D01*
X0107998D01*
X0105999Y0012500D02*
X0106999D01*
X0108998Y0013999D02*
Y0011000D01*
X0110997D01*
X0113996Y0013999D02*
X0111997D01*
Y0011000D01*
X0113996D01*
X0111997Y0012500D02*
X0112997D01*
X0116996Y0013499D02*
X0116496Y0013999D01*
X0115496D01*
X0114996Y0013499D01*
Y0011500D01*
X0115496Y0011000D01*
X0116496D01*
X0116996Y0011500D01*
X0117995Y0013999D02*
X0119994D01*
X0118995D01*
Y0011000D01*
X0007800Y0115400D02*
X0009799D01*
X0008800Y0116399D02*
Y0114400D01*
X0010799Y0116399D02*
X0011299Y0116899D01*
X0012299D01*
X0012798Y0116399D01*
Y0115899D01*
X0012299Y0115400D01*
X0011799D01*
X0012299D01*
X0012798Y0114900D01*
Y0114400D01*
X0012299Y0113900D01*
X0011299D01*
X0010799Y0114400D01*
X0013798Y0113900D02*
Y0114400D01*
X0014298D01*
Y0113900D01*
X0013798D01*
X0016297Y0116399D02*
X0016797Y0116899D01*
X0017797D01*
X0018297Y0116399D01*
Y0115899D01*
X0017797Y0115400D01*
X0017297D01*
X0017797D01*
X0018297Y0114900D01*
Y0114400D01*
X0017797Y0113900D01*
X0016797D01*
X0016297Y0114400D01*
X0019296Y0116899D02*
Y0114900D01*
X0020296Y0113900D01*
X0021296Y0114900D01*
Y0116899D01*
X0227203Y0210153D02*
X0227702Y0210653D01*
X0228702D01*
X0229202Y0210153D01*
Y0209653D01*
X0228702Y0209154D01*
X0228202D01*
X0228702D01*
X0229202Y0208654D01*
Y0208154D01*
X0228702Y0207654D01*
X0227702D01*
X0227203Y0208154D01*
X0230202Y0210653D02*
Y0208654D01*
X0231201Y0207654D01*
X0232201Y0208654D01*
Y0210653D01*
X0233201Y0210153D02*
X0233700Y0210653D01*
X0234700D01*
X0235200Y0210153D01*
Y0209653D01*
X0234700Y0209154D01*
X0234200D01*
X0234700D01*
X0235200Y0208654D01*
Y0208154D01*
X0234700Y0207654D01*
X0233700D01*
X0233201Y0208154D01*
X0127445Y0167390D02*
X0126946Y0167890D01*
X0125946D01*
X0125446Y0167390D01*
Y0165390D01*
X0125946Y0164891D01*
X0126946D01*
X0127445Y0165390D01*
Y0166390D01*
X0126446D01*
X0128445Y0164891D02*
Y0167890D01*
X0130445Y0164891D01*
Y0167890D01*
X0131444D02*
Y0164891D01*
X0132944D01*
X0133443Y0165390D01*
Y0167390D01*
X0132944Y0167890D01*
X0131444D01*
X0010499Y0137699D02*
X0010000Y0138199D01*
X0009000D01*
X0008500Y0137699D01*
Y0135700D01*
X0009000Y0135200D01*
X0010000D01*
X0010499Y0135700D01*
Y0136699D01*
X0009500D01*
X0011499Y0135200D02*
Y0138199D01*
X0013498Y0135200D01*
Y0138199D01*
X0014498D02*
Y0135200D01*
X0015998D01*
X0016497Y0135700D01*
Y0137699D01*
X0015998Y0138199D01*
X0014498D01*
X0127363Y0177499D02*
X0126863Y0177999D01*
X0125863D01*
X0125363Y0177499D01*
Y0176999D01*
X0125863Y0176500D01*
X0126863D01*
X0127363Y0176000D01*
Y0175500D01*
X0126863Y0175000D01*
X0125863D01*
X0125363Y0175500D01*
X0130362Y0177499D02*
X0129862Y0177999D01*
X0128862D01*
X0128362Y0177499D01*
Y0175500D01*
X0128862Y0175000D01*
X0129862D01*
X0130362Y0175500D01*
X0131361Y0177999D02*
Y0175000D01*
X0133361D01*
X0134360Y0177499D02*
X0134860Y0177999D01*
X0135860D01*
X0136360Y0177499D01*
Y0176999D01*
X0135860Y0176500D01*
X0135360D01*
X0135860D01*
X0136360Y0176000D01*
Y0175500D01*
X0135860Y0175000D01*
X0134860D01*
X0134360Y0175500D01*
X0116200Y0125400D02*
X0113200D01*
X0116200Y0127399D01*
X0113200D01*
X0116200Y0128399D02*
X0113200D01*
Y0129899D01*
X0113700Y0130398D01*
X0114700D01*
X0115200Y0129899D01*
Y0128399D01*
Y0129399D02*
X0116200Y0130398D01*
X0113700Y0133397D02*
X0113200Y0132898D01*
Y0131898D01*
X0113700Y0131398D01*
X0114200D01*
X0114700Y0131898D01*
Y0132898D01*
X0115200Y0133397D01*
X0115700D01*
X0116200Y0132898D01*
Y0131898D01*
X0115700Y0131398D01*
X0113200Y0134397D02*
Y0136396D01*
Y0135397D01*
X0116200D01*
X0253951Y0316099D02*
X0254950D01*
X0254451D01*
Y0313100D01*
X0253951D01*
X0254950D01*
X0258449Y0315599D02*
X0257949Y0316099D01*
X0256950D01*
X0256450Y0315599D01*
Y0315099D01*
X0256950Y0314599D01*
X0257949D01*
X0258449Y0314100D01*
Y0313600D01*
X0257949Y0313100D01*
X0256950D01*
X0256450Y0313600D01*
X0268500Y0102618D02*
X0269500D01*
X0269000D01*
Y0099619D01*
X0268500D01*
X0269500D01*
X0272998Y0102118D02*
X0272499Y0102618D01*
X0271499D01*
X0270999Y0102118D01*
Y0101618D01*
X0271499Y0101118D01*
X0272499D01*
X0272998Y0100619D01*
Y0100119D01*
X0272499Y0099619D01*
X0271499D01*
X0270999Y0100119D01*
X0270499Y0096599D02*
X0270000Y0097099D01*
X0269000D01*
X0268500Y0096599D01*
Y0094600D01*
X0269000Y0094100D01*
X0270000D01*
X0270499Y0094600D01*
Y0095600D01*
X0269500D01*
X0271499Y0094100D02*
Y0097099D01*
X0273498Y0094100D01*
Y0097099D01*
X0274498D02*
Y0094100D01*
X0275998D01*
X0276497Y0094600D01*
Y0096599D01*
X0275998Y0097099D01*
X0274498D01*
X0245700Y0315599D02*
X0245200Y0316099D01*
X0244201D01*
X0243701Y0315599D01*
Y0315099D01*
X0244201Y0314599D01*
X0245200D01*
X0245700Y0314100D01*
Y0313600D01*
X0245200Y0313100D01*
X0244201D01*
X0243701Y0313600D01*
X0246700Y0316099D02*
Y0313100D01*
Y0314599D01*
X0248699D01*
Y0316099D01*
Y0313100D01*
X0229202Y0190153D02*
X0228702Y0190653D01*
X0227702D01*
X0227203Y0190153D01*
Y0188154D01*
X0227702Y0187654D01*
X0228702D01*
X0229202Y0188154D01*
Y0189154D01*
X0228202D01*
X0230202Y0187654D02*
Y0190653D01*
X0232201Y0187654D01*
Y0190653D01*
X0233201D02*
Y0187654D01*
X0234700D01*
X0235200Y0188154D01*
Y0190153D01*
X0234700Y0190653D01*
X0233201D01*
X0257800Y0346300D02*
Y0348299D01*
X0258800Y0349299D01*
X0259799Y0348299D01*
Y0346300D01*
Y0347799D01*
X0257800D01*
X0260799Y0349299D02*
Y0347300D01*
X0261799Y0346300D01*
X0262798Y0347300D01*
Y0349299D01*
X0263798Y0346300D02*
Y0349299D01*
X0265298D01*
X0265797Y0348799D01*
Y0347799D01*
X0265298Y0347300D01*
X0263798D01*
X0264798D02*
X0265797Y0346300D01*
X0271796Y0349299D02*
X0270796D01*
X0271296D01*
Y0346800D01*
X0270796Y0346300D01*
X0270296D01*
X0269796Y0346800D01*
X0272795Y0349299D02*
X0274795D01*
X0273795D01*
Y0346300D01*
X0275794D02*
Y0348299D01*
X0276794Y0349299D01*
X0277794Y0348299D01*
Y0346300D01*
Y0347799D01*
X0275794D01*
X0280793Y0348799D02*
X0280293Y0349299D01*
X0279293D01*
X0278793Y0348799D01*
Y0346800D01*
X0279293Y0346300D01*
X0280293D01*
X0280793Y0346800D01*
Y0347799D01*
X0279793D01*
X0195676Y0259777D02*
X0195176Y0259277D01*
Y0258277D01*
X0195676Y0257778D01*
X0196176D01*
X0196676Y0258277D01*
Y0259277D01*
X0197176Y0259777D01*
X0197676D01*
X0198176Y0259277D01*
Y0258277D01*
X0197676Y0257778D01*
X0195676Y0262776D02*
X0195176Y0262276D01*
Y0261276D01*
X0195676Y0260777D01*
X0197676D01*
X0198176Y0261276D01*
Y0262276D01*
X0197676Y0262776D01*
X0195176Y0263776D02*
X0198176D01*
Y0265775D01*
Y0268774D02*
Y0266775D01*
X0196176Y0268774D01*
X0195676D01*
X0195176Y0268274D01*
Y0267274D01*
X0195676Y0266775D01*
X0229202Y0195153D02*
X0228702Y0195653D01*
X0227702D01*
X0227203Y0195153D01*
Y0194653D01*
X0227702Y0194153D01*
X0228702D01*
X0229202Y0193654D01*
Y0193154D01*
X0228702Y0192654D01*
X0227702D01*
X0227203Y0193154D01*
X0232201Y0195153D02*
X0231701Y0195653D01*
X0230701D01*
X0230202Y0195153D01*
Y0193154D01*
X0230701Y0192654D01*
X0231701D01*
X0232201Y0193154D01*
X0233201Y0195653D02*
Y0192654D01*
X0235200D01*
X0278500Y0297848D02*
X0279500D01*
X0279000D01*
Y0294849D01*
X0278500D01*
X0279500D01*
X0280999D02*
Y0297848D01*
X0282499D01*
X0282998Y0297348D01*
Y0296349D01*
X0282499Y0295849D01*
X0280999D01*
X0281999D02*
X0282998Y0294849D01*
X0285998Y0295349D02*
Y0297348D01*
X0285498Y0297848D01*
X0284498D01*
X0283998Y0297348D01*
Y0295349D01*
X0284498Y0294849D01*
X0285498D01*
X0284998Y0295849D02*
X0285998Y0294849D01*
X0285498D02*
X0285998Y0295349D01*
X0225676Y0259777D02*
X0225177Y0259277D01*
Y0258277D01*
X0225676Y0257778D01*
X0226176D01*
X0226676Y0258277D01*
Y0259277D01*
X0227176Y0259777D01*
X0227676D01*
X0228175Y0259277D01*
Y0258277D01*
X0227676Y0257778D01*
X0225177Y0260777D02*
X0228175D01*
Y0262276D01*
X0227676Y0262776D01*
X0225676D01*
X0225177Y0262276D01*
Y0260777D01*
X0228175Y0263776D02*
X0226176D01*
X0225177Y0264775D01*
X0226176Y0265775D01*
X0228175D01*
X0226676D01*
Y0263776D01*
X0225676Y0266775D02*
X0225177Y0267274D01*
Y0268274D01*
X0225676Y0268774D01*
X0226176D01*
X0226676Y0268274D01*
Y0267774D01*
Y0268274D01*
X0227176Y0268774D01*
X0227676D01*
X0228175Y0268274D01*
Y0267274D01*
X0227676Y0266775D01*
X0280900Y0102418D02*
Y0099919D01*
X0281400Y0099419D01*
X0282400D01*
X0282899Y0099919D01*
Y0102418D01*
X0285898Y0101918D02*
X0285399Y0102418D01*
X0284399D01*
X0283899Y0101918D01*
Y0101418D01*
X0284399Y0100918D01*
X0285399D01*
X0285898Y0100418D01*
Y0099919D01*
X0285399Y0099419D01*
X0284399D01*
X0283899Y0099919D01*
X0286898Y0102418D02*
Y0099419D01*
X0288398D01*
X0288897Y0099919D01*
Y0100418D01*
X0288398Y0100918D01*
X0286898D01*
X0288398D01*
X0288897Y0101418D01*
Y0101918D01*
X0288398Y0102418D01*
X0286898D01*
X0282899Y0096399D02*
X0282400Y0096899D01*
X0281400D01*
X0280900Y0096399D01*
Y0094400D01*
X0281400Y0093900D01*
X0282400D01*
X0282899Y0094400D01*
Y0095399D01*
X0281900D01*
X0283899Y0093900D02*
Y0096899D01*
X0285898Y0093900D01*
Y0096899D01*
X0286898D02*
Y0093900D01*
X0288398D01*
X0288897Y0094400D01*
Y0096399D01*
X0288398Y0096899D01*
X0286898D01*
X0127363Y0207499D02*
X0126863Y0207999D01*
X0125863D01*
X0125363Y0207499D01*
Y0206999D01*
X0125863Y0206500D01*
X0126863D01*
X0127363Y0206000D01*
Y0205500D01*
X0126863Y0205000D01*
X0125863D01*
X0125363Y0205500D01*
X0128362Y0207999D02*
Y0205000D01*
X0129862D01*
X0130362Y0205500D01*
Y0207499D01*
X0129862Y0207999D01*
X0128362D01*
X0131361Y0205000D02*
Y0206999D01*
X0132361Y0207999D01*
X0133361Y0206999D01*
Y0205000D01*
Y0206500D01*
X0131361D01*
X0136360Y0205000D02*
X0134360D01*
X0136360Y0206999D01*
Y0207499D01*
X0135860Y0207999D01*
X0134860D01*
X0134360Y0207499D01*
X0136550Y0125400D02*
X0133551D01*
Y0126900D01*
X0134051Y0127399D01*
X0135050D01*
X0135550Y0126900D01*
Y0125400D01*
Y0126400D02*
X0136550Y0127399D01*
X0133551Y0128399D02*
X0136550Y0130398D01*
X0133551D02*
X0136550Y0128399D01*
X0133551Y0131398D02*
X0136550D01*
Y0132898D01*
X0136050Y0133397D01*
X0134051D01*
X0133551Y0132898D01*
Y0131398D01*
X0136550Y0138896D02*
X0135050Y0137396D01*
X0133551Y0138896D01*
X0135050Y0140395D02*
Y0142394D01*
X0373400Y0063999D02*
X0375399D01*
X0374400D01*
Y0061000D01*
X0376399Y0063999D02*
X0378398Y0061000D01*
Y0063999D02*
X0376399Y0061000D01*
X0379398Y0063999D02*
Y0061000D01*
X0380898D01*
X0381397Y0061500D01*
Y0063499D01*
X0380898Y0063999D01*
X0379398D01*
X0385396Y0062499D02*
X0387396D01*
X0388395Y0061000D02*
X0389895Y0062499D01*
X0388395Y0063999D01*
X0127445Y0217390D02*
X0126946Y0217890D01*
X0125946D01*
X0125446Y0217390D01*
Y0216890D01*
X0125946Y0216390D01*
X0126946D01*
X0127445Y0215890D01*
Y0215390D01*
X0126946Y0214891D01*
X0125946D01*
X0125446Y0215390D01*
X0130445Y0217390D02*
X0129945Y0217890D01*
X0128945D01*
X0128445Y0217390D01*
Y0215390D01*
X0128945Y0214891D01*
X0129945D01*
X0130445Y0215390D01*
X0131444Y0217890D02*
Y0214891D01*
X0133443D01*
X0134443D02*
X0135443D01*
X0134943D01*
Y0217890D01*
X0134443Y0217390D01*
X0041500Y0030200D02*
X0043500D01*
X0042500Y0031199D02*
Y0029200D01*
X0028599Y0317499D02*
X0028100Y0317999D01*
X0027100D01*
X0026600Y0317499D01*
Y0316999D01*
X0027100Y0316499D01*
X0028100D01*
X0028599Y0316000D01*
Y0315500D01*
X0028100Y0315000D01*
X0027100D01*
X0026600Y0315500D01*
X0029599Y0316999D02*
Y0315500D01*
X0030099Y0315000D01*
X0031598D01*
Y0316999D01*
X0032598Y0315000D02*
Y0316999D01*
X0034098D01*
X0034597Y0316499D01*
Y0315000D01*
X0037596Y0317499D02*
X0037097Y0317999D01*
X0036097D01*
X0035597Y0317499D01*
Y0316999D01*
X0036097Y0316499D01*
X0037097D01*
X0037596Y0316000D01*
Y0315500D01*
X0037097Y0315000D01*
X0036097D01*
X0035597Y0315500D01*
X0043595Y0317999D02*
X0042595D01*
X0043095D01*
Y0315500D01*
X0042595Y0315000D01*
X0042095D01*
X0041595Y0315500D01*
X0044594Y0317999D02*
X0046593D01*
X0045594D01*
Y0315000D01*
X0047593D02*
Y0316999D01*
X0048593Y0317999D01*
X0049593Y0316999D01*
Y0315000D01*
Y0316499D01*
X0047593D01*
X0052592Y0317499D02*
X0052092Y0317999D01*
X0051092D01*
X0050592Y0317499D01*
Y0315500D01*
X0051092Y0315000D01*
X0052092D01*
X0052592Y0315500D01*
Y0316499D01*
X0051592D01*
X0196137Y0127820D02*
X0195637Y0127320D01*
Y0126320D01*
X0196137Y0125820D01*
X0196637D01*
X0197137Y0126320D01*
Y0127320D01*
X0197637Y0127820D01*
X0198136D01*
X0198636Y0127320D01*
Y0126320D01*
X0198136Y0125820D01*
X0196137Y0130818D02*
X0195637Y0130319D01*
Y0129319D01*
X0196137Y0128819D01*
X0198136D01*
X0198636Y0129319D01*
Y0130319D01*
X0198136Y0130818D01*
X0195637Y0131818D02*
X0198636D01*
Y0133818D01*
Y0136817D02*
Y0134817D01*
X0196637Y0136817D01*
X0196137D01*
X0195637Y0136317D01*
Y0135317D01*
X0196137Y0134817D01*
X0259403Y0197850D02*
X0258903Y0198350D01*
X0257903D01*
X0257404Y0197850D01*
Y0197351D01*
X0257903Y0196851D01*
X0258903D01*
X0259403Y0196351D01*
Y0195851D01*
X0258903Y0195351D01*
X0257903D01*
X0257404Y0195851D01*
X0262402Y0197850D02*
X0261902Y0198350D01*
X0260902D01*
X0260403Y0197850D01*
Y0195851D01*
X0260902Y0195351D01*
X0261902D01*
X0262402Y0195851D01*
X0263402Y0198350D02*
Y0195351D01*
X0265401D01*
X0268400D02*
X0266401D01*
X0268400Y0197351D01*
Y0197850D01*
X0267900Y0198350D01*
X0266900D01*
X0266401Y0197850D01*
X0104051Y0127399D02*
X0103551Y0126900D01*
Y0125900D01*
X0104051Y0125400D01*
X0106050D01*
X0106550Y0125900D01*
Y0126900D01*
X0106050Y0127399D01*
X0105051D01*
Y0126400D01*
X0106550Y0128399D02*
X0103551D01*
X0106550Y0130398D01*
X0103551D01*
Y0131398D02*
X0106550D01*
Y0132898D01*
X0106050Y0133397D01*
X0104051D01*
X0103551Y0132898D01*
Y0131398D01*
X0280499Y0317349D02*
X0279999Y0317848D01*
X0279000D01*
X0278500Y0317349D01*
Y0316849D01*
X0279000Y0316349D01*
X0279999D01*
X0280499Y0315849D01*
Y0315349D01*
X0279999Y0314849D01*
X0279000D01*
X0278500Y0315349D01*
X0281499Y0317848D02*
Y0314849D01*
X0282998D01*
X0283498Y0315349D01*
Y0317349D01*
X0282998Y0317848D01*
X0281499D01*
X0284498Y0314849D02*
Y0316849D01*
X0285498Y0317848D01*
X0286497Y0316849D01*
Y0314849D01*
Y0316349D01*
X0284498D01*
X0166137Y0127820D02*
X0165637Y0127320D01*
Y0126320D01*
X0166137Y0125820D01*
X0166637D01*
X0167137Y0126320D01*
Y0127320D01*
X0167637Y0127820D01*
X0168136D01*
X0168636Y0127320D01*
Y0126320D01*
X0168136Y0125820D01*
X0165637Y0128819D02*
X0168636D01*
Y0130319D01*
X0168136Y0130818D01*
X0166137D01*
X0165637Y0130319D01*
Y0128819D01*
X0168636Y0131818D02*
X0166637D01*
X0165637Y0132818D01*
X0166637Y0133818D01*
X0168636D01*
X0167137D01*
Y0131818D01*
X0168636Y0134817D02*
Y0135817D01*
Y0135317D01*
X0165637D01*
X0166137Y0134817D01*
X0229202Y0205153D02*
X0228702Y0205653D01*
X0227702D01*
X0227203Y0205153D01*
Y0203154D01*
X0227702Y0202654D01*
X0228702D01*
X0229202Y0203154D01*
Y0204153D01*
X0228202D01*
X0230202Y0202654D02*
Y0205653D01*
X0232201Y0202654D01*
Y0205653D01*
X0233201D02*
Y0202654D01*
X0234700D01*
X0235200Y0203154D01*
Y0205153D01*
X0234700Y0205653D01*
X0233201D01*
X0226137Y0127820D02*
X0225637Y0127320D01*
Y0126320D01*
X0226137Y0125820D01*
X0228136D01*
X0228636Y0126320D01*
Y0127320D01*
X0228136Y0127820D01*
X0227137D01*
Y0126820D01*
X0228636Y0128819D02*
X0225637D01*
X0228636Y0130818D01*
X0225637D01*
Y0131818D02*
X0228636D01*
Y0133318D01*
X0228136Y0133818D01*
X0226137D01*
X0225637Y0133318D01*
Y0131818D01*
X0165676Y0262776D02*
X0165176Y0262276D01*
Y0261276D01*
X0165676Y0260777D01*
X0167676D01*
X0168175Y0261276D01*
Y0262276D01*
X0167676Y0262776D01*
X0166676D01*
Y0261776D01*
X0168175Y0263776D02*
X0165176D01*
X0168175Y0265775D01*
X0165176D01*
Y0266775D02*
X0168175D01*
Y0268274D01*
X0167676Y0268774D01*
X0165676D01*
X0165176Y0268274D01*
Y0266775D01*
X0262402Y0227850D02*
X0261902Y0228350D01*
X0260902D01*
X0260403Y0227850D01*
Y0225851D01*
X0260902Y0225351D01*
X0261902D01*
X0262402Y0225851D01*
Y0226851D01*
X0261402D01*
X0263402Y0225351D02*
Y0228350D01*
X0265401Y0225351D01*
Y0228350D01*
X0266401D02*
Y0225351D01*
X0267900D01*
X0268400Y0225851D01*
Y0227850D01*
X0267900Y0228350D01*
X0266401D01*
X0127445Y0227390D02*
X0126946Y0227890D01*
X0125946D01*
X0125446Y0227390D01*
Y0226890D01*
X0125946Y0226390D01*
X0126946D01*
X0127445Y0225890D01*
Y0225390D01*
X0126946Y0224890D01*
X0125946D01*
X0125446Y0225390D01*
X0128445Y0227890D02*
Y0224890D01*
X0129945D01*
X0130445Y0225390D01*
Y0227390D01*
X0129945Y0227890D01*
X0128445D01*
X0131444Y0224890D02*
Y0226890D01*
X0132444Y0227890D01*
X0133443Y0226890D01*
Y0224890D01*
Y0226390D01*
X0131444D01*
X0134443Y0224890D02*
X0135443D01*
X0134943D01*
Y0227890D01*
X0134443Y0227390D01*
X0041500Y0003700D02*
X0043500D01*
X0238176Y0260777D02*
X0235176D01*
Y0262276D01*
X0235676Y0262776D01*
X0236676D01*
X0237176Y0262276D01*
Y0260777D01*
Y0261776D02*
X0238176Y0262776D01*
X0235176Y0263776D02*
Y0265775D01*
Y0264775D01*
X0238176D01*
X0235176Y0266775D02*
X0238176D01*
Y0268274D01*
X0237676Y0268774D01*
X0235676D01*
X0235176Y0268274D01*
Y0266775D01*
X0260403Y0207850D02*
X0259903Y0208350D01*
X0258903D01*
X0258403Y0207850D01*
Y0207351D01*
X0258903Y0206851D01*
X0259903D01*
X0260403Y0206351D01*
Y0205851D01*
X0259903Y0205351D01*
X0258903D01*
X0258403Y0205851D01*
X0261402Y0208350D02*
Y0205351D01*
X0262902D01*
X0263402Y0205851D01*
Y0207850D01*
X0262902Y0208350D01*
X0261402D01*
X0264401Y0205351D02*
Y0207351D01*
X0265401Y0208350D01*
X0266401Y0207351D01*
Y0205351D01*
Y0206851D01*
X0264401D01*
X0267400Y0205351D02*
X0268400D01*
X0267900D01*
Y0208350D01*
X0267400Y0207850D01*
X0005899Y0013099D02*
X0005399Y0013599D01*
X0004400D01*
X0003900Y0013099D01*
Y0011100D01*
X0004400Y0010600D01*
X0005399D01*
X0005899Y0011100D01*
Y0012100D01*
X0004900D01*
X0006899Y0010600D02*
Y0013599D01*
X0008898Y0010600D01*
Y0013599D01*
X0009898D02*
Y0010600D01*
X0011398D01*
X0011897Y0011100D01*
Y0013099D01*
X0011398Y0013599D01*
X0009898D01*
X0125363Y0235000D02*
Y0237999D01*
X0126863D01*
X0127363Y0237499D01*
Y0236500D01*
X0126863Y0236000D01*
X0125363D01*
X0126363D02*
X0127363Y0235000D01*
X0128362Y0237999D02*
X0130362D01*
X0129362D01*
Y0235000D01*
X0131361Y0237999D02*
Y0235000D01*
X0132861D01*
X0133361Y0235500D01*
Y0237499D01*
X0132861Y0237999D01*
X0131361D01*
X0227702Y0185653D02*
X0228702D01*
X0228202D01*
Y0182654D01*
X0227702D01*
X0228702D01*
X0230202D02*
Y0185653D01*
X0231701D01*
X0232201Y0185153D01*
Y0184153D01*
X0231701Y0183654D01*
X0230202D01*
X0231201D02*
X0232201Y0182654D01*
X0235200Y0183154D02*
Y0185153D01*
X0234700Y0185653D01*
X0233700D01*
X0233201Y0185153D01*
Y0183154D01*
X0233700Y0182654D01*
X0234700D01*
X0234200Y0183654D02*
X0235200Y0182654D01*
X0234700D02*
X0235200Y0183154D01*
X0373400Y0072100D02*
Y0075099D01*
X0375399Y0072100D01*
Y0075099D01*
X0376399Y0072100D02*
Y0075099D01*
X0377899D01*
X0378398Y0074599D01*
Y0073599D01*
X0377899Y0073100D01*
X0376399D01*
X0377399D02*
X0378398Y0072100D01*
X0381397Y0074599D02*
X0380898Y0075099D01*
X0379898D01*
X0379398Y0074599D01*
Y0074099D01*
X0379898Y0073599D01*
X0380898D01*
X0381397Y0073100D01*
Y0072600D01*
X0380898Y0072100D01*
X0379898D01*
X0379398Y0072600D01*
X0382397Y0075099D02*
X0384396D01*
X0383397D01*
Y0072100D01*
X0158527Y0125737D02*
X0155528D01*
Y0127237D01*
X0156027Y0127737D01*
X0157027D01*
X0157527Y0127237D01*
Y0125737D01*
Y0126737D02*
X0158527Y0127737D01*
X0155528Y0128736D02*
Y0130736D01*
Y0129736D01*
X0158527D01*
X0155528Y0131735D02*
X0158527D01*
Y0133235D01*
X0158027Y0133735D01*
X0156027D01*
X0155528Y0133235D01*
Y0131735D01*
X0127445Y0197390D02*
X0126946Y0197890D01*
X0125946D01*
X0125446Y0197390D01*
Y0196890D01*
X0125946Y0196390D01*
X0126946D01*
X0127445Y0195890D01*
Y0195390D01*
X0126946Y0194890D01*
X0125946D01*
X0125446Y0195390D01*
X0130445Y0197390D02*
X0129945Y0197890D01*
X0128945D01*
X0128445Y0197390D01*
Y0195390D01*
X0128945Y0194890D01*
X0129945D01*
X0130445Y0195390D01*
X0131444Y0197890D02*
Y0194890D01*
X0133443D01*
X0136443D02*
X0134443D01*
X0136443Y0196890D01*
Y0197390D01*
X0135943Y0197890D01*
X0134943D01*
X0134443Y0197390D01*
X0090099Y0051389D02*
X0088100D01*
Y0048390D01*
X0090099D01*
X0088100Y0049889D02*
X0089100D01*
X0091099Y0051389D02*
X0093098Y0048390D01*
Y0051389D02*
X0091099Y0048390D01*
X0094098Y0051389D02*
X0096097D01*
X0095098D01*
Y0048390D01*
X0205676Y0259777D02*
X0205176Y0259277D01*
Y0258277D01*
X0205676Y0257778D01*
X0206176D01*
X0206676Y0258277D01*
Y0259277D01*
X0207176Y0259777D01*
X0207676D01*
X0208175Y0259277D01*
Y0258277D01*
X0207676Y0257778D01*
X0205176Y0260777D02*
X0208175D01*
Y0262276D01*
X0207676Y0262776D01*
X0205676D01*
X0205176Y0262276D01*
Y0260777D01*
X0208175Y0263776D02*
X0206176D01*
X0205176Y0264775D01*
X0206176Y0265775D01*
X0208175D01*
X0206676D01*
Y0263776D01*
X0208175Y0268774D02*
Y0266775D01*
X0206176Y0268774D01*
X0205676D01*
X0205176Y0268274D01*
Y0267274D01*
X0205676Y0266775D01*
X0005699Y0031899D02*
X0003700D01*
Y0028900D01*
X0005699D01*
X0003700Y0030400D02*
X0004700D01*
X0006699Y0031899D02*
X0008698Y0028900D01*
Y0031899D02*
X0006699Y0028900D01*
X0009698Y0031899D02*
X0011697D01*
X0010698D01*
Y0028900D01*
X0017695Y0031399D02*
X0017196Y0031899D01*
X0016196D01*
X0015696Y0031399D01*
Y0030899D01*
X0016196Y0030400D01*
X0017196D01*
X0017695Y0029900D01*
Y0029400D01*
X0017196Y0028900D01*
X0016196D01*
X0015696Y0029400D01*
X0018695Y0031899D02*
Y0029400D01*
X0019195Y0028900D01*
X0020195D01*
X0020695Y0029400D01*
Y0031899D01*
X0021694Y0028900D02*
Y0031899D01*
X0023194D01*
X0023694Y0031399D01*
Y0030400D01*
X0023194Y0029900D01*
X0021694D01*
X0024693Y0028900D02*
Y0031899D01*
X0026193D01*
X0026693Y0031399D01*
Y0030400D01*
X0026193Y0029900D01*
X0024693D01*
X0027692Y0031899D02*
Y0028900D01*
X0029692D01*
X0030691Y0031899D02*
Y0031399D01*
X0031691Y0030400D01*
X0032691Y0031399D01*
Y0031899D01*
X0031691Y0030400D02*
Y0028900D01*
X0280499Y0287349D02*
X0279999Y0287848D01*
X0279000D01*
X0278500Y0287349D01*
Y0285349D01*
X0279000Y0284849D01*
X0279999D01*
X0280499Y0285349D01*
Y0286349D01*
X0279500D01*
X0281499Y0284849D02*
Y0287848D01*
X0283498Y0284849D01*
Y0287848D01*
X0284498D02*
Y0284849D01*
X0285998D01*
X0286497Y0285349D01*
Y0287349D01*
X0285998Y0287848D01*
X0284498D01*
X0175676Y0260777D02*
X0175177Y0260277D01*
Y0259277D01*
X0175676Y0258777D01*
X0176176D01*
X0176676Y0259277D01*
Y0260277D01*
X0177176Y0260777D01*
X0177676D01*
X0178175Y0260277D01*
Y0259277D01*
X0177676Y0258777D01*
X0175676Y0263776D02*
X0175177Y0263276D01*
Y0262276D01*
X0175676Y0261776D01*
X0177676D01*
X0178175Y0262276D01*
Y0263276D01*
X0177676Y0263776D01*
X0175177Y0264775D02*
X0178175D01*
Y0266775D01*
Y0267774D02*
Y0268774D01*
Y0268274D01*
X0175177D01*
X0175676Y0267774D01*
X0260403Y0217850D02*
X0259903Y0218350D01*
X0258903D01*
X0258403Y0217850D01*
Y0217351D01*
X0258903Y0216851D01*
X0259903D01*
X0260403Y0216351D01*
Y0215851D01*
X0259903Y0215351D01*
X0258903D01*
X0258403Y0215851D01*
X0263402Y0217850D02*
X0262902Y0218350D01*
X0261902D01*
X0261402Y0217850D01*
Y0215851D01*
X0261902Y0215351D01*
X0262902D01*
X0263402Y0215851D01*
X0264401Y0218350D02*
Y0215351D01*
X0266401D01*
X0267400D02*
X0268400D01*
X0267900D01*
Y0218350D01*
X0267400Y0217850D01*
X0009299Y0353999D02*
X0008800Y0354499D01*
X0007800D01*
X0007300Y0353999D01*
Y0352000D01*
X0007800Y0351500D01*
X0008800D01*
X0009299Y0352000D01*
Y0352999D01*
X0008300D01*
X0010299Y0351500D02*
Y0354499D01*
X0012298Y0351500D01*
Y0354499D01*
X0013298D02*
Y0351500D01*
X0014798D01*
X0015297Y0352000D01*
Y0353999D01*
X0014798Y0354499D01*
X0013298D01*
X0185676Y0260777D02*
X0185177Y0260277D01*
Y0259277D01*
X0185676Y0258777D01*
X0186176D01*
X0186676Y0259277D01*
Y0260277D01*
X0187176Y0260777D01*
X0187676D01*
X0188175Y0260277D01*
Y0259277D01*
X0187676Y0258777D01*
X0185177Y0261776D02*
X0188175D01*
Y0263276D01*
X0187676Y0263776D01*
X0185676D01*
X0185177Y0263276D01*
Y0261776D01*
X0188175Y0264775D02*
X0186176D01*
X0185177Y0265775D01*
X0186176Y0266775D01*
X0188175D01*
X0186676D01*
Y0264775D01*
X0188175Y0267774D02*
Y0268774D01*
Y0268274D01*
X0185177D01*
X0185676Y0267774D01*
X0215676Y0259777D02*
X0215177Y0259277D01*
Y0258277D01*
X0215676Y0257778D01*
X0216176D01*
X0216676Y0258277D01*
Y0259277D01*
X0217176Y0259777D01*
X0217676D01*
X0218176Y0259277D01*
Y0258277D01*
X0217676Y0257778D01*
X0215676Y0262776D02*
X0215177Y0262276D01*
Y0261276D01*
X0215676Y0260777D01*
X0217676D01*
X0218176Y0261276D01*
Y0262276D01*
X0217676Y0262776D01*
X0215177Y0263776D02*
X0218176D01*
Y0265775D01*
X0215676Y0266775D02*
X0215177Y0267274D01*
Y0268274D01*
X0215676Y0268774D01*
X0216176D01*
X0216676Y0268274D01*
Y0267774D01*
Y0268274D01*
X0217176Y0268774D01*
X0217676D01*
X0218176Y0268274D01*
Y0267274D01*
X0217676Y0266775D01*
X0127445Y0187390D02*
X0126946Y0187890D01*
X0125946D01*
X0125446Y0187390D01*
Y0186890D01*
X0125946Y0186390D01*
X0126946D01*
X0127445Y0185890D01*
Y0185390D01*
X0126946Y0184890D01*
X0125946D01*
X0125446Y0185390D01*
X0128445Y0187890D02*
Y0184890D01*
X0129945D01*
X0130445Y0185390D01*
Y0187390D01*
X0129945Y0187890D01*
X0128445D01*
X0131444Y0184890D02*
Y0186890D01*
X0132444Y0187890D01*
X0133443Y0186890D01*
Y0184890D01*
Y0186390D01*
X0131444D01*
X0134443Y0187390D02*
X0134943Y0187890D01*
X0135943D01*
X0136443Y0187390D01*
Y0186890D01*
X0135943Y0186390D01*
X0135443D01*
X0135943D01*
X0136443Y0185890D01*
Y0185390D01*
X0135943Y0184890D01*
X0134943D01*
X0134443Y0185390D01*
X0375399Y0057599D02*
X0374900Y0058099D01*
X0373900D01*
X0373400Y0057599D01*
Y0055600D01*
X0373900Y0055100D01*
X0374900D01*
X0375399Y0055600D01*
Y0056599D01*
X0374400D01*
X0376399Y0055100D02*
Y0058099D01*
X0378398Y0055100D01*
Y0058099D01*
X0379398D02*
Y0055100D01*
X0380898D01*
X0381397Y0055600D01*
Y0057599D01*
X0380898Y0058099D01*
X0379398D01*
X0259403Y0187850D02*
X0258903Y0188350D01*
X0257903D01*
X0257404Y0187850D01*
Y0187351D01*
X0257903Y0186851D01*
X0258903D01*
X0259403Y0186351D01*
Y0185851D01*
X0258903Y0185351D01*
X0257903D01*
X0257404Y0185851D01*
X0260403Y0188350D02*
Y0185351D01*
X0261902D01*
X0262402Y0185851D01*
Y0187850D01*
X0261902Y0188350D01*
X0260403D01*
X0263402Y0185351D02*
Y0187351D01*
X0264401Y0188350D01*
X0265401Y0187351D01*
Y0185351D01*
Y0186851D01*
X0263402D01*
X0268400Y0185351D02*
X0266401D01*
X0268400Y0187351D01*
Y0187850D01*
X0267900Y0188350D01*
X0266900D01*
X0266401Y0187850D01*
X0216027Y0127737D02*
X0215528Y0127237D01*
Y0126237D01*
X0216027Y0125737D01*
X0216527D01*
X0217027Y0126237D01*
Y0127237D01*
X0217527Y0127737D01*
X0218027D01*
X0218527Y0127237D01*
Y0126237D01*
X0218027Y0125737D01*
X0216027Y0130736D02*
X0215528Y0130236D01*
Y0129236D01*
X0216027Y0128736D01*
X0218027D01*
X0218527Y0129236D01*
Y0130236D01*
X0218027Y0130736D01*
X0215528Y0131735D02*
X0218527D01*
Y0133735D01*
X0216027Y0134734D02*
X0215528Y0135234D01*
Y0136234D01*
X0216027Y0136734D01*
X0216527D01*
X0217027Y0136234D01*
Y0135734D01*
Y0136234D01*
X0217527Y0136734D01*
X0218027D01*
X0218527Y0136234D01*
Y0135234D01*
X0218027Y0134734D01*
X0300001Y0284199D02*
X0299501Y0283699D01*
Y0282700D01*
X0300001Y0282200D01*
X0300501D01*
X0301000Y0282700D01*
Y0283699D01*
X0301500Y0284199D01*
X0302000D01*
X0302500Y0283699D01*
Y0282700D01*
X0302000Y0282200D01*
X0300501Y0285199D02*
X0302000D01*
X0302500Y0285699D01*
Y0287198D01*
X0300501D01*
X0302500Y0288198D02*
X0300501D01*
Y0289698D01*
X0301000Y0290197D01*
X0302500D01*
X0300001Y0293196D02*
X0299501Y0292697D01*
Y0291697D01*
X0300001Y0291197D01*
X0300501D01*
X0301000Y0291697D01*
Y0292697D01*
X0301500Y0293196D01*
X0302000D01*
X0302500Y0292697D01*
Y0291697D01*
X0302000Y0291197D01*
X0302500Y0297195D02*
X0299501D01*
Y0298695D01*
X0300001Y0299195D01*
X0301000D01*
X0301500Y0298695D01*
Y0297195D01*
X0299501Y0300194D02*
X0302500D01*
Y0302193D01*
X0299501Y0303193D02*
X0302500D01*
Y0304693D01*
X0302000Y0305193D01*
X0300001D01*
X0299501Y0304693D01*
Y0303193D01*
X0125446Y0157390D02*
X0125946Y0157890D01*
X0126946D01*
X0127445Y0157390D01*
Y0156890D01*
X0126946Y0156390D01*
X0126446D01*
X0126946D01*
X0127445Y0155890D01*
Y0155390D01*
X0126946Y0154891D01*
X0125946D01*
X0125446Y0155390D01*
X0128445Y0157890D02*
Y0155890D01*
X0129445Y0154891D01*
X0130445Y0155890D01*
Y0157890D01*
X0131444Y0157390D02*
X0131944Y0157890D01*
X0132944D01*
X0133443Y0157390D01*
Y0156890D01*
X0132944Y0156390D01*
X0132444D01*
X0132944D01*
X0133443Y0155890D01*
Y0155390D01*
X0132944Y0154891D01*
X0131944D01*
X0131444Y0155390D01*
X0102299Y0111099D02*
X0101799Y0111599D01*
X0100800D01*
X0100300Y0111099D01*
Y0110599D01*
X0100800Y0110099D01*
X0101799D01*
X0102299Y0109600D01*
Y0109100D01*
X0101799Y0108600D01*
X0100800D01*
X0100300Y0109100D01*
X0103299Y0110599D02*
Y0109100D01*
X0103799Y0108600D01*
X0105298D01*
Y0110599D01*
X0106298Y0108600D02*
Y0110599D01*
X0107798D01*
X0108297Y0110099D01*
Y0108600D01*
X0111296Y0111099D02*
X0110797Y0111599D01*
X0109797D01*
X0109297Y0111099D01*
Y0110599D01*
X0109797Y0110099D01*
X0110797D01*
X0111296Y0109600D01*
Y0109100D01*
X0110797Y0108600D01*
X0109797D01*
X0109297Y0109100D01*
X0115295Y0111599D02*
Y0109100D01*
X0115795Y0108600D01*
X0116795D01*
X0117295Y0109100D01*
Y0111599D01*
X0118294Y0108600D02*
Y0110599D01*
X0119294Y0111599D01*
X0120293Y0110599D01*
Y0108600D01*
Y0110099D01*
X0118294D01*
X0121293Y0108600D02*
Y0111599D01*
X0122793D01*
X0123293Y0111099D01*
Y0110099D01*
X0122793Y0109600D01*
X0121293D01*
X0122293D02*
X0123293Y0108600D01*
X0124292Y0111599D02*
X0126292D01*
X0125292D01*
Y0108600D01*
X0123551Y0125400D02*
Y0127399D01*
Y0126400D01*
X0126550D01*
X0123551Y0128399D02*
X0126550Y0130398D01*
X0123551D02*
X0126550Y0128399D01*
X0123551Y0131398D02*
X0126550D01*
Y0132898D01*
X0126050Y0133397D01*
X0124051D01*
X0123551Y0132898D01*
Y0131398D01*
X0125050Y0137396D02*
Y0139395D01*
X0126550Y0140395D02*
X0125050Y0141895D01*
X0123551Y0140395D01*
X0259403Y0177850D02*
X0258903Y0178350D01*
X0257903D01*
X0257404Y0177850D01*
Y0177351D01*
X0257903Y0176851D01*
X0258903D01*
X0259403Y0176351D01*
Y0175851D01*
X0258903Y0175351D01*
X0257903D01*
X0257404Y0175851D01*
X0262402Y0177850D02*
X0261902Y0178350D01*
X0260902D01*
X0260403Y0177850D01*
Y0175851D01*
X0260902Y0175351D01*
X0261902D01*
X0262402Y0175851D01*
X0263402Y0178350D02*
Y0175351D01*
X0265401D01*
X0266401Y0177850D02*
X0266900Y0178350D01*
X0267900D01*
X0268400Y0177850D01*
Y0177351D01*
X0267900Y0176851D01*
X0267400D01*
X0267900D01*
X0268400Y0176351D01*
Y0175851D01*
X0267900Y0175351D01*
X0266900D01*
X0266401Y0175851D01*
X0270299Y0119099D02*
X0269799Y0119599D01*
X0268800D01*
X0268300Y0119099D01*
Y0117100D01*
X0268800Y0116600D01*
X0269799D01*
X0270299Y0117100D01*
Y0118099D01*
X0269300D01*
X0271299Y0116600D02*
Y0119599D01*
X0273298Y0116600D01*
Y0119599D01*
X0274298D02*
Y0116600D01*
X0275798D01*
X0276297Y0117100D01*
Y0119099D01*
X0275798Y0119599D01*
X0274298D01*
X0282295D02*
X0281296D01*
X0281796D01*
Y0117100D01*
X0281296Y0116600D01*
X0280796D01*
X0280296Y0117100D01*
X0283295Y0116600D02*
Y0119599D01*
X0284795D01*
X0285295Y0119099D01*
Y0118099D01*
X0284795Y0117600D01*
X0283295D01*
X0286294Y0116600D02*
Y0119599D01*
X0287794D01*
X0288294Y0119099D01*
Y0118099D01*
X0287794Y0117600D01*
X0286294D01*
X0287294D02*
X0288294Y0116600D01*
X0362000Y0254700D02*
Y0257699D01*
X0363499D01*
X0363999Y0257199D01*
Y0256200D01*
X0363499Y0255700D01*
X0362000D01*
X0363000D02*
X0363999Y0254700D01*
X0366998Y0257699D02*
X0364999D01*
Y0254700D01*
X0366998D01*
X0364999Y0256200D02*
X0365999D01*
X0369997Y0257199D02*
X0369498Y0257699D01*
X0368498D01*
X0367998Y0257199D01*
Y0256699D01*
X0368498Y0256200D01*
X0369498D01*
X0369997Y0255700D01*
Y0255200D01*
X0369498Y0254700D01*
X0368498D01*
X0367998Y0255200D01*
X0372996Y0257699D02*
X0370997D01*
Y0254700D01*
X0372996D01*
X0370997Y0256200D02*
X0371997D01*
X0373996Y0257699D02*
X0375995D01*
X0374996D01*
Y0254700D01*
X0186028Y0127737D02*
X0185528Y0127237D01*
Y0126237D01*
X0186028Y0125737D01*
X0186527D01*
X0187027Y0126237D01*
Y0127237D01*
X0187527Y0127737D01*
X0188027D01*
X0188527Y0127237D01*
Y0126237D01*
X0188027Y0125737D01*
X0185528Y0128736D02*
X0188527D01*
Y0130236D01*
X0188027Y0130736D01*
X0186028D01*
X0185528Y0130236D01*
Y0128736D01*
X0188527Y0131735D02*
X0186527D01*
X0185528Y0132735D01*
X0186527Y0133735D01*
X0188527D01*
X0187027D01*
Y0131735D01*
X0188527Y0136734D02*
Y0134734D01*
X0186527Y0136734D01*
X0186028D01*
X0185528Y0136234D01*
Y0135234D01*
X0186028Y0134734D01*
X0176137Y0127820D02*
X0175637Y0127320D01*
Y0126320D01*
X0176137Y0125820D01*
X0176637D01*
X0177137Y0126320D01*
Y0127320D01*
X0177637Y0127820D01*
X0178136D01*
X0178636Y0127320D01*
Y0126320D01*
X0178136Y0125820D01*
X0176137Y0130818D02*
X0175637Y0130319D01*
Y0129319D01*
X0176137Y0128819D01*
X0178136D01*
X0178636Y0129319D01*
Y0130319D01*
X0178136Y0130818D01*
X0175637Y0131818D02*
X0178636D01*
Y0133818D01*
Y0134817D02*
Y0135817D01*
Y0135317D01*
X0175637D01*
X0176137Y0134817D01*
X0259403Y0167850D02*
X0258903Y0168350D01*
X0257903D01*
X0257404Y0167850D01*
Y0167351D01*
X0257903Y0166851D01*
X0258903D01*
X0259403Y0166351D01*
Y0165851D01*
X0258903Y0165351D01*
X0257903D01*
X0257404Y0165851D01*
X0260403Y0168350D02*
Y0165351D01*
X0261902D01*
X0262402Y0165851D01*
Y0167850D01*
X0261902Y0168350D01*
X0260403D01*
X0263402Y0165351D02*
Y0167351D01*
X0264401Y0168350D01*
X0265401Y0167351D01*
Y0165351D01*
Y0166851D01*
X0263402D01*
X0266401Y0167850D02*
X0266900Y0168350D01*
X0267900D01*
X0268400Y0167850D01*
Y0167351D01*
X0267900Y0166851D01*
X0267400D01*
X0267900D01*
X0268400Y0166351D01*
Y0165851D01*
X0267900Y0165351D01*
X0266900D01*
X0266401Y0165851D01*
X0229202Y0200153D02*
X0228702Y0200653D01*
X0227702D01*
X0227203Y0200153D01*
Y0199653D01*
X0227702Y0199153D01*
X0228702D01*
X0229202Y0198654D01*
Y0198154D01*
X0228702Y0197654D01*
X0227702D01*
X0227203Y0198154D01*
X0230202Y0200653D02*
Y0197654D01*
X0231701D01*
X0232201Y0198154D01*
Y0200153D01*
X0231701Y0200653D01*
X0230202D01*
X0233201Y0197654D02*
Y0199653D01*
X0234200Y0200653D01*
X0235200Y0199653D01*
Y0197654D01*
Y0199153D01*
X0233201D01*
X0155676Y0260777D02*
X0155176Y0261276D01*
Y0262276D01*
X0155676Y0262776D01*
X0156176D01*
X0156676Y0262276D01*
Y0261776D01*
Y0262276D01*
X0157176Y0262776D01*
X0157676D01*
X0158176Y0262276D01*
Y0261276D01*
X0157676Y0260777D01*
X0155176Y0263776D02*
X0157176D01*
X0158176Y0264775D01*
X0157176Y0265775D01*
X0155176D01*
X0155676Y0266775D02*
X0155176Y0267274D01*
Y0268274D01*
X0155676Y0268774D01*
X0156176D01*
X0156676Y0268274D01*
Y0267774D01*
Y0268274D01*
X0157176Y0268774D01*
X0157676D01*
X0158176Y0268274D01*
Y0267274D01*
X0157676Y0266775D01*
X0206137Y0127820D02*
X0205637Y0127320D01*
Y0126320D01*
X0206137Y0125820D01*
X0206637D01*
X0207137Y0126320D01*
Y0127320D01*
X0207636Y0127820D01*
X0208136D01*
X0208636Y0127320D01*
Y0126320D01*
X0208136Y0125820D01*
X0205637Y0128819D02*
X0208636D01*
Y0130319D01*
X0208136Y0130818D01*
X0206137D01*
X0205637Y0130319D01*
Y0128819D01*
X0208636Y0131818D02*
X0206637D01*
X0205637Y0132818D01*
X0206637Y0133818D01*
X0208636D01*
X0207137D01*
Y0131818D01*
X0206137Y0134817D02*
X0205637Y0135317D01*
Y0136317D01*
X0206137Y0136817D01*
X0206637D01*
X0207137Y0136317D01*
Y0135817D01*
Y0136317D01*
X0207636Y0136817D01*
X0208136D01*
X0208636Y0136317D01*
Y0135317D01*
X0208136Y0134817D01*
X0280499Y0307348D02*
X0279999Y0307848D01*
X0279000D01*
X0278500Y0307348D01*
Y0306849D01*
X0279000Y0306349D01*
X0279999D01*
X0280499Y0305849D01*
Y0305349D01*
X0279999Y0304849D01*
X0279000D01*
X0278500Y0305349D01*
X0283498Y0307348D02*
X0282998Y0307848D01*
X0281999D01*
X0281499Y0307348D01*
Y0305349D01*
X0281999Y0304849D01*
X0282998D01*
X0283498Y0305349D01*
X0284498Y0307848D02*
Y0304849D01*
X0286497D01*
X0236137Y0125820D02*
X0235637Y0126320D01*
Y0127320D01*
X0236137Y0127820D01*
X0236637D01*
X0237137Y0127320D01*
Y0126820D01*
Y0127320D01*
X0237636Y0127820D01*
X0238136D01*
X0238636Y0127320D01*
Y0126320D01*
X0238136Y0125820D01*
X0235637Y0128819D02*
X0237636D01*
X0238636Y0129819D01*
X0237636Y0130818D01*
X0235637D01*
X0236137Y0131818D02*
X0235637Y0132318D01*
Y0133318D01*
X0236137Y0133818D01*
X0236637D01*
X0237137Y0133318D01*
Y0132818D01*
Y0133318D01*
X0237636Y0133818D01*
X0238136D01*
X0238636Y0133318D01*
Y0132318D01*
X0238136Y0131818D01*
X0373400Y0066900D02*
Y0069899D01*
X0374900D01*
X0375399Y0069399D01*
Y0068400D01*
X0374900Y0067900D01*
X0373400D01*
X0374400D02*
X0375399Y0066900D01*
X0376399Y0069899D02*
X0378398Y0066900D01*
Y0069899D02*
X0376399Y0066900D01*
X0379398Y0069899D02*
Y0066900D01*
X0380898D01*
X0381397Y0067400D01*
Y0069399D01*
X0380898Y0069899D01*
X0379398D01*
X0386896Y0066900D02*
X0385396Y0068400D01*
X0386896Y0069899D01*
X0388395Y0068400D02*
X0390394D01*
X0088100Y0014699D02*
Y0012200D01*
X0088600Y0011700D01*
X0089600D01*
X0090099Y0012200D01*
Y0014699D01*
X0093098Y0014199D02*
X0092599Y0014699D01*
X0091599D01*
X0091099Y0014199D01*
Y0013699D01*
X0091599Y0013200D01*
X0092599D01*
X0093098Y0012700D01*
Y0012200D01*
X0092599Y0011700D01*
X0091599D01*
X0091099Y0012200D01*
X0094098Y0014699D02*
Y0011700D01*
X0095598D01*
X0096097Y0012200D01*
Y0012700D01*
X0095598Y0013200D01*
X0094098D01*
X0095598D01*
X0096097Y0013699D01*
Y0014199D01*
X0095598Y0014699D01*
X0094098D01*
X0260403Y0237850D02*
X0260902Y0238350D01*
X0261902D01*
X0262402Y0237850D01*
Y0237351D01*
X0261902Y0236851D01*
X0261402D01*
X0261902D01*
X0262402Y0236351D01*
Y0235851D01*
X0261902Y0235351D01*
X0260902D01*
X0260403Y0235851D01*
X0263402Y0238350D02*
Y0236351D01*
X0264401Y0235351D01*
X0265401Y0236351D01*
Y0238350D01*
X0266401Y0237850D02*
X0266900Y0238350D01*
X0267900D01*
X0268400Y0237850D01*
Y0237351D01*
X0267900Y0236851D01*
X0267400D01*
X0267900D01*
X0268400Y0236351D01*
Y0235851D01*
X0267900Y0235351D01*
X0266900D01*
X0266401Y0235851D01*
X0242899Y0333399D02*
X0242400Y0333899D01*
X0241400D01*
X0240900Y0333399D01*
Y0331400D01*
X0241400Y0330900D01*
X0242400D01*
X0242899Y0331400D01*
Y0332400D01*
X0241900D01*
X0243899Y0330900D02*
Y0333899D01*
X0245899Y0330900D01*
Y0333899D01*
X0246898D02*
Y0330900D01*
X0248398D01*
X0248898Y0331400D01*
Y0333399D01*
X0248398Y0333899D01*
X0246898D01*
X0254896D02*
X0253896D01*
X0254396D01*
Y0331400D01*
X0253896Y0330900D01*
X0253396D01*
X0252896Y0331400D01*
X0255895Y0330900D02*
Y0333899D01*
X0257395D01*
X0257895Y0333399D01*
Y0332400D01*
X0257395Y0331900D01*
X0255895D01*
X0258894Y0330900D02*
Y0333899D01*
X0260394D01*
X0260894Y0333399D01*
Y0332400D01*
X0260394Y0331900D01*
X0258894D01*
X0259894D02*
X0260894Y0330900D01*
X0003900Y0023599D02*
Y0021600D01*
X0004900Y0020600D01*
X0005899Y0021600D01*
Y0023599D01*
X0008898Y0022599D02*
X0007399D01*
X0006899Y0022099D01*
Y0021100D01*
X0007399Y0020600D01*
X0008898D01*
X0011897Y0022599D02*
X0010398D01*
X0009898Y0022099D01*
Y0021100D01*
X0010398Y0020600D01*
X0011897D01*
X0006900Y0376399D02*
X0008899D01*
X0007900Y0377399D02*
Y0375400D01*
X0009899Y0377399D02*
X0010399Y0377899D01*
X0011399D01*
X0011898Y0377399D01*
Y0376899D01*
X0011399Y0376399D01*
X0010899D01*
X0011399D01*
X0011898Y0375900D01*
Y0375400D01*
X0011399Y0374900D01*
X0010399D01*
X0009899Y0375400D01*
X0012898Y0374900D02*
Y0375400D01*
X0013398D01*
Y0374900D01*
X0012898D01*
X0015397Y0377399D02*
X0015897Y0377899D01*
X0016897D01*
X0017397Y0377399D01*
Y0376899D01*
X0016897Y0376399D01*
X0016397D01*
X0016897D01*
X0017397Y0375900D01*
Y0375400D01*
X0016897Y0374900D01*
X0015897D01*
X0015397Y0375400D01*
X0018396Y0377899D02*
Y0375900D01*
X0019396Y0374900D01*
X0020396Y0375900D01*
Y0377899D01*
X0107200Y0297800D02*
X0108866D01*
X0108033D01*
Y0302798D01*
X0107200Y0301965D01*
X0111365D02*
X0112198Y0302798D01*
X0113865D01*
X0114698Y0301965D01*
Y0298633D01*
X0113865Y0297800D01*
X0112198D01*
X0111365Y0298633D01*
Y0301965D01*
X0107200Y0288633D02*
X0108033Y0287800D01*
X0109699D01*
X0110532Y0288633D01*
Y0291965D01*
X0109699Y0292798D01*
X0108033D01*
X0107200Y0291965D01*
Y0291132D01*
X0108033Y0290299D01*
X0110532D01*
X0021200Y0287800D02*
X0022866D01*
X0022033D01*
Y0292798D01*
X0021200Y0291965D01*
X0022532Y0297800D02*
X0019200D01*
X0022532Y0301132D01*
Y0301965D01*
X0021699Y0302798D01*
X0020033D01*
X0019200Y0301965D01*
X0339200Y0371400D02*
X0340866D01*
X0340033D01*
Y0376398D01*
X0339200Y0375565D01*
X0343365D02*
X0344198Y0376398D01*
X0345865D01*
X0346698Y0375565D01*
Y0372233D01*
X0345865Y0371400D01*
X0344198D01*
X0343365Y0372233D01*
Y0375565D01*
X0339200Y0362233D02*
X0340033Y0361400D01*
X0341699D01*
X0342532Y0362233D01*
Y0365565D01*
X0341699Y0366398D01*
X0340033D01*
X0339200Y0365565D01*
Y0364732D01*
X0340033Y0363899D01*
X0342532D01*
X0253200Y0361400D02*
X0254866D01*
X0254033D01*
Y0366398D01*
X0253200Y0365565D01*
X0254532Y0371400D02*
X0251200D01*
X0254532Y0374732D01*
Y0375565D01*
X0253699Y0376398D01*
X0252033D01*
X0251200Y0375565D01*
D68*
X0237700Y0012902D02*
Y0019900D01*
X0234201D01*
X0233035Y0018734D01*
Y0017567D01*
X0234201Y0016401D01*
X0237700D01*
X0234201D01*
X0233035Y0015235D01*
Y0014069D01*
X0234201Y0012902D01*
X0237700D01*
X0010265Y0094109D02*
X0009099Y0095275D01*
X0006766D01*
X0005600Y0094109D01*
Y0092942D01*
X0006766Y0091776D01*
X0009099D01*
X0010265Y0090610D01*
Y0089444D01*
X0009099Y0088277D01*
X0006766D01*
X0005600Y0089444D01*
X0012598Y0092942D02*
Y0089444D01*
X0013764Y0088277D01*
X0017263D01*
Y0092942D01*
X0019595Y0088277D02*
Y0092942D01*
X0023094D01*
X0024261Y0091776D01*
Y0088277D01*
X0031258Y0094109D02*
X0030092Y0095275D01*
X0027760D01*
X0026593Y0094109D01*
Y0092942D01*
X0027760Y0091776D01*
X0030092D01*
X0031258Y0090610D01*
Y0089444D01*
X0030092Y0088277D01*
X0027760D01*
X0026593Y0089444D01*
X0045254Y0095275D02*
X0040589D01*
Y0088277D01*
X0045254D01*
X0040589Y0091776D02*
X0042921D01*
X0047586Y0088277D02*
Y0095275D01*
X0049919Y0092942D01*
X0052252Y0095275D01*
Y0088277D01*
X0065081D02*
Y0095275D01*
X0061582Y0091776D01*
X0066247D01*
X0068580Y0088277D02*
Y0089444D01*
X0069746D01*
Y0088277D01*
X0068580D01*
X0074411Y0094109D02*
X0075577Y0095275D01*
X0077910D01*
X0079076Y0094109D01*
Y0089444D01*
X0077910Y0088277D01*
X0075577D01*
X0074411Y0089444D01*
Y0094109D01*
X0084908Y0088277D02*
Y0095275D01*
X0081409Y0091776D01*
X0086074D01*
X0010265Y0082798D02*
X0005600D01*
Y0075800D01*
X0010265D01*
X0005600Y0079299D02*
X0007933D01*
X0017263Y0081631D02*
X0016097Y0082798D01*
X0013764D01*
X0012598Y0081631D01*
Y0076966D01*
X0013764Y0075800D01*
X0016097D01*
X0017263Y0076966D01*
Y0079299D01*
X0014930D01*
X0024261Y0081631D02*
X0023094Y0082798D01*
X0020762D01*
X0019595Y0081631D01*
Y0080465D01*
X0020762Y0079299D01*
X0023094D01*
X0024261Y0078133D01*
Y0076966D01*
X0023094Y0075800D01*
X0020762D01*
X0019595Y0076966D01*
X0031258Y0082798D02*
X0026593D01*
Y0075800D01*
X0031258D01*
X0026593Y0079299D02*
X0028926D01*
X0040589Y0075800D02*
X0042921D01*
X0041755D01*
Y0082798D01*
X0040589Y0081631D01*
X0046420Y0075800D02*
Y0076966D01*
X0047586D01*
Y0075800D01*
X0046420D01*
X0052252Y0081631D02*
X0053418Y0082798D01*
X0055751D01*
X0056917Y0081631D01*
Y0076966D01*
X0055751Y0075800D01*
X0053418D01*
X0052252Y0076966D01*
Y0081631D01*
X0059249Y0075800D02*
X0061582D01*
X0060416D01*
Y0082798D01*
X0059249Y0081631D01*
X0016900Y0158900D02*
X0012235D01*
X0009902Y0161233D01*
X0012235Y0163565D01*
X0016900D01*
X0013401D01*
Y0158900D01*
X0247501Y0039841D02*
X0245168D01*
X0246335D01*
Y0032843D01*
X0247501Y0034009D01*
X0039667Y0146200D02*
Y0148533D01*
Y0147366D01*
X0032669D01*
X0033836Y0146200D01*
X0145978Y0354213D02*
X0148310D01*
X0147144D01*
Y0361210D01*
X0145978Y0360044D01*
X0380031Y0232435D02*
X0381198Y0233601D01*
Y0235934D01*
X0380031Y0237100D01*
X0375366D01*
X0374200Y0235934D01*
Y0233601D01*
X0375366Y0232435D01*
X0155700Y0382198D02*
Y0375200D01*
X0159199D01*
X0160365Y0376366D01*
Y0381031D01*
X0159199Y0382198D01*
X0155700D01*
X0353692Y0247501D02*
Y0245168D01*
Y0246335D01*
X0360690D01*
X0359524Y0247501D01*
M02*
