G04 Layer_Color=32896*
%FSAX25Y25*%
%MOIN*%
G70*
G01*
G75*
%ADD40C,0.01575*%
%ADD62C,0.00984*%
%ADD63C,0.00394*%
%ADD64C,0.00787*%
%ADD111C,0.02362*%
D40*
X0338895Y0118694D02*
G03*
X0338895Y0118694I-0000787J0000000D01*
G01*
X0278494Y0083307D02*
G03*
X0278494Y0083307I-0000787J0000000D01*
G01*
D62*
X0334446Y0127749D02*
G03*
X0334446Y0127749I-0000492J0000000D01*
G01*
X0269143Y0079154D02*
G03*
X0269143Y0079154I-0000492J0000000D01*
G01*
X0336575Y0060055D02*
G03*
X0336575Y0060055I-0000492J0000000D01*
G01*
X0376120Y0284853D02*
G03*
X0376120Y0284853I-0000492J0000000D01*
G01*
D63*
X0363589Y0261795D02*
G03*
X0363589Y0261795I-0000197J0000000D01*
G01*
X0277122Y0061627D02*
X0279878D01*
X0277122Y0066982D02*
X0279878D01*
X0276728Y0059659D02*
X0280272D01*
X0276728Y0054541D02*
X0280272Y0054541D01*
X0308972Y0351816D02*
Y0353784D01*
X0305428Y0351816D02*
Y0353784D01*
X0364272Y0117516D02*
Y0119484D01*
X0360728Y0117516D02*
Y0119484D01*
X0324028Y0351816D02*
Y0353784D01*
X0327572Y0351816D02*
Y0353784D01*
X0354028Y0339036D02*
X0355996D01*
X0354028Y0335493D02*
X0355996D01*
X0328928Y0045916D02*
Y0047884D01*
X0332472Y0045916D02*
Y0047884D01*
X0333728Y0045916D02*
Y0047884D01*
X0337272Y0045916D02*
Y0047884D01*
X0313728Y0102416D02*
Y0104384D01*
X0317272Y0102416D02*
Y0104384D01*
X0320528Y0102416D02*
Y0104384D01*
X0324072Y0102416D02*
Y0104384D01*
X0302316Y0044728D02*
X0304284D01*
X0302316Y0048272D02*
X0304284D01*
X0302316Y0049528D02*
X0304284D01*
X0302316Y0053072D02*
X0304284D01*
X0359516Y0094072D02*
X0361484D01*
X0359516Y0090528D02*
X0361484D01*
X0359559Y0061972D02*
X0361528D01*
X0359559Y0058428D02*
X0361528D01*
X0046972Y0277816D02*
Y0279784D01*
X0043428Y0277816D02*
Y0279784D01*
X0066972Y0277816D02*
Y0279784D01*
X0063428Y0277816D02*
Y0279784D01*
X0072172Y0277816D02*
Y0279784D01*
X0068628Y0277816D02*
Y0279784D01*
X0086972Y0277816D02*
Y0279784D01*
X0083428Y0277816D02*
Y0279784D01*
X0122928Y0130516D02*
Y0132484D01*
X0126472Y0130516D02*
Y0132484D01*
X0132928Y0130516D02*
Y0132484D01*
X0136472Y0130516D02*
Y0132484D01*
X0369883Y0268537D02*
Y0270506D01*
X0366340Y0268537D02*
Y0270506D01*
X0336640Y0268537D02*
Y0270506D01*
X0340183Y0268537D02*
Y0270506D01*
X0169472Y0177416D02*
Y0179384D01*
X0165928Y0177416D02*
Y0179384D01*
X0345628Y0139015D02*
Y0140984D01*
X0349171Y0139015D02*
Y0140984D01*
X0340628Y0139015D02*
Y0140984D01*
X0344172Y0139015D02*
Y0140984D01*
X0277116Y0075972D02*
X0279084D01*
X0277116Y0072428D02*
X0279084D01*
X0318972Y0351816D02*
Y0353784D01*
X0315428Y0351816D02*
Y0353784D01*
X0298972Y0351816D02*
Y0353784D01*
X0295428Y0351816D02*
Y0353784D01*
X0278972Y0351816D02*
Y0353784D01*
X0275428Y0351816D02*
Y0353784D01*
X0324572Y0044216D02*
Y0046184D01*
X0321028Y0044216D02*
Y0046184D01*
X0255516Y0084272D02*
X0257484D01*
X0255516Y0080728D02*
X0257484D01*
X0332472Y0130316D02*
Y0132284D01*
X0328928Y0130316D02*
Y0132284D01*
X0331872Y0111516D02*
Y0113484D01*
X0328328Y0111516D02*
Y0113484D01*
D64*
X0354643Y0114757D02*
Y0121843D01*
X0334958Y0114757D02*
Y0121843D01*
Y0114757D02*
X0354643D01*
X0334958Y0121843D02*
X0354643D01*
X0274557Y0080158D02*
X0281643D01*
Y0099843D01*
X0274557Y0080158D02*
Y0099843D01*
X0281643D01*
X0311673Y0065173D02*
X0333327D01*
X0311673Y0086827D02*
X0333327D01*
Y0065173D02*
Y0086827D01*
X0311673Y0065173D02*
Y0086827D01*
X0339112Y0324420D02*
X0339112Y0289380D01*
X0374151Y0324420D02*
X0374151Y0289380D01*
X0339112Y0324420D02*
X0374151D01*
X0339112Y0289380D02*
X0374151D01*
D111*
X0330571Y0069110D02*
G03*
X0330571Y0069110I-0001181J0000000D01*
G01*
X0371395Y0293317D02*
G03*
X0371395Y0293317I-0001181J0000000D01*
G01*
M02*
