G04 Layer_Color=16711935*
%FSAX25Y25*%
%MOIN*%
G70*
G01*
G75*
%ADD69R,0.04540X0.04737*%
%ADD70R,0.04737X0.04540*%
%ADD71R,0.04343X0.04343*%
%ADD77R,0.04343X0.04343*%
%ADD91R,0.06706X0.06706*%
%ADD92C,0.06706*%
%ADD93C,0.25800*%
%ADD94C,0.12611*%
%ADD95R,0.06706X0.06706*%
%ADD96C,0.04900*%
%ADD97C,0.05131*%
%ADD98C,0.04343*%
%ADD99C,0.16548*%
%ADD100C,0.06800*%
%ADD101C,0.03300*%
%ADD102R,0.05328X0.06509*%
%ADD103R,0.04343X0.05918*%
%ADD104O,0.03162X0.09461*%
%ADD105O,0.09461X0.03162*%
%ADD106O,0.01981X0.07887*%
%ADD107O,0.07887X0.01981*%
%ADD108O,0.06509X0.02965*%
%ADD109O,0.02965X0.06509*%
%ADD110R,0.08674X0.05524*%
D69*
X0351468Y0337265D02*
D03*
X0358555D02*
D03*
X0364043Y0092300D02*
D03*
X0356957D02*
D03*
X0364087Y0060200D02*
D03*
X0357000D02*
D03*
X0274557Y0074200D02*
D03*
X0281643D02*
D03*
X0252957Y0082500D02*
D03*
X0260043D02*
D03*
D70*
X0362500Y0122043D02*
D03*
Y0114957D02*
D03*
X0368112Y0273065D02*
D03*
Y0265978D02*
D03*
X0338412D02*
D03*
X0338412Y0273065D02*
D03*
X0330700Y0134843D02*
D03*
Y0127757D02*
D03*
X0330100Y0116043D02*
D03*
Y0108957D02*
D03*
D71*
X0307200Y0356343D02*
D03*
Y0349257D02*
D03*
X0325800D02*
D03*
Y0356343D02*
D03*
X0330700Y0043357D02*
D03*
Y0050443D02*
D03*
X0335500Y0043357D02*
D03*
Y0050443D02*
D03*
X0315500Y0106943D02*
D03*
Y0099857D02*
D03*
X0322300Y0106943D02*
D03*
Y0099857D02*
D03*
X0045200Y0282343D02*
D03*
Y0275257D02*
D03*
X0065200Y0282343D02*
D03*
Y0275257D02*
D03*
X0070400Y0282343D02*
D03*
Y0275257D02*
D03*
X0085200Y0282343D02*
D03*
Y0275257D02*
D03*
X0124700Y0127957D02*
D03*
Y0135043D02*
D03*
X0134700Y0127957D02*
D03*
Y0135043D02*
D03*
X0167700Y0181943D02*
D03*
Y0174857D02*
D03*
X0347400Y0136456D02*
D03*
Y0143543D02*
D03*
X0342400Y0136456D02*
D03*
Y0143543D02*
D03*
X0317200Y0356343D02*
D03*
Y0349257D02*
D03*
X0297200Y0356343D02*
D03*
Y0349257D02*
D03*
X0277200Y0356343D02*
D03*
Y0349257D02*
D03*
X0322800Y0048743D02*
D03*
Y0041657D02*
D03*
D77*
X0299757Y0046500D02*
D03*
X0306843Y0046500D02*
D03*
X0299757Y0051300D02*
D03*
X0306843D02*
D03*
D91*
X0011600Y0107000D02*
D03*
Y0128800D02*
D03*
X0091769Y0360896D02*
D03*
Y0383896D02*
D03*
X0273400Y0109100D02*
D03*
X0134700Y0118254D02*
D03*
X0236851D02*
D03*
X0045200Y0289800D02*
D03*
X0277200Y0363400D02*
D03*
X0156676Y0275654D02*
D03*
X0246200Y0323400D02*
D03*
D92*
X0031600Y0107000D02*
D03*
X0041600D02*
D03*
X0051600D02*
D03*
X0061600D02*
D03*
X0071600D02*
D03*
X0081600D02*
D03*
X0091600D02*
D03*
X0021600D02*
D03*
X0031600Y0128800D02*
D03*
X0041600D02*
D03*
X0051600D02*
D03*
X0061600D02*
D03*
X0071600D02*
D03*
X0081600D02*
D03*
X0091600D02*
D03*
X0021600D02*
D03*
X0081769Y0360896D02*
D03*
X0011769D02*
D03*
X0021769D02*
D03*
X0031769D02*
D03*
X0041769D02*
D03*
X0051769D02*
D03*
X0061769D02*
D03*
X0071769D02*
D03*
X0081769Y0383896D02*
D03*
X0011769D02*
D03*
X0021769D02*
D03*
X0031769D02*
D03*
X0041769D02*
D03*
X0051769Y0383896D02*
D03*
X0061769Y0383896D02*
D03*
X0071769D02*
D03*
X0283400Y0109100D02*
D03*
X0092300Y0031595D02*
D03*
Y0041595D02*
D03*
X0124700Y0118254D02*
D03*
X0114700D02*
D03*
X0104700D02*
D03*
X0292900Y0306349D02*
D03*
Y0296349D02*
D03*
Y0286349D02*
D03*
X0226851Y0118254D02*
D03*
X0156851D02*
D03*
X0166851D02*
D03*
X0176851D02*
D03*
X0186851D02*
D03*
X0196851D02*
D03*
X0206851D02*
D03*
X0216851D02*
D03*
X0118079Y0166850D02*
D03*
Y0236850D02*
D03*
Y0226850D02*
D03*
Y0216850D02*
D03*
Y0206850D02*
D03*
Y0196850D02*
D03*
Y0186850D02*
D03*
Y0176850D02*
D03*
X0085200Y0299800D02*
D03*
Y0289800D02*
D03*
X0075200Y0299800D02*
D03*
Y0289800D02*
D03*
X0065200Y0299800D02*
D03*
X0065200Y0289800D02*
D03*
X0055200Y0299800D02*
D03*
Y0289800D02*
D03*
X0045200Y0299800D02*
D03*
X0317200Y0373400D02*
D03*
Y0363400D02*
D03*
X0307200Y0373400D02*
D03*
Y0363400D02*
D03*
X0297200Y0373400D02*
D03*
X0297200Y0363400D02*
D03*
X0287200Y0373400D02*
D03*
Y0363400D02*
D03*
X0277200Y0373400D02*
D03*
X0275279Y0216851D02*
D03*
Y0206851D02*
D03*
Y0196851D02*
D03*
Y0186851D02*
D03*
Y0176851D02*
D03*
Y0166851D02*
D03*
Y0156851D02*
D03*
Y0226851D02*
D03*
X0176676Y0275654D02*
D03*
X0186676D02*
D03*
X0196676D02*
D03*
X0206676D02*
D03*
X0216676D02*
D03*
X0226676D02*
D03*
X0236676D02*
D03*
X0166676D02*
D03*
X0042500Y0012300D02*
D03*
X0380800Y0084957D02*
D03*
Y0094957D02*
D03*
Y0104957D02*
D03*
X0256200Y0323400D02*
D03*
D93*
X0371035Y0369933D02*
D03*
Y0019933D02*
D03*
X0039933Y0049933D02*
D03*
Y0339933D02*
D03*
D94*
X0035667Y0162422D02*
D03*
Y0231359D02*
D03*
X0162341Y0035841D02*
D03*
X0231278D02*
D03*
X0357692Y0162341D02*
D03*
Y0231278D02*
D03*
X0231137Y0358213D02*
D03*
X0162200D02*
D03*
D95*
X0092300Y0021595D02*
D03*
X0292900Y0316349D02*
D03*
X0118079Y0156850D02*
D03*
X0275279Y0236851D02*
D03*
X0042500Y0022300D02*
D03*
X0380800Y0114957D02*
D03*
D96*
X0191709Y0143453D02*
D03*
X0186709D02*
D03*
X0201709D02*
D03*
X0196709D02*
D03*
X0181709D02*
D03*
X0176709D02*
D03*
X0206709D02*
D03*
X0216709D02*
D03*
X0211709D02*
D03*
X0250055Y0216883D02*
D03*
Y0211883D02*
D03*
Y0206883D02*
D03*
Y0201883D02*
D03*
Y0196883D02*
D03*
Y0191883D02*
D03*
Y0186883D02*
D03*
Y0181883D02*
D03*
Y0176883D02*
D03*
X0176709Y0250229D02*
D03*
X0181709D02*
D03*
X0186709D02*
D03*
X0191709D02*
D03*
X0196709D02*
D03*
X0201709D02*
D03*
X0206709D02*
D03*
X0211709D02*
D03*
X0216709D02*
D03*
X0143362Y0176883D02*
D03*
Y0181883D02*
D03*
Y0186883D02*
D03*
Y0191883D02*
D03*
Y0196883D02*
D03*
Y0201883D02*
D03*
Y0206883D02*
D03*
Y0211883D02*
D03*
Y0216883D02*
D03*
X0173179Y0225453D02*
D03*
X0168180D02*
D03*
X0163180D02*
D03*
X0158179D02*
D03*
X0219280Y0184153D02*
D03*
Y0189154D02*
D03*
Y0194153D02*
D03*
Y0199153D02*
D03*
Y0204153D02*
D03*
Y0209154D02*
D03*
X0167780Y0165654D02*
D03*
X0172780D02*
D03*
X0177779D02*
D03*
D97*
X0171709Y0143453D02*
D03*
X0221709D02*
D03*
X0250055Y0221883D02*
D03*
Y0171883D02*
D03*
X0171709Y0250229D02*
D03*
X0221709D02*
D03*
X0143362Y0171883D02*
D03*
Y0221883D02*
D03*
X0153180Y0225453D02*
D03*
X0178180D02*
D03*
X0219280Y0179154D02*
D03*
Y0214154D02*
D03*
X0162779Y0165654D02*
D03*
X0182780D02*
D03*
D98*
X0330673Y0020622D02*
D03*
X0313350D02*
D03*
D99*
X0245921Y0246095D02*
D03*
Y0147670D02*
D03*
X0147496D02*
D03*
Y0246095D02*
D03*
D100*
X0357000Y0066436D02*
D03*
Y0085964D02*
D03*
D101*
X0381496Y0334331D02*
D03*
Y0274331D02*
D03*
Y0244331D02*
D03*
X0388996Y0229331D02*
D03*
Y0199331D02*
D03*
Y0169331D02*
D03*
X0381496Y0154331D02*
D03*
Y0124331D02*
D03*
Y0064331D02*
D03*
X0373996Y0349331D02*
D03*
Y0259331D02*
D03*
Y0229331D02*
D03*
Y0169331D02*
D03*
Y0049331D02*
D03*
X0366496Y0034331D02*
D03*
X0351496Y0364331D02*
D03*
X0358996Y0349331D02*
D03*
Y0259331D02*
D03*
Y0139331D02*
D03*
X0343996Y0379331D02*
D03*
X0336496Y0364331D02*
D03*
X0343996Y0259331D02*
D03*
X0336496Y0184331D02*
D03*
Y0154331D02*
D03*
X0321496Y0274331D02*
D03*
Y0214331D02*
D03*
Y0184331D02*
D03*
X0328996Y0139331D02*
D03*
X0313996Y0289331D02*
D03*
X0306496Y0274331D02*
D03*
X0313996Y0259331D02*
D03*
Y0229331D02*
D03*
X0306496Y0214331D02*
D03*
X0313996Y0199331D02*
D03*
X0306496Y0184331D02*
D03*
X0313996Y0169331D02*
D03*
X0298996Y0289331D02*
D03*
X0291496Y0274331D02*
D03*
X0298996Y0259331D02*
D03*
X0283996Y0379331D02*
D03*
Y0349331D02*
D03*
Y0319331D02*
D03*
X0276496Y0304331D02*
D03*
X0283996Y0289331D02*
D03*
X0276496Y0274331D02*
D03*
X0283996Y0259331D02*
D03*
Y0139331D02*
D03*
X0268996Y0379331D02*
D03*
X0261496Y0364331D02*
D03*
X0268996Y0349331D02*
D03*
X0261496Y0334331D02*
D03*
X0268996Y0319331D02*
D03*
X0261496Y0304331D02*
D03*
X0268996Y0259331D02*
D03*
X0261496Y0154331D02*
D03*
X0268996Y0139331D02*
D03*
X0261496Y0064331D02*
D03*
X0253996Y0379331D02*
D03*
X0246496Y0364331D02*
D03*
X0253996Y0349331D02*
D03*
Y0289331D02*
D03*
Y0259331D02*
D03*
Y0229331D02*
D03*
Y0169331D02*
D03*
Y0139331D02*
D03*
Y0109331D02*
D03*
Y0049331D02*
D03*
X0231496Y0304331D02*
D03*
Y0184331D02*
D03*
X0238996Y0139331D02*
D03*
Y0079331D02*
D03*
X0223996Y0379331D02*
D03*
X0216496Y0364331D02*
D03*
X0223996Y0349331D02*
D03*
Y0319331D02*
D03*
X0216496Y0304331D02*
D03*
X0223996Y0169331D02*
D03*
Y0139331D02*
D03*
Y0079331D02*
D03*
Y0019331D02*
D03*
X0201496Y0334331D02*
D03*
X0208996Y0319331D02*
D03*
X0201496Y0304331D02*
D03*
X0208996Y0229331D02*
D03*
X0201496Y0214331D02*
D03*
X0208996Y0199331D02*
D03*
Y0169331D02*
D03*
Y0079331D02*
D03*
X0193996Y0319331D02*
D03*
X0186496Y0304331D02*
D03*
Y0214331D02*
D03*
Y0184331D02*
D03*
X0193996Y0079331D02*
D03*
X0171496Y0364331D02*
D03*
Y0334331D02*
D03*
X0178996Y0319331D02*
D03*
X0171496Y0304331D02*
D03*
Y0214331D02*
D03*
X0178996Y0199331D02*
D03*
Y0079331D02*
D03*
X0171496Y0034331D02*
D03*
X0163996Y0379331D02*
D03*
Y0349331D02*
D03*
Y0319331D02*
D03*
X0156496Y0304331D02*
D03*
X0163996Y0259331D02*
D03*
X0156496Y0214331D02*
D03*
X0163996Y0199331D02*
D03*
X0156496Y0184331D02*
D03*
Y0124331D02*
D03*
X0163996Y0049331D02*
D03*
X0148996Y0379331D02*
D03*
X0141496Y0364331D02*
D03*
Y0304331D02*
D03*
Y0274331D02*
D03*
X0148996Y0199331D02*
D03*
Y0169331D02*
D03*
X0141496Y0064331D02*
D03*
Y0034331D02*
D03*
X0148996Y0019331D02*
D03*
X0133996Y0379331D02*
D03*
X0126496Y0364331D02*
D03*
X0133996Y0349331D02*
D03*
X0126496Y0304331D02*
D03*
X0133996Y0289331D02*
D03*
X0126496Y0274331D02*
D03*
X0133996Y0259331D02*
D03*
Y0079331D02*
D03*
X0126496Y0064331D02*
D03*
X0133996Y0049331D02*
D03*
Y0019331D02*
D03*
X0118996Y0379331D02*
D03*
X0111496Y0364331D02*
D03*
X0118996Y0349331D02*
D03*
X0111496Y0304331D02*
D03*
X0118996Y0289331D02*
D03*
X0111496Y0274331D02*
D03*
X0118996Y0259331D02*
D03*
X0111496Y0124331D02*
D03*
X0118996Y0079331D02*
D03*
Y0019331D02*
D03*
X0103996Y0379331D02*
D03*
Y0349331D02*
D03*
Y0319331D02*
D03*
X0096496Y0304331D02*
D03*
X0103996Y0289331D02*
D03*
X0096496Y0274331D02*
D03*
X0103996Y0139331D02*
D03*
X0096496Y0124331D02*
D03*
Y0094331D02*
D03*
Y0064331D02*
D03*
X0103996Y0019331D02*
D03*
X0088996Y0349331D02*
D03*
Y0319331D02*
D03*
X0081496Y0304331D02*
D03*
X0088996Y0229331D02*
D03*
X0081496Y0214331D02*
D03*
X0088996Y0199331D02*
D03*
X0081496Y0184331D02*
D03*
X0088996Y0169331D02*
D03*
X0081496Y0154331D02*
D03*
X0088996Y0139331D02*
D03*
X0081496Y0094331D02*
D03*
X0088996Y0079331D02*
D03*
Y0049331D02*
D03*
X0081496Y0034331D02*
D03*
X0066496Y0364331D02*
D03*
X0073996Y0319331D02*
D03*
Y0229331D02*
D03*
Y0199331D02*
D03*
Y0169331D02*
D03*
Y0139331D02*
D03*
X0066496Y0124331D02*
D03*
Y0094331D02*
D03*
X0073996Y0079331D02*
D03*
X0066496Y0064331D02*
D03*
X0073996Y0049331D02*
D03*
X0058996Y0349331D02*
D03*
Y0319331D02*
D03*
X0051496Y0274331D02*
D03*
Y0214331D02*
D03*
Y0154331D02*
D03*
X0058996Y0139331D02*
D03*
X0051496Y0094331D02*
D03*
X0058996Y0079331D02*
D03*
X0051496Y0064331D02*
D03*
Y0004331D02*
D03*
X0036496Y0364331D02*
D03*
X0043996Y0319331D02*
D03*
Y0259331D02*
D03*
X0036496Y0244331D02*
D03*
X0043996Y0229331D02*
D03*
Y0139331D02*
D03*
X0036496Y0124331D02*
D03*
Y0094331D02*
D03*
X0043996Y0079331D02*
D03*
X0036496Y0034331D02*
D03*
Y0004331D02*
D03*
X0021496Y0334331D02*
D03*
X0028996Y0319331D02*
D03*
Y0289331D02*
D03*
Y0259331D02*
D03*
Y0169331D02*
D03*
Y0139331D02*
D03*
X0021496Y0094331D02*
D03*
X0028996Y0079331D02*
D03*
X0021496Y0034331D02*
D03*
X0028996Y0019331D02*
D03*
X0021496Y0004331D02*
D03*
X0013996Y0349331D02*
D03*
Y0319331D02*
D03*
Y0289331D02*
D03*
Y0259331D02*
D03*
Y0229331D02*
D03*
Y0169331D02*
D03*
X0006496Y0064331D02*
D03*
X0013996Y0049331D02*
D03*
X0006496Y0034331D02*
D03*
X0013996Y0019331D02*
D03*
X0006496Y0004331D02*
D03*
X0291496Y0069331D02*
D03*
X0296496Y0019331D02*
D03*
Y0039331D02*
D03*
X0301496Y0089331D02*
D03*
X0296496Y0099331D02*
D03*
X0311496Y0029331D02*
D03*
X0306496Y0099331D02*
D03*
X0326496Y0019331D02*
D03*
X0331496Y0029331D02*
D03*
X0326496Y0039331D02*
D03*
Y0079331D02*
D03*
X0336496Y0039331D02*
D03*
X0341496Y0089331D02*
D03*
X0346496Y0019331D02*
D03*
X0351496Y0049331D02*
D03*
X0346496Y0059331D02*
D03*
Y0079331D02*
D03*
X0351496Y0089331D02*
D03*
X0361496Y0069331D02*
D03*
X0356496Y0079331D02*
D03*
X0366496D02*
D03*
X0374200Y0004000D02*
D03*
X0387000Y0006300D02*
D03*
X0388600Y0026000D02*
D03*
X0388400Y0363000D02*
D03*
X0387600Y0385600D02*
D03*
X0366700Y0388200D02*
D03*
X0307200Y0308500D02*
D03*
X0321800Y0308800D02*
D03*
X0140500Y0134600D02*
D03*
X0140600Y0125700D02*
D03*
X0119600Y0125900D02*
D03*
X0130100Y0125400D02*
D03*
X0130000Y0139600D02*
D03*
X0119600Y0138400D02*
D03*
D102*
X0282831Y0064304D02*
D03*
X0274169D02*
D03*
D103*
Y0057100D02*
D03*
X0282831D02*
D03*
D104*
X0352300Y0108851D02*
D03*
X0347300D02*
D03*
X0342300D02*
D03*
X0337300D02*
D03*
X0352300Y0127749D02*
D03*
X0347300D02*
D03*
X0342300D02*
D03*
X0337300D02*
D03*
D105*
X0268651Y0082500D02*
D03*
Y0087500D02*
D03*
Y0092500D02*
D03*
X0287549Y0087500D02*
D03*
Y0082500D02*
D03*
X0268651Y0097500D02*
D03*
X0287549Y0092500D02*
D03*
Y0097500D02*
D03*
D106*
X0333327Y0060055D02*
D03*
X0331358D02*
D03*
X0329390D02*
D03*
X0327421D02*
D03*
X0325453D02*
D03*
X0323484D02*
D03*
X0321516D02*
D03*
X0319547D02*
D03*
X0317579D02*
D03*
X0315610D02*
D03*
X0313642D02*
D03*
X0311673D02*
D03*
Y0091945D02*
D03*
X0313642D02*
D03*
X0315610D02*
D03*
X0317579D02*
D03*
X0319547D02*
D03*
X0321516D02*
D03*
X0323484D02*
D03*
X0325453D02*
D03*
X0327421D02*
D03*
X0329390D02*
D03*
X0331358D02*
D03*
X0333327D02*
D03*
D107*
X0306555Y0065173D02*
D03*
Y0067142D02*
D03*
Y0069110D02*
D03*
Y0071079D02*
D03*
Y0073047D02*
D03*
Y0075016D02*
D03*
Y0076984D02*
D03*
Y0078953D02*
D03*
Y0080921D02*
D03*
Y0082890D02*
D03*
Y0084858D02*
D03*
Y0086827D02*
D03*
X0338445D02*
D03*
Y0084858D02*
D03*
Y0082890D02*
D03*
Y0080921D02*
D03*
Y0078953D02*
D03*
Y0076984D02*
D03*
Y0075016D02*
D03*
Y0073047D02*
D03*
Y0071079D02*
D03*
Y0069110D02*
D03*
Y0067142D02*
D03*
Y0065173D02*
D03*
D108*
X0378679Y0291152D02*
D03*
X0378679Y0294302D02*
D03*
Y0297451D02*
D03*
Y0300601D02*
D03*
X0378679Y0303750D02*
D03*
X0378679Y0306900D02*
D03*
X0378679Y0310050D02*
D03*
Y0313199D02*
D03*
X0378679Y0316349D02*
D03*
Y0319498D02*
D03*
Y0322648D02*
D03*
X0334584D02*
D03*
Y0319498D02*
D03*
Y0316349D02*
D03*
Y0313199D02*
D03*
X0334584Y0310050D02*
D03*
Y0306900D02*
D03*
X0334584Y0303750D02*
D03*
Y0300601D02*
D03*
Y0297451D02*
D03*
Y0294302D02*
D03*
Y0291152D02*
D03*
D109*
X0372379Y0328947D02*
D03*
X0369230Y0328947D02*
D03*
X0366080D02*
D03*
X0362931D02*
D03*
X0359781D02*
D03*
X0356631D02*
D03*
X0353482D02*
D03*
X0350332Y0328947D02*
D03*
X0347183Y0328947D02*
D03*
X0344033D02*
D03*
X0340883D02*
D03*
Y0284853D02*
D03*
X0344033D02*
D03*
X0347183D02*
D03*
X0350332D02*
D03*
X0353482D02*
D03*
X0356631D02*
D03*
X0359781D02*
D03*
X0362931D02*
D03*
X0366080D02*
D03*
X0369230D02*
D03*
X0372379D02*
D03*
D110*
X0346128Y0265634D02*
D03*
X0360695Y0274295D02*
D03*
X0360695Y0265634D02*
D03*
X0346128Y0274295D02*
D03*
M02*
