M48
;Layer_Color=9474304
;FILE_FORMAT=2:5
INCH
;TYPE=PLATED
T3F00S00C0.00787
T4F00S00C0.02000
T5F00S00C0.02953
T6F00S00C0.03543
T7F00S00C0.07087
T8F00S00C0.08661
T9F00S00C0.12598
;TYPE=NON_PLATED
T1F00S00C0.03543
T2F00S00C0.04331
%
T03
X0006496Y0004331
X0021496
X0013996Y0019331
X0021496Y0034331
X0006496
X0013996Y0049331
X0006496Y0064331
X0028996Y0079331
X0043996
X0058996
X0073996
X0088996
X0096496Y0064331
X0088996Y0049331
X0073996
X0081496Y0034331
X0103996Y0019331
X0118996
X0133996
X0148996
X0141496Y0034331
X0133996Y0049331
X0141496Y0064331
X0126496
X0133996Y0079331
X0118996
X0178996
X0163996Y0049331
X0171496Y0034331
X0066496Y0064331
X0051496
X0036496Y0034331
X0028996Y0019331
X0036496Y0004331
X0051496
X0227800Y0005600
X0223996Y0019331
X0249300Y0018400
X0268500Y0019200
X0267600Y0034200
X0283200Y0021900
X0288000
X0296496Y0019331
Y0039331
X0311496Y0029331
X0331496
X0326496Y0019331
Y0039331
X0336496
X0322800Y0053200
X0318100Y0053000
X0317579Y0065173
X0323484
X0329390
X0326496Y0079331
X0314200Y0069700
X0306400Y0061200
X0291496Y0069331
X0288900Y0077600
X0293800Y0082500
X0261496Y0064331
X0253996Y0049331
X0238996Y0079331
X0223996
X0208996
X0193996
X0346496
X0356496
X0366496
X0361496Y0069331
X0344400Y0069100
Y0065600
X0346496Y0059331
X0351496Y0049331
X0340000Y0047200
X0346496Y0019331
X0366496Y0034331
X0373996Y0049331
X0381496Y0064331
X0388600Y0026000
X0387000Y0006300
X0374200Y0004000
X0351496Y0089331
X0341496
X0338300Y0090900
X0345500Y0100400
X0349000Y0097900
X0355300Y0127749
X0358996Y0139331
X0381496Y0154331
X0388996Y0169331
X0373996
X0388996Y0199331
Y0229331
X0373996
X0381496Y0124331
X0328996Y0139331
X0336496Y0154331
Y0184331
X0321496
X0306496
X0313996Y0199331
X0321496Y0214331
X0306496
X0313996Y0229331
Y0169331
X0283996Y0139331
X0268996
X0253996
X0238996
X0223996
Y0169331
X0208996
Y0199331
X0201496Y0214331
X0186496
Y0184331
X0231496
X0253996Y0169331
X0261496Y0154331
X0253996Y0109331
X0262700Y0097500
X0296496Y0099331
X0306496
X0311100Y0098066
X0315500Y0110500
X0322300
X0323484Y0086800
X0329390
X0301496Y0089331
X0253996Y0229331
X0208996
X0171496Y0214331
X0156496
X0163996Y0199331
X0178996
X0148996
X0156496Y0184331
X0148996Y0169331
X0140500Y0134600
X0140600Y0125700
X0130100Y0125400
X0119600Y0125900
X0111496Y0124331
X0096496
X0103996Y0139331
X0088996
X0073996
X0058996
X0043996
X0028996
X0036496Y0124331
X0066496
Y0094331
X0081496
X0096496
X0051496
X0036496
X0051496Y0154331
X0081496
X0088996Y0169331
X0073996
X0081496Y0184331
X0088996Y0199331
X0073996
X0081496Y0214331
X0088996Y0229331
X0073996
X0043996
X0051496Y0214331
X0028996Y0169331
X0119600Y0138400
X0130000Y0139600
X0133600Y0107000
X0136400
X0139200
X0142000
X0156496Y0124331
X0021496Y0094331
X0013996Y0169331
Y0229331
Y0259331
Y0289331
Y0319331
X0021496Y0334331
X0013996Y0349331
X0036496Y0364331
X0066496
X0058996Y0349331
X0088996
X0103996
X0118996
X0133996
X0141496Y0364331
X0126496
X0111496
X0118996Y0379331
X0133996
X0148996
X0163996
X0171496Y0364331
X0163996Y0349331
X0171496Y0334331
X0178996Y0319331
X0163996
X0171496Y0304331
X0156496
X0141496
X0126496
X0111496
X0096496
X0081496
X0088996Y0319331
X0103996
Y0289331
X0118996
X0133996
X0141496Y0274331
X0126496
X0111496
X0096496
X0118996Y0259331
X0133996
X0163996
X0043996
X0028996
X0036496Y0244331
X0051496Y0274331
X0028996Y0289331
Y0319331
X0043996
X0058996
X0073996
X0103996Y0379331
X0223996
X0216496Y0364331
X0223996Y0349331
X0253996
X0268996
X0277200Y0345800
X0283996Y0349331
X0297200Y0345800
X0307200
X0317200
X0325800
X0336496Y0364331
X0329900Y0316349
Y0313199
X0321800Y0308800
X0307200Y0308500
X0313996Y0289331
X0298996
X0283996
X0291496Y0274331
X0306496
X0321496
X0332900Y0265300
X0313996Y0259331
X0298996
X0283996
X0268996
X0253996
X0252100Y0276000
X0254525Y0278425
X0256750Y0280850
X0253996Y0289331
X0261496Y0304331
X0276496
X0283996Y0319331
X0268996
X0261496Y0334331
Y0364331
X0246496
X0253996Y0379331
X0268996
X0283996
X0276496Y0274331
X0231496Y0304331
X0216496
X0201496
X0186496
X0193996Y0319331
X0208996
X0223996
X0201496Y0334331
X0350900Y0323500
X0355912Y0323820
X0360812
X0350100Y0310100
X0351800Y0299396
X0341800
X0339112Y0306900
X0355601Y0289980
X0360812Y0289980
X0362931Y0280200
X0381496Y0274331
X0373996Y0259331
X0358996
X0343996
X0381496Y0244331
X0374300Y0306936
Y0310085
X0381496Y0334331
X0373996Y0349331
X0358996
X0351496Y0364331
X0343996Y0379331
X0366700Y0388200
X0387600Y0385600
X0388400Y0363000
T04
X0181709Y0143453
X0186709
X0191709
X0196709
X0201709
X0206709
X0211709
X0216709
X0219280Y0184153
Y0189154
Y0194153
Y0199153
Y0204153
Y0209154
X0250055Y0206883
Y0211883
Y0216883
Y0201883
Y0196883
Y0191883
Y0186883
Y0181883
Y0176883
X0177779Y0165654
X0172780
X0167780
X0176709Y0143453
X0143362Y0176883
Y0181883
Y0186883
Y0191883
Y0196883
Y0201883
Y0206883
Y0211883
Y0216883
X0158179Y0225453
X0163180
X0168180
X0173179
X0176709Y0250229
X0181709
X0186709
X0191709
X0196709
X0201709
X0206709
X0211709
X0216709
T05
X0357000Y0066436
Y0085964
T06
X0042500Y0012300
Y0022300
X0092300Y0021595
Y0031595
Y0041595
X0380800Y0084957
Y0094957
Y0104957
Y0114957
X0283400Y0109100
X0273400
X0236851Y0118254
X0226851
X0216851
X0206851
X0196851
X0186851
X0275279Y0156851
Y0166851
Y0176851
Y0186851
Y0196851
Y0206851
Y0216851
Y0226851
Y0236851
X0118079Y0236850
Y0226850
Y0216850
Y0206850
Y0196850
Y0186850
Y0176850
Y0166850
Y0156850
X0114700Y0118254
X0104700
X0124700
X0134700
X0156851
X0166851
X0176851
X0091600Y0128800
X0081600
X0071600
X0061600
X0051600
X0041600
X0031600
Y0107000
X0041600
X0051600
X0061600
X0071600
X0081600
X0091600
X0021600
X0011600
Y0128800
X0021600
X0021769Y0360896
X0011769
Y0383896
X0021769
X0031769
X0041769
X0051769Y0383896
X0061769Y0383896
X0071769
X0081769
X0091769
Y0360896
X0081769
X0071769
X0061769
X0051769
X0041769
X0031769
X0045200Y0299800
X0055200
X0065200
X0075200
X0085200
Y0289800
X0075200
X0065200
X0055200
X0045200
X0156676Y0275654
X0166676
X0176676
X0186676
X0196676
X0206676
X0216676
X0226676
X0236676
X0246200Y0323400
X0256200
X0292900Y0316349
Y0306349
Y0296349
Y0286349
X0297200Y0363400
X0307200
X0317200
Y0373400
X0307200Y0373400
X0297200
X0287200Y0373400
X0277200
Y0363400
X0287200
T07
X0162341Y0035841
X0231278
X0357692Y0162341
Y0231278
X0035667Y0231359
Y0162422
X0162200Y0358213
X0231137
T08
X0245921Y0147670
X0147496
Y0246095
X0245921
T09
X0039933Y0049933
X0371035Y0019933
X0039933Y0339933
X0371035Y0369933
T01
X0313350Y0020622
X0330673
T02
X0182780Y0165654
X0219280Y0179154
Y0214154
X0250055Y0221883
Y0171883
X0221709Y0143453
X0171709
X0162779Y0165654
X0143362Y0171883
Y0221883
X0153180Y0225453
X0178180
X0171709Y0250229
X0221709
M30
