M48
;Layer_Color=9474304
;FILE_FORMAT=2:5
INCH
;TYPE=PLATED
T2F00S00C0.01968
T3F00S00C0.02362
;TYPE=NON_PLATED
T1F00S00C0.03150
%
T02
X0422500Y0185000
Y0190000
Y0195000
Y0200000
Y0210000
Y0215000
X0442500
Y0210000
Y0200000
Y0195000
Y0190000
Y0185000
T03
X0430000Y0185000
X0435000
Y0190000
X0430000
Y0195000
Y0200000
X0435000
Y0195000
Y0210000
Y0215000
X0430000
Y0210000
T01
X0412500Y0180000
X0417500
Y0205000
X0412500
Y0220000
X0417500
X0447500
X0452500
Y0205000
X0447500
Y0180000
X0452500
M30
