M48
;Layer_Color=9474304
;FILE_FORMAT=2:5
INCH
;TYPE=NON_PLATED
T1F00S00C0.03937
%
T01
X0535579Y0176736
X0545579
Y0186736
Y0196736
Y0206736
Y0216736
Y0226736
X0535579
Y0216736
Y0206736
Y0196736
Y0186736
X0555579
Y0176736
X0565579
Y0186736
Y0196736
Y0206736
Y0216736
Y0226736
X0555579
Y0216736
Y0206736
Y0196736
Y0236736
X0545579
Y0246736
Y0256736
Y0266736
Y0276736
X0535579
Y0266736
Y0256736
Y0246736
Y0236736
X0555579Y0246736
Y0256736
Y0266736
Y0276736
X0565579
Y0266736
Y0256736
Y0246736
Y0236736
Y0286736
Y0296736
Y0306736
X0555579
X0545579
X0535579
Y0296736
X0545579
Y0286736
X0535579
X0555579
Y0296736
Y0316736
X0545579
Y0326736
X0535579
Y0316736
Y0336736
Y0346736
Y0356736
Y0366736
Y0376736
X0545579
Y0366736
Y0356736
Y0346736
Y0336736
X0555579
Y0326736
X0565579
Y0316736
Y0336736
Y0346736
Y0356736
Y0366736
Y0376736
X0555579
Y0366736
Y0356736
Y0346736
Y0386736
X0545579
X0535579
Y0396736
X0545579
Y0406736
X0535579
Y0416736
X0545579
Y0426736
X0535579
X0555579
Y0416736
Y0406736
Y0396736
X0565579
Y0386736
Y0406736
Y0416736
Y0426736
M30
