G04 Layer_Physical_Order=2*
G04 Layer_Color=16711680*
%FSAX23Y23*%
%MOIN*%
G70*
G01*
G75*
%ADD10R,0.024X0.020*%
%ADD11R,0.037X0.039*%
%ADD12R,0.024X0.048*%
%ADD13R,0.020X0.024*%
%ADD14R,0.045X0.071*%
%ADD15R,0.028X0.070*%
%ADD16R,0.035X0.035*%
%ADD17R,0.064X0.091*%
%ADD18R,0.106X0.045*%
%ADD19C,0.015*%
%ADD20C,0.010*%
%ADD21C,0.020*%
%ADD22C,0.040*%
%ADD23C,0.030*%
%ADD24C,0.012*%
%ADD25C,0.006*%
%ADD26C,0.008*%
%ADD27C,0.250*%
%ADD28R,0.075X0.098*%
%ADD29O,0.075X0.098*%
%ADD30C,0.059*%
%ADD31R,0.059X0.059*%
G36*
X04840Y03020D02*
X04950D01*
Y02900D01*
X05450D01*
Y01892D01*
X05445Y01892D01*
X05444Y01897D01*
X05436Y01916D01*
X05425Y01935D01*
X05411Y01951D01*
X05395Y01965D01*
X05376Y01976D01*
X05357Y01984D01*
X05336Y01989D01*
X05320Y01990D01*
Y01855D01*
Y01720D01*
X05336Y01721D01*
X05357Y01726D01*
X05376Y01734D01*
X05395Y01745D01*
X05411Y01759D01*
X05425Y01775D01*
X05436Y01794D01*
X05444Y01813D01*
X05445Y01818D01*
X05450Y01818D01*
Y01700D01*
X04400D01*
Y02895D01*
X04405Y02896D01*
X04407Y02891D01*
X04418Y02873D01*
X04432Y02857D01*
X04448Y02843D01*
X04466Y02832D01*
X04486Y02824D01*
X04506Y02819D01*
X04523Y02818D01*
Y02953D01*
Y03088D01*
X04506Y03087D01*
X04486Y03082D01*
X04466Y03073D01*
X04448Y03062D01*
X04432Y03049D01*
X04418Y03032D01*
X04407Y03014D01*
X04405Y03009D01*
X04400Y03010D01*
Y03100D01*
X04840D01*
Y03020D01*
D02*
G37*
%LPC*%
G36*
X04533Y03088D02*
Y02958D01*
X04663D01*
X04661Y02974D01*
X04656Y02995D01*
X04648Y03014D01*
X04637Y03032D01*
X04623Y03049D01*
X04607Y03062D01*
X04589Y03073D01*
X04569Y03082D01*
X04549Y03087D01*
X04533Y03088D01*
D02*
G37*
G36*
X04663Y02948D02*
X04533D01*
Y02818D01*
X04549Y02819D01*
X04569Y02824D01*
X04589Y02832D01*
X04607Y02843D01*
X04623Y02857D01*
X04637Y02873D01*
X04648Y02891D01*
X04656Y02911D01*
X04661Y02932D01*
X04663Y02948D01*
D02*
G37*
G36*
X05315Y02692D02*
X05257D01*
Y02664D01*
X05315D01*
Y02692D01*
D02*
G37*
G36*
X05095Y02689D02*
X05053D01*
Y02635D01*
X05095D01*
Y02689D01*
D02*
G37*
G36*
X05315Y02654D02*
X05257D01*
Y02626D01*
X05315D01*
Y02654D01*
D02*
G37*
G36*
X05095Y02625D02*
X05053D01*
Y02571D01*
X05095D01*
Y02625D01*
D02*
G37*
G36*
X04737Y02599D02*
X04695D01*
Y02545D01*
X04737D01*
Y02599D01*
D02*
G37*
G36*
Y02535D02*
X04695D01*
Y02481D01*
X04737D01*
Y02535D01*
D02*
G37*
G36*
X05095Y02489D02*
X05053D01*
Y02435D01*
X05095D01*
Y02489D01*
D02*
G37*
G36*
X05383Y02692D02*
X05325D01*
Y02659D01*
Y02626D01*
X05381D01*
Y02603D01*
X05381Y02602D01*
Y02598D01*
X05381Y02597D01*
Y02574D01*
X05257D01*
Y02508D01*
X05290D01*
Y02502D01*
X05257D01*
Y02436D01*
X05381D01*
Y02413D01*
X05381Y02412D01*
Y02408D01*
X05381Y02407D01*
Y02384D01*
X05257D01*
Y02376D01*
X05250D01*
X05237Y02389D01*
X05241Y02394D01*
X05246Y02406D01*
X05248Y02418D01*
Y02442D01*
X05246Y02454D01*
X05241Y02466D01*
X05234Y02476D01*
X05230Y02478D01*
Y02582D01*
X05234Y02584D01*
X05241Y02594D01*
X05246Y02606D01*
X05248Y02618D01*
Y02642D01*
X05246Y02654D01*
X05241Y02666D01*
X05234Y02676D01*
X05224Y02683D01*
X05212Y02688D01*
X05200Y02690D01*
X05188Y02688D01*
X05176Y02683D01*
X05166Y02676D01*
X05159Y02666D01*
X05154Y02654D01*
X05152Y02643D01*
X05147Y02644D01*
Y02689D01*
X05105D01*
Y02630D01*
Y02571D01*
X05147D01*
Y02616D01*
X05152Y02617D01*
X05154Y02606D01*
X05159Y02594D01*
X05166Y02584D01*
X05170Y02582D01*
Y02478D01*
X05166Y02476D01*
X05159Y02466D01*
X05154Y02454D01*
X05152Y02443D01*
X05147Y02444D01*
Y02489D01*
X05105D01*
Y02430D01*
Y02371D01*
X05143D01*
X05145Y02371D01*
X05147Y02366D01*
X05123Y02342D01*
X05012D01*
Y02380D01*
Y02449D01*
X05010Y02457D01*
X05009Y02459D01*
Y02501D01*
X05005D01*
X05003Y02505D01*
X05002Y02512D01*
X04998Y02517D01*
X04998Y02517D01*
X04983Y02533D01*
X04977Y02536D01*
X04970Y02538D01*
X04950D01*
X04950Y02538D01*
X04944Y02536D01*
X04938Y02533D01*
X04933Y02532D01*
X04933Y02533D01*
X04927Y02536D01*
X04920Y02538D01*
X04900D01*
X04893Y02536D01*
X04887Y02533D01*
X04887Y02533D01*
X04873Y02518D01*
X04869Y02512D01*
X04867Y02505D01*
Y02501D01*
X04861D01*
Y02501D01*
X04859D01*
Y02501D01*
X04811D01*
X04810Y02505D01*
Y02510D01*
X04809Y02518D01*
X04806Y02525D01*
X04801Y02531D01*
X04800Y02532D01*
Y02562D01*
X04813Y02574D01*
X04827D01*
X04836Y02566D01*
X04836Y02566D01*
X04842Y02561D01*
X04850Y02560D01*
X04970D01*
X04978Y02561D01*
X04984Y02566D01*
X05000Y02581D01*
X05004Y02587D01*
X05006Y02595D01*
X05009Y02599D01*
X05009D01*
Y02689D01*
X04961D01*
Y02689D01*
X04959D01*
Y02689D01*
X04911D01*
Y02689D01*
X04909D01*
Y02689D01*
X04861D01*
Y02689D01*
X04859D01*
Y02689D01*
X04811D01*
Y02615D01*
X04805D01*
X04797Y02614D01*
X04790Y02609D01*
X04766Y02584D01*
X04761Y02578D01*
X04760Y02570D01*
Y02532D01*
X04759Y02531D01*
X04754Y02525D01*
X04751Y02518D01*
X04750Y02510D01*
Y02283D01*
X04747Y02280D01*
X04742D01*
X04737Y02281D01*
X04737Y02285D01*
Y02335D01*
X04690D01*
Y02340D01*
X04685D01*
Y02399D01*
X04643D01*
Y02354D01*
X04638Y02353D01*
X04636Y02364D01*
X04631Y02376D01*
X04624Y02386D01*
X04620Y02388D01*
Y02492D01*
X04624Y02494D01*
X04631Y02504D01*
X04636Y02516D01*
X04638Y02527D01*
X04643Y02526D01*
Y02481D01*
X04685D01*
Y02540D01*
Y02599D01*
X04643D01*
Y02554D01*
X04638Y02553D01*
X04636Y02564D01*
X04631Y02576D01*
X04624Y02586D01*
X04614Y02593D01*
X04602Y02598D01*
X04594Y02599D01*
X04594Y02604D01*
X04626D01*
Y02663D01*
X04553D01*
Y02604D01*
X04586D01*
X04586Y02599D01*
X04578Y02598D01*
X04566Y02593D01*
X04556Y02586D01*
X04549Y02576D01*
X04544Y02564D01*
X04542Y02552D01*
Y02528D01*
X04544Y02516D01*
X04549Y02504D01*
X04556Y02494D01*
X04560Y02492D01*
Y02388D01*
X04556Y02386D01*
X04549Y02376D01*
X04544Y02364D01*
X04542Y02352D01*
Y02328D01*
X04544Y02316D01*
X04549Y02304D01*
X04556Y02294D01*
X04560Y02292D01*
Y02280D01*
X04561Y02272D01*
X04564Y02265D01*
X04569Y02259D01*
X04572Y02255D01*
Y02037D01*
X04467Y01933D01*
X04464Y01927D01*
X04462Y01920D01*
Y01860D01*
X04464Y01853D01*
X04466Y01850D01*
X04465Y01848D01*
X04463Y01845D01*
X04459Y01846D01*
Y01811D01*
X04493D01*
X04493Y01815D01*
X04497Y01817D01*
X04527Y01787D01*
X04533Y01784D01*
X04540Y01782D01*
X04620D01*
X04627Y01784D01*
X04633Y01787D01*
X04667Y01822D01*
X04740D01*
X04747Y01824D01*
X04748Y01824D01*
X04752Y01821D01*
X04750Y01817D01*
X04749Y01811D01*
X04784D01*
Y01846D01*
X04778Y01845D01*
X04777Y01844D01*
X04774Y01849D01*
X04881Y01956D01*
X04885Y01962D01*
X04887Y01969D01*
X04887Y01969D01*
Y02181D01*
X04890Y02184D01*
X04933D01*
X04934Y02183D01*
X04937Y02177D01*
X04969Y02146D01*
X04962Y02139D01*
X04958Y02133D01*
X04957Y02126D01*
Y02120D01*
X04946D01*
Y02062D01*
X04946Y02060D01*
X04946D01*
X04947Y02058D01*
X04947Y02058D01*
Y02047D01*
X04943Y02046D01*
X04937Y02043D01*
X04922Y02028D01*
X04919Y02022D01*
X04917Y02015D01*
Y01985D01*
X04902D01*
Y01895D01*
X04968D01*
Y01985D01*
X04953D01*
Y02002D01*
X05002D01*
Y02058D01*
X05002Y02058D01*
X05003Y02060D01*
X05003D01*
X05003Y02062D01*
Y02120D01*
X05000D01*
X04998Y02124D01*
X05002Y02128D01*
X05018D01*
Y02128D01*
X05020D01*
X05025Y02125D01*
Y02120D01*
X05017D01*
Y02062D01*
X05017Y02060D01*
X05018Y02056D01*
Y02035D01*
X05073D01*
Y02056D01*
X05074Y02060D01*
X05074Y02062D01*
Y02070D01*
X05084D01*
Y02034D01*
X05108D01*
Y01983D01*
X05102Y01977D01*
X05098Y01979D01*
Y01985D01*
X05032D01*
Y01895D01*
X05098D01*
Y01924D01*
X05103Y01927D01*
X05138Y01963D01*
X05138Y01963D01*
X05142Y01969D01*
X05143Y01975D01*
X05143Y01975D01*
Y02034D01*
X05168D01*
Y02145D01*
X05084D01*
Y02110D01*
X05074D01*
Y02120D01*
X05066D01*
Y02146D01*
X05064Y02154D01*
X05061Y02158D01*
Y02172D01*
X05060D01*
Y02200D01*
X05060Y02200D01*
X05059Y02208D01*
X05054Y02214D01*
X05036Y02233D01*
X05029Y02237D01*
X05022Y02239D01*
X05010D01*
Y02252D01*
X05005Y02253D01*
X05004Y02259D01*
X05000Y02265D01*
X05000Y02265D01*
X04983Y02283D01*
X04983Y02283D01*
X04984Y02288D01*
X05010D01*
Y02301D01*
X05132D01*
X05139Y02303D01*
X05146Y02307D01*
X05170Y02331D01*
X05175Y02329D01*
Y02270D01*
X05176Y02265D01*
X05175Y02260D01*
X05176Y02250D01*
X05182Y02242D01*
X05266Y02158D01*
Y02145D01*
X05250D01*
Y02034D01*
X05334D01*
Y02145D01*
X05317D01*
Y02168D01*
X05315Y02178D01*
X05310Y02186D01*
X05237Y02259D01*
X05238Y02264D01*
X05326D01*
Y02318D01*
X05383D01*
Y02333D01*
X05391D01*
X05398Y02334D01*
X05404Y02338D01*
X05416Y02350D01*
X05419Y02356D01*
X05421Y02363D01*
Y02369D01*
X05425D01*
Y02407D01*
X05425Y02408D01*
Y02412D01*
X05425Y02413D01*
Y02451D01*
X05421D01*
Y02457D01*
X05419Y02464D01*
X05416Y02470D01*
X05404Y02482D01*
X05398Y02486D01*
X05391Y02487D01*
X05383D01*
Y02502D01*
X05350D01*
Y02508D01*
X05383D01*
Y02523D01*
X05391D01*
X05398Y02524D01*
X05404Y02528D01*
X05413Y02537D01*
X05413Y02537D01*
X05416Y02543D01*
X05418Y02550D01*
Y02559D01*
X05425D01*
Y02597D01*
X05425Y02598D01*
Y02602D01*
X05425Y02603D01*
Y02617D01*
X05403D01*
Y02627D01*
X05425D01*
Y02641D01*
X05421D01*
Y02647D01*
X05419Y02654D01*
X05416Y02660D01*
X05404Y02672D01*
X05398Y02676D01*
X05391Y02677D01*
X05383D01*
Y02692D01*
D02*
G37*
G36*
X05095Y02425D02*
X05053D01*
Y02371D01*
X05095D01*
Y02425D01*
D02*
G37*
G36*
X04737Y02399D02*
X04695D01*
Y02345D01*
X04737D01*
Y02399D01*
D02*
G37*
G36*
X05073Y02025D02*
X05050D01*
Y02002D01*
X05073D01*
Y02025D01*
D02*
G37*
G36*
X05040D02*
X05018D01*
Y02002D01*
X05040D01*
Y02025D01*
D02*
G37*
G36*
X04459Y02033D02*
Y01999D01*
X04493D01*
X04492Y02004D01*
X04488Y02013D01*
X04482Y02022D01*
X04474Y02028D01*
X04464Y02032D01*
X04459Y02033D01*
D02*
G37*
G36*
X04449D02*
X04444Y02032D01*
X04434Y02028D01*
X04426Y02022D01*
X04419Y02013D01*
X04415Y02004D01*
X04415Y01999D01*
X04449D01*
Y02033D01*
D02*
G37*
G36*
X04493Y01989D02*
X04459D01*
Y01954D01*
X04464Y01955D01*
X04474Y01959D01*
X04482Y01965D01*
X04488Y01974D01*
X04492Y01983D01*
X04493Y01989D01*
D02*
G37*
G36*
X04449D02*
X04415D01*
X04415Y01983D01*
X04419Y01974D01*
X04426Y01965D01*
X04434Y01959D01*
X04444Y01955D01*
X04449Y01954D01*
Y01989D01*
D02*
G37*
G36*
X05310Y01990D02*
X05294Y01989D01*
X05273Y01984D01*
X05254Y01976D01*
X05235Y01965D01*
X05219Y01951D01*
X05205Y01935D01*
X05194Y01916D01*
X05186Y01897D01*
X05181Y01876D01*
X05180Y01860D01*
X05310D01*
Y01990D01*
D02*
G37*
G36*
X04449Y01846D02*
X04444Y01845D01*
X04434Y01841D01*
X04426Y01835D01*
X04419Y01826D01*
X04415Y01817D01*
X04415Y01811D01*
X04449D01*
Y01846D01*
D02*
G37*
G36*
X04794D02*
Y01811D01*
X04828D01*
X04827Y01817D01*
X04823Y01826D01*
X04817Y01835D01*
X04809Y01841D01*
X04799Y01845D01*
X04794Y01846D01*
D02*
G37*
G36*
X04828Y01801D02*
X04794D01*
Y01767D01*
X04799Y01768D01*
X04809Y01772D01*
X04817Y01778D01*
X04823Y01787D01*
X04827Y01796D01*
X04828Y01801D01*
D02*
G37*
G36*
X04493Y01801D02*
X04459D01*
Y01767D01*
X04464Y01768D01*
X04474Y01772D01*
X04482Y01778D01*
X04488Y01787D01*
X04492Y01796D01*
X04493Y01801D01*
D02*
G37*
G36*
X04449D02*
X04415D01*
X04415Y01796D01*
X04419Y01787D01*
X04426Y01778D01*
X04434Y01772D01*
X04444Y01768D01*
X04449Y01767D01*
Y01801D01*
D02*
G37*
G36*
X04784Y01801D02*
X04749D01*
X04750Y01796D01*
X04754Y01787D01*
X04760Y01778D01*
X04769Y01772D01*
X04778Y01768D01*
X04784Y01767D01*
Y01801D01*
D02*
G37*
G36*
X05310Y01850D02*
X05180D01*
X05181Y01834D01*
X05186Y01813D01*
X05194Y01794D01*
X05205Y01775D01*
X05219Y01759D01*
X05235Y01745D01*
X05254Y01734D01*
X05273Y01726D01*
X05294Y01721D01*
X05310Y01720D01*
Y01850D01*
D02*
G37*
%LPD*%
G36*
X04890Y02293D02*
X04890Y02288D01*
X04883Y02286D01*
X04877Y02283D01*
X04877Y02283D01*
X04856Y02261D01*
X04852Y02256D01*
X04851Y02249D01*
Y01976D01*
X04744Y01869D01*
X04740Y01871D01*
Y01895D01*
X04700D01*
Y01900D01*
X04695D01*
Y01940D01*
X04660D01*
Y01924D01*
X04656Y01920D01*
X04655Y01920D01*
X04649Y01928D01*
X04641Y01935D01*
X04635Y01937D01*
Y02164D01*
X04666Y02195D01*
X04780D01*
X04786Y02196D01*
X04791Y02199D01*
X04837Y02246D01*
X04841Y02251D01*
X04842Y02256D01*
Y02300D01*
X04848Y02306D01*
X04890D01*
Y02293D01*
D02*
G37*
%LPC*%
G36*
X04794Y02033D02*
Y01999D01*
X04828D01*
X04827Y02004D01*
X04823Y02013D01*
X04817Y02022D01*
X04809Y02028D01*
X04799Y02032D01*
X04794Y02033D01*
D02*
G37*
G36*
X04784Y02033D02*
X04778Y02032D01*
X04769Y02028D01*
X04760Y02022D01*
X04754Y02013D01*
X04750Y02004D01*
X04749Y01999D01*
X04784D01*
Y02033D01*
D02*
G37*
G36*
X04828Y01989D02*
X04794D01*
Y01954D01*
X04799Y01955D01*
X04809Y01959D01*
X04817Y01965D01*
X04823Y01974D01*
X04827Y01983D01*
X04828Y01989D01*
D02*
G37*
G36*
X04784D02*
X04749D01*
X04750Y01983D01*
X04754Y01974D01*
X04760Y01965D01*
X04769Y01959D01*
X04778Y01955D01*
X04784Y01954D01*
Y01989D01*
D02*
G37*
G36*
X04740Y01940D02*
X04705D01*
Y01905D01*
X04740D01*
Y01940D01*
D02*
G37*
%LPD*%
D10*
X05403Y02432D02*
D03*
Y02388D02*
D03*
Y02622D02*
D03*
Y02578D02*
D03*
D11*
X04975Y02090D02*
D03*
X05045D02*
D03*
D12*
X04913Y02322D02*
D03*
Y02218D02*
D03*
X04950D02*
D03*
Y02322D02*
D03*
X04987Y02218D02*
D03*
Y02322D02*
D03*
D13*
X04998Y02150D02*
D03*
X05042D02*
D03*
X04948Y02380D02*
D03*
X04992D02*
D03*
X04602Y01840D02*
D03*
X04558D02*
D03*
D14*
X04935Y01940D02*
D03*
X05065D02*
D03*
D15*
X04835Y02644D02*
D03*
Y02456D02*
D03*
X04885D02*
D03*
Y02644D02*
D03*
X04985D02*
D03*
Y02456D02*
D03*
X04935D02*
D03*
Y02644D02*
D03*
D16*
X04975Y02030D02*
D03*
X05045D02*
D03*
D17*
X05126Y02090D02*
D03*
X05292D02*
D03*
D18*
X05320Y02469D02*
D03*
Y02351D02*
D03*
Y02659D02*
D03*
Y02541D02*
D03*
D19*
X04740Y01840D02*
X04869Y01969D01*
X05125Y01975D02*
Y02090D01*
X05090Y01940D02*
X05125Y01975D01*
X05065Y01940D02*
X05090D01*
X04950Y02030D02*
X04975D01*
X04935Y02015D02*
X04950Y02030D01*
X04935Y01940D02*
Y02015D01*
X04590Y02030D02*
Y02280D01*
X04480Y01920D02*
X04590Y02030D01*
X04948Y02323D02*
Y02380D01*
X04860D02*
X04948D01*
X04835Y02405D02*
X04860Y02380D01*
X04835Y02405D02*
Y02456D01*
X04987Y02322D02*
X04992Y02326D01*
X04885Y02456D02*
Y02505D01*
X04900Y02520D01*
X04920D01*
X04935Y02505D01*
Y02456D02*
Y02505D01*
X04985Y02456D02*
Y02505D01*
X04970Y02520D02*
X04985Y02505D01*
X04950Y02520D02*
X04970D01*
X04935Y02505D02*
X04950Y02520D01*
X04935Y02595D02*
X04935D01*
X04913Y02218D02*
X04950D01*
Y02190D02*
Y02218D01*
X04975Y02090D02*
Y02126D01*
X04998Y02150D01*
X05042D02*
X05045Y02146D01*
X04543Y01856D02*
Y01900D01*
Y01856D02*
X04558Y01840D01*
X05403Y02622D02*
Y02647D01*
X05391Y02659D02*
X05403Y02647D01*
X05320Y02659D02*
X05391D01*
X05400Y02575D02*
X05403Y02578D01*
X05400Y02550D02*
Y02575D01*
X05391Y02541D02*
X05400Y02550D01*
X05320Y02541D02*
X05391D01*
X05403Y02432D02*
Y02457D01*
X05391Y02469D02*
X05403Y02457D01*
X05320Y02469D02*
X05391D01*
X05403Y02363D02*
Y02388D01*
X05391Y02351D02*
X05403Y02363D01*
X05320Y02351D02*
X05391D01*
X04985Y02456D02*
X04992Y02449D01*
X04621Y01859D02*
Y01860D01*
Y01900D01*
X04602Y01840D02*
X04621Y01860D01*
X04869Y01969D02*
Y02249D01*
X04890Y02270D01*
X04970D01*
X04987Y02253D01*
Y02218D02*
Y02253D01*
X04990Y02150D02*
X04998D01*
X04950Y02190D02*
X04990Y02150D01*
X04540Y01800D02*
X04620D01*
X04480Y01860D02*
X04540Y01800D01*
X04480Y01860D02*
Y01920D01*
X04620Y01800D02*
X04660Y01840D01*
X04740D01*
D20*
X04610Y01890D02*
X04620Y01900D01*
Y02170D01*
X04948Y02323D02*
X04950Y02322D01*
X04842D02*
X04913D01*
X04826Y02306D02*
X04842Y02322D01*
X04826Y02256D02*
Y02306D01*
X04620Y02170D02*
X04660Y02210D01*
X04780D01*
X04826Y02256D01*
D21*
X04992Y02326D02*
Y02380D01*
X04985Y02595D02*
Y02644D01*
X04935Y02595D02*
Y02644D01*
X04920Y02580D02*
X04935Y02595D01*
X04870Y02580D02*
X04885Y02595D01*
X04835Y02595D02*
X04850Y02580D01*
X04835Y02595D02*
Y02644D01*
X04885Y02595D02*
Y02644D01*
X05045Y02090D02*
Y02146D01*
X04850Y02580D02*
X04870D01*
X04920D01*
X04970D01*
X04985Y02595D01*
X04992Y02380D02*
Y02449D01*
X04780Y02510D02*
Y02570D01*
X04805Y02595D01*
X04835D01*
X05200Y02390D02*
Y02430D01*
X04700Y01900D02*
X04711Y01911D01*
X05132Y02322D02*
X05200Y02390D01*
X04987Y02322D02*
X05132D01*
X04987Y02218D02*
X05022D01*
X05040Y02200D01*
Y02150D02*
Y02200D01*
X05045Y02090D02*
X05125D01*
D22*
X04590Y02340D02*
Y02540D01*
X05200Y02430D02*
Y02630D01*
X05320Y02469D02*
Y02541D01*
X04780Y02270D02*
Y02510D01*
X04590Y02280D02*
Y02340D01*
Y02280D02*
X04620Y02250D01*
X04760D01*
X04780Y02270D01*
D23*
X05200D02*
Y02380D01*
Y02260D02*
X05292Y02168D01*
Y02070D02*
Y02168D01*
X05200Y02390D02*
X05239Y02351D01*
X05320D01*
D24*
X04980Y02035D02*
Y02085D01*
X04975Y02090D02*
X04980Y02085D01*
D25*
X05296Y02308D02*
X05305D01*
X05310Y02303D01*
Y02285D01*
X05305Y02280D01*
X05296D01*
X05292Y02285D01*
Y02303D01*
X05296Y02308D01*
X05282D02*
Y02285D01*
X05278Y02280D01*
X05269D01*
X05264Y02285D01*
Y02308D01*
X05255D02*
X05237D01*
X05246D01*
Y02280D01*
X04610Y02648D02*
X04601D01*
X04605D01*
Y02620D01*
X04610D01*
X04601D01*
X04587D02*
Y02648D01*
X04569Y02620D01*
Y02648D01*
X05420Y02930D02*
Y02958D01*
X05406D01*
X05402Y02953D01*
Y02944D01*
X05406Y02939D01*
X05420D01*
X05392Y02930D02*
X05383D01*
X05388D01*
Y02948D01*
X05392D01*
X05365Y02930D02*
X05356D01*
X05351Y02935D01*
Y02944D01*
X05356Y02948D01*
X05365D01*
X05369Y02944D01*
Y02935D01*
X05365Y02930D01*
X05337Y02953D02*
Y02948D01*
X05342D01*
X05333D01*
X05337D01*
Y02935D01*
X05333Y02930D01*
X05319Y02948D02*
Y02930D01*
Y02939D01*
X05314Y02944D01*
X05310Y02948D01*
X05305D01*
X05291Y02958D02*
Y02930D01*
Y02939D01*
X05273Y02958D01*
X05287Y02944D01*
X05273Y02930D01*
X05264Y02948D02*
Y02935D01*
X05259Y02930D01*
X05246D01*
Y02948D01*
X05236Y02930D02*
X05227D01*
X05232D01*
Y02958D01*
X05236D01*
X05213Y02930D02*
X05204D01*
X05209D01*
Y02948D01*
X05213D01*
X05181Y02921D02*
X05177D01*
X05172Y02925D01*
Y02948D01*
X05186D01*
X05190Y02944D01*
Y02935D01*
X05186Y02930D01*
X05172D01*
X05158D02*
X05149D01*
X05144Y02935D01*
Y02944D01*
X05149Y02948D01*
X05158D01*
X05163Y02944D01*
Y02935D01*
X05158Y02930D01*
X05135Y02948D02*
Y02935D01*
X05131Y02930D01*
X05126Y02935D01*
X05122Y02930D01*
X05117Y02935D01*
Y02948D01*
X05108Y02930D02*
X05094D01*
X05089Y02935D01*
X05094Y02939D01*
X05103D01*
X05108Y02944D01*
X05103Y02948D01*
X05089D01*
X05080Y02930D02*
Y02958D01*
Y02939D02*
X05066Y02948D01*
X05080Y02939D02*
X05066Y02930D01*
X05053D02*
X05043D01*
X05048D01*
Y02948D01*
X05053D01*
X05030Y02930D02*
Y02935D01*
X05025D01*
Y02930D01*
X05030D01*
X05007Y02921D02*
Y02948D01*
X04993D01*
X04988Y02944D01*
Y02935D01*
X04993Y02930D01*
X05007D01*
X04979D02*
X04970D01*
X04975D01*
Y02958D01*
X04979D01*
D26*
X05420Y02980D02*
Y03019D01*
X05400D01*
X05394Y03013D01*
Y03000D01*
X05400Y02993D01*
X05420D01*
X05381Y03019D02*
Y02980D01*
X05368Y02993D01*
X05354Y02980D01*
Y03019D01*
X05341Y03000D02*
X05315D01*
X05276Y03013D02*
X05282Y03019D01*
X05295D01*
X05302Y03013D01*
Y03006D01*
X05295Y03000D01*
X05282D01*
X05276Y02993D01*
Y02987D01*
X05282Y02980D01*
X05295D01*
X05302Y02987D01*
X05256Y03006D02*
X05243D01*
X05236Y03000D01*
Y02980D01*
X05256D01*
X05263Y02987D01*
X05256Y02993D01*
X05236D01*
X05217Y03013D02*
Y03006D01*
X05223D01*
X05210D01*
X05217D01*
Y02987D01*
X05210Y02980D01*
X05164D02*
X05190D01*
X05164Y03006D01*
Y03013D01*
X05171Y03019D01*
X05184D01*
X05190Y03013D01*
X05085Y02980D02*
X05112D01*
X05085Y03006D01*
Y03013D01*
X05092Y03019D01*
X05105D01*
X05112Y03013D01*
X05072D02*
X05066Y03019D01*
X05053D01*
X05046Y03013D01*
Y02987D01*
X05053Y02980D01*
X05066D01*
X05072Y02987D01*
Y03013D01*
X05033Y02980D02*
X05020D01*
X05026D01*
Y03019D01*
X05033Y03013D01*
X04974Y03019D02*
X04987Y03013D01*
X05000Y03000D01*
Y02987D01*
X04994Y02980D01*
X04981D01*
X04974Y02987D01*
Y02993D01*
X04981Y03000D01*
X05000D01*
X05420Y03079D02*
X05407D01*
X05413D01*
Y03040D01*
X05420D01*
X05407D01*
X05361Y03079D02*
Y03040D01*
X05381D01*
X05387Y03047D01*
Y03060D01*
X05381Y03066D01*
X05361D01*
X05328Y03040D02*
X05341D01*
X05348Y03047D01*
Y03060D01*
X05341Y03066D01*
X05328D01*
X05322Y03060D01*
Y03053D01*
X05348D01*
X05302Y03066D02*
X05289D01*
X05282Y03060D01*
Y03040D01*
X05302D01*
X05308Y03047D01*
X05302Y03053D01*
X05282D01*
X05269Y03040D02*
X05256D01*
X05263D01*
Y03079D01*
X05269D01*
X05197D02*
Y03040D01*
X05177D01*
X05171Y03047D01*
Y03073D01*
X05177Y03079D01*
X05197D01*
X05158Y03040D02*
X05144D01*
X05151D01*
Y03066D01*
X05158D01*
X05118Y03040D02*
X05105D01*
X05099Y03047D01*
Y03060D01*
X05105Y03066D01*
X05118D01*
X05125Y03060D01*
Y03047D01*
X05118Y03040D01*
X05059Y03079D02*
Y03040D01*
X05079D01*
X05085Y03047D01*
Y03060D01*
X05079Y03066D01*
X05059D01*
X05026Y03040D02*
X05040D01*
X05046Y03047D01*
Y03060D01*
X05040Y03066D01*
X05026D01*
X05020Y03060D01*
Y03053D01*
X05046D01*
X04941Y03073D02*
X04948Y03079D01*
X04961D01*
X04967Y03073D01*
Y03047D01*
X04961Y03040D01*
X04948D01*
X04941Y03047D01*
X04928Y03079D02*
Y03040D01*
Y03060D01*
X04902D01*
Y03079D01*
Y03040D01*
X04889Y03073D02*
X04882Y03079D01*
X04869D01*
X04862Y03073D01*
Y03047D01*
X04869Y03040D01*
X04882D01*
X04889Y03047D01*
Y03073D01*
D27*
X04528Y02953D02*
D03*
X05315Y01855D02*
D03*
D28*
X05100Y02430D02*
D03*
Y02630D02*
D03*
X04690Y02540D02*
D03*
Y02340D02*
D03*
D29*
X05200Y02430D02*
D03*
Y02630D02*
D03*
X04590Y02540D02*
D03*
Y02340D02*
D03*
D30*
X04621Y01900D02*
D03*
X04543D02*
D03*
X04789Y01806D02*
D03*
Y01994D02*
D03*
X04454D02*
D03*
Y01806D02*
D03*
D31*
X04700Y01900D02*
D03*
M02*
