M48
;Layer_Color=9474304
;FILE_FORMAT=2:5
INCH
;TYPE=PLATED
T3F00S00C0.01968
T4F00S00C0.03346
T5F00S00C0.03937
T6F00S00C0.12992
%
T03
X0232268Y0291988
T04
X0216000Y0251406
X0224394Y0256555
X0232268
Y0264429
Y0272303
Y0280177
Y0288051
Y0295925
Y0303799
Y0311673
X0224394
Y0303799
Y0295925
Y0288051
Y0280177
Y0272303
Y0264429
X0216000Y0270406
Y0278594
X0240500
Y0270406
Y0251905
X0232000Y0245905
X0224500
T05
X0215500Y0296094
X0240500
X0233000Y0320094
X0224000
T06
X0227984Y0146728
Y0461728
M30
