G04 Layer_Physical_Order=1*
G04 Layer_Color=255*
%FSAX23Y23*%
%MOIN*%
G70*
G01*
G75*
%ADD10R,0.037X0.039*%
%ADD11R,0.024X0.011*%
%ADD12R,0.059X0.047*%
%ADD13R,0.035X0.035*%
%ADD14C,0.008*%
%ADD15C,0.012*%
%ADD16C,0.010*%
%ADD17C,0.079*%
%ADD18C,0.028*%
D10*
X02606Y04052D02*
D03*
X02676D02*
D03*
D11*
X02604Y04446D02*
D03*
Y04426D02*
D03*
Y04407D02*
D03*
X02712Y04446D02*
D03*
Y04426D02*
D03*
Y04407D02*
D03*
X02604Y04312D02*
D03*
Y04292D02*
D03*
Y04272D02*
D03*
X02712Y04312D02*
D03*
Y04292D02*
D03*
Y04272D02*
D03*
X02604Y04177D02*
D03*
Y04157D02*
D03*
Y04138D02*
D03*
X02712Y04177D02*
D03*
Y04157D02*
D03*
Y04138D02*
D03*
D12*
X02657Y04426D02*
D03*
Y04292D02*
D03*
Y04157D02*
D03*
D13*
X02585Y04528D02*
D03*
X02656D02*
D03*
D14*
X02676Y04052D02*
Y04085D01*
X02666Y04095D02*
X02676Y04085D01*
X02743Y04052D02*
X02771Y04080D01*
X02676Y04052D02*
X02743D01*
X02771Y04080D02*
Y04500D01*
X02658Y04095D02*
X02666D01*
X02743Y04528D02*
X02771Y04500D01*
X02712Y04426D02*
X02749D01*
X02712Y04446D02*
Y04473D01*
X02712Y04157D02*
X02750D01*
X02604Y04367D02*
Y04407D01*
Y04367D02*
X02612Y04359D01*
X02770D01*
X02612Y04224D02*
X02770D01*
X02604Y04232D02*
X02612Y04224D01*
X02604Y04232D02*
Y04272D01*
X02712Y04446D02*
X02712Y04446D01*
X02712Y04292D02*
X02751D01*
X02604Y04390D02*
Y04407D01*
X02656Y04528D02*
X02743D01*
X02712Y04138D02*
Y04139D01*
Y04113D02*
Y04138D01*
X02712Y04176D02*
Y04202D01*
X02712Y04272D02*
Y04273D01*
Y04247D02*
Y04272D01*
X02712Y04311D02*
Y04337D01*
X02712Y04381D02*
Y04407D01*
X02657Y04157D02*
Y04204D01*
Y04292D02*
Y04339D01*
Y04426D02*
Y04470D01*
D15*
X02603Y04052D02*
X02605Y04050D01*
X02562Y04052D02*
X02603D01*
X02745Y04426D02*
Y04486D01*
X02729Y04501D02*
X02745Y04486D01*
X02701Y04501D02*
X02729D01*
X02688Y04489D02*
X02701Y04501D01*
X02575Y04489D02*
X02688D01*
X02562Y04476D02*
X02575Y04489D01*
X02562Y04445D02*
Y04476D01*
Y04177D02*
Y04445D01*
Y04052D02*
Y04177D01*
D16*
X02546Y04528D02*
X02585D01*
X02563Y04446D02*
X02604D01*
X02562Y04445D02*
X02563Y04446D01*
X02621Y04095D02*
X02658D01*
X02604Y04112D02*
X02621Y04095D01*
X02604Y04112D02*
Y04138D01*
X02562Y04177D02*
X02604D01*
X02563Y04312D02*
X02604D01*
D17*
X02692Y04616D02*
D03*
Y03967D02*
D03*
D18*
X02745Y04157D02*
D03*
Y04426D02*
D03*
Y04292D02*
D03*
X02712Y04473D02*
D03*
X02546Y04528D02*
D03*
X02658Y04095D02*
D03*
X02712Y04113D02*
D03*
X02712Y04197D02*
D03*
X02712Y04251D02*
D03*
X02712Y04332D02*
D03*
X02712Y04386D02*
D03*
X02562Y04052D02*
D03*
M02*
