G04 Layer_Physical_Order=1*
G04 Layer_Color=255*
%FSAX25Y25*%
%MOIN*%
G70*
G01*
G75*
%ADD10C,0.01968*%
%ADD11R,0.03937X0.03937*%
%ADD12C,0.03937*%
%ADD13R,0.03937X0.03937*%
%ADD14C,0.03150*%
D10*
X0422500Y0200000D02*
X0430000D01*
X0422500Y0195000D02*
X0430000D01*
X0422500Y0190000D02*
X0430000D01*
X0422500Y0185000D02*
X0430000D01*
X0435000Y0200000D02*
X0442500D01*
X0435000Y0195000D02*
X0442500D01*
X0435000Y0190000D02*
X0442500D01*
X0435000Y0185000D02*
X0442500D01*
X0435000Y0210000D02*
X0442500D01*
X0435000Y0215000D02*
X0442500D01*
X0422500D02*
X0430000D01*
X0422500Y0210000D02*
X0430000D01*
D11*
X0442500Y0185000D02*
D03*
Y0210000D02*
D03*
D12*
X0422500Y0185000D02*
D03*
Y0215000D02*
D03*
Y0210000D02*
D03*
Y0190000D02*
D03*
X0442500D02*
D03*
X0422500Y0195000D02*
D03*
X0442500D02*
D03*
X0422500Y0200000D02*
D03*
X0442500D02*
D03*
X0435000Y0215000D02*
D03*
X0430000D02*
D03*
Y0210000D02*
D03*
Y0185000D02*
D03*
Y0190000D02*
D03*
Y0195000D02*
D03*
Y0200000D02*
D03*
X0435000Y0190000D02*
D03*
Y0195000D02*
D03*
Y0200000D02*
D03*
X0442500Y0215000D02*
D03*
D13*
X0435000Y0210000D02*
D03*
Y0185000D02*
D03*
D14*
X0447500Y0220000D02*
D03*
X0452500D02*
D03*
X0447500Y0205000D02*
D03*
X0452500D02*
D03*
Y0180000D02*
D03*
X0447500D02*
D03*
X0417500D02*
D03*
X0412500D02*
D03*
Y0205000D02*
D03*
X0417500D02*
D03*
X0412500Y0220000D02*
D03*
X0417500D02*
D03*
M02*
