G04 Layer_Color=65535*
%FSAX25Y25*%
%MOIN*%
G70*
G01*
G75*
%ADD15C,0.00787*%
D15*
X0425500Y0222636D02*
Y0219356D01*
X0426156Y0218700D01*
X0427468D01*
X0428124Y0219356D01*
Y0222636D01*
X0429436Y0218700D02*
Y0221324D01*
X0430748Y0222636D01*
X0432060Y0221324D01*
Y0218700D01*
Y0220668D01*
X0429436D01*
X0433371Y0218700D02*
Y0222636D01*
X0435339D01*
X0435995Y0221980D01*
Y0220668D01*
X0435339Y0220012D01*
X0433371D01*
X0434683D02*
X0435995Y0218700D01*
X0437307Y0222636D02*
X0439931D01*
X0438619D01*
Y0218700D01*
X0427624Y0180936D02*
X0426312D01*
X0426968D01*
Y0177656D01*
X0426312Y0177000D01*
X0425656D01*
X0425000Y0177656D01*
X0428936Y0180936D02*
X0431560D01*
X0430248D01*
Y0177000D01*
X0432871D02*
Y0179624D01*
X0434183Y0180936D01*
X0435495Y0179624D01*
Y0177000D01*
Y0178968D01*
X0432871D01*
X0439431Y0180280D02*
X0438775Y0180936D01*
X0437463D01*
X0436807Y0180280D01*
Y0177656D01*
X0437463Y0177000D01*
X0438775D01*
X0439431Y0177656D01*
Y0178968D01*
X0438119D01*
X0447500Y0211436D02*
X0450124D01*
X0448812D01*
Y0207500D01*
X0451436Y0211436D02*
X0454060Y0207500D01*
Y0211436D02*
X0451436Y0207500D01*
X0410124Y0210780D02*
X0409468Y0211436D01*
X0408156D01*
X0407500Y0210780D01*
Y0208156D01*
X0408156Y0207500D01*
X0409468D01*
X0410124Y0208156D01*
Y0209468D01*
X0408812D01*
X0411436Y0207500D02*
Y0211436D01*
X0414060Y0207500D01*
Y0211436D01*
X0415372D02*
Y0207500D01*
X0417339D01*
X0417995Y0208156D01*
Y0210780D01*
X0417339Y0211436D01*
X0415372D01*
X0447500Y0212500D02*
Y0216436D01*
X0449468D01*
X0450124Y0215780D01*
Y0214468D01*
X0449468Y0213812D01*
X0447500D01*
X0448812D02*
X0450124Y0212500D01*
X0451436Y0216436D02*
X0454060Y0212500D01*
Y0216436D02*
X0451436Y0212500D01*
X0410124Y0215780D02*
X0409468Y0216436D01*
X0408156D01*
X0407500Y0215780D01*
Y0213156D01*
X0408156Y0212500D01*
X0409468D01*
X0410124Y0213156D01*
Y0214468D01*
X0408812D01*
X0411436Y0212500D02*
Y0216436D01*
X0414060Y0212500D01*
Y0216436D01*
X0415372D02*
Y0212500D01*
X0417339D01*
X0417995Y0213156D01*
Y0215780D01*
X0417339Y0216436D01*
X0415372D01*
X0446000Y0186436D02*
X0448624D01*
X0447312D01*
Y0182500D01*
X0452560Y0185780D02*
X0451904Y0186436D01*
X0450592D01*
X0449936Y0185780D01*
Y0183156D01*
X0450592Y0182500D01*
X0451904D01*
X0452560Y0183156D01*
X0453871Y0186436D02*
Y0182500D01*
Y0183812D01*
X0456495Y0186436D01*
X0454527Y0184468D01*
X0456495Y0182500D01*
X0410124Y0185780D02*
X0409468Y0186436D01*
X0408156D01*
X0407500Y0185780D01*
Y0183156D01*
X0408156Y0182500D01*
X0409468D01*
X0410124Y0183156D01*
Y0184468D01*
X0408812D01*
X0411436Y0182500D02*
Y0186436D01*
X0414060Y0182500D01*
Y0186436D01*
X0415372D02*
Y0182500D01*
X0417339D01*
X0417995Y0183156D01*
Y0185780D01*
X0417339Y0186436D01*
X0415372D01*
X0446000Y0191436D02*
X0448624D01*
X0447312D01*
Y0187500D01*
X0449936Y0191436D02*
Y0187500D01*
X0451904D01*
X0452560Y0188156D01*
Y0190780D01*
X0451904Y0191436D01*
X0449936D01*
X0455839D02*
X0454527D01*
X0453871Y0190780D01*
Y0188156D01*
X0454527Y0187500D01*
X0455839D01*
X0456495Y0188156D01*
Y0190780D01*
X0455839Y0191436D01*
X0407500Y0190780D02*
X0408156Y0191436D01*
X0409468D01*
X0410124Y0190780D01*
Y0190124D01*
X0409468Y0189468D01*
X0408812D01*
X0409468D01*
X0410124Y0188812D01*
Y0188156D01*
X0409468Y0187500D01*
X0408156D01*
X0407500Y0188156D01*
X0411436Y0191436D02*
Y0188812D01*
X0412748Y0187500D01*
X0414060Y0188812D01*
Y0191436D01*
X0415372Y0190780D02*
X0416027Y0191436D01*
X0417339D01*
X0417995Y0190780D01*
Y0190124D01*
X0417339Y0189468D01*
X0416683D01*
X0417339D01*
X0417995Y0188812D01*
Y0188156D01*
X0417339Y0187500D01*
X0416027D01*
X0415372Y0188156D01*
X0446000Y0196436D02*
X0448624D01*
X0447312D01*
Y0192500D01*
X0449936D02*
Y0196436D01*
X0451248Y0195124D01*
X0452560Y0196436D01*
Y0192500D01*
X0456495Y0195780D02*
X0455839Y0196436D01*
X0454527D01*
X0453871Y0195780D01*
Y0195124D01*
X0454527Y0194468D01*
X0455839D01*
X0456495Y0193812D01*
Y0193156D01*
X0455839Y0192500D01*
X0454527D01*
X0453871Y0193156D01*
X0405000Y0192500D02*
Y0195124D01*
X0406968D01*
X0407624Y0194468D01*
Y0192500D01*
X0408936D02*
Y0196436D01*
X0410904D01*
X0411560Y0195780D01*
Y0194468D01*
X0410904Y0193812D01*
X0408936D01*
X0410248D02*
X0411560Y0192500D01*
X0415495Y0195780D02*
X0414839Y0196436D01*
X0413527D01*
X0412872Y0195780D01*
Y0195124D01*
X0413527Y0194468D01*
X0414839D01*
X0415495Y0193812D01*
Y0193156D01*
X0414839Y0192500D01*
X0413527D01*
X0412872Y0193156D01*
X0416807Y0196436D02*
X0419431D01*
X0418119D01*
Y0192500D01*
X0446000Y0201436D02*
X0448624D01*
X0447312D01*
Y0197500D01*
X0449936Y0201436D02*
Y0197500D01*
X0451904D01*
X0452560Y0198156D01*
Y0200780D01*
X0451904Y0201436D01*
X0449936D01*
X0453871D02*
X0455183D01*
X0454527D01*
Y0197500D01*
X0453871D01*
X0455183D01*
X0410124Y0200780D02*
X0409468Y0201436D01*
X0408156D01*
X0407500Y0200780D01*
Y0198156D01*
X0408156Y0197500D01*
X0409468D01*
X0410124Y0198156D01*
Y0199468D01*
X0408812D01*
X0411436Y0197500D02*
Y0201436D01*
X0414060Y0197500D01*
Y0201436D01*
X0415372D02*
Y0197500D01*
X0417339D01*
X0417995Y0198156D01*
Y0200780D01*
X0417339Y0201436D01*
X0415372D01*
M02*
