M48
;Layer_Color=9474304
;FILE_FORMAT=2:5
INCH
;TYPE=PLATED
T1F00S00C0.01968
T2F00S00C0.03150
T3F00S00C0.03543
T4F00S00C0.03937
T5F00S00C0.05118
T6F00S00C0.12598
%
T01
X0811000Y0225600
X0840800Y0264300
X0752300Y0257400
X0708000Y0258800
X0690800Y0257200
X0629400Y0257800
X0627400Y0249400
X0629000Y0289700
X0586100Y0256100
X0530000Y0255000
X0528500Y0262000
X0538000Y0231500
X0525500Y0223000
X0530000Y0217500
X0517500
X0505000
X0509500Y0224669
X0490000Y0227500
Y0217500
X0477500
Y0227500
Y0237500
X0490000
X0481500Y0257100
X0590000Y0310000
X0589000Y0334500
X0601000Y0342000
X0595020Y0414180
X0597000Y0429000
X0590500Y0428500
X0529000Y0419500
X0530000Y0413000
X0520000Y0392500
X0631000Y0389000
X0638000
X0646000Y0389500
X0653500Y0387500
X0672000Y0378000
X0681800Y0378200
X0679500Y0368500
X0666000Y0367697
X0637500Y0368000
X0641000Y0363500
X0625500Y0333000
X0615500Y0308500
X0610100Y0312500
X0683800Y0305900
X0683500Y0296400
X0752000Y0299000
X0746700Y0339400
X0750500Y0346400
X0733800Y0343500
X0718600Y0350400
X0693500Y0363500
X0677000Y0412500
X0676500Y0445500
X0666000Y0437000
X0656500Y0435500
X0658457Y0427457
X0641957Y0427543
X0605000Y0431000
X0711300Y0437000
X0711700Y0412800
X0745700Y0431000
X0755200Y0432200
X0736000Y0441000
X0754800Y0400600
Y0373700
X0776100Y0434600
X0788600
X0801100
X0800100Y0509600
X0787600
X0775100
X0846500Y0548500
X0817800Y0587300
X0758600Y0578900
X0752000Y0580800
X0738400Y0572800
X0721200Y0559800
X0715200Y0554700
X0715000Y0534000
Y0523900
X0717500Y0507500
X0740000
X0747500Y0515000
X0755000Y0507500
X0750800Y0474300
X0751200Y0461000
X0721600Y0469500
X0668000Y0455000
X0648823Y0454677
X0619000Y0454500
X0606500Y0454000
Y0460500
X0609000Y0540000
X0605000Y0546000
X0613000Y0548000
X0610000Y0560000
X0627500Y0550000
X0622000Y0531000
X0682200Y0564300
X0603000Y0526500
X0601500Y0462500
X0544500Y0553500
X0537500Y0554000
X0532500Y0560000
X0547500
X0535000Y0587500
X0522500
X0510000
X0497500
X0482500
X0494900Y0565300
X0495700Y0541000
T02
X0605000Y0254700
X0612600Y0257100
X0622000Y0259100
X0644700Y0258100
X0653800Y0258300
X0703700Y0251200
X0715000Y0244000
X0728000Y0231900
X0742900Y0217400
X0612500Y0286500
X0600700Y0276200
X0594900Y0266400
X0572000Y0254300
X0546900Y0279100
X0530000Y0241000
X0489900Y0250000
X0549500Y0292700
X0546402Y0362198
X0529100Y0366400
X0638252Y0352874
Y0345000
X0646126
X0654000
X0661874
X0669748
Y0352874
X0661874
X0654000
X0646126
X0693200Y0353900
X0698400
X0701677Y0333977
X0708600Y0327000
X0707800Y0308300
X0707900Y0300400
X0665300Y0304800
X0653474Y0302519
X0644400Y0302300
X0635100Y0294800
X0626200Y0316000
X0753000Y0318200
X0711000Y0382000
Y0402000
X0710000Y0422000
X0678100Y0398500
X0780000Y0581300
X0707000Y0559000
X0706000Y0544000
X0694600Y0532500
X0675100Y0530300
X0674900Y0555800
X0655100Y0553900
X0642300Y0553200
X0646400Y0545800
X0610700Y0571000
X0620000Y0596800
X0712000Y0515000
X0710900Y0485200
X0711093Y0478893
X0711700Y0452900
X0596600Y0557200
X0584500Y0557600
X0570200Y0561100
X0530400Y0574000
X0526200Y0513000
T03
X0605000Y0225000
X0615000
X0625000
X0635000
X0645000
X0655000
X0665000
X0675000
Y0235000
X0685000
Y0225000
X0695000
Y0235000
X0705000
Y0225000
X0715000
Y0235000
X0755000Y0232000
X0741244Y0267000
Y0287000
X0665000Y0235000
X0655000
X0645000
X0635000
X0625000
X0615000
X0605000
X0595000
Y0225000
X0585000
Y0235000
X0575000
Y0225000
X0565000
X0555000
Y0235000
X0565000
X0598200Y0305000
Y0315000
X0595500Y0352500
Y0362500
Y0372500
X0584500
Y0362500
Y0352500
X0573500
Y0362500
Y0372500
X0571000Y0438500
Y0448500
X0560000
Y0438500
X0582000
Y0448500
X0593000
Y0438500
X0606500Y0372500
Y0362500
Y0352500
X0629394Y0358287
Y0339587
X0678606Y0339685
Y0358386
X0694000Y0372000
X0693900Y0406900
X0741244Y0402000
Y0382000
Y0362000
Y0327000
Y0307000
X0694000Y0297000
X0741244Y0422000
Y0457000
Y0477000
Y0497000
X0749244Y0532000
Y0552000
Y0572000
X0715000Y0579000
X0705000
X0695000
X0685000
X0675000
Y0589000
X0685000
X0695000
X0705000
X0715000
X0665000
Y0579000
X0655000
Y0589000
X0645000
Y0579000
X0635000
Y0589000
X0625000
Y0579000
X0615000
X0605000
Y0589000
X0615000
X0694000Y0549000
X0693900Y0482500
X0593000Y0458500
X0582000
X0571000
X0560000
X0555000Y0579000
Y0589000
X0565000
X0575000
X0585000
X0595000
Y0579000
X0585000
X0575000
X0565000
T04
X0480453Y0281398
Y0291398
X0490453
X0500433
X0510433
Y0281398
X0500433
X0490453
Y0301398
X0500433
X0510433
Y0311398
X0500433
X0490453
X0480453
Y0301398
Y0321398
X0490453
X0500433
X0510433
Y0331398
Y0341398
X0500433
X0490453
X0480453
Y0351398
X0490453
X0500433
X0510433
Y0361398
X0500433
X0490453
X0480453
Y0371398
X0490453
X0500433
X0510433
Y0381398
Y0391398
X0500433
X0490453
X0480453
Y0401398
X0490453
X0500433
X0510433
Y0411398
X0500433
X0490453
X0480453
Y0421398
X0490453
X0500433
X0510433
Y0431398
Y0441398
X0500433
X0490453
X0480453
Y0431398
X0490453
X0500433
Y0381398
X0490453
X0480453
Y0331398
X0490453
X0500433
Y0451398
X0490453
X0480453
Y0461398
X0490453
X0500433
X0510433
Y0451398
Y0471398
X0500433
X0490453
X0480453
Y0481398
Y0491398
Y0501398
Y0511398
Y0521398
Y0531398
X0490453
X0500433
X0510433
Y0521398
X0500433
X0490453
Y0511398
X0500433
X0510433
Y0501398
X0500433
X0490453
Y0491398
X0500433
X0510433
Y0481398
X0500433
X0490453
T05
X0776244Y0222000
Y0232000
X0796244
Y0222000
Y0257000
Y0267000
Y0277000
Y0287000
X0776244
Y0277000
Y0267000
Y0257000
Y0297000
Y0307000
Y0317000
Y0327000
X0796244
Y0317000
Y0307000
Y0297000
Y0352000
Y0362000
Y0372000
Y0382000
Y0392000
Y0402000
Y0412000
Y0422000
X0776244
Y0412000
Y0402000
Y0392000
Y0382000
Y0372000
Y0362000
Y0352000
Y0447000
X0796244
Y0457000
Y0467000
Y0477000
Y0487000
Y0497000
X0776244
Y0487000
Y0477000
Y0467000
Y0457000
Y0522000
Y0532000
Y0542000
Y0552000
Y0562000
Y0572000
X0796244
Y0562000
Y0552000
Y0542000
Y0532000
Y0522000
T06
X0841535Y0231433
X0510433Y0261433
X0841535Y0581433
X0510433Y0551433
M30
