M48
;Layer_Color=9474304
;FILE_FORMAT=2:5
INCH
;TYPE=PLATED
T1F00S00C0.00787
T2F00S00C0.01181
T3F00S00C0.01575
T4F00S00C0.03150
T5F00S00C0.03543
T6F00S00C0.03937
T7F00S00C0.12598
%
T01
X0510850Y0228307
X0520000Y0235000
X0519850Y0295850
X0518000Y0296000
X0510500
X0508350Y0295850
X0503000Y0287500
X0475000Y0283500
X0534000Y0284500
X0537500Y0288000
X0526500Y0302500
X0525000Y0304000
X0459500Y0301500
X0453500Y0309000
X0451000Y0288500
X0442000Y0289043
X0446000Y0283000
X0445500Y0276000
X0440500Y0276350
X0442500Y0273000
X0441678Y0257556
X0441000Y0254000
X0438944Y0251000
X0442500Y0250000
Y0247500
Y0245000
X0439000Y0242000
X0425500Y0234500
X0421000Y0247000
X0416500Y0249000
X0413500Y0247004
X0409500Y0246500
X0403000Y0251000
X0400854Y0238300
X0393500Y0240500
X0387500Y0242159
Y0238500
X0383930Y0242999
X0380400Y0241500
X0384500Y0247500
X0390000Y0246000
X0382831Y0255331
X0385000Y0270500
X0380500Y0275500
Y0284500
X0371500Y0283957
Y0287500
X0363000Y0287000
X0361500Y0280500
X0356750Y0284163
X0350000Y0289000
X0348500Y0292000
X0350675Y0294853
X0349000Y0302500
X0342500Y0309500
X0335500Y0302000
X0330000
X0338500Y0297000
X0338000Y0288000
X0334000Y0289000
X0326000Y0288500
X0323500
X0319500Y0288000
X0313500Y0305000
X0342139Y0278450
X0346000Y0278500
X0352500Y0274000
X0356500Y0265500
X0361000Y0265000
X0370000Y0264000
X0372500Y0272000
Y0279000
X0377000Y0293500
X0382500Y0294500
X0385724Y0299811
X0379425Y0300075
X0372000Y0298500
X0368000
X0365000Y0295500
X0391000
X0390500Y0291500
X0399500Y0292000
X0404004Y0290496
X0408000Y0295986
X0413000Y0297000
X0413500Y0306500
X0410000Y0306000
X0406000Y0305500
X0398500Y0300500
X0395250Y0298721
X0392000Y0300500
X0391500Y0283000
X0400854Y0280146
X0401537Y0272500
X0397000Y0268500
X0408500Y0270000
X0413000Y0271000
X0415500Y0266004
X0421500Y0269000
X0422500Y0272556
X0427000Y0272000
X0415000Y0278504
X0422902Y0290795
X0426500Y0291500
X0431500Y0304500
X0421000Y0309000
X0418500Y0260004
Y0255504
X0418100Y0219100
X0412400Y0205800
X0386100Y0204700
X0361000Y0206000
X0366000Y0228000
X0375350Y0227350
Y0230350
X0372000Y0248500
X0353850Y0247850
X0341000Y0247000
X0335394Y0234394
X0332500Y0231000
X0330500Y0232000
X0319500Y0234500
X0332500Y0219000
X0333000Y0215000
X0334500Y0259944
X0334000Y0263500
X0396500Y0225500
X0400500Y0226500
X0459000Y0225000
X0457500Y0217000
X0455500Y0279500
X0310500Y0265574
X0304850Y0269350
X0295082Y0250582
X0267500Y0248750
X0274000Y0232500
X0253500Y0229000
X0250000Y0210500
X0247000
X0297000Y0217500
X0277850Y0264000
X0282350Y0292894
X0293350Y0303894
X0306043Y0303500
X0309846Y0303346
X0261000Y0304500
X0242500Y0307000
X0243500Y0291000
X0257000Y0323500
X0260950Y0320035
X0264500Y0318000
X0277500Y0322000
Y0326000
Y0330000
X0277000Y0334000
X0278806Y0341806
X0278500Y0346500
X0277500Y0351000
X0288091Y0355944
X0289000Y0359500
X0289500Y0368000
X0288850Y0371850
X0301500Y0366000
Y0356000
X0305500Y0342000
Y0339500
X0305350Y0336850
X0305500Y0330000
Y0327500
Y0325000
X0304500Y0318000
Y0315500
Y0313000
X0309202Y0313423
X0308423Y0317507
X0296500Y0327500
X0262116Y0339050
X0261500Y0343000
X0264990Y0381981
X0266500Y0385500
X0270000Y0389000
X0272500Y0408000
X0289000Y0413000
X0288000Y0415000
X0283500Y0447000
X0274000Y0446500
X0274500Y0442500
X0268500Y0437611
X0256500Y0437500
X0253500
Y0433000
X0256500
X0262500Y0431000
X0248500Y0425500
X0250000Y0420866
X0252953
X0236500Y0420000
X0234000
X0227000Y0415500
X0229500Y0411500
X0238000Y0408500
X0238500Y0404500
X0235500Y0402000
X0237000Y0385500
X0242000
X0230198Y0382369
X0228350Y0377850
X0213350Y0366850
X0204000Y0373000
X0203500Y0360000
X0212500Y0391000
Y0393000
X0212000Y0411500
X0223500Y0424000
Y0426000
X0222500Y0436000
Y0438000
X0231000Y0455500
X0233000Y0455350
X0238500Y0462500
X0222000Y0468500
X0263500Y0464500
X0262500Y0453000
X0259500Y0450000
X0292500Y0464500
X0294500
X0319000Y0464000
X0323500Y0464500
X0328201Y0463000
X0344000Y0465000
X0350500Y0423500
X0354000
X0350500Y0419500
X0354000Y0398500
X0354500Y0382000
X0360691Y0380476
X0360500Y0377000
X0363866Y0376162
X0363500Y0372500
X0367500
X0367000Y0377500
Y0381000
X0379000Y0380000
X0379425Y0372425
X0375500Y0372000
X0382575Y0374325
X0389000Y0375000
X0395000Y0374500
X0398500Y0372500
X0397500Y0379500
X0400500
X0408000Y0373000
Y0363500
X0413000Y0362000
X0417000Y0363000
X0421444Y0363444
X0421000Y0367000
X0417000Y0369500
X0416500Y0378500
X0415500Y0359000
X0416000Y0355768
X0418500Y0353000
X0419250Y0346500
X0415500Y0348000
X0416014Y0344014
X0414000Y0341000
X0433000Y0339500
X0433500Y0335944
X0432000Y0348000
X0433000Y0353500
X0425000Y0362500
X0398000Y0358500
X0399000Y0354500
Y0349000
X0394000
X0383000
X0382409Y0354380
X0375500Y0355000
X0369000Y0354500
X0368409Y0350909
X0362610Y0350419
X0358514Y0350986
X0355000Y0352500
X0353500Y0356500
X0347500Y0362000
X0347000Y0366500
X0350968Y0365944
X0350500Y0369500
X0356000Y0373000
X0360528Y0371000
X0347309Y0380476
X0341000Y0383500
X0325500Y0383000
X0323500Y0386444
X0324000Y0390000
X0326000Y0390500
X0324850Y0392350
X0314000Y0379000
X0333000Y0374500
X0330500Y0371556
X0329750Y0368000
X0328500Y0356000
X0328115Y0352444
X0331663Y0354050
X0331057Y0347556
X0332000Y0344000
X0326500Y0344500
X0321000
X0322000Y0337500
X0320500Y0329500
X0323000Y0326500
X0332500Y0330000
X0343000Y0328000
X0341500Y0324000
X0338000Y0319000
Y0315000
X0353558Y0314854
X0355472Y0318528
X0365000Y0314843
X0377500Y0314500
X0374500Y0322500
Y0331500
X0370276Y0333723
X0364500Y0332500
X0362500Y0344000
X0365000Y0347000
X0360500Y0347500
X0354000Y0340000
Y0336000
X0337500Y0339000
X0339500Y0342500
X0336500Y0350500
X0321000Y0362000
X0313514Y0426201
X0314000Y0430500
X0315500Y0432000
X0378500Y0435500
Y0437500
X0384000Y0434500
X0381110Y0404110
X0397000Y0404850
X0399000
X0406421Y0423500
X0407000Y0447500
X0414500Y0445956
X0418898Y0452362
X0420500Y0464000
X0458268Y0465945
X0449550Y0440056
X0450000Y0436500
X0430709Y0425000
X0431000Y0421500
X0421500Y0412000
X0458000Y0395000
X0460000Y0392500
X0461811Y0389961
X0459000Y0386500
X0454500Y0384500
Y0380500
Y0376500
X0455500Y0354000
X0453000
X0455500Y0329500
X0439000Y0316000
X0432000Y0315000
X0428000Y0326000
X0399888Y0326112
X0400000Y0330500
X0399000Y0334500
X0396500Y0337500
X0393000Y0334500
X0388713
X0386161Y0338161
X0379000Y0336500
X0383500Y0328500
X0390702Y0329298
X0394085Y0330944
X0392000Y0315500
X0401500Y0314000
X0402850Y0321500
X0391841Y0370341
X0385724Y0369792
X0388710Y0386790
X0465551Y0399213
X0470500Y0389000
X0473000Y0387000
X0474500Y0383500
X0470500Y0384500
X0481500Y0384000
X0487350Y0383850
X0489500Y0371957
X0494500Y0368500
X0501448Y0376800
X0514850Y0381350
X0510350Y0393350
X0507850Y0396850
X0503850Y0399150
X0506000Y0408500
X0515500Y0411000
X0517500Y0406500
X0529850Y0401850
X0527850Y0397350
X0531500Y0395500
X0537394Y0387894
X0537750Y0383750
X0545500Y0375500
X0546000Y0403500
X0545000Y0407500
X0539500
Y0411500
X0535000
X0534937Y0407350
X0529000Y0417500
X0530500Y0421500
X0523000Y0419500
X0521054Y0422583
X0515000Y0425000
X0523500Y0442000
X0540000Y0442500
X0540500Y0448000
X0545000Y0447500
Y0423665
X0490500Y0421500
X0485500Y0424500
X0481496Y0424409
Y0428740
X0485433
X0492717Y0432677
X0490000Y0411000
X0479500Y0411500
X0481500Y0400500
X0483000Y0394500
X0493000Y0393500
Y0398000
X0471000Y0465500
X0518500Y0468500
X0523000Y0465500
X0529000Y0324500
X0540567Y0323091
X0479350Y0320394
X0484850Y0474350
X0518500Y0472500
X0522500Y0481500
X0509000Y0489500
X0507000
X0510500Y0495500
X0513900Y0520800
X0488500Y0512500
X0545400Y0502700
X0544000Y0474000
X0458000Y0473000
X0439000Y0506500
X0420500Y0516000
X0417500Y0513500
X0418000Y0499043
X0413000Y0498500
X0408500
X0404000Y0499500
X0383071Y0504724
X0378346Y0496850
X0379000Y0495000
X0386000Y0489000
X0388000Y0517500
X0391500Y0515000
X0365500Y0517000
X0359500Y0514000
X0355944Y0514500
X0335236Y0516736
X0327756Y0517323
X0323500Y0484500
X0335000Y0474500
X0341000
X0310000Y0485500
X0292000Y0486000
X0280000Y0483500
X0261500Y0488000
X0256500Y0488500
X0256000Y0484000
X0244350Y0485350
X0244000Y0470500
X0248000Y0471488
X0233500Y0471000
X0233850Y0474850
X0222000Y0470500
X0228000Y0504000
X0229000Y0508000
X0226900Y0524100
X0207800Y0512600
X0270118Y0517717
X0283500Y0517500
X0295000Y0516000
X0289000Y0502000
X0290000Y0500000
T02
X0469350Y0252850
X0482850Y0262850
X0482846Y0265756
X0482850Y0268850
Y0286894
X0479850Y0292850
X0474850Y0289567
X0472953Y0297996
X0468850Y0296850
Y0312350
X0472854Y0312228
X0477185
X0481516
X0485847
X0490350Y0312350
Y0297394
X0501850Y0296850
X0496850Y0287394
X0502850Y0282350
Y0279350
Y0276350
X0518350Y0283850
X0519850Y0260350
X0523850
X0507850Y0231850
X0503850
X0488850Y0234350
X0484350Y0240350
X0485350Y0244850
X0468350Y0242350
X0465350
Y0235850
Y0232850
X0466350Y0252850
X0454000Y0256500
X0451500
X0452500Y0270000
X0441500Y0264500
X0442850Y0238764
X0433000Y0229000
X0443000Y0216500
X0443500Y0211000
Y0208000
X0422500Y0206000
X0417000
X0342850Y0232850
X0339850
X0337350Y0256350
X0356350Y0251350
X0313350Y0286850
Y0203850
X0444500Y0300000
X0451500Y0295000
X0461350Y0283350
X0463350Y0285350
X0465350Y0287350
X0310850Y0286850
X0308350
X0305850
X0309350Y0289350
X0309850Y0284350
X0293850Y0284894
Y0289394
X0288846Y0289059
X0284516
Y0284728
X0288846
X0280185
X0275854
Y0289059
X0271850Y0288894
Y0284394
X0262350Y0282350
X0263350Y0278350
X0264500Y0272500
X0271850Y0269350
X0275953Y0270496
X0282850Y0265350
X0286850Y0261850
X0293350Y0269894
X0299850Y0259894
X0304350Y0254394
Y0251394
Y0248394
X0302850Y0236850
X0303500Y0224500
X0288350Y0231850
X0277850Y0230350
X0276850Y0241850
X0273850
X0267850Y0254307
Y0257307
Y0260307
X0261850Y0257350
X0262850Y0253350
X0261850Y0249350
X0243350Y0263850
X0239350
X0248850Y0287350
X0250500Y0302000
X0241777Y0312450
X0225850Y0306350
X0225350Y0293350
X0229850
X0220350Y0296818
X0218595Y0285500
X0202350Y0296850
X0209850Y0310850
X0275953Y0304791
X0280350Y0304394
X0280185Y0289059
X0309350Y0260850
X0310850Y0202350
X0287850Y0203850
X0271850Y0202350
X0268350
X0264850
X0283350Y0219350
X0242846Y0225756
X0241846Y0229756
X0242846Y0233756
X0234500Y0215500
X0232000Y0216500
X0239277Y0316450
X0241777Y0317450
Y0314950
X0244277Y0316450
X0241777Y0319950
X0240850Y0328350
X0243350Y0332350
X0229350Y0322350
X0220000Y0326000
X0219850Y0330850
X0209850Y0331850
Y0328850
Y0325850
Y0322850
Y0319850
Y0316850
Y0313850
X0219500Y0316000
X0211000Y0336500
X0210850Y0343850
X0209850Y0346350
X0230850Y0346850
X0231350Y0349850
X0232850Y0353350
Y0356350
X0246850
X0265350Y0351350
X0267350Y0363850
X0269000Y0394000
X0267500Y0396500
X0270500
X0262350Y0396350
Y0393350
X0287500Y0388500
X0297850Y0397850
Y0400850
X0304331Y0411221
Y0415945
Y0424606
Y0429331
X0302362Y0438779
Y0445866
Y0452165
X0292520Y0451968
X0277165Y0419685
X0274410
X0271654
X0205500Y0426500
X0204500Y0452000
X0204000Y0468500
X0203000Y0381500
Y0378000
X0237350Y0370850
X0302500Y0370500
X0305500Y0379000
X0310000
X0292350Y0350350
Y0347350
X0285350Y0317394
X0269350Y0316350
X0267850Y0320394
Y0323394
X0264350Y0313850
X0261350
X0258350
X0335500Y0390500
X0333500Y0392500
X0331693Y0394685
X0363350Y0410850
X0366339Y0432283
X0370276
X0370079Y0435827
X0373622Y0433858
X0383858Y0426772
X0387008
X0390158
X0395850Y0427350
X0395669Y0424409
X0397850Y0425850
X0396850Y0410850
X0393850
X0399850
X0415500Y0400000
X0420147Y0399000
X0420000Y0401500
X0430709Y0411614
Y0416339
X0438976Y0439173
Y0446260
Y0452953
X0448032Y0453543
Y0446654
X0459134Y0446909
Y0451909
X0465236Y0451968
Y0446850
X0428740Y0446260
Y0452559
X0431850Y0463850
X0399850Y0465850
X0357087Y0447244
X0352165
X0340059Y0446457
Y0451575
X0333957Y0451516
Y0446516
X0321654Y0446260
Y0439370
X0312598Y0438779
Y0445866
Y0452559
X0321654Y0453150
X0353937Y0428543
X0426500Y0385000
X0430000Y0374000
X0448000Y0370500
X0449000Y0367000
X0448000Y0363500
X0441500Y0354000
Y0349000
X0444500Y0344000
X0446600Y0346000
X0456000Y0349000
X0464850Y0347894
Y0350894
Y0353894
X0468269Y0344408
X0460500Y0333500
X0457000Y0321021
X0436500Y0328500
X0423500Y0327000
X0419500Y0331500
X0415500Y0332500
X0417500Y0335500
X0449000Y0402000
X0469000Y0379000
Y0376000
X0482350Y0344894
X0477350Y0331894
X0472953Y0332291
X0472854Y0316559
X0468850Y0316394
X0477185Y0316559
X0481516
X0485847
X0490350Y0316850
X0494850Y0314350
X0498850Y0315350
X0503350Y0330350
X0508850Y0329850
X0511350
X0513850
X0519354Y0334850
X0514350Y0340350
X0509350
X0502350Y0340394
Y0343394
Y0346394
Y0353850
X0504350Y0354850
X0502350Y0356850
X0518350Y0350350
X0522850
X0530350Y0362307
Y0366850
X0540850Y0367850
Y0364850
X0542350Y0359850
X0543350Y0347350
X0542850Y0341350
X0490350Y0331394
X0496654Y0432677
Y0436614
X0500591
X0500787Y0441929
Y0445866
Y0449803
Y0453740
Y0457677
Y0461614
X0510000Y0452000
X0508850Y0435850
X0511350Y0434850
X0507500Y0431000
X0503500Y0431500
X0514957Y0420457
X0538000Y0432000
X0541000
X0540500Y0438500
X0527000Y0449500
X0478500
X0474500Y0457500
X0488350Y0468350
X0477559Y0474213
Y0478150
X0477500Y0481500
Y0485000
Y0495500
Y0498500
X0477559Y0501772
Y0505709
X0471654Y0513386
Y0517035
X0502953Y0508858
X0510350Y0476350
X0447244Y0492717
X0450787Y0504921
X0442913
X0400350Y0484850
X0382480Y0484842
X0384500Y0494500
X0387000
X0389500
X0388000Y0497000
X0385500
X0380709Y0474803
X0375984Y0470866
X0351181Y0473819
Y0477756
Y0481693
Y0485630
Y0489567
Y0493504
X0351500Y0497000
X0348031Y0514567
X0329528Y0503937
X0320866Y0505905
X0320472Y0493307
X0271000Y0503000
X0260500Y0497000
X0258000
X0257000Y0494500
X0259500
X0262000
X0251500Y0498000
X0240000Y0501500
X0236500
X0227500Y0497500
X0235850Y0484850
X0243850Y0489850
Y0478850
X0247500Y0477000
X0252000Y0473500
X0254500Y0475000
X0262000Y0511000
Y0514000
X0241000Y0516000
X0236500
X0209500Y0476000
X0206500
X0210500Y0469000
T03
X0221150Y0347350
X0224350
T04
X0474118Y0216201
X0481992
X0531496Y0248031
Y0255906
Y0263779
Y0271654
X0539370
Y0263779
Y0255906
Y0248031
X0535500Y0302126
Y0310000
X0396811Y0220073
X0388937
X0381063
X0373189
X0365315
X0357441
X0349567
X0341693
Y0212199
X0349567
X0357441
X0365315
X0373189
X0381063
X0388937
X0396811
X0216535Y0248031
X0208661
Y0255906
Y0263779
X0216535
Y0255906
Y0271654
X0208661
X0529528Y0468504
X0537402
Y0476378
Y0484252
Y0492126
X0529528
Y0484252
Y0476378
Y0500000
X0537402
X0212500
Y0492126
T05
X0490850Y0206850
Y0225551
X0526181Y0239173
X0544882
X0544783Y0280512
X0544850Y0293268
X0526150
X0526083Y0280512
X0465260Y0225551
Y0206850
X0405670Y0206785
X0405670Y0225486
X0332835
Y0206785
X0221949Y0239173
X0203248
X0203150Y0280512
X0221850
X0526150Y0318858
X0544850
X0542913Y0459646
X0524213
X0524114Y0508858
X0542815
X0221850
X0203150
Y0483268
X0221850
T06
X0476758Y0523656
Y0533656
X0486758
X0496758
Y0523656
X0486758
X0486756Y0543655
X0496756
Y0553655
X0486756
X0476756
Y0543655
X0466756
X0456756
X0446756
Y0553655
X0456756
X0466756
X0466758Y0533656
X0456758
X0446758
Y0523656
X0456758
X0466758
X0436758
X0426758
X0416758
X0406758
X0396758
Y0533656
X0406758
X0416758
X0426758
X0436758
X0436756Y0543655
X0426756
X0416756
X0406756
X0396756
Y0553655
X0406756
X0416756
X0426756
X0436756
X0386756
X0376756
X0366756
X0356756
X0346756
Y0543655
X0356756
X0366756
X0376756
X0386756
X0386758Y0533656
X0376758
X0366758
X0356758
X0346758
Y0523656
X0356758
X0366758
X0376758
X0386758
X0336758
X0326758
X0316758
Y0533656
X0326758
X0336758
X0336756Y0543655
X0326756
X0316756
Y0553655
X0326756
X0336756
X0306756
X0296756
Y0543655
X0306756
X0306758Y0533656
X0296758
Y0523656
X0306758
X0286758
Y0533656
X0276758
Y0523656
X0266758
Y0533656
X0256758
Y0523656
X0246758
Y0533656
X0246756Y0543655
X0256756
X0266756
X0276756
X0286756
Y0553655
X0276756
X0266756
X0256756
X0246756
T07
X0526764Y0216165
X0211756Y0216138
X0516762Y0553683
X0226756Y0553655
M30
