G04 Layer_Physical_Order=3*
G04 Layer_Color=36540*
%FSAX25Y25*%
%MOIN*%
G70*
G01*
G75*
%ADD24C,0.01200*%
%ADD25C,0.00591*%
%ADD26C,0.01000*%
%ADD34C,0.03937*%
%ADD37C,0.03150*%
%ADD38C,0.02559*%
G36*
X0060731Y-0054022D02*
X0060618Y-0053942D01*
X0060393Y-0053807D01*
X0060281Y-0053752D01*
X0060168Y-0053706D01*
X0060055Y-0053668D01*
X0059942Y-0053638D01*
X0059829Y-0053617D01*
X0059715Y-0053604D01*
X0059602Y-0053600D01*
Y-0052400D01*
X0059715Y-0052396D01*
X0059829Y-0052383D01*
X0059942Y-0052362D01*
X0060055Y-0052332D01*
X0060168Y-0052294D01*
X0060281Y-0052248D01*
X0060393Y-0052193D01*
X0060506Y-0052130D01*
X0060618Y-0052058D01*
X0060731Y-0051978D01*
Y-0054022D01*
D02*
G37*
G36*
X0096906Y-0052711D02*
X0096870Y-0052749D01*
X0096809Y-0052822D01*
X0096783Y-0052858D01*
X0096760Y-0052895D01*
X0096741Y-0052930D01*
X0096724Y-0052966D01*
X0096711Y-0053001D01*
X0096702Y-0053036D01*
X0096695Y-0053070D01*
X0096130Y-0052505D01*
X0096164Y-0052499D01*
X0096199Y-0052489D01*
X0096234Y-0052476D01*
X0096270Y-0052459D01*
X0096306Y-0052440D01*
X0096342Y-0052417D01*
X0096378Y-0052391D01*
X0096415Y-0052362D01*
X0096489Y-0052294D01*
X0096906Y-0052711D01*
D02*
G37*
G36*
X0072386Y-0061973D02*
Y-0091200D01*
X0072486Y-0091703D01*
X0072771Y-0092129D01*
X0075545Y-0094903D01*
X0075380Y-0095446D01*
X0074874Y-0095546D01*
X0074222Y-0095981D01*
X0073787Y-0096632D01*
X0073648Y-0097331D01*
X0073579Y-0097478D01*
X0073539Y-0097533D01*
X0073271Y-0097781D01*
X0073193Y-0097797D01*
X0073114D01*
X0073114Y-0097797D01*
X0072577Y-0097904D01*
X0072577D01*
X0072504Y-0097934D01*
X0072426Y-0097949D01*
X0072360Y-0097993D01*
X0072287Y-0098024D01*
X0072287Y-0098024D01*
X0071831Y-0098328D01*
X0071831Y-0098328D01*
X0071775Y-0098384D01*
X0071710Y-0098428D01*
X0071666Y-0098494D01*
X0071610Y-0098550D01*
X0071305Y-0099005D01*
X0071305Y-0099006D01*
X0071275Y-0099079D01*
X0071231Y-0099144D01*
X0071216Y-0099222D01*
X0071185Y-0099295D01*
Y-0099295D01*
X0071078Y-0099832D01*
X0071078Y-0099832D01*
Y-0099912D01*
X0071063Y-0099989D01*
X0071078Y-0100067D01*
Y-0100146D01*
X0071078Y-0100146D01*
X0071185Y-0100683D01*
Y-0100683D01*
X0071216Y-0100757D01*
X0071231Y-0100834D01*
X0071275Y-0100900D01*
X0071305Y-0100973D01*
X0071305Y-0100973D01*
X0071610Y-0101429D01*
X0071610Y-0101429D01*
X0071666Y-0101485D01*
X0071710Y-0101550D01*
X0071775Y-0101594D01*
X0071831Y-0101650D01*
X0072287Y-0101955D01*
X0072287Y-0101955D01*
X0072360Y-0101985D01*
X0072426Y-0102029D01*
X0072504Y-0102044D01*
X0072577Y-0102075D01*
X0072577D01*
X0073114Y-0102181D01*
X0073114Y-0102181D01*
X0073193D01*
X0073271Y-0102197D01*
X0073348Y-0102181D01*
X0073427D01*
X0073427Y-0102181D01*
X0073965Y-0102075D01*
X0073965D01*
X0074038Y-0102044D01*
X0074116Y-0102029D01*
X0074181Y-0101985D01*
X0074255Y-0101955D01*
X0074255Y-0101955D01*
X0074710Y-0101650D01*
X0074710Y-0101650D01*
X0074766Y-0101594D01*
X0074832Y-0101550D01*
X0074876Y-0101485D01*
X0074932Y-0101429D01*
X0075236Y-0100973D01*
X0075236Y-0100973D01*
X0075267Y-0100900D01*
X0075311Y-0100834D01*
X0075326Y-0100757D01*
X0075356Y-0100683D01*
Y-0100683D01*
X0075463Y-0100146D01*
X0075463Y-0100146D01*
Y-0100106D01*
X0075593Y-0099982D01*
X0075795Y-0099850D01*
X0075829Y-0099868D01*
X0076068Y-0100012D01*
X0076078Y-0100067D01*
Y-0100146D01*
X0076078Y-0100146D01*
X0076186Y-0100683D01*
Y-0100683D01*
X0076216Y-0100757D01*
X0076231Y-0100834D01*
X0076275Y-0100900D01*
X0076305Y-0100973D01*
X0076305Y-0100973D01*
X0076610Y-0101429D01*
X0076610Y-0101429D01*
X0076666Y-0101485D01*
X0076710Y-0101550D01*
X0076775Y-0101594D01*
X0076831Y-0101650D01*
X0077287Y-0101955D01*
X0077287Y-0101955D01*
X0077360Y-0101985D01*
X0077426Y-0102029D01*
X0077504Y-0102044D01*
X0077577Y-0102075D01*
X0077577D01*
X0078114Y-0102181D01*
X0078114Y-0102181D01*
X0078193D01*
X0078271Y-0102197D01*
X0078348Y-0102181D01*
X0078427D01*
X0078427Y-0102181D01*
X0078965Y-0102075D01*
X0078965D01*
X0079038Y-0102044D01*
X0079116Y-0102029D01*
X0079181Y-0101985D01*
X0079255Y-0101955D01*
X0079255Y-0101955D01*
X0079386Y-0101867D01*
X0079886Y-0102134D01*
Y-0108244D01*
X0078905Y-0109225D01*
X0078898Y-0109230D01*
X0078830Y-0109272D01*
X0078756Y-0109310D01*
X0078519Y-0109406D01*
X0078460Y-0109424D01*
X0078344Y-0109339D01*
X0078150Y-0108989D01*
X0078320Y-0108734D01*
X0078473Y-0107966D01*
X0078320Y-0107198D01*
X0077885Y-0106547D01*
X0077234Y-0106112D01*
X0076466Y-0105959D01*
X0075698Y-0106112D01*
X0075047Y-0106547D01*
X0074612Y-0107198D01*
X0074459Y-0107966D01*
X0074612Y-0108734D01*
X0075047Y-0109385D01*
X0075698Y-0109820D01*
X0076203Y-0109921D01*
X0076453Y-0110447D01*
X0076138Y-0110917D01*
X0076026Y-0111483D01*
X0075516D01*
X0075403Y-0110917D01*
X0074903Y-0110168D01*
X0074154Y-0109668D01*
X0073271Y-0109492D01*
X0072388Y-0109668D01*
X0071639Y-0110168D01*
X0071138Y-0110917D01*
X0071026Y-0111483D01*
X0070516D01*
X0070403Y-0110917D01*
X0069903Y-0110168D01*
X0069154Y-0109668D01*
X0068271Y-0109492D01*
X0067388Y-0109668D01*
X0066639Y-0110168D01*
X0066138Y-0110917D01*
X0066026Y-0111483D01*
X0065516D01*
X0065403Y-0110917D01*
X0064903Y-0110168D01*
X0064154Y-0109668D01*
X0063271Y-0109492D01*
X0062388Y-0109668D01*
X0061639Y-0110168D01*
X0061138Y-0110917D01*
X0061026Y-0111483D01*
X0060516D01*
X0060403Y-0110917D01*
X0059903Y-0110168D01*
X0059154Y-0109668D01*
X0058271Y-0109492D01*
X0057388Y-0109668D01*
X0056639Y-0110168D01*
X0056138Y-0110917D01*
X0056026Y-0111483D01*
X0055516D01*
X0055403Y-0110917D01*
X0054903Y-0110168D01*
X0054154Y-0109668D01*
X0053271Y-0109492D01*
X0052388Y-0109668D01*
X0051639Y-0110168D01*
X0051138Y-0110917D01*
X0051026Y-0111483D01*
X0050516D01*
X0050403Y-0110917D01*
X0049903Y-0110168D01*
X0049154Y-0109668D01*
X0048271Y-0109492D01*
X0047388Y-0109668D01*
X0046639Y-0110168D01*
X0046138Y-0110917D01*
X0046026Y-0111483D01*
X0045516D01*
X0045403Y-0110917D01*
X0044903Y-0110168D01*
X0044154Y-0109668D01*
X0043271Y-0109492D01*
X0042388Y-0109668D01*
X0041639Y-0110168D01*
X0041138Y-0110917D01*
X0041026Y-0111483D01*
X0040516D01*
X0040403Y-0110917D01*
X0039903Y-0110168D01*
X0039154Y-0109668D01*
X0038271Y-0109492D01*
X0037388Y-0109668D01*
X0036639Y-0110168D01*
X0036138Y-0110917D01*
X0035963Y-0111800D01*
X0036138Y-0112683D01*
X0036639Y-0113432D01*
X0037388Y-0113933D01*
X0037398Y-0113935D01*
X0037349Y-0114435D01*
X0014950D01*
X0014782Y-0113964D01*
X0015143Y-0113668D01*
X0016213Y-0112364D01*
X0017008Y-0110876D01*
X0017497Y-0109262D01*
X0017663Y-0107583D01*
X0017497Y-0105905D01*
X0017008Y-0104291D01*
X0016213Y-0102803D01*
X0015143Y-0101499D01*
X0013839Y-0100429D01*
X0012351Y-0099634D01*
X0010737Y-0099144D01*
X0009058Y-0098979D01*
X0007380Y-0099144D01*
X0005765Y-0099634D01*
X0004278Y-0100429D01*
X0002974Y-0101499D01*
X0002678Y-0101860D01*
X0002207Y-0101692D01*
Y-0078876D01*
X0002707Y-0078827D01*
X0002792Y-0079254D01*
X0003292Y-0080003D01*
X0004041Y-0080503D01*
X0004529Y-0080600D01*
X0004592Y-0080624D01*
X0004791Y-0080655D01*
X0004954Y-0080687D01*
X0005260Y-0080767D01*
X0005372Y-0080805D01*
X0005473Y-0080847D01*
X0005556Y-0080888D01*
X0005620Y-0080927D01*
X0005625Y-0080930D01*
X0010424Y-0085729D01*
X0010851Y-0086014D01*
X0011354Y-0086114D01*
X0046698D01*
X0047201Y-0086014D01*
X0047628Y-0085729D01*
X0057629Y-0075728D01*
X0057914Y-0075301D01*
X0058014Y-0074799D01*
Y-0060376D01*
X0058514Y-0060109D01*
X0058732Y-0060254D01*
X0059500Y-0060407D01*
X0060268Y-0060254D01*
X0060919Y-0059819D01*
X0061354Y-0059168D01*
X0061507Y-0058400D01*
X0061354Y-0057632D01*
X0060919Y-0056981D01*
X0060268Y-0056546D01*
X0059500Y-0056393D01*
X0058909Y-0056511D01*
X0058446Y-0056278D01*
X0058357Y-0056195D01*
X0058332Y-0056027D01*
X0059973Y-0054385D01*
X0059993Y-0054393D01*
X0060058Y-0054425D01*
X0060233Y-0054530D01*
X0060322Y-0054594D01*
X0060384Y-0054622D01*
X0060732Y-0054854D01*
X0061500Y-0055007D01*
X0062268Y-0054854D01*
X0062919Y-0054419D01*
X0063354Y-0053768D01*
X0063388Y-0053599D01*
X0063866Y-0053454D01*
X0072386Y-0061973D01*
D02*
G37*
G36*
X0015112Y-0066883D02*
X0015009Y-0067021D01*
X0014836Y-0067283D01*
X0014765Y-0067407D01*
X0014706Y-0067527D01*
X0014657Y-0067642D01*
X0014619Y-0067753D01*
X0014592Y-0067859D01*
X0014575Y-0067961D01*
X0014570Y-0068058D01*
X0013570Y-0068032D01*
X0013565Y-0067933D01*
X0013550Y-0067830D01*
X0013525Y-0067722D01*
X0013489Y-0067610D01*
X0013444Y-0067494D01*
X0013388Y-0067374D01*
X0013323Y-0067250D01*
X0013161Y-0066990D01*
X0013066Y-0066853D01*
X0015112Y-0066883D01*
D02*
G37*
G36*
X0020368Y-0061294D02*
X0020374Y-0061311D01*
X0020387Y-0061333D01*
X0020405Y-0061360D01*
X0020431Y-0061393D01*
X0020501Y-0061473D01*
X0020654Y-0061632D01*
X0019946Y-0062339D01*
X0019888Y-0062281D01*
X0019648Y-0062072D01*
X0019626Y-0062059D01*
X0019608Y-0062053D01*
X0019596Y-0062053D01*
X0020368Y-0061281D01*
X0020368Y-0061294D01*
D02*
G37*
G36*
X0063303Y-0046021D02*
X0063522Y-0046242D01*
X0063629Y-0046331D01*
X0063735Y-0046407D01*
X0063840Y-0046469D01*
X0063942Y-0046518D01*
X0064044Y-0046552D01*
X0064143Y-0046573D01*
X0064242Y-0046580D01*
X0063655Y-0047780D01*
X0063515Y-0047780D01*
X0062964Y-0047814D01*
X0062884Y-0047827D01*
X0062753Y-0047858D01*
X0062703Y-0047877D01*
X0063191Y-0045890D01*
X0063303Y-0046021D01*
D02*
G37*
G36*
X0032005Y-0044753D02*
X0032021Y-0044855D01*
X0032047Y-0044962D01*
X0032084Y-0045074D01*
X0032131Y-0045189D01*
X0032188Y-0045309D01*
X0032256Y-0045433D01*
X0032424Y-0045695D01*
X0032523Y-0045832D01*
X0030477D01*
X0030576Y-0045695D01*
X0030744Y-0045433D01*
X0030812Y-0045309D01*
X0030869Y-0045189D01*
X0030916Y-0045074D01*
X0030953Y-0044962D01*
X0030979Y-0044855D01*
X0030995Y-0044753D01*
X0031000Y-0044655D01*
X0032000D01*
X0032005Y-0044753D01*
D02*
G37*
G36*
X0111839Y-0049930D02*
X0111598Y-0049967D01*
X0110983Y-0050098D01*
X0110815Y-0050149D01*
X0110533Y-0050259D01*
X0110419Y-0050319D01*
X0110324Y-0050382D01*
X0110247Y-0050449D01*
X0109540Y-0049741D01*
X0109606Y-0049664D01*
X0109669Y-0049569D01*
X0109729Y-0049455D01*
X0109786Y-0049323D01*
X0109840Y-0049173D01*
X0109937Y-0048818D01*
X0109980Y-0048613D01*
X0110058Y-0048149D01*
X0111839Y-0049930D01*
D02*
G37*
G36*
X0101000Y-0051271D02*
X0100971Y-0051251D01*
X0100939Y-0051233D01*
X0100905Y-0051217D01*
X0100868Y-0051204D01*
X0100829Y-0051192D01*
X0100788Y-0051183D01*
X0100744Y-0051175D01*
X0100697Y-0051170D01*
X0100596Y-0051166D01*
Y-0050576D01*
X0100648Y-0050574D01*
X0100744Y-0050566D01*
X0100788Y-0050559D01*
X0100829Y-0050550D01*
X0100868Y-0050538D01*
X0100905Y-0050524D01*
X0100939Y-0050509D01*
X0100971Y-0050491D01*
X0101000Y-0050471D01*
Y-0051271D01*
D02*
G37*
G36*
X0063047Y-0049927D02*
X0062434Y-0051011D01*
X0062363Y-0050952D01*
X0062281Y-0050905D01*
X0062188Y-0050872D01*
X0062085Y-0050851D01*
X0061972Y-0050844D01*
X0061847Y-0050849D01*
X0061713Y-0050867D01*
X0061567Y-0050898D01*
X0061411Y-0050943D01*
X0061244Y-0051000D01*
X0061835Y-0049047D01*
X0063047Y-0049927D01*
D02*
G37*
G36*
X0110671Y-0069630D02*
X0110474Y-0069485D01*
X0109948Y-0069144D01*
X0109793Y-0069061D01*
X0109650Y-0068992D01*
X0109516Y-0068939D01*
X0109393Y-0068901D01*
X0109281Y-0068879D01*
X0109179Y-0068871D01*
Y-0067871D01*
X0109281Y-0067863D01*
X0109393Y-0067840D01*
X0109516Y-0067803D01*
X0109650Y-0067750D01*
X0109793Y-0067681D01*
X0109948Y-0067598D01*
X0110288Y-0067385D01*
X0110671Y-0067112D01*
Y-0069630D01*
D02*
G37*
G36*
X0006517Y-0078360D02*
X0006599Y-0078740D01*
X0006648Y-0078910D01*
X0006760Y-0079209D01*
X0006824Y-0079338D01*
X0006893Y-0079454D01*
X0006967Y-0079556D01*
X0007046Y-0079644D01*
X0006198Y-0080493D01*
X0006109Y-0080414D01*
X0006007Y-0080340D01*
X0005892Y-0080271D01*
X0005763Y-0080207D01*
X0005620Y-0080148D01*
X0005464Y-0080094D01*
X0005110Y-0080002D01*
X0004913Y-0079963D01*
X0004703Y-0079930D01*
X0006483Y-0078149D01*
X0006517Y-0078360D01*
D02*
G37*
G36*
X0030732Y-0078223D02*
X0030595Y-0078124D01*
X0030333Y-0077956D01*
X0030209Y-0077888D01*
X0030089Y-0077831D01*
X0029974Y-0077784D01*
X0029862Y-0077747D01*
X0029755Y-0077721D01*
X0029653Y-0077705D01*
X0029555Y-0077700D01*
Y-0076700D01*
X0029653Y-0076695D01*
X0029755Y-0076679D01*
X0029862Y-0076653D01*
X0029974Y-0076616D01*
X0030089Y-0076569D01*
X0030209Y-0076512D01*
X0030333Y-0076444D01*
X0030595Y-0076276D01*
X0030732Y-0076177D01*
Y-0078223D01*
D02*
G37*
G36*
X0040251Y-0078737D02*
X0040335Y-0078798D01*
X0040429Y-0078855D01*
X0040533Y-0078908D01*
X0040648Y-0078956D01*
X0040774Y-0079000D01*
X0040910Y-0079040D01*
X0041213Y-0079106D01*
X0041380Y-0079133D01*
X0039933Y-0080580D01*
X0039906Y-0080413D01*
X0039840Y-0080110D01*
X0039800Y-0079974D01*
X0039756Y-0079848D01*
X0039708Y-0079733D01*
X0039655Y-0079629D01*
X0039598Y-0079535D01*
X0039536Y-0079451D01*
X0039471Y-0079378D01*
X0040178Y-0078671D01*
X0040251Y-0078737D01*
D02*
G37*
G36*
X0080367Y-0110469D02*
X0080290Y-0110556D01*
X0080218Y-0110658D01*
X0080151Y-0110774D01*
X0080090Y-0110904D01*
X0080034Y-0111048D01*
X0079984Y-0111207D01*
X0079938Y-0111380D01*
X0079864Y-0111770D01*
X0079835Y-0111986D01*
X0078013Y-0110247D01*
X0078218Y-0110209D01*
X0078589Y-0110120D01*
X0078755Y-0110068D01*
X0079049Y-0109950D01*
X0079177Y-0109883D01*
X0079293Y-0109812D01*
X0079395Y-0109736D01*
X0079485Y-0109655D01*
X0080367Y-0110469D01*
D02*
G37*
G36*
X0035680Y-0081567D02*
X0035513Y-0081594D01*
X0035210Y-0081660D01*
X0035074Y-0081700D01*
X0034948Y-0081744D01*
X0034833Y-0081792D01*
X0034729Y-0081845D01*
X0034635Y-0081902D01*
X0034551Y-0081963D01*
X0034478Y-0082029D01*
X0033771Y-0081322D01*
X0033836Y-0081249D01*
X0033898Y-0081165D01*
X0033955Y-0081071D01*
X0034008Y-0080967D01*
X0034056Y-0080852D01*
X0034100Y-0080726D01*
X0034140Y-0080590D01*
X0034207Y-0080287D01*
X0034233Y-0080120D01*
X0035680Y-0081567D01*
D02*
G37*
G36*
X0101337Y-0076271D02*
X0101308Y-0076251D01*
X0101276Y-0076233D01*
X0101242Y-0076217D01*
X0101205Y-0076204D01*
X0101166Y-0076192D01*
X0101125Y-0076183D01*
X0101081Y-0076175D01*
X0101034Y-0076170D01*
X0100934Y-0076166D01*
Y-0075576D01*
X0100985Y-0075574D01*
X0101081Y-0075566D01*
X0101125Y-0075559D01*
X0101166Y-0075550D01*
X0101205Y-0075538D01*
X0101242Y-0075524D01*
X0101276Y-0075509D01*
X0101308Y-0075491D01*
X0101337Y-0075471D01*
Y-0076271D01*
D02*
G37*
G36*
X0085505Y-0070753D02*
X0085521Y-0070855D01*
X0085547Y-0070962D01*
X0085584Y-0071074D01*
X0085631Y-0071189D01*
X0085688Y-0071309D01*
X0085756Y-0071433D01*
X0085924Y-0071694D01*
X0086023Y-0071832D01*
X0083977D01*
X0084076Y-0071694D01*
X0084244Y-0071433D01*
X0084312Y-0071309D01*
X0084369Y-0071189D01*
X0084416Y-0071074D01*
X0084453Y-0070962D01*
X0084479Y-0070855D01*
X0084495Y-0070753D01*
X0084500Y-0070654D01*
X0085500D01*
X0085505Y-0070753D01*
D02*
G37*
G36*
X0098458Y-0075491D02*
X0098490Y-0075509D01*
X0098524Y-0075524D01*
X0098561Y-0075538D01*
X0098600Y-0075550D01*
X0098641Y-0075559D01*
X0098685Y-0075566D01*
X0098732Y-0075571D01*
X0098833Y-0075576D01*
Y-0076166D01*
X0098781Y-0076167D01*
X0098685Y-0076175D01*
X0098641Y-0076183D01*
X0098600Y-0076192D01*
X0098561Y-0076204D01*
X0098524Y-0076217D01*
X0098490Y-0076233D01*
X0098458Y-0076251D01*
X0098429Y-0076271D01*
Y-0075471D01*
X0098458Y-0075491D01*
D02*
G37*
G36*
X0097829Y-0076878D02*
X0097764Y-0076951D01*
X0097702Y-0077035D01*
X0097645Y-0077129D01*
X0097592Y-0077233D01*
X0097544Y-0077348D01*
X0097500Y-0077474D01*
X0097460Y-0077610D01*
X0097394Y-0077913D01*
X0097367Y-0078080D01*
X0095920Y-0076633D01*
X0096087Y-0076607D01*
X0096390Y-0076540D01*
X0096526Y-0076500D01*
X0096652Y-0076456D01*
X0096767Y-0076408D01*
X0096871Y-0076355D01*
X0096965Y-0076298D01*
X0097049Y-0076236D01*
X0097122Y-0076171D01*
X0097829Y-0076878D01*
D02*
G37*
G36*
X0020424Y-0075968D02*
X0020464Y-0076296D01*
X0020492Y-0076441D01*
X0020526Y-0076574D01*
X0020565Y-0076694D01*
X0020609Y-0076801D01*
X0020659Y-0076896D01*
X0020715Y-0076978D01*
X0020775Y-0077048D01*
X0019954Y-0077641D01*
X0019876Y-0077569D01*
X0019791Y-0077501D01*
X0019698Y-0077436D01*
X0019598Y-0077376D01*
X0019490Y-0077319D01*
X0019375Y-0077266D01*
X0019122Y-0077172D01*
X0018984Y-0077131D01*
X0018838Y-0077094D01*
X0020412Y-0075786D01*
X0020424Y-0075968D01*
D02*
G37*
G36*
X0059965Y-0041811D02*
X0060054Y-0041882D01*
X0060149Y-0041947D01*
X0060250Y-0042006D01*
X0060357Y-0042059D01*
X0060470Y-0042106D01*
X0060588Y-0042147D01*
X0060713Y-0042182D01*
X0060844Y-0042210D01*
X0060980Y-0042233D01*
X0059533Y-0043680D01*
X0059510Y-0043544D01*
X0059447Y-0043288D01*
X0059406Y-0043170D01*
X0059359Y-0043057D01*
X0059306Y-0042950D01*
X0059247Y-0042849D01*
X0059182Y-0042754D01*
X0059111Y-0042665D01*
X0059034Y-0042582D01*
X0059882Y-0041734D01*
X0059965Y-0041811D01*
D02*
G37*
G36*
X0040424Y-0032206D02*
X0040256Y-0032467D01*
X0040188Y-0032591D01*
X0040131Y-0032711D01*
X0040084Y-0032827D01*
X0040047Y-0032938D01*
X0040021Y-0033045D01*
X0040005Y-0033147D01*
X0040000Y-0033246D01*
X0039000D01*
X0038995Y-0033147D01*
X0038979Y-0033045D01*
X0038953Y-0032938D01*
X0038916Y-0032827D01*
X0038869Y-0032711D01*
X0038812Y-0032591D01*
X0038744Y-0032467D01*
X0038576Y-0032206D01*
X0038477Y-0032068D01*
X0040523D01*
X0040424Y-0032206D01*
D02*
G37*
G36*
X0044024Y-0035105D02*
X0043856Y-0035367D01*
X0043788Y-0035491D01*
X0043731Y-0035611D01*
X0043684Y-0035726D01*
X0043647Y-0035838D01*
X0043621Y-0035945D01*
X0043605Y-0036047D01*
X0043600Y-0036145D01*
X0042600D01*
X0042595Y-0036047D01*
X0042579Y-0035945D01*
X0042553Y-0035838D01*
X0042516Y-0035726D01*
X0042469Y-0035611D01*
X0042412Y-0035491D01*
X0042344Y-0035367D01*
X0042176Y-0035105D01*
X0042077Y-0034968D01*
X0044123D01*
X0044024Y-0035105D01*
D02*
G37*
G36*
X0101760Y-0002778D02*
X0101399Y-0003074D01*
X0100329Y-0004378D01*
X0099534Y-0005866D01*
X0099044Y-0007480D01*
X0098879Y-0009158D01*
X0099044Y-0010837D01*
X0099534Y-0012451D01*
X0100329Y-0013939D01*
X0101399Y-0015243D01*
X0102703Y-0016313D01*
X0104191Y-0017108D01*
X0105805Y-0017597D01*
X0107483Y-0017763D01*
X0109162Y-0017597D01*
X0110776Y-0017108D01*
X0112264Y-0016313D01*
X0113568Y-0015243D01*
X0113864Y-0014882D01*
X0114335Y-0015050D01*
Y-0037866D01*
X0113835Y-0037915D01*
X0113750Y-0037488D01*
X0113249Y-0036739D01*
X0112501Y-0036238D01*
X0111617Y-0036063D01*
X0110734Y-0036238D01*
X0110320Y-0036515D01*
X0110259Y-0036543D01*
X0110097Y-0036661D01*
X0109959Y-0036754D01*
X0109685Y-0036914D01*
X0109580Y-0036966D01*
X0109478Y-0037008D01*
X0109391Y-0037037D01*
X0109318Y-0037056D01*
X0109312Y-0037057D01*
X0106715D01*
X0105330Y-0035671D01*
X0105475Y-0035193D01*
X0105668Y-0035154D01*
X0106319Y-0034719D01*
X0106754Y-0034068D01*
X0106907Y-0033300D01*
X0106754Y-0032532D01*
X0106319Y-0031881D01*
X0105668Y-0031446D01*
X0104900Y-0031293D01*
X0104132Y-0031446D01*
X0103481Y-0031881D01*
X0103046Y-0032532D01*
X0102893Y-0033300D01*
X0102960Y-0033636D01*
X0102549Y-0034136D01*
X0097093D01*
X0096590Y-0034236D01*
X0096164Y-0034521D01*
X0084819Y-0045865D01*
X0064206D01*
X0064206Y-0045865D01*
X0064169Y-0045848D01*
X0064120Y-0045819D01*
X0064060Y-0045775D01*
X0063997Y-0045723D01*
X0063819Y-0045544D01*
X0063725Y-0045434D01*
X0063718Y-0045428D01*
X0063619Y-0045281D01*
X0062968Y-0044846D01*
X0062792Y-0044811D01*
X0062600Y-0044349D01*
X0062654Y-0044268D01*
X0062807Y-0043500D01*
X0062654Y-0042732D01*
X0062219Y-0042081D01*
X0061568Y-0041646D01*
X0061160Y-0041565D01*
X0061096Y-0041540D01*
X0060977Y-0041521D01*
X0060884Y-0041500D01*
X0060798Y-0041476D01*
X0060719Y-0041449D01*
X0060648Y-0041419D01*
X0060584Y-0041387D01*
X0060525Y-0041353D01*
X0060482Y-0041323D01*
X0055254Y-0036096D01*
X0054828Y-0035811D01*
X0054325Y-0035711D01*
X0053069D01*
X0034991Y-0017632D01*
Y-0010163D01*
X0037570Y-0007584D01*
X0037575Y-0007580D01*
X0037640Y-0007542D01*
X0037701Y-0007511D01*
X0037887Y-0007556D01*
X0038110Y-0008107D01*
X0037986Y-0008291D01*
X0037833Y-0009059D01*
X0037986Y-0009827D01*
X0038421Y-0010479D01*
X0039072Y-0010914D01*
X0039841Y-0011067D01*
X0040609Y-0010914D01*
X0041260Y-0010479D01*
X0041695Y-0009827D01*
X0041848Y-0009059D01*
X0041695Y-0008291D01*
X0041260Y-0007640D01*
X0040609Y-0007205D01*
X0040126Y-0007109D01*
X0040038Y-0006932D01*
X0039963Y-0006567D01*
X0040403Y-0005908D01*
X0040516Y-0005341D01*
X0041026D01*
X0041138Y-0005908D01*
X0041639Y-0006656D01*
X0042388Y-0007157D01*
X0043271Y-0007333D01*
X0044154Y-0007157D01*
X0044903Y-0006656D01*
X0045403Y-0005908D01*
X0045516Y-0005341D01*
X0046026D01*
X0046138Y-0005908D01*
X0046639Y-0006656D01*
X0047388Y-0007157D01*
X0048271Y-0007333D01*
X0049154Y-0007157D01*
X0049903Y-0006656D01*
X0050403Y-0005908D01*
X0050516Y-0005341D01*
X0051026D01*
X0051138Y-0005908D01*
X0051639Y-0006656D01*
X0052388Y-0007157D01*
X0053271Y-0007333D01*
X0054154Y-0007157D01*
X0054903Y-0006656D01*
X0055403Y-0005908D01*
X0055516Y-0005341D01*
X0056026D01*
X0056138Y-0005908D01*
X0056578Y-0006566D01*
X0056551Y-0006734D01*
X0056493Y-0006885D01*
X0056370Y-0007078D01*
X0055732Y-0007205D01*
X0055081Y-0007640D01*
X0054646Y-0008291D01*
X0054493Y-0009059D01*
X0054646Y-0009827D01*
X0055081Y-0010479D01*
X0055732Y-0010914D01*
X0056500Y-0011067D01*
X0057268Y-0010914D01*
X0057919Y-0010479D01*
X0058354Y-0009827D01*
X0058507Y-0009059D01*
X0058354Y-0008291D01*
X0058021Y-0007793D01*
X0058271Y-0007333D01*
X0059154Y-0007157D01*
X0059903Y-0006656D01*
X0060403Y-0005908D01*
X0060516Y-0005341D01*
X0061026D01*
X0061138Y-0005908D01*
X0061639Y-0006656D01*
X0062388Y-0007157D01*
X0063271Y-0007333D01*
X0064154Y-0007157D01*
X0064903Y-0006656D01*
X0065403Y-0005908D01*
X0065516Y-0005341D01*
X0066026D01*
X0066138Y-0005908D01*
X0066579Y-0006566D01*
X0066514Y-0006829D01*
X0066497Y-0006869D01*
X0066361Y-0007072D01*
X0065691Y-0007205D01*
X0065040Y-0007640D01*
X0064605Y-0008291D01*
X0064452Y-0009059D01*
X0064605Y-0009827D01*
X0065040Y-0010479D01*
X0065691Y-0010914D01*
X0066459Y-0011067D01*
X0067228Y-0010914D01*
X0067879Y-0010479D01*
X0068314Y-0009827D01*
X0068467Y-0009059D01*
X0068314Y-0008291D01*
X0067974Y-0007783D01*
X0068241Y-0007327D01*
X0068271Y-0007333D01*
X0069154Y-0007157D01*
X0069903Y-0006656D01*
X0070403Y-0005908D01*
X0070516Y-0005341D01*
X0071026D01*
X0071139Y-0005908D01*
X0071639Y-0006656D01*
X0072388Y-0007157D01*
X0073271Y-0007333D01*
X0074154Y-0007157D01*
X0074903Y-0006656D01*
X0075403Y-0005908D01*
X0075516Y-0005341D01*
X0076026D01*
X0076138Y-0005908D01*
X0076639Y-0006656D01*
X0077388Y-0007157D01*
X0078271Y-0007333D01*
X0079154Y-0007157D01*
X0079903Y-0006656D01*
X0080403Y-0005908D01*
X0080579Y-0005024D01*
X0080403Y-0004141D01*
X0079903Y-0003392D01*
X0079154Y-0002892D01*
X0078727Y-0002807D01*
X0078776Y-0002307D01*
X0101592D01*
X0101760Y-0002778D01*
D02*
G37*
G36*
X0037815Y-0002807D02*
X0037388Y-0002892D01*
X0036639Y-0003392D01*
X0036138Y-0004141D01*
X0036041Y-0004629D01*
X0036018Y-0004693D01*
X0035987Y-0004891D01*
X0035955Y-0005054D01*
X0035875Y-0005360D01*
X0035836Y-0005472D01*
X0035795Y-0005573D01*
X0035754Y-0005655D01*
X0035715Y-0005720D01*
X0035711Y-0005725D01*
X0032747Y-0008689D01*
X0032462Y-0009116D01*
X0032362Y-0009619D01*
Y-0018177D01*
X0032462Y-0018679D01*
X0032747Y-0019106D01*
X0051596Y-0037954D01*
X0052022Y-0038239D01*
X0052525Y-0038339D01*
X0053781D01*
X0058623Y-0043182D01*
X0058653Y-0043225D01*
X0058687Y-0043284D01*
X0058719Y-0043348D01*
X0058749Y-0043419D01*
X0058772Y-0043488D01*
X0058822Y-0043687D01*
X0058840Y-0043796D01*
X0058864Y-0043860D01*
X0058946Y-0044268D01*
X0059381Y-0044919D01*
X0060032Y-0045354D01*
X0060208Y-0045389D01*
X0060400Y-0045851D01*
X0060346Y-0045932D01*
X0060193Y-0046700D01*
X0060346Y-0047468D01*
X0060158Y-0047921D01*
X0060032Y-0047946D01*
X0059381Y-0048381D01*
X0058946Y-0049032D01*
X0058793Y-0049800D01*
X0058946Y-0050568D01*
X0059381Y-0051219D01*
X0059253Y-0051735D01*
X0058997Y-0051786D01*
X0058571Y-0052071D01*
X0055771Y-0054871D01*
X0055486Y-0055297D01*
X0055386Y-0055800D01*
Y-0074254D01*
X0046154Y-0083486D01*
X0034183D01*
X0034133Y-0082986D01*
X0034464Y-0082920D01*
X0034857Y-0082657D01*
X0035032Y-0082483D01*
X0035070Y-0082460D01*
X0035128Y-0082430D01*
X0035201Y-0082399D01*
X0035289Y-0082369D01*
X0035384Y-0082341D01*
X0035644Y-0082284D01*
X0035791Y-0082261D01*
X0035857Y-0082236D01*
X0036268Y-0082154D01*
X0036919Y-0081719D01*
X0037354Y-0081068D01*
X0037507Y-0080300D01*
X0037357Y-0079544D01*
X0037341Y-0079453D01*
X0037628Y-0079044D01*
X0038129D01*
X0039017Y-0079931D01*
X0039040Y-0079970D01*
X0039070Y-0080028D01*
X0039101Y-0080101D01*
X0039131Y-0080189D01*
X0039159Y-0080284D01*
X0039216Y-0080544D01*
X0039239Y-0080691D01*
X0039264Y-0080757D01*
X0039346Y-0081168D01*
X0039781Y-0081819D01*
X0040432Y-0082254D01*
X0041200Y-0082407D01*
X0041968Y-0082254D01*
X0042619Y-0081819D01*
X0043054Y-0081168D01*
X0043207Y-0080400D01*
X0043054Y-0079632D01*
X0042619Y-0078981D01*
X0041968Y-0078546D01*
X0041557Y-0078464D01*
X0041491Y-0078439D01*
X0041344Y-0078416D01*
X0041084Y-0078359D01*
X0040989Y-0078331D01*
X0040901Y-0078301D01*
X0040828Y-0078270D01*
X0040770Y-0078240D01*
X0040731Y-0078217D01*
X0039489Y-0076974D01*
X0039095Y-0076711D01*
X0038631Y-0076619D01*
X0034378D01*
X0033920Y-0076710D01*
X0033913Y-0076711D01*
X0033527Y-0076547D01*
X0033376Y-0076171D01*
X0033663Y-0075712D01*
X0038080D01*
X0038544Y-0075620D01*
X0038937Y-0075357D01*
X0040557Y-0073737D01*
X0040820Y-0073344D01*
X0040912Y-0072880D01*
Y-0070283D01*
X0041412Y-0070016D01*
X0041732Y-0070229D01*
X0042500Y-0070382D01*
X0043268Y-0070229D01*
X0043919Y-0069794D01*
X0044354Y-0069143D01*
X0044507Y-0068375D01*
X0044354Y-0067607D01*
X0043919Y-0066956D01*
X0043268Y-0066521D01*
X0042500Y-0066368D01*
X0041732Y-0066521D01*
X0041412Y-0066734D01*
X0040912Y-0066467D01*
Y-0054491D01*
X0040820Y-0054027D01*
X0040557Y-0053634D01*
X0040244Y-0053320D01*
Y-0048471D01*
X0043957Y-0044757D01*
X0044220Y-0044364D01*
X0044312Y-0043900D01*
Y-0036075D01*
X0044323Y-0036031D01*
X0044343Y-0035969D01*
X0044373Y-0035896D01*
X0044414Y-0035812D01*
X0044461Y-0035725D01*
X0044604Y-0035501D01*
X0044692Y-0035381D01*
X0044721Y-0035317D01*
X0044954Y-0034968D01*
X0045107Y-0034200D01*
X0044954Y-0033432D01*
X0044519Y-0032781D01*
X0043868Y-0032346D01*
X0043100Y-0032193D01*
X0042332Y-0032346D01*
X0041681Y-0032781D01*
X0041372Y-0033243D01*
X0041213Y-0033286D01*
X0040813Y-0033239D01*
X0040743Y-0033069D01*
X0040773Y-0032996D01*
X0040814Y-0032912D01*
X0040861Y-0032825D01*
X0041004Y-0032601D01*
X0041092Y-0032481D01*
X0041121Y-0032417D01*
X0041354Y-0032068D01*
X0041507Y-0031300D01*
X0041354Y-0030532D01*
X0040919Y-0029881D01*
X0040268Y-0029446D01*
X0039500Y-0029293D01*
X0038732Y-0029446D01*
X0038081Y-0029881D01*
X0037646Y-0030532D01*
X0037493Y-0031300D01*
X0037646Y-0032068D01*
X0037879Y-0032417D01*
X0037908Y-0032481D01*
X0037996Y-0032601D01*
X0038139Y-0032825D01*
X0038186Y-0032912D01*
X0038227Y-0032996D01*
X0038257Y-0033069D01*
X0038277Y-0033131D01*
X0038288Y-0033175D01*
Y-0035458D01*
X0030643Y-0043103D01*
X0030380Y-0043496D01*
X0030288Y-0043960D01*
Y-0044725D01*
X0030277Y-0044769D01*
X0030257Y-0044831D01*
X0030227Y-0044904D01*
X0030186Y-0044988D01*
X0030139Y-0045075D01*
X0029996Y-0045299D01*
X0029908Y-0045419D01*
X0029879Y-0045483D01*
X0029646Y-0045832D01*
X0029493Y-0046600D01*
X0029646Y-0047368D01*
X0030081Y-0048019D01*
X0030732Y-0048454D01*
X0031500Y-0048607D01*
X0032268Y-0048454D01*
X0032919Y-0048019D01*
X0033046Y-0047829D01*
X0033661Y-0047809D01*
X0033805Y-0047995D01*
X0034360Y-0048421D01*
X0035006Y-0048689D01*
X0035700Y-0048780D01*
X0036394Y-0048689D01*
X0037040Y-0048421D01*
X0037319Y-0048207D01*
X0037819Y-0048454D01*
Y-0053746D01*
X0037635Y-0053898D01*
X0037348Y-0054015D01*
X0037040Y-0053779D01*
X0036394Y-0053511D01*
X0035700Y-0053420D01*
X0035006Y-0053511D01*
X0034360Y-0053779D01*
X0033805Y-0054205D01*
X0033379Y-0054760D01*
X0033111Y-0055406D01*
X0033020Y-0056100D01*
X0033111Y-0056794D01*
X0033379Y-0057440D01*
X0033805Y-0057995D01*
X0034204Y-0058302D01*
X0034243Y-0058421D01*
Y-0058779D01*
X0034204Y-0058898D01*
X0033805Y-0059205D01*
X0033379Y-0059760D01*
X0033111Y-0060406D01*
X0033020Y-0061100D01*
X0033111Y-0061794D01*
X0033379Y-0062440D01*
X0033805Y-0062995D01*
X0034360Y-0063421D01*
X0035006Y-0063689D01*
X0035700Y-0063780D01*
X0036394Y-0063689D01*
X0037040Y-0063421D01*
X0037595Y-0062995D01*
X0037988Y-0062484D01*
X0038135Y-0062484D01*
X0038488Y-0062621D01*
Y-0069579D01*
X0038135Y-0069716D01*
X0037988Y-0069716D01*
X0037595Y-0069205D01*
X0037040Y-0068779D01*
X0036394Y-0068511D01*
X0035700Y-0068420D01*
X0035006Y-0068511D01*
X0034360Y-0068779D01*
X0033805Y-0069205D01*
X0033379Y-0069760D01*
X0033111Y-0070406D01*
X0033020Y-0071100D01*
X0033111Y-0071794D01*
X0033379Y-0072440D01*
X0033645Y-0072788D01*
X0033399Y-0073288D01*
X0026700D01*
X0026276Y-0073372D01*
X0026189Y-0073306D01*
X0025976Y-0072965D01*
X0026274Y-0072519D01*
X0026296Y-0072490D01*
X0026301Y-0072478D01*
X0026411Y-0072314D01*
X0026531Y-0072025D01*
X0026569Y-0071831D01*
X0026574Y-0071819D01*
X0026579Y-0071783D01*
X0026683Y-0071257D01*
X0026684Y-0071257D01*
Y-0071100D01*
Y-0070943D01*
X0026683Y-0070943D01*
X0026579Y-0070417D01*
X0026574Y-0070381D01*
X0026569Y-0070369D01*
X0026531Y-0070175D01*
Y-0070175D01*
X0026411Y-0069886D01*
X0026301Y-0069722D01*
X0026296Y-0069710D01*
X0026274Y-0069681D01*
X0025976Y-0069235D01*
X0025754Y-0069013D01*
X0025587Y-0068901D01*
X0025586Y-0068900D01*
Y-0068300D01*
X0025587Y-0068299D01*
X0025754Y-0068187D01*
X0025976Y-0067965D01*
X0026274Y-0067519D01*
X0026296Y-0067490D01*
X0026301Y-0067479D01*
X0026411Y-0067314D01*
X0026531Y-0067025D01*
X0026569Y-0066831D01*
X0026574Y-0066819D01*
X0026579Y-0066783D01*
X0026683Y-0066257D01*
X0026684Y-0066257D01*
Y-0066100D01*
Y-0065943D01*
X0026683Y-0065943D01*
X0026579Y-0065417D01*
X0026574Y-0065381D01*
X0026569Y-0065369D01*
X0026531Y-0065175D01*
Y-0065175D01*
X0026411Y-0064886D01*
X0026301Y-0064722D01*
X0026296Y-0064710D01*
X0026274Y-0064681D01*
X0025976Y-0064235D01*
X0025754Y-0064013D01*
X0025587Y-0063901D01*
X0025586Y-0063900D01*
Y-0063300D01*
X0025587Y-0063299D01*
X0025754Y-0063187D01*
X0025976Y-0062965D01*
X0026274Y-0062519D01*
X0026296Y-0062490D01*
X0026301Y-0062479D01*
X0026411Y-0062314D01*
X0026531Y-0062025D01*
X0026569Y-0061831D01*
X0026574Y-0061819D01*
X0026579Y-0061783D01*
X0026683Y-0061257D01*
X0026684Y-0061257D01*
Y-0061100D01*
Y-0060943D01*
X0026683Y-0060943D01*
X0026579Y-0060417D01*
X0026574Y-0060381D01*
X0026569Y-0060369D01*
X0026531Y-0060175D01*
Y-0060175D01*
X0026411Y-0059886D01*
X0026301Y-0059721D01*
X0026296Y-0059710D01*
X0026274Y-0059681D01*
X0025976Y-0059235D01*
X0025754Y-0059013D01*
X0025587Y-0058901D01*
X0025586Y-0058900D01*
Y-0058300D01*
X0025587Y-0058299D01*
X0025754Y-0058187D01*
X0025976Y-0057965D01*
X0026274Y-0057519D01*
X0026296Y-0057490D01*
X0026301Y-0057478D01*
X0026411Y-0057314D01*
X0026531Y-0057025D01*
X0026569Y-0056831D01*
X0026574Y-0056819D01*
X0026579Y-0056783D01*
X0026683Y-0056257D01*
X0026684Y-0056257D01*
Y-0056100D01*
Y-0055943D01*
X0026683Y-0055943D01*
X0026579Y-0055417D01*
X0026574Y-0055381D01*
X0026569Y-0055369D01*
X0026531Y-0055175D01*
Y-0055175D01*
X0026411Y-0054886D01*
X0026301Y-0054721D01*
X0026296Y-0054710D01*
X0026274Y-0054681D01*
X0025976Y-0054235D01*
X0025754Y-0054013D01*
X0025587Y-0053901D01*
X0025586Y-0053900D01*
Y-0053300D01*
X0025587Y-0053299D01*
X0025754Y-0053187D01*
X0025976Y-0052965D01*
X0026274Y-0052519D01*
X0026296Y-0052490D01*
X0026301Y-0052478D01*
X0026411Y-0052314D01*
X0026531Y-0052025D01*
X0026569Y-0051831D01*
X0026574Y-0051819D01*
X0026579Y-0051783D01*
X0026683Y-0051257D01*
X0026684Y-0051257D01*
Y-0051100D01*
Y-0050943D01*
X0026683Y-0050943D01*
X0026579Y-0050417D01*
X0026574Y-0050381D01*
X0026569Y-0050369D01*
X0026531Y-0050175D01*
Y-0050175D01*
X0026411Y-0049886D01*
X0026301Y-0049722D01*
X0026296Y-0049710D01*
X0026274Y-0049681D01*
X0025976Y-0049235D01*
X0025754Y-0049013D01*
X0025587Y-0048901D01*
X0025586Y-0048900D01*
Y-0048300D01*
X0025587Y-0048299D01*
X0025754Y-0048187D01*
X0025976Y-0047965D01*
X0026274Y-0047519D01*
X0026296Y-0047490D01*
X0026301Y-0047479D01*
X0026411Y-0047314D01*
X0026531Y-0047025D01*
X0026569Y-0046831D01*
X0026574Y-0046819D01*
X0026579Y-0046783D01*
X0026683Y-0046257D01*
X0026684Y-0046257D01*
Y-0046100D01*
Y-0045943D01*
X0026683Y-0045943D01*
X0026579Y-0045417D01*
X0026574Y-0045381D01*
X0026569Y-0045369D01*
X0026531Y-0045175D01*
Y-0045175D01*
X0026411Y-0044886D01*
X0026301Y-0044721D01*
X0026296Y-0044710D01*
X0026274Y-0044681D01*
X0025976Y-0044235D01*
X0025754Y-0044013D01*
X0025308Y-0043715D01*
X0025279Y-0043693D01*
X0025267Y-0043688D01*
X0025103Y-0043578D01*
X0024814Y-0043458D01*
X0024620Y-0043420D01*
X0024608Y-0043415D01*
X0024572Y-0043410D01*
X0024046Y-0043306D01*
X0024046Y-0043306D01*
X0023967D01*
X0023889Y-0043290D01*
X0023811Y-0043306D01*
X0023732D01*
X0023732Y-0043306D01*
X0023206Y-0043410D01*
X0023170Y-0043415D01*
X0023158Y-0043420D01*
X0022964Y-0043458D01*
X0022964D01*
X0022675Y-0043578D01*
X0022511Y-0043688D01*
X0022499Y-0043693D01*
X0022470Y-0043715D01*
X0022024Y-0044013D01*
X0021802Y-0044235D01*
X0021504Y-0044681D01*
X0021482Y-0044710D01*
X0021477Y-0044721D01*
X0021367Y-0044886D01*
X0021247Y-0045175D01*
X0021209Y-0045369D01*
X0021204Y-0045381D01*
X0021199Y-0045417D01*
X0021094Y-0045943D01*
X0021094Y-0045943D01*
Y-0046100D01*
Y-0046257D01*
X0021094Y-0046257D01*
X0021199Y-0046783D01*
X0021204Y-0046819D01*
X0021209Y-0046831D01*
X0021247Y-0047025D01*
Y-0047025D01*
X0021367Y-0047314D01*
X0021477Y-0047479D01*
X0021482Y-0047490D01*
X0021504Y-0047519D01*
X0021802Y-0047965D01*
X0022024Y-0048187D01*
X0022191Y-0048299D01*
X0022192Y-0048300D01*
Y-0048900D01*
X0022191Y-0048901D01*
X0022024Y-0049013D01*
X0021802Y-0049235D01*
X0021504Y-0049681D01*
X0021482Y-0049710D01*
X0021477Y-0049722D01*
X0021399Y-0049838D01*
X0021205Y-0049885D01*
X0020827Y-0049883D01*
X0020554Y-0049474D01*
X0019903Y-0049039D01*
X0019357Y-0048930D01*
X0018995Y-0048590D01*
X0018928Y-0048448D01*
X0018943Y-0048371D01*
X0018928Y-0048293D01*
Y-0048214D01*
X0018928Y-0048214D01*
X0018821Y-0047677D01*
Y-0047677D01*
X0018791Y-0047603D01*
X0018775Y-0047526D01*
X0018731Y-0047460D01*
X0018701Y-0047387D01*
X0018701Y-0047387D01*
X0018396Y-0046931D01*
X0018396Y-0046931D01*
X0018340Y-0046875D01*
X0018297Y-0046810D01*
X0018231Y-0046766D01*
X0018175Y-0046710D01*
X0017719Y-0046405D01*
X0017719Y-0046405D01*
X0017646Y-0046375D01*
X0017580Y-0046331D01*
X0017503Y-0046316D01*
X0017430Y-0046286D01*
X0017430D01*
X0016892Y-0046178D01*
X0016892Y-0046178D01*
X0016813D01*
X0016735Y-0046163D01*
X0016658Y-0046178D01*
X0016579D01*
X0016579Y-0046178D01*
X0016041Y-0046286D01*
X0016041D01*
X0015968Y-0046316D01*
X0015890Y-0046331D01*
X0015825Y-0046375D01*
X0015752Y-0046405D01*
X0015752Y-0046405D01*
X0015296Y-0046710D01*
X0015296Y-0046710D01*
X0015240Y-0046766D01*
X0015174Y-0046810D01*
X0015130Y-0046875D01*
X0015075Y-0046931D01*
X0014770Y-0047387D01*
X0014770Y-0047387D01*
X0014740Y-0047460D01*
X0014696Y-0047526D01*
X0014680Y-0047603D01*
X0014650Y-0047677D01*
Y-0047677D01*
X0014543Y-0048214D01*
X0014543Y-0048214D01*
Y-0048293D01*
X0014528Y-0048371D01*
X0014543Y-0048448D01*
Y-0048528D01*
X0014543Y-0048528D01*
X0014650Y-0049065D01*
Y-0049065D01*
X0014680Y-0049138D01*
X0014696Y-0049216D01*
X0014740Y-0049281D01*
X0014770Y-0049355D01*
X0014770Y-0049355D01*
X0015074Y-0049810D01*
X0015074Y-0049810D01*
X0015130Y-0049866D01*
X0015174Y-0049932D01*
X0015240Y-0049976D01*
X0015296Y-0050032D01*
X0015752Y-0050336D01*
X0015752Y-0050336D01*
X0015825Y-0050367D01*
X0015890Y-0050411D01*
X0015968Y-0050426D01*
X0016041Y-0050456D01*
X0016041D01*
X0016579Y-0050563D01*
X0016669Y-0050917D01*
X0016532Y-0051188D01*
X0016041Y-0051285D01*
X0016041D01*
X0015968Y-0051316D01*
X0015890Y-0051331D01*
X0015825Y-0051375D01*
X0015752Y-0051405D01*
X0015752Y-0051405D01*
X0015296Y-0051710D01*
X0015296Y-0051710D01*
X0015240Y-0051766D01*
X0015174Y-0051810D01*
X0015130Y-0051875D01*
X0015075Y-0051931D01*
X0014770Y-0052387D01*
X0014770Y-0052387D01*
X0014740Y-0052460D01*
X0014696Y-0052526D01*
X0014680Y-0052604D01*
X0014650Y-0052677D01*
Y-0052677D01*
X0014543Y-0053214D01*
X0014543Y-0053214D01*
Y-0053293D01*
X0014528Y-0053371D01*
X0014543Y-0053448D01*
Y-0053527D01*
X0014543Y-0053527D01*
X0014650Y-0054065D01*
Y-0054065D01*
X0014680Y-0054138D01*
X0014696Y-0054216D01*
X0014740Y-0054282D01*
X0014770Y-0054355D01*
X0014770Y-0054355D01*
X0015074Y-0054810D01*
X0015074Y-0054810D01*
X0015130Y-0054866D01*
X0015174Y-0054932D01*
X0015240Y-0054976D01*
X0015296Y-0055032D01*
X0015752Y-0055336D01*
X0015752Y-0055336D01*
X0015825Y-0055367D01*
X0015890Y-0055411D01*
X0015968Y-0055426D01*
X0016041Y-0055456D01*
X0016041D01*
X0016579Y-0055563D01*
X0016579Y-0055563D01*
X0016658D01*
X0016735Y-0055579D01*
X0016813Y-0055563D01*
X0016892D01*
X0016892Y-0055563D01*
X0017430Y-0055456D01*
X0017430D01*
X0017503Y-0055426D01*
X0017580Y-0055411D01*
X0017646Y-0055367D01*
X0017719Y-0055336D01*
X0017719Y-0055336D01*
X0018175Y-0055032D01*
X0018175Y-0055032D01*
X0018231Y-0054976D01*
X0018297Y-0054932D01*
X0018340Y-0054866D01*
X0018396Y-0054810D01*
X0018701Y-0054355D01*
X0018701Y-0054355D01*
X0018731Y-0054282D01*
X0018775Y-0054216D01*
X0018791Y-0054138D01*
X0018821Y-0054065D01*
Y-0054065D01*
X0018928Y-0053527D01*
X0018928Y-0053527D01*
Y-0053448D01*
X0018943Y-0053371D01*
X0019006Y-0053217D01*
X0019089Y-0053081D01*
X0019366Y-0052854D01*
X0019903Y-0052747D01*
X0020554Y-0052312D01*
X0020739Y-0052034D01*
X0020996Y-0052030D01*
X0021285Y-0052117D01*
X0021367Y-0052314D01*
X0021477Y-0052478D01*
X0021482Y-0052490D01*
X0021504Y-0052519D01*
X0021802Y-0052965D01*
X0022024Y-0053187D01*
X0022191Y-0053299D01*
X0022192Y-0053300D01*
Y-0053900D01*
X0022191Y-0053901D01*
X0022024Y-0054013D01*
X0021802Y-0054235D01*
X0021504Y-0054681D01*
X0021482Y-0054710D01*
X0021477Y-0054721D01*
X0021367Y-0054886D01*
X0021247Y-0055175D01*
X0021209Y-0055369D01*
X0021204Y-0055381D01*
X0021199Y-0055417D01*
X0021094Y-0055943D01*
X0021094Y-0055943D01*
Y-0056100D01*
Y-0056257D01*
X0021094Y-0056257D01*
X0021199Y-0056783D01*
X0021204Y-0056819D01*
X0021209Y-0056831D01*
X0021247Y-0057025D01*
Y-0057025D01*
X0021367Y-0057314D01*
X0021477Y-0057478D01*
X0021482Y-0057490D01*
X0021504Y-0057519D01*
X0021802Y-0057965D01*
X0022024Y-0058187D01*
X0022191Y-0058299D01*
X0022192Y-0058300D01*
Y-0058900D01*
X0022191Y-0058901D01*
X0022024Y-0059013D01*
X0021802Y-0059235D01*
X0021504Y-0059681D01*
X0021482Y-0059710D01*
X0021477Y-0059721D01*
X0021428Y-0059795D01*
X0021101Y-0059856D01*
X0020850Y-0059829D01*
X0020583Y-0059430D01*
X0019932Y-0058995D01*
X0019367Y-0058882D01*
X0019089Y-0058658D01*
X0019039Y-0058580D01*
X0018942Y-0058376D01*
X0018943Y-0058371D01*
X0018928Y-0058293D01*
Y-0058214D01*
X0018928Y-0058214D01*
X0018821Y-0057677D01*
Y-0057677D01*
X0018791Y-0057604D01*
X0018775Y-0057526D01*
X0018731Y-0057460D01*
X0018701Y-0057387D01*
X0018701Y-0057387D01*
X0018396Y-0056931D01*
X0018396Y-0056931D01*
X0018340Y-0056875D01*
X0018297Y-0056810D01*
X0018231Y-0056766D01*
X0018175Y-0056710D01*
X0017719Y-0056405D01*
X0017719Y-0056405D01*
X0017646Y-0056375D01*
X0017580Y-0056331D01*
X0017503Y-0056316D01*
X0017430Y-0056286D01*
X0017430D01*
X0016892Y-0056178D01*
X0016892Y-0056178D01*
X0016813D01*
X0016735Y-0056163D01*
X0016658Y-0056178D01*
X0016579D01*
X0016579Y-0056178D01*
X0016041Y-0056286D01*
X0016041D01*
X0015968Y-0056316D01*
X0015890Y-0056331D01*
X0015825Y-0056375D01*
X0015752Y-0056405D01*
X0015752Y-0056405D01*
X0015296Y-0056710D01*
X0015296Y-0056710D01*
X0015240Y-0056766D01*
X0015174Y-0056810D01*
X0015130Y-0056875D01*
X0015075Y-0056931D01*
X0014770Y-0057387D01*
X0014770Y-0057387D01*
X0014740Y-0057460D01*
X0014696Y-0057526D01*
X0014680Y-0057604D01*
X0014650Y-0057677D01*
Y-0057677D01*
X0014543Y-0058214D01*
X0014543Y-0058214D01*
Y-0058293D01*
X0014528Y-0058371D01*
X0014543Y-0058448D01*
Y-0058527D01*
X0014543Y-0058527D01*
X0014650Y-0059065D01*
Y-0059065D01*
X0014680Y-0059138D01*
X0014696Y-0059216D01*
X0014740Y-0059281D01*
X0014770Y-0059355D01*
X0014770Y-0059355D01*
X0015074Y-0059810D01*
X0015074Y-0059810D01*
X0015130Y-0059866D01*
X0015174Y-0059932D01*
X0015240Y-0059976D01*
X0015296Y-0060032D01*
X0015752Y-0060336D01*
X0015752Y-0060336D01*
X0015825Y-0060367D01*
X0015890Y-0060411D01*
X0015968Y-0060426D01*
X0016041Y-0060456D01*
X0016041D01*
X0016579Y-0060563D01*
X0016727Y-0060970D01*
X0016706Y-0061169D01*
X0016658Y-0061178D01*
X0016579D01*
X0016579Y-0061178D01*
X0016041Y-0061286D01*
X0016041D01*
X0015968Y-0061316D01*
X0015890Y-0061331D01*
X0015825Y-0061375D01*
X0015752Y-0061405D01*
X0015752Y-0061405D01*
X0015296Y-0061710D01*
X0015296Y-0061710D01*
X0015240Y-0061766D01*
X0015174Y-0061810D01*
X0015130Y-0061875D01*
X0015075Y-0061931D01*
X0014770Y-0062387D01*
X0014770Y-0062387D01*
X0014740Y-0062460D01*
X0014696Y-0062526D01*
X0014680Y-0062603D01*
X0014650Y-0062677D01*
Y-0062677D01*
X0014543Y-0063214D01*
X0014543Y-0063214D01*
Y-0063293D01*
X0014528Y-0063371D01*
X0014543Y-0063448D01*
Y-0063528D01*
X0014543Y-0063528D01*
X0014573Y-0063677D01*
X0014148Y-0064102D01*
X0014100Y-0064093D01*
X0013332Y-0064246D01*
X0012681Y-0064681D01*
X0012246Y-0065332D01*
X0012093Y-0066100D01*
X0012246Y-0066868D01*
X0012462Y-0067192D01*
X0012491Y-0067257D01*
X0012575Y-0067377D01*
X0012713Y-0067600D01*
X0012759Y-0067686D01*
X0012798Y-0067770D01*
X0012827Y-0067844D01*
X0012847Y-0067908D01*
X0012858Y-0067955D01*
Y-0080770D01*
X0012950Y-0081234D01*
X0013213Y-0081627D01*
X0014243Y-0082657D01*
X0014636Y-0082920D01*
X0014967Y-0082986D01*
X0014918Y-0083486D01*
X0011898D01*
X0007484Y-0079072D01*
X0007480Y-0079067D01*
X0007442Y-0079002D01*
X0007406Y-0078929D01*
X0007315Y-0078689D01*
X0007281Y-0078569D01*
X0007234Y-0078352D01*
X0007535Y-0078128D01*
X0007690Y-0078079D01*
X0008191Y-0078414D01*
X0008959Y-0078566D01*
X0009727Y-0078414D01*
X0010379Y-0077979D01*
X0010814Y-0077327D01*
X0010966Y-0076559D01*
X0010814Y-0075791D01*
X0010379Y-0075140D01*
X0009727Y-0074705D01*
X0008959Y-0074552D01*
X0008191Y-0074705D01*
X0007540Y-0075140D01*
X0007105Y-0075791D01*
X0006972Y-0076461D01*
X0006769Y-0076597D01*
X0006728Y-0076614D01*
X0006466Y-0076678D01*
X0005808Y-0076238D01*
X0005241Y-0076126D01*
Y-0075616D01*
X0005808Y-0075503D01*
X0006556Y-0075003D01*
X0007057Y-0074254D01*
X0007232Y-0073371D01*
X0007057Y-0072488D01*
X0006556Y-0071739D01*
X0005808Y-0071238D01*
X0005241Y-0071126D01*
Y-0070616D01*
X0005808Y-0070503D01*
X0006556Y-0070003D01*
X0007057Y-0069254D01*
X0007170Y-0068687D01*
X0007212Y-0068651D01*
X0007717Y-0068497D01*
X0008191Y-0068814D01*
X0008959Y-0068966D01*
X0009727Y-0068814D01*
X0010379Y-0068379D01*
X0010814Y-0067727D01*
X0010966Y-0066959D01*
X0010814Y-0066191D01*
X0010379Y-0065540D01*
X0009727Y-0065105D01*
X0008959Y-0064952D01*
X0008191Y-0065105D01*
X0007540Y-0065540D01*
X0007105Y-0066191D01*
X0007033Y-0066552D01*
X0006798Y-0066644D01*
X0006495Y-0066697D01*
X0005808Y-0066238D01*
X0005241Y-0066126D01*
Y-0065616D01*
X0005808Y-0065503D01*
X0006556Y-0065003D01*
X0007057Y-0064254D01*
X0007232Y-0063371D01*
X0007057Y-0062488D01*
X0006556Y-0061739D01*
X0005808Y-0061238D01*
X0005241Y-0061126D01*
Y-0060616D01*
X0005808Y-0060503D01*
X0006556Y-0060003D01*
X0007057Y-0059254D01*
X0007232Y-0058371D01*
X0007057Y-0057488D01*
X0006556Y-0056739D01*
X0005808Y-0056238D01*
X0005241Y-0056126D01*
Y-0055616D01*
X0005808Y-0055503D01*
X0006556Y-0055003D01*
X0007057Y-0054254D01*
X0007232Y-0053371D01*
X0007057Y-0052488D01*
X0006556Y-0051739D01*
X0005808Y-0051238D01*
X0005241Y-0051126D01*
Y-0050616D01*
X0005808Y-0050503D01*
X0006556Y-0050003D01*
X0007057Y-0049254D01*
X0007232Y-0048371D01*
X0007057Y-0047488D01*
X0006556Y-0046739D01*
X0005808Y-0046238D01*
X0005241Y-0046126D01*
Y-0045616D01*
X0005808Y-0045503D01*
X0006556Y-0045003D01*
X0007057Y-0044254D01*
X0007232Y-0043371D01*
X0007057Y-0042488D01*
X0006556Y-0041739D01*
X0005808Y-0041238D01*
X0005241Y-0041126D01*
Y-0040616D01*
X0005808Y-0040503D01*
X0006556Y-0040003D01*
X0007057Y-0039254D01*
X0007232Y-0038371D01*
X0007057Y-0037488D01*
X0006556Y-0036739D01*
X0005808Y-0036238D01*
X0004924Y-0036063D01*
X0004041Y-0036238D01*
X0003292Y-0036739D01*
X0002792Y-0037488D01*
X0002707Y-0037915D01*
X0002207Y-0037865D01*
Y-0015050D01*
X0002678Y-0014882D01*
X0002974Y-0015243D01*
X0004278Y-0016313D01*
X0005765Y-0017108D01*
X0007380Y-0017597D01*
X0009058Y-0017763D01*
X0010737Y-0017597D01*
X0012351Y-0017108D01*
X0013839Y-0016313D01*
X0015143Y-0015243D01*
X0016213Y-0013939D01*
X0017008Y-0012451D01*
X0017497Y-0010837D01*
X0017663Y-0009158D01*
X0017497Y-0007480D01*
X0017008Y-0005866D01*
X0016213Y-0004378D01*
X0015143Y-0003074D01*
X0014782Y-0002778D01*
X0014950Y-0002307D01*
X0037765D01*
X0037815Y-0002807D01*
D02*
G37*
G36*
X0097418Y-0037142D02*
X0097451Y-0037161D01*
X0097482Y-0037187D01*
X0097503Y-0037212D01*
X0097627Y-0037408D01*
X0097720Y-0037674D01*
X0097718Y-0037692D01*
X0097614Y-0038214D01*
X0097614Y-0038214D01*
Y-0038293D01*
X0097598Y-0038371D01*
X0097614Y-0038448D01*
Y-0038528D01*
X0097614Y-0038528D01*
X0097721Y-0039065D01*
Y-0039065D01*
X0097751Y-0039138D01*
X0097767Y-0039216D01*
X0097811Y-0039281D01*
X0097841Y-0039355D01*
X0097841Y-0039355D01*
X0098145Y-0039810D01*
X0098145Y-0039810D01*
X0098201Y-0039866D01*
X0098245Y-0039932D01*
X0098311Y-0039976D01*
X0098367Y-0040032D01*
X0098823Y-0040336D01*
X0098823Y-0040336D01*
X0098896Y-0040367D01*
X0098961Y-0040411D01*
X0099039Y-0040426D01*
X0099112Y-0040456D01*
X0099112D01*
X0099650Y-0040563D01*
X0099650Y-0040563D01*
X0099729D01*
X0099806Y-0040579D01*
X0099884Y-0040563D01*
X0099963D01*
X0099963Y-0040563D01*
X0100443Y-0040468D01*
X0100547Y-0040476D01*
X0100786Y-0040576D01*
X0100847Y-0040618D01*
X0100921Y-0040914D01*
X0100811Y-0041085D01*
X0100624Y-0041267D01*
X0100560Y-0041310D01*
X0100501Y-0041285D01*
X0100501D01*
X0099963Y-0041179D01*
X0099963Y-0041179D01*
X0099884D01*
X0099806Y-0041163D01*
X0099729Y-0041179D01*
X0099650D01*
X0099650Y-0041179D01*
X0099112Y-0041285D01*
X0099112D01*
X0099039Y-0041316D01*
X0098961Y-0041331D01*
X0098896Y-0041375D01*
X0098823Y-0041405D01*
X0098823Y-0041405D01*
X0098367Y-0041710D01*
X0098367Y-0041710D01*
X0098311Y-0041766D01*
X0098245Y-0041810D01*
X0098201Y-0041875D01*
X0098145Y-0041931D01*
X0097841Y-0042387D01*
X0097841Y-0042387D01*
X0097811Y-0042460D01*
X0097767Y-0042526D01*
X0097751Y-0042603D01*
X0097721Y-0042677D01*
Y-0042677D01*
X0097614Y-0043214D01*
X0097614Y-0043214D01*
Y-0043293D01*
X0097598Y-0043371D01*
X0097614Y-0043448D01*
Y-0043527D01*
X0097614Y-0043527D01*
X0097721Y-0044065D01*
Y-0044065D01*
X0097751Y-0044138D01*
X0097767Y-0044216D01*
X0097811Y-0044282D01*
X0097841Y-0044355D01*
X0097841Y-0044355D01*
X0098145Y-0044810D01*
X0098145Y-0044810D01*
X0098201Y-0044866D01*
X0098245Y-0044932D01*
X0098311Y-0044976D01*
X0098367Y-0045032D01*
X0098823Y-0045336D01*
X0098823Y-0045336D01*
X0098896Y-0045367D01*
X0098961Y-0045411D01*
X0099039Y-0045426D01*
X0099112Y-0045456D01*
X0099112D01*
X0099650Y-0045563D01*
X0099650Y-0045563D01*
X0099729D01*
X0099806Y-0045579D01*
X0099884Y-0045563D01*
X0099963D01*
X0099963Y-0045563D01*
X0100501Y-0045456D01*
X0100501D01*
X0100574Y-0045426D01*
X0100651Y-0045411D01*
X0100717Y-0045367D01*
X0100790Y-0045336D01*
X0100790Y-0045336D01*
X0101246Y-0045032D01*
X0101246Y-0045032D01*
X0101569Y-0045398D01*
X0101346Y-0045732D01*
X0101268Y-0046123D01*
X0100975Y-0046296D01*
X0100717Y-0046375D01*
X0100651Y-0046331D01*
X0100574Y-0046316D01*
X0100501Y-0046286D01*
X0100501D01*
X0099963Y-0046178D01*
X0099963Y-0046178D01*
X0099884D01*
X0099806Y-0046163D01*
X0099729Y-0046178D01*
X0099650D01*
X0099650Y-0046178D01*
X0099112Y-0046286D01*
X0099112D01*
X0099039Y-0046316D01*
X0098961Y-0046331D01*
X0098896Y-0046375D01*
X0098823Y-0046405D01*
X0098823Y-0046405D01*
X0098367Y-0046710D01*
X0098367Y-0046710D01*
X0098311Y-0046766D01*
X0098245Y-0046810D01*
X0098201Y-0046875D01*
X0098145Y-0046931D01*
X0097841Y-0047387D01*
X0097841Y-0047387D01*
X0097811Y-0047460D01*
X0097767Y-0047526D01*
X0097751Y-0047603D01*
X0097721Y-0047677D01*
Y-0047677D01*
X0097614Y-0048214D01*
X0097614Y-0048214D01*
Y-0048293D01*
X0097598Y-0048371D01*
X0097614Y-0048448D01*
Y-0048528D01*
X0097614Y-0048528D01*
X0097721Y-0049065D01*
Y-0049065D01*
X0097751Y-0049138D01*
X0097767Y-0049216D01*
X0097811Y-0049281D01*
X0097841Y-0049355D01*
X0097841Y-0049355D01*
X0097900Y-0049443D01*
X0097920Y-0049665D01*
X0097729Y-0050088D01*
X0097619Y-0050161D01*
X0095946Y-0051835D01*
X0095942Y-0051837D01*
X0095939Y-0051839D01*
X0095936Y-0051840D01*
X0095736Y-0051880D01*
X0095343Y-0052143D01*
X0095080Y-0052536D01*
X0094988Y-0053000D01*
Y-0058398D01*
X0084143Y-0069243D01*
X0083880Y-0069636D01*
X0083788Y-0070100D01*
Y-0070725D01*
X0083777Y-0070769D01*
X0083757Y-0070831D01*
X0083727Y-0070904D01*
X0083686Y-0070988D01*
X0083639Y-0071075D01*
X0083496Y-0071299D01*
X0083408Y-0071419D01*
X0083379Y-0071483D01*
X0083146Y-0071832D01*
X0082993Y-0072600D01*
X0083146Y-0073368D01*
X0083581Y-0074019D01*
X0084232Y-0074454D01*
X0085000Y-0074607D01*
X0085768Y-0074454D01*
X0086419Y-0074019D01*
X0086854Y-0073368D01*
X0087007Y-0072600D01*
X0086854Y-0071832D01*
X0086621Y-0071483D01*
X0086592Y-0071419D01*
X0086504Y-0071299D01*
X0086361Y-0071075D01*
X0086313Y-0070988D01*
X0086273Y-0070904D01*
X0086243Y-0070831D01*
X0086223Y-0070769D01*
X0086212Y-0070725D01*
Y-0070602D01*
X0097057Y-0059757D01*
X0097315Y-0059371D01*
X0097410Y-0059339D01*
X0097676Y-0059301D01*
X0097835Y-0059340D01*
X0097841Y-0059355D01*
X0097841Y-0059355D01*
X0098145Y-0059810D01*
X0098145Y-0059810D01*
X0098201Y-0059866D01*
X0098245Y-0059932D01*
X0098311Y-0059976D01*
X0098367Y-0060032D01*
X0098823Y-0060336D01*
X0098823Y-0060336D01*
X0098896Y-0060367D01*
X0098961Y-0060411D01*
X0099039Y-0060426D01*
X0099112Y-0060456D01*
X0099112D01*
X0099650Y-0060563D01*
X0099650Y-0060563D01*
X0099729D01*
X0099806Y-0060579D01*
X0099884Y-0060563D01*
X0099963D01*
X0099963Y-0060563D01*
X0100501Y-0060456D01*
X0100501D01*
X0100574Y-0060426D01*
X0100651Y-0060411D01*
X0100717Y-0060367D01*
X0100790Y-0060336D01*
X0100790Y-0060336D01*
X0101246Y-0060032D01*
X0101246Y-0060032D01*
X0101302Y-0059976D01*
X0101367Y-0059932D01*
X0101411Y-0059866D01*
X0101467Y-0059810D01*
X0101772Y-0059355D01*
X0101772Y-0059355D01*
X0101802Y-0059281D01*
X0101846Y-0059216D01*
X0101861Y-0059138D01*
X0101892Y-0059065D01*
Y-0059065D01*
X0101999Y-0058527D01*
X0101999Y-0058527D01*
Y-0058448D01*
X0102014Y-0058371D01*
X0102012Y-0058360D01*
X0102140Y-0058155D01*
X0102213Y-0058084D01*
X0102453Y-0057938D01*
X0102800Y-0058007D01*
X0103568Y-0057854D01*
X0104219Y-0057419D01*
X0104654Y-0056768D01*
X0104807Y-0056000D01*
X0104654Y-0055232D01*
X0104219Y-0054581D01*
X0103568Y-0054146D01*
X0102800Y-0053993D01*
X0102400Y-0054072D01*
X0101975Y-0053647D01*
X0101999Y-0053527D01*
X0101999Y-0053527D01*
Y-0053448D01*
X0102014Y-0053371D01*
X0101999Y-0053293D01*
Y-0053214D01*
X0101999Y-0053214D01*
X0101892Y-0052677D01*
Y-0052677D01*
X0101861Y-0052604D01*
X0101857Y-0052583D01*
X0101900Y-0052418D01*
X0101993Y-0052235D01*
X0102066Y-0052148D01*
X0102146Y-0052083D01*
X0109117D01*
X0109159Y-0052075D01*
X0109485Y-0052488D01*
X0109309Y-0053371D01*
X0109485Y-0054254D01*
X0109985Y-0055003D01*
X0110734Y-0055503D01*
X0111300Y-0055616D01*
Y-0056126D01*
X0110734Y-0056238D01*
X0109985Y-0056739D01*
X0109485Y-0057488D01*
X0109309Y-0058371D01*
X0109313Y-0058389D01*
X0108860Y-0058674D01*
X0108368Y-0058346D01*
X0107600Y-0058193D01*
X0106832Y-0058346D01*
X0106181Y-0058781D01*
X0105746Y-0059432D01*
X0105593Y-0060200D01*
X0105746Y-0060968D01*
X0106181Y-0061619D01*
X0106832Y-0062054D01*
X0107600Y-0062207D01*
X0108368Y-0062054D01*
X0109019Y-0061619D01*
X0109454Y-0060968D01*
X0109589Y-0060293D01*
X0109725Y-0060193D01*
X0109843Y-0060139D01*
X0110092Y-0060074D01*
X0110734Y-0060503D01*
X0111301Y-0060616D01*
Y-0061126D01*
X0110734Y-0061238D01*
X0109985Y-0061739D01*
X0109485Y-0062488D01*
X0109309Y-0063371D01*
X0109485Y-0064254D01*
X0109985Y-0065003D01*
X0110734Y-0065503D01*
X0111301Y-0065616D01*
Y-0066126D01*
X0110734Y-0066238D01*
X0110322Y-0066514D01*
X0110263Y-0066540D01*
X0109898Y-0066801D01*
X0109595Y-0066990D01*
X0109476Y-0067054D01*
X0109369Y-0067105D01*
X0109282Y-0067140D01*
X0109221Y-0067159D01*
X0109137D01*
X0108673Y-0067251D01*
X0108280Y-0067514D01*
X0102501Y-0073293D01*
X0102480Y-0073293D01*
X0102263Y-0073257D01*
X0101978Y-0073109D01*
X0101892Y-0072677D01*
Y-0072677D01*
X0101861Y-0072603D01*
X0101846Y-0072526D01*
X0101802Y-0072460D01*
X0101772Y-0072387D01*
X0101772Y-0072387D01*
X0101467Y-0071931D01*
X0101467Y-0071931D01*
X0101411Y-0071875D01*
X0101367Y-0071810D01*
X0101302Y-0071766D01*
X0101246Y-0071710D01*
X0100790Y-0071405D01*
X0100790Y-0071405D01*
X0100717Y-0071375D01*
X0100651Y-0071331D01*
X0100574Y-0071316D01*
X0100501Y-0071285D01*
X0100501D01*
X0099963Y-0071179D01*
X0099963Y-0071179D01*
X0099884D01*
X0099806Y-0071163D01*
X0099515Y-0070920D01*
X0099564Y-0070789D01*
X0099574Y-0070775D01*
X0099806Y-0070579D01*
X0099884Y-0070563D01*
X0099963D01*
X0099963Y-0070563D01*
X0100501Y-0070456D01*
X0100501D01*
X0100574Y-0070426D01*
X0100651Y-0070411D01*
X0100717Y-0070367D01*
X0100790Y-0070336D01*
X0100790Y-0070336D01*
X0101246Y-0070032D01*
X0101246Y-0070032D01*
X0101302Y-0069976D01*
X0101367Y-0069932D01*
X0101411Y-0069866D01*
X0101467Y-0069810D01*
X0101772Y-0069355D01*
X0101772Y-0069354D01*
X0101802Y-0069282D01*
X0101846Y-0069216D01*
X0101861Y-0069138D01*
X0101892Y-0069065D01*
Y-0069065D01*
X0101999Y-0068528D01*
X0101999Y-0068528D01*
Y-0068448D01*
X0102014Y-0068371D01*
X0101999Y-0068293D01*
Y-0068214D01*
X0101999Y-0068214D01*
X0101892Y-0067677D01*
Y-0067677D01*
X0101861Y-0067603D01*
X0101846Y-0067526D01*
X0101802Y-0067460D01*
X0101772Y-0067387D01*
X0101772Y-0067387D01*
X0101467Y-0066931D01*
X0101467Y-0066931D01*
X0101411Y-0066875D01*
X0101367Y-0066810D01*
X0101302Y-0066766D01*
X0101246Y-0066710D01*
X0100790Y-0066405D01*
X0100790Y-0066405D01*
X0100717Y-0066375D01*
X0100651Y-0066331D01*
X0100574Y-0066316D01*
X0100501Y-0066286D01*
X0100501D01*
X0099963Y-0066179D01*
X0099963Y-0066179D01*
X0099884D01*
X0099806Y-0066163D01*
X0099729Y-0066179D01*
X0099650D01*
X0099650Y-0066179D01*
X0099279Y-0065897D01*
X0099649Y-0065564D01*
X0099658Y-0065563D01*
X0099729D01*
X0099806Y-0065579D01*
X0099884Y-0065563D01*
X0099963D01*
X0099963Y-0065563D01*
X0100501Y-0065456D01*
X0100501D01*
X0100574Y-0065426D01*
X0100651Y-0065411D01*
X0100717Y-0065367D01*
X0100790Y-0065336D01*
X0100790Y-0065336D01*
X0101246Y-0065032D01*
X0101246Y-0065032D01*
X0101302Y-0064976D01*
X0101367Y-0064932D01*
X0101411Y-0064866D01*
X0101467Y-0064810D01*
X0101772Y-0064355D01*
X0101772Y-0064354D01*
X0101802Y-0064281D01*
X0101846Y-0064216D01*
X0101861Y-0064138D01*
X0101892Y-0064065D01*
Y-0064065D01*
X0101999Y-0063528D01*
X0101999Y-0063528D01*
Y-0063448D01*
X0102014Y-0063371D01*
X0101999Y-0063293D01*
Y-0063214D01*
X0101999Y-0063214D01*
X0101892Y-0062677D01*
Y-0062677D01*
X0101861Y-0062603D01*
X0101846Y-0062526D01*
X0101802Y-0062460D01*
X0101772Y-0062387D01*
X0101772Y-0062387D01*
X0101467Y-0061931D01*
X0101467Y-0061931D01*
X0101411Y-0061875D01*
X0101367Y-0061810D01*
X0101302Y-0061766D01*
X0101246Y-0061710D01*
X0100790Y-0061405D01*
X0100790Y-0061405D01*
X0100717Y-0061375D01*
X0100651Y-0061331D01*
X0100574Y-0061316D01*
X0100501Y-0061286D01*
X0100501D01*
X0099963Y-0061178D01*
X0099963Y-0061178D01*
X0099884D01*
X0099806Y-0061163D01*
X0099729Y-0061178D01*
X0099650D01*
X0099650Y-0061178D01*
X0099112Y-0061286D01*
X0099112D01*
X0099039Y-0061316D01*
X0098961Y-0061331D01*
X0098896Y-0061375D01*
X0098823Y-0061405D01*
X0098823Y-0061405D01*
X0098367Y-0061710D01*
X0098367Y-0061710D01*
X0098311Y-0061766D01*
X0098245Y-0061810D01*
X0098201Y-0061875D01*
X0098145Y-0061931D01*
X0097841Y-0062387D01*
X0097841Y-0062387D01*
X0097811Y-0062460D01*
X0097767Y-0062526D01*
X0097751Y-0062603D01*
X0097721Y-0062677D01*
Y-0062677D01*
X0097614Y-0063214D01*
X0097614Y-0063214D01*
Y-0063293D01*
X0097598Y-0063371D01*
X0097614Y-0063448D01*
Y-0063528D01*
X0097614Y-0063528D01*
X0097709Y-0064007D01*
X0097508Y-0064335D01*
X0097437Y-0064393D01*
X0097341Y-0064444D01*
X0096900Y-0064356D01*
X0096132Y-0064509D01*
X0095481Y-0064944D01*
X0095046Y-0065595D01*
X0094893Y-0066363D01*
X0095046Y-0067131D01*
X0095481Y-0067782D01*
X0096132Y-0068217D01*
X0096900Y-0068370D01*
X0097195Y-0068679D01*
X0097076Y-0069017D01*
X0096307Y-0069170D01*
X0095656Y-0069605D01*
X0095221Y-0070256D01*
X0095069Y-0071024D01*
X0095221Y-0071793D01*
X0095656Y-0072444D01*
X0096307Y-0072879D01*
X0097076Y-0073032D01*
X0097160Y-0073015D01*
X0097300Y-0073076D01*
X0097383Y-0073134D01*
X0097598Y-0073371D01*
X0097614Y-0073448D01*
Y-0073527D01*
X0097614Y-0073527D01*
X0097721Y-0074065D01*
Y-0074065D01*
X0097751Y-0074138D01*
X0097767Y-0074216D01*
X0097770Y-0074220D01*
X0097694Y-0074652D01*
X0097637Y-0074770D01*
X0097272Y-0075014D01*
X0096569Y-0075717D01*
X0096530Y-0075740D01*
X0096472Y-0075770D01*
X0096399Y-0075801D01*
X0096311Y-0075831D01*
X0096216Y-0075859D01*
X0095956Y-0075916D01*
X0095809Y-0075940D01*
X0095743Y-0075964D01*
X0095332Y-0076046D01*
X0094681Y-0076481D01*
X0094246Y-0077132D01*
X0094093Y-0077900D01*
X0094246Y-0078668D01*
X0094681Y-0079319D01*
X0095332Y-0079754D01*
X0096100Y-0079907D01*
X0096868Y-0079754D01*
X0097340Y-0079439D01*
X0097365Y-0079431D01*
X0097430Y-0079420D01*
X0097877Y-0079500D01*
X0097969Y-0079546D01*
X0098145Y-0079810D01*
X0098145Y-0079810D01*
X0098201Y-0079866D01*
X0098245Y-0079932D01*
X0098311Y-0079976D01*
X0098367Y-0080032D01*
X0098823Y-0080336D01*
X0098823Y-0080336D01*
X0098896Y-0080367D01*
X0098961Y-0080411D01*
X0099039Y-0080426D01*
X0099112Y-0080456D01*
X0099112D01*
X0099650Y-0080563D01*
X0099650Y-0080563D01*
X0099729D01*
X0099806Y-0080579D01*
X0099884Y-0080563D01*
X0099963D01*
X0099963Y-0080563D01*
X0100501Y-0080456D01*
X0100501D01*
X0100574Y-0080426D01*
X0100651Y-0080411D01*
X0100717Y-0080367D01*
X0100790Y-0080336D01*
X0100790Y-0080336D01*
X0101246Y-0080032D01*
X0101246Y-0080032D01*
X0101302Y-0079976D01*
X0101367Y-0079932D01*
X0101411Y-0079866D01*
X0101467Y-0079810D01*
X0101772Y-0079355D01*
X0101772Y-0079355D01*
X0101802Y-0079282D01*
X0101846Y-0079216D01*
X0101861Y-0079138D01*
X0101892Y-0079065D01*
Y-0079065D01*
X0101999Y-0078527D01*
X0101999Y-0078527D01*
Y-0078448D01*
X0102014Y-0078371D01*
X0101999Y-0078293D01*
Y-0078214D01*
X0101999Y-0078214D01*
X0101892Y-0077677D01*
Y-0077677D01*
X0101861Y-0077604D01*
X0101851Y-0077550D01*
X0101848Y-0077517D01*
X0101915Y-0077245D01*
X0101956Y-0077166D01*
X0102101Y-0076991D01*
X0102494Y-0076728D01*
X0109514Y-0069708D01*
X0109589Y-0069749D01*
X0110075Y-0070064D01*
X0110255Y-0070196D01*
X0110318Y-0070225D01*
X0110734Y-0070503D01*
X0111301Y-0070616D01*
Y-0071126D01*
X0110734Y-0071238D01*
X0109985Y-0071739D01*
X0109485Y-0072488D01*
X0109309Y-0073371D01*
X0109485Y-0074254D01*
X0109985Y-0075003D01*
X0110734Y-0075503D01*
X0111300Y-0075616D01*
Y-0076126D01*
X0110734Y-0076238D01*
X0109985Y-0076739D01*
X0109485Y-0077488D01*
X0109309Y-0078371D01*
X0109485Y-0079254D01*
X0109985Y-0080003D01*
X0110734Y-0080503D01*
X0111617Y-0080679D01*
X0112501Y-0080503D01*
X0113249Y-0080003D01*
X0113750Y-0079254D01*
X0113835Y-0078827D01*
X0114335Y-0078876D01*
Y-0101692D01*
X0113864Y-0101860D01*
X0113568Y-0101499D01*
X0112264Y-0100429D01*
X0110776Y-0099634D01*
X0109162Y-0099144D01*
X0107483Y-0098979D01*
X0105805Y-0099144D01*
X0104191Y-0099634D01*
X0102703Y-0100429D01*
X0101399Y-0101499D01*
X0100329Y-0102803D01*
X0099534Y-0104291D01*
X0099044Y-0105905D01*
X0098879Y-0107583D01*
X0099044Y-0109262D01*
X0099534Y-0110876D01*
X0100329Y-0112364D01*
X0101399Y-0113668D01*
X0101760Y-0113964D01*
X0101592Y-0114435D01*
X0079193D01*
X0079143Y-0113935D01*
X0079154Y-0113933D01*
X0079903Y-0113432D01*
X0080403Y-0112683D01*
X0080513Y-0112131D01*
X0080531Y-0112080D01*
X0080547Y-0111963D01*
X0080579Y-0111800D01*
X0080576Y-0111785D01*
X0080624Y-0111535D01*
X0080658Y-0111403D01*
X0080697Y-0111282D01*
X0080736Y-0111181D01*
X0080775Y-0111099D01*
X0080810Y-0111037D01*
X0080812Y-0111035D01*
X0082129Y-0109718D01*
X0082414Y-0109291D01*
X0082514Y-0108788D01*
Y-0099967D01*
X0083014Y-0099871D01*
X0083381Y-0100419D01*
X0084032Y-0100854D01*
X0084800Y-0101007D01*
X0085568Y-0100854D01*
X0086219Y-0100419D01*
X0086654Y-0099768D01*
X0086807Y-0099000D01*
X0086654Y-0098232D01*
X0086219Y-0097581D01*
X0085568Y-0097146D01*
X0084800Y-0096993D01*
X0084032Y-0097146D01*
X0083381Y-0097581D01*
X0082946Y-0098232D01*
X0082938Y-0098269D01*
X0082428D01*
X0082414Y-0098197D01*
X0082129Y-0097771D01*
X0076247Y-0091888D01*
X0076262Y-0091853D01*
X0076542Y-0091476D01*
X0077200Y-0091607D01*
X0077968Y-0091454D01*
X0078619Y-0091019D01*
X0079054Y-0090368D01*
X0079207Y-0089600D01*
X0079054Y-0088832D01*
X0078619Y-0088181D01*
X0077968Y-0087746D01*
X0077200Y-0087593D01*
X0076432Y-0087746D01*
X0075781Y-0088181D01*
X0075514Y-0088580D01*
X0075014Y-0088428D01*
Y-0061429D01*
X0074914Y-0060926D01*
X0074629Y-0060499D01*
X0063138Y-0049009D01*
X0063306Y-0048498D01*
X0063307Y-0048497D01*
X0063361Y-0048494D01*
X0084441D01*
X0084807Y-0048994D01*
X0084716Y-0049452D01*
X0084869Y-0050220D01*
X0084979Y-0050385D01*
X0084793Y-0051006D01*
X0084381Y-0051281D01*
X0083946Y-0051932D01*
X0083793Y-0052700D01*
X0083946Y-0053468D01*
X0084381Y-0054119D01*
X0085032Y-0054554D01*
X0085800Y-0054707D01*
X0086568Y-0054554D01*
X0087219Y-0054119D01*
X0087654Y-0053468D01*
X0087807Y-0052700D01*
X0087654Y-0051932D01*
X0087544Y-0051767D01*
X0087731Y-0051146D01*
X0088143Y-0050871D01*
X0088578Y-0050220D01*
X0088731Y-0049452D01*
X0088578Y-0048684D01*
X0088143Y-0048033D01*
X0087503Y-0047605D01*
X0087430Y-0047552D01*
X0087340Y-0047061D01*
X0097280Y-0037122D01*
X0097418Y-0037142D01*
D02*
G37*
G36*
X0038493Y-0006583D02*
X0038282Y-0006617D01*
X0037901Y-0006699D01*
X0037732Y-0006748D01*
X0037433Y-0006860D01*
X0037304Y-0006924D01*
X0037188Y-0006993D01*
X0037086Y-0007067D01*
X0036997Y-0007146D01*
X0036149Y-0006298D01*
X0036228Y-0006209D01*
X0036302Y-0006107D01*
X0036371Y-0005992D01*
X0036435Y-0005863D01*
X0036494Y-0005720D01*
X0036547Y-0005564D01*
X0036640Y-0005210D01*
X0036678Y-0005013D01*
X0036712Y-0004803D01*
X0038493Y-0006583D01*
D02*
G37*
G36*
X0110672Y-0039630D02*
X0110499Y-0039505D01*
X0110172Y-0039294D01*
X0110017Y-0039208D01*
X0109726Y-0039076D01*
X0109590Y-0039030D01*
X0109459Y-0038997D01*
X0109335Y-0038978D01*
X0109216Y-0038971D01*
Y-0037771D01*
X0109335Y-0037764D01*
X0109459Y-0037745D01*
X0109590Y-0037712D01*
X0109726Y-0037665D01*
X0109869Y-0037606D01*
X0110017Y-0037534D01*
X0110333Y-0037349D01*
X0110499Y-0037237D01*
X0110672Y-0037112D01*
Y-0039630D01*
D02*
G37*
%LPC*%
G36*
X0065828Y-0086393D02*
X0065060Y-0086546D01*
X0064409Y-0086981D01*
X0063974Y-0087632D01*
X0063821Y-0088400D01*
X0063974Y-0089168D01*
X0064409Y-0089819D01*
X0065060Y-0090254D01*
X0065828Y-0090407D01*
X0066596Y-0090254D01*
X0067248Y-0089819D01*
X0067683Y-0089168D01*
X0067835Y-0088400D01*
X0067683Y-0087632D01*
X0067248Y-0086981D01*
X0066596Y-0086546D01*
X0065828Y-0086393D01*
D02*
G37*
G36*
X0062779Y-0074739D02*
X0062011Y-0074892D01*
X0061360Y-0075327D01*
X0060925Y-0075978D01*
X0060772Y-0076746D01*
X0060925Y-0077514D01*
X0061360Y-0078166D01*
X0062011Y-0078601D01*
X0062779Y-0078754D01*
X0063547Y-0078601D01*
X0064198Y-0078166D01*
X0064633Y-0077514D01*
X0064786Y-0076746D01*
X0064633Y-0075978D01*
X0064198Y-0075327D01*
X0063547Y-0074892D01*
X0062779Y-0074739D01*
D02*
G37*
G36*
X0065793Y-0094493D02*
X0065025Y-0094646D01*
X0064374Y-0095081D01*
X0063939Y-0095732D01*
X0063786Y-0096500D01*
X0063939Y-0097268D01*
X0064031Y-0097407D01*
X0063731Y-0097857D01*
X0063428Y-0097797D01*
X0063428Y-0097797D01*
X0063348D01*
X0063271Y-0097781D01*
X0063193Y-0097797D01*
X0063114D01*
X0063114Y-0097797D01*
X0063021Y-0097815D01*
X0062868Y-0097676D01*
X0062667Y-0097376D01*
X0062800Y-0096707D01*
X0062647Y-0095939D01*
X0062212Y-0095288D01*
X0061561Y-0094853D01*
X0060793Y-0094700D01*
X0060025Y-0094853D01*
X0059374Y-0095288D01*
X0058939Y-0095939D01*
X0058786Y-0096707D01*
X0058921Y-0097385D01*
X0058732Y-0097673D01*
X0058571Y-0097825D01*
X0058428Y-0097797D01*
X0058428Y-0097797D01*
X0058348D01*
X0058271Y-0097781D01*
X0058193Y-0097797D01*
X0058114D01*
X0058114Y-0097797D01*
X0057577Y-0097904D01*
X0057577D01*
X0057503Y-0097934D01*
X0057426Y-0097949D01*
X0057360Y-0097993D01*
X0057287Y-0098024D01*
X0057287Y-0098024D01*
X0056831Y-0098328D01*
X0056831Y-0098328D01*
X0056775Y-0098384D01*
X0056710Y-0098428D01*
X0056666Y-0098494D01*
X0056610Y-0098550D01*
X0056305Y-0099005D01*
X0056305Y-0099006D01*
X0056275Y-0099079D01*
X0056231Y-0099144D01*
X0056216Y-0099222D01*
X0056186Y-0099295D01*
Y-0099295D01*
X0056078Y-0099832D01*
X0056078Y-0099832D01*
Y-0099912D01*
X0056063Y-0099989D01*
X0056078Y-0100067D01*
Y-0100146D01*
X0056078Y-0100146D01*
X0056186Y-0100683D01*
Y-0100683D01*
X0056216Y-0100757D01*
X0056231Y-0100834D01*
X0056275Y-0100900D01*
X0056305Y-0100973D01*
X0056305Y-0100973D01*
X0056610Y-0101429D01*
X0056610Y-0101429D01*
X0056666Y-0101485D01*
X0056710Y-0101550D01*
X0056775Y-0101594D01*
X0056831Y-0101650D01*
X0057287Y-0101955D01*
X0057287Y-0101955D01*
X0057360Y-0101985D01*
X0057426Y-0102029D01*
X0057503Y-0102044D01*
X0057577Y-0102075D01*
X0057577D01*
X0058114Y-0102181D01*
X0058114Y-0102181D01*
X0058193D01*
X0058271Y-0102197D01*
X0058348Y-0102181D01*
X0058428D01*
X0058428Y-0102181D01*
X0058965Y-0102075D01*
X0058965D01*
X0059038Y-0102044D01*
X0059116Y-0102029D01*
X0059181Y-0101985D01*
X0059254Y-0101955D01*
X0059255Y-0101955D01*
X0059710Y-0101650D01*
X0059710Y-0101650D01*
X0059766Y-0101594D01*
X0059832Y-0101550D01*
X0059876Y-0101485D01*
X0059932Y-0101429D01*
X0060236Y-0100973D01*
X0060236Y-0100973D01*
X0060267Y-0100900D01*
X0060311Y-0100834D01*
X0060326Y-0100757D01*
X0060356Y-0100683D01*
Y-0100683D01*
X0060463Y-0100146D01*
X0060463Y-0100146D01*
Y-0100067D01*
X0060479Y-0099989D01*
X0060463Y-0099912D01*
Y-0099832D01*
X0060463Y-0099832D01*
X0060356Y-0099295D01*
Y-0099295D01*
X0060326Y-0099222D01*
X0060311Y-0099144D01*
X0060298Y-0099125D01*
X0060353Y-0098952D01*
X0060429Y-0098842D01*
X0060620Y-0098680D01*
X0060793Y-0098714D01*
X0060915Y-0098690D01*
X0061100Y-0098839D01*
X0061165Y-0098929D01*
X0061237Y-0099136D01*
X0061231Y-0099144D01*
X0061216Y-0099222D01*
X0061185Y-0099295D01*
Y-0099295D01*
X0061079Y-0099832D01*
X0061079Y-0099832D01*
Y-0099912D01*
X0061063Y-0099989D01*
X0061079Y-0100067D01*
Y-0100146D01*
X0061079Y-0100146D01*
X0061185Y-0100683D01*
Y-0100683D01*
X0061216Y-0100757D01*
X0061231Y-0100834D01*
X0061275Y-0100900D01*
X0061305Y-0100973D01*
X0061305Y-0100973D01*
X0061610Y-0101429D01*
X0061610Y-0101429D01*
X0061666Y-0101485D01*
X0061710Y-0101550D01*
X0061775Y-0101594D01*
X0061831Y-0101650D01*
X0062287Y-0101955D01*
X0062287Y-0101955D01*
X0062360Y-0101985D01*
X0062426Y-0102029D01*
X0062503Y-0102044D01*
X0062577Y-0102075D01*
X0062577D01*
X0063114Y-0102181D01*
X0063114Y-0102181D01*
X0063193D01*
X0063271Y-0102197D01*
X0063348Y-0102181D01*
X0063428D01*
X0063428Y-0102181D01*
X0063965Y-0102075D01*
X0063965D01*
X0064038Y-0102044D01*
X0064116Y-0102029D01*
X0064182Y-0101985D01*
X0064254Y-0101955D01*
X0064255Y-0101955D01*
X0064710Y-0101650D01*
X0064710Y-0101650D01*
X0064766Y-0101594D01*
X0064832Y-0101550D01*
X0064876Y-0101485D01*
X0064932Y-0101429D01*
X0065236Y-0100973D01*
X0065236Y-0100973D01*
X0065267Y-0100900D01*
X0065311Y-0100834D01*
X0065326Y-0100757D01*
X0065356Y-0100683D01*
Y-0100683D01*
X0065463Y-0100146D01*
X0065463Y-0100146D01*
Y-0100067D01*
X0065479Y-0099989D01*
X0065463Y-0099912D01*
Y-0099832D01*
X0065463Y-0099832D01*
X0065356Y-0099295D01*
Y-0099295D01*
X0065326Y-0099222D01*
X0065311Y-0099144D01*
X0065267Y-0099079D01*
X0065236Y-0099006D01*
X0065236Y-0099005D01*
X0065160Y-0098891D01*
X0065461Y-0098441D01*
X0065793Y-0098507D01*
X0066074Y-0098451D01*
X0066375Y-0098901D01*
X0066305Y-0099005D01*
X0066305Y-0099006D01*
X0066275Y-0099079D01*
X0066231Y-0099144D01*
X0066216Y-0099222D01*
X0066185Y-0099295D01*
Y-0099295D01*
X0066079Y-0099832D01*
X0066079Y-0099832D01*
Y-0099912D01*
X0066063Y-0099989D01*
X0066079Y-0100067D01*
Y-0100146D01*
X0066079Y-0100146D01*
X0066185Y-0100683D01*
Y-0100683D01*
X0066216Y-0100757D01*
X0066231Y-0100834D01*
X0066275Y-0100900D01*
X0066305Y-0100973D01*
X0066305Y-0100973D01*
X0066610Y-0101429D01*
X0066610Y-0101429D01*
X0066666Y-0101485D01*
X0066710Y-0101550D01*
X0066775Y-0101594D01*
X0066831Y-0101650D01*
X0067287Y-0101955D01*
X0067287Y-0101955D01*
X0067360Y-0101985D01*
X0067426Y-0102029D01*
X0067503Y-0102044D01*
X0067577Y-0102075D01*
X0067577D01*
X0068114Y-0102181D01*
X0068114Y-0102181D01*
X0068193D01*
X0068271Y-0102197D01*
X0068348Y-0102181D01*
X0068427D01*
X0068427Y-0102181D01*
X0068965Y-0102075D01*
X0068965D01*
X0069038Y-0102044D01*
X0069116Y-0102029D01*
X0069182Y-0101985D01*
X0069254Y-0101955D01*
X0069255Y-0101955D01*
X0069710Y-0101650D01*
X0069710Y-0101650D01*
X0069766Y-0101594D01*
X0069832Y-0101550D01*
X0069876Y-0101485D01*
X0069932Y-0101429D01*
X0070236Y-0100973D01*
X0070236Y-0100973D01*
X0070267Y-0100900D01*
X0070311Y-0100834D01*
X0070326Y-0100757D01*
X0070356Y-0100683D01*
Y-0100683D01*
X0070463Y-0100146D01*
X0070463Y-0100146D01*
Y-0100067D01*
X0070479Y-0099989D01*
X0070463Y-0099912D01*
Y-0099832D01*
X0070463Y-0099832D01*
X0070356Y-0099295D01*
Y-0099295D01*
X0070326Y-0099222D01*
X0070311Y-0099144D01*
X0070267Y-0099079D01*
X0070236Y-0099006D01*
X0070236Y-0099005D01*
X0069932Y-0098550D01*
X0069932Y-0098550D01*
X0069876Y-0098494D01*
X0069832Y-0098428D01*
X0069766Y-0098384D01*
X0069710Y-0098328D01*
X0069255Y-0098024D01*
X0069254Y-0098024D01*
X0069182Y-0097993D01*
X0069116Y-0097949D01*
X0069038Y-0097934D01*
X0068965Y-0097904D01*
X0068965D01*
X0068427Y-0097797D01*
X0068427Y-0097797D01*
X0068348D01*
X0068271Y-0097781D01*
X0068193Y-0097797D01*
X0068114D01*
X0068114Y-0097797D01*
X0067862Y-0097847D01*
X0067561Y-0097397D01*
X0067647Y-0097268D01*
X0067800Y-0096500D01*
X0067647Y-0095732D01*
X0067212Y-0095081D01*
X0066561Y-0094646D01*
X0065793Y-0094493D01*
D02*
G37*
G36*
X0050793D02*
X0050025Y-0094646D01*
X0049374Y-0095081D01*
X0048939Y-0095732D01*
X0048786Y-0096500D01*
X0048939Y-0097268D01*
X0049031Y-0097407D01*
X0048731Y-0097857D01*
X0048428Y-0097797D01*
X0048428Y-0097797D01*
X0048348D01*
X0048271Y-0097781D01*
X0048193Y-0097797D01*
X0048114D01*
X0048114Y-0097797D01*
X0047577Y-0097904D01*
X0047577D01*
X0047504Y-0097934D01*
X0047426Y-0097949D01*
X0047360Y-0097993D01*
X0047287Y-0098024D01*
X0047287Y-0098024D01*
X0046831Y-0098328D01*
X0046831Y-0098328D01*
X0046775Y-0098384D01*
X0046710Y-0098428D01*
X0046666Y-0098494D01*
X0046610Y-0098550D01*
X0046305Y-0099005D01*
X0046305Y-0099006D01*
X0046275Y-0099079D01*
X0046231Y-0099144D01*
X0046216Y-0099222D01*
X0046185Y-0099295D01*
Y-0099295D01*
X0046079Y-0099832D01*
X0046079Y-0099832D01*
Y-0099912D01*
X0046063Y-0099989D01*
X0046079Y-0100067D01*
Y-0100146D01*
X0046079Y-0100146D01*
X0046185Y-0100683D01*
Y-0100683D01*
X0046216Y-0100757D01*
X0046231Y-0100834D01*
X0046275Y-0100900D01*
X0046305Y-0100973D01*
X0046305Y-0100973D01*
X0046610Y-0101429D01*
X0046610Y-0101429D01*
X0046666Y-0101485D01*
X0046710Y-0101550D01*
X0046775Y-0101594D01*
X0046831Y-0101650D01*
X0047287Y-0101955D01*
X0047287Y-0101955D01*
X0047360Y-0101985D01*
X0047426Y-0102029D01*
X0047504Y-0102044D01*
X0047577Y-0102075D01*
X0047577D01*
X0048114Y-0102181D01*
X0048114Y-0102181D01*
X0048193D01*
X0048271Y-0102197D01*
X0048348Y-0102181D01*
X0048428D01*
X0048428Y-0102181D01*
X0048965Y-0102075D01*
X0048965D01*
X0049038Y-0102044D01*
X0049116Y-0102029D01*
X0049182Y-0101985D01*
X0049255Y-0101955D01*
X0049255Y-0101955D01*
X0049710Y-0101650D01*
X0049710Y-0101650D01*
X0049766Y-0101594D01*
X0049832Y-0101550D01*
X0049876Y-0101485D01*
X0049932Y-0101429D01*
X0050236Y-0100973D01*
X0050236Y-0100973D01*
X0050267Y-0100900D01*
X0050311Y-0100834D01*
X0050326Y-0100757D01*
X0050356Y-0100683D01*
Y-0100683D01*
X0050463Y-0100146D01*
X0050463Y-0100146D01*
Y-0100067D01*
X0050479Y-0099989D01*
X0050463Y-0099912D01*
Y-0099832D01*
X0050463Y-0099832D01*
X0050356Y-0099295D01*
Y-0099295D01*
X0050326Y-0099222D01*
X0050311Y-0099144D01*
X0050267Y-0099079D01*
X0050236Y-0099006D01*
X0050236Y-0099005D01*
X0050160Y-0098891D01*
X0050461Y-0098441D01*
X0050793Y-0098507D01*
X0051074Y-0098451D01*
X0051375Y-0098901D01*
X0051305Y-0099005D01*
X0051305Y-0099006D01*
X0051275Y-0099079D01*
X0051231Y-0099144D01*
X0051216Y-0099222D01*
X0051186Y-0099295D01*
Y-0099295D01*
X0051078Y-0099832D01*
X0051078Y-0099832D01*
Y-0099912D01*
X0051063Y-0099989D01*
X0051078Y-0100067D01*
Y-0100146D01*
X0051078Y-0100146D01*
X0051186Y-0100683D01*
Y-0100683D01*
X0051216Y-0100757D01*
X0051231Y-0100834D01*
X0051275Y-0100900D01*
X0051305Y-0100973D01*
X0051305Y-0100973D01*
X0051610Y-0101429D01*
X0051610Y-0101429D01*
X0051666Y-0101485D01*
X0051710Y-0101550D01*
X0051775Y-0101594D01*
X0051831Y-0101650D01*
X0052287Y-0101955D01*
X0052287Y-0101955D01*
X0052360Y-0101985D01*
X0052426Y-0102029D01*
X0052504Y-0102044D01*
X0052577Y-0102075D01*
X0052577D01*
X0053114Y-0102181D01*
X0053114Y-0102181D01*
X0053193D01*
X0053271Y-0102197D01*
X0053348Y-0102181D01*
X0053427D01*
X0053427Y-0102181D01*
X0053965Y-0102075D01*
X0053965D01*
X0054038Y-0102044D01*
X0054116Y-0102029D01*
X0054181Y-0101985D01*
X0054255Y-0101955D01*
X0054255Y-0101955D01*
X0054710Y-0101650D01*
X0054710Y-0101650D01*
X0054766Y-0101594D01*
X0054832Y-0101550D01*
X0054876Y-0101485D01*
X0054932Y-0101429D01*
X0055236Y-0100973D01*
X0055236Y-0100973D01*
X0055267Y-0100900D01*
X0055311Y-0100834D01*
X0055326Y-0100757D01*
X0055356Y-0100683D01*
Y-0100683D01*
X0055463Y-0100146D01*
X0055463Y-0100146D01*
Y-0100067D01*
X0055479Y-0099989D01*
X0055463Y-0099912D01*
Y-0099832D01*
X0055463Y-0099832D01*
X0055356Y-0099295D01*
Y-0099295D01*
X0055326Y-0099222D01*
X0055311Y-0099144D01*
X0055267Y-0099079D01*
X0055236Y-0099006D01*
X0055236Y-0099005D01*
X0054932Y-0098550D01*
X0054932Y-0098550D01*
X0054876Y-0098494D01*
X0054832Y-0098428D01*
X0054766Y-0098384D01*
X0054710Y-0098328D01*
X0054255Y-0098024D01*
X0054255Y-0098024D01*
X0054181Y-0097993D01*
X0054116Y-0097949D01*
X0054038Y-0097934D01*
X0053965Y-0097904D01*
X0053965D01*
X0053427Y-0097797D01*
X0053427Y-0097797D01*
X0053348D01*
X0053271Y-0097781D01*
X0053193Y-0097797D01*
X0053114D01*
X0053114Y-0097797D01*
X0052862Y-0097847D01*
X0052561Y-0097397D01*
X0052647Y-0097268D01*
X0052800Y-0096500D01*
X0052647Y-0095732D01*
X0052212Y-0095081D01*
X0051561Y-0094646D01*
X0050793Y-0094493D01*
D02*
G37*
G36*
X0029300Y-0103091D02*
X0028532Y-0103244D01*
X0027881Y-0103679D01*
X0027446Y-0104330D01*
X0027293Y-0105098D01*
X0027446Y-0105866D01*
X0027881Y-0106517D01*
X0028532Y-0106952D01*
X0029300Y-0107105D01*
X0030068Y-0106952D01*
X0030719Y-0106517D01*
X0031154Y-0105866D01*
X0031307Y-0105098D01*
X0031154Y-0104330D01*
X0030719Y-0103679D01*
X0030068Y-0103244D01*
X0029300Y-0103091D01*
D02*
G37*
G36*
X0038271Y-0097781D02*
X0038193Y-0097797D01*
X0038114D01*
X0038114Y-0097797D01*
X0037577Y-0097904D01*
X0037577D01*
X0037503Y-0097934D01*
X0037426Y-0097949D01*
X0037360Y-0097993D01*
X0037287Y-0098024D01*
X0037287Y-0098024D01*
X0036831Y-0098328D01*
X0036831Y-0098328D01*
X0036775Y-0098384D01*
X0036710Y-0098428D01*
X0036666Y-0098494D01*
X0036610Y-0098550D01*
X0036305Y-0099005D01*
X0036305Y-0099006D01*
X0036275Y-0099079D01*
X0036231Y-0099144D01*
X0036216Y-0099222D01*
X0036186Y-0099295D01*
Y-0099295D01*
X0036079Y-0099832D01*
X0036079Y-0099832D01*
Y-0099912D01*
X0036063Y-0099989D01*
X0036079Y-0100067D01*
Y-0100146D01*
X0036079Y-0100146D01*
X0036186Y-0100683D01*
Y-0100683D01*
X0036216Y-0100757D01*
X0036231Y-0100834D01*
X0036275Y-0100900D01*
X0036305Y-0100973D01*
X0036305Y-0100973D01*
X0036610Y-0101429D01*
X0036610Y-0101429D01*
X0036666Y-0101485D01*
X0036710Y-0101550D01*
X0036775Y-0101594D01*
X0036831Y-0101650D01*
X0037287Y-0101955D01*
X0037287Y-0101955D01*
X0037360Y-0101985D01*
X0037426Y-0102029D01*
X0037503Y-0102044D01*
X0037577Y-0102075D01*
X0037577D01*
X0038114Y-0102181D01*
X0038114Y-0102181D01*
X0038193D01*
X0038271Y-0102197D01*
X0038348Y-0102181D01*
X0038427D01*
X0038427Y-0102181D01*
X0038965Y-0102075D01*
X0038965D01*
X0039038Y-0102044D01*
X0039116Y-0102029D01*
X0039182Y-0101985D01*
X0039255Y-0101955D01*
X0039255Y-0101955D01*
X0039710Y-0101650D01*
X0039710Y-0101650D01*
X0039766Y-0101594D01*
X0039832Y-0101550D01*
X0039876Y-0101485D01*
X0039932Y-0101429D01*
X0040236Y-0100973D01*
X0040236Y-0100973D01*
X0040267Y-0100900D01*
X0040311Y-0100834D01*
X0040326Y-0100757D01*
X0040356Y-0100683D01*
Y-0100683D01*
X0040463Y-0100146D01*
X0040463Y-0100146D01*
Y-0100067D01*
X0040479Y-0099989D01*
X0040463Y-0099912D01*
Y-0099832D01*
X0040463Y-0099832D01*
X0040356Y-0099295D01*
Y-0099295D01*
X0040326Y-0099222D01*
X0040311Y-0099144D01*
X0040267Y-0099079D01*
X0040236Y-0099006D01*
X0040236Y-0099005D01*
X0039932Y-0098550D01*
X0039932Y-0098550D01*
X0039876Y-0098494D01*
X0039832Y-0098428D01*
X0039766Y-0098384D01*
X0039710Y-0098328D01*
X0039255Y-0098024D01*
X0039255Y-0098024D01*
X0039182Y-0097993D01*
X0039116Y-0097949D01*
X0039038Y-0097934D01*
X0038965Y-0097904D01*
X0038965D01*
X0038427Y-0097797D01*
X0038427Y-0097797D01*
X0038348D01*
X0038271Y-0097781D01*
D02*
G37*
G36*
X0043271D02*
X0043193Y-0097797D01*
X0043114D01*
X0043114Y-0097797D01*
X0042577Y-0097904D01*
X0042577D01*
X0042503Y-0097934D01*
X0042426Y-0097949D01*
X0042360Y-0097993D01*
X0042287Y-0098024D01*
X0042287Y-0098024D01*
X0041831Y-0098328D01*
X0041831Y-0098328D01*
X0041775Y-0098384D01*
X0041710Y-0098428D01*
X0041666Y-0098494D01*
X0041610Y-0098550D01*
X0041305Y-0099005D01*
X0041305Y-0099006D01*
X0041275Y-0099079D01*
X0041231Y-0099144D01*
X0041216Y-0099222D01*
X0041186Y-0099295D01*
Y-0099295D01*
X0041078Y-0099832D01*
X0041078Y-0099832D01*
Y-0099912D01*
X0041063Y-0099989D01*
X0041078Y-0100067D01*
Y-0100146D01*
X0041078Y-0100146D01*
X0041186Y-0100683D01*
Y-0100683D01*
X0041216Y-0100757D01*
X0041231Y-0100834D01*
X0041275Y-0100900D01*
X0041305Y-0100973D01*
X0041305Y-0100973D01*
X0041610Y-0101429D01*
X0041610Y-0101429D01*
X0041666Y-0101485D01*
X0041710Y-0101550D01*
X0041775Y-0101594D01*
X0041831Y-0101650D01*
X0042287Y-0101955D01*
X0042287Y-0101955D01*
X0042360Y-0101985D01*
X0042426Y-0102029D01*
X0042503Y-0102044D01*
X0042577Y-0102075D01*
X0042577D01*
X0043114Y-0102181D01*
X0043114Y-0102181D01*
X0043193D01*
X0043271Y-0102197D01*
X0043348Y-0102181D01*
X0043428D01*
X0043428Y-0102181D01*
X0043965Y-0102075D01*
X0043965D01*
X0044038Y-0102044D01*
X0044116Y-0102029D01*
X0044181Y-0101985D01*
X0044255Y-0101955D01*
X0044255Y-0101955D01*
X0044710Y-0101650D01*
X0044710Y-0101650D01*
X0044766Y-0101594D01*
X0044832Y-0101550D01*
X0044876Y-0101485D01*
X0044932Y-0101429D01*
X0045236Y-0100973D01*
X0045236Y-0100973D01*
X0045267Y-0100900D01*
X0045311Y-0100834D01*
X0045326Y-0100757D01*
X0045356Y-0100683D01*
Y-0100683D01*
X0045463Y-0100146D01*
X0045463Y-0100146D01*
Y-0100067D01*
X0045479Y-0099989D01*
X0045463Y-0099912D01*
Y-0099832D01*
X0045463Y-0099832D01*
X0045356Y-0099295D01*
Y-0099295D01*
X0045326Y-0099222D01*
X0045311Y-0099144D01*
X0045267Y-0099079D01*
X0045236Y-0099006D01*
X0045236Y-0099005D01*
X0044932Y-0098550D01*
X0044932Y-0098550D01*
X0044876Y-0098494D01*
X0044832Y-0098428D01*
X0044766Y-0098384D01*
X0044710Y-0098328D01*
X0044255Y-0098024D01*
X0044255Y-0098024D01*
X0044181Y-0097993D01*
X0044116Y-0097949D01*
X0044038Y-0097934D01*
X0043965Y-0097904D01*
X0043965D01*
X0043428Y-0097797D01*
X0043428Y-0097797D01*
X0043348D01*
X0043271Y-0097781D01*
D02*
G37*
G36*
X0068900Y-0068793D02*
X0068132Y-0068946D01*
X0067481Y-0069381D01*
X0067046Y-0070032D01*
X0066893Y-0070800D01*
X0067046Y-0071568D01*
X0067481Y-0072219D01*
X0068132Y-0072654D01*
X0068900Y-0072807D01*
X0069668Y-0072654D01*
X0070319Y-0072219D01*
X0070754Y-0071568D01*
X0070907Y-0070800D01*
X0070754Y-0070032D01*
X0070319Y-0069381D01*
X0069668Y-0068946D01*
X0068900Y-0068793D01*
D02*
G37*
G36*
X0061800Y-0065693D02*
X0061032Y-0065846D01*
X0060381Y-0066281D01*
X0059946Y-0066932D01*
X0059793Y-0067700D01*
X0059946Y-0068468D01*
X0060381Y-0069119D01*
X0061032Y-0069554D01*
X0061800Y-0069707D01*
X0062568Y-0069554D01*
X0063219Y-0069119D01*
X0063654Y-0068468D01*
X0063807Y-0067700D01*
X0063654Y-0066932D01*
X0063219Y-0066281D01*
X0062568Y-0065846D01*
X0061800Y-0065693D01*
D02*
G37*
G36*
X0086800Y-0009595D02*
X0086032Y-0009748D01*
X0085381Y-0010183D01*
X0084946Y-0010834D01*
X0084793Y-0011602D01*
X0084946Y-0012370D01*
X0085381Y-0013021D01*
X0086032Y-0013456D01*
X0086800Y-0013609D01*
X0087568Y-0013456D01*
X0088219Y-0013021D01*
X0088655Y-0012370D01*
X0088807Y-0011602D01*
X0088655Y-0010834D01*
X0088219Y-0010183D01*
X0087568Y-0009748D01*
X0086800Y-0009595D01*
D02*
G37*
G36*
X0073271Y-0014628D02*
X0073193Y-0014643D01*
X0073114D01*
X0073114Y-0014643D01*
X0072577Y-0014750D01*
X0072577D01*
X0072504Y-0014780D01*
X0072426Y-0014796D01*
X0072360Y-0014840D01*
X0072287Y-0014870D01*
X0072287Y-0014870D01*
X0071831Y-0015174D01*
X0071831Y-0015174D01*
X0071775Y-0015230D01*
X0071710Y-0015274D01*
X0071666Y-0015340D01*
X0071610Y-0015396D01*
X0071305Y-0015852D01*
X0071305Y-0015852D01*
X0071275Y-0015925D01*
X0071231Y-0015991D01*
X0071216Y-0016068D01*
X0071185Y-0016141D01*
Y-0016141D01*
X0071078Y-0016679D01*
X0071078Y-0016679D01*
Y-0016758D01*
X0071063Y-0016835D01*
X0071078Y-0016913D01*
Y-0016992D01*
X0071078Y-0016992D01*
X0071185Y-0017530D01*
Y-0017530D01*
X0071216Y-0017603D01*
X0071231Y-0017680D01*
X0071275Y-0017746D01*
X0071305Y-0017819D01*
X0071305Y-0017819D01*
X0071610Y-0018275D01*
X0071610Y-0018275D01*
X0071666Y-0018331D01*
X0071710Y-0018397D01*
X0071775Y-0018440D01*
X0071831Y-0018496D01*
X0072118Y-0018688D01*
X0072168Y-0019171D01*
X0072136Y-0019272D01*
X0072132Y-0019280D01*
X0071981Y-0019381D01*
X0071546Y-0020032D01*
X0071393Y-0020800D01*
X0071546Y-0021568D01*
X0071981Y-0022219D01*
X0072632Y-0022654D01*
X0073400Y-0022807D01*
X0074168Y-0022654D01*
X0074819Y-0022219D01*
X0075254Y-0021568D01*
X0075407Y-0020800D01*
X0075254Y-0020032D01*
X0074819Y-0019381D01*
X0074553Y-0019203D01*
X0074553Y-0018601D01*
X0074710Y-0018496D01*
X0074710Y-0018496D01*
X0074766Y-0018440D01*
X0074832Y-0018397D01*
X0074876Y-0018331D01*
X0074932Y-0018275D01*
X0075236Y-0017819D01*
X0075236Y-0017819D01*
X0075267Y-0017746D01*
X0075311Y-0017680D01*
X0075326Y-0017603D01*
X0075356Y-0017530D01*
Y-0017530D01*
X0075463Y-0016992D01*
X0075463Y-0016992D01*
Y-0016913D01*
X0075479Y-0016835D01*
X0075463Y-0016758D01*
Y-0016679D01*
X0075463Y-0016679D01*
X0075356Y-0016141D01*
Y-0016141D01*
X0075326Y-0016068D01*
X0075311Y-0015991D01*
X0075267Y-0015925D01*
X0075236Y-0015852D01*
X0075236Y-0015852D01*
X0074932Y-0015396D01*
X0074932Y-0015396D01*
X0074876Y-0015340D01*
X0074832Y-0015274D01*
X0074766Y-0015230D01*
X0074710Y-0015175D01*
X0074255Y-0014870D01*
X0074255Y-0014870D01*
X0074181Y-0014840D01*
X0074116Y-0014796D01*
X0074038Y-0014780D01*
X0073965Y-0014750D01*
X0073965D01*
X0073427Y-0014643D01*
X0073427Y-0014643D01*
X0073348D01*
X0073271Y-0014628D01*
D02*
G37*
G36*
X0078271D02*
X0078193Y-0014643D01*
X0078114D01*
X0078114Y-0014643D01*
X0077577Y-0014750D01*
X0077577D01*
X0077504Y-0014780D01*
X0077426Y-0014796D01*
X0077360Y-0014840D01*
X0077287Y-0014870D01*
X0077287Y-0014870D01*
X0076831Y-0015174D01*
X0076831Y-0015174D01*
X0076775Y-0015230D01*
X0076710Y-0015274D01*
X0076666Y-0015340D01*
X0076610Y-0015396D01*
X0076305Y-0015852D01*
X0076305Y-0015852D01*
X0076275Y-0015925D01*
X0076231Y-0015991D01*
X0076216Y-0016068D01*
X0076186Y-0016141D01*
Y-0016141D01*
X0076078Y-0016679D01*
X0076078Y-0016679D01*
Y-0016758D01*
X0076063Y-0016835D01*
X0076078Y-0016913D01*
Y-0016992D01*
X0076078Y-0016992D01*
X0076186Y-0017530D01*
Y-0017530D01*
X0076216Y-0017603D01*
X0076231Y-0017680D01*
X0076275Y-0017746D01*
X0076305Y-0017819D01*
X0076305Y-0017819D01*
X0076610Y-0018275D01*
X0076610Y-0018275D01*
X0076666Y-0018331D01*
X0076710Y-0018397D01*
X0076775Y-0018440D01*
X0076831Y-0018496D01*
X0077287Y-0018801D01*
X0077287Y-0018801D01*
X0077360Y-0018831D01*
X0077426Y-0018875D01*
X0077504Y-0018891D01*
X0077577Y-0018921D01*
X0077577D01*
X0078114Y-0019028D01*
X0078114Y-0019028D01*
X0078193D01*
X0078271Y-0019043D01*
X0078348Y-0019028D01*
X0078427D01*
X0078427Y-0019028D01*
X0078965Y-0018921D01*
X0078965D01*
X0079038Y-0018891D01*
X0079116Y-0018875D01*
X0079181Y-0018831D01*
X0079255Y-0018801D01*
X0079255Y-0018801D01*
X0079333Y-0018749D01*
X0079888Y-0018979D01*
X0079946Y-0019268D01*
X0080381Y-0019919D01*
X0081032Y-0020354D01*
X0081800Y-0020507D01*
X0082568Y-0020354D01*
X0083219Y-0019919D01*
X0083654Y-0019268D01*
X0083807Y-0018500D01*
X0083654Y-0017732D01*
X0083219Y-0017081D01*
X0082568Y-0016646D01*
X0081800Y-0016493D01*
X0081032Y-0016646D01*
X0080963Y-0016692D01*
X0080875Y-0016689D01*
X0080418Y-0016454D01*
X0080356Y-0016141D01*
Y-0016141D01*
X0080326Y-0016068D01*
X0080311Y-0015991D01*
X0080267Y-0015925D01*
X0080236Y-0015852D01*
X0080236Y-0015852D01*
X0079932Y-0015396D01*
X0079932Y-0015396D01*
X0079876Y-0015340D01*
X0079832Y-0015274D01*
X0079766Y-0015230D01*
X0079710Y-0015175D01*
X0079255Y-0014870D01*
X0079255Y-0014870D01*
X0079181Y-0014840D01*
X0079116Y-0014796D01*
X0079038Y-0014780D01*
X0078965Y-0014750D01*
X0078965D01*
X0078427Y-0014643D01*
X0078427Y-0014643D01*
X0078348D01*
X0078271Y-0014628D01*
D02*
G37*
G36*
X0053330Y-0023393D02*
X0052562Y-0023546D01*
X0051911Y-0023981D01*
X0051476Y-0024632D01*
X0051323Y-0025400D01*
X0051476Y-0026168D01*
X0051911Y-0026819D01*
X0052562Y-0027254D01*
X0053330Y-0027407D01*
X0054098Y-0027254D01*
X0054582Y-0026931D01*
X0054749Y-0026819D01*
X0055113Y-0027132D01*
X0055014Y-0027280D01*
X0054846Y-0027532D01*
X0054693Y-0028300D01*
X0054846Y-0029068D01*
X0055281Y-0029719D01*
X0055932Y-0030154D01*
X0056700Y-0030307D01*
X0057468Y-0030154D01*
X0058119Y-0029719D01*
X0058554Y-0029068D01*
X0058707Y-0028300D01*
X0058554Y-0027532D01*
X0058119Y-0026881D01*
X0057468Y-0026446D01*
X0056700Y-0026293D01*
X0055932Y-0026446D01*
X0055448Y-0026769D01*
X0055281Y-0026881D01*
X0054917Y-0026568D01*
X0055016Y-0026420D01*
X0055184Y-0026168D01*
X0055337Y-0025400D01*
X0055184Y-0024632D01*
X0054749Y-0023981D01*
X0054098Y-0023546D01*
X0053330Y-0023393D01*
D02*
G37*
G36*
X0065900Y-0026493D02*
X0065132Y-0026646D01*
X0064481Y-0027081D01*
X0064046Y-0027732D01*
X0063893Y-0028500D01*
X0064046Y-0029268D01*
X0064481Y-0029919D01*
X0065132Y-0030354D01*
X0065900Y-0030507D01*
X0066668Y-0030354D01*
X0067319Y-0029919D01*
X0067754Y-0029268D01*
X0067907Y-0028500D01*
X0067754Y-0027732D01*
X0067319Y-0027081D01*
X0066668Y-0026646D01*
X0065900Y-0026493D01*
D02*
G37*
G36*
X0038271Y-0014628D02*
X0038193Y-0014643D01*
X0038114D01*
X0038114Y-0014643D01*
X0037577Y-0014750D01*
X0037577D01*
X0037503Y-0014780D01*
X0037426Y-0014796D01*
X0037360Y-0014840D01*
X0037287Y-0014870D01*
X0037287Y-0014870D01*
X0036831Y-0015174D01*
X0036831Y-0015174D01*
X0036775Y-0015230D01*
X0036710Y-0015274D01*
X0036666Y-0015340D01*
X0036610Y-0015396D01*
X0036305Y-0015852D01*
X0036305Y-0015852D01*
X0036275Y-0015925D01*
X0036231Y-0015991D01*
X0036216Y-0016068D01*
X0036186Y-0016141D01*
Y-0016141D01*
X0036079Y-0016679D01*
X0036079Y-0016679D01*
Y-0016758D01*
X0036063Y-0016835D01*
X0036079Y-0016913D01*
Y-0016992D01*
X0036079Y-0016992D01*
X0036186Y-0017530D01*
Y-0017530D01*
X0036216Y-0017603D01*
X0036231Y-0017680D01*
X0036275Y-0017746D01*
X0036305Y-0017819D01*
X0036305Y-0017819D01*
X0036610Y-0018275D01*
X0036610Y-0018275D01*
X0036666Y-0018331D01*
X0036710Y-0018397D01*
X0036775Y-0018440D01*
X0036831Y-0018496D01*
X0037287Y-0018801D01*
X0037287Y-0018801D01*
X0037360Y-0018831D01*
X0037426Y-0018875D01*
X0037503Y-0018891D01*
X0037577Y-0018921D01*
X0037577D01*
X0038114Y-0019028D01*
X0038114Y-0019028D01*
X0038193D01*
X0038271Y-0019043D01*
X0038348Y-0019028D01*
X0038427D01*
X0038427Y-0019028D01*
X0038965Y-0018921D01*
X0038965D01*
X0039038Y-0018891D01*
X0039116Y-0018875D01*
X0039182Y-0018831D01*
X0039255Y-0018801D01*
X0039255Y-0018801D01*
X0039710Y-0018496D01*
X0039710Y-0018496D01*
X0039766Y-0018440D01*
X0039832Y-0018397D01*
X0039876Y-0018331D01*
X0039932Y-0018275D01*
X0040236Y-0017819D01*
X0040236Y-0017819D01*
X0040267Y-0017746D01*
X0040311Y-0017680D01*
X0040326Y-0017603D01*
X0040356Y-0017530D01*
Y-0017530D01*
X0040463Y-0016992D01*
X0040463Y-0016992D01*
Y-0016913D01*
X0040479Y-0016835D01*
X0040463Y-0016758D01*
Y-0016679D01*
X0040463Y-0016679D01*
X0040356Y-0016141D01*
Y-0016141D01*
X0040326Y-0016068D01*
X0040311Y-0015991D01*
X0040267Y-0015925D01*
X0040236Y-0015852D01*
X0040236Y-0015852D01*
X0039932Y-0015396D01*
X0039932Y-0015396D01*
X0039876Y-0015340D01*
X0039832Y-0015274D01*
X0039766Y-0015230D01*
X0039710Y-0015175D01*
X0039255Y-0014870D01*
X0039255Y-0014870D01*
X0039182Y-0014840D01*
X0039116Y-0014796D01*
X0039038Y-0014780D01*
X0038965Y-0014750D01*
X0038965D01*
X0038427Y-0014643D01*
X0038427Y-0014643D01*
X0038348D01*
X0038271Y-0014628D01*
D02*
G37*
G36*
X0048271D02*
X0048193Y-0014643D01*
X0048114D01*
X0048114Y-0014643D01*
X0047577Y-0014750D01*
X0047577D01*
X0047504Y-0014780D01*
X0047426Y-0014796D01*
X0047360Y-0014840D01*
X0047287Y-0014870D01*
X0047287Y-0014870D01*
X0046831Y-0015174D01*
X0046831Y-0015174D01*
X0046775Y-0015230D01*
X0046710Y-0015274D01*
X0046666Y-0015340D01*
X0046610Y-0015396D01*
X0046305Y-0015852D01*
X0046305Y-0015852D01*
X0046275Y-0015925D01*
X0046231Y-0015991D01*
X0046216Y-0016068D01*
X0046185Y-0016141D01*
Y-0016141D01*
X0046079Y-0016679D01*
X0045722Y-0016770D01*
X0045454Y-0016635D01*
X0045356Y-0016141D01*
Y-0016141D01*
X0045326Y-0016068D01*
X0045311Y-0015991D01*
X0045267Y-0015925D01*
X0045236Y-0015852D01*
X0045236Y-0015852D01*
X0044932Y-0015396D01*
X0044932Y-0015396D01*
X0044876Y-0015340D01*
X0044832Y-0015274D01*
X0044766Y-0015230D01*
X0044710Y-0015175D01*
X0044255Y-0014870D01*
X0044255Y-0014870D01*
X0044181Y-0014840D01*
X0044116Y-0014796D01*
X0044038Y-0014780D01*
X0043965Y-0014750D01*
X0043965D01*
X0043428Y-0014643D01*
X0043428Y-0014643D01*
X0043348D01*
X0043271Y-0014628D01*
X0043193Y-0014643D01*
X0043114D01*
X0043114Y-0014643D01*
X0042577Y-0014750D01*
X0042577D01*
X0042503Y-0014780D01*
X0042426Y-0014796D01*
X0042360Y-0014840D01*
X0042287Y-0014870D01*
X0042287Y-0014870D01*
X0041831Y-0015174D01*
X0041831Y-0015174D01*
X0041775Y-0015230D01*
X0041710Y-0015274D01*
X0041666Y-0015340D01*
X0041610Y-0015396D01*
X0041305Y-0015852D01*
X0041305Y-0015852D01*
X0041275Y-0015925D01*
X0041231Y-0015991D01*
X0041216Y-0016068D01*
X0041186Y-0016141D01*
Y-0016141D01*
X0041078Y-0016679D01*
X0041078Y-0016679D01*
Y-0016758D01*
X0041063Y-0016835D01*
X0041078Y-0016913D01*
Y-0016992D01*
X0041078Y-0016992D01*
X0041186Y-0017530D01*
Y-0017530D01*
X0041216Y-0017603D01*
X0041231Y-0017680D01*
X0041275Y-0017746D01*
X0041305Y-0017819D01*
X0041305Y-0017819D01*
X0041610Y-0018275D01*
X0041610Y-0018275D01*
X0041666Y-0018331D01*
X0041710Y-0018397D01*
X0041775Y-0018440D01*
X0041831Y-0018496D01*
X0042287Y-0018801D01*
X0042287Y-0018801D01*
X0042360Y-0018831D01*
X0042426Y-0018875D01*
X0042503Y-0018891D01*
X0042577Y-0018921D01*
X0042577D01*
X0043114Y-0019028D01*
X0043114Y-0019028D01*
X0043193D01*
X0043271Y-0019043D01*
X0043424Y-0019105D01*
X0043560Y-0019189D01*
X0043788Y-0019466D01*
X0043894Y-0020002D01*
X0044330Y-0020653D01*
X0044981Y-0021089D01*
X0045749Y-0021241D01*
X0046517Y-0021089D01*
X0047168Y-0020653D01*
X0047603Y-0020002D01*
X0047712Y-0019457D01*
X0048052Y-0019095D01*
X0048193Y-0019028D01*
X0048271Y-0019043D01*
X0048348Y-0019028D01*
X0048428D01*
X0048428Y-0019028D01*
X0048965Y-0018921D01*
X0048965D01*
X0049038Y-0018891D01*
X0049116Y-0018875D01*
X0049182Y-0018831D01*
X0049255Y-0018801D01*
X0049255Y-0018801D01*
X0049710Y-0018496D01*
X0049710Y-0018496D01*
X0049766Y-0018440D01*
X0049832Y-0018397D01*
X0049876Y-0018331D01*
X0049932Y-0018275D01*
X0050236Y-0017819D01*
X0050236Y-0017819D01*
X0050267Y-0017746D01*
X0050311Y-0017680D01*
X0050326Y-0017603D01*
X0050356Y-0017530D01*
Y-0017530D01*
X0050463Y-0016992D01*
X0050463Y-0016992D01*
Y-0016913D01*
X0050479Y-0016835D01*
X0050463Y-0016758D01*
Y-0016679D01*
X0050463Y-0016679D01*
X0050356Y-0016141D01*
Y-0016141D01*
X0050326Y-0016068D01*
X0050311Y-0015991D01*
X0050267Y-0015925D01*
X0050236Y-0015852D01*
X0050236Y-0015852D01*
X0049932Y-0015396D01*
X0049932Y-0015396D01*
X0049876Y-0015340D01*
X0049832Y-0015274D01*
X0049766Y-0015230D01*
X0049710Y-0015175D01*
X0049255Y-0014870D01*
X0049255Y-0014870D01*
X0049182Y-0014840D01*
X0049116Y-0014796D01*
X0049038Y-0014780D01*
X0048965Y-0014750D01*
X0048965D01*
X0048428Y-0014643D01*
X0048428Y-0014643D01*
X0048348D01*
X0048271Y-0014628D01*
D02*
G37*
G36*
X0068271D02*
X0068193Y-0014643D01*
X0068114D01*
X0068114Y-0014643D01*
X0067577Y-0014750D01*
X0067577D01*
X0067503Y-0014780D01*
X0067426Y-0014796D01*
X0067360Y-0014840D01*
X0067287Y-0014870D01*
X0067287Y-0014870D01*
X0066831Y-0015174D01*
X0066831Y-0015174D01*
X0066775Y-0015230D01*
X0066710Y-0015274D01*
X0066666Y-0015340D01*
X0066610Y-0015396D01*
X0066305Y-0015852D01*
X0066305Y-0015852D01*
X0066275Y-0015925D01*
X0066231Y-0015991D01*
X0066216Y-0016068D01*
X0066185Y-0016141D01*
Y-0016141D01*
X0066079Y-0016679D01*
X0065704Y-0016815D01*
X0065467Y-0016777D01*
X0065463Y-0016758D01*
Y-0016679D01*
X0065463Y-0016679D01*
X0065356Y-0016141D01*
Y-0016141D01*
X0065326Y-0016068D01*
X0065311Y-0015991D01*
X0065267Y-0015925D01*
X0065236Y-0015852D01*
X0065236Y-0015852D01*
X0064932Y-0015396D01*
X0064932Y-0015396D01*
X0064876Y-0015340D01*
X0064832Y-0015274D01*
X0064766Y-0015230D01*
X0064710Y-0015175D01*
X0064255Y-0014870D01*
X0064254Y-0014870D01*
X0064182Y-0014840D01*
X0064116Y-0014796D01*
X0064038Y-0014780D01*
X0063965Y-0014750D01*
X0063965D01*
X0063428Y-0014643D01*
X0063428Y-0014643D01*
X0063348D01*
X0063271Y-0014628D01*
X0063193Y-0014643D01*
X0063114D01*
X0063114Y-0014643D01*
X0062577Y-0014750D01*
X0062577D01*
X0062503Y-0014780D01*
X0062426Y-0014796D01*
X0062360Y-0014840D01*
X0062287Y-0014870D01*
X0062287Y-0014870D01*
X0061831Y-0015174D01*
X0061831Y-0015174D01*
X0061775Y-0015230D01*
X0061710Y-0015274D01*
X0061666Y-0015340D01*
X0061610Y-0015396D01*
X0061305Y-0015852D01*
X0061305Y-0015852D01*
X0061275Y-0015925D01*
X0061231Y-0015991D01*
X0061216Y-0016068D01*
X0061185Y-0016141D01*
Y-0016141D01*
X0061087Y-0016635D01*
X0060820Y-0016770D01*
X0060463Y-0016679D01*
X0060356Y-0016141D01*
Y-0016141D01*
X0060326Y-0016068D01*
X0060311Y-0015991D01*
X0060267Y-0015925D01*
X0060236Y-0015852D01*
X0060236Y-0015852D01*
X0059932Y-0015396D01*
X0059932Y-0015396D01*
X0059876Y-0015340D01*
X0059832Y-0015274D01*
X0059766Y-0015230D01*
X0059710Y-0015175D01*
X0059255Y-0014870D01*
X0059254Y-0014870D01*
X0059181Y-0014840D01*
X0059116Y-0014796D01*
X0059038Y-0014780D01*
X0058965Y-0014750D01*
X0058965D01*
X0058428Y-0014643D01*
X0058428Y-0014643D01*
X0058348D01*
X0058271Y-0014628D01*
X0058193Y-0014643D01*
X0058114D01*
X0058114Y-0014643D01*
X0057577Y-0014750D01*
X0057577D01*
X0057503Y-0014780D01*
X0057426Y-0014796D01*
X0057360Y-0014840D01*
X0057287Y-0014870D01*
X0057287Y-0014870D01*
X0056831Y-0015174D01*
X0056831Y-0015174D01*
X0056775Y-0015230D01*
X0056710Y-0015274D01*
X0056666Y-0015340D01*
X0056610Y-0015396D01*
X0056305Y-0015852D01*
X0056305Y-0015852D01*
X0056275Y-0015925D01*
X0056231Y-0015991D01*
X0056216Y-0016068D01*
X0056186Y-0016141D01*
Y-0016141D01*
X0056078Y-0016679D01*
X0055722Y-0016770D01*
X0055454Y-0016635D01*
X0055356Y-0016141D01*
Y-0016141D01*
X0055326Y-0016068D01*
X0055311Y-0015991D01*
X0055267Y-0015925D01*
X0055236Y-0015852D01*
X0055236Y-0015852D01*
X0054932Y-0015396D01*
X0054932Y-0015396D01*
X0054876Y-0015340D01*
X0054832Y-0015274D01*
X0054766Y-0015230D01*
X0054710Y-0015175D01*
X0054255Y-0014870D01*
X0054255Y-0014870D01*
X0054181Y-0014840D01*
X0054116Y-0014796D01*
X0054038Y-0014780D01*
X0053965Y-0014750D01*
X0053965D01*
X0053427Y-0014643D01*
X0053427Y-0014643D01*
X0053348D01*
X0053271Y-0014628D01*
X0053193Y-0014643D01*
X0053114D01*
X0053114Y-0014643D01*
X0052577Y-0014750D01*
X0052577D01*
X0052504Y-0014780D01*
X0052426Y-0014796D01*
X0052360Y-0014840D01*
X0052287Y-0014870D01*
X0052287Y-0014870D01*
X0051831Y-0015174D01*
X0051831Y-0015174D01*
X0051775Y-0015230D01*
X0051710Y-0015274D01*
X0051666Y-0015340D01*
X0051610Y-0015396D01*
X0051305Y-0015852D01*
X0051305Y-0015852D01*
X0051275Y-0015925D01*
X0051231Y-0015991D01*
X0051216Y-0016068D01*
X0051186Y-0016141D01*
Y-0016141D01*
X0051078Y-0016679D01*
X0051078Y-0016679D01*
Y-0016758D01*
X0051063Y-0016835D01*
X0051078Y-0016913D01*
Y-0016992D01*
X0051078Y-0016992D01*
X0051186Y-0017530D01*
Y-0017530D01*
X0051216Y-0017603D01*
X0051231Y-0017680D01*
X0051275Y-0017746D01*
X0051305Y-0017819D01*
X0051305Y-0017819D01*
X0051610Y-0018275D01*
X0051610Y-0018275D01*
X0051666Y-0018331D01*
X0051710Y-0018397D01*
X0051775Y-0018440D01*
X0051831Y-0018496D01*
X0052287Y-0018801D01*
X0052287Y-0018801D01*
X0052360Y-0018831D01*
X0052426Y-0018875D01*
X0052504Y-0018891D01*
X0052577Y-0018921D01*
X0052577D01*
X0053114Y-0019028D01*
X0053114Y-0019028D01*
X0053193D01*
X0053271Y-0019043D01*
X0053424Y-0019105D01*
X0053560Y-0019189D01*
X0053788Y-0019466D01*
X0053895Y-0020002D01*
X0054330Y-0020653D01*
X0054981Y-0021089D01*
X0055749Y-0021241D01*
X0056517Y-0021089D01*
X0057168Y-0020653D01*
X0057603Y-0020002D01*
X0057711Y-0019457D01*
X0058012Y-0019137D01*
X0058529Y-0019137D01*
X0058830Y-0019457D01*
X0058939Y-0020002D01*
X0059374Y-0020653D01*
X0060025Y-0021089D01*
X0060793Y-0021241D01*
X0061561Y-0021089D01*
X0062212Y-0020653D01*
X0062647Y-0020002D01*
X0062754Y-0019466D01*
X0062981Y-0019189D01*
X0063118Y-0019105D01*
X0063271Y-0019043D01*
X0063348Y-0019028D01*
X0063505Y-0019112D01*
X0063825Y-0019459D01*
X0063939Y-0020031D01*
X0064374Y-0020682D01*
X0065025Y-0021117D01*
X0065793Y-0021270D01*
X0066561Y-0021117D01*
X0067212Y-0020682D01*
X0067647Y-0020031D01*
X0067759Y-0019467D01*
X0067984Y-0019189D01*
X0068064Y-0019138D01*
X0068266Y-0019042D01*
X0068271Y-0019043D01*
X0068348Y-0019028D01*
X0068427D01*
X0068427Y-0019028D01*
X0068965Y-0018921D01*
X0068965D01*
X0069038Y-0018891D01*
X0069116Y-0018875D01*
X0069182Y-0018831D01*
X0069254Y-0018801D01*
X0069255Y-0018801D01*
X0069710Y-0018496D01*
X0069710Y-0018496D01*
X0069766Y-0018440D01*
X0069832Y-0018397D01*
X0069876Y-0018331D01*
X0069932Y-0018275D01*
X0070236Y-0017819D01*
X0070236Y-0017819D01*
X0070267Y-0017746D01*
X0070311Y-0017680D01*
X0070326Y-0017603D01*
X0070356Y-0017530D01*
Y-0017530D01*
X0070463Y-0016992D01*
X0070463Y-0016992D01*
Y-0016913D01*
X0070479Y-0016835D01*
X0070463Y-0016758D01*
Y-0016679D01*
X0070463Y-0016679D01*
X0070356Y-0016141D01*
Y-0016141D01*
X0070326Y-0016068D01*
X0070311Y-0015991D01*
X0070267Y-0015925D01*
X0070236Y-0015852D01*
X0070236Y-0015852D01*
X0069932Y-0015396D01*
X0069932Y-0015396D01*
X0069876Y-0015340D01*
X0069832Y-0015274D01*
X0069766Y-0015230D01*
X0069710Y-0015175D01*
X0069255Y-0014870D01*
X0069254Y-0014870D01*
X0069182Y-0014840D01*
X0069116Y-0014796D01*
X0069038Y-0014780D01*
X0068965Y-0014750D01*
X0068965D01*
X0068427Y-0014643D01*
X0068427Y-0014643D01*
X0068348D01*
X0068271Y-0014628D01*
D02*
G37*
G36*
X0097150Y-0016843D02*
X0096382Y-0016996D01*
X0095731Y-0017431D01*
X0095296Y-0018082D01*
X0095143Y-0018850D01*
X0095296Y-0019618D01*
X0095731Y-0020269D01*
X0096382Y-0020704D01*
X0097150Y-0020857D01*
X0097918Y-0020704D01*
X0098569Y-0020269D01*
X0099004Y-0019618D01*
X0099157Y-0018850D01*
X0099004Y-0018082D01*
X0098569Y-0017431D01*
X0097918Y-0016996D01*
X0097150Y-0016843D01*
D02*
G37*
G36*
X0086500Y-0016493D02*
X0085732Y-0016646D01*
X0085081Y-0017081D01*
X0084646Y-0017732D01*
X0084493Y-0018500D01*
X0084646Y-0019268D01*
X0085081Y-0019919D01*
X0085732Y-0020354D01*
X0086500Y-0020507D01*
X0087268Y-0020354D01*
X0087919Y-0019919D01*
X0088354Y-0019268D01*
X0088507Y-0018500D01*
X0088354Y-0017732D01*
X0087919Y-0017081D01*
X0087268Y-0016646D01*
X0086500Y-0016493D01*
D02*
G37*
G36*
X0051400Y-0040871D02*
X0050632Y-0041024D01*
X0049981Y-0041459D01*
X0049546Y-0042110D01*
X0049393Y-0042878D01*
X0049546Y-0043646D01*
X0049981Y-0044297D01*
X0050102Y-0044378D01*
X0050210Y-0045052D01*
X0050004Y-0045360D01*
X0049851Y-0046128D01*
X0050004Y-0046896D01*
X0050439Y-0047547D01*
Y-0047585D01*
X0049881Y-0047958D01*
X0049446Y-0048609D01*
X0049293Y-0049377D01*
X0049446Y-0050145D01*
X0049881Y-0050796D01*
X0050052Y-0050911D01*
X0050179Y-0051597D01*
X0050004Y-0051859D01*
X0049851Y-0052627D01*
X0050004Y-0053395D01*
X0050439Y-0054046D01*
X0050253Y-0054523D01*
X0049846Y-0055132D01*
X0049693Y-0055900D01*
X0049846Y-0056668D01*
X0050281Y-0057319D01*
X0050932Y-0057754D01*
X0051700Y-0057907D01*
X0052468Y-0057754D01*
X0053119Y-0057319D01*
X0053554Y-0056668D01*
X0053707Y-0055900D01*
X0053554Y-0055132D01*
X0053119Y-0054481D01*
X0053306Y-0054004D01*
X0053713Y-0053395D01*
X0053865Y-0052627D01*
X0053713Y-0051859D01*
X0053277Y-0051208D01*
X0053106Y-0051093D01*
X0052979Y-0050407D01*
X0053154Y-0050145D01*
X0053307Y-0049377D01*
X0053154Y-0048609D01*
X0052719Y-0047958D01*
Y-0047920D01*
X0053277Y-0047547D01*
X0053713Y-0046896D01*
X0053865Y-0046128D01*
X0053713Y-0045360D01*
X0053277Y-0044708D01*
X0052819Y-0044402D01*
Y-0044297D01*
X0053254Y-0043646D01*
X0053407Y-0042878D01*
X0053254Y-0042110D01*
X0052819Y-0041459D01*
X0052168Y-0041024D01*
X0051400Y-0040871D01*
D02*
G37*
G36*
X0004924Y-0022510D02*
X0004156Y-0022663D01*
X0003505Y-0023098D01*
X0003070Y-0023749D01*
X0002917Y-0024517D01*
X0003070Y-0025285D01*
X0003419Y-0025807D01*
X0003070Y-0026330D01*
X0002917Y-0027098D01*
X0003070Y-0027866D01*
X0003505Y-0028517D01*
X0004156Y-0028952D01*
X0004924Y-0029105D01*
X0005692Y-0028952D01*
X0006344Y-0028517D01*
X0006779Y-0027866D01*
X0006932Y-0027098D01*
X0006779Y-0026330D01*
X0006430Y-0025807D01*
X0006779Y-0025285D01*
X0006932Y-0024517D01*
X0006779Y-0023749D01*
X0006344Y-0023098D01*
X0005692Y-0022663D01*
X0004924Y-0022510D01*
D02*
G37*
G36*
X0016735Y-0041163D02*
X0016658Y-0041179D01*
X0016579D01*
X0016579Y-0041179D01*
X0016041Y-0041285D01*
X0016041D01*
X0015968Y-0041316D01*
X0015890Y-0041331D01*
X0015825Y-0041375D01*
X0015752Y-0041405D01*
X0015752Y-0041405D01*
X0015296Y-0041710D01*
X0015296Y-0041710D01*
X0015240Y-0041766D01*
X0015174Y-0041810D01*
X0015130Y-0041875D01*
X0015075Y-0041931D01*
X0014770Y-0042387D01*
X0014770Y-0042387D01*
X0014740Y-0042460D01*
X0014696Y-0042526D01*
X0014680Y-0042603D01*
X0014650Y-0042677D01*
Y-0042677D01*
X0014543Y-0043214D01*
X0014543Y-0043214D01*
Y-0043293D01*
X0014528Y-0043371D01*
X0014543Y-0043448D01*
Y-0043527D01*
X0014543Y-0043527D01*
X0014650Y-0044065D01*
Y-0044065D01*
X0014680Y-0044138D01*
X0014696Y-0044216D01*
X0014740Y-0044282D01*
X0014770Y-0044355D01*
X0014770Y-0044355D01*
X0015074Y-0044810D01*
X0015074Y-0044810D01*
X0015130Y-0044866D01*
X0015174Y-0044932D01*
X0015240Y-0044976D01*
X0015296Y-0045032D01*
X0015752Y-0045336D01*
X0015752Y-0045336D01*
X0015825Y-0045367D01*
X0015890Y-0045411D01*
X0015968Y-0045426D01*
X0016041Y-0045456D01*
X0016041D01*
X0016579Y-0045563D01*
X0016579Y-0045563D01*
X0016658D01*
X0016735Y-0045579D01*
X0016813Y-0045563D01*
X0016892D01*
X0016892Y-0045563D01*
X0017430Y-0045456D01*
X0017430D01*
X0017503Y-0045426D01*
X0017580Y-0045411D01*
X0017646Y-0045367D01*
X0017719Y-0045336D01*
X0017719Y-0045336D01*
X0018175Y-0045032D01*
X0018175Y-0045032D01*
X0018231Y-0044976D01*
X0018297Y-0044932D01*
X0018340Y-0044866D01*
X0018396Y-0044810D01*
X0018701Y-0044355D01*
X0018701Y-0044355D01*
X0018731Y-0044282D01*
X0018775Y-0044216D01*
X0018791Y-0044138D01*
X0018821Y-0044065D01*
Y-0044065D01*
X0018928Y-0043527D01*
X0018928Y-0043527D01*
Y-0043448D01*
X0018943Y-0043371D01*
X0018928Y-0043293D01*
Y-0043214D01*
X0018928Y-0043214D01*
X0018821Y-0042677D01*
Y-0042677D01*
X0018791Y-0042603D01*
X0018775Y-0042526D01*
X0018731Y-0042460D01*
X0018701Y-0042387D01*
X0018701Y-0042387D01*
X0018396Y-0041931D01*
X0018396Y-0041931D01*
X0018340Y-0041875D01*
X0018297Y-0041810D01*
X0018231Y-0041766D01*
X0018175Y-0041710D01*
X0017719Y-0041405D01*
X0017719Y-0041405D01*
X0017646Y-0041375D01*
X0017580Y-0041331D01*
X0017503Y-0041316D01*
X0017430Y-0041285D01*
X0017430D01*
X0016892Y-0041179D01*
X0016892Y-0041179D01*
X0016813D01*
X0016735Y-0041163D01*
D02*
G37*
G36*
Y-0036163D02*
X0016658Y-0036178D01*
X0016579D01*
X0016579Y-0036178D01*
X0016041Y-0036285D01*
X0016041D01*
X0015968Y-0036316D01*
X0015890Y-0036331D01*
X0015825Y-0036375D01*
X0015752Y-0036405D01*
X0015752Y-0036405D01*
X0015296Y-0036710D01*
X0015296Y-0036710D01*
X0015240Y-0036766D01*
X0015174Y-0036810D01*
X0015130Y-0036875D01*
X0015075Y-0036931D01*
X0014770Y-0037387D01*
X0014770Y-0037387D01*
X0014740Y-0037460D01*
X0014696Y-0037526D01*
X0014680Y-0037604D01*
X0014650Y-0037677D01*
Y-0037677D01*
X0014543Y-0038214D01*
X0014543Y-0038214D01*
Y-0038293D01*
X0014528Y-0038371D01*
X0014543Y-0038448D01*
Y-0038528D01*
X0014543Y-0038528D01*
X0014650Y-0039065D01*
Y-0039065D01*
X0014680Y-0039138D01*
X0014696Y-0039216D01*
X0014740Y-0039281D01*
X0014770Y-0039355D01*
X0014770Y-0039355D01*
X0015074Y-0039810D01*
X0015074Y-0039810D01*
X0015130Y-0039866D01*
X0015174Y-0039932D01*
X0015240Y-0039976D01*
X0015296Y-0040032D01*
X0015752Y-0040336D01*
X0015752Y-0040336D01*
X0015825Y-0040367D01*
X0015890Y-0040411D01*
X0015968Y-0040426D01*
X0016041Y-0040456D01*
X0016041D01*
X0016579Y-0040563D01*
X0016579Y-0040563D01*
X0016658D01*
X0016735Y-0040579D01*
X0016813Y-0040563D01*
X0016892D01*
X0016892Y-0040563D01*
X0017430Y-0040456D01*
X0017430D01*
X0017503Y-0040426D01*
X0017580Y-0040411D01*
X0017646Y-0040367D01*
X0017719Y-0040336D01*
X0017719Y-0040336D01*
X0018175Y-0040032D01*
X0018175Y-0040032D01*
X0018231Y-0039976D01*
X0018297Y-0039932D01*
X0018340Y-0039866D01*
X0018396Y-0039810D01*
X0018701Y-0039355D01*
X0018701Y-0039355D01*
X0018731Y-0039281D01*
X0018775Y-0039216D01*
X0018791Y-0039138D01*
X0018821Y-0039065D01*
Y-0039065D01*
X0018928Y-0038528D01*
X0018928Y-0038528D01*
Y-0038448D01*
X0018943Y-0038371D01*
X0018928Y-0038293D01*
Y-0038214D01*
X0018928Y-0038214D01*
X0018821Y-0037677D01*
Y-0037677D01*
X0018791Y-0037604D01*
X0018775Y-0037526D01*
X0018731Y-0037460D01*
X0018701Y-0037387D01*
X0018701Y-0037387D01*
X0018396Y-0036931D01*
X0018396Y-0036931D01*
X0018340Y-0036875D01*
X0018297Y-0036810D01*
X0018231Y-0036766D01*
X0018175Y-0036710D01*
X0017719Y-0036405D01*
X0017719Y-0036405D01*
X0017646Y-0036375D01*
X0017580Y-0036331D01*
X0017503Y-0036316D01*
X0017430Y-0036285D01*
X0017430D01*
X0016892Y-0036178D01*
X0016892Y-0036178D01*
X0016813D01*
X0016735Y-0036163D01*
D02*
G37*
G36*
X0024700Y-0020593D02*
X0023932Y-0020746D01*
X0023281Y-0021181D01*
X0023119D01*
X0022468Y-0020746D01*
X0021700Y-0020593D01*
X0020932Y-0020746D01*
X0020281Y-0021181D01*
X0019846Y-0021832D01*
X0019693Y-0022600D01*
X0019846Y-0023368D01*
X0020281Y-0024019D01*
X0020932Y-0024454D01*
X0021700Y-0024607D01*
X0022468Y-0024454D01*
X0023119Y-0024019D01*
X0023281D01*
X0023932Y-0024454D01*
X0024700Y-0024607D01*
X0025468Y-0024454D01*
X0026119Y-0024019D01*
X0026554Y-0023368D01*
X0026707Y-0022600D01*
X0026554Y-0021832D01*
X0026119Y-0021181D01*
X0025468Y-0020746D01*
X0024700Y-0020593D01*
D02*
G37*
G36*
X0087200Y-0087593D02*
X0086432Y-0087746D01*
X0085781Y-0088181D01*
X0085346Y-0088832D01*
X0085193Y-0089600D01*
X0085346Y-0090368D01*
X0085781Y-0091019D01*
X0086432Y-0091454D01*
X0087200Y-0091607D01*
X0087968Y-0091454D01*
X0088619Y-0091019D01*
X0089054Y-0090368D01*
X0089207Y-0089600D01*
X0089054Y-0088832D01*
X0088619Y-0088181D01*
X0087968Y-0087746D01*
X0087200Y-0087593D01*
D02*
G37*
G36*
X0082200D02*
X0081432Y-0087746D01*
X0080781Y-0088181D01*
X0080346Y-0088832D01*
X0080193Y-0089600D01*
X0080346Y-0090368D01*
X0080781Y-0091019D01*
X0081432Y-0091454D01*
X0082200Y-0091607D01*
X0082968Y-0091454D01*
X0083619Y-0091019D01*
X0084054Y-0090368D01*
X0084207Y-0089600D01*
X0084054Y-0088832D01*
X0083619Y-0088181D01*
X0082968Y-0087746D01*
X0082200Y-0087593D01*
D02*
G37*
G36*
X0111600Y-0088593D02*
X0110832Y-0088746D01*
X0110181Y-0089181D01*
X0109746Y-0089832D01*
X0109593Y-0090600D01*
X0109746Y-0091368D01*
X0110101Y-0091900D01*
X0109746Y-0092432D01*
X0109593Y-0093200D01*
X0109746Y-0093968D01*
X0110181Y-0094619D01*
X0110832Y-0095054D01*
X0111600Y-0095207D01*
X0112368Y-0095054D01*
X0113019Y-0094619D01*
X0113454Y-0093968D01*
X0113607Y-0093200D01*
X0113454Y-0092432D01*
X0113099Y-0091900D01*
X0113454Y-0091368D01*
X0113607Y-0090600D01*
X0113454Y-0089832D01*
X0113019Y-0089181D01*
X0112368Y-0088746D01*
X0111600Y-0088593D01*
D02*
G37*
G36*
X0086900Y-0057065D02*
X0086132Y-0057217D01*
X0085481Y-0057652D01*
X0085046Y-0058304D01*
X0084893Y-0059072D01*
X0085046Y-0059840D01*
X0085481Y-0060491D01*
X0086132Y-0060926D01*
X0086900Y-0061079D01*
X0087668Y-0060926D01*
X0088319Y-0060491D01*
X0088754Y-0059840D01*
X0088907Y-0059072D01*
X0088754Y-0058304D01*
X0088319Y-0057652D01*
X0087668Y-0057217D01*
X0086900Y-0057065D01*
D02*
G37*
%LPD*%
D24*
X0103250Y-0035450D02*
X0106171Y-0038371D01*
X0097093Y-0035450D02*
X0103250D01*
X0085364Y-0047179D02*
X0097093Y-0035450D01*
X0059500Y-0053000D02*
X0061500D01*
X0081200Y-0108788D02*
Y-0098700D01*
X0078271Y-0111717D02*
X0081200Y-0108788D01*
X0056700Y-0055800D02*
X0059500Y-0053000D01*
X0056700Y-0074799D02*
Y-0055800D01*
X0073700Y-0091200D02*
Y-0061429D01*
Y-0091200D02*
X0081200Y-0098700D01*
X0060800Y-0049800D02*
X0062071D01*
X0073700Y-0061429D01*
X0106171Y-0038371D02*
X0111617D01*
X0062200Y-0047059D02*
Y-0046700D01*
X0062080Y-0047179D02*
X0062200Y-0047059D01*
X0033676Y-0009619D02*
X0038271Y-0005024D01*
X0054325Y-0037025D02*
X0060800Y-0043500D01*
X0033676Y-0018177D02*
Y-0009619D01*
Y-0018177D02*
X0052525Y-0037025D01*
X0054325D01*
X0004924Y-0078371D02*
X0011354Y-0084800D01*
X0046698D01*
X0056700Y-0074799D01*
X0062080Y-0047179D02*
X0085364D01*
D25*
X0096200Y-0053000D02*
X0098329Y-0050871D01*
X0098129Y-0075871D02*
X0101637D01*
X0098329Y-0050871D02*
X0101300D01*
D26*
X0109117D02*
X0111617Y-0048371D01*
X0096100Y-0077900D02*
X0098129Y-0075871D01*
X0101637D02*
X0109137Y-0068371D01*
X0111617D01*
X0085000Y-0072600D02*
Y-0070100D01*
X0096200Y-0058900D01*
X0039500Y-0035960D02*
Y-0031300D01*
X0096200Y-0058900D02*
Y-0053000D01*
X0043100Y-0043900D02*
Y-0034200D01*
X0039700Y-0072880D02*
Y-0054491D01*
X0031500Y-0043960D02*
X0039500Y-0035960D01*
X0031500Y-0046600D02*
Y-0043960D01*
X0038080Y-0074500D02*
X0039700Y-0072880D01*
X0020300Y-0072900D02*
X0021932Y-0074532D01*
X0020300Y-0072900D02*
Y-0061985D01*
X0019164Y-0060849D02*
X0020300Y-0061985D01*
X0034378Y-0077832D02*
X0038631D01*
X0041200Y-0080400D01*
X0032709Y-0079500D02*
X0034378Y-0077832D01*
X0030466Y-0079658D02*
X0030477Y-0079668D01*
X0032522D01*
X0032691Y-0079500D01*
X0032709D01*
X0022678Y-0079658D02*
X0030466D01*
X0019134Y-0076113D02*
X0022678Y-0079658D01*
X0025700Y-0075500D02*
X0026700Y-0074500D01*
X0038080D01*
X0023378Y-0077969D02*
X0026331D01*
X0027100Y-0077200D01*
X0031500D01*
X0034000Y-0081800D02*
X0035500Y-0080300D01*
X0014070Y-0066130D02*
X0014100Y-0066100D01*
X0014070Y-0080770D02*
Y-0066130D01*
Y-0080770D02*
X0015100Y-0081800D01*
X0034000D01*
X0039031Y-0053822D02*
Y-0047969D01*
Y-0053822D02*
X0039700Y-0054491D01*
X0039031Y-0047969D02*
X0043100Y-0043900D01*
X0024400Y-0075500D02*
X0025700D01*
X0021932Y-0076522D02*
Y-0074532D01*
Y-0076522D02*
X0023378Y-0077969D01*
X0019134Y-0076113D02*
Y-0075849D01*
X0101300Y-0050871D02*
X0109117D01*
D34*
X0035700Y-0066100D02*
D03*
Y-0051100D02*
D03*
D37*
X0078271Y-0111800D02*
D03*
X0004924Y-0078371D02*
D03*
X0111617Y-0038371D02*
D03*
Y-0048371D02*
D03*
Y-0068371D02*
D03*
X0038271Y-0005024D02*
D03*
D38*
X0104500Y-0083400D02*
D03*
X0049800Y-0025875D02*
D03*
X0036500Y-0092500D02*
D03*
X0079800Y-0044100D02*
D03*
Y-0041506D02*
D03*
X0069500Y-0026600D02*
D03*
X0060800Y-0043500D02*
D03*
X0105800Y-0023591D02*
D03*
X0110857Y-0026200D02*
D03*
X0087300Y-0055800D02*
D03*
X0025467Y-0092129D02*
D03*
X0093300Y-0098700D02*
D03*
X0035300Y-0029600D02*
D03*
Y-0032600D02*
D03*
X0025900Y-0018000D02*
D03*
X0022900D02*
D03*
X0025900Y-0098700D02*
D03*
X0022900D02*
D03*
X0090300D02*
D03*
X0090400Y-0018000D02*
D03*
X0093400D02*
D03*
X0069372Y-0088300D02*
D03*
X0032817Y-0105598D02*
D03*
X0108300Y-0090200D02*
D03*
X0008442Y-0027598D02*
D03*
X0032464Y-0025500D02*
D03*
X0051558Y-0059372D02*
D03*
X0019164Y-0060849D02*
D03*
X0096100Y-0077900D02*
D03*
X0085000Y-0072600D02*
D03*
X0043100Y-0034200D02*
D03*
X0039500Y-0031300D02*
D03*
X0051900Y-0068400D02*
D03*
X0012500Y-0034800D02*
D03*
X0083125Y-0011800D02*
D03*
X0004900Y-0086200D02*
D03*
X0031500Y-0005200D02*
D03*
X0085400Y-0111800D02*
D03*
X0061500Y-0053000D02*
D03*
X0060800Y-0049800D02*
D03*
X0062200Y-0046700D02*
D03*
X0068900Y-0074100D02*
D03*
X0031500Y-0046600D02*
D03*
X0014100Y-0066100D02*
D03*
X0031500Y-0077200D02*
D03*
X0041200Y-0080400D02*
D03*
X0035500Y-0080300D02*
D03*
X0042200Y-0052627D02*
D03*
X0024400Y-0075500D02*
D03*
X0019134Y-0075849D02*
D03*
M02*
