M48
;Layer_Color=9474304
;FILE_FORMAT=2:5
INCH
;TYPE=PLATED
T3F00S00C0.00984
T4F00S00C0.01575
T5F00S00C0.02165
T6F00S00C0.08661
%
T03
X0004900Y-0086200
X0008959Y-0076559
Y-0066959
X0014100Y-0066100
X0019134Y-0075849
X0024400Y-0075500
X0031500Y-0077200
X0035500Y-0080300
X0041200Y-0080400
X0042500Y-0068375
X0036500Y-0092500
X0025467Y-0092129
X0025900Y-0098700
X0022900
X0029300Y-0105098
X0032817Y-0105598
X0050793Y-0096500
X0060793Y-0096707
X0065793Y-0096500
X0065828Y-0088400
X0069372Y-0088300
X0077200Y-0089600
X0082200
X0087200
X0084800Y-0099000
X0090300Y-0098700
X0093300
X0075642Y-0097400
X0076466Y-0107966
X0085400Y-0111800
X0085000Y-0072600
X0097076Y-0071024
X0096900Y-0066363
X0096100Y-0077900
X0104500Y-0083400
X0108300Y-0090200
X0111600Y-0090600
Y-0093200
X0068900Y-0074100
Y-0070800
X0061800Y-0067700
X0062779Y-0076746
X0051900Y-0068400
X0051558Y-0059372
X0051700Y-0055900
X0051858Y-0052627
X0051300Y-0049377
X0051858Y-0046128
X0051400Y-0042878
X0060800Y-0043500
X0062200Y-0046700
X0060800Y-0049800
X0061500Y-0053000
X0059500Y-0058400
X0086900Y-0059072
X0087300Y-0055800
X0085800Y-0052700
X0086724Y-0049452
X0079800Y-0044100
Y-0041506
X0102900Y-0040165
X0103200Y-0046500
X0107582Y-0047000
X0107600Y-0060200
X0102800Y-0056000
X0104900Y-0033300
X0105800Y-0023591
X0110857Y-0026200
X0097150Y-0018850
X0093400Y-0018000
X0090400
X0086500Y-0018500
X0081800
X0083125Y-0011800
X0086800Y-0011602
X0073400Y-0020800
X0065793Y-0019263
X0060793Y-0019234
X0055749
X0053330Y-0025400
X0049800Y-0025875
X0056700Y-0028300
X0065900Y-0028500
X0069500Y-0026600
X0066459Y-0009059
X0056500
X0045749Y-0019234
X0043100Y-0034200
X0039500Y-0031300
X0035300Y-0032600
Y-0029600
X0032464Y-0025500
X0024700Y-0022600
X0021700
X0022900Y-0018000
X0025900
X0031500Y-0005200
X0039841Y-0009059
X0031500Y-0046600
X0019135Y-0050893
X0019164Y-0060849
X0042200Y-0052627
X0012500Y-0034800
X0008442Y-0027598
X0004924Y-0027098
Y-0024517
T04
X0038271Y-0111800
X0004924Y-0078371
Y-0073371
Y-0068371
Y-0063371
X0043271Y-0111800
X0048271
X0053271
X0058271
X0063271
X0068271
X0073271
X0078271
X0111617Y-0078371
Y-0073371
Y-0068371
Y-0063371
Y-0058371
Y-0053371
Y-0048371
Y-0043371
Y-0038371
X0078271Y-0005024
X0073271
X0068271
X0063271
X0058271
X0053271
X0048271
X0043271
X0038271
X0004924Y-0038371
Y-0043371
Y-0048371
Y-0053371
Y-0058371
T05
X0035700Y-0071100
Y-0066100
Y-0061100
Y-0056100
Y-0051100
Y-0046100
T06
X0009058Y-0107583
X0107483
Y-0009158
X0009058
M30
