G04 Layer_Physical_Order=5*
G04 Layer_Color=16737945*
%FSAX25Y25*%
%MOIN*%
G70*
G01*
G75*
%ADD38C,0.02559*%
G36*
X0101760Y-0002778D02*
X0101399Y-0003074D01*
X0100329Y-0004378D01*
X0099534Y-0005866D01*
X0099044Y-0007480D01*
X0098879Y-0009158D01*
X0099044Y-0010837D01*
X0099534Y-0012451D01*
X0100329Y-0013939D01*
X0101399Y-0015243D01*
X0102703Y-0016313D01*
X0104191Y-0017108D01*
X0105805Y-0017597D01*
X0107483Y-0017763D01*
X0109162Y-0017597D01*
X0110776Y-0017108D01*
X0112264Y-0016313D01*
X0113568Y-0015243D01*
X0113864Y-0014882D01*
X0114335Y-0015050D01*
Y-0037866D01*
X0113835Y-0037915D01*
X0113750Y-0037488D01*
X0113249Y-0036739D01*
X0112501Y-0036238D01*
X0111617Y-0036063D01*
X0110734Y-0036238D01*
X0109985Y-0036739D01*
X0109485Y-0037488D01*
X0109309Y-0038371D01*
X0109485Y-0039254D01*
X0109985Y-0040003D01*
X0110734Y-0040503D01*
X0111301Y-0040616D01*
Y-0041126D01*
X0110734Y-0041238D01*
X0109985Y-0041739D01*
X0109485Y-0042488D01*
X0109309Y-0043371D01*
X0109485Y-0044254D01*
X0109985Y-0045003D01*
X0110734Y-0045503D01*
X0111301Y-0045616D01*
Y-0046126D01*
X0110734Y-0046238D01*
X0109985Y-0046739D01*
X0109485Y-0047488D01*
X0109309Y-0048371D01*
X0109485Y-0049254D01*
X0109985Y-0050003D01*
X0110734Y-0050503D01*
X0111301Y-0050616D01*
Y-0051126D01*
X0110734Y-0051238D01*
X0109985Y-0051739D01*
X0109485Y-0052488D01*
X0109309Y-0053371D01*
X0109485Y-0054254D01*
X0109985Y-0055003D01*
X0110734Y-0055503D01*
X0111300Y-0055616D01*
Y-0056126D01*
X0110734Y-0056238D01*
X0109985Y-0056739D01*
X0109485Y-0057488D01*
X0109309Y-0058371D01*
X0109485Y-0059254D01*
X0109985Y-0060003D01*
X0110734Y-0060503D01*
X0111301Y-0060616D01*
Y-0061126D01*
X0110734Y-0061238D01*
X0109985Y-0061739D01*
X0109485Y-0062488D01*
X0109309Y-0063371D01*
X0109485Y-0064254D01*
X0109985Y-0065003D01*
X0110734Y-0065503D01*
X0111301Y-0065616D01*
Y-0066126D01*
X0110734Y-0066238D01*
X0109985Y-0066739D01*
X0109485Y-0067488D01*
X0109309Y-0068371D01*
X0109485Y-0069254D01*
X0109985Y-0070003D01*
X0110734Y-0070503D01*
X0111301Y-0070616D01*
Y-0071126D01*
X0110734Y-0071238D01*
X0109985Y-0071739D01*
X0109485Y-0072488D01*
X0109309Y-0073371D01*
X0109485Y-0074254D01*
X0109985Y-0075003D01*
X0110734Y-0075503D01*
X0111300Y-0075616D01*
Y-0076126D01*
X0110734Y-0076238D01*
X0109985Y-0076739D01*
X0109485Y-0077488D01*
X0109309Y-0078371D01*
X0109485Y-0079254D01*
X0109985Y-0080003D01*
X0110734Y-0080503D01*
X0111617Y-0080679D01*
X0112501Y-0080503D01*
X0113249Y-0080003D01*
X0113750Y-0079254D01*
X0113835Y-0078827D01*
X0114335Y-0078876D01*
Y-0101692D01*
X0113864Y-0101860D01*
X0113568Y-0101499D01*
X0112264Y-0100429D01*
X0110776Y-0099634D01*
X0109162Y-0099144D01*
X0107483Y-0098979D01*
X0105805Y-0099144D01*
X0104191Y-0099634D01*
X0102703Y-0100429D01*
X0101399Y-0101499D01*
X0100329Y-0102803D01*
X0099534Y-0104291D01*
X0099044Y-0105905D01*
X0098879Y-0107583D01*
X0099044Y-0109262D01*
X0099534Y-0110876D01*
X0100329Y-0112364D01*
X0101399Y-0113668D01*
X0101760Y-0113964D01*
X0101592Y-0114435D01*
X0079193D01*
X0079143Y-0113935D01*
X0079154Y-0113933D01*
X0079903Y-0113432D01*
X0080403Y-0112683D01*
X0080579Y-0111800D01*
X0080403Y-0110917D01*
X0079903Y-0110168D01*
X0079154Y-0109668D01*
X0078271Y-0109492D01*
X0077388Y-0109668D01*
X0076639Y-0110168D01*
X0076138Y-0110917D01*
X0076026Y-0111483D01*
X0075516D01*
X0075403Y-0110917D01*
X0074903Y-0110168D01*
X0074154Y-0109668D01*
X0073271Y-0109492D01*
X0072388Y-0109668D01*
X0071639Y-0110168D01*
X0071138Y-0110917D01*
X0071026Y-0111483D01*
X0070516D01*
X0070403Y-0110917D01*
X0069903Y-0110168D01*
X0069154Y-0109668D01*
X0068271Y-0109492D01*
X0067388Y-0109668D01*
X0066639Y-0110168D01*
X0066138Y-0110917D01*
X0066026Y-0111483D01*
X0065516D01*
X0065403Y-0110917D01*
X0064903Y-0110168D01*
X0064154Y-0109668D01*
X0063271Y-0109492D01*
X0062388Y-0109668D01*
X0061639Y-0110168D01*
X0061138Y-0110917D01*
X0061026Y-0111483D01*
X0060516D01*
X0060403Y-0110917D01*
X0059903Y-0110168D01*
X0059154Y-0109668D01*
X0058271Y-0109492D01*
X0057388Y-0109668D01*
X0056639Y-0110168D01*
X0056138Y-0110917D01*
X0056026Y-0111483D01*
X0055516D01*
X0055403Y-0110917D01*
X0054903Y-0110168D01*
X0054154Y-0109668D01*
X0053271Y-0109492D01*
X0052388Y-0109668D01*
X0051639Y-0110168D01*
X0051138Y-0110917D01*
X0051026Y-0111483D01*
X0050516D01*
X0050403Y-0110917D01*
X0049903Y-0110168D01*
X0049154Y-0109668D01*
X0048271Y-0109492D01*
X0047388Y-0109668D01*
X0046639Y-0110168D01*
X0046138Y-0110917D01*
X0046026Y-0111483D01*
X0045516D01*
X0045403Y-0110917D01*
X0044903Y-0110168D01*
X0044154Y-0109668D01*
X0043271Y-0109492D01*
X0042388Y-0109668D01*
X0041639Y-0110168D01*
X0041138Y-0110917D01*
X0041026Y-0111483D01*
X0040516D01*
X0040403Y-0110917D01*
X0039903Y-0110168D01*
X0039154Y-0109668D01*
X0038271Y-0109492D01*
X0037388Y-0109668D01*
X0036639Y-0110168D01*
X0036138Y-0110917D01*
X0035963Y-0111800D01*
X0036138Y-0112683D01*
X0036639Y-0113432D01*
X0037388Y-0113933D01*
X0037398Y-0113935D01*
X0037349Y-0114435D01*
X0014950D01*
X0014782Y-0113964D01*
X0015143Y-0113668D01*
X0016213Y-0112364D01*
X0017008Y-0110876D01*
X0017497Y-0109262D01*
X0017663Y-0107583D01*
X0017497Y-0105905D01*
X0017008Y-0104291D01*
X0016213Y-0102803D01*
X0015143Y-0101499D01*
X0013839Y-0100429D01*
X0012351Y-0099634D01*
X0010737Y-0099144D01*
X0009058Y-0098979D01*
X0007380Y-0099144D01*
X0005765Y-0099634D01*
X0004278Y-0100429D01*
X0002974Y-0101499D01*
X0002678Y-0101860D01*
X0002207Y-0101692D01*
Y-0078876D01*
X0002707Y-0078827D01*
X0002792Y-0079254D01*
X0003292Y-0080003D01*
X0004041Y-0080503D01*
X0004924Y-0080679D01*
X0005808Y-0080503D01*
X0006556Y-0080003D01*
X0007057Y-0079254D01*
X0007232Y-0078371D01*
X0007057Y-0077488D01*
X0006556Y-0076739D01*
X0005808Y-0076238D01*
X0005241Y-0076126D01*
Y-0075616D01*
X0005808Y-0075503D01*
X0006556Y-0075003D01*
X0007057Y-0074254D01*
X0007232Y-0073371D01*
X0007057Y-0072488D01*
X0006556Y-0071739D01*
X0005808Y-0071238D01*
X0005241Y-0071126D01*
Y-0070616D01*
X0005808Y-0070503D01*
X0006556Y-0070003D01*
X0007057Y-0069254D01*
X0007232Y-0068371D01*
X0007057Y-0067488D01*
X0006556Y-0066739D01*
X0005808Y-0066238D01*
X0005241Y-0066126D01*
Y-0065616D01*
X0005808Y-0065503D01*
X0006556Y-0065003D01*
X0007057Y-0064254D01*
X0007232Y-0063371D01*
X0007057Y-0062488D01*
X0006556Y-0061739D01*
X0005808Y-0061238D01*
X0005241Y-0061126D01*
Y-0060616D01*
X0005808Y-0060503D01*
X0006556Y-0060003D01*
X0007057Y-0059254D01*
X0007232Y-0058371D01*
X0007057Y-0057488D01*
X0006556Y-0056739D01*
X0005808Y-0056238D01*
X0005241Y-0056126D01*
Y-0055616D01*
X0005808Y-0055503D01*
X0006556Y-0055003D01*
X0007057Y-0054254D01*
X0007232Y-0053371D01*
X0007057Y-0052488D01*
X0006556Y-0051739D01*
X0005808Y-0051238D01*
X0005241Y-0051126D01*
Y-0050616D01*
X0005808Y-0050503D01*
X0006556Y-0050003D01*
X0007057Y-0049254D01*
X0007232Y-0048371D01*
X0007057Y-0047488D01*
X0006556Y-0046739D01*
X0005808Y-0046238D01*
X0005241Y-0046126D01*
Y-0045616D01*
X0005808Y-0045503D01*
X0006556Y-0045003D01*
X0007057Y-0044254D01*
X0007232Y-0043371D01*
X0007057Y-0042488D01*
X0006556Y-0041739D01*
X0005808Y-0041238D01*
X0005241Y-0041126D01*
Y-0040616D01*
X0005808Y-0040503D01*
X0006556Y-0040003D01*
X0007057Y-0039254D01*
X0007232Y-0038371D01*
X0007057Y-0037488D01*
X0006556Y-0036739D01*
X0005808Y-0036238D01*
X0004924Y-0036063D01*
X0004041Y-0036238D01*
X0003292Y-0036739D01*
X0002792Y-0037488D01*
X0002707Y-0037915D01*
X0002207Y-0037865D01*
Y-0015050D01*
X0002678Y-0014882D01*
X0002974Y-0015243D01*
X0004278Y-0016313D01*
X0005765Y-0017108D01*
X0007380Y-0017597D01*
X0009058Y-0017763D01*
X0010737Y-0017597D01*
X0012351Y-0017108D01*
X0013839Y-0016313D01*
X0015143Y-0015243D01*
X0016213Y-0013939D01*
X0017008Y-0012451D01*
X0017497Y-0010837D01*
X0017663Y-0009158D01*
X0017497Y-0007480D01*
X0017008Y-0005866D01*
X0016213Y-0004378D01*
X0015143Y-0003074D01*
X0014782Y-0002778D01*
X0014950Y-0002307D01*
X0037765D01*
X0037815Y-0002807D01*
X0037388Y-0002892D01*
X0036639Y-0003392D01*
X0036138Y-0004141D01*
X0035963Y-0005024D01*
X0036138Y-0005908D01*
X0036639Y-0006656D01*
X0037388Y-0007157D01*
X0038271Y-0007333D01*
X0039154Y-0007157D01*
X0039903Y-0006656D01*
X0040403Y-0005908D01*
X0040516Y-0005341D01*
X0041026D01*
X0041138Y-0005908D01*
X0041639Y-0006656D01*
X0042388Y-0007157D01*
X0043271Y-0007333D01*
X0044154Y-0007157D01*
X0044903Y-0006656D01*
X0045403Y-0005908D01*
X0045516Y-0005341D01*
X0046026D01*
X0046138Y-0005908D01*
X0046639Y-0006656D01*
X0047388Y-0007157D01*
X0048271Y-0007333D01*
X0049154Y-0007157D01*
X0049903Y-0006656D01*
X0050403Y-0005908D01*
X0050516Y-0005341D01*
X0051026D01*
X0051138Y-0005908D01*
X0051639Y-0006656D01*
X0052388Y-0007157D01*
X0053271Y-0007333D01*
X0054154Y-0007157D01*
X0054903Y-0006656D01*
X0055403Y-0005908D01*
X0055516Y-0005341D01*
X0056026D01*
X0056138Y-0005908D01*
X0056639Y-0006656D01*
X0057388Y-0007157D01*
X0058271Y-0007333D01*
X0059154Y-0007157D01*
X0059903Y-0006656D01*
X0060403Y-0005908D01*
X0060516Y-0005341D01*
X0061026D01*
X0061138Y-0005908D01*
X0061639Y-0006656D01*
X0062388Y-0007157D01*
X0063271Y-0007333D01*
X0064154Y-0007157D01*
X0064903Y-0006656D01*
X0065403Y-0005908D01*
X0065516Y-0005341D01*
X0066026D01*
X0066138Y-0005908D01*
X0066639Y-0006656D01*
X0067388Y-0007157D01*
X0068271Y-0007333D01*
X0069154Y-0007157D01*
X0069903Y-0006656D01*
X0070403Y-0005908D01*
X0070516Y-0005341D01*
X0071026D01*
X0071139Y-0005908D01*
X0071639Y-0006656D01*
X0072388Y-0007157D01*
X0073271Y-0007333D01*
X0074154Y-0007157D01*
X0074903Y-0006656D01*
X0075403Y-0005908D01*
X0075516Y-0005341D01*
X0076026D01*
X0076138Y-0005908D01*
X0076639Y-0006656D01*
X0077388Y-0007157D01*
X0078271Y-0007333D01*
X0079154Y-0007157D01*
X0079903Y-0006656D01*
X0080403Y-0005908D01*
X0080579Y-0005024D01*
X0080403Y-0004141D01*
X0079903Y-0003392D01*
X0079154Y-0002892D01*
X0078727Y-0002807D01*
X0078776Y-0002307D01*
X0101592D01*
X0101760Y-0002778D01*
D02*
G37*
%LPC*%
G36*
X0035500Y-0078293D02*
X0034732Y-0078446D01*
X0034081Y-0078881D01*
X0033646Y-0079532D01*
X0033493Y-0080300D01*
X0033646Y-0081068D01*
X0034081Y-0081719D01*
X0034732Y-0082154D01*
X0035500Y-0082307D01*
X0036268Y-0082154D01*
X0036919Y-0081719D01*
X0037354Y-0081068D01*
X0037507Y-0080300D01*
X0037354Y-0079532D01*
X0036919Y-0078881D01*
X0036268Y-0078446D01*
X0035500Y-0078293D01*
D02*
G37*
G36*
X0096100Y-0075893D02*
X0095332Y-0076046D01*
X0094681Y-0076481D01*
X0094246Y-0077132D01*
X0094093Y-0077900D01*
X0094246Y-0078668D01*
X0094681Y-0079319D01*
X0095332Y-0079754D01*
X0096100Y-0079907D01*
X0096868Y-0079754D01*
X0097340Y-0079439D01*
X0097365Y-0079431D01*
X0097430Y-0079420D01*
X0097877Y-0079500D01*
X0097969Y-0079546D01*
X0098145Y-0079810D01*
X0098145Y-0079810D01*
X0098201Y-0079866D01*
X0098245Y-0079932D01*
X0098311Y-0079976D01*
X0098367Y-0080032D01*
X0098823Y-0080336D01*
X0098823Y-0080336D01*
X0098896Y-0080367D01*
X0098961Y-0080411D01*
X0099039Y-0080426D01*
X0099112Y-0080456D01*
X0099112D01*
X0099650Y-0080563D01*
X0099650Y-0080563D01*
X0099729D01*
X0099806Y-0080579D01*
X0099884Y-0080563D01*
X0099963D01*
X0099963Y-0080563D01*
X0100501Y-0080456D01*
X0100501D01*
X0100574Y-0080426D01*
X0100651Y-0080411D01*
X0100717Y-0080367D01*
X0100790Y-0080336D01*
X0100790Y-0080336D01*
X0101246Y-0080032D01*
X0101246Y-0080032D01*
X0101302Y-0079976D01*
X0101367Y-0079932D01*
X0101411Y-0079866D01*
X0101467Y-0079810D01*
X0101772Y-0079355D01*
X0101772Y-0079355D01*
X0101802Y-0079282D01*
X0101846Y-0079216D01*
X0101861Y-0079138D01*
X0101892Y-0079065D01*
Y-0079065D01*
X0101999Y-0078527D01*
X0101999Y-0078527D01*
Y-0078448D01*
X0102014Y-0078371D01*
X0101999Y-0078293D01*
Y-0078214D01*
X0101999Y-0078214D01*
X0101892Y-0077677D01*
Y-0077677D01*
X0101861Y-0077604D01*
X0101846Y-0077526D01*
X0101802Y-0077460D01*
X0101772Y-0077387D01*
X0101772Y-0077387D01*
X0101467Y-0076931D01*
X0101467Y-0076931D01*
X0101411Y-0076875D01*
X0101367Y-0076810D01*
X0101302Y-0076766D01*
X0101246Y-0076710D01*
X0100790Y-0076405D01*
X0100790Y-0076405D01*
X0100717Y-0076375D01*
X0100651Y-0076331D01*
X0100574Y-0076316D01*
X0100501Y-0076285D01*
X0100501D01*
X0099963Y-0076178D01*
X0099963Y-0076178D01*
X0099884D01*
X0099806Y-0076163D01*
X0099729Y-0076178D01*
X0099650D01*
X0099650Y-0076178D01*
X0099112Y-0076285D01*
X0099112D01*
X0099039Y-0076316D01*
X0098961Y-0076331D01*
X0098896Y-0076375D01*
X0098823Y-0076405D01*
X0098823Y-0076405D01*
X0098367Y-0076710D01*
X0098367Y-0076710D01*
X0098311Y-0076766D01*
X0098245Y-0076810D01*
X0097913Y-0076813D01*
X0097850Y-0076799D01*
X0097682Y-0076725D01*
X0097519Y-0076481D01*
X0096868Y-0076046D01*
X0096100Y-0075893D01*
D02*
G37*
G36*
X0031500Y-0075193D02*
X0030732Y-0075346D01*
X0030081Y-0075781D01*
X0029646Y-0076432D01*
X0029493Y-0077200D01*
X0029646Y-0077968D01*
X0030081Y-0078619D01*
X0030732Y-0079054D01*
X0031500Y-0079207D01*
X0032268Y-0079054D01*
X0032919Y-0078619D01*
X0033354Y-0077968D01*
X0033507Y-0077200D01*
X0033354Y-0076432D01*
X0032919Y-0075781D01*
X0032268Y-0075346D01*
X0031500Y-0075193D01*
D02*
G37*
G36*
X0041200Y-0078393D02*
X0040432Y-0078546D01*
X0039781Y-0078981D01*
X0039346Y-0079632D01*
X0039193Y-0080400D01*
X0039346Y-0081168D01*
X0039781Y-0081819D01*
X0040432Y-0082254D01*
X0041200Y-0082407D01*
X0041968Y-0082254D01*
X0042619Y-0081819D01*
X0043054Y-0081168D01*
X0043207Y-0080400D01*
X0043054Y-0079632D01*
X0042619Y-0078981D01*
X0041968Y-0078546D01*
X0041200Y-0078393D01*
D02*
G37*
G36*
X0069372Y-0086293D02*
X0068604Y-0086446D01*
X0067952Y-0086881D01*
X0067517Y-0087532D01*
X0067365Y-0088300D01*
X0067517Y-0089068D01*
X0067952Y-0089719D01*
X0068604Y-0090154D01*
X0069372Y-0090307D01*
X0070140Y-0090154D01*
X0070791Y-0089719D01*
X0071226Y-0089068D01*
X0071379Y-0088300D01*
X0071226Y-0087532D01*
X0070791Y-0086881D01*
X0070140Y-0086446D01*
X0069372Y-0086293D01*
D02*
G37*
G36*
X0004900Y-0084193D02*
X0004132Y-0084346D01*
X0003481Y-0084781D01*
X0003046Y-0085432D01*
X0002893Y-0086200D01*
X0003046Y-0086968D01*
X0003481Y-0087619D01*
X0004132Y-0088054D01*
X0004900Y-0088207D01*
X0005668Y-0088054D01*
X0006319Y-0087619D01*
X0006754Y-0086968D01*
X0006907Y-0086200D01*
X0006754Y-0085432D01*
X0006319Y-0084781D01*
X0005668Y-0084346D01*
X0004900Y-0084193D01*
D02*
G37*
G36*
X0104500Y-0081393D02*
X0103732Y-0081546D01*
X0103081Y-0081981D01*
X0102646Y-0082632D01*
X0102493Y-0083400D01*
X0102646Y-0084168D01*
X0103081Y-0084819D01*
X0103732Y-0085254D01*
X0104500Y-0085407D01*
X0105268Y-0085254D01*
X0105919Y-0084819D01*
X0106354Y-0084168D01*
X0106507Y-0083400D01*
X0106354Y-0082632D01*
X0105919Y-0081981D01*
X0105268Y-0081546D01*
X0104500Y-0081393D01*
D02*
G37*
G36*
X0062779Y-0074739D02*
X0062011Y-0074892D01*
X0061360Y-0075327D01*
X0060925Y-0075978D01*
X0060772Y-0076746D01*
X0060925Y-0077514D01*
X0061360Y-0078166D01*
X0062011Y-0078601D01*
X0062779Y-0078754D01*
X0063547Y-0078601D01*
X0064198Y-0078166D01*
X0064633Y-0077514D01*
X0064786Y-0076746D01*
X0064633Y-0075978D01*
X0064198Y-0075327D01*
X0063547Y-0074892D01*
X0062779Y-0074739D01*
D02*
G37*
G36*
X0042500Y-0066368D02*
X0041732Y-0066521D01*
X0041081Y-0066956D01*
X0040646Y-0067607D01*
X0040493Y-0068375D01*
X0040646Y-0069143D01*
X0041081Y-0069794D01*
X0041732Y-0070229D01*
X0042500Y-0070382D01*
X0043268Y-0070229D01*
X0043919Y-0069794D01*
X0044354Y-0069143D01*
X0044507Y-0068375D01*
X0044354Y-0067607D01*
X0043919Y-0066956D01*
X0043268Y-0066521D01*
X0042500Y-0066368D01*
D02*
G37*
G36*
X0051558Y-0057365D02*
X0050790Y-0057517D01*
X0050139Y-0057952D01*
X0049704Y-0058604D01*
X0049551Y-0059372D01*
X0049704Y-0060140D01*
X0050139Y-0060791D01*
X0050790Y-0061226D01*
X0051558Y-0061379D01*
X0052326Y-0061226D01*
X0052978Y-0060791D01*
X0053413Y-0060140D01*
X0053565Y-0059372D01*
X0053413Y-0058604D01*
X0052978Y-0057952D01*
X0052326Y-0057517D01*
X0051558Y-0057365D01*
D02*
G37*
G36*
X0099806Y-0061163D02*
X0099729Y-0061178D01*
X0099650D01*
X0099650Y-0061178D01*
X0099112Y-0061286D01*
X0099112D01*
X0099039Y-0061316D01*
X0098961Y-0061331D01*
X0098896Y-0061375D01*
X0098823Y-0061405D01*
X0098823Y-0061405D01*
X0098367Y-0061710D01*
X0098367Y-0061710D01*
X0098311Y-0061766D01*
X0098245Y-0061810D01*
X0098201Y-0061875D01*
X0098145Y-0061931D01*
X0097841Y-0062387D01*
X0097841Y-0062387D01*
X0097811Y-0062460D01*
X0097767Y-0062526D01*
X0097751Y-0062603D01*
X0097721Y-0062677D01*
Y-0062677D01*
X0097614Y-0063214D01*
X0097614Y-0063214D01*
Y-0063293D01*
X0097598Y-0063371D01*
X0097614Y-0063448D01*
Y-0063528D01*
X0097614Y-0063528D01*
X0097709Y-0064007D01*
X0097508Y-0064335D01*
X0097437Y-0064393D01*
X0097341Y-0064444D01*
X0096900Y-0064356D01*
X0096132Y-0064509D01*
X0095481Y-0064944D01*
X0095046Y-0065595D01*
X0094893Y-0066363D01*
X0095046Y-0067131D01*
X0095481Y-0067782D01*
X0096132Y-0068217D01*
X0096900Y-0068370D01*
X0097195Y-0068679D01*
X0097076Y-0069017D01*
X0096307Y-0069170D01*
X0095656Y-0069605D01*
X0095221Y-0070256D01*
X0095069Y-0071024D01*
X0095221Y-0071793D01*
X0095656Y-0072444D01*
X0096307Y-0072879D01*
X0097076Y-0073032D01*
X0097160Y-0073015D01*
X0097300Y-0073076D01*
X0097383Y-0073134D01*
X0097598Y-0073371D01*
X0097614Y-0073448D01*
Y-0073527D01*
X0097614Y-0073527D01*
X0097721Y-0074065D01*
Y-0074065D01*
X0097751Y-0074138D01*
X0097767Y-0074216D01*
X0097811Y-0074282D01*
X0097841Y-0074354D01*
X0097841Y-0074355D01*
X0098145Y-0074810D01*
X0098145Y-0074810D01*
X0098201Y-0074866D01*
X0098245Y-0074932D01*
X0098311Y-0074976D01*
X0098367Y-0075032D01*
X0098823Y-0075336D01*
X0098823Y-0075336D01*
X0098896Y-0075367D01*
X0098961Y-0075411D01*
X0099039Y-0075426D01*
X0099112Y-0075456D01*
X0099112D01*
X0099650Y-0075563D01*
X0099650Y-0075563D01*
X0099729D01*
X0099806Y-0075579D01*
X0099884Y-0075563D01*
X0099963D01*
X0099963Y-0075563D01*
X0100501Y-0075456D01*
X0100501D01*
X0100574Y-0075426D01*
X0100651Y-0075411D01*
X0100717Y-0075367D01*
X0100790Y-0075336D01*
X0100790Y-0075336D01*
X0101246Y-0075032D01*
X0101246Y-0075032D01*
X0101302Y-0074976D01*
X0101367Y-0074932D01*
X0101411Y-0074866D01*
X0101467Y-0074810D01*
X0101772Y-0074355D01*
X0101772Y-0074354D01*
X0101802Y-0074282D01*
X0101846Y-0074216D01*
X0101861Y-0074138D01*
X0101892Y-0074065D01*
Y-0074065D01*
X0101999Y-0073527D01*
X0101999Y-0073527D01*
Y-0073448D01*
X0102014Y-0073371D01*
X0101999Y-0073293D01*
Y-0073214D01*
X0101999Y-0073214D01*
X0101892Y-0072677D01*
Y-0072677D01*
X0101861Y-0072603D01*
X0101846Y-0072526D01*
X0101802Y-0072460D01*
X0101772Y-0072387D01*
X0101772Y-0072387D01*
X0101467Y-0071931D01*
X0101467Y-0071931D01*
X0101411Y-0071875D01*
X0101367Y-0071810D01*
X0101302Y-0071766D01*
X0101246Y-0071710D01*
X0100790Y-0071405D01*
X0100790Y-0071405D01*
X0100717Y-0071375D01*
X0100651Y-0071331D01*
X0100574Y-0071316D01*
X0100501Y-0071285D01*
X0100501D01*
X0099963Y-0071179D01*
X0099963Y-0071179D01*
X0099884D01*
X0099806Y-0071163D01*
X0099515Y-0070920D01*
X0099564Y-0070789D01*
X0099574Y-0070775D01*
X0099806Y-0070579D01*
X0099884Y-0070563D01*
X0099963D01*
X0099963Y-0070563D01*
X0100501Y-0070456D01*
X0100501D01*
X0100574Y-0070426D01*
X0100651Y-0070411D01*
X0100717Y-0070367D01*
X0100790Y-0070336D01*
X0100790Y-0070336D01*
X0101246Y-0070032D01*
X0101246Y-0070032D01*
X0101302Y-0069976D01*
X0101367Y-0069932D01*
X0101411Y-0069866D01*
X0101467Y-0069810D01*
X0101772Y-0069355D01*
X0101772Y-0069354D01*
X0101802Y-0069282D01*
X0101846Y-0069216D01*
X0101861Y-0069138D01*
X0101892Y-0069065D01*
Y-0069065D01*
X0101999Y-0068528D01*
X0101999Y-0068528D01*
Y-0068448D01*
X0102014Y-0068371D01*
X0101999Y-0068293D01*
Y-0068214D01*
X0101999Y-0068214D01*
X0101892Y-0067677D01*
Y-0067677D01*
X0101861Y-0067603D01*
X0101846Y-0067526D01*
X0101802Y-0067460D01*
X0101772Y-0067387D01*
X0101772Y-0067387D01*
X0101467Y-0066931D01*
X0101467Y-0066931D01*
X0101411Y-0066875D01*
X0101367Y-0066810D01*
X0101302Y-0066766D01*
X0101246Y-0066710D01*
X0100790Y-0066405D01*
X0100790Y-0066405D01*
X0100717Y-0066375D01*
X0100651Y-0066331D01*
X0100574Y-0066316D01*
X0100501Y-0066286D01*
X0100501D01*
X0099963Y-0066179D01*
X0099963Y-0066179D01*
X0099884D01*
X0099806Y-0066163D01*
X0099729Y-0066179D01*
X0099650D01*
X0099650Y-0066179D01*
X0099279Y-0065897D01*
X0099649Y-0065564D01*
X0099658Y-0065563D01*
X0099729D01*
X0099806Y-0065579D01*
X0099884Y-0065563D01*
X0099963D01*
X0099963Y-0065563D01*
X0100501Y-0065456D01*
X0100501D01*
X0100574Y-0065426D01*
X0100651Y-0065411D01*
X0100717Y-0065367D01*
X0100790Y-0065336D01*
X0100790Y-0065336D01*
X0101246Y-0065032D01*
X0101246Y-0065032D01*
X0101302Y-0064976D01*
X0101367Y-0064932D01*
X0101411Y-0064866D01*
X0101467Y-0064810D01*
X0101772Y-0064355D01*
X0101772Y-0064354D01*
X0101802Y-0064281D01*
X0101846Y-0064216D01*
X0101861Y-0064138D01*
X0101892Y-0064065D01*
Y-0064065D01*
X0101999Y-0063528D01*
X0101999Y-0063528D01*
Y-0063448D01*
X0102014Y-0063371D01*
X0101999Y-0063293D01*
Y-0063214D01*
X0101999Y-0063214D01*
X0101892Y-0062677D01*
Y-0062677D01*
X0101861Y-0062603D01*
X0101846Y-0062526D01*
X0101802Y-0062460D01*
X0101772Y-0062387D01*
X0101772Y-0062387D01*
X0101467Y-0061931D01*
X0101467Y-0061931D01*
X0101411Y-0061875D01*
X0101367Y-0061810D01*
X0101302Y-0061766D01*
X0101246Y-0061710D01*
X0100790Y-0061405D01*
X0100790Y-0061405D01*
X0100717Y-0061375D01*
X0100651Y-0061331D01*
X0100574Y-0061316D01*
X0100501Y-0061286D01*
X0100501D01*
X0099963Y-0061178D01*
X0099963Y-0061178D01*
X0099884D01*
X0099806Y-0061163D01*
D02*
G37*
G36*
X0051900Y-0066393D02*
X0051132Y-0066546D01*
X0050481Y-0066981D01*
X0050046Y-0067632D01*
X0049893Y-0068400D01*
X0050046Y-0069168D01*
X0050481Y-0069819D01*
X0051132Y-0070254D01*
X0051900Y-0070407D01*
X0052668Y-0070254D01*
X0053319Y-0069819D01*
X0053754Y-0069168D01*
X0053907Y-0068400D01*
X0053754Y-0067632D01*
X0053319Y-0066981D01*
X0052668Y-0066546D01*
X0051900Y-0066393D01*
D02*
G37*
G36*
X0068900Y-0072093D02*
X0068132Y-0072246D01*
X0067481Y-0072681D01*
X0067046Y-0073332D01*
X0066893Y-0074100D01*
X0067046Y-0074868D01*
X0067481Y-0075519D01*
X0068132Y-0075954D01*
X0068900Y-0076107D01*
X0069668Y-0075954D01*
X0070319Y-0075519D01*
X0070754Y-0074868D01*
X0070907Y-0074100D01*
X0070754Y-0073332D01*
X0070319Y-0072681D01*
X0069668Y-0072246D01*
X0068900Y-0072093D01*
D02*
G37*
G36*
X0085000Y-0070593D02*
X0084232Y-0070746D01*
X0083581Y-0071181D01*
X0083146Y-0071832D01*
X0082993Y-0072600D01*
X0083146Y-0073368D01*
X0083581Y-0074019D01*
X0084232Y-0074454D01*
X0085000Y-0074607D01*
X0085768Y-0074454D01*
X0086419Y-0074019D01*
X0086854Y-0073368D01*
X0087007Y-0072600D01*
X0086854Y-0071832D01*
X0086419Y-0071181D01*
X0085768Y-0070746D01*
X0085000Y-0070593D01*
D02*
G37*
G36*
X0016735Y-0071163D02*
X0016658Y-0071179D01*
X0016579D01*
X0016579Y-0071179D01*
X0016041Y-0071285D01*
X0016041D01*
X0015968Y-0071316D01*
X0015890Y-0071331D01*
X0015825Y-0071375D01*
X0015752Y-0071405D01*
X0015752Y-0071405D01*
X0015296Y-0071710D01*
X0015296Y-0071710D01*
X0015240Y-0071766D01*
X0015174Y-0071810D01*
X0015130Y-0071875D01*
X0015075Y-0071931D01*
X0014770Y-0072387D01*
X0014770Y-0072387D01*
X0014740Y-0072460D01*
X0014696Y-0072526D01*
X0014680Y-0072603D01*
X0014650Y-0072677D01*
Y-0072677D01*
X0014543Y-0073214D01*
X0014543Y-0073214D01*
Y-0073293D01*
X0014528Y-0073371D01*
X0014543Y-0073448D01*
Y-0073527D01*
X0014543Y-0073527D01*
X0014650Y-0074065D01*
Y-0074065D01*
X0014680Y-0074138D01*
X0014696Y-0074216D01*
X0014740Y-0074282D01*
X0014770Y-0074354D01*
X0014770Y-0074355D01*
X0015074Y-0074810D01*
X0015074Y-0074810D01*
X0015130Y-0074866D01*
X0015174Y-0074932D01*
X0015240Y-0074976D01*
X0015296Y-0075032D01*
X0015752Y-0075336D01*
X0015752Y-0075336D01*
X0015825Y-0075367D01*
X0015890Y-0075411D01*
X0015968Y-0075426D01*
X0016041Y-0075456D01*
X0016041D01*
X0016537Y-0075555D01*
X0016671Y-0075820D01*
X0016579Y-0076178D01*
X0016041Y-0076285D01*
X0016041D01*
X0015968Y-0076316D01*
X0015890Y-0076331D01*
X0015825Y-0076375D01*
X0015752Y-0076405D01*
X0015752Y-0076405D01*
X0015296Y-0076710D01*
X0015296Y-0076710D01*
X0015240Y-0076766D01*
X0015174Y-0076810D01*
X0015130Y-0076875D01*
X0015075Y-0076931D01*
X0014770Y-0077387D01*
X0014770Y-0077387D01*
X0014740Y-0077460D01*
X0014696Y-0077526D01*
X0014680Y-0077604D01*
X0014650Y-0077677D01*
Y-0077677D01*
X0014543Y-0078214D01*
X0014543Y-0078214D01*
Y-0078293D01*
X0014528Y-0078371D01*
X0014543Y-0078448D01*
Y-0078527D01*
X0014543Y-0078527D01*
X0014650Y-0079065D01*
Y-0079065D01*
X0014680Y-0079138D01*
X0014696Y-0079216D01*
X0014740Y-0079282D01*
X0014770Y-0079355D01*
X0014770Y-0079355D01*
X0015074Y-0079810D01*
X0015074Y-0079810D01*
X0015130Y-0079866D01*
X0015174Y-0079932D01*
X0015240Y-0079976D01*
X0015296Y-0080032D01*
X0015752Y-0080336D01*
X0015752Y-0080336D01*
X0015825Y-0080367D01*
X0015890Y-0080411D01*
X0015968Y-0080426D01*
X0016041Y-0080456D01*
X0016041D01*
X0016579Y-0080563D01*
X0016579Y-0080563D01*
X0016658D01*
X0016735Y-0080579D01*
X0016813Y-0080563D01*
X0016892D01*
X0016892Y-0080563D01*
X0017430Y-0080456D01*
X0017430D01*
X0017503Y-0080426D01*
X0017580Y-0080411D01*
X0017646Y-0080367D01*
X0017719Y-0080336D01*
X0017719Y-0080336D01*
X0018175Y-0080032D01*
X0018175Y-0080032D01*
X0018231Y-0079976D01*
X0018297Y-0079932D01*
X0018340Y-0079866D01*
X0018396Y-0079810D01*
X0018701Y-0079355D01*
X0018701Y-0079355D01*
X0018731Y-0079282D01*
X0018775Y-0079216D01*
X0018791Y-0079138D01*
X0018821Y-0079065D01*
Y-0079065D01*
X0018928Y-0078527D01*
X0018928Y-0078527D01*
Y-0078448D01*
X0018943Y-0078371D01*
X0018928Y-0078293D01*
X0018994Y-0078152D01*
X0019357Y-0077812D01*
X0019902Y-0077703D01*
X0020553Y-0077268D01*
X0020988Y-0076617D01*
X0021141Y-0075849D01*
X0020988Y-0075081D01*
X0020553Y-0074430D01*
X0019902Y-0073995D01*
X0019366Y-0073888D01*
X0019089Y-0073660D01*
X0019005Y-0073523D01*
X0018943Y-0073371D01*
X0018928Y-0073293D01*
Y-0073214D01*
X0018928Y-0073214D01*
X0018821Y-0072677D01*
Y-0072677D01*
X0018791Y-0072603D01*
X0018775Y-0072526D01*
X0018731Y-0072460D01*
X0018701Y-0072387D01*
X0018701Y-0072387D01*
X0018396Y-0071931D01*
X0018396Y-0071931D01*
X0018340Y-0071875D01*
X0018297Y-0071810D01*
X0018231Y-0071766D01*
X0018175Y-0071710D01*
X0017719Y-0071405D01*
X0017719Y-0071405D01*
X0017646Y-0071375D01*
X0017580Y-0071331D01*
X0017503Y-0071316D01*
X0017430Y-0071285D01*
X0017430D01*
X0016892Y-0071179D01*
X0016892Y-0071179D01*
X0016813D01*
X0016735Y-0071163D01*
D02*
G37*
G36*
X0038271Y-0097781D02*
X0038193Y-0097797D01*
X0038114D01*
X0038114Y-0097797D01*
X0037577Y-0097904D01*
X0037577D01*
X0037503Y-0097934D01*
X0037426Y-0097949D01*
X0037360Y-0097993D01*
X0037287Y-0098024D01*
X0037287Y-0098024D01*
X0036831Y-0098328D01*
X0036831Y-0098328D01*
X0036775Y-0098384D01*
X0036710Y-0098428D01*
X0036666Y-0098494D01*
X0036610Y-0098550D01*
X0036305Y-0099005D01*
X0036305Y-0099006D01*
X0036275Y-0099079D01*
X0036231Y-0099144D01*
X0036216Y-0099222D01*
X0036186Y-0099295D01*
Y-0099295D01*
X0036079Y-0099832D01*
X0036079Y-0099832D01*
Y-0099912D01*
X0036063Y-0099989D01*
X0036079Y-0100067D01*
Y-0100146D01*
X0036079Y-0100146D01*
X0036186Y-0100683D01*
Y-0100683D01*
X0036216Y-0100757D01*
X0036231Y-0100834D01*
X0036275Y-0100900D01*
X0036305Y-0100973D01*
X0036305Y-0100973D01*
X0036610Y-0101429D01*
X0036610Y-0101429D01*
X0036666Y-0101485D01*
X0036710Y-0101550D01*
X0036775Y-0101594D01*
X0036831Y-0101650D01*
X0037287Y-0101955D01*
X0037287Y-0101955D01*
X0037360Y-0101985D01*
X0037426Y-0102029D01*
X0037503Y-0102044D01*
X0037577Y-0102075D01*
X0037577D01*
X0038114Y-0102181D01*
X0038114Y-0102181D01*
X0038193D01*
X0038271Y-0102197D01*
X0038348Y-0102181D01*
X0038427D01*
X0038427Y-0102181D01*
X0038965Y-0102075D01*
X0038965D01*
X0039038Y-0102044D01*
X0039116Y-0102029D01*
X0039182Y-0101985D01*
X0039255Y-0101955D01*
X0039255Y-0101955D01*
X0039710Y-0101650D01*
X0039710Y-0101650D01*
X0039766Y-0101594D01*
X0039832Y-0101550D01*
X0039876Y-0101485D01*
X0039932Y-0101429D01*
X0040236Y-0100973D01*
X0040236Y-0100973D01*
X0040267Y-0100900D01*
X0040311Y-0100834D01*
X0040326Y-0100757D01*
X0040356Y-0100683D01*
Y-0100683D01*
X0040463Y-0100146D01*
X0040463Y-0100146D01*
Y-0100067D01*
X0040479Y-0099989D01*
X0040463Y-0099912D01*
Y-0099832D01*
X0040463Y-0099832D01*
X0040356Y-0099295D01*
Y-0099295D01*
X0040326Y-0099222D01*
X0040311Y-0099144D01*
X0040267Y-0099079D01*
X0040236Y-0099006D01*
X0040236Y-0099005D01*
X0039932Y-0098550D01*
X0039932Y-0098550D01*
X0039876Y-0098494D01*
X0039832Y-0098428D01*
X0039766Y-0098384D01*
X0039710Y-0098328D01*
X0039255Y-0098024D01*
X0039255Y-0098024D01*
X0039182Y-0097993D01*
X0039116Y-0097949D01*
X0039038Y-0097934D01*
X0038965Y-0097904D01*
X0038965D01*
X0038427Y-0097797D01*
X0038427Y-0097797D01*
X0038348D01*
X0038271Y-0097781D01*
D02*
G37*
G36*
X0043271D02*
X0043193Y-0097797D01*
X0043114D01*
X0043114Y-0097797D01*
X0042577Y-0097904D01*
X0042577D01*
X0042503Y-0097934D01*
X0042426Y-0097949D01*
X0042360Y-0097993D01*
X0042287Y-0098024D01*
X0042287Y-0098024D01*
X0041831Y-0098328D01*
X0041831Y-0098328D01*
X0041775Y-0098384D01*
X0041710Y-0098428D01*
X0041666Y-0098494D01*
X0041610Y-0098550D01*
X0041305Y-0099005D01*
X0041305Y-0099006D01*
X0041275Y-0099079D01*
X0041231Y-0099144D01*
X0041216Y-0099222D01*
X0041186Y-0099295D01*
Y-0099295D01*
X0041078Y-0099832D01*
X0041078Y-0099832D01*
Y-0099912D01*
X0041063Y-0099989D01*
X0041078Y-0100067D01*
Y-0100146D01*
X0041078Y-0100146D01*
X0041186Y-0100683D01*
Y-0100683D01*
X0041216Y-0100757D01*
X0041231Y-0100834D01*
X0041275Y-0100900D01*
X0041305Y-0100973D01*
X0041305Y-0100973D01*
X0041610Y-0101429D01*
X0041610Y-0101429D01*
X0041666Y-0101485D01*
X0041710Y-0101550D01*
X0041775Y-0101594D01*
X0041831Y-0101650D01*
X0042287Y-0101955D01*
X0042287Y-0101955D01*
X0042360Y-0101985D01*
X0042426Y-0102029D01*
X0042503Y-0102044D01*
X0042577Y-0102075D01*
X0042577D01*
X0043114Y-0102181D01*
X0043114Y-0102181D01*
X0043193D01*
X0043271Y-0102197D01*
X0043348Y-0102181D01*
X0043428D01*
X0043428Y-0102181D01*
X0043965Y-0102075D01*
X0043965D01*
X0044038Y-0102044D01*
X0044116Y-0102029D01*
X0044181Y-0101985D01*
X0044255Y-0101955D01*
X0044255Y-0101955D01*
X0044710Y-0101650D01*
X0044710Y-0101650D01*
X0044766Y-0101594D01*
X0044832Y-0101550D01*
X0044876Y-0101485D01*
X0044932Y-0101429D01*
X0045236Y-0100973D01*
X0045236Y-0100973D01*
X0045267Y-0100900D01*
X0045311Y-0100834D01*
X0045326Y-0100757D01*
X0045356Y-0100683D01*
Y-0100683D01*
X0045463Y-0100146D01*
X0045463Y-0100146D01*
Y-0100067D01*
X0045479Y-0099989D01*
X0045463Y-0099912D01*
Y-0099832D01*
X0045463Y-0099832D01*
X0045356Y-0099295D01*
Y-0099295D01*
X0045326Y-0099222D01*
X0045311Y-0099144D01*
X0045267Y-0099079D01*
X0045236Y-0099006D01*
X0045236Y-0099005D01*
X0044932Y-0098550D01*
X0044932Y-0098550D01*
X0044876Y-0098494D01*
X0044832Y-0098428D01*
X0044766Y-0098384D01*
X0044710Y-0098328D01*
X0044255Y-0098024D01*
X0044255Y-0098024D01*
X0044181Y-0097993D01*
X0044116Y-0097949D01*
X0044038Y-0097934D01*
X0043965Y-0097904D01*
X0043965D01*
X0043428Y-0097797D01*
X0043428Y-0097797D01*
X0043348D01*
X0043271Y-0097781D01*
D02*
G37*
G36*
X0075642Y-0095393D02*
X0074874Y-0095546D01*
X0074222Y-0095981D01*
X0073787Y-0096632D01*
X0073648Y-0097331D01*
X0073579Y-0097478D01*
X0073539Y-0097533D01*
X0073271Y-0097781D01*
X0073193Y-0097797D01*
X0073114D01*
X0073114Y-0097797D01*
X0072577Y-0097904D01*
X0072577D01*
X0072504Y-0097934D01*
X0072426Y-0097949D01*
X0072360Y-0097993D01*
X0072287Y-0098024D01*
X0072287Y-0098024D01*
X0071831Y-0098328D01*
X0071831Y-0098328D01*
X0071775Y-0098384D01*
X0071710Y-0098428D01*
X0071666Y-0098494D01*
X0071610Y-0098550D01*
X0071305Y-0099005D01*
X0071305Y-0099006D01*
X0071275Y-0099079D01*
X0071231Y-0099144D01*
X0071216Y-0099222D01*
X0071185Y-0099295D01*
Y-0099295D01*
X0071078Y-0099832D01*
X0071078Y-0099832D01*
Y-0099912D01*
X0071063Y-0099989D01*
X0071078Y-0100067D01*
Y-0100146D01*
X0071078Y-0100146D01*
X0071185Y-0100683D01*
Y-0100683D01*
X0071216Y-0100757D01*
X0071231Y-0100834D01*
X0071275Y-0100900D01*
X0071305Y-0100973D01*
X0071305Y-0100973D01*
X0071610Y-0101429D01*
X0071610Y-0101429D01*
X0071666Y-0101485D01*
X0071710Y-0101550D01*
X0071775Y-0101594D01*
X0071831Y-0101650D01*
X0072287Y-0101955D01*
X0072287Y-0101955D01*
X0072360Y-0101985D01*
X0072426Y-0102029D01*
X0072504Y-0102044D01*
X0072577Y-0102075D01*
X0072577D01*
X0073114Y-0102181D01*
X0073114Y-0102181D01*
X0073193D01*
X0073271Y-0102197D01*
X0073348Y-0102181D01*
X0073427D01*
X0073427Y-0102181D01*
X0073965Y-0102075D01*
X0073965D01*
X0074038Y-0102044D01*
X0074116Y-0102029D01*
X0074181Y-0101985D01*
X0074255Y-0101955D01*
X0074255Y-0101955D01*
X0074710Y-0101650D01*
X0074710Y-0101650D01*
X0074766Y-0101594D01*
X0074832Y-0101550D01*
X0074876Y-0101485D01*
X0074932Y-0101429D01*
X0075236Y-0100973D01*
X0075236Y-0100973D01*
X0075267Y-0100900D01*
X0075311Y-0100834D01*
X0075326Y-0100757D01*
X0075356Y-0100683D01*
Y-0100683D01*
X0075463Y-0100146D01*
X0075463Y-0100146D01*
Y-0100106D01*
X0075593Y-0099982D01*
X0075795Y-0099850D01*
X0075829Y-0099868D01*
X0076068Y-0100012D01*
X0076078Y-0100067D01*
Y-0100146D01*
X0076078Y-0100146D01*
X0076186Y-0100683D01*
Y-0100683D01*
X0076216Y-0100757D01*
X0076231Y-0100834D01*
X0076275Y-0100900D01*
X0076305Y-0100973D01*
X0076305Y-0100973D01*
X0076610Y-0101429D01*
X0076610Y-0101429D01*
X0076666Y-0101485D01*
X0076710Y-0101550D01*
X0076775Y-0101594D01*
X0076831Y-0101650D01*
X0077287Y-0101955D01*
X0077287Y-0101955D01*
X0077360Y-0101985D01*
X0077426Y-0102029D01*
X0077504Y-0102044D01*
X0077577Y-0102075D01*
X0077577D01*
X0078114Y-0102181D01*
X0078114Y-0102181D01*
X0078193D01*
X0078271Y-0102197D01*
X0078348Y-0102181D01*
X0078427D01*
X0078427Y-0102181D01*
X0078965Y-0102075D01*
X0078965D01*
X0079038Y-0102044D01*
X0079116Y-0102029D01*
X0079181Y-0101985D01*
X0079255Y-0101955D01*
X0079255Y-0101955D01*
X0079710Y-0101650D01*
X0079710Y-0101650D01*
X0079766Y-0101594D01*
X0079832Y-0101550D01*
X0079876Y-0101485D01*
X0079932Y-0101429D01*
X0080236Y-0100973D01*
X0080236Y-0100973D01*
X0080267Y-0100900D01*
X0080311Y-0100834D01*
X0080326Y-0100757D01*
X0080356Y-0100683D01*
Y-0100683D01*
X0080463Y-0100146D01*
X0080463Y-0100146D01*
Y-0100067D01*
X0080479Y-0099989D01*
X0080463Y-0099912D01*
Y-0099832D01*
X0080463Y-0099832D01*
X0080356Y-0099295D01*
Y-0099295D01*
X0080326Y-0099222D01*
X0080311Y-0099144D01*
X0080267Y-0099079D01*
X0080236Y-0099006D01*
X0080236Y-0099005D01*
X0079932Y-0098550D01*
X0079932Y-0098550D01*
X0079876Y-0098494D01*
X0079832Y-0098428D01*
X0079766Y-0098384D01*
X0079710Y-0098328D01*
X0079255Y-0098024D01*
X0079255Y-0098024D01*
X0079181Y-0097993D01*
X0079116Y-0097949D01*
X0079038Y-0097934D01*
X0078965Y-0097904D01*
X0078965D01*
X0078427Y-0097797D01*
X0078427Y-0097797D01*
X0078348D01*
X0078271Y-0097781D01*
X0078193Y-0097797D01*
X0078114D01*
X0078114Y-0097797D01*
X0078078Y-0097804D01*
X0077652Y-0097403D01*
X0077645Y-0097380D01*
X0077496Y-0096632D01*
X0077061Y-0095981D01*
X0076410Y-0095546D01*
X0075642Y-0095393D01*
D02*
G37*
G36*
X0065793Y-0094493D02*
X0065025Y-0094646D01*
X0064374Y-0095081D01*
X0063939Y-0095732D01*
X0063786Y-0096500D01*
X0063939Y-0097268D01*
X0064031Y-0097407D01*
X0063731Y-0097857D01*
X0063428Y-0097797D01*
X0063428Y-0097797D01*
X0063348D01*
X0063271Y-0097781D01*
X0063193Y-0097797D01*
X0063114D01*
X0063114Y-0097797D01*
X0063021Y-0097815D01*
X0062868Y-0097676D01*
X0062667Y-0097376D01*
X0062800Y-0096707D01*
X0062647Y-0095939D01*
X0062212Y-0095288D01*
X0061561Y-0094853D01*
X0060793Y-0094700D01*
X0060025Y-0094853D01*
X0059374Y-0095288D01*
X0058939Y-0095939D01*
X0058786Y-0096707D01*
X0058921Y-0097385D01*
X0058732Y-0097673D01*
X0058571Y-0097825D01*
X0058428Y-0097797D01*
X0058428Y-0097797D01*
X0058348D01*
X0058271Y-0097781D01*
X0058193Y-0097797D01*
X0058114D01*
X0058114Y-0097797D01*
X0057577Y-0097904D01*
X0057577D01*
X0057503Y-0097934D01*
X0057426Y-0097949D01*
X0057360Y-0097993D01*
X0057287Y-0098024D01*
X0057287Y-0098024D01*
X0056831Y-0098328D01*
X0056831Y-0098328D01*
X0056775Y-0098384D01*
X0056710Y-0098428D01*
X0056666Y-0098494D01*
X0056610Y-0098550D01*
X0056305Y-0099005D01*
X0056305Y-0099006D01*
X0056275Y-0099079D01*
X0056231Y-0099144D01*
X0056216Y-0099222D01*
X0056186Y-0099295D01*
Y-0099295D01*
X0056078Y-0099832D01*
X0056078Y-0099832D01*
Y-0099912D01*
X0056063Y-0099989D01*
X0056078Y-0100067D01*
Y-0100146D01*
X0056078Y-0100146D01*
X0056186Y-0100683D01*
Y-0100683D01*
X0056216Y-0100757D01*
X0056231Y-0100834D01*
X0056275Y-0100900D01*
X0056305Y-0100973D01*
X0056305Y-0100973D01*
X0056610Y-0101429D01*
X0056610Y-0101429D01*
X0056666Y-0101485D01*
X0056710Y-0101550D01*
X0056775Y-0101594D01*
X0056831Y-0101650D01*
X0057287Y-0101955D01*
X0057287Y-0101955D01*
X0057360Y-0101985D01*
X0057426Y-0102029D01*
X0057503Y-0102044D01*
X0057577Y-0102075D01*
X0057577D01*
X0058114Y-0102181D01*
X0058114Y-0102181D01*
X0058193D01*
X0058271Y-0102197D01*
X0058348Y-0102181D01*
X0058428D01*
X0058428Y-0102181D01*
X0058965Y-0102075D01*
X0058965D01*
X0059038Y-0102044D01*
X0059116Y-0102029D01*
X0059181Y-0101985D01*
X0059254Y-0101955D01*
X0059255Y-0101955D01*
X0059710Y-0101650D01*
X0059710Y-0101650D01*
X0059766Y-0101594D01*
X0059832Y-0101550D01*
X0059876Y-0101485D01*
X0059932Y-0101429D01*
X0060236Y-0100973D01*
X0060236Y-0100973D01*
X0060267Y-0100900D01*
X0060311Y-0100834D01*
X0060326Y-0100757D01*
X0060356Y-0100683D01*
Y-0100683D01*
X0060463Y-0100146D01*
X0060463Y-0100146D01*
Y-0100067D01*
X0060479Y-0099989D01*
X0060463Y-0099912D01*
Y-0099832D01*
X0060463Y-0099832D01*
X0060356Y-0099295D01*
Y-0099295D01*
X0060326Y-0099222D01*
X0060311Y-0099144D01*
X0060298Y-0099125D01*
X0060353Y-0098952D01*
X0060429Y-0098842D01*
X0060620Y-0098680D01*
X0060793Y-0098714D01*
X0060915Y-0098690D01*
X0061100Y-0098839D01*
X0061165Y-0098929D01*
X0061237Y-0099136D01*
X0061231Y-0099144D01*
X0061216Y-0099222D01*
X0061185Y-0099295D01*
Y-0099295D01*
X0061079Y-0099832D01*
X0061079Y-0099832D01*
Y-0099912D01*
X0061063Y-0099989D01*
X0061079Y-0100067D01*
Y-0100146D01*
X0061079Y-0100146D01*
X0061185Y-0100683D01*
Y-0100683D01*
X0061216Y-0100757D01*
X0061231Y-0100834D01*
X0061275Y-0100900D01*
X0061305Y-0100973D01*
X0061305Y-0100973D01*
X0061610Y-0101429D01*
X0061610Y-0101429D01*
X0061666Y-0101485D01*
X0061710Y-0101550D01*
X0061775Y-0101594D01*
X0061831Y-0101650D01*
X0062287Y-0101955D01*
X0062287Y-0101955D01*
X0062360Y-0101985D01*
X0062426Y-0102029D01*
X0062503Y-0102044D01*
X0062577Y-0102075D01*
X0062577D01*
X0063114Y-0102181D01*
X0063114Y-0102181D01*
X0063193D01*
X0063271Y-0102197D01*
X0063348Y-0102181D01*
X0063428D01*
X0063428Y-0102181D01*
X0063965Y-0102075D01*
X0063965D01*
X0064038Y-0102044D01*
X0064116Y-0102029D01*
X0064182Y-0101985D01*
X0064254Y-0101955D01*
X0064255Y-0101955D01*
X0064710Y-0101650D01*
X0064710Y-0101650D01*
X0064766Y-0101594D01*
X0064832Y-0101550D01*
X0064876Y-0101485D01*
X0064932Y-0101429D01*
X0065236Y-0100973D01*
X0065236Y-0100973D01*
X0065267Y-0100900D01*
X0065311Y-0100834D01*
X0065326Y-0100757D01*
X0065356Y-0100683D01*
Y-0100683D01*
X0065463Y-0100146D01*
X0065463Y-0100146D01*
Y-0100067D01*
X0065479Y-0099989D01*
X0065463Y-0099912D01*
Y-0099832D01*
X0065463Y-0099832D01*
X0065356Y-0099295D01*
Y-0099295D01*
X0065326Y-0099222D01*
X0065311Y-0099144D01*
X0065267Y-0099079D01*
X0065236Y-0099006D01*
X0065236Y-0099005D01*
X0065160Y-0098891D01*
X0065461Y-0098441D01*
X0065793Y-0098507D01*
X0066074Y-0098451D01*
X0066375Y-0098901D01*
X0066305Y-0099005D01*
X0066305Y-0099006D01*
X0066275Y-0099079D01*
X0066231Y-0099144D01*
X0066216Y-0099222D01*
X0066185Y-0099295D01*
Y-0099295D01*
X0066079Y-0099832D01*
X0066079Y-0099832D01*
Y-0099912D01*
X0066063Y-0099989D01*
X0066079Y-0100067D01*
Y-0100146D01*
X0066079Y-0100146D01*
X0066185Y-0100683D01*
Y-0100683D01*
X0066216Y-0100757D01*
X0066231Y-0100834D01*
X0066275Y-0100900D01*
X0066305Y-0100973D01*
X0066305Y-0100973D01*
X0066610Y-0101429D01*
X0066610Y-0101429D01*
X0066666Y-0101485D01*
X0066710Y-0101550D01*
X0066775Y-0101594D01*
X0066831Y-0101650D01*
X0067287Y-0101955D01*
X0067287Y-0101955D01*
X0067360Y-0101985D01*
X0067426Y-0102029D01*
X0067503Y-0102044D01*
X0067577Y-0102075D01*
X0067577D01*
X0068114Y-0102181D01*
X0068114Y-0102181D01*
X0068193D01*
X0068271Y-0102197D01*
X0068348Y-0102181D01*
X0068427D01*
X0068427Y-0102181D01*
X0068965Y-0102075D01*
X0068965D01*
X0069038Y-0102044D01*
X0069116Y-0102029D01*
X0069182Y-0101985D01*
X0069254Y-0101955D01*
X0069255Y-0101955D01*
X0069710Y-0101650D01*
X0069710Y-0101650D01*
X0069766Y-0101594D01*
X0069832Y-0101550D01*
X0069876Y-0101485D01*
X0069932Y-0101429D01*
X0070236Y-0100973D01*
X0070236Y-0100973D01*
X0070267Y-0100900D01*
X0070311Y-0100834D01*
X0070326Y-0100757D01*
X0070356Y-0100683D01*
Y-0100683D01*
X0070463Y-0100146D01*
X0070463Y-0100146D01*
Y-0100067D01*
X0070479Y-0099989D01*
X0070463Y-0099912D01*
Y-0099832D01*
X0070463Y-0099832D01*
X0070356Y-0099295D01*
Y-0099295D01*
X0070326Y-0099222D01*
X0070311Y-0099144D01*
X0070267Y-0099079D01*
X0070236Y-0099006D01*
X0070236Y-0099005D01*
X0069932Y-0098550D01*
X0069932Y-0098550D01*
X0069876Y-0098494D01*
X0069832Y-0098428D01*
X0069766Y-0098384D01*
X0069710Y-0098328D01*
X0069255Y-0098024D01*
X0069254Y-0098024D01*
X0069182Y-0097993D01*
X0069116Y-0097949D01*
X0069038Y-0097934D01*
X0068965Y-0097904D01*
X0068965D01*
X0068427Y-0097797D01*
X0068427Y-0097797D01*
X0068348D01*
X0068271Y-0097781D01*
X0068193Y-0097797D01*
X0068114D01*
X0068114Y-0097797D01*
X0067862Y-0097847D01*
X0067561Y-0097397D01*
X0067647Y-0097268D01*
X0067800Y-0096500D01*
X0067647Y-0095732D01*
X0067212Y-0095081D01*
X0066561Y-0094646D01*
X0065793Y-0094493D01*
D02*
G37*
G36*
X0085400Y-0109793D02*
X0084632Y-0109946D01*
X0083981Y-0110381D01*
X0083546Y-0111032D01*
X0083393Y-0111800D01*
X0083546Y-0112568D01*
X0083981Y-0113219D01*
X0084632Y-0113654D01*
X0085400Y-0113807D01*
X0086168Y-0113654D01*
X0086819Y-0113219D01*
X0087254Y-0112568D01*
X0087407Y-0111800D01*
X0087254Y-0111032D01*
X0086819Y-0110381D01*
X0086168Y-0109946D01*
X0085400Y-0109793D01*
D02*
G37*
G36*
X0032817Y-0103591D02*
X0032049Y-0103744D01*
X0031398Y-0104179D01*
X0030963Y-0104830D01*
X0030810Y-0105598D01*
X0030963Y-0106366D01*
X0031398Y-0107017D01*
X0032049Y-0107452D01*
X0032817Y-0107605D01*
X0033585Y-0107452D01*
X0034236Y-0107017D01*
X0034672Y-0106366D01*
X0034824Y-0105598D01*
X0034672Y-0104830D01*
X0034236Y-0104179D01*
X0033585Y-0103744D01*
X0032817Y-0103591D01*
D02*
G37*
G36*
X0050793Y-0094493D02*
X0050025Y-0094646D01*
X0049374Y-0095081D01*
X0048939Y-0095732D01*
X0048786Y-0096500D01*
X0048939Y-0097268D01*
X0049031Y-0097407D01*
X0048731Y-0097857D01*
X0048428Y-0097797D01*
X0048428Y-0097797D01*
X0048348D01*
X0048271Y-0097781D01*
X0048193Y-0097797D01*
X0048114D01*
X0048114Y-0097797D01*
X0047577Y-0097904D01*
X0047577D01*
X0047504Y-0097934D01*
X0047426Y-0097949D01*
X0047360Y-0097993D01*
X0047287Y-0098024D01*
X0047287Y-0098024D01*
X0046831Y-0098328D01*
X0046831Y-0098328D01*
X0046775Y-0098384D01*
X0046710Y-0098428D01*
X0046666Y-0098494D01*
X0046610Y-0098550D01*
X0046305Y-0099005D01*
X0046305Y-0099006D01*
X0046275Y-0099079D01*
X0046231Y-0099144D01*
X0046216Y-0099222D01*
X0046185Y-0099295D01*
Y-0099295D01*
X0046079Y-0099832D01*
X0046079Y-0099832D01*
Y-0099912D01*
X0046063Y-0099989D01*
X0046079Y-0100067D01*
Y-0100146D01*
X0046079Y-0100146D01*
X0046185Y-0100683D01*
Y-0100683D01*
X0046216Y-0100757D01*
X0046231Y-0100834D01*
X0046275Y-0100900D01*
X0046305Y-0100973D01*
X0046305Y-0100973D01*
X0046610Y-0101429D01*
X0046610Y-0101429D01*
X0046666Y-0101485D01*
X0046710Y-0101550D01*
X0046775Y-0101594D01*
X0046831Y-0101650D01*
X0047287Y-0101955D01*
X0047287Y-0101955D01*
X0047360Y-0101985D01*
X0047426Y-0102029D01*
X0047504Y-0102044D01*
X0047577Y-0102075D01*
X0047577D01*
X0048114Y-0102181D01*
X0048114Y-0102181D01*
X0048193D01*
X0048271Y-0102197D01*
X0048348Y-0102181D01*
X0048428D01*
X0048428Y-0102181D01*
X0048965Y-0102075D01*
X0048965D01*
X0049038Y-0102044D01*
X0049116Y-0102029D01*
X0049182Y-0101985D01*
X0049255Y-0101955D01*
X0049255Y-0101955D01*
X0049710Y-0101650D01*
X0049710Y-0101650D01*
X0049766Y-0101594D01*
X0049832Y-0101550D01*
X0049876Y-0101485D01*
X0049932Y-0101429D01*
X0050236Y-0100973D01*
X0050236Y-0100973D01*
X0050267Y-0100900D01*
X0050311Y-0100834D01*
X0050326Y-0100757D01*
X0050356Y-0100683D01*
Y-0100683D01*
X0050463Y-0100146D01*
X0050463Y-0100146D01*
Y-0100067D01*
X0050479Y-0099989D01*
X0050463Y-0099912D01*
Y-0099832D01*
X0050463Y-0099832D01*
X0050356Y-0099295D01*
Y-0099295D01*
X0050326Y-0099222D01*
X0050311Y-0099144D01*
X0050267Y-0099079D01*
X0050236Y-0099006D01*
X0050236Y-0099005D01*
X0050160Y-0098891D01*
X0050461Y-0098441D01*
X0050793Y-0098507D01*
X0051074Y-0098451D01*
X0051375Y-0098901D01*
X0051305Y-0099005D01*
X0051305Y-0099006D01*
X0051275Y-0099079D01*
X0051231Y-0099144D01*
X0051216Y-0099222D01*
X0051186Y-0099295D01*
Y-0099295D01*
X0051078Y-0099832D01*
X0051078Y-0099832D01*
Y-0099912D01*
X0051063Y-0099989D01*
X0051078Y-0100067D01*
Y-0100146D01*
X0051078Y-0100146D01*
X0051186Y-0100683D01*
Y-0100683D01*
X0051216Y-0100757D01*
X0051231Y-0100834D01*
X0051275Y-0100900D01*
X0051305Y-0100973D01*
X0051305Y-0100973D01*
X0051610Y-0101429D01*
X0051610Y-0101429D01*
X0051666Y-0101485D01*
X0051710Y-0101550D01*
X0051775Y-0101594D01*
X0051831Y-0101650D01*
X0052287Y-0101955D01*
X0052287Y-0101955D01*
X0052360Y-0101985D01*
X0052426Y-0102029D01*
X0052504Y-0102044D01*
X0052577Y-0102075D01*
X0052577D01*
X0053114Y-0102181D01*
X0053114Y-0102181D01*
X0053193D01*
X0053271Y-0102197D01*
X0053348Y-0102181D01*
X0053427D01*
X0053427Y-0102181D01*
X0053965Y-0102075D01*
X0053965D01*
X0054038Y-0102044D01*
X0054116Y-0102029D01*
X0054181Y-0101985D01*
X0054255Y-0101955D01*
X0054255Y-0101955D01*
X0054710Y-0101650D01*
X0054710Y-0101650D01*
X0054766Y-0101594D01*
X0054832Y-0101550D01*
X0054876Y-0101485D01*
X0054932Y-0101429D01*
X0055236Y-0100973D01*
X0055236Y-0100973D01*
X0055267Y-0100900D01*
X0055311Y-0100834D01*
X0055326Y-0100757D01*
X0055356Y-0100683D01*
Y-0100683D01*
X0055463Y-0100146D01*
X0055463Y-0100146D01*
Y-0100067D01*
X0055479Y-0099989D01*
X0055463Y-0099912D01*
Y-0099832D01*
X0055463Y-0099832D01*
X0055356Y-0099295D01*
Y-0099295D01*
X0055326Y-0099222D01*
X0055311Y-0099144D01*
X0055267Y-0099079D01*
X0055236Y-0099006D01*
X0055236Y-0099005D01*
X0054932Y-0098550D01*
X0054932Y-0098550D01*
X0054876Y-0098494D01*
X0054832Y-0098428D01*
X0054766Y-0098384D01*
X0054710Y-0098328D01*
X0054255Y-0098024D01*
X0054255Y-0098024D01*
X0054181Y-0097993D01*
X0054116Y-0097949D01*
X0054038Y-0097934D01*
X0053965Y-0097904D01*
X0053965D01*
X0053427Y-0097797D01*
X0053427Y-0097797D01*
X0053348D01*
X0053271Y-0097781D01*
X0053193Y-0097797D01*
X0053114D01*
X0053114Y-0097797D01*
X0052862Y-0097847D01*
X0052561Y-0097397D01*
X0052647Y-0097268D01*
X0052800Y-0096500D01*
X0052647Y-0095732D01*
X0052212Y-0095081D01*
X0051561Y-0094646D01*
X0050793Y-0094493D01*
D02*
G37*
G36*
X0025900Y-0096693D02*
X0025132Y-0096846D01*
X0024785Y-0097078D01*
X0024400Y-0097246D01*
X0024015Y-0097078D01*
X0023668Y-0096846D01*
X0022900Y-0096693D01*
X0022132Y-0096846D01*
X0021481Y-0097281D01*
X0021046Y-0097932D01*
X0020893Y-0098700D01*
X0021046Y-0099468D01*
X0021481Y-0100119D01*
X0022132Y-0100554D01*
X0022900Y-0100707D01*
X0023668Y-0100554D01*
X0024015Y-0100322D01*
X0024400Y-0100154D01*
X0024785Y-0100322D01*
X0025132Y-0100554D01*
X0025900Y-0100707D01*
X0026668Y-0100554D01*
X0027319Y-0100119D01*
X0027754Y-0099468D01*
X0027907Y-0098700D01*
X0027754Y-0097932D01*
X0027319Y-0097281D01*
X0026668Y-0096846D01*
X0025900Y-0096693D01*
D02*
G37*
G36*
X0077200Y-0087593D02*
X0076432Y-0087746D01*
X0075781Y-0088181D01*
X0075346Y-0088832D01*
X0075193Y-0089600D01*
X0075346Y-0090368D01*
X0075781Y-0091019D01*
X0076432Y-0091454D01*
X0077200Y-0091607D01*
X0077968Y-0091454D01*
X0078619Y-0091019D01*
X0079054Y-0090368D01*
X0079207Y-0089600D01*
X0079054Y-0088832D01*
X0078619Y-0088181D01*
X0077968Y-0087746D01*
X0077200Y-0087593D01*
D02*
G37*
G36*
X0082200D02*
X0081432Y-0087746D01*
X0080781Y-0088181D01*
X0080346Y-0088832D01*
X0080193Y-0089600D01*
X0080346Y-0090368D01*
X0080781Y-0091019D01*
X0081432Y-0091454D01*
X0082200Y-0091607D01*
X0082968Y-0091454D01*
X0083619Y-0091019D01*
X0084054Y-0090368D01*
X0084207Y-0089600D01*
X0084054Y-0088832D01*
X0083619Y-0088181D01*
X0082968Y-0087746D01*
X0082200Y-0087593D01*
D02*
G37*
G36*
X0087200D02*
X0086432Y-0087746D01*
X0085781Y-0088181D01*
X0085346Y-0088832D01*
X0085193Y-0089600D01*
X0085346Y-0090368D01*
X0085781Y-0091019D01*
X0086432Y-0091454D01*
X0087200Y-0091607D01*
X0087968Y-0091454D01*
X0088619Y-0091019D01*
X0089054Y-0090368D01*
X0089207Y-0089600D01*
X0089054Y-0088832D01*
X0088619Y-0088181D01*
X0087968Y-0087746D01*
X0087200Y-0087593D01*
D02*
G37*
G36*
X0108300Y-0088193D02*
X0107532Y-0088346D01*
X0106881Y-0088781D01*
X0106446Y-0089432D01*
X0106293Y-0090200D01*
X0106446Y-0090968D01*
X0106881Y-0091619D01*
X0107532Y-0092054D01*
X0108300Y-0092207D01*
X0109068Y-0092054D01*
X0109719Y-0091619D01*
X0110154Y-0090968D01*
X0110307Y-0090200D01*
X0110154Y-0089432D01*
X0109719Y-0088781D01*
X0109068Y-0088346D01*
X0108300Y-0088193D01*
D02*
G37*
G36*
X0093300Y-0096693D02*
X0092532Y-0096846D01*
X0092185Y-0097078D01*
X0091800Y-0097246D01*
X0091415Y-0097078D01*
X0091068Y-0096846D01*
X0090300Y-0096693D01*
X0089532Y-0096846D01*
X0088881Y-0097281D01*
X0088446Y-0097932D01*
X0088293Y-0098700D01*
X0088446Y-0099468D01*
X0088881Y-0100119D01*
X0089532Y-0100554D01*
X0090300Y-0100707D01*
X0091068Y-0100554D01*
X0091415Y-0100322D01*
X0091800Y-0100154D01*
X0092185Y-0100322D01*
X0092532Y-0100554D01*
X0093300Y-0100707D01*
X0094068Y-0100554D01*
X0094719Y-0100119D01*
X0095154Y-0099468D01*
X0095307Y-0098700D01*
X0095154Y-0097932D01*
X0094719Y-0097281D01*
X0094068Y-0096846D01*
X0093300Y-0096693D01*
D02*
G37*
G36*
X0036500Y-0090493D02*
X0035732Y-0090646D01*
X0035081Y-0091081D01*
X0034646Y-0091732D01*
X0034493Y-0092500D01*
X0034646Y-0093268D01*
X0035081Y-0093919D01*
X0035732Y-0094354D01*
X0036500Y-0094507D01*
X0037268Y-0094354D01*
X0037919Y-0093919D01*
X0038354Y-0093268D01*
X0038507Y-0092500D01*
X0038354Y-0091732D01*
X0037919Y-0091081D01*
X0037268Y-0090646D01*
X0036500Y-0090493D01*
D02*
G37*
G36*
X0025467Y-0090122D02*
X0024699Y-0090275D01*
X0024047Y-0090710D01*
X0023612Y-0091361D01*
X0023460Y-0092129D01*
X0023612Y-0092898D01*
X0024047Y-0093549D01*
X0024699Y-0093984D01*
X0025467Y-0094137D01*
X0026235Y-0093984D01*
X0026886Y-0093549D01*
X0027321Y-0092898D01*
X0027474Y-0092129D01*
X0027321Y-0091361D01*
X0026886Y-0090710D01*
X0026235Y-0090275D01*
X0025467Y-0090122D01*
D02*
G37*
G36*
X0086724Y-0047445D02*
X0085955Y-0047598D01*
X0085304Y-0048033D01*
X0084869Y-0048684D01*
X0084716Y-0049452D01*
X0084869Y-0050220D01*
X0084979Y-0050385D01*
X0084793Y-0051006D01*
X0084381Y-0051281D01*
X0083946Y-0051932D01*
X0083793Y-0052700D01*
X0083946Y-0053468D01*
X0084381Y-0054119D01*
X0085032Y-0054554D01*
X0085255Y-0054599D01*
X0085445Y-0055037D01*
X0085293Y-0055800D01*
X0085446Y-0056568D01*
X0085881Y-0057219D01*
X0086532Y-0057654D01*
X0087300Y-0057807D01*
X0088068Y-0057654D01*
X0088719Y-0057219D01*
X0089154Y-0056568D01*
X0089307Y-0055800D01*
X0089154Y-0055032D01*
X0088719Y-0054381D01*
X0088068Y-0053946D01*
X0087845Y-0053901D01*
X0087655Y-0053463D01*
X0087807Y-0052700D01*
X0087654Y-0051932D01*
X0087544Y-0051767D01*
X0087731Y-0051146D01*
X0088143Y-0050871D01*
X0088578Y-0050220D01*
X0088731Y-0049452D01*
X0088578Y-0048684D01*
X0088143Y-0048033D01*
X0087492Y-0047598D01*
X0086724Y-0047445D01*
D02*
G37*
G36*
X0105800Y-0021584D02*
X0105032Y-0021737D01*
X0104381Y-0022172D01*
X0103946Y-0022823D01*
X0103793Y-0023591D01*
X0103946Y-0024359D01*
X0104381Y-0025010D01*
X0105032Y-0025445D01*
X0105800Y-0025598D01*
X0106568Y-0025445D01*
X0107219Y-0025010D01*
X0107654Y-0024359D01*
X0107807Y-0023591D01*
X0107654Y-0022823D01*
X0107219Y-0022172D01*
X0106568Y-0021737D01*
X0105800Y-0021584D01*
D02*
G37*
G36*
X0053330Y-0023393D02*
X0052562Y-0023546D01*
X0051911Y-0023981D01*
X0051707Y-0024286D01*
X0051219Y-0024456D01*
X0050568Y-0024021D01*
X0049800Y-0023868D01*
X0049032Y-0024021D01*
X0048381Y-0024456D01*
X0047945Y-0025107D01*
X0047793Y-0025875D01*
X0047945Y-0026643D01*
X0048381Y-0027294D01*
X0049032Y-0027729D01*
X0049800Y-0027882D01*
X0050568Y-0027729D01*
X0051219Y-0027294D01*
X0051423Y-0026989D01*
X0051911Y-0026819D01*
X0052562Y-0027254D01*
X0053330Y-0027407D01*
X0054098Y-0027254D01*
X0054749Y-0026819D01*
X0055184Y-0026168D01*
X0055337Y-0025400D01*
X0055184Y-0024632D01*
X0054749Y-0023981D01*
X0054098Y-0023546D01*
X0053330Y-0023393D01*
D02*
G37*
G36*
X0093400Y-0015993D02*
X0092632Y-0016146D01*
X0091981Y-0016581D01*
X0091819D01*
X0091168Y-0016146D01*
X0090400Y-0015993D01*
X0089632Y-0016146D01*
X0088981Y-0016581D01*
X0088546Y-0017232D01*
X0088393Y-0018000D01*
X0088546Y-0018768D01*
X0088981Y-0019419D01*
X0089632Y-0019854D01*
X0090400Y-0020007D01*
X0091168Y-0019854D01*
X0091819Y-0019419D01*
X0091981D01*
X0092632Y-0019854D01*
X0093400Y-0020007D01*
X0094168Y-0019854D01*
X0094819Y-0019419D01*
X0095254Y-0018768D01*
X0095407Y-0018000D01*
X0095254Y-0017232D01*
X0094819Y-0016581D01*
X0094168Y-0016146D01*
X0093400Y-0015993D01*
D02*
G37*
G36*
X0069500Y-0024593D02*
X0068732Y-0024746D01*
X0068081Y-0025181D01*
X0067646Y-0025832D01*
X0067493Y-0026600D01*
X0067042Y-0026895D01*
X0066668Y-0026646D01*
X0065900Y-0026493D01*
X0065132Y-0026646D01*
X0064481Y-0027081D01*
X0064046Y-0027732D01*
X0063893Y-0028500D01*
X0064046Y-0029268D01*
X0064481Y-0029919D01*
X0065132Y-0030354D01*
X0065900Y-0030507D01*
X0066668Y-0030354D01*
X0067319Y-0029919D01*
X0067754Y-0029268D01*
X0067907Y-0028500D01*
X0068358Y-0028205D01*
X0068732Y-0028454D01*
X0069500Y-0028607D01*
X0070268Y-0028454D01*
X0070919Y-0028019D01*
X0071354Y-0027368D01*
X0071507Y-0026600D01*
X0071354Y-0025832D01*
X0070919Y-0025181D01*
X0070268Y-0024746D01*
X0069500Y-0024593D01*
D02*
G37*
G36*
X0008442Y-0025591D02*
X0007674Y-0025743D01*
X0007023Y-0026178D01*
X0006587Y-0026830D01*
X0006435Y-0027598D01*
X0006587Y-0028366D01*
X0007023Y-0029017D01*
X0007674Y-0029452D01*
X0008442Y-0029605D01*
X0009210Y-0029452D01*
X0009861Y-0029017D01*
X0010296Y-0028366D01*
X0010449Y-0027598D01*
X0010296Y-0026830D01*
X0009861Y-0026178D01*
X0009210Y-0025743D01*
X0008442Y-0025591D01*
D02*
G37*
G36*
X0110857Y-0024193D02*
X0110089Y-0024346D01*
X0109438Y-0024781D01*
X0109003Y-0025432D01*
X0108850Y-0026200D01*
X0109003Y-0026968D01*
X0109438Y-0027619D01*
X0110089Y-0028054D01*
X0110857Y-0028207D01*
X0111626Y-0028054D01*
X0112277Y-0027619D01*
X0112712Y-0026968D01*
X0112865Y-0026200D01*
X0112712Y-0025432D01*
X0112277Y-0024781D01*
X0111626Y-0024346D01*
X0110857Y-0024193D01*
D02*
G37*
G36*
X0032464Y-0023493D02*
X0031696Y-0023645D01*
X0031045Y-0024080D01*
X0030610Y-0024732D01*
X0030457Y-0025500D01*
X0030610Y-0026268D01*
X0031045Y-0026919D01*
X0031696Y-0027354D01*
X0032464Y-0027507D01*
X0033232Y-0027354D01*
X0033884Y-0026919D01*
X0034319Y-0026268D01*
X0034471Y-0025500D01*
X0034319Y-0024732D01*
X0033884Y-0024080D01*
X0033232Y-0023645D01*
X0032464Y-0023493D01*
D02*
G37*
G36*
X0025900Y-0015993D02*
X0025132Y-0016146D01*
X0024481Y-0016581D01*
X0024319D01*
X0023668Y-0016146D01*
X0022900Y-0015993D01*
X0022132Y-0016146D01*
X0021481Y-0016581D01*
X0021046Y-0017232D01*
X0020893Y-0018000D01*
X0021046Y-0018768D01*
X0021481Y-0019419D01*
X0022132Y-0019854D01*
X0022900Y-0020007D01*
X0023668Y-0019854D01*
X0024319Y-0019419D01*
X0024481D01*
X0025132Y-0019854D01*
X0025900Y-0020007D01*
X0026668Y-0019854D01*
X0027319Y-0019419D01*
X0027754Y-0018768D01*
X0027907Y-0018000D01*
X0027754Y-0017232D01*
X0027319Y-0016581D01*
X0026668Y-0016146D01*
X0025900Y-0015993D01*
D02*
G37*
G36*
X0078271Y-0014628D02*
X0078193Y-0014643D01*
X0078114D01*
X0078114Y-0014643D01*
X0077577Y-0014750D01*
X0077577D01*
X0077504Y-0014780D01*
X0077426Y-0014796D01*
X0077360Y-0014840D01*
X0077287Y-0014870D01*
X0077287Y-0014870D01*
X0076831Y-0015174D01*
X0076831Y-0015174D01*
X0076775Y-0015230D01*
X0076710Y-0015274D01*
X0076666Y-0015340D01*
X0076610Y-0015396D01*
X0076305Y-0015852D01*
X0076305Y-0015852D01*
X0076275Y-0015925D01*
X0076231Y-0015991D01*
X0076216Y-0016068D01*
X0076186Y-0016141D01*
Y-0016141D01*
X0076078Y-0016679D01*
X0076078Y-0016679D01*
Y-0016758D01*
X0076063Y-0016835D01*
X0076078Y-0016913D01*
Y-0016992D01*
X0076078Y-0016992D01*
X0076186Y-0017530D01*
Y-0017530D01*
X0076216Y-0017603D01*
X0076231Y-0017680D01*
X0076275Y-0017746D01*
X0076305Y-0017819D01*
X0076305Y-0017819D01*
X0076610Y-0018275D01*
X0076610Y-0018275D01*
X0076666Y-0018331D01*
X0076710Y-0018397D01*
X0076775Y-0018440D01*
X0076831Y-0018496D01*
X0077287Y-0018801D01*
X0077287Y-0018801D01*
X0077360Y-0018831D01*
X0077426Y-0018875D01*
X0077504Y-0018891D01*
X0077577Y-0018921D01*
X0077577D01*
X0078114Y-0019028D01*
X0078114Y-0019028D01*
X0078193D01*
X0078271Y-0019043D01*
X0078348Y-0019028D01*
X0078427D01*
X0078427Y-0019028D01*
X0078965Y-0018921D01*
X0078965D01*
X0079038Y-0018891D01*
X0079116Y-0018875D01*
X0079181Y-0018831D01*
X0079255Y-0018801D01*
X0079255Y-0018801D01*
X0079710Y-0018496D01*
X0079710Y-0018496D01*
X0079766Y-0018440D01*
X0079832Y-0018397D01*
X0079876Y-0018331D01*
X0079932Y-0018275D01*
X0080236Y-0017819D01*
X0080236Y-0017819D01*
X0080267Y-0017746D01*
X0080311Y-0017680D01*
X0080326Y-0017603D01*
X0080356Y-0017530D01*
Y-0017530D01*
X0080463Y-0016992D01*
X0080463Y-0016992D01*
Y-0016913D01*
X0080479Y-0016835D01*
X0080463Y-0016758D01*
Y-0016679D01*
X0080463Y-0016679D01*
X0080356Y-0016141D01*
Y-0016141D01*
X0080326Y-0016068D01*
X0080311Y-0015991D01*
X0080267Y-0015925D01*
X0080236Y-0015852D01*
X0080236Y-0015852D01*
X0079932Y-0015396D01*
X0079932Y-0015396D01*
X0079876Y-0015340D01*
X0079832Y-0015274D01*
X0079766Y-0015230D01*
X0079710Y-0015175D01*
X0079255Y-0014870D01*
X0079255Y-0014870D01*
X0079181Y-0014840D01*
X0079116Y-0014796D01*
X0079038Y-0014780D01*
X0078965Y-0014750D01*
X0078965D01*
X0078427Y-0014643D01*
X0078427Y-0014643D01*
X0078348D01*
X0078271Y-0014628D01*
D02*
G37*
G36*
X0083125Y-0009793D02*
X0082357Y-0009946D01*
X0081705Y-0010381D01*
X0081270Y-0011032D01*
X0081117Y-0011800D01*
X0081270Y-0012568D01*
X0081705Y-0013219D01*
X0082357Y-0013654D01*
X0083125Y-0013807D01*
X0083893Y-0013654D01*
X0084544Y-0013219D01*
X0084979Y-0012568D01*
X0085132Y-0011800D01*
X0084979Y-0011032D01*
X0084544Y-0010381D01*
X0083893Y-0009946D01*
X0083125Y-0009793D01*
D02*
G37*
G36*
X0031500Y-0003193D02*
X0030732Y-0003346D01*
X0030081Y-0003781D01*
X0029646Y-0004432D01*
X0029493Y-0005200D01*
X0029646Y-0005968D01*
X0030081Y-0006619D01*
X0030732Y-0007054D01*
X0031500Y-0007207D01*
X0032268Y-0007054D01*
X0032919Y-0006619D01*
X0033354Y-0005968D01*
X0033507Y-0005200D01*
X0033354Y-0004432D01*
X0032919Y-0003781D01*
X0032268Y-0003346D01*
X0031500Y-0003193D01*
D02*
G37*
G36*
X0073271Y-0014628D02*
X0073193Y-0014643D01*
X0073114D01*
X0073114Y-0014643D01*
X0072577Y-0014750D01*
X0072577D01*
X0072504Y-0014780D01*
X0072426Y-0014796D01*
X0072360Y-0014840D01*
X0072287Y-0014870D01*
X0072287Y-0014870D01*
X0071831Y-0015174D01*
X0071831Y-0015174D01*
X0071775Y-0015230D01*
X0071710Y-0015274D01*
X0071666Y-0015340D01*
X0071610Y-0015396D01*
X0071305Y-0015852D01*
X0071305Y-0015852D01*
X0071275Y-0015925D01*
X0071231Y-0015991D01*
X0071216Y-0016068D01*
X0071185Y-0016141D01*
Y-0016141D01*
X0071078Y-0016679D01*
X0071078Y-0016679D01*
Y-0016758D01*
X0071063Y-0016835D01*
X0071078Y-0016913D01*
Y-0016992D01*
X0071078Y-0016992D01*
X0071185Y-0017530D01*
Y-0017530D01*
X0071216Y-0017603D01*
X0071231Y-0017680D01*
X0071275Y-0017746D01*
X0071305Y-0017819D01*
X0071305Y-0017819D01*
X0071610Y-0018275D01*
X0071610Y-0018275D01*
X0071666Y-0018331D01*
X0071710Y-0018397D01*
X0071775Y-0018440D01*
X0071831Y-0018496D01*
X0072287Y-0018801D01*
X0072287Y-0018801D01*
X0072360Y-0018831D01*
X0072426Y-0018875D01*
X0072504Y-0018891D01*
X0072577Y-0018921D01*
X0072577D01*
X0073114Y-0019028D01*
X0073114Y-0019028D01*
X0073193D01*
X0073271Y-0019043D01*
X0073348Y-0019028D01*
X0073427D01*
X0073427Y-0019028D01*
X0073965Y-0018921D01*
X0073965D01*
X0074038Y-0018891D01*
X0074116Y-0018875D01*
X0074181Y-0018831D01*
X0074255Y-0018801D01*
X0074255Y-0018801D01*
X0074710Y-0018496D01*
X0074710Y-0018496D01*
X0074766Y-0018440D01*
X0074832Y-0018397D01*
X0074876Y-0018331D01*
X0074932Y-0018275D01*
X0075236Y-0017819D01*
X0075236Y-0017819D01*
X0075267Y-0017746D01*
X0075311Y-0017680D01*
X0075326Y-0017603D01*
X0075356Y-0017530D01*
Y-0017530D01*
X0075463Y-0016992D01*
X0075463Y-0016992D01*
Y-0016913D01*
X0075479Y-0016835D01*
X0075463Y-0016758D01*
Y-0016679D01*
X0075463Y-0016679D01*
X0075356Y-0016141D01*
Y-0016141D01*
X0075326Y-0016068D01*
X0075311Y-0015991D01*
X0075267Y-0015925D01*
X0075236Y-0015852D01*
X0075236Y-0015852D01*
X0074932Y-0015396D01*
X0074932Y-0015396D01*
X0074876Y-0015340D01*
X0074832Y-0015274D01*
X0074766Y-0015230D01*
X0074710Y-0015175D01*
X0074255Y-0014870D01*
X0074255Y-0014870D01*
X0074181Y-0014840D01*
X0074116Y-0014796D01*
X0074038Y-0014780D01*
X0073965Y-0014750D01*
X0073965D01*
X0073427Y-0014643D01*
X0073427Y-0014643D01*
X0073348D01*
X0073271Y-0014628D01*
D02*
G37*
G36*
X0038271D02*
X0038193Y-0014643D01*
X0038114D01*
X0038114Y-0014643D01*
X0037577Y-0014750D01*
X0037577D01*
X0037503Y-0014780D01*
X0037426Y-0014796D01*
X0037360Y-0014840D01*
X0037287Y-0014870D01*
X0037287Y-0014870D01*
X0036831Y-0015174D01*
X0036831Y-0015174D01*
X0036775Y-0015230D01*
X0036710Y-0015274D01*
X0036666Y-0015340D01*
X0036610Y-0015396D01*
X0036305Y-0015852D01*
X0036305Y-0015852D01*
X0036275Y-0015925D01*
X0036231Y-0015991D01*
X0036216Y-0016068D01*
X0036186Y-0016141D01*
Y-0016141D01*
X0036079Y-0016679D01*
X0036079Y-0016679D01*
Y-0016758D01*
X0036063Y-0016835D01*
X0036079Y-0016913D01*
Y-0016992D01*
X0036079Y-0016992D01*
X0036186Y-0017530D01*
Y-0017530D01*
X0036216Y-0017603D01*
X0036231Y-0017680D01*
X0036275Y-0017746D01*
X0036305Y-0017819D01*
X0036305Y-0017819D01*
X0036610Y-0018275D01*
X0036610Y-0018275D01*
X0036666Y-0018331D01*
X0036710Y-0018397D01*
X0036775Y-0018440D01*
X0036831Y-0018496D01*
X0037287Y-0018801D01*
X0037287Y-0018801D01*
X0037360Y-0018831D01*
X0037426Y-0018875D01*
X0037503Y-0018891D01*
X0037577Y-0018921D01*
X0037577D01*
X0038114Y-0019028D01*
X0038114Y-0019028D01*
X0038193D01*
X0038271Y-0019043D01*
X0038348Y-0019028D01*
X0038427D01*
X0038427Y-0019028D01*
X0038965Y-0018921D01*
X0038965D01*
X0039038Y-0018891D01*
X0039116Y-0018875D01*
X0039182Y-0018831D01*
X0039255Y-0018801D01*
X0039255Y-0018801D01*
X0039710Y-0018496D01*
X0039710Y-0018496D01*
X0039766Y-0018440D01*
X0039832Y-0018397D01*
X0039876Y-0018331D01*
X0039932Y-0018275D01*
X0040236Y-0017819D01*
X0040236Y-0017819D01*
X0040267Y-0017746D01*
X0040311Y-0017680D01*
X0040326Y-0017603D01*
X0040356Y-0017530D01*
Y-0017530D01*
X0040463Y-0016992D01*
X0040463Y-0016992D01*
Y-0016913D01*
X0040479Y-0016835D01*
X0040463Y-0016758D01*
Y-0016679D01*
X0040463Y-0016679D01*
X0040356Y-0016141D01*
Y-0016141D01*
X0040326Y-0016068D01*
X0040311Y-0015991D01*
X0040267Y-0015925D01*
X0040236Y-0015852D01*
X0040236Y-0015852D01*
X0039932Y-0015396D01*
X0039932Y-0015396D01*
X0039876Y-0015340D01*
X0039832Y-0015274D01*
X0039766Y-0015230D01*
X0039710Y-0015175D01*
X0039255Y-0014870D01*
X0039255Y-0014870D01*
X0039182Y-0014840D01*
X0039116Y-0014796D01*
X0039038Y-0014780D01*
X0038965Y-0014750D01*
X0038965D01*
X0038427Y-0014643D01*
X0038427Y-0014643D01*
X0038348D01*
X0038271Y-0014628D01*
D02*
G37*
G36*
X0048271D02*
X0048193Y-0014643D01*
X0048114D01*
X0048114Y-0014643D01*
X0047577Y-0014750D01*
X0047577D01*
X0047504Y-0014780D01*
X0047426Y-0014796D01*
X0047360Y-0014840D01*
X0047287Y-0014870D01*
X0047287Y-0014870D01*
X0046831Y-0015174D01*
X0046831Y-0015174D01*
X0046775Y-0015230D01*
X0046710Y-0015274D01*
X0046666Y-0015340D01*
X0046610Y-0015396D01*
X0046305Y-0015852D01*
X0046305Y-0015852D01*
X0046275Y-0015925D01*
X0046231Y-0015991D01*
X0046216Y-0016068D01*
X0046185Y-0016141D01*
Y-0016141D01*
X0046079Y-0016679D01*
X0045722Y-0016770D01*
X0045454Y-0016635D01*
X0045356Y-0016141D01*
Y-0016141D01*
X0045326Y-0016068D01*
X0045311Y-0015991D01*
X0045267Y-0015925D01*
X0045236Y-0015852D01*
X0045236Y-0015852D01*
X0044932Y-0015396D01*
X0044932Y-0015396D01*
X0044876Y-0015340D01*
X0044832Y-0015274D01*
X0044766Y-0015230D01*
X0044710Y-0015175D01*
X0044255Y-0014870D01*
X0044255Y-0014870D01*
X0044181Y-0014840D01*
X0044116Y-0014796D01*
X0044038Y-0014780D01*
X0043965Y-0014750D01*
X0043965D01*
X0043428Y-0014643D01*
X0043428Y-0014643D01*
X0043348D01*
X0043271Y-0014628D01*
X0043193Y-0014643D01*
X0043114D01*
X0043114Y-0014643D01*
X0042577Y-0014750D01*
X0042577D01*
X0042503Y-0014780D01*
X0042426Y-0014796D01*
X0042360Y-0014840D01*
X0042287Y-0014870D01*
X0042287Y-0014870D01*
X0041831Y-0015174D01*
X0041831Y-0015174D01*
X0041775Y-0015230D01*
X0041710Y-0015274D01*
X0041666Y-0015340D01*
X0041610Y-0015396D01*
X0041305Y-0015852D01*
X0041305Y-0015852D01*
X0041275Y-0015925D01*
X0041231Y-0015991D01*
X0041216Y-0016068D01*
X0041186Y-0016141D01*
Y-0016141D01*
X0041078Y-0016679D01*
X0041078Y-0016679D01*
Y-0016758D01*
X0041063Y-0016835D01*
X0041078Y-0016913D01*
Y-0016992D01*
X0041078Y-0016992D01*
X0041186Y-0017530D01*
Y-0017530D01*
X0041216Y-0017603D01*
X0041231Y-0017680D01*
X0041275Y-0017746D01*
X0041305Y-0017819D01*
X0041305Y-0017819D01*
X0041610Y-0018275D01*
X0041610Y-0018275D01*
X0041666Y-0018331D01*
X0041710Y-0018397D01*
X0041775Y-0018440D01*
X0041831Y-0018496D01*
X0042287Y-0018801D01*
X0042287Y-0018801D01*
X0042360Y-0018831D01*
X0042426Y-0018875D01*
X0042503Y-0018891D01*
X0042577Y-0018921D01*
X0042577D01*
X0043114Y-0019028D01*
X0043114Y-0019028D01*
X0043193D01*
X0043271Y-0019043D01*
X0043424Y-0019105D01*
X0043560Y-0019189D01*
X0043788Y-0019466D01*
X0043894Y-0020002D01*
X0044330Y-0020653D01*
X0044981Y-0021089D01*
X0045749Y-0021241D01*
X0046517Y-0021089D01*
X0047168Y-0020653D01*
X0047603Y-0020002D01*
X0047712Y-0019457D01*
X0048052Y-0019095D01*
X0048193Y-0019028D01*
X0048271Y-0019043D01*
X0048348Y-0019028D01*
X0048428D01*
X0048428Y-0019028D01*
X0048965Y-0018921D01*
X0048965D01*
X0049038Y-0018891D01*
X0049116Y-0018875D01*
X0049182Y-0018831D01*
X0049255Y-0018801D01*
X0049255Y-0018801D01*
X0049710Y-0018496D01*
X0049710Y-0018496D01*
X0049766Y-0018440D01*
X0049832Y-0018397D01*
X0049876Y-0018331D01*
X0049932Y-0018275D01*
X0050236Y-0017819D01*
X0050236Y-0017819D01*
X0050267Y-0017746D01*
X0050311Y-0017680D01*
X0050326Y-0017603D01*
X0050356Y-0017530D01*
Y-0017530D01*
X0050463Y-0016992D01*
X0050463Y-0016992D01*
Y-0016913D01*
X0050479Y-0016835D01*
X0050463Y-0016758D01*
Y-0016679D01*
X0050463Y-0016679D01*
X0050356Y-0016141D01*
Y-0016141D01*
X0050326Y-0016068D01*
X0050311Y-0015991D01*
X0050267Y-0015925D01*
X0050236Y-0015852D01*
X0050236Y-0015852D01*
X0049932Y-0015396D01*
X0049932Y-0015396D01*
X0049876Y-0015340D01*
X0049832Y-0015274D01*
X0049766Y-0015230D01*
X0049710Y-0015175D01*
X0049255Y-0014870D01*
X0049255Y-0014870D01*
X0049182Y-0014840D01*
X0049116Y-0014796D01*
X0049038Y-0014780D01*
X0048965Y-0014750D01*
X0048965D01*
X0048428Y-0014643D01*
X0048428Y-0014643D01*
X0048348D01*
X0048271Y-0014628D01*
D02*
G37*
G36*
X0068271D02*
X0068193Y-0014643D01*
X0068114D01*
X0068114Y-0014643D01*
X0067577Y-0014750D01*
X0067577D01*
X0067503Y-0014780D01*
X0067426Y-0014796D01*
X0067360Y-0014840D01*
X0067287Y-0014870D01*
X0067287Y-0014870D01*
X0066831Y-0015174D01*
X0066831Y-0015174D01*
X0066775Y-0015230D01*
X0066710Y-0015274D01*
X0066666Y-0015340D01*
X0066610Y-0015396D01*
X0066305Y-0015852D01*
X0066305Y-0015852D01*
X0066275Y-0015925D01*
X0066231Y-0015991D01*
X0066216Y-0016068D01*
X0066185Y-0016141D01*
Y-0016141D01*
X0066079Y-0016679D01*
X0065704Y-0016815D01*
X0065467Y-0016777D01*
X0065463Y-0016758D01*
Y-0016679D01*
X0065463Y-0016679D01*
X0065356Y-0016141D01*
Y-0016141D01*
X0065326Y-0016068D01*
X0065311Y-0015991D01*
X0065267Y-0015925D01*
X0065236Y-0015852D01*
X0065236Y-0015852D01*
X0064932Y-0015396D01*
X0064932Y-0015396D01*
X0064876Y-0015340D01*
X0064832Y-0015274D01*
X0064766Y-0015230D01*
X0064710Y-0015175D01*
X0064255Y-0014870D01*
X0064254Y-0014870D01*
X0064182Y-0014840D01*
X0064116Y-0014796D01*
X0064038Y-0014780D01*
X0063965Y-0014750D01*
X0063965D01*
X0063428Y-0014643D01*
X0063428Y-0014643D01*
X0063348D01*
X0063271Y-0014628D01*
X0063193Y-0014643D01*
X0063114D01*
X0063114Y-0014643D01*
X0062577Y-0014750D01*
X0062577D01*
X0062503Y-0014780D01*
X0062426Y-0014796D01*
X0062360Y-0014840D01*
X0062287Y-0014870D01*
X0062287Y-0014870D01*
X0061831Y-0015174D01*
X0061831Y-0015174D01*
X0061775Y-0015230D01*
X0061710Y-0015274D01*
X0061666Y-0015340D01*
X0061610Y-0015396D01*
X0061305Y-0015852D01*
X0061305Y-0015852D01*
X0061275Y-0015925D01*
X0061231Y-0015991D01*
X0061216Y-0016068D01*
X0061185Y-0016141D01*
Y-0016141D01*
X0061087Y-0016635D01*
X0060820Y-0016770D01*
X0060463Y-0016679D01*
X0060356Y-0016141D01*
Y-0016141D01*
X0060326Y-0016068D01*
X0060311Y-0015991D01*
X0060267Y-0015925D01*
X0060236Y-0015852D01*
X0060236Y-0015852D01*
X0059932Y-0015396D01*
X0059932Y-0015396D01*
X0059876Y-0015340D01*
X0059832Y-0015274D01*
X0059766Y-0015230D01*
X0059710Y-0015175D01*
X0059255Y-0014870D01*
X0059254Y-0014870D01*
X0059181Y-0014840D01*
X0059116Y-0014796D01*
X0059038Y-0014780D01*
X0058965Y-0014750D01*
X0058965D01*
X0058428Y-0014643D01*
X0058428Y-0014643D01*
X0058348D01*
X0058271Y-0014628D01*
X0058193Y-0014643D01*
X0058114D01*
X0058114Y-0014643D01*
X0057577Y-0014750D01*
X0057577D01*
X0057503Y-0014780D01*
X0057426Y-0014796D01*
X0057360Y-0014840D01*
X0057287Y-0014870D01*
X0057287Y-0014870D01*
X0056831Y-0015174D01*
X0056831Y-0015174D01*
X0056775Y-0015230D01*
X0056710Y-0015274D01*
X0056666Y-0015340D01*
X0056610Y-0015396D01*
X0056305Y-0015852D01*
X0056305Y-0015852D01*
X0056275Y-0015925D01*
X0056231Y-0015991D01*
X0056216Y-0016068D01*
X0056186Y-0016141D01*
Y-0016141D01*
X0056078Y-0016679D01*
X0055722Y-0016770D01*
X0055454Y-0016635D01*
X0055356Y-0016141D01*
Y-0016141D01*
X0055326Y-0016068D01*
X0055311Y-0015991D01*
X0055267Y-0015925D01*
X0055236Y-0015852D01*
X0055236Y-0015852D01*
X0054932Y-0015396D01*
X0054932Y-0015396D01*
X0054876Y-0015340D01*
X0054832Y-0015274D01*
X0054766Y-0015230D01*
X0054710Y-0015175D01*
X0054255Y-0014870D01*
X0054255Y-0014870D01*
X0054181Y-0014840D01*
X0054116Y-0014796D01*
X0054038Y-0014780D01*
X0053965Y-0014750D01*
X0053965D01*
X0053427Y-0014643D01*
X0053427Y-0014643D01*
X0053348D01*
X0053271Y-0014628D01*
X0053193Y-0014643D01*
X0053114D01*
X0053114Y-0014643D01*
X0052577Y-0014750D01*
X0052577D01*
X0052504Y-0014780D01*
X0052426Y-0014796D01*
X0052360Y-0014840D01*
X0052287Y-0014870D01*
X0052287Y-0014870D01*
X0051831Y-0015174D01*
X0051831Y-0015174D01*
X0051775Y-0015230D01*
X0051710Y-0015274D01*
X0051666Y-0015340D01*
X0051610Y-0015396D01*
X0051305Y-0015852D01*
X0051305Y-0015852D01*
X0051275Y-0015925D01*
X0051231Y-0015991D01*
X0051216Y-0016068D01*
X0051186Y-0016141D01*
Y-0016141D01*
X0051078Y-0016679D01*
X0051078Y-0016679D01*
Y-0016758D01*
X0051063Y-0016835D01*
X0051078Y-0016913D01*
Y-0016992D01*
X0051078Y-0016992D01*
X0051186Y-0017530D01*
Y-0017530D01*
X0051216Y-0017603D01*
X0051231Y-0017680D01*
X0051275Y-0017746D01*
X0051305Y-0017819D01*
X0051305Y-0017819D01*
X0051610Y-0018275D01*
X0051610Y-0018275D01*
X0051666Y-0018331D01*
X0051710Y-0018397D01*
X0051775Y-0018440D01*
X0051831Y-0018496D01*
X0052287Y-0018801D01*
X0052287Y-0018801D01*
X0052360Y-0018831D01*
X0052426Y-0018875D01*
X0052504Y-0018891D01*
X0052577Y-0018921D01*
X0052577D01*
X0053114Y-0019028D01*
X0053114Y-0019028D01*
X0053193D01*
X0053271Y-0019043D01*
X0053424Y-0019105D01*
X0053560Y-0019189D01*
X0053788Y-0019466D01*
X0053895Y-0020002D01*
X0054330Y-0020653D01*
X0054981Y-0021089D01*
X0055749Y-0021241D01*
X0056517Y-0021089D01*
X0057168Y-0020653D01*
X0057603Y-0020002D01*
X0057711Y-0019457D01*
X0058012Y-0019137D01*
X0058529Y-0019137D01*
X0058830Y-0019457D01*
X0058939Y-0020002D01*
X0059374Y-0020653D01*
X0060025Y-0021089D01*
X0060793Y-0021241D01*
X0061561Y-0021089D01*
X0062212Y-0020653D01*
X0062647Y-0020002D01*
X0062754Y-0019466D01*
X0062981Y-0019189D01*
X0063118Y-0019105D01*
X0063271Y-0019043D01*
X0063348Y-0019028D01*
X0063505Y-0019112D01*
X0063825Y-0019459D01*
X0063939Y-0020031D01*
X0064374Y-0020682D01*
X0065025Y-0021117D01*
X0065793Y-0021270D01*
X0066561Y-0021117D01*
X0067212Y-0020682D01*
X0067647Y-0020031D01*
X0067759Y-0019467D01*
X0067984Y-0019189D01*
X0068064Y-0019138D01*
X0068266Y-0019042D01*
X0068271Y-0019043D01*
X0068348Y-0019028D01*
X0068427D01*
X0068427Y-0019028D01*
X0068965Y-0018921D01*
X0068965D01*
X0069038Y-0018891D01*
X0069116Y-0018875D01*
X0069182Y-0018831D01*
X0069254Y-0018801D01*
X0069255Y-0018801D01*
X0069710Y-0018496D01*
X0069710Y-0018496D01*
X0069766Y-0018440D01*
X0069832Y-0018397D01*
X0069876Y-0018331D01*
X0069932Y-0018275D01*
X0070236Y-0017819D01*
X0070236Y-0017819D01*
X0070267Y-0017746D01*
X0070311Y-0017680D01*
X0070326Y-0017603D01*
X0070356Y-0017530D01*
Y-0017530D01*
X0070463Y-0016992D01*
X0070463Y-0016992D01*
Y-0016913D01*
X0070479Y-0016835D01*
X0070463Y-0016758D01*
Y-0016679D01*
X0070463Y-0016679D01*
X0070356Y-0016141D01*
Y-0016141D01*
X0070326Y-0016068D01*
X0070311Y-0015991D01*
X0070267Y-0015925D01*
X0070236Y-0015852D01*
X0070236Y-0015852D01*
X0069932Y-0015396D01*
X0069932Y-0015396D01*
X0069876Y-0015340D01*
X0069832Y-0015274D01*
X0069766Y-0015230D01*
X0069710Y-0015175D01*
X0069255Y-0014870D01*
X0069254Y-0014870D01*
X0069182Y-0014840D01*
X0069116Y-0014796D01*
X0069038Y-0014780D01*
X0068965Y-0014750D01*
X0068965D01*
X0068427Y-0014643D01*
X0068427Y-0014643D01*
X0068348D01*
X0068271Y-0014628D01*
D02*
G37*
G36*
X0079800Y-0039499D02*
X0079032Y-0039652D01*
X0078381Y-0040087D01*
X0077946Y-0040738D01*
X0077793Y-0041506D01*
X0077946Y-0042274D01*
X0078299Y-0042803D01*
X0077946Y-0043332D01*
X0077793Y-0044100D01*
X0077946Y-0044868D01*
X0078381Y-0045519D01*
X0079032Y-0045954D01*
X0079800Y-0046107D01*
X0080568Y-0045954D01*
X0081219Y-0045519D01*
X0081654Y-0044868D01*
X0081807Y-0044100D01*
X0081654Y-0043332D01*
X0081301Y-0042803D01*
X0081654Y-0042274D01*
X0081807Y-0041506D01*
X0081654Y-0040738D01*
X0081219Y-0040087D01*
X0080568Y-0039652D01*
X0079800Y-0039499D01*
D02*
G37*
G36*
X0035700Y-0043420D02*
X0035006Y-0043511D01*
X0034360Y-0043779D01*
X0033805Y-0044205D01*
X0033379Y-0044760D01*
X0033323Y-0044895D01*
X0033258Y-0044941D01*
X0032719Y-0045047D01*
X0032268Y-0044746D01*
X0031500Y-0044593D01*
X0030732Y-0044746D01*
X0030081Y-0045181D01*
X0029646Y-0045832D01*
X0029493Y-0046600D01*
X0029646Y-0047368D01*
X0030081Y-0048019D01*
X0030732Y-0048454D01*
X0031500Y-0048607D01*
X0032268Y-0048454D01*
X0032919Y-0048019D01*
X0033046Y-0047829D01*
X0033661Y-0047809D01*
X0033805Y-0047995D01*
X0034204Y-0048302D01*
X0034243Y-0048421D01*
Y-0048779D01*
X0034204Y-0048898D01*
X0033805Y-0049205D01*
X0033379Y-0049760D01*
X0033111Y-0050406D01*
X0033020Y-0051100D01*
X0033111Y-0051794D01*
X0033379Y-0052440D01*
X0033805Y-0052995D01*
X0034204Y-0053302D01*
X0034243Y-0053421D01*
Y-0053779D01*
X0034204Y-0053898D01*
X0033805Y-0054205D01*
X0033379Y-0054760D01*
X0033111Y-0055406D01*
X0033020Y-0056100D01*
X0033111Y-0056794D01*
X0033379Y-0057440D01*
X0033805Y-0057995D01*
X0034204Y-0058302D01*
X0034243Y-0058421D01*
Y-0058779D01*
X0034204Y-0058898D01*
X0033805Y-0059205D01*
X0033379Y-0059760D01*
X0033111Y-0060406D01*
X0033020Y-0061100D01*
X0033111Y-0061794D01*
X0033379Y-0062440D01*
X0033805Y-0062995D01*
X0034204Y-0063302D01*
X0034243Y-0063421D01*
Y-0063779D01*
X0034204Y-0063898D01*
X0033805Y-0064205D01*
X0033379Y-0064760D01*
X0033111Y-0065406D01*
X0033020Y-0066100D01*
X0033111Y-0066794D01*
X0033379Y-0067440D01*
X0033805Y-0067995D01*
X0034204Y-0068302D01*
X0034243Y-0068421D01*
Y-0068779D01*
X0034204Y-0068898D01*
X0033805Y-0069205D01*
X0033379Y-0069760D01*
X0033111Y-0070406D01*
X0033020Y-0071100D01*
X0033111Y-0071794D01*
X0033379Y-0072440D01*
X0033805Y-0072995D01*
X0034360Y-0073421D01*
X0035006Y-0073689D01*
X0035700Y-0073780D01*
X0036394Y-0073689D01*
X0037040Y-0073421D01*
X0037595Y-0072995D01*
X0038021Y-0072440D01*
X0038289Y-0071794D01*
X0038380Y-0071100D01*
X0038289Y-0070406D01*
X0038021Y-0069760D01*
X0037595Y-0069205D01*
X0037196Y-0068898D01*
X0037157Y-0068779D01*
Y-0068421D01*
X0037196Y-0068302D01*
X0037595Y-0067995D01*
X0038021Y-0067440D01*
X0038289Y-0066794D01*
X0038380Y-0066100D01*
X0038289Y-0065406D01*
X0038021Y-0064760D01*
X0037595Y-0064205D01*
X0037196Y-0063898D01*
X0037157Y-0063779D01*
Y-0063421D01*
X0037196Y-0063302D01*
X0037595Y-0062995D01*
X0038021Y-0062440D01*
X0038289Y-0061794D01*
X0038380Y-0061100D01*
X0038289Y-0060406D01*
X0038021Y-0059760D01*
X0037595Y-0059205D01*
X0037196Y-0058898D01*
X0037157Y-0058779D01*
Y-0058421D01*
X0037196Y-0058302D01*
X0037595Y-0057995D01*
X0038021Y-0057440D01*
X0038289Y-0056794D01*
X0038380Y-0056100D01*
X0038289Y-0055406D01*
X0038021Y-0054760D01*
X0037595Y-0054205D01*
X0037196Y-0053898D01*
X0037157Y-0053779D01*
Y-0053421D01*
X0037196Y-0053302D01*
X0037595Y-0052995D01*
X0038021Y-0052440D01*
X0038289Y-0051794D01*
X0038380Y-0051100D01*
X0038289Y-0050406D01*
X0038021Y-0049760D01*
X0037595Y-0049205D01*
X0037196Y-0048898D01*
X0037157Y-0048779D01*
Y-0048421D01*
X0037196Y-0048302D01*
X0037595Y-0047995D01*
X0038021Y-0047440D01*
X0038289Y-0046794D01*
X0038380Y-0046100D01*
X0038289Y-0045406D01*
X0038021Y-0044760D01*
X0037595Y-0044205D01*
X0037040Y-0043779D01*
X0036394Y-0043511D01*
X0035700Y-0043420D01*
D02*
G37*
G36*
X0023889Y-0043290D02*
X0023811Y-0043306D01*
X0023732D01*
X0023732Y-0043306D01*
X0023206Y-0043410D01*
X0023170Y-0043415D01*
X0023158Y-0043420D01*
X0022964Y-0043458D01*
X0022964D01*
X0022675Y-0043578D01*
X0022511Y-0043688D01*
X0022499Y-0043693D01*
X0022470Y-0043715D01*
X0022024Y-0044013D01*
X0021802Y-0044235D01*
X0021504Y-0044681D01*
X0021482Y-0044710D01*
X0021477Y-0044721D01*
X0021367Y-0044886D01*
X0021247Y-0045175D01*
X0021209Y-0045369D01*
X0021204Y-0045381D01*
X0021199Y-0045417D01*
X0021094Y-0045943D01*
X0021094Y-0045943D01*
Y-0046100D01*
Y-0046257D01*
X0021094Y-0046257D01*
X0021199Y-0046783D01*
X0021204Y-0046819D01*
X0021209Y-0046831D01*
X0021247Y-0047025D01*
Y-0047025D01*
X0021367Y-0047314D01*
X0021477Y-0047479D01*
X0021482Y-0047490D01*
X0021504Y-0047519D01*
X0021802Y-0047965D01*
X0022024Y-0048187D01*
X0022191Y-0048299D01*
X0022192Y-0048300D01*
Y-0048900D01*
X0022191Y-0048901D01*
X0022024Y-0049013D01*
X0021802Y-0049235D01*
X0021504Y-0049681D01*
X0021482Y-0049710D01*
X0021477Y-0049722D01*
X0021399Y-0049838D01*
X0021205Y-0049885D01*
X0020827Y-0049883D01*
X0020554Y-0049474D01*
X0019903Y-0049039D01*
X0019357Y-0048930D01*
X0018995Y-0048590D01*
X0018928Y-0048448D01*
X0018943Y-0048371D01*
X0018928Y-0048293D01*
Y-0048214D01*
X0018928Y-0048214D01*
X0018821Y-0047677D01*
Y-0047677D01*
X0018791Y-0047603D01*
X0018775Y-0047526D01*
X0018731Y-0047460D01*
X0018701Y-0047387D01*
X0018701Y-0047387D01*
X0018396Y-0046931D01*
X0018396Y-0046931D01*
X0018340Y-0046875D01*
X0018297Y-0046810D01*
X0018231Y-0046766D01*
X0018175Y-0046710D01*
X0017719Y-0046405D01*
X0017719Y-0046405D01*
X0017646Y-0046375D01*
X0017580Y-0046331D01*
X0017503Y-0046316D01*
X0017430Y-0046286D01*
X0017430D01*
X0016892Y-0046178D01*
X0016892Y-0046178D01*
X0016813D01*
X0016735Y-0046163D01*
X0016658Y-0046178D01*
X0016579D01*
X0016579Y-0046178D01*
X0016041Y-0046286D01*
X0016041D01*
X0015968Y-0046316D01*
X0015890Y-0046331D01*
X0015825Y-0046375D01*
X0015752Y-0046405D01*
X0015752Y-0046405D01*
X0015296Y-0046710D01*
X0015296Y-0046710D01*
X0015240Y-0046766D01*
X0015174Y-0046810D01*
X0015130Y-0046875D01*
X0015075Y-0046931D01*
X0014770Y-0047387D01*
X0014770Y-0047387D01*
X0014740Y-0047460D01*
X0014696Y-0047526D01*
X0014680Y-0047603D01*
X0014650Y-0047677D01*
Y-0047677D01*
X0014543Y-0048214D01*
X0014543Y-0048214D01*
Y-0048293D01*
X0014528Y-0048371D01*
X0014543Y-0048448D01*
Y-0048528D01*
X0014543Y-0048528D01*
X0014650Y-0049065D01*
Y-0049065D01*
X0014680Y-0049138D01*
X0014696Y-0049216D01*
X0014740Y-0049281D01*
X0014770Y-0049355D01*
X0014770Y-0049355D01*
X0015074Y-0049810D01*
X0015074Y-0049810D01*
X0015130Y-0049866D01*
X0015174Y-0049932D01*
X0015240Y-0049976D01*
X0015296Y-0050032D01*
X0015752Y-0050336D01*
X0015752Y-0050336D01*
X0015825Y-0050367D01*
X0015890Y-0050411D01*
X0015968Y-0050426D01*
X0016041Y-0050456D01*
X0016041D01*
X0016579Y-0050563D01*
X0016669Y-0050917D01*
X0016532Y-0051188D01*
X0016041Y-0051285D01*
X0016041D01*
X0015968Y-0051316D01*
X0015890Y-0051331D01*
X0015825Y-0051375D01*
X0015752Y-0051405D01*
X0015752Y-0051405D01*
X0015296Y-0051710D01*
X0015296Y-0051710D01*
X0015240Y-0051766D01*
X0015174Y-0051810D01*
X0015130Y-0051875D01*
X0015075Y-0051931D01*
X0014770Y-0052387D01*
X0014770Y-0052387D01*
X0014740Y-0052460D01*
X0014696Y-0052526D01*
X0014680Y-0052604D01*
X0014650Y-0052677D01*
Y-0052677D01*
X0014543Y-0053214D01*
X0014543Y-0053214D01*
Y-0053293D01*
X0014528Y-0053371D01*
X0014543Y-0053448D01*
Y-0053527D01*
X0014543Y-0053527D01*
X0014650Y-0054065D01*
Y-0054065D01*
X0014680Y-0054138D01*
X0014696Y-0054216D01*
X0014740Y-0054282D01*
X0014770Y-0054355D01*
X0014770Y-0054355D01*
X0015074Y-0054810D01*
X0015074Y-0054810D01*
X0015130Y-0054866D01*
X0015174Y-0054932D01*
X0015240Y-0054976D01*
X0015296Y-0055032D01*
X0015752Y-0055336D01*
X0015752Y-0055336D01*
X0015825Y-0055367D01*
X0015890Y-0055411D01*
X0015968Y-0055426D01*
X0016041Y-0055456D01*
X0016041D01*
X0016579Y-0055563D01*
X0016579Y-0055563D01*
X0016658D01*
X0016735Y-0055579D01*
X0016813Y-0055563D01*
X0016892D01*
X0016892Y-0055563D01*
X0017430Y-0055456D01*
X0017430D01*
X0017503Y-0055426D01*
X0017580Y-0055411D01*
X0017646Y-0055367D01*
X0017719Y-0055336D01*
X0017719Y-0055336D01*
X0018175Y-0055032D01*
X0018175Y-0055032D01*
X0018231Y-0054976D01*
X0018297Y-0054932D01*
X0018340Y-0054866D01*
X0018396Y-0054810D01*
X0018701Y-0054355D01*
X0018701Y-0054355D01*
X0018731Y-0054282D01*
X0018775Y-0054216D01*
X0018791Y-0054138D01*
X0018821Y-0054065D01*
Y-0054065D01*
X0018928Y-0053527D01*
X0018928Y-0053527D01*
Y-0053448D01*
X0018943Y-0053371D01*
X0019006Y-0053217D01*
X0019089Y-0053081D01*
X0019366Y-0052854D01*
X0019903Y-0052747D01*
X0020554Y-0052312D01*
X0020739Y-0052034D01*
X0020996Y-0052030D01*
X0021285Y-0052117D01*
X0021367Y-0052314D01*
X0021477Y-0052478D01*
X0021482Y-0052490D01*
X0021504Y-0052519D01*
X0021802Y-0052965D01*
X0022024Y-0053187D01*
X0022191Y-0053299D01*
X0022192Y-0053300D01*
Y-0053900D01*
X0022191Y-0053901D01*
X0022024Y-0054013D01*
X0021802Y-0054235D01*
X0021504Y-0054681D01*
X0021482Y-0054710D01*
X0021477Y-0054721D01*
X0021367Y-0054886D01*
X0021247Y-0055175D01*
X0021209Y-0055369D01*
X0021204Y-0055381D01*
X0021199Y-0055417D01*
X0021094Y-0055943D01*
X0021094Y-0055943D01*
Y-0056100D01*
Y-0056257D01*
X0021094Y-0056257D01*
X0021199Y-0056783D01*
X0021204Y-0056819D01*
X0021209Y-0056831D01*
X0021247Y-0057025D01*
Y-0057025D01*
X0021367Y-0057314D01*
X0021477Y-0057478D01*
X0021482Y-0057490D01*
X0021504Y-0057519D01*
X0021802Y-0057965D01*
X0022024Y-0058187D01*
X0022191Y-0058299D01*
X0022192Y-0058300D01*
Y-0058900D01*
X0022191Y-0058901D01*
X0022024Y-0059013D01*
X0021802Y-0059235D01*
X0021504Y-0059681D01*
X0021482Y-0059710D01*
X0021477Y-0059721D01*
X0021428Y-0059795D01*
X0021101Y-0059856D01*
X0020850Y-0059829D01*
X0020583Y-0059430D01*
X0019932Y-0058995D01*
X0019367Y-0058882D01*
X0019089Y-0058658D01*
X0019039Y-0058580D01*
X0018942Y-0058376D01*
X0018943Y-0058371D01*
X0018928Y-0058293D01*
Y-0058214D01*
X0018928Y-0058214D01*
X0018821Y-0057677D01*
Y-0057677D01*
X0018791Y-0057604D01*
X0018775Y-0057526D01*
X0018731Y-0057460D01*
X0018701Y-0057387D01*
X0018701Y-0057387D01*
X0018396Y-0056931D01*
X0018396Y-0056931D01*
X0018340Y-0056875D01*
X0018297Y-0056810D01*
X0018231Y-0056766D01*
X0018175Y-0056710D01*
X0017719Y-0056405D01*
X0017719Y-0056405D01*
X0017646Y-0056375D01*
X0017580Y-0056331D01*
X0017503Y-0056316D01*
X0017430Y-0056286D01*
X0017430D01*
X0016892Y-0056178D01*
X0016892Y-0056178D01*
X0016813D01*
X0016735Y-0056163D01*
X0016658Y-0056178D01*
X0016579D01*
X0016579Y-0056178D01*
X0016041Y-0056286D01*
X0016041D01*
X0015968Y-0056316D01*
X0015890Y-0056331D01*
X0015825Y-0056375D01*
X0015752Y-0056405D01*
X0015752Y-0056405D01*
X0015296Y-0056710D01*
X0015296Y-0056710D01*
X0015240Y-0056766D01*
X0015174Y-0056810D01*
X0015130Y-0056875D01*
X0015075Y-0056931D01*
X0014770Y-0057387D01*
X0014770Y-0057387D01*
X0014740Y-0057460D01*
X0014696Y-0057526D01*
X0014680Y-0057604D01*
X0014650Y-0057677D01*
Y-0057677D01*
X0014543Y-0058214D01*
X0014543Y-0058214D01*
Y-0058293D01*
X0014528Y-0058371D01*
X0014543Y-0058448D01*
Y-0058527D01*
X0014543Y-0058527D01*
X0014650Y-0059065D01*
Y-0059065D01*
X0014680Y-0059138D01*
X0014696Y-0059216D01*
X0014740Y-0059281D01*
X0014770Y-0059355D01*
X0014770Y-0059355D01*
X0015074Y-0059810D01*
X0015074Y-0059810D01*
X0015130Y-0059866D01*
X0015174Y-0059932D01*
X0015240Y-0059976D01*
X0015296Y-0060032D01*
X0015752Y-0060336D01*
X0015752Y-0060336D01*
X0015825Y-0060367D01*
X0015890Y-0060411D01*
X0015968Y-0060426D01*
X0016041Y-0060456D01*
X0016041D01*
X0016579Y-0060563D01*
X0016727Y-0060970D01*
X0016706Y-0061169D01*
X0016658Y-0061178D01*
X0016579D01*
X0016579Y-0061178D01*
X0016041Y-0061286D01*
X0016041D01*
X0015968Y-0061316D01*
X0015890Y-0061331D01*
X0015825Y-0061375D01*
X0015752Y-0061405D01*
X0015752Y-0061405D01*
X0015296Y-0061710D01*
X0015296Y-0061710D01*
X0015240Y-0061766D01*
X0015174Y-0061810D01*
X0015130Y-0061875D01*
X0015075Y-0061931D01*
X0014770Y-0062387D01*
X0014770Y-0062387D01*
X0014740Y-0062460D01*
X0014696Y-0062526D01*
X0014680Y-0062603D01*
X0014650Y-0062677D01*
Y-0062677D01*
X0014543Y-0063214D01*
X0014543Y-0063214D01*
Y-0063293D01*
X0014528Y-0063371D01*
X0014543Y-0063448D01*
Y-0063528D01*
X0014543Y-0063528D01*
X0014573Y-0063677D01*
X0014148Y-0064102D01*
X0014100Y-0064093D01*
X0013332Y-0064246D01*
X0012681Y-0064681D01*
X0012246Y-0065332D01*
X0012093Y-0066100D01*
X0012246Y-0066868D01*
X0012681Y-0067519D01*
X0013332Y-0067954D01*
X0014056Y-0068098D01*
X0014109Y-0068111D01*
X0014152Y-0068129D01*
X0014336Y-0068247D01*
X0014543Y-0068528D01*
X0014650Y-0069065D01*
Y-0069065D01*
X0014680Y-0069138D01*
X0014696Y-0069216D01*
X0014740Y-0069282D01*
X0014770Y-0069354D01*
X0014770Y-0069355D01*
X0015074Y-0069810D01*
X0015074Y-0069810D01*
X0015130Y-0069866D01*
X0015174Y-0069932D01*
X0015240Y-0069976D01*
X0015296Y-0070032D01*
X0015752Y-0070336D01*
X0015752Y-0070336D01*
X0015825Y-0070367D01*
X0015890Y-0070411D01*
X0015968Y-0070426D01*
X0016041Y-0070456D01*
X0016041D01*
X0016579Y-0070563D01*
X0016579Y-0070563D01*
X0016658D01*
X0016735Y-0070579D01*
X0016813Y-0070563D01*
X0016892D01*
X0016892Y-0070563D01*
X0017430Y-0070456D01*
X0017430D01*
X0017503Y-0070426D01*
X0017580Y-0070411D01*
X0017646Y-0070367D01*
X0017719Y-0070336D01*
X0017719Y-0070336D01*
X0018175Y-0070032D01*
X0018175Y-0070032D01*
X0018231Y-0069976D01*
X0018297Y-0069932D01*
X0018340Y-0069866D01*
X0018396Y-0069810D01*
X0018701Y-0069355D01*
X0018701Y-0069354D01*
X0018731Y-0069282D01*
X0018775Y-0069216D01*
X0018791Y-0069138D01*
X0018821Y-0069065D01*
Y-0069065D01*
X0018928Y-0068528D01*
X0018928Y-0068528D01*
Y-0068448D01*
X0018943Y-0068371D01*
X0018928Y-0068293D01*
Y-0068214D01*
X0018928Y-0068214D01*
X0018821Y-0067677D01*
Y-0067677D01*
X0018791Y-0067603D01*
X0018775Y-0067526D01*
X0018731Y-0067460D01*
X0018701Y-0067387D01*
X0018701Y-0067387D01*
X0018396Y-0066931D01*
X0018396Y-0066931D01*
X0018340Y-0066875D01*
X0018297Y-0066810D01*
X0018231Y-0066766D01*
X0018175Y-0066710D01*
X0017719Y-0066405D01*
X0017719Y-0066405D01*
X0017646Y-0066375D01*
X0017580Y-0066331D01*
X0017503Y-0066316D01*
X0017430Y-0066286D01*
X0017430D01*
X0016892Y-0066179D01*
X0016892Y-0066179D01*
X0016813D01*
X0016735Y-0066163D01*
X0016537Y-0065882D01*
X0016574Y-0065825D01*
X0016892Y-0065563D01*
X0017430Y-0065456D01*
X0017430D01*
X0017503Y-0065426D01*
X0017580Y-0065411D01*
X0017646Y-0065367D01*
X0017719Y-0065336D01*
X0017719Y-0065336D01*
X0018175Y-0065032D01*
X0018175Y-0065032D01*
X0018231Y-0064976D01*
X0018297Y-0064932D01*
X0018340Y-0064866D01*
X0018396Y-0064810D01*
X0018701Y-0064355D01*
X0018701Y-0064354D01*
X0018731Y-0064281D01*
X0018775Y-0064216D01*
X0018791Y-0064138D01*
X0018821Y-0064065D01*
Y-0064065D01*
X0018928Y-0063528D01*
X0018928Y-0063528D01*
Y-0063448D01*
X0018943Y-0063371D01*
X0018928Y-0063293D01*
X0019013Y-0063136D01*
X0019359Y-0062817D01*
X0019932Y-0062703D01*
X0020583Y-0062268D01*
X0020739Y-0062034D01*
X0020997Y-0062029D01*
X0021285Y-0062117D01*
X0021367Y-0062314D01*
X0021477Y-0062479D01*
X0021482Y-0062490D01*
X0021504Y-0062519D01*
X0021802Y-0062965D01*
X0022024Y-0063187D01*
X0022191Y-0063299D01*
X0022192Y-0063300D01*
Y-0063900D01*
X0022191Y-0063901D01*
X0022024Y-0064013D01*
X0021802Y-0064235D01*
X0021504Y-0064681D01*
X0021482Y-0064710D01*
X0021477Y-0064722D01*
X0021367Y-0064886D01*
X0021247Y-0065175D01*
X0021209Y-0065369D01*
X0021204Y-0065381D01*
X0021199Y-0065417D01*
X0021094Y-0065943D01*
X0021094Y-0065943D01*
Y-0066100D01*
Y-0066257D01*
X0021094Y-0066257D01*
X0021199Y-0066783D01*
X0021204Y-0066819D01*
X0021209Y-0066831D01*
X0021247Y-0067025D01*
Y-0067025D01*
X0021367Y-0067314D01*
X0021477Y-0067479D01*
X0021482Y-0067490D01*
X0021504Y-0067519D01*
X0021802Y-0067965D01*
X0022024Y-0068187D01*
X0022191Y-0068299D01*
X0022192Y-0068300D01*
Y-0068900D01*
X0022191Y-0068901D01*
X0022024Y-0069013D01*
X0021802Y-0069235D01*
X0021504Y-0069681D01*
X0021482Y-0069710D01*
X0021477Y-0069722D01*
X0021367Y-0069886D01*
X0021247Y-0070175D01*
X0021209Y-0070369D01*
X0021204Y-0070381D01*
X0021199Y-0070417D01*
X0021094Y-0070943D01*
X0021094Y-0070943D01*
Y-0071100D01*
Y-0071257D01*
X0021094Y-0071257D01*
X0021199Y-0071783D01*
X0021204Y-0071819D01*
X0021209Y-0071831D01*
X0021247Y-0072025D01*
Y-0072025D01*
X0021367Y-0072314D01*
X0021477Y-0072478D01*
X0021482Y-0072490D01*
X0021504Y-0072519D01*
X0021802Y-0072965D01*
X0022024Y-0073187D01*
X0022470Y-0073485D01*
X0022499Y-0073507D01*
X0022511Y-0073512D01*
X0022675Y-0073622D01*
X0022732Y-0073646D01*
X0022796Y-0073758D01*
X0022890Y-0074166D01*
X0022878Y-0074234D01*
X0022546Y-0074732D01*
X0022393Y-0075500D01*
X0022546Y-0076268D01*
X0022981Y-0076919D01*
X0023632Y-0077354D01*
X0024400Y-0077507D01*
X0025168Y-0077354D01*
X0025819Y-0076919D01*
X0026254Y-0076268D01*
X0026407Y-0075500D01*
X0026254Y-0074732D01*
X0025819Y-0074081D01*
X0025563Y-0073909D01*
X0025558Y-0073902D01*
X0025568Y-0073311D01*
X0025754Y-0073187D01*
X0025976Y-0072965D01*
X0026274Y-0072519D01*
X0026296Y-0072490D01*
X0026301Y-0072478D01*
X0026411Y-0072314D01*
X0026531Y-0072025D01*
X0026569Y-0071831D01*
X0026574Y-0071819D01*
X0026579Y-0071783D01*
X0026683Y-0071257D01*
X0026684Y-0071257D01*
Y-0071100D01*
Y-0070943D01*
X0026683Y-0070943D01*
X0026579Y-0070417D01*
X0026574Y-0070381D01*
X0026569Y-0070369D01*
X0026531Y-0070175D01*
Y-0070175D01*
X0026411Y-0069886D01*
X0026301Y-0069722D01*
X0026296Y-0069710D01*
X0026274Y-0069681D01*
X0025976Y-0069235D01*
X0025754Y-0069013D01*
X0025587Y-0068901D01*
X0025586Y-0068900D01*
Y-0068300D01*
X0025587Y-0068299D01*
X0025754Y-0068187D01*
X0025976Y-0067965D01*
X0026274Y-0067519D01*
X0026296Y-0067490D01*
X0026301Y-0067479D01*
X0026411Y-0067314D01*
X0026531Y-0067025D01*
X0026569Y-0066831D01*
X0026574Y-0066819D01*
X0026579Y-0066783D01*
X0026683Y-0066257D01*
X0026684Y-0066257D01*
Y-0066100D01*
Y-0065943D01*
X0026683Y-0065943D01*
X0026579Y-0065417D01*
X0026574Y-0065381D01*
X0026569Y-0065369D01*
X0026531Y-0065175D01*
Y-0065175D01*
X0026411Y-0064886D01*
X0026301Y-0064722D01*
X0026296Y-0064710D01*
X0026274Y-0064681D01*
X0025976Y-0064235D01*
X0025754Y-0064013D01*
X0025587Y-0063901D01*
X0025586Y-0063900D01*
Y-0063300D01*
X0025587Y-0063299D01*
X0025754Y-0063187D01*
X0025976Y-0062965D01*
X0026274Y-0062519D01*
X0026296Y-0062490D01*
X0026301Y-0062479D01*
X0026411Y-0062314D01*
X0026531Y-0062025D01*
X0026569Y-0061831D01*
X0026574Y-0061819D01*
X0026579Y-0061783D01*
X0026683Y-0061257D01*
X0026684Y-0061257D01*
Y-0061100D01*
Y-0060943D01*
X0026683Y-0060943D01*
X0026579Y-0060417D01*
X0026574Y-0060381D01*
X0026569Y-0060369D01*
X0026531Y-0060175D01*
Y-0060175D01*
X0026411Y-0059886D01*
X0026301Y-0059721D01*
X0026296Y-0059710D01*
X0026274Y-0059681D01*
X0025976Y-0059235D01*
X0025754Y-0059013D01*
X0025587Y-0058901D01*
X0025586Y-0058900D01*
Y-0058300D01*
X0025587Y-0058299D01*
X0025754Y-0058187D01*
X0025976Y-0057965D01*
X0026274Y-0057519D01*
X0026296Y-0057490D01*
X0026301Y-0057478D01*
X0026411Y-0057314D01*
X0026531Y-0057025D01*
X0026569Y-0056831D01*
X0026574Y-0056819D01*
X0026579Y-0056783D01*
X0026683Y-0056257D01*
X0026684Y-0056257D01*
Y-0056100D01*
Y-0055943D01*
X0026683Y-0055943D01*
X0026579Y-0055417D01*
X0026574Y-0055381D01*
X0026569Y-0055369D01*
X0026531Y-0055175D01*
Y-0055175D01*
X0026411Y-0054886D01*
X0026301Y-0054721D01*
X0026296Y-0054710D01*
X0026274Y-0054681D01*
X0025976Y-0054235D01*
X0025754Y-0054013D01*
X0025587Y-0053901D01*
X0025586Y-0053900D01*
Y-0053300D01*
X0025587Y-0053299D01*
X0025754Y-0053187D01*
X0025976Y-0052965D01*
X0026274Y-0052519D01*
X0026296Y-0052490D01*
X0026301Y-0052478D01*
X0026411Y-0052314D01*
X0026531Y-0052025D01*
X0026569Y-0051831D01*
X0026574Y-0051819D01*
X0026579Y-0051783D01*
X0026683Y-0051257D01*
X0026684Y-0051257D01*
Y-0051100D01*
Y-0050943D01*
X0026683Y-0050943D01*
X0026579Y-0050417D01*
X0026574Y-0050381D01*
X0026569Y-0050369D01*
X0026531Y-0050175D01*
Y-0050175D01*
X0026411Y-0049886D01*
X0026301Y-0049722D01*
X0026296Y-0049710D01*
X0026274Y-0049681D01*
X0025976Y-0049235D01*
X0025754Y-0049013D01*
X0025587Y-0048901D01*
X0025586Y-0048900D01*
Y-0048300D01*
X0025587Y-0048299D01*
X0025754Y-0048187D01*
X0025976Y-0047965D01*
X0026274Y-0047519D01*
X0026296Y-0047490D01*
X0026301Y-0047479D01*
X0026411Y-0047314D01*
X0026531Y-0047025D01*
X0026569Y-0046831D01*
X0026574Y-0046819D01*
X0026579Y-0046783D01*
X0026683Y-0046257D01*
X0026684Y-0046257D01*
Y-0046100D01*
Y-0045943D01*
X0026683Y-0045943D01*
X0026579Y-0045417D01*
X0026574Y-0045381D01*
X0026569Y-0045369D01*
X0026531Y-0045175D01*
Y-0045175D01*
X0026411Y-0044886D01*
X0026301Y-0044721D01*
X0026296Y-0044710D01*
X0026274Y-0044681D01*
X0025976Y-0044235D01*
X0025754Y-0044013D01*
X0025308Y-0043715D01*
X0025279Y-0043693D01*
X0025267Y-0043688D01*
X0025103Y-0043578D01*
X0024814Y-0043458D01*
X0024620Y-0043420D01*
X0024608Y-0043415D01*
X0024572Y-0043410D01*
X0024046Y-0043306D01*
X0024046Y-0043306D01*
X0023967D01*
X0023889Y-0043290D01*
D02*
G37*
G36*
X0099806Y-0051163D02*
X0099729Y-0051178D01*
X0099650D01*
X0099650Y-0051178D01*
X0099112Y-0051285D01*
X0099112D01*
X0099039Y-0051316D01*
X0098961Y-0051331D01*
X0098896Y-0051375D01*
X0098823Y-0051405D01*
X0098823Y-0051405D01*
X0098367Y-0051710D01*
X0098367Y-0051710D01*
X0098311Y-0051766D01*
X0098245Y-0051810D01*
X0098201Y-0051875D01*
X0098145Y-0051931D01*
X0097841Y-0052387D01*
X0097841Y-0052387D01*
X0097811Y-0052460D01*
X0097767Y-0052526D01*
X0097751Y-0052604D01*
X0097721Y-0052677D01*
Y-0052677D01*
X0097614Y-0053214D01*
X0097614Y-0053214D01*
Y-0053293D01*
X0097598Y-0053371D01*
X0097614Y-0053448D01*
Y-0053527D01*
X0097614Y-0053527D01*
X0097721Y-0054065D01*
Y-0054065D01*
X0097751Y-0054138D01*
X0097767Y-0054216D01*
X0097811Y-0054282D01*
X0097841Y-0054355D01*
X0097841Y-0054355D01*
X0098145Y-0054810D01*
X0098145Y-0054810D01*
X0098201Y-0054866D01*
X0098245Y-0054932D01*
X0098311Y-0054976D01*
X0098367Y-0055032D01*
X0098823Y-0055336D01*
X0098823Y-0055336D01*
X0098896Y-0055367D01*
X0098961Y-0055411D01*
X0099039Y-0055426D01*
X0099112Y-0055456D01*
X0099112D01*
X0099650Y-0055563D01*
X0099650Y-0055563D01*
X0099729D01*
X0099806Y-0055579D01*
X0099884Y-0055563D01*
X0099963D01*
X0099963Y-0055563D01*
X0100017Y-0055553D01*
X0100437Y-0055882D01*
X0100058Y-0056197D01*
X0099963Y-0056178D01*
X0099963Y-0056178D01*
X0099884D01*
X0099806Y-0056163D01*
X0099729Y-0056178D01*
X0099650D01*
X0099650Y-0056178D01*
X0099112Y-0056286D01*
X0099112D01*
X0099039Y-0056316D01*
X0098961Y-0056331D01*
X0098896Y-0056375D01*
X0098823Y-0056405D01*
X0098823Y-0056405D01*
X0098367Y-0056710D01*
X0098367Y-0056710D01*
X0098311Y-0056766D01*
X0098245Y-0056810D01*
X0098201Y-0056875D01*
X0098145Y-0056931D01*
X0097841Y-0057387D01*
X0097841Y-0057387D01*
X0097811Y-0057460D01*
X0097767Y-0057526D01*
X0097751Y-0057604D01*
X0097721Y-0057677D01*
Y-0057677D01*
X0097614Y-0058214D01*
X0097614Y-0058214D01*
Y-0058293D01*
X0097598Y-0058371D01*
X0097614Y-0058448D01*
Y-0058527D01*
X0097614Y-0058527D01*
X0097721Y-0059065D01*
Y-0059065D01*
X0097751Y-0059138D01*
X0097767Y-0059216D01*
X0097811Y-0059281D01*
X0097841Y-0059355D01*
X0097841Y-0059355D01*
X0098145Y-0059810D01*
X0098145Y-0059810D01*
X0098201Y-0059866D01*
X0098245Y-0059932D01*
X0098311Y-0059976D01*
X0098367Y-0060032D01*
X0098823Y-0060336D01*
X0098823Y-0060336D01*
X0098896Y-0060367D01*
X0098961Y-0060411D01*
X0099039Y-0060426D01*
X0099112Y-0060456D01*
X0099112D01*
X0099650Y-0060563D01*
X0099650Y-0060563D01*
X0099729D01*
X0099806Y-0060579D01*
X0099884Y-0060563D01*
X0099963D01*
X0099963Y-0060563D01*
X0100501Y-0060456D01*
X0100501D01*
X0100574Y-0060426D01*
X0100651Y-0060411D01*
X0100717Y-0060367D01*
X0100790Y-0060336D01*
X0100790Y-0060336D01*
X0101246Y-0060032D01*
X0101246Y-0060032D01*
X0101302Y-0059976D01*
X0101367Y-0059932D01*
X0101411Y-0059866D01*
X0101467Y-0059810D01*
X0101772Y-0059355D01*
X0101772Y-0059355D01*
X0101802Y-0059281D01*
X0101846Y-0059216D01*
X0101861Y-0059138D01*
X0101892Y-0059065D01*
Y-0059065D01*
X0101999Y-0058527D01*
X0101999Y-0058527D01*
Y-0058448D01*
X0102014Y-0058371D01*
X0102012Y-0058360D01*
X0102140Y-0058155D01*
X0102213Y-0058084D01*
X0102453Y-0057938D01*
X0102800Y-0058007D01*
X0103568Y-0057854D01*
X0104219Y-0057419D01*
X0104654Y-0056768D01*
X0104807Y-0056000D01*
X0104654Y-0055232D01*
X0104219Y-0054581D01*
X0103568Y-0054146D01*
X0102800Y-0053993D01*
X0102400Y-0054072D01*
X0101975Y-0053647D01*
X0101999Y-0053527D01*
X0101999Y-0053527D01*
Y-0053448D01*
X0102014Y-0053371D01*
X0101999Y-0053293D01*
Y-0053214D01*
X0101999Y-0053214D01*
X0101892Y-0052677D01*
Y-0052677D01*
X0101861Y-0052604D01*
X0101846Y-0052526D01*
X0101802Y-0052460D01*
X0101772Y-0052387D01*
X0101772Y-0052387D01*
X0101467Y-0051931D01*
X0101467Y-0051931D01*
X0101411Y-0051875D01*
X0101367Y-0051810D01*
X0101302Y-0051766D01*
X0101246Y-0051710D01*
X0100790Y-0051405D01*
X0100790Y-0051405D01*
X0100717Y-0051375D01*
X0100651Y-0051331D01*
X0100574Y-0051316D01*
X0100501Y-0051285D01*
X0100501D01*
X0099963Y-0051178D01*
X0099963Y-0051178D01*
X0099884D01*
X0099806Y-0051163D01*
D02*
G37*
G36*
X0060800Y-0041493D02*
X0060032Y-0041646D01*
X0059381Y-0042081D01*
X0058946Y-0042732D01*
X0058793Y-0043500D01*
X0058946Y-0044268D01*
X0059381Y-0044919D01*
X0060032Y-0045354D01*
X0060208Y-0045389D01*
X0060400Y-0045851D01*
X0060346Y-0045932D01*
X0060193Y-0046700D01*
X0060346Y-0047468D01*
X0060158Y-0047921D01*
X0060032Y-0047946D01*
X0059381Y-0048381D01*
X0058946Y-0049032D01*
X0058793Y-0049800D01*
X0058946Y-0050568D01*
X0059381Y-0051219D01*
X0060032Y-0051654D01*
X0059646Y-0052232D01*
X0059493Y-0053000D01*
X0059646Y-0053768D01*
X0060081Y-0054419D01*
X0060732Y-0054854D01*
X0061500Y-0055007D01*
X0062268Y-0054854D01*
X0062919Y-0054419D01*
X0063354Y-0053768D01*
X0063507Y-0053000D01*
X0063354Y-0052232D01*
X0062919Y-0051581D01*
X0062268Y-0051146D01*
X0062654Y-0050568D01*
X0062807Y-0049800D01*
X0062654Y-0049032D01*
X0062842Y-0048579D01*
X0062968Y-0048554D01*
X0063619Y-0048119D01*
X0064054Y-0047468D01*
X0064207Y-0046700D01*
X0064054Y-0045932D01*
X0063619Y-0045281D01*
X0062968Y-0044846D01*
X0062792Y-0044811D01*
X0062600Y-0044349D01*
X0062654Y-0044268D01*
X0062807Y-0043500D01*
X0062654Y-0042732D01*
X0062219Y-0042081D01*
X0061568Y-0041646D01*
X0060800Y-0041493D01*
D02*
G37*
G36*
X0042200Y-0050620D02*
X0041432Y-0050773D01*
X0040781Y-0051208D01*
X0040346Y-0051859D01*
X0040193Y-0052627D01*
X0040346Y-0053395D01*
X0040781Y-0054046D01*
X0041432Y-0054481D01*
X0042200Y-0054634D01*
X0042968Y-0054481D01*
X0043619Y-0054046D01*
X0044054Y-0053395D01*
X0044207Y-0052627D01*
X0044054Y-0051859D01*
X0043619Y-0051208D01*
X0042968Y-0050773D01*
X0042200Y-0050620D01*
D02*
G37*
G36*
X0051400Y-0040871D02*
X0050632Y-0041024D01*
X0049981Y-0041459D01*
X0049546Y-0042110D01*
X0049393Y-0042878D01*
X0049546Y-0043646D01*
X0049981Y-0044297D01*
X0050439Y-0044603D01*
Y-0044708D01*
X0050004Y-0045360D01*
X0049851Y-0046128D01*
X0050004Y-0046896D01*
X0050439Y-0047547D01*
Y-0047585D01*
X0049881Y-0047958D01*
X0049446Y-0048609D01*
X0049293Y-0049377D01*
X0049446Y-0050145D01*
X0049881Y-0050796D01*
X0050052Y-0050911D01*
X0050179Y-0051597D01*
X0050004Y-0051859D01*
X0049851Y-0052627D01*
X0050004Y-0053395D01*
X0050439Y-0054046D01*
X0051090Y-0054481D01*
X0051858Y-0054634D01*
X0052626Y-0054481D01*
X0053277Y-0054046D01*
X0053713Y-0053395D01*
X0053865Y-0052627D01*
X0053713Y-0051859D01*
X0053277Y-0051208D01*
X0053106Y-0051093D01*
X0052979Y-0050407D01*
X0053154Y-0050145D01*
X0053307Y-0049377D01*
X0053154Y-0048609D01*
X0052719Y-0047958D01*
Y-0047920D01*
X0053277Y-0047547D01*
X0053713Y-0046896D01*
X0053865Y-0046128D01*
X0053713Y-0045360D01*
X0053277Y-0044708D01*
X0052819Y-0044402D01*
Y-0044297D01*
X0053254Y-0043646D01*
X0053407Y-0042878D01*
X0053254Y-0042110D01*
X0052819Y-0041459D01*
X0052168Y-0041024D01*
X0051400Y-0040871D01*
D02*
G37*
G36*
X0016735Y-0041163D02*
X0016658Y-0041179D01*
X0016579D01*
X0016579Y-0041179D01*
X0016041Y-0041285D01*
X0016041D01*
X0015968Y-0041316D01*
X0015890Y-0041331D01*
X0015825Y-0041375D01*
X0015752Y-0041405D01*
X0015752Y-0041405D01*
X0015296Y-0041710D01*
X0015296Y-0041710D01*
X0015240Y-0041766D01*
X0015174Y-0041810D01*
X0015130Y-0041875D01*
X0015075Y-0041931D01*
X0014770Y-0042387D01*
X0014770Y-0042387D01*
X0014740Y-0042460D01*
X0014696Y-0042526D01*
X0014680Y-0042603D01*
X0014650Y-0042677D01*
Y-0042677D01*
X0014543Y-0043214D01*
X0014543Y-0043214D01*
Y-0043293D01*
X0014528Y-0043371D01*
X0014543Y-0043448D01*
Y-0043527D01*
X0014543Y-0043527D01*
X0014650Y-0044065D01*
Y-0044065D01*
X0014680Y-0044138D01*
X0014696Y-0044216D01*
X0014740Y-0044282D01*
X0014770Y-0044355D01*
X0014770Y-0044355D01*
X0015074Y-0044810D01*
X0015074Y-0044810D01*
X0015130Y-0044866D01*
X0015174Y-0044932D01*
X0015240Y-0044976D01*
X0015296Y-0045032D01*
X0015752Y-0045336D01*
X0015752Y-0045336D01*
X0015825Y-0045367D01*
X0015890Y-0045411D01*
X0015968Y-0045426D01*
X0016041Y-0045456D01*
X0016041D01*
X0016579Y-0045563D01*
X0016579Y-0045563D01*
X0016658D01*
X0016735Y-0045579D01*
X0016813Y-0045563D01*
X0016892D01*
X0016892Y-0045563D01*
X0017430Y-0045456D01*
X0017430D01*
X0017503Y-0045426D01*
X0017580Y-0045411D01*
X0017646Y-0045367D01*
X0017719Y-0045336D01*
X0017719Y-0045336D01*
X0018175Y-0045032D01*
X0018175Y-0045032D01*
X0018231Y-0044976D01*
X0018297Y-0044932D01*
X0018340Y-0044866D01*
X0018396Y-0044810D01*
X0018701Y-0044355D01*
X0018701Y-0044355D01*
X0018731Y-0044282D01*
X0018775Y-0044216D01*
X0018791Y-0044138D01*
X0018821Y-0044065D01*
Y-0044065D01*
X0018928Y-0043527D01*
X0018928Y-0043527D01*
Y-0043448D01*
X0018943Y-0043371D01*
X0018928Y-0043293D01*
Y-0043214D01*
X0018928Y-0043214D01*
X0018821Y-0042677D01*
Y-0042677D01*
X0018791Y-0042603D01*
X0018775Y-0042526D01*
X0018731Y-0042460D01*
X0018701Y-0042387D01*
X0018701Y-0042387D01*
X0018396Y-0041931D01*
X0018396Y-0041931D01*
X0018340Y-0041875D01*
X0018297Y-0041810D01*
X0018231Y-0041766D01*
X0018175Y-0041710D01*
X0017719Y-0041405D01*
X0017719Y-0041405D01*
X0017646Y-0041375D01*
X0017580Y-0041331D01*
X0017503Y-0041316D01*
X0017430Y-0041285D01*
X0017430D01*
X0016892Y-0041179D01*
X0016892Y-0041179D01*
X0016813D01*
X0016735Y-0041163D01*
D02*
G37*
G36*
X0099806Y-0036163D02*
X0099729Y-0036178D01*
X0099650D01*
X0099650Y-0036178D01*
X0099112Y-0036285D01*
X0099112D01*
X0099039Y-0036316D01*
X0098961Y-0036331D01*
X0098896Y-0036375D01*
X0098823Y-0036405D01*
X0098823Y-0036405D01*
X0098367Y-0036710D01*
X0098367Y-0036710D01*
X0098311Y-0036766D01*
X0098245Y-0036810D01*
X0098201Y-0036875D01*
X0098145Y-0036931D01*
X0097841Y-0037387D01*
X0097841Y-0037387D01*
X0097811Y-0037460D01*
X0097767Y-0037526D01*
X0097751Y-0037604D01*
X0097721Y-0037677D01*
Y-0037677D01*
X0097614Y-0038214D01*
X0097614Y-0038214D01*
Y-0038293D01*
X0097598Y-0038371D01*
X0097614Y-0038448D01*
Y-0038528D01*
X0097614Y-0038528D01*
X0097721Y-0039065D01*
Y-0039065D01*
X0097751Y-0039138D01*
X0097767Y-0039216D01*
X0097811Y-0039281D01*
X0097841Y-0039355D01*
X0097841Y-0039355D01*
X0098145Y-0039810D01*
X0098145Y-0039810D01*
X0098201Y-0039866D01*
X0098245Y-0039932D01*
X0098311Y-0039976D01*
X0098367Y-0040032D01*
X0098823Y-0040336D01*
X0098823Y-0040336D01*
X0098896Y-0040367D01*
X0098961Y-0040411D01*
X0099039Y-0040426D01*
X0099112Y-0040456D01*
X0099112D01*
X0099650Y-0040563D01*
X0099650Y-0040563D01*
X0099729D01*
X0099806Y-0040579D01*
X0099884Y-0040563D01*
X0099963D01*
X0099963Y-0040563D01*
X0100501Y-0040456D01*
X0100501D01*
X0100574Y-0040426D01*
X0100651Y-0040411D01*
X0100717Y-0040367D01*
X0100790Y-0040336D01*
X0100790Y-0040336D01*
X0101246Y-0040032D01*
X0101246Y-0040032D01*
X0101302Y-0039976D01*
X0101367Y-0039932D01*
X0101411Y-0039866D01*
X0101467Y-0039810D01*
X0101772Y-0039355D01*
X0101772Y-0039355D01*
X0101802Y-0039281D01*
X0101846Y-0039216D01*
X0101861Y-0039138D01*
X0101892Y-0039065D01*
Y-0039065D01*
X0101999Y-0038528D01*
X0101999Y-0038528D01*
Y-0038448D01*
X0102014Y-0038371D01*
X0101999Y-0038293D01*
Y-0038214D01*
X0101999Y-0038214D01*
X0101892Y-0037677D01*
Y-0037677D01*
X0101861Y-0037604D01*
X0101846Y-0037526D01*
X0101802Y-0037460D01*
X0101772Y-0037387D01*
X0101772Y-0037387D01*
X0101467Y-0036931D01*
X0101467Y-0036931D01*
X0101411Y-0036875D01*
X0101367Y-0036810D01*
X0101302Y-0036766D01*
X0101246Y-0036710D01*
X0100790Y-0036405D01*
X0100790Y-0036405D01*
X0100717Y-0036375D01*
X0100651Y-0036331D01*
X0100574Y-0036316D01*
X0100501Y-0036285D01*
X0100501D01*
X0099963Y-0036178D01*
X0099963Y-0036178D01*
X0099884D01*
X0099806Y-0036163D01*
D02*
G37*
G36*
X0104900Y-0031293D02*
X0104132Y-0031446D01*
X0103481Y-0031881D01*
X0103046Y-0032532D01*
X0102893Y-0033300D01*
X0103046Y-0034068D01*
X0103481Y-0034719D01*
X0104132Y-0035154D01*
X0104900Y-0035307D01*
X0105668Y-0035154D01*
X0106319Y-0034719D01*
X0106754Y-0034068D01*
X0106907Y-0033300D01*
X0106754Y-0032532D01*
X0106319Y-0031881D01*
X0105668Y-0031446D01*
X0104900Y-0031293D01*
D02*
G37*
G36*
X0035300Y-0027593D02*
X0034532Y-0027746D01*
X0033881Y-0028181D01*
X0033446Y-0028832D01*
X0033293Y-0029600D01*
X0033446Y-0030368D01*
X0033881Y-0031019D01*
Y-0031181D01*
X0033446Y-0031832D01*
X0033293Y-0032600D01*
X0033446Y-0033368D01*
X0033881Y-0034019D01*
X0034532Y-0034454D01*
X0035300Y-0034607D01*
X0036068Y-0034454D01*
X0036719Y-0034019D01*
X0037154Y-0033368D01*
X0037307Y-0032600D01*
X0037268Y-0032403D01*
X0037739Y-0032207D01*
X0038081Y-0032719D01*
X0038732Y-0033154D01*
X0039500Y-0033307D01*
X0040268Y-0033154D01*
X0040919Y-0032719D01*
X0041354Y-0032068D01*
X0041507Y-0031300D01*
X0041354Y-0030532D01*
X0040919Y-0029881D01*
X0040268Y-0029446D01*
X0039500Y-0029293D01*
X0038732Y-0029446D01*
X0038081Y-0029881D01*
X0037646Y-0030532D01*
X0037493Y-0031300D01*
X0037532Y-0031497D01*
X0037061Y-0031693D01*
X0036719Y-0031181D01*
Y-0031019D01*
X0037154Y-0030368D01*
X0037307Y-0029600D01*
X0037154Y-0028832D01*
X0036719Y-0028181D01*
X0036068Y-0027746D01*
X0035300Y-0027593D01*
D02*
G37*
G36*
X0016735Y-0036163D02*
X0016658Y-0036178D01*
X0016579D01*
X0016579Y-0036178D01*
X0016041Y-0036285D01*
X0016041D01*
X0015968Y-0036316D01*
X0015890Y-0036331D01*
X0015825Y-0036375D01*
X0015752Y-0036405D01*
X0015752Y-0036405D01*
X0015296Y-0036710D01*
X0015296Y-0036710D01*
X0015240Y-0036766D01*
X0015174Y-0036810D01*
X0015130Y-0036875D01*
X0015075Y-0036931D01*
X0014770Y-0037387D01*
X0014770Y-0037387D01*
X0014740Y-0037460D01*
X0014696Y-0037526D01*
X0014680Y-0037604D01*
X0014650Y-0037677D01*
Y-0037677D01*
X0014543Y-0038214D01*
X0014543Y-0038214D01*
Y-0038293D01*
X0014528Y-0038371D01*
X0014543Y-0038448D01*
Y-0038528D01*
X0014543Y-0038528D01*
X0014650Y-0039065D01*
Y-0039065D01*
X0014680Y-0039138D01*
X0014696Y-0039216D01*
X0014740Y-0039281D01*
X0014770Y-0039355D01*
X0014770Y-0039355D01*
X0015074Y-0039810D01*
X0015074Y-0039810D01*
X0015130Y-0039866D01*
X0015174Y-0039932D01*
X0015240Y-0039976D01*
X0015296Y-0040032D01*
X0015752Y-0040336D01*
X0015752Y-0040336D01*
X0015825Y-0040367D01*
X0015890Y-0040411D01*
X0015968Y-0040426D01*
X0016041Y-0040456D01*
X0016041D01*
X0016579Y-0040563D01*
X0016579Y-0040563D01*
X0016658D01*
X0016735Y-0040579D01*
X0016813Y-0040563D01*
X0016892D01*
X0016892Y-0040563D01*
X0017430Y-0040456D01*
X0017430D01*
X0017503Y-0040426D01*
X0017580Y-0040411D01*
X0017646Y-0040367D01*
X0017719Y-0040336D01*
X0017719Y-0040336D01*
X0018175Y-0040032D01*
X0018175Y-0040032D01*
X0018231Y-0039976D01*
X0018297Y-0039932D01*
X0018340Y-0039866D01*
X0018396Y-0039810D01*
X0018701Y-0039355D01*
X0018701Y-0039355D01*
X0018731Y-0039281D01*
X0018775Y-0039216D01*
X0018791Y-0039138D01*
X0018821Y-0039065D01*
Y-0039065D01*
X0018928Y-0038528D01*
X0018928Y-0038528D01*
Y-0038448D01*
X0018943Y-0038371D01*
X0018928Y-0038293D01*
Y-0038214D01*
X0018928Y-0038214D01*
X0018821Y-0037677D01*
Y-0037677D01*
X0018791Y-0037604D01*
X0018775Y-0037526D01*
X0018731Y-0037460D01*
X0018701Y-0037387D01*
X0018701Y-0037387D01*
X0018396Y-0036931D01*
X0018396Y-0036931D01*
X0018340Y-0036875D01*
X0018297Y-0036810D01*
X0018231Y-0036766D01*
X0018175Y-0036710D01*
X0017719Y-0036405D01*
X0017719Y-0036405D01*
X0017646Y-0036375D01*
X0017580Y-0036331D01*
X0017503Y-0036316D01*
X0017430Y-0036285D01*
X0017430D01*
X0016892Y-0036178D01*
X0016892Y-0036178D01*
X0016813D01*
X0016735Y-0036163D01*
D02*
G37*
G36*
X0099806Y-0041163D02*
X0099729Y-0041179D01*
X0099650D01*
X0099650Y-0041179D01*
X0099112Y-0041285D01*
X0099112D01*
X0099039Y-0041316D01*
X0098961Y-0041331D01*
X0098896Y-0041375D01*
X0098823Y-0041405D01*
X0098823Y-0041405D01*
X0098367Y-0041710D01*
X0098367Y-0041710D01*
X0098311Y-0041766D01*
X0098245Y-0041810D01*
X0098201Y-0041875D01*
X0098145Y-0041931D01*
X0097841Y-0042387D01*
X0097841Y-0042387D01*
X0097811Y-0042460D01*
X0097767Y-0042526D01*
X0097751Y-0042603D01*
X0097721Y-0042677D01*
Y-0042677D01*
X0097614Y-0043214D01*
X0097614Y-0043214D01*
Y-0043293D01*
X0097598Y-0043371D01*
X0097614Y-0043448D01*
Y-0043527D01*
X0097614Y-0043527D01*
X0097721Y-0044065D01*
Y-0044065D01*
X0097751Y-0044138D01*
X0097767Y-0044216D01*
X0097811Y-0044282D01*
X0097841Y-0044355D01*
X0097841Y-0044355D01*
X0098145Y-0044810D01*
X0098145Y-0044810D01*
X0098201Y-0044866D01*
X0098245Y-0044932D01*
X0098311Y-0044976D01*
X0098367Y-0045032D01*
X0098823Y-0045336D01*
X0098823Y-0045336D01*
X0098896Y-0045367D01*
X0098961Y-0045411D01*
X0099039Y-0045426D01*
X0099112Y-0045456D01*
X0099112D01*
X0099650Y-0045563D01*
X0099650Y-0045563D01*
X0099729D01*
X0099806Y-0045579D01*
X0099884Y-0045563D01*
X0099963D01*
X0099963Y-0045563D01*
X0100501Y-0045456D01*
X0100501D01*
X0100574Y-0045426D01*
X0100651Y-0045411D01*
X0100717Y-0045367D01*
X0100790Y-0045336D01*
X0100790Y-0045336D01*
X0101246Y-0045032D01*
X0101246Y-0045032D01*
X0101569Y-0045398D01*
X0101346Y-0045732D01*
X0101268Y-0046123D01*
X0100975Y-0046296D01*
X0100717Y-0046375D01*
X0100651Y-0046331D01*
X0100574Y-0046316D01*
X0100501Y-0046286D01*
X0100501D01*
X0099963Y-0046178D01*
X0099963Y-0046178D01*
X0099884D01*
X0099806Y-0046163D01*
X0099729Y-0046178D01*
X0099650D01*
X0099650Y-0046178D01*
X0099112Y-0046286D01*
X0099112D01*
X0099039Y-0046316D01*
X0098961Y-0046331D01*
X0098896Y-0046375D01*
X0098823Y-0046405D01*
X0098823Y-0046405D01*
X0098367Y-0046710D01*
X0098367Y-0046710D01*
X0098311Y-0046766D01*
X0098245Y-0046810D01*
X0098201Y-0046875D01*
X0098145Y-0046931D01*
X0097841Y-0047387D01*
X0097841Y-0047387D01*
X0097811Y-0047460D01*
X0097767Y-0047526D01*
X0097751Y-0047603D01*
X0097721Y-0047677D01*
Y-0047677D01*
X0097614Y-0048214D01*
X0097614Y-0048214D01*
Y-0048293D01*
X0097598Y-0048371D01*
X0097614Y-0048448D01*
Y-0048528D01*
X0097614Y-0048528D01*
X0097721Y-0049065D01*
Y-0049065D01*
X0097751Y-0049138D01*
X0097767Y-0049216D01*
X0097811Y-0049281D01*
X0097841Y-0049355D01*
X0097841Y-0049355D01*
X0098145Y-0049810D01*
X0098145Y-0049810D01*
X0098201Y-0049866D01*
X0098245Y-0049932D01*
X0098311Y-0049976D01*
X0098367Y-0050032D01*
X0098823Y-0050336D01*
X0098823Y-0050336D01*
X0098896Y-0050367D01*
X0098961Y-0050411D01*
X0099039Y-0050426D01*
X0099112Y-0050456D01*
X0099112D01*
X0099650Y-0050563D01*
X0099650Y-0050563D01*
X0099729D01*
X0099806Y-0050579D01*
X0099884Y-0050563D01*
X0099963D01*
X0099963Y-0050563D01*
X0100501Y-0050456D01*
X0100501D01*
X0100574Y-0050426D01*
X0100651Y-0050411D01*
X0100717Y-0050367D01*
X0100790Y-0050336D01*
X0100790Y-0050336D01*
X0101246Y-0050032D01*
X0101246Y-0050032D01*
X0101302Y-0049976D01*
X0101367Y-0049932D01*
X0101411Y-0049866D01*
X0101467Y-0049810D01*
X0101772Y-0049355D01*
X0101772Y-0049355D01*
X0101802Y-0049281D01*
X0101846Y-0049216D01*
X0101861Y-0049138D01*
X0101892Y-0049065D01*
Y-0049065D01*
X0101974Y-0048650D01*
X0102373Y-0048393D01*
X0102448Y-0048366D01*
X0102486Y-0048365D01*
X0103200Y-0048507D01*
X0103968Y-0048354D01*
X0104619Y-0047919D01*
X0105054Y-0047268D01*
X0105207Y-0046500D01*
X0105054Y-0045732D01*
X0104619Y-0045081D01*
X0103968Y-0044646D01*
X0103200Y-0044493D01*
X0102432Y-0044646D01*
X0101974Y-0044952D01*
X0101614Y-0044591D01*
X0101772Y-0044355D01*
X0101772Y-0044355D01*
X0101802Y-0044282D01*
X0101846Y-0044216D01*
X0101861Y-0044138D01*
X0101892Y-0044065D01*
Y-0044065D01*
X0101999Y-0043527D01*
X0101999Y-0043527D01*
Y-0043448D01*
X0102014Y-0043371D01*
X0101999Y-0043293D01*
Y-0043214D01*
X0101999Y-0043214D01*
X0101892Y-0042677D01*
Y-0042677D01*
X0101861Y-0042603D01*
X0101846Y-0042526D01*
X0101802Y-0042460D01*
X0101772Y-0042387D01*
X0101772Y-0042387D01*
X0101467Y-0041931D01*
X0101467Y-0041931D01*
X0101411Y-0041875D01*
X0101367Y-0041810D01*
X0101302Y-0041766D01*
X0101246Y-0041710D01*
X0100790Y-0041405D01*
X0100790Y-0041405D01*
X0100717Y-0041375D01*
X0100651Y-0041331D01*
X0100574Y-0041316D01*
X0100501Y-0041285D01*
X0100501D01*
X0099963Y-0041179D01*
X0099963Y-0041179D01*
X0099884D01*
X0099806Y-0041163D01*
D02*
G37*
G36*
X0012500Y-0032793D02*
X0011732Y-0032946D01*
X0011081Y-0033381D01*
X0010646Y-0034032D01*
X0010493Y-0034800D01*
X0010646Y-0035568D01*
X0011081Y-0036219D01*
X0011732Y-0036654D01*
X0012500Y-0036807D01*
X0013268Y-0036654D01*
X0013919Y-0036219D01*
X0014354Y-0035568D01*
X0014507Y-0034800D01*
X0014354Y-0034032D01*
X0013919Y-0033381D01*
X0013268Y-0032946D01*
X0012500Y-0032793D01*
D02*
G37*
G36*
X0043100Y-0032193D02*
X0042332Y-0032346D01*
X0041681Y-0032781D01*
X0041246Y-0033432D01*
X0041093Y-0034200D01*
X0041246Y-0034968D01*
X0041681Y-0035619D01*
X0042332Y-0036054D01*
X0043100Y-0036207D01*
X0043868Y-0036054D01*
X0044519Y-0035619D01*
X0044954Y-0034968D01*
X0045107Y-0034200D01*
X0044954Y-0033432D01*
X0044519Y-0032781D01*
X0043868Y-0032346D01*
X0043100Y-0032193D01*
D02*
G37*
%LPD*%
D38*
X0056500Y-0009059D02*
D03*
X0097150Y-0018850D02*
D03*
X0056700Y-0028300D02*
D03*
X0086900Y-0059072D02*
D03*
X0102900Y-0040165D02*
D03*
X0024700Y-0022600D02*
D03*
X0021700D02*
D03*
X0065828Y-0088400D02*
D03*
X0029300Y-0105098D02*
D03*
X0111600Y-0090600D02*
D03*
X0004924Y-0027098D02*
D03*
X0051700Y-0055900D02*
D03*
X0107582Y-0047000D02*
D03*
X0068900Y-0070800D02*
D03*
X0111600Y-0093200D02*
D03*
X0004924Y-0024517D02*
D03*
X0076466Y-0107966D02*
D03*
X0008959Y-0066959D02*
D03*
X0086800Y-0011602D02*
D03*
X0039841Y-0009059D02*
D03*
X0066459D02*
D03*
X0073400Y-0020800D02*
D03*
X0084800Y-0099000D02*
D03*
X0059500Y-0058400D02*
D03*
X0061800Y-0067700D02*
D03*
X0081800Y-0018500D02*
D03*
X0086500D02*
D03*
X0107600Y-0060200D02*
D03*
X0008959Y-0076559D02*
D03*
M02*
