G04 Layer_Physical_Order=1*
G04 Layer_Color=255*
%FSAX25Y25*%
%MOIN*%
G70*
G01*
G75*
%ADD10R,0.02362X0.01968*%
%ADD11R,0.01968X0.02362*%
%ADD12O,0.05709X0.02165*%
%ADD13O,0.02165X0.05709*%
%ADD14R,0.02441X0.02441*%
%ADD15R,0.05709X0.04528*%
%ADD16C,0.03200*%
%ADD17R,0.02441X0.02441*%
%ADD18R,0.03543X0.03543*%
%ADD19C,0.02000*%
%ADD20C,0.03000*%
%ADD21C,0.00600*%
%ADD22C,0.01800*%
%ADD23C,0.04000*%
%ADD24C,0.01200*%
%ADD25C,0.00591*%
%ADD26C,0.01000*%
%ADD27C,0.00800*%
%ADD28C,0.00400*%
%ADD29C,0.02700*%
%ADD30R,0.15333X0.01440*%
%ADD31R,0.05400X0.04200*%
%ADD32R,0.00430X0.02470*%
G04:AMPARAMS|DCode=33|XSize=3mil|YSize=24.7mil|CornerRadius=0mil|HoleSize=0mil|Usage=FLASHONLY|Rotation=340.000|XOffset=0mil|YOffset=0mil|HoleType=Round|Shape=Rectangle|*
%AMROTATEDRECTD33*
4,1,4,-0.00563,-0.01109,0.00281,0.01212,0.00563,0.01109,-0.00281,-0.01212,-0.00563,-0.01109,0.0*
%
%ADD33ROTATEDRECTD33*%

%ADD34C,0.03937*%
%ADD35C,0.15748*%
%ADD36C,0.02756*%
%ADD37C,0.03150*%
%ADD38C,0.02559*%
G36*
X0032405Y-0076276D02*
X0032667Y-0076444D01*
X0032791Y-0076512D01*
X0032911Y-0076569D01*
X0033026Y-0076616D01*
X0033138Y-0076653D01*
X0033245Y-0076679D01*
X0033347Y-0076695D01*
X0033446Y-0076700D01*
Y-0077700D01*
X0033347Y-0077705D01*
X0033245Y-0077721D01*
X0033138Y-0077747D01*
X0033026Y-0077784D01*
X0032911Y-0077831D01*
X0032791Y-0077888D01*
X0032667Y-0077956D01*
X0032405Y-0078124D01*
X0032268Y-0078223D01*
Y-0076177D01*
X0032405Y-0076276D01*
D02*
G37*
G36*
X0044926Y-0075682D02*
X0044879Y-0075596D01*
X0044817Y-0075538D01*
X0044740Y-0075510D01*
X0044648Y-0075511D01*
X0044541Y-0075542D01*
X0044418Y-0075601D01*
X0044280Y-0075690D01*
X0044128Y-0075807D01*
X0043960Y-0075954D01*
X0043777Y-0076130D01*
X0043164Y-0075329D01*
X0044324Y-0074134D01*
X0044926Y-0075682D01*
D02*
G37*
G36*
X0037199Y-0079208D02*
X0037135Y-0079280D01*
X0037076Y-0079363D01*
X0037022Y-0079458D01*
X0036972Y-0079563D01*
X0036927Y-0079681D01*
X0036887Y-0079809D01*
X0036851Y-0079949D01*
X0036794Y-0080262D01*
X0036772Y-0080436D01*
X0035276Y-0079040D01*
X0035436Y-0079009D01*
X0035727Y-0078934D01*
X0035859Y-0078891D01*
X0036093Y-0078791D01*
X0036196Y-0078736D01*
X0036290Y-0078676D01*
X0036374Y-0078612D01*
X0036449Y-0078544D01*
X0037199Y-0079208D01*
D02*
G37*
G36*
X0063382Y-0077328D02*
X0063395Y-0077515D01*
X0063802D01*
X0063722Y-0077627D01*
X0063586Y-0077853D01*
X0063531Y-0077966D01*
X0063485Y-0078079D01*
X0063477Y-0078101D01*
X0063499Y-0078204D01*
X0063543Y-0078339D01*
X0063593Y-0078460D01*
X0063650Y-0078567D01*
X0063714Y-0078662D01*
X0061844D01*
X0061907Y-0078567D01*
X0061964Y-0078460D01*
X0062015Y-0078339D01*
X0062058Y-0078204D01*
X0062082Y-0078107D01*
X0062073Y-0078079D01*
X0062026Y-0077966D01*
X0061971Y-0077853D01*
X0061908Y-0077740D01*
X0061836Y-0077627D01*
X0061756Y-0077515D01*
X0062166D01*
X0062175Y-0077328D01*
X0062179Y-0077112D01*
X0063379D01*
X0063382Y-0077328D01*
D02*
G37*
G36*
X0005969Y-0072180D02*
X0006075Y-0072241D01*
X0006187Y-0072295D01*
X0006306Y-0072342D01*
X0006432Y-0072381D01*
X0006565Y-0072413D01*
X0006704Y-0072439D01*
X0006803Y-0072451D01*
X0007539Y-0072404D01*
X0007701Y-0072374D01*
X0007827Y-0072339D01*
X0007917Y-0072299D01*
X0007971Y-0072254D01*
X0007989Y-0072203D01*
Y-0074539D01*
X0007971Y-0074488D01*
X0007917Y-0074442D01*
X0007827Y-0074402D01*
X0007701Y-0074367D01*
X0007539Y-0074338D01*
X0007341Y-0074314D01*
X0006892Y-0074285D01*
X0006704Y-0074303D01*
X0006565Y-0074328D01*
X0006432Y-0074361D01*
X0006306Y-0074400D01*
X0006187Y-0074447D01*
X0006075Y-0074501D01*
X0005969Y-0074562D01*
X0005870Y-0074630D01*
Y-0072112D01*
X0005969Y-0072180D01*
D02*
G37*
G36*
X0093553Y-0070672D02*
X0093675Y-0070746D01*
X0093802Y-0070811D01*
X0093935Y-0070868D01*
X0094073Y-0070916D01*
X0094217Y-0070955D01*
X0094367Y-0070985D01*
X0094522Y-0071007D01*
X0094683Y-0071020D01*
X0094849Y-0071024D01*
Y-0072024D01*
X0094683Y-0072029D01*
X0094522Y-0072042D01*
X0094367Y-0072064D01*
X0094217Y-0072094D01*
X0094073Y-0072133D01*
X0093935Y-0072181D01*
X0093802Y-0072238D01*
X0093675Y-0072303D01*
X0093553Y-0072377D01*
X0093437Y-0072460D01*
Y-0070589D01*
X0093553Y-0070672D01*
D02*
G37*
G36*
X0014224Y-0073618D02*
X0014213Y-0073676D01*
X0014217Y-0073742D01*
X0014237Y-0073814D01*
X0014273Y-0073894D01*
X0014323Y-0073981D01*
X0014389Y-0074076D01*
X0014471Y-0074177D01*
X0014679Y-0074402D01*
X0014399Y-0074957D01*
X0014270Y-0074832D01*
X0014044Y-0074638D01*
X0013945Y-0074568D01*
X0013857Y-0074516D01*
X0013778Y-0074482D01*
X0013710Y-0074466D01*
X0013651Y-0074468D01*
X0013602Y-0074489D01*
X0013563Y-0074527D01*
X0014250Y-0073567D01*
X0014224Y-0073618D01*
D02*
G37*
G36*
X0110672Y-0074630D02*
X0110597Y-0074581D01*
X0110512Y-0074537D01*
X0110417Y-0074498D01*
X0110311Y-0074464D01*
X0110195Y-0074436D01*
X0110068Y-0074412D01*
X0109783Y-0074381D01*
X0109625Y-0074374D01*
X0109456Y-0074371D01*
Y-0072371D01*
X0109625Y-0072368D01*
X0110068Y-0072329D01*
X0110195Y-0072306D01*
X0110311Y-0072277D01*
X0110417Y-0072244D01*
X0110512Y-0072205D01*
X0110597Y-0072161D01*
X0110672Y-0072112D01*
Y-0074630D01*
D02*
G37*
G36*
X0042929Y-0079378D02*
X0042863Y-0079451D01*
X0042801Y-0079535D01*
X0042744Y-0079629D01*
X0042691Y-0079734D01*
X0042643Y-0079849D01*
X0042599Y-0079974D01*
X0042559Y-0080109D01*
X0042493Y-0080412D01*
X0042467Y-0080578D01*
X0041022Y-0079133D01*
X0041188Y-0079107D01*
X0041491Y-0079041D01*
X0041626Y-0079001D01*
X0041751Y-0078957D01*
X0041866Y-0078908D01*
X0041971Y-0078856D01*
X0042065Y-0078799D01*
X0042149Y-0078737D01*
X0042222Y-0078671D01*
X0042929Y-0079378D01*
D02*
G37*
G36*
X0082548Y-0083379D02*
X0082491Y-0083487D01*
X0082441Y-0083608D01*
X0082397Y-0083742D01*
X0082360Y-0083891D01*
X0082330Y-0084052D01*
X0082290Y-0084416D01*
X0082280Y-0084618D01*
X0082276Y-0084834D01*
X0081076D01*
X0081073Y-0084618D01*
X0081046Y-0084227D01*
X0081023Y-0084052D01*
X0080956Y-0083742D01*
X0080912Y-0083608D01*
X0080862Y-0083487D01*
X0080805Y-0083379D01*
X0080741Y-0083285D01*
X0082612D01*
X0082548Y-0083379D01*
D02*
G37*
G36*
X0054182Y-0083401D02*
X0054109Y-0083523D01*
X0054043Y-0083650D01*
X0053987Y-0083783D01*
X0053939Y-0083921D01*
X0053900Y-0084065D01*
X0053869Y-0084215D01*
X0053847Y-0084370D01*
X0053834Y-0084531D01*
X0053830Y-0084697D01*
X0052830D01*
X0052826Y-0084531D01*
X0052812Y-0084370D01*
X0052791Y-0084215D01*
X0052760Y-0084065D01*
X0052721Y-0083921D01*
X0052673Y-0083783D01*
X0052617Y-0083650D01*
X0052551Y-0083523D01*
X0052477Y-0083401D01*
X0052395Y-0083285D01*
X0054265D01*
X0054182Y-0083401D01*
D02*
G37*
G36*
X0069980Y-0083024D02*
X0070121D01*
X0070094Y-0083108D01*
X0070070Y-0083219D01*
X0070048Y-0083359D01*
X0070020Y-0083661D01*
X0070032Y-0083811D01*
X0070074Y-0084044D01*
X0070128Y-0084242D01*
X0070194Y-0084404D01*
X0070272Y-0084531D01*
X0070363Y-0084620D01*
X0070465Y-0084675D01*
X0070579Y-0084693D01*
X0069982D01*
X0069978Y-0085131D01*
X0068178D01*
X0068177Y-0084793D01*
X0068171Y-0084693D01*
X0068164D01*
X0068167Y-0084675D01*
X0068168Y-0084645D01*
X0068086Y-0083219D01*
X0068062Y-0083108D01*
X0068035Y-0083024D01*
X0068177D01*
X0068178Y-0082893D01*
X0069978D01*
X0069980Y-0083024D01*
D02*
G37*
G36*
X0079398Y-0083379D02*
X0079341Y-0083487D01*
X0079291Y-0083608D01*
X0079247Y-0083742D01*
X0079211Y-0083891D01*
X0079180Y-0084052D01*
X0079140Y-0084416D01*
X0079130Y-0084618D01*
X0079127Y-0084834D01*
X0077927D01*
X0077923Y-0084618D01*
X0077897Y-0084227D01*
X0077873Y-0084052D01*
X0077806Y-0083742D01*
X0077763Y-0083608D01*
X0077712Y-0083487D01*
X0077655Y-0083379D01*
X0077592Y-0083285D01*
X0079462D01*
X0079398Y-0083379D01*
D02*
G37*
G36*
X0063631Y-0083401D02*
X0063557Y-0083523D01*
X0063492Y-0083650D01*
X0063435Y-0083783D01*
X0063388Y-0083921D01*
X0063348Y-0084065D01*
X0063318Y-0084215D01*
X0063296Y-0084370D01*
X0063283Y-0084531D01*
X0063279Y-0084697D01*
X0062279D01*
X0062274Y-0084531D01*
X0062261Y-0084370D01*
X0062240Y-0084215D01*
X0062209Y-0084065D01*
X0062170Y-0083921D01*
X0062122Y-0083783D01*
X0062066Y-0083650D01*
X0062000Y-0083523D01*
X0061926Y-0083401D01*
X0061844Y-0083285D01*
X0063714D01*
X0063631Y-0083401D01*
D02*
G37*
G36*
X0106836Y-0079256D02*
X0106807Y-0079316D01*
X0106782Y-0079416D01*
X0106760Y-0079556D01*
X0106741Y-0079736D01*
X0106708Y-0080468D01*
X0106723Y-0080920D01*
X0106754Y-0081220D01*
X0106796Y-0081480D01*
X0106850Y-0081700D01*
X0106915Y-0081880D01*
X0106993Y-0082020D01*
X0107083Y-0082120D01*
X0107185Y-0082180D01*
X0107299Y-0082200D01*
X0107253Y-0082209D01*
Y-0082800D01*
X0107192Y-0082805D01*
X0107123Y-0082820D01*
X0107047Y-0082845D01*
X0106963Y-0082880D01*
X0106871Y-0082925D01*
X0106665Y-0083045D01*
X0106551Y-0083120D01*
X0106300Y-0083300D01*
Y-0082387D01*
X0105700Y-0082500D01*
Y-0082800D01*
X0105688Y-0082801D01*
X0105679Y-0082804D01*
X0105671Y-0082810D01*
X0105666Y-0082818D01*
X0105664Y-0082828D01*
X0105663Y-0082840D01*
X0105665Y-0082854D01*
X0105668Y-0082871D01*
X0105674Y-0082889D01*
X0105682Y-0082910D01*
X0105321Y-0082545D01*
X0104093Y-0082692D01*
X0104208Y-0082557D01*
X0104311Y-0082394D01*
X0104402Y-0082203D01*
X0104481Y-0081984D01*
X0104548Y-0081737D01*
X0104602Y-0081463D01*
X0104645Y-0081160D01*
X0104682Y-0080630D01*
X0104592Y-0079316D01*
X0104563Y-0079256D01*
X0104531Y-0079236D01*
X0106868D01*
X0106836Y-0079256D01*
D02*
G37*
G36*
X0057332Y-0083401D02*
X0057258Y-0083523D01*
X0057193Y-0083650D01*
X0057136Y-0083783D01*
X0057088Y-0083921D01*
X0057049Y-0084065D01*
X0057019Y-0084215D01*
X0056997Y-0084370D01*
X0056984Y-0084531D01*
X0056980Y-0084697D01*
X0055980D01*
X0055975Y-0084531D01*
X0055962Y-0084370D01*
X0055940Y-0084215D01*
X0055910Y-0084065D01*
X0055871Y-0083921D01*
X0055823Y-0083783D01*
X0055766Y-0083650D01*
X0055701Y-0083523D01*
X0055627Y-0083401D01*
X0055544Y-0083285D01*
X0057415D01*
X0057332Y-0083401D01*
D02*
G37*
G36*
X0060482D02*
X0060408Y-0083523D01*
X0060342Y-0083650D01*
X0060286Y-0083783D01*
X0060238Y-0083921D01*
X0060199Y-0084065D01*
X0060168Y-0084215D01*
X0060147Y-0084370D01*
X0060133Y-0084531D01*
X0060129Y-0084697D01*
X0059129D01*
X0059125Y-0084531D01*
X0059112Y-0084370D01*
X0059090Y-0084215D01*
X0059060Y-0084065D01*
X0059020Y-0083921D01*
X0058973Y-0083783D01*
X0058916Y-0083650D01*
X0058851Y-0083523D01*
X0058777Y-0083401D01*
X0058694Y-0083285D01*
X0060564D01*
X0060482Y-0083401D01*
D02*
G37*
G36*
X0102978Y-0064527D02*
X0102939Y-0064489D01*
X0102890Y-0064468D01*
X0102832Y-0064466D01*
X0102763Y-0064482D01*
X0102684Y-0064516D01*
X0102596Y-0064568D01*
X0102497Y-0064638D01*
X0102389Y-0064726D01*
X0102143Y-0064957D01*
X0101862Y-0064402D01*
X0101974Y-0064285D01*
X0102152Y-0064075D01*
X0102218Y-0063981D01*
X0102269Y-0063894D01*
X0102304Y-0063814D01*
X0102324Y-0063741D01*
X0102329Y-0063676D01*
X0102318Y-0063617D01*
X0102292Y-0063566D01*
X0102978Y-0064527D01*
D02*
G37*
G36*
X0044550Y-0062866D02*
X0044539Y-0062792D01*
X0044507Y-0062726D01*
X0044453Y-0062667D01*
X0044377Y-0062616D01*
X0044279Y-0062573D01*
X0044160Y-0062538D01*
X0044019Y-0062511D01*
X0043856Y-0062491D01*
X0043672Y-0062480D01*
X0043466Y-0062476D01*
Y-0061676D01*
X0043672Y-0061672D01*
X0044019Y-0061640D01*
X0044160Y-0061613D01*
X0044279Y-0061578D01*
X0044377Y-0061535D01*
X0044453Y-0061484D01*
X0044507Y-0061426D01*
X0044539Y-0061359D01*
X0044550Y-0061285D01*
Y-0062866D01*
D02*
G37*
G36*
X0013567Y-0064220D02*
X0013601Y-0064273D01*
X0013657Y-0064333D01*
X0013736Y-0064401D01*
X0013838Y-0064476D01*
X0014108Y-0064648D01*
X0014468Y-0064849D01*
X0014682Y-0064961D01*
X0012845Y-0065850D01*
X0012868Y-0065726D01*
X0012935Y-0065177D01*
X0012952Y-0064908D01*
X0012939Y-0064828D01*
X0012918Y-0064752D01*
X0012892Y-0064687D01*
X0012859Y-0064634D01*
X0012821Y-0064592D01*
X0012777Y-0064563D01*
X0012726Y-0064545D01*
X0012670Y-0064539D01*
X0012962D01*
X0012966Y-0064366D01*
X0013556Y-0064174D01*
X0013567Y-0064220D01*
D02*
G37*
G36*
X0005969Y-0062180D02*
X0006075Y-0062241D01*
X0006187Y-0062295D01*
X0006306Y-0062341D01*
X0006432Y-0062381D01*
X0006565Y-0062413D01*
X0006704Y-0062438D01*
X0006803Y-0062451D01*
X0007539Y-0062404D01*
X0007701Y-0062374D01*
X0007827Y-0062340D01*
X0007917Y-0062299D01*
X0007971Y-0062254D01*
X0007989Y-0062203D01*
Y-0064539D01*
X0007971Y-0064488D01*
X0007917Y-0064442D01*
X0007827Y-0064402D01*
X0007701Y-0064367D01*
X0007539Y-0064338D01*
X0007341Y-0064314D01*
X0006892Y-0064285D01*
X0006704Y-0064303D01*
X0006565Y-0064328D01*
X0006432Y-0064361D01*
X0006306Y-0064400D01*
X0006187Y-0064447D01*
X0006075Y-0064501D01*
X0005969Y-0064562D01*
X0005870Y-0064630D01*
Y-0062112D01*
X0005969Y-0062180D01*
D02*
G37*
G36*
X0051034Y-0058204D02*
X0050582Y-0060199D01*
X0050531Y-0060147D01*
X0050470Y-0060101D01*
X0050400Y-0060060D01*
X0050320Y-0060024D01*
X0050230Y-0059994D01*
X0050131Y-0059970D01*
X0050022Y-0059951D01*
X0049903Y-0059937D01*
X0049637Y-0059926D01*
X0049591Y-0057926D01*
X0051034Y-0058204D01*
D02*
G37*
G36*
X0087682Y-0058053D02*
X0087710Y-0058057D01*
X0087753Y-0058060D01*
X0088189Y-0058071D01*
X0088466Y-0058072D01*
Y-0060072D01*
X0087668Y-0060095D01*
Y-0058048D01*
X0087682Y-0058053D01*
D02*
G37*
G36*
X0110672Y-0064630D02*
X0110573Y-0064562D01*
X0110467Y-0064501D01*
X0110354Y-0064447D01*
X0110235Y-0064400D01*
X0110110Y-0064361D01*
X0109977Y-0064328D01*
X0109838Y-0064303D01*
X0109738Y-0064291D01*
X0109003Y-0064338D01*
X0108841Y-0064367D01*
X0108715Y-0064402D01*
X0108625Y-0064442D01*
X0108571Y-0064488D01*
X0108553Y-0064539D01*
Y-0062203D01*
X0108571Y-0062254D01*
X0108625Y-0062299D01*
X0108715Y-0062340D01*
X0108841Y-0062374D01*
X0109003Y-0062404D01*
X0109201Y-0062428D01*
X0109650Y-0062457D01*
X0109838Y-0062438D01*
X0109977Y-0062413D01*
X0110110Y-0062381D01*
X0110235Y-0062341D01*
X0110354Y-0062295D01*
X0110467Y-0062241D01*
X0110573Y-0062180D01*
X0110672Y-0062112D01*
Y-0064630D01*
D02*
G37*
G36*
X0098716Y-0060513D02*
X0098748Y-0060531D01*
X0098782Y-0060546D01*
X0098819Y-0060560D01*
X0098858Y-0060571D01*
X0098899Y-0060581D01*
X0098943Y-0060588D01*
X0098990Y-0060593D01*
X0099091Y-0060598D01*
Y-0061188D01*
X0099039Y-0061189D01*
X0098943Y-0061198D01*
X0098899Y-0061205D01*
X0098858Y-0061214D01*
X0098819Y-0061226D01*
X0098782Y-0061239D01*
X0098748Y-0061255D01*
X0098716Y-0061273D01*
X0098687Y-0061293D01*
Y-0060493D01*
X0098716Y-0060513D01*
D02*
G37*
G36*
X0044719Y-0066160D02*
X0044603Y-0066078D01*
X0044481Y-0066004D01*
X0044354Y-0065939D01*
X0044221Y-0065882D01*
X0044083Y-0065834D01*
X0043939Y-0065795D01*
X0043789Y-0065764D01*
X0043634Y-0065743D01*
X0043473Y-0065729D01*
X0043307Y-0065725D01*
Y-0064725D01*
X0043473Y-0064721D01*
X0043634Y-0064708D01*
X0043789Y-0064686D01*
X0043939Y-0064656D01*
X0044083Y-0064616D01*
X0044221Y-0064569D01*
X0044354Y-0064512D01*
X0044481Y-0064447D01*
X0044603Y-0064373D01*
X0044719Y-0064290D01*
Y-0066160D01*
D02*
G37*
G36*
X0103201Y-0069456D02*
X0103165Y-0069415D01*
X0103118Y-0069393D01*
X0103061Y-0069389D01*
X0102994Y-0069404D01*
X0102915Y-0069438D01*
X0102826Y-0069490D01*
X0102727Y-0069561D01*
X0102617Y-0069651D01*
X0102366Y-0069885D01*
X0102145Y-0069271D01*
X0102255Y-0069158D01*
X0102429Y-0068951D01*
X0102494Y-0068857D01*
X0102545Y-0068770D01*
X0102580Y-0068690D01*
X0102601Y-0068617D01*
X0102607Y-0068550D01*
X0102598Y-0068489D01*
X0102575Y-0068436D01*
X0103201Y-0069456D01*
D02*
G37*
G36*
X0043282Y-0067356D02*
X0043310Y-0067360D01*
X0043353Y-0067364D01*
X0043789Y-0067374D01*
X0044066Y-0067375D01*
Y-0069375D01*
X0043268Y-0069398D01*
Y-0067352D01*
X0043282Y-0067356D01*
D02*
G37*
G36*
X0096585Y-0072206D02*
X0096496Y-0072172D01*
X0096304Y-0072114D01*
X0096203Y-0072090D01*
X0095988Y-0072053D01*
X0095874Y-0072041D01*
X0095510Y-0072024D01*
X0095028Y-0071024D01*
X0095113Y-0071016D01*
X0095201Y-0070992D01*
X0095294Y-0070952D01*
X0095392Y-0070897D01*
X0095495Y-0070825D01*
X0095602Y-0070737D01*
X0095714Y-0070633D01*
X0095951Y-0070377D01*
X0096076Y-0070225D01*
X0096585Y-0072206D01*
D02*
G37*
G36*
X0097943Y-0070056D02*
X0098686Y-0070455D01*
X0098794Y-0070498D01*
X0098887Y-0070529D01*
X0098967Y-0070547D01*
X0099033Y-0070554D01*
X0099117Y-0071144D01*
X0099059Y-0071152D01*
X0098987Y-0071177D01*
X0098902Y-0071219D01*
X0098804Y-0071277D01*
X0098692Y-0071352D01*
X0098427Y-0071552D01*
X0097929Y-0071978D01*
X0097753Y-0069939D01*
X0097943Y-0070056D01*
D02*
G37*
G36*
X0110702Y-0067299D02*
X0110836Y-0067300D01*
Y-0069300D01*
X0110645Y-0069301D01*
X0110636Y-0069603D01*
X0110556Y-0069545D01*
X0110465Y-0069494D01*
X0110365Y-0069448D01*
X0110256Y-0069409D01*
X0110137Y-0069376D01*
X0110009Y-0069348D01*
X0109937Y-0069337D01*
X0108916Y-0069407D01*
X0108856Y-0069436D01*
X0108836Y-0069468D01*
Y-0067132D01*
X0108856Y-0067164D01*
X0108916Y-0067192D01*
X0109016Y-0067217D01*
X0109156Y-0067239D01*
X0109336Y-0067258D01*
X0109893Y-0067283D01*
X0110134Y-0067265D01*
X0110259Y-0067246D01*
X0110473Y-0067195D01*
X0110563Y-0067163D01*
X0110641Y-0067126D01*
X0110707Y-0067085D01*
X0110702Y-0067299D01*
D02*
G37*
G36*
X0097571Y-0065255D02*
X0098298Y-0065506D01*
X0098409Y-0065533D01*
X0098595Y-0065564D01*
X0098670Y-0065568D01*
X0098931Y-0066158D01*
X0098879Y-0066168D01*
X0098816Y-0066199D01*
X0098742Y-0066249D01*
X0098656Y-0066319D01*
X0098558Y-0066409D01*
X0098329Y-0066650D01*
X0097899Y-0067162D01*
X0097390Y-0065181D01*
X0097571Y-0065255D01*
D02*
G37*
G36*
X0093474Y-0067549D02*
X0093516Y-0067617D01*
X0093585Y-0067678D01*
X0093682Y-0067730D01*
X0093807Y-0067774D01*
X0093960Y-0067810D01*
X0094141Y-0067839D01*
X0094349Y-0067859D01*
X0094849Y-0067875D01*
Y-0068875D01*
X0094585Y-0068879D01*
X0094141Y-0068911D01*
X0093960Y-0068939D01*
X0093807Y-0068975D01*
X0093682Y-0069020D01*
X0093585Y-0069072D01*
X0093516Y-0069132D01*
X0093474Y-0069200D01*
X0093460Y-0069277D01*
Y-0067473D01*
X0093474Y-0067549D01*
D02*
G37*
G36*
X0097080Y-0067630D02*
X0096913Y-0067657D01*
X0096610Y-0067723D01*
X0096474Y-0067763D01*
X0096348Y-0067807D01*
X0096233Y-0067855D01*
X0096129Y-0067908D01*
X0096035Y-0067965D01*
X0095951Y-0068027D01*
X0095878Y-0068092D01*
X0095171Y-0067385D01*
X0095236Y-0067312D01*
X0095298Y-0067229D01*
X0095355Y-0067134D01*
X0095408Y-0067030D01*
X0095456Y-0066915D01*
X0095500Y-0066789D01*
X0095540Y-0066654D01*
X0095606Y-0066350D01*
X0095633Y-0066183D01*
X0097080Y-0067630D01*
D02*
G37*
G36*
X0066829Y-0083024D02*
X0066971D01*
X0066944Y-0083108D01*
X0066920Y-0083219D01*
X0066899Y-0083359D01*
X0066864Y-0083724D01*
X0066863Y-0083757D01*
X0066903Y-0084404D01*
X0066930Y-0084531D01*
X0066961Y-0084620D01*
X0066996Y-0084675D01*
X0067036Y-0084693D01*
X0066832D01*
X0066828Y-0085131D01*
X0065028D01*
X0065027Y-0084793D01*
X0065021Y-0084693D01*
X0064621D01*
X0064698Y-0084675D01*
X0064768Y-0084620D01*
X0064829Y-0084531D01*
X0064882Y-0084404D01*
X0064926Y-0084242D01*
X0064963Y-0084044D01*
X0064977Y-0083928D01*
X0064937Y-0083219D01*
X0064912Y-0083108D01*
X0064885Y-0083024D01*
X0065027D01*
X0065028Y-0082893D01*
X0066828D01*
X0066829Y-0083024D01*
D02*
G37*
G36*
X0033666Y-0104631D02*
X0033717Y-0104645D01*
X0033789Y-0104658D01*
X0033881Y-0104669D01*
X0034279Y-0104692D01*
X0034860Y-0104700D01*
Y-0106700D01*
X0034558Y-0106690D01*
X0034524Y-0106742D01*
X0034504Y-0106772D01*
X0034449Y-0106871D01*
X0034369Y-0107047D01*
X0034344Y-0107123D01*
X0034329Y-0107192D01*
X0034324Y-0107254D01*
X0033743D01*
X0033724Y-0107269D01*
X0033713Y-0107215D01*
X0033682Y-0107164D01*
X0033629Y-0107117D01*
X0033555Y-0107072D01*
X0033460Y-0107031D01*
X0033344Y-0106992D01*
X0033207Y-0106957D01*
X0032869Y-0106895D01*
X0032669Y-0106869D01*
X0033227Y-0106304D01*
X0033224Y-0106300D01*
X0033231D01*
X0033569Y-0105959D01*
X0033636Y-0104614D01*
X0033666Y-0104631D01*
D02*
G37*
G36*
X0067413Y-0102356D02*
X0067621Y-0102531D01*
X0067714Y-0102596D01*
X0067801Y-0102646D01*
X0067881Y-0102682D01*
X0067955Y-0102703D01*
X0068021Y-0102708D01*
X0068081Y-0102699D01*
X0068134Y-0102675D01*
X0067125Y-0103312D01*
X0067165Y-0103275D01*
X0067187Y-0103228D01*
X0067190Y-0103171D01*
X0067175Y-0103103D01*
X0067142Y-0103025D01*
X0067089Y-0102936D01*
X0067019Y-0102837D01*
X0066929Y-0102727D01*
X0066695Y-0102477D01*
X0067299Y-0102246D01*
X0067413Y-0102356D01*
D02*
G37*
G36*
X0074388Y-0108955D02*
X0074343Y-0109009D01*
X0074302Y-0109099D01*
X0074267Y-0109225D01*
X0074238Y-0109387D01*
X0074214Y-0109585D01*
X0074193Y-0109913D01*
X0074203Y-0110021D01*
X0074228Y-0110160D01*
X0074261Y-0110292D01*
X0074300Y-0110418D01*
X0074347Y-0110537D01*
X0074401Y-0110650D01*
X0074462Y-0110756D01*
X0074530Y-0110854D01*
X0072012D01*
X0072080Y-0110756D01*
X0072141Y-0110650D01*
X0072195Y-0110537D01*
X0072241Y-0110418D01*
X0072281Y-0110292D01*
X0072313Y-0110160D01*
X0072338Y-0110021D01*
X0072342Y-0109990D01*
X0072304Y-0109387D01*
X0072274Y-0109225D01*
X0072240Y-0109099D01*
X0072199Y-0109009D01*
X0072154Y-0108955D01*
X0072103Y-0108937D01*
X0074439D01*
X0074388Y-0108955D01*
D02*
G37*
G36*
X0037563Y-0106868D02*
X0037543Y-0106836D01*
X0037483Y-0106807D01*
X0037383Y-0106782D01*
X0037243Y-0106760D01*
X0037063Y-0106742D01*
X0036283Y-0106707D01*
X0035563Y-0106700D01*
Y-0104700D01*
X0035943Y-0104698D01*
X0037483Y-0104592D01*
X0037543Y-0104564D01*
X0037563Y-0104532D01*
Y-0106868D01*
D02*
G37*
G36*
X0074857Y-0102467D02*
X0074730Y-0102598D01*
X0074532Y-0102828D01*
X0074461Y-0102927D01*
X0074409Y-0103016D01*
X0074375Y-0103094D01*
X0074360Y-0103162D01*
X0074364Y-0103219D01*
X0074386Y-0103266D01*
X0074427Y-0103302D01*
X0073407Y-0102675D01*
X0073461Y-0102699D01*
X0073521Y-0102708D01*
X0073588Y-0102702D01*
X0073662Y-0102681D01*
X0073742Y-0102645D01*
X0073829Y-0102595D01*
X0073922Y-0102530D01*
X0074022Y-0102450D01*
X0074243Y-0102246D01*
X0074857Y-0102467D01*
D02*
G37*
G36*
X0076129Y-0098037D02*
X0076111Y-0098068D01*
X0076095Y-0098103D01*
X0076082Y-0098139D01*
X0076079Y-0098147D01*
X0076704Y-0098114D01*
X0076578Y-0098304D01*
X0076149Y-0099042D01*
X0076103Y-0099148D01*
X0076070Y-0099240D01*
X0076051Y-0099318D01*
X0076044Y-0099383D01*
X0075453Y-0099434D01*
X0075445Y-0099374D01*
X0075422Y-0099301D01*
X0075382Y-0099214D01*
X0075327Y-0099113D01*
X0075255Y-0098999D01*
X0075065Y-0098729D01*
X0074660Y-0098221D01*
X0075428Y-0098181D01*
X0075427Y-0098178D01*
X0075416Y-0098139D01*
X0075402Y-0098103D01*
X0075387Y-0098068D01*
X0075369Y-0098037D01*
X0075349Y-0098008D01*
X0076148D01*
X0076129Y-0098037D01*
D02*
G37*
G36*
X0062413Y-0102355D02*
X0062620Y-0102530D01*
X0062713Y-0102595D01*
X0062800Y-0102645D01*
X0062880Y-0102681D01*
X0062954Y-0102702D01*
X0063021Y-0102708D01*
X0063081Y-0102699D01*
X0063134Y-0102675D01*
X0062115Y-0103302D01*
X0062156Y-0103266D01*
X0062178Y-0103219D01*
X0062182Y-0103162D01*
X0062167Y-0103094D01*
X0062133Y-0103016D01*
X0062081Y-0102927D01*
X0062010Y-0102828D01*
X0061920Y-0102718D01*
X0061685Y-0102467D01*
X0062299Y-0102246D01*
X0062413Y-0102355D01*
D02*
G37*
G36*
X0052413Y-0102355D02*
X0052620Y-0102530D01*
X0052714Y-0102595D01*
X0052800Y-0102645D01*
X0052881Y-0102681D01*
X0052954Y-0102701D01*
X0053021Y-0102708D01*
X0053081Y-0102699D01*
X0053135Y-0102675D01*
X0052115Y-0103302D01*
X0052156Y-0103266D01*
X0052178Y-0103219D01*
X0052182Y-0103162D01*
X0052167Y-0103094D01*
X0052133Y-0103016D01*
X0052081Y-0102927D01*
X0052010Y-0102828D01*
X0051920Y-0102718D01*
X0051685Y-0102467D01*
X0052300Y-0102246D01*
X0052413Y-0102355D01*
D02*
G37*
G36*
X0064388Y-0108955D02*
X0064342Y-0109009D01*
X0064302Y-0109099D01*
X0064267Y-0109225D01*
X0064238Y-0109387D01*
X0064214Y-0109585D01*
X0064193Y-0109913D01*
X0064203Y-0110021D01*
X0064228Y-0110160D01*
X0064261Y-0110292D01*
X0064300Y-0110418D01*
X0064347Y-0110537D01*
X0064401Y-0110650D01*
X0064462Y-0110756D01*
X0064530Y-0110854D01*
X0062012D01*
X0062080Y-0110756D01*
X0062141Y-0110650D01*
X0062195Y-0110537D01*
X0062242Y-0110418D01*
X0062281Y-0110292D01*
X0062313Y-0110160D01*
X0062339Y-0110021D01*
X0062342Y-0109990D01*
X0062304Y-0109387D01*
X0062274Y-0109225D01*
X0062239Y-0109099D01*
X0062199Y-0109009D01*
X0062154Y-0108955D01*
X0062103Y-0108937D01*
X0064439D01*
X0064388Y-0108955D01*
D02*
G37*
G36*
X0022420Y-0089064D02*
Y-0092768D01*
X0019140D01*
Y-0092202D01*
X0019522D01*
Y-0091546D01*
X0019140D01*
Y-0089673D01*
X0018403D01*
X0016861Y-0091511D01*
Y-0092202D01*
X0018403D01*
Y-0092768D01*
X0016484D01*
Y-0089724D01*
X0015245D01*
X0014771Y-0091580D01*
X0014303Y-0089724D01*
X0013064D01*
Y-0092768D01*
X0012567D01*
Y-0092077D01*
X0010940D01*
Y-0091477D01*
X0012408D01*
Y-0090855D01*
X0010940D01*
Y-0090375D01*
X0012522D01*
Y-0089724D01*
X0009998D01*
Y-0092768D01*
X0007100D01*
Y-0089064D01*
Y-0084300D01*
X0022420D01*
Y-0089064D01*
D02*
G37*
G36*
X0018403Y-0091546D02*
X0017581D01*
X0018403Y-0090586D01*
Y-0091546D01*
D02*
G37*
G36*
X0014423Y-0092768D02*
X0013835D01*
Y-0090449D01*
X0014423Y-0092768D01*
D02*
G37*
G36*
X0015714D02*
X0015120D01*
X0015714Y-0090449D01*
Y-0092768D01*
D02*
G37*
G36*
X0044273Y-0109808D02*
X0044312Y-0110251D01*
X0044336Y-0110378D01*
X0044364Y-0110494D01*
X0044398Y-0110600D01*
X0044437Y-0110695D01*
X0044481Y-0110780D01*
X0044530Y-0110854D01*
X0042012D01*
X0042061Y-0110780D01*
X0042105Y-0110695D01*
X0042144Y-0110600D01*
X0042178Y-0110494D01*
X0042206Y-0110378D01*
X0042229Y-0110251D01*
X0042261Y-0109966D01*
X0042268Y-0109808D01*
X0042271Y-0109639D01*
X0044271D01*
X0044273Y-0109808D01*
D02*
G37*
G36*
X0054388Y-0108955D02*
X0054343Y-0109009D01*
X0054302Y-0109099D01*
X0054267Y-0109225D01*
X0054238Y-0109387D01*
X0054214Y-0109585D01*
X0054193Y-0109913D01*
X0054203Y-0110021D01*
X0054228Y-0110160D01*
X0054261Y-0110292D01*
X0054300Y-0110418D01*
X0054347Y-0110537D01*
X0054401Y-0110650D01*
X0054462Y-0110756D01*
X0054530Y-0110854D01*
X0052012D01*
X0052080Y-0110756D01*
X0052141Y-0110650D01*
X0052195Y-0110537D01*
X0052241Y-0110418D01*
X0052281Y-0110292D01*
X0052313Y-0110160D01*
X0052338Y-0110021D01*
X0052342Y-0109990D01*
X0052304Y-0109387D01*
X0052274Y-0109225D01*
X0052240Y-0109099D01*
X0052199Y-0109009D01*
X0052154Y-0108955D01*
X0052103Y-0108937D01*
X0054439D01*
X0054388Y-0108955D01*
D02*
G37*
G36*
X0009058Y-0097741D02*
X0010028Y-0097741D01*
X0011929Y-0098119D01*
X0013721Y-0098861D01*
X0015333Y-0099938D01*
X0016703Y-0101309D01*
X0017781Y-0102921D01*
X0018523Y-0104712D01*
X0018901Y-0106614D01*
Y-0107086D01*
X0019206Y-0107439D01*
X0019794Y-0107991D01*
X0020321Y-0108420D01*
X0020787Y-0108727D01*
X0020971Y-0108811D01*
X0021399Y-0108785D01*
X0021519Y-0108736D01*
X0021559Y-0108680D01*
Y-0113181D01*
X0021519Y-0113142D01*
X0021399Y-0113106D01*
X0021199Y-0113075D01*
X0020919Y-0113048D01*
X0019599Y-0112991D01*
X0019131Y-0112987D01*
X0018993Y-0112992D01*
X0018901Y-0113001D01*
X0018901Y-0115450D01*
X0009160Y-0115450D01*
X0008373D01*
X0006829Y-0115143D01*
X0005375Y-0114541D01*
X0004067Y-0113666D01*
X0002954Y-0112553D01*
X0002079Y-0111245D01*
X0001477Y-0109791D01*
X0001170Y-0108247D01*
Y-0107460D01*
Y-0097741D01*
X0009058D01*
X0009058Y-0097741D01*
D02*
G37*
G36*
X0069415Y-0108957D02*
X0069385Y-0109017D01*
X0069358Y-0109117D01*
X0069335Y-0109257D01*
X0069315Y-0109437D01*
X0069289Y-0109985D01*
X0069312Y-0110251D01*
X0069336Y-0110378D01*
X0069364Y-0110494D01*
X0069398Y-0110600D01*
X0069437Y-0110695D01*
X0069481Y-0110780D01*
X0069530Y-0110854D01*
X0069272D01*
X0069271Y-0110937D01*
X0067271D01*
X0067270Y-0110854D01*
X0067012D01*
X0067061Y-0110780D01*
X0067105Y-0110695D01*
X0067144Y-0110600D01*
X0067177Y-0110494D01*
X0067206Y-0110378D01*
X0067229Y-0110251D01*
X0067242Y-0110135D01*
X0067170Y-0109017D01*
X0067143Y-0108957D01*
X0067113Y-0108937D01*
X0069449D01*
X0069415Y-0108957D01*
D02*
G37*
G36*
X0088124Y-0090505D02*
X0087956Y-0090767D01*
X0087911Y-0090849D01*
X0088200D01*
X0088105Y-0090934D01*
X0088020Y-0091028D01*
X0087945Y-0091132D01*
X0087880Y-0091245D01*
X0087825Y-0091367D01*
X0087780Y-0091499D01*
X0087745Y-0091640D01*
X0087720Y-0091790D01*
X0087705Y-0091951D01*
X0087700Y-0092120D01*
X0086700D01*
X0086695Y-0091951D01*
X0086680Y-0091790D01*
X0086655Y-0091640D01*
X0086620Y-0091499D01*
X0086575Y-0091367D01*
X0086520Y-0091245D01*
X0086455Y-0091132D01*
X0086380Y-0091028D01*
X0086295Y-0090934D01*
X0086200Y-0090849D01*
X0086489D01*
X0086444Y-0090767D01*
X0086276Y-0090505D01*
X0086177Y-0090368D01*
X0088223D01*
X0088124Y-0090505D01*
D02*
G37*
G36*
X0077804Y-0087815D02*
X0077817Y-0087928D01*
X0077838Y-0088042D01*
X0077868Y-0088155D01*
X0077906Y-0088267D01*
X0077952Y-0088380D01*
X0078007Y-0088493D01*
X0078071Y-0088606D01*
X0078143Y-0088719D01*
X0078223Y-0088832D01*
X0076177D01*
X0076257Y-0088719D01*
X0076393Y-0088493D01*
X0076448Y-0088380D01*
X0076494Y-0088267D01*
X0076532Y-0088155D01*
X0076562Y-0088042D01*
X0076583Y-0087928D01*
X0076596Y-0087815D01*
X0076600Y-0087702D01*
X0077800D01*
X0077804Y-0087815D01*
D02*
G37*
G36*
X0065003Y-0094790D02*
X0065088Y-0094857D01*
X0065181Y-0094919D01*
X0065282Y-0094978D01*
X0065392Y-0095033D01*
X0065510Y-0095084D01*
X0065770Y-0095175D01*
X0065913Y-0095214D01*
X0066063Y-0095249D01*
X0064517Y-0096589D01*
X0064501Y-0096409D01*
X0064455Y-0096086D01*
X0064424Y-0095942D01*
X0064388Y-0095811D01*
X0064346Y-0095692D01*
X0064300Y-0095585D01*
X0064249Y-0095490D01*
X0064192Y-0095408D01*
X0064131Y-0095338D01*
X0064926Y-0094719D01*
X0065003Y-0094790D01*
D02*
G37*
G36*
X0029051Y-0084300D02*
X0029340Y-0085670D01*
X0027900Y-0086090D01*
X0028260Y-0087530D01*
X0022860Y-0089270D01*
X0028440Y-0088130D01*
X0028830Y-0089540D01*
X0030270Y-0089180D01*
X0031888Y-0094200D01*
X0022418D01*
X0022416Y-0092768D01*
X0022420D01*
Y-0084300D01*
X0029051D01*
D02*
G37*
G36*
X0070273Y-0086766D02*
X0070295Y-0087107D01*
X0070564D01*
X0070509Y-0087119D01*
X0070459Y-0087155D01*
X0070415Y-0087215D01*
X0070377Y-0087298D01*
X0070345Y-0087406D01*
X0070343Y-0087416D01*
X0070350Y-0087443D01*
X0070371Y-0087493D01*
X0070395Y-0087532D01*
X0070319D01*
X0070319Y-0087537D01*
X0070298Y-0087692D01*
X0070275Y-0088073D01*
X0070272Y-0088300D01*
X0068472D01*
X0068469Y-0088073D01*
X0068425Y-0087537D01*
X0068424Y-0087532D01*
X0068348D01*
X0068372Y-0087493D01*
X0068393Y-0087443D01*
X0068401Y-0087416D01*
X0068398Y-0087406D01*
X0068366Y-0087298D01*
X0068328Y-0087215D01*
X0068284Y-0087155D01*
X0068235Y-0087119D01*
X0068179Y-0087107D01*
X0068452D01*
X0068461Y-0087017D01*
X0068470Y-0086766D01*
X0068472Y-0086623D01*
X0070272D01*
X0070273Y-0086766D01*
D02*
G37*
G36*
X0049704Y-0084300D02*
X0049695Y-0094200D01*
X0031930Y-0094200D01*
X0030720Y-0088430D01*
X0029250Y-0088790D01*
X0028650Y-0086510D01*
X0030960Y-0085910D01*
X0031320Y-0087350D01*
X0037350Y-0085400D01*
X0031770Y-0086570D01*
X0031380Y-0085160D01*
X0029940Y-0085520D01*
X0029540Y-0084300D01*
X0049704Y-0084300D01*
D02*
G37*
G36*
X0082806Y-0087103D02*
X0082824Y-0087284D01*
X0082854Y-0087460D01*
X0082896Y-0087630D01*
X0082950Y-0087795D01*
X0083016Y-0087955D01*
X0083094Y-0088110D01*
X0083184Y-0088259D01*
X0083286Y-0088403D01*
X0083400Y-0088542D01*
X0083035D01*
X0083071Y-0088606D01*
X0083143Y-0088719D01*
X0083223Y-0088832D01*
X0081177D01*
X0081257Y-0088719D01*
X0081364Y-0088542D01*
X0081000D01*
X0081114Y-0088403D01*
X0081216Y-0088259D01*
X0081306Y-0088110D01*
X0081384Y-0087955D01*
X0081450Y-0087795D01*
X0081504Y-0087630D01*
X0081546Y-0087460D01*
X0081576Y-0087284D01*
X0081594Y-0087103D01*
X0081600Y-0086917D01*
X0082800D01*
X0082806Y-0087103D01*
D02*
G37*
G36*
X0066730Y-0086866D02*
X0066745Y-0087107D01*
X0067036D01*
X0066977Y-0087120D01*
X0066925Y-0087159D01*
X0066879Y-0087224D01*
X0066839Y-0087314D01*
X0066805Y-0087431D01*
X0066793Y-0087495D01*
X0066807Y-0087543D01*
X0066828Y-0087593D01*
X0066852Y-0087632D01*
X0066770D01*
X0066756Y-0087741D01*
X0066731Y-0088154D01*
X0066728Y-0088400D01*
X0064928D01*
X0064925Y-0088154D01*
X0064884Y-0087632D01*
X0064805D01*
X0064829Y-0087593D01*
X0064850Y-0087543D01*
X0064864Y-0087495D01*
X0064851Y-0087431D01*
X0064818Y-0087314D01*
X0064778Y-0087224D01*
X0064732Y-0087159D01*
X0064679Y-0087120D01*
X0064621Y-0087107D01*
X0064918D01*
X0064927Y-0086866D01*
X0064928Y-0086723D01*
X0066728D01*
X0066730Y-0086866D01*
D02*
G37*
G36*
X0052522Y-0095478D02*
X0052456Y-0095551D01*
X0052395Y-0095635D01*
X0052338Y-0095729D01*
X0052285Y-0095833D01*
X0052237Y-0095948D01*
X0052193Y-0096074D01*
X0052153Y-0096210D01*
X0052086Y-0096513D01*
X0052060Y-0096680D01*
X0050613Y-0095233D01*
X0050780Y-0095206D01*
X0051083Y-0095140D01*
X0051219Y-0095100D01*
X0051345Y-0095056D01*
X0051460Y-0095008D01*
X0051564Y-0094955D01*
X0051658Y-0094898D01*
X0051742Y-0094836D01*
X0051815Y-0094771D01*
X0052522Y-0095478D01*
D02*
G37*
G36*
X0051678Y-0097455D02*
X0051205Y-0098182D01*
X0051154Y-0098285D01*
X0051117Y-0098375D01*
X0051095Y-0098451D01*
X0051088Y-0098513D01*
X0050498D01*
X0050490Y-0098451D01*
X0050468Y-0098375D01*
X0050432Y-0098285D01*
X0050381Y-0098182D01*
X0050236Y-0097933D01*
X0050032Y-0097628D01*
X0049770Y-0097268D01*
X0051816D01*
X0051678Y-0097455D01*
D02*
G37*
G36*
X0115372Y-0107460D02*
Y-0108247D01*
X0115065Y-0109791D01*
X0114462Y-0111245D01*
X0113588Y-0112553D01*
X0112475Y-0113666D01*
X0111166Y-0114541D01*
X0109712Y-0115143D01*
X0108169Y-0115450D01*
X0107382D01*
X0097641Y-0115450D01*
Y-0113025D01*
X0094641Y-0113181D01*
Y-0108680D01*
X0094681Y-0108736D01*
X0094801Y-0108785D01*
X0095001Y-0108829D01*
X0095281Y-0108867D01*
X0095425Y-0108878D01*
X0095755Y-0108727D01*
X0096221Y-0108420D01*
X0096747Y-0107991D01*
X0097336Y-0107439D01*
X0097641Y-0107109D01*
X0097641Y-0106614D01*
X0098019Y-0104712D01*
X0098761Y-0102921D01*
X0099838Y-0101309D01*
X0101209Y-0099938D01*
X0102821Y-0098861D01*
X0104612Y-0098119D01*
X0106514Y-0097741D01*
X0107483Y-0097741D01*
X0107483Y-0097741D01*
X0115372D01*
Y-0107460D01*
D02*
G37*
G36*
X0061678Y-0097662D02*
X0061205Y-0098389D01*
X0061154Y-0098492D01*
X0061117Y-0098582D01*
X0061095Y-0098658D01*
X0061088Y-0098720D01*
X0060498D01*
X0060490Y-0098658D01*
X0060469Y-0098582D01*
X0060432Y-0098492D01*
X0060381Y-0098389D01*
X0060236Y-0098140D01*
X0060032Y-0097835D01*
X0059770Y-0097475D01*
X0061816D01*
X0061678Y-0097662D01*
D02*
G37*
G36*
X0066678Y-0097455D02*
X0066205Y-0098181D01*
X0066154Y-0098285D01*
X0066117Y-0098375D01*
X0066096Y-0098451D01*
X0066088Y-0098513D01*
X0065498Y-0098513D01*
X0065491Y-0098451D01*
X0065469Y-0098375D01*
X0065432Y-0098285D01*
X0065381Y-0098182D01*
X0065236Y-0097933D01*
X0065032Y-0097628D01*
X0064770Y-0097268D01*
X0066816Y-0097268D01*
X0066678Y-0097455D01*
D02*
G37*
G36*
X0066173Y-0096622D02*
X0066155Y-0096654D01*
X0066140Y-0096688D01*
X0066126Y-0096725D01*
X0066114Y-0096764D01*
X0066105Y-0096805D01*
X0066098Y-0096849D01*
X0066092Y-0096896D01*
X0066088Y-0096996D01*
X0065498D01*
X0065497Y-0096945D01*
X0065488Y-0096849D01*
X0065481Y-0096805D01*
X0065472Y-0096764D01*
X0065460Y-0096725D01*
X0065447Y-0096688D01*
X0065431Y-0096654D01*
X0065413Y-0096622D01*
X0065393Y-0096593D01*
X0066193D01*
X0066173Y-0096622D01*
D02*
G37*
G36*
X0060182Y-0094970D02*
X0060268Y-0095042D01*
X0060360Y-0095111D01*
X0060457Y-0095175D01*
X0060560Y-0095236D01*
X0060781Y-0095345D01*
X0060900Y-0095394D01*
X0061153Y-0095479D01*
X0059513Y-0096703D01*
X0059511Y-0096514D01*
X0059487Y-0096176D01*
X0059467Y-0096027D01*
X0059439Y-0095892D01*
X0059406Y-0095770D01*
X0059367Y-0095662D01*
X0059321Y-0095567D01*
X0059269Y-0095486D01*
X0059211Y-0095418D01*
X0060101Y-0094893D01*
X0060182Y-0094970D01*
D02*
G37*
G36*
X0061173Y-0097036D02*
X0061155Y-0097068D01*
X0061139Y-0097102D01*
X0061126Y-0097139D01*
X0061114Y-0097178D01*
X0061105Y-0097219D01*
X0061098Y-0097263D01*
X0061092Y-0097310D01*
X0061088Y-0097411D01*
X0060498D01*
X0060497Y-0097359D01*
X0060488Y-0097263D01*
X0060481Y-0097219D01*
X0060471Y-0097178D01*
X0060460Y-0097139D01*
X0060446Y-0097102D01*
X0060431Y-0097068D01*
X0060413Y-0097036D01*
X0060393Y-0097007D01*
X0061193D01*
X0061173Y-0097036D01*
D02*
G37*
G36*
X0051173Y-0096829D02*
X0051155Y-0096861D01*
X0051139Y-0096895D01*
X0051126Y-0096932D01*
X0051114Y-0096971D01*
X0051105Y-0097012D01*
X0051098Y-0097056D01*
X0051092Y-0097103D01*
X0051088Y-0097203D01*
X0050498D01*
X0050497Y-0097152D01*
X0050488Y-0097056D01*
X0050481Y-0097012D01*
X0050472Y-0096971D01*
X0050460Y-0096932D01*
X0050446Y-0096895D01*
X0050431Y-0096861D01*
X0050413Y-0096829D01*
X0050393Y-0096800D01*
X0051193D01*
X0051173Y-0096829D01*
D02*
G37*
G36*
X0074950Y-0028253D02*
X0075431Y-0028288D01*
X0076079Y-0028300D01*
Y-0030100D01*
X0075737Y-0030103D01*
X0074943Y-0030161D01*
X0074941Y-0030602D01*
X0074923Y-0030507D01*
X0074869Y-0030421D01*
X0074779Y-0030346D01*
X0074653Y-0030281D01*
X0074505Y-0030230D01*
X0074441Y-0030251D01*
X0074351Y-0030297D01*
X0074297Y-0030349D01*
X0074279Y-0030408D01*
X0074221Y-0030426D01*
X0074168Y-0030479D01*
X0074122Y-0030569D01*
X0074082Y-0030696D01*
X0074049Y-0030858D01*
X0074021Y-0031056D01*
X0073984Y-0031560D01*
X0073972Y-0032208D01*
X0072172D01*
X0072169Y-0031866D01*
X0072095Y-0030858D01*
X0072061Y-0030696D01*
X0072021Y-0030569D01*
X0071975Y-0030479D01*
X0071923Y-0030426D01*
X0071864Y-0030408D01*
X0074279D01*
Y-0030178D01*
X0074059Y-0030145D01*
X0073789Y-0030120D01*
X0073141Y-0030100D01*
Y-0028300D01*
X0073485Y-0028291D01*
X0073793Y-0028264D01*
X0074064Y-0028219D01*
X0074279Y-0028161D01*
Y-0027992D01*
X0074297Y-0028051D01*
X0074351Y-0028103D01*
X0074386Y-0028121D01*
X0074499Y-0028075D01*
X0074662Y-0027976D01*
X0074789Y-0027859D01*
X0074880Y-0027724D01*
X0074935Y-0027571D01*
X0074953Y-0027400D01*
X0074950Y-0028253D01*
D02*
G37*
G36*
X0050803Y-0026131D02*
X0050854Y-0026737D01*
X0050884Y-0026885D01*
X0050921Y-0027006D01*
X0050964Y-0027101D01*
X0051015Y-0027168D01*
X0051072Y-0027209D01*
X0051136Y-0027223D01*
X0050801Y-0027221D01*
X0050800Y-0027441D01*
X0048800D01*
X0048793Y-0027211D01*
X0048792D01*
X0048793Y-0027206D01*
X0048777Y-0026643D01*
X0048797D01*
X0048800Y-0025875D01*
X0050800D01*
X0050803Y-0026131D01*
D02*
G37*
G36*
X0097705Y-0026547D02*
X0097620Y-0026577D01*
X0097545Y-0026627D01*
X0097480Y-0026697D01*
X0097425Y-0026787D01*
X0097380Y-0026897D01*
X0097345Y-0027027D01*
X0097320Y-0027177D01*
X0097305Y-0027347D01*
X0097304Y-0027401D01*
X0097305Y-0027450D01*
X0097320Y-0027610D01*
X0097345Y-0027760D01*
X0097380Y-0027901D01*
X0097425Y-0028033D01*
X0097480Y-0028155D01*
X0097545Y-0028269D01*
X0097620Y-0028372D01*
X0097705Y-0028466D01*
X0097800Y-0028551D01*
X0095800D01*
X0095895Y-0028466D01*
X0095980Y-0028372D01*
X0096055Y-0028269D01*
X0096120Y-0028155D01*
X0096175Y-0028033D01*
X0096220Y-0027901D01*
X0096255Y-0027760D01*
X0096280Y-0027610D01*
X0096295Y-0027450D01*
X0096296Y-0027401D01*
X0096295Y-0027347D01*
X0096280Y-0027177D01*
X0096255Y-0027027D01*
X0096220Y-0026897D01*
X0096175Y-0026787D01*
X0096120Y-0026697D01*
X0096055Y-0026627D01*
X0095980Y-0026577D01*
X0095895Y-0026547D01*
X0095800Y-0026537D01*
X0097800D01*
X0097705Y-0026547D01*
D02*
G37*
G36*
X0070403Y-0026865D02*
X0070444Y-0027368D01*
X0070523D01*
X0070500Y-0027407D01*
X0070479Y-0027457D01*
X0070460Y-0027519D01*
X0070460Y-0027522D01*
X0070484Y-0027644D01*
X0070521Y-0027770D01*
X0070565Y-0027867D01*
X0070615Y-0027937D01*
X0070672Y-0027979D01*
X0070736Y-0027992D01*
X0070407D01*
X0070401Y-0028134D01*
X0070400Y-0028277D01*
X0068600D01*
X0068599Y-0028134D01*
X0068590Y-0027992D01*
X0068321D01*
X0068374Y-0027979D01*
X0068421Y-0027937D01*
X0068463Y-0027867D01*
X0068499Y-0027770D01*
X0068530Y-0027644D01*
X0068546Y-0027548D01*
X0068540Y-0027519D01*
X0068521Y-0027457D01*
X0068500Y-0027407D01*
X0068477Y-0027368D01*
X0068569D01*
X0068575Y-0027310D01*
X0068597Y-0026865D01*
X0068600Y-0026600D01*
X0070400D01*
X0070403Y-0026865D01*
D02*
G37*
G36*
X0062062Y-0019517D02*
X0062072Y-0020063D01*
X0062087Y-0020209D01*
X0062108Y-0020338D01*
X0062135Y-0020448D01*
X0062168Y-0020540D01*
X0062206Y-0020615D01*
X0062251Y-0020671D01*
X0061495Y-0021047D01*
X0061424Y-0020981D01*
X0061344Y-0020917D01*
X0061255Y-0020853D01*
X0061157Y-0020791D01*
X0060933Y-0020671D01*
X0060807Y-0020612D01*
X0060375Y-0020444D01*
X0062071Y-0019299D01*
X0062062Y-0019517D01*
D02*
G37*
G36*
X0047046Y-0019252D02*
X0047153Y-0019755D01*
X0047193Y-0019893D01*
X0047282Y-0020122D01*
X0047330Y-0020214D01*
X0047381Y-0020292D01*
X0047434Y-0020354D01*
X0046868Y-0020919D01*
X0046806Y-0020866D01*
X0046729Y-0020815D01*
X0046637Y-0020767D01*
X0046530Y-0020722D01*
X0046407Y-0020679D01*
X0046117Y-0020600D01*
X0045949Y-0020564D01*
X0045569Y-0020501D01*
X0047016Y-0019054D01*
X0047046Y-0019252D01*
D02*
G37*
G36*
X0054332Y-0025678D02*
X0054391Y-0026629D01*
X0054412Y-0026732D01*
X0054438Y-0026805D01*
X0054466Y-0026849D01*
X0054498Y-0026863D01*
X0054330D01*
X0054330Y-0026966D01*
X0052330D01*
X0052327Y-0026863D01*
X0052162D01*
X0052194Y-0026849D01*
X0052222Y-0026805D01*
X0052248Y-0026732D01*
X0052269Y-0026629D01*
X0052288Y-0026498D01*
X0052308Y-0026228D01*
X0052307Y-0026168D01*
X0052313D01*
X0052315Y-0026146D01*
X0052330Y-0025400D01*
X0054330D01*
X0054332Y-0025678D01*
D02*
G37*
G36*
X0106802Y-0023863D02*
X0106852Y-0024663D01*
X0106875Y-0024792D01*
X0106902Y-0024892D01*
X0106933Y-0024964D01*
X0106968Y-0025007D01*
X0107008Y-0025021D01*
X0106800D01*
X0106800Y-0025157D01*
X0104800D01*
X0104796Y-0025021D01*
X0104593D01*
X0104632Y-0025007D01*
X0104667Y-0024964D01*
X0104698Y-0024892D01*
X0104725Y-0024792D01*
X0104748Y-0024663D01*
X0104767Y-0024506D01*
X0104792Y-0024106D01*
X0104800Y-0023591D01*
X0106800D01*
X0106802Y-0023863D01*
D02*
G37*
G36*
X0092860Y-0026549D02*
X0092764Y-0026585D01*
X0092678Y-0026645D01*
X0092605Y-0026729D01*
X0092542Y-0026837D01*
X0092491Y-0026969D01*
X0092451Y-0027125D01*
X0092423Y-0027305D01*
X0092415Y-0027395D01*
X0092424Y-0027484D01*
X0092454Y-0027660D01*
X0092496Y-0027830D01*
X0092550Y-0027995D01*
X0092616Y-0028155D01*
X0092694Y-0028310D01*
X0092784Y-0028459D01*
X0092886Y-0028603D01*
X0093000Y-0028742D01*
X0090600D01*
X0090714Y-0028603D01*
X0090816Y-0028459D01*
X0090906Y-0028310D01*
X0090984Y-0028155D01*
X0091050Y-0027995D01*
X0091104Y-0027830D01*
X0091146Y-0027660D01*
X0091176Y-0027484D01*
X0091185Y-0027395D01*
X0091177Y-0027305D01*
X0091149Y-0027125D01*
X0091109Y-0026969D01*
X0091058Y-0026837D01*
X0090996Y-0026729D01*
X0090922Y-0026645D01*
X0090836Y-0026585D01*
X0090740Y-0026549D01*
X0090632Y-0026537D01*
X0092968D01*
X0092860Y-0026549D01*
D02*
G37*
G36*
X0092562Y-0031217D02*
X0092528Y-0031263D01*
X0092498Y-0031325D01*
X0092472Y-0031403D01*
X0092450Y-0031497D01*
X0092432Y-0031606D01*
X0092408Y-0031872D01*
X0092400Y-0032200D01*
X0091200D01*
X0091198Y-0032028D01*
X0091168Y-0031606D01*
X0091150Y-0031497D01*
X0091128Y-0031403D01*
X0091102Y-0031325D01*
X0091072Y-0031263D01*
X0091038Y-0031217D01*
X0091000Y-0031186D01*
X0092600D01*
X0092562Y-0031217D01*
D02*
G37*
G36*
X0070375Y-0029548D02*
X0070421Y-0030240D01*
X0070448Y-0030408D01*
X0070736D01*
X0070667Y-0030423D01*
X0070605Y-0030471D01*
X0070550Y-0030551D01*
X0070515Y-0030634D01*
X0070522Y-0030654D01*
X0070568Y-0030731D01*
X0070621Y-0030777D01*
X0070679Y-0030792D01*
X0070466D01*
X0070463Y-0030806D01*
X0070430Y-0030981D01*
X0070404Y-0031188D01*
X0070375Y-0031697D01*
X0070372Y-0032000D01*
X0068572D01*
X0068569Y-0031697D01*
X0068509Y-0030806D01*
X0068506Y-0030792D01*
X0068264D01*
X0068323Y-0030777D01*
X0068375Y-0030731D01*
X0068421Y-0030654D01*
X0068454Y-0030567D01*
X0068449Y-0030551D01*
X0068411Y-0030471D01*
X0068369Y-0030423D01*
X0068321Y-0030408D01*
X0068495D01*
X0068523Y-0030240D01*
X0068544Y-0030040D01*
X0068569Y-0029548D01*
X0068572Y-0029257D01*
X0070372D01*
X0070375Y-0029548D01*
D02*
G37*
G36*
X0106968Y-0030999D02*
X0106933Y-0031059D01*
X0106902Y-0031159D01*
X0106875Y-0031299D01*
X0106852Y-0031479D01*
X0106819Y-0031959D01*
X0106800Y-0032979D01*
X0106217D01*
X0106164Y-0033101D01*
X0105936Y-0032979D01*
X0104800D01*
X0104798Y-0032599D01*
X0104781Y-0032359D01*
X0104367Y-0032137D01*
X0104449Y-0032092D01*
X0104523Y-0032038D01*
X0104588Y-0031974D01*
X0104644Y-0031901D01*
X0104692Y-0031817D01*
X0104731Y-0031725D01*
X0104736Y-0031706D01*
X0104698Y-0031159D01*
X0104667Y-0031059D01*
X0104632Y-0030999D01*
X0104593Y-0030979D01*
X0107008D01*
X0106968Y-0030999D01*
D02*
G37*
G36*
X0097705Y-0031134D02*
X0097620Y-0031228D01*
X0097545Y-0031332D01*
X0097480Y-0031444D01*
X0097425Y-0031567D01*
X0097380Y-0031699D01*
X0097345Y-0031840D01*
X0097320Y-0031991D01*
X0097305Y-0032151D01*
X0097300Y-0032320D01*
X0096300D01*
X0096295Y-0032151D01*
X0096280Y-0031991D01*
X0096255Y-0031840D01*
X0096220Y-0031699D01*
X0096175Y-0031567D01*
X0096120Y-0031444D01*
X0096055Y-0031332D01*
X0095980Y-0031228D01*
X0095895Y-0031134D01*
X0095800Y-0031049D01*
X0097800D01*
X0097705Y-0031134D01*
D02*
G37*
G36*
X0082936Y-0026557D02*
X0082908Y-0026617D01*
X0082882Y-0026717D01*
X0082860Y-0026857D01*
X0082842Y-0027037D01*
X0082828Y-0027336D01*
X0082889Y-0028291D01*
X0082921Y-0028466D01*
X0082958Y-0028609D01*
X0082999Y-0028719D01*
X0083046Y-0028796D01*
X0080554D01*
X0080601Y-0028719D01*
X0080642Y-0028609D01*
X0080679Y-0028466D01*
X0080711Y-0028291D01*
X0080761Y-0027841D01*
X0080767Y-0027707D01*
X0080692Y-0026617D01*
X0080664Y-0026557D01*
X0080632Y-0026537D01*
X0082968D01*
X0082936Y-0026557D01*
D02*
G37*
G36*
X0087936D02*
X0087908Y-0026617D01*
X0087882Y-0026717D01*
X0087861Y-0026857D01*
X0087842Y-0027037D01*
X0087828Y-0027336D01*
X0087889Y-0028291D01*
X0087921Y-0028466D01*
X0087958Y-0028609D01*
X0087999Y-0028719D01*
X0088046Y-0028796D01*
X0085554D01*
X0085601Y-0028719D01*
X0085642Y-0028609D01*
X0085679Y-0028466D01*
X0085711Y-0028291D01*
X0085761Y-0027841D01*
X0085767Y-0027707D01*
X0085692Y-0026617D01*
X0085664Y-0026557D01*
X0085632Y-0026537D01*
X0087968D01*
X0087936Y-0026557D01*
D02*
G37*
G36*
X0066902Y-0029173D02*
X0066909Y-0029268D01*
X0066923D01*
X0066919Y-0029282D01*
X0066915Y-0029310D01*
X0066913Y-0029336D01*
X0066985Y-0030472D01*
X0067015Y-0030612D01*
X0067051Y-0030713D01*
X0067091Y-0030773D01*
X0067136Y-0030792D01*
X0064721D01*
X0064755Y-0030773D01*
X0064785Y-0030713D01*
X0064812Y-0030612D01*
X0064836Y-0030472D01*
X0064855Y-0030292D01*
X0064887Y-0029628D01*
X0064877Y-0029268D01*
X0064895D01*
X0064900Y-0028793D01*
X0066900D01*
X0066902Y-0029173D01*
D02*
G37*
G36*
X0109691Y-0001577D02*
X0111145Y-0002179D01*
X0112453Y-0003054D01*
X0113566Y-0004167D01*
X0114441Y-0005475D01*
X0115043Y-0006929D01*
X0115350Y-0008473D01*
Y-0009260D01*
X0115350Y-0019001D01*
X0107483Y-0019001D01*
X0106514Y-0019001D01*
X0104613Y-0018623D01*
X0102821Y-0017881D01*
X0101209Y-0016804D01*
X0099838Y-0015433D01*
X0098761Y-0013821D01*
X0098019Y-0012029D01*
X0097641Y-0010128D01*
Y-0009656D01*
X0097336Y-0009303D01*
X0096747Y-0008751D01*
X0096221Y-0008321D01*
X0095755Y-0008015D01*
X0095556Y-0007924D01*
X0094781Y-0007972D01*
X0094741Y-0008020D01*
Y-0003519D01*
X0094781Y-0003566D01*
X0094901Y-0003609D01*
X0095101Y-0003646D01*
X0095381Y-0003679D01*
X0096181Y-0003729D01*
X0097531Y-0003750D01*
X0097549Y-0003750D01*
X0097641Y-0003740D01*
Y-0001270D01*
X0108147D01*
X0109691Y-0001577D01*
D02*
G37*
G36*
X0082749Y-0009627D02*
X0082764Y-0009696D01*
X0082789Y-0009772D01*
X0082824Y-0009856D01*
X0082869Y-0009948D01*
X0082958Y-0010102D01*
X0083012Y-0010150D01*
X0083270Y-0010351D01*
X0083614Y-0010591D01*
X0083818Y-0010725D01*
X0082581Y-0011180D01*
X0082278Y-0011743D01*
X0083226D01*
X0082744Y-0012378D01*
X0082144D01*
X0082139Y-0012366D01*
X0082125Y-0012343D01*
X0082067Y-0012261D01*
X0082027Y-0012211D01*
X0081962Y-0012333D01*
X0081917Y-0012251D01*
X0081863Y-0012178D01*
X0081799Y-0012112D01*
X0081725Y-0012056D01*
X0081642Y-0012009D01*
X0081549Y-0011970D01*
X0081447Y-0011939D01*
X0081335Y-0011918D01*
X0081213Y-0011904D01*
X0081081Y-0011900D01*
X0081447Y-0009900D01*
X0081925Y-0010106D01*
X0081964Y-0010047D01*
X0082019Y-0009948D01*
X0082099Y-0009772D01*
X0082124Y-0009696D01*
X0082139Y-0009627D01*
X0082144Y-0009565D01*
X0082744D01*
X0082749Y-0009627D01*
D02*
G37*
G36*
X0044462Y-0006069D02*
X0044401Y-0006175D01*
X0044347Y-0006287D01*
X0044300Y-0006406D01*
X0044261Y-0006532D01*
X0044228Y-0006665D01*
X0044203Y-0006804D01*
X0044191Y-0006903D01*
X0044238Y-0007639D01*
X0044267Y-0007801D01*
X0044302Y-0007927D01*
X0044342Y-0008017D01*
X0044388Y-0008071D01*
X0044439Y-0008089D01*
X0042103D01*
X0042154Y-0008071D01*
X0042199Y-0008017D01*
X0042239Y-0007927D01*
X0042274Y-0007801D01*
X0042304Y-0007639D01*
X0042328Y-0007441D01*
X0042357Y-0006992D01*
X0042338Y-0006804D01*
X0042313Y-0006665D01*
X0042281Y-0006532D01*
X0042241Y-0006406D01*
X0042195Y-0006287D01*
X0042141Y-0006175D01*
X0042080Y-0006069D01*
X0042012Y-0005970D01*
X0044530D01*
X0044462Y-0006069D01*
D02*
G37*
G36*
X0063075Y-0014362D02*
X0063023Y-0014335D01*
X0062964Y-0014323D01*
X0062898Y-0014326D01*
X0062825Y-0014345D01*
X0062745Y-0014379D01*
X0062658Y-0014428D01*
X0062564Y-0014493D01*
X0062463Y-0014573D01*
X0062355Y-0014669D01*
X0062240Y-0014779D01*
X0061685Y-0014499D01*
X0061808Y-0014372D01*
X0062000Y-0014146D01*
X0062069Y-0014048D01*
X0062120Y-0013960D01*
X0062153Y-0013881D01*
X0062167Y-0013813D01*
X0062164Y-0013753D01*
X0062142Y-0013704D01*
X0062103Y-0013664D01*
X0063075Y-0014362D01*
D02*
G37*
G36*
X0078928Y-0009764D02*
X0078988Y-0009793D01*
X0079088Y-0009818D01*
X0079228Y-0009840D01*
X0079408Y-0009858D01*
X0080188Y-0009894D01*
X0080908Y-0009900D01*
Y-0011900D01*
X0080528Y-0011902D01*
X0078988Y-0012008D01*
X0078928Y-0012036D01*
X0078908Y-0012068D01*
Y-0009732D01*
X0078928Y-0009764D01*
D02*
G37*
G36*
X0018901Y-0003730D02*
X0021519Y-0003566D01*
X0021559Y-0003519D01*
Y-0008020D01*
X0021519Y-0007972D01*
X0021399Y-0007930D01*
X0021199Y-0007892D01*
X0021085Y-0007879D01*
X0020787Y-0008015D01*
X0020321Y-0008321D01*
X0019794Y-0008751D01*
X0019206Y-0009303D01*
X0018901Y-0009633D01*
X0018901Y-0010128D01*
X0018523Y-0012029D01*
X0017781Y-0013821D01*
X0016703Y-0015433D01*
X0015333Y-0016804D01*
X0013721Y-0017881D01*
X0011929Y-0018623D01*
X0010028Y-0019001D01*
X0009058Y-0019001D01*
X0001192Y-0019001D01*
X0001192Y-0009260D01*
Y-0008473D01*
X0001499Y-0006929D01*
X0002101Y-0005475D01*
X0002976Y-0004167D01*
X0004088Y-0003054D01*
X0005397Y-0002179D01*
X0006851Y-0001577D01*
X0008395Y-0001270D01*
X0018901D01*
Y-0003730D01*
D02*
G37*
G36*
X0064462Y-0006069D02*
X0064401Y-0006175D01*
X0064347Y-0006287D01*
X0064300Y-0006406D01*
X0064261Y-0006532D01*
X0064228Y-0006665D01*
X0064203Y-0006804D01*
X0064191Y-0006903D01*
X0064238Y-0007639D01*
X0064267Y-0007801D01*
X0064302Y-0007927D01*
X0064342Y-0008017D01*
X0064388Y-0008071D01*
X0064439Y-0008089D01*
X0062103D01*
X0062154Y-0008071D01*
X0062199Y-0008017D01*
X0062239Y-0007927D01*
X0062274Y-0007801D01*
X0062304Y-0007639D01*
X0062328Y-0007441D01*
X0062357Y-0006992D01*
X0062339Y-0006804D01*
X0062313Y-0006665D01*
X0062281Y-0006532D01*
X0062242Y-0006406D01*
X0062195Y-0006287D01*
X0062141Y-0006175D01*
X0062080Y-0006069D01*
X0062012Y-0005970D01*
X0064530D01*
X0064462Y-0006069D01*
D02*
G37*
G36*
X0054462D02*
X0054401Y-0006175D01*
X0054347Y-0006287D01*
X0054300Y-0006406D01*
X0054261Y-0006532D01*
X0054228Y-0006665D01*
X0054203Y-0006804D01*
X0054191Y-0006903D01*
X0054238Y-0007639D01*
X0054267Y-0007801D01*
X0054302Y-0007927D01*
X0054343Y-0008017D01*
X0054388Y-0008071D01*
X0054439Y-0008089D01*
X0052103D01*
X0052154Y-0008071D01*
X0052199Y-0008017D01*
X0052240Y-0007927D01*
X0052274Y-0007801D01*
X0052304Y-0007639D01*
X0052328Y-0007441D01*
X0052357Y-0006992D01*
X0052338Y-0006804D01*
X0052313Y-0006665D01*
X0052281Y-0006532D01*
X0052241Y-0006406D01*
X0052195Y-0006287D01*
X0052141Y-0006175D01*
X0052080Y-0006069D01*
X0052012Y-0005970D01*
X0054530D01*
X0054462Y-0006069D01*
D02*
G37*
G36*
X0074638Y-0005816D02*
X0074631Y-0005857D01*
X0074625Y-0005914D01*
X0074612Y-0006191D01*
X0074606Y-0006805D01*
X0072606Y-0007397D01*
X0072601Y-0007239D01*
X0072587Y-0007089D01*
X0072565Y-0006945D01*
X0072533Y-0006808D01*
X0072492Y-0006678D01*
X0072441Y-0006555D01*
X0072382Y-0006438D01*
X0072314Y-0006329D01*
X0072236Y-0006226D01*
X0072149Y-0006130D01*
X0074645Y-0005794D01*
X0074638Y-0005816D01*
D02*
G37*
G36*
X0054399Y-0013704D02*
X0054378Y-0013753D01*
X0054374Y-0013813D01*
X0054389Y-0013881D01*
X0054422Y-0013960D01*
X0054473Y-0014048D01*
X0054541Y-0014146D01*
X0054628Y-0014254D01*
X0054857Y-0014499D01*
X0054302Y-0014779D01*
X0054187Y-0014669D01*
X0053978Y-0014493D01*
X0053884Y-0014428D01*
X0053797Y-0014379D01*
X0053717Y-0014345D01*
X0053644Y-0014326D01*
X0053578Y-0014323D01*
X0053518Y-0014335D01*
X0053466Y-0014362D01*
X0054439Y-0013664D01*
X0054399Y-0013704D01*
D02*
G37*
G36*
X0087802Y-0019078D02*
X0087861Y-0020029D01*
X0087882Y-0020132D01*
X0087908Y-0020205D01*
X0087936Y-0020249D01*
X0087968Y-0020263D01*
X0087769D01*
X0087800Y-0020512D01*
X0085800Y-0020339D01*
X0085799Y-0020263D01*
X0085632D01*
X0085664Y-0020249D01*
X0085692Y-0020205D01*
X0085718Y-0020132D01*
X0085739Y-0020029D01*
X0085758Y-0019898D01*
X0085764Y-0019817D01*
X0085750Y-0019741D01*
X0085729Y-0019653D01*
X0085703Y-0019577D01*
X0085673Y-0019511D01*
X0085639Y-0019456D01*
X0085602Y-0019411D01*
X0085788Y-0019383D01*
X0085800Y-0018800D01*
X0087800D01*
X0087802Y-0019078D01*
D02*
G37*
G36*
X0082802Y-0018835D02*
X0082882Y-0020105D01*
X0082908Y-0020193D01*
X0082936Y-0020246D01*
X0082968Y-0020263D01*
X0080632D01*
X0080664Y-0020246D01*
X0080692Y-0020193D01*
X0080718Y-0020105D01*
X0080739Y-0019981D01*
X0080758Y-0019823D01*
X0080782Y-0019445D01*
X0080777Y-0019268D01*
X0080787D01*
X0080800Y-0018500D01*
X0082800D01*
X0082802Y-0018835D01*
D02*
G37*
G36*
X0057046Y-0019252D02*
X0057153Y-0019755D01*
X0057193Y-0019893D01*
X0057282Y-0020122D01*
X0057330Y-0020214D01*
X0057381Y-0020292D01*
X0057434Y-0020354D01*
X0056868Y-0020919D01*
X0056806Y-0020866D01*
X0056729Y-0020815D01*
X0056637Y-0020767D01*
X0056530Y-0020722D01*
X0056407Y-0020679D01*
X0056117Y-0020600D01*
X0055949Y-0020564D01*
X0055569Y-0020501D01*
X0057016Y-0019054D01*
X0057046Y-0019252D01*
D02*
G37*
G36*
X0097801Y-0019404D02*
X0097821Y-0019748D01*
X0098025Y-0019784D01*
X0097982Y-0019831D01*
X0097944Y-0019888D01*
X0097910Y-0019956D01*
X0097881Y-0020035D01*
X0097856Y-0020123D01*
X0097846Y-0020173D01*
X0097851Y-0020265D01*
X0097863Y-0020275D01*
X0097828D01*
X0097820Y-0020331D01*
X0097802Y-0020580D01*
X0097800Y-0020720D01*
X0095800Y-0020848D01*
X0095885Y-0020275D01*
X0095737D01*
X0095749Y-0020265D01*
X0095759Y-0020232D01*
X0095769Y-0020179D01*
X0095777Y-0020103D01*
X0095794Y-0019748D01*
X0095800Y-0019200D01*
X0097800D01*
X0097801Y-0019404D01*
D02*
G37*
G36*
X0061088Y-0018770D02*
X0061100Y-0018956D01*
X0061104Y-0018973D01*
X0061108Y-0018985D01*
X0061113Y-0018994D01*
X0060473D01*
X0060478Y-0018985D01*
X0060482Y-0018973D01*
X0060486Y-0018956D01*
X0060489Y-0018935D01*
X0060494Y-0018881D01*
X0060497Y-0018770D01*
X0060498Y-0018724D01*
X0061088D01*
X0061088Y-0018770D01*
D02*
G37*
G36*
X0044399Y-0013704D02*
X0044378Y-0013753D01*
X0044374Y-0013813D01*
X0044389Y-0013881D01*
X0044422Y-0013960D01*
X0044473Y-0014048D01*
X0044541Y-0014146D01*
X0044628Y-0014254D01*
X0044857Y-0014499D01*
X0044302Y-0014779D01*
X0044187Y-0014669D01*
X0043978Y-0014493D01*
X0043884Y-0014428D01*
X0043797Y-0014379D01*
X0043717Y-0014345D01*
X0043644Y-0014326D01*
X0043578Y-0014323D01*
X0043518Y-0014335D01*
X0043466Y-0014362D01*
X0044439Y-0013664D01*
X0044399Y-0013704D01*
D02*
G37*
G36*
X0046044Y-0018770D02*
X0046056Y-0018956D01*
X0046060Y-0018973D01*
X0046064Y-0018985D01*
X0046069Y-0018994D01*
X0045429D01*
X0045434Y-0018985D01*
X0045438Y-0018973D01*
X0045441Y-0018956D01*
X0045445Y-0018935D01*
X0045450Y-0018881D01*
X0045453Y-0018770D01*
X0045454Y-0018724D01*
X0046044D01*
X0046044Y-0018770D01*
D02*
G37*
G36*
X0056044D02*
X0056056Y-0018956D01*
X0056060Y-0018973D01*
X0056064Y-0018985D01*
X0056069Y-0018994D01*
X0055429D01*
X0055434Y-0018985D01*
X0055438Y-0018973D01*
X0055441Y-0018956D01*
X0055445Y-0018935D01*
X0055450Y-0018881D01*
X0055453Y-0018770D01*
X0055454Y-0018724D01*
X0056044D01*
X0056044Y-0018770D01*
D02*
G37*
G36*
X0063183Y-0033520D02*
X0063214Y-0033867D01*
X0063241Y-0034008D01*
X0063276Y-0034127D01*
X0063319Y-0034225D01*
X0063370Y-0034301D01*
X0063429Y-0034355D01*
X0063495Y-0034387D01*
X0063569Y-0034398D01*
X0061988D01*
X0062063Y-0034387D01*
X0062129Y-0034355D01*
X0062187Y-0034301D01*
X0062238Y-0034225D01*
X0062281Y-0034127D01*
X0062316Y-0034008D01*
X0062344Y-0033867D01*
X0062363Y-0033704D01*
X0062375Y-0033520D01*
X0062379Y-0033314D01*
X0063179D01*
X0063183Y-0033520D01*
D02*
G37*
G36*
X0018894Y-0051213D02*
X0018886Y-0051208D01*
X0018873Y-0051204D01*
X0018856Y-0051200D01*
X0018836Y-0051197D01*
X0018782Y-0051192D01*
X0018670Y-0051188D01*
X0018625Y-0051188D01*
Y-0050598D01*
X0018670Y-0050597D01*
X0018856Y-0050586D01*
X0018873Y-0050582D01*
X0018886Y-0050578D01*
X0018894Y-0050573D01*
Y-0051213D01*
D02*
G37*
G36*
X0087522Y-0048446D02*
X0087553Y-0048452D01*
X0087599Y-0048458D01*
X0087734Y-0048467D01*
X0088320Y-0048477D01*
X0088257Y-0050477D01*
X0087479Y-0050485D01*
X0087504Y-0048438D01*
X0087522Y-0048446D01*
D02*
G37*
G36*
X0101351Y-0051249D02*
X0101322Y-0051229D01*
X0101290Y-0051211D01*
X0101256Y-0051195D01*
X0101220Y-0051182D01*
X0101181Y-0051170D01*
X0101139Y-0051161D01*
X0101095Y-0051153D01*
X0101048Y-0051148D01*
X0100948Y-0051144D01*
Y-0050554D01*
X0100999Y-0050552D01*
X0101095Y-0050544D01*
X0101139Y-0050537D01*
X0101181Y-0050527D01*
X0101220Y-0050516D01*
X0101256Y-0050502D01*
X0101290Y-0050487D01*
X0101322Y-0050469D01*
X0101351Y-0050449D01*
Y-0051249D01*
D02*
G37*
G36*
X0051090Y-0053650D02*
X0050977Y-0053570D01*
X0050752Y-0053434D01*
X0050639Y-0053379D01*
X0050526Y-0053333D01*
X0050413Y-0053294D01*
X0050300Y-0053265D01*
X0050269Y-0053259D01*
X0050110Y-0053280D01*
X0049800Y-0053347D01*
X0049665Y-0053391D01*
X0049544Y-0053441D01*
X0049437Y-0053498D01*
X0049342Y-0053562D01*
Y-0051692D01*
X0049437Y-0051755D01*
X0049544Y-0051812D01*
X0049665Y-0051863D01*
X0049800Y-0051906D01*
X0049948Y-0051943D01*
X0050110Y-0051973D01*
X0050282Y-0051992D01*
X0050300Y-0051989D01*
X0050413Y-0051959D01*
X0050526Y-0051921D01*
X0050639Y-0051874D01*
X0050752Y-0051819D01*
X0050864Y-0051756D01*
X0050977Y-0051684D01*
X0051090Y-0051604D01*
Y-0053650D01*
D02*
G37*
G36*
X0098681Y-0050469D02*
X0098712Y-0050487D01*
X0098746Y-0050502D01*
X0098783Y-0050516D01*
X0098822Y-0050527D01*
X0098863Y-0050537D01*
X0098908Y-0050544D01*
X0098954Y-0050549D01*
X0099055Y-0050554D01*
Y-0051144D01*
X0099003Y-0051145D01*
X0098908Y-0051153D01*
X0098863Y-0051161D01*
X0098822Y-0051170D01*
X0098783Y-0051182D01*
X0098746Y-0051195D01*
X0098712Y-0051211D01*
X0098681Y-0051229D01*
X0098651Y-0051249D01*
Y-0050449D01*
X0098681Y-0050469D01*
D02*
G37*
G36*
X0093553Y-0045475D02*
X0093675Y-0045549D01*
X0093802Y-0045614D01*
X0093935Y-0045671D01*
X0094073Y-0045719D01*
X0094217Y-0045758D01*
X0094367Y-0045788D01*
X0094522Y-0045810D01*
X0094683Y-0045823D01*
X0094849Y-0045828D01*
Y-0046828D01*
X0094683Y-0046832D01*
X0094522Y-0046845D01*
X0094367Y-0046867D01*
X0094217Y-0046897D01*
X0094073Y-0046936D01*
X0093935Y-0046984D01*
X0093802Y-0047041D01*
X0093675Y-0047106D01*
X0093553Y-0047180D01*
X0093437Y-0047263D01*
Y-0045392D01*
X0093553Y-0045475D01*
D02*
G37*
G36*
X0104105Y-0044549D02*
X0104020Y-0044579D01*
X0103945Y-0044629D01*
X0103880Y-0044699D01*
X0103825Y-0044789D01*
X0103780Y-0044899D01*
X0103771Y-0044934D01*
X0103784Y-0044973D01*
X0103831Y-0045089D01*
X0103888Y-0045209D01*
X0103956Y-0045333D01*
X0104124Y-0045594D01*
X0104223Y-0045732D01*
X0102177D01*
X0102276Y-0045594D01*
X0102444Y-0045333D01*
X0102512Y-0045209D01*
X0102569Y-0045089D01*
X0102616Y-0044973D01*
X0102636Y-0044914D01*
X0102633Y-0044899D01*
X0102595Y-0044789D01*
X0102549Y-0044699D01*
X0102494Y-0044629D01*
X0102431Y-0044579D01*
X0102360Y-0044549D01*
X0102280Y-0044539D01*
X0104200D01*
X0104105Y-0044549D01*
D02*
G37*
G36*
X0104124Y-0047405D02*
X0103956Y-0047667D01*
X0103888Y-0047791D01*
X0103831Y-0047911D01*
X0103784Y-0048026D01*
X0103747Y-0048138D01*
X0103721Y-0048245D01*
X0103705Y-0048347D01*
X0103700Y-0048445D01*
X0102700D01*
X0102695Y-0048347D01*
X0102679Y-0048245D01*
X0102653Y-0048138D01*
X0102616Y-0048026D01*
X0102569Y-0047911D01*
X0102512Y-0047791D01*
X0102444Y-0047667D01*
X0102276Y-0047405D01*
X0102177Y-0047268D01*
X0104223D01*
X0104124Y-0047405D01*
D02*
G37*
G36*
X0020583Y-0050010D02*
X0020529Y-0050068D01*
X0020482Y-0050124D01*
X0020442Y-0050179D01*
X0020409Y-0050233D01*
X0020383Y-0050286D01*
X0020365Y-0050337D01*
X0020354Y-0050388D01*
X0020349Y-0050438D01*
X0020353Y-0050486D01*
X0020363Y-0050534D01*
X0019494Y-0049665D01*
X0019541Y-0049675D01*
X0019590Y-0049678D01*
X0019639Y-0049674D01*
X0019690Y-0049663D01*
X0019742Y-0049644D01*
X0019795Y-0049619D01*
X0019849Y-0049586D01*
X0019904Y-0049546D01*
X0019960Y-0049499D01*
X0020017Y-0049445D01*
X0020583Y-0050010D01*
D02*
G37*
G36*
X0050506Y-0048865D02*
X0050676Y-0048874D01*
X0050892Y-0048877D01*
Y-0050077D01*
X0050676Y-0050081D01*
X0050565Y-0050088D01*
X0050582Y-0050437D01*
X0050476Y-0050368D01*
X0050368Y-0050307D01*
X0050259Y-0050253D01*
X0050148Y-0050207D01*
X0050037Y-0050167D01*
X0049996Y-0050155D01*
X0049800Y-0050198D01*
X0049665Y-0050241D01*
X0049544Y-0050292D01*
X0049437Y-0050349D01*
X0049342Y-0050412D01*
Y-0048542D01*
X0049437Y-0048606D01*
X0049544Y-0048663D01*
X0049665Y-0048713D01*
X0049800Y-0048757D01*
X0049866Y-0048773D01*
X0049909Y-0048756D01*
X0050022Y-0048703D01*
X0050136Y-0048640D01*
X0050251Y-0048567D01*
X0050366Y-0048485D01*
X0050482Y-0048393D01*
X0050506Y-0048865D01*
D02*
G37*
G36*
X0014679Y-0052340D02*
X0014567Y-0052456D01*
X0014389Y-0052667D01*
X0014323Y-0052761D01*
X0014273Y-0052848D01*
X0014237Y-0052928D01*
X0014218Y-0053001D01*
X0014213Y-0053066D01*
X0014224Y-0053124D01*
X0014250Y-0053175D01*
X0013564Y-0052215D01*
X0013603Y-0052253D01*
X0013652Y-0052273D01*
X0013710Y-0052276D01*
X0013779Y-0052260D01*
X0013857Y-0052226D01*
X0013946Y-0052174D01*
X0014044Y-0052104D01*
X0014153Y-0052016D01*
X0014399Y-0051785D01*
X0014679Y-0052340D01*
D02*
G37*
G36*
X0049132Y-0054746D02*
X0049220Y-0054757D01*
X0049505Y-0054776D01*
X0051243Y-0054800D01*
X0051129Y-0056800D01*
X0050887Y-0056802D01*
X0050883Y-0056884D01*
X0050856Y-0056868D01*
X0050816Y-0056854D01*
X0050762Y-0056841D01*
X0050696Y-0056830D01*
X0050524Y-0056814D01*
X0050383Y-0056807D01*
X0049082Y-0056819D01*
Y-0054733D01*
X0049132Y-0054746D01*
D02*
G37*
G36*
X0088092Y-0054789D02*
X0088140Y-0054807D01*
X0088199Y-0054823D01*
X0088271Y-0054837D01*
X0088355Y-0054849D01*
X0088375Y-0054851D01*
X0088814Y-0054841D01*
Y-0054873D01*
X0088953Y-0054876D01*
X0089000Y-0056676D01*
X0088858Y-0056678D01*
X0088814Y-0056681D01*
Y-0056712D01*
X0088790Y-0056705D01*
X0088736Y-0056699D01*
X0088635Y-0056694D01*
X0088400Y-0056711D01*
X0088313Y-0056726D01*
X0088238Y-0056744D01*
X0088174Y-0056765D01*
X0088122Y-0056788D01*
X0088080Y-0056814D01*
X0088079Y-0056684D01*
X0087248Y-0056676D01*
Y-0054876D01*
X0088058Y-0054858D01*
X0088056Y-0054768D01*
X0088092Y-0054789D01*
D02*
G37*
G36*
X0103685Y-0056955D02*
X0103212Y-0057682D01*
X0103161Y-0057785D01*
X0103124Y-0057875D01*
X0103103Y-0057951D01*
X0103095Y-0058013D01*
X0102505D01*
X0102497Y-0057951D01*
X0102476Y-0057875D01*
X0102439Y-0057785D01*
X0102388Y-0057682D01*
X0102243Y-0057433D01*
X0102039Y-0057128D01*
X0101777Y-0056768D01*
X0103823D01*
X0103685Y-0056955D01*
D02*
G37*
G36*
X0014220Y-0058614D02*
X0014207Y-0058670D01*
X0014210Y-0058734D01*
X0014229Y-0058805D01*
X0014264Y-0058885D01*
X0014315Y-0058972D01*
X0014382Y-0059068D01*
X0014465Y-0059171D01*
X0014679Y-0059402D01*
X0014329Y-0059886D01*
X0014203Y-0059765D01*
X0013981Y-0059575D01*
X0013883Y-0059506D01*
X0013795Y-0059454D01*
X0013716Y-0059420D01*
X0013647Y-0059403D01*
X0013586Y-0059403D01*
X0013535Y-0059421D01*
X0013493Y-0059456D01*
X0014250Y-0058566D01*
X0014220Y-0058614D01*
D02*
G37*
G36*
X0005901Y-0057126D02*
X0005979Y-0057163D01*
X0006069Y-0057195D01*
X0006170Y-0057223D01*
X0006283Y-0057247D01*
X0006545Y-0057281D01*
X0006584Y-0057284D01*
X0007908Y-0057193D01*
X0007969Y-0057164D01*
X0007988Y-0057132D01*
Y-0059468D01*
X0007969Y-0059436D01*
X0007908Y-0059408D01*
X0007808Y-0059383D01*
X0007668Y-0059361D01*
X0007489Y-0059342D01*
X0006849Y-0059313D01*
X0006670Y-0059327D01*
X0006533Y-0059349D01*
X0006404Y-0059376D01*
X0006285Y-0059409D01*
X0006176Y-0059449D01*
X0006076Y-0059494D01*
X0005986Y-0059545D01*
X0005905Y-0059603D01*
X0005834Y-0057086D01*
X0005901Y-0057126D01*
D02*
G37*
G36*
X0089074Y-0053670D02*
X0089034Y-0053662D01*
X0088957Y-0053654D01*
X0088496Y-0053637D01*
X0087282Y-0053629D01*
X0086665Y-0053670D01*
X0086628Y-0053682D01*
X0086604Y-0053695D01*
X0086531Y-0051650D01*
X0086970Y-0051636D01*
Y-0051627D01*
X0089074Y-0051584D01*
Y-0053670D01*
D02*
G37*
G36*
X0110672Y-0054630D02*
X0110573Y-0054562D01*
X0110467Y-0054501D01*
X0110354Y-0054447D01*
X0110235Y-0054400D01*
X0110110Y-0054361D01*
X0109977Y-0054328D01*
X0109838Y-0054303D01*
X0109738Y-0054291D01*
X0109003Y-0054338D01*
X0108841Y-0054367D01*
X0108715Y-0054402D01*
X0108625Y-0054443D01*
X0108571Y-0054488D01*
X0108553Y-0054539D01*
Y-0052203D01*
X0108571Y-0052254D01*
X0108625Y-0052299D01*
X0108715Y-0052340D01*
X0108841Y-0052374D01*
X0109003Y-0052404D01*
X0109201Y-0052428D01*
X0109650Y-0052457D01*
X0109838Y-0052438D01*
X0109977Y-0052413D01*
X0110110Y-0052381D01*
X0110235Y-0052342D01*
X0110354Y-0052295D01*
X0110467Y-0052241D01*
X0110573Y-0052180D01*
X0110672Y-0052112D01*
Y-0054630D01*
D02*
G37*
G36*
X0005969Y-0052180D02*
X0006075Y-0052241D01*
X0006187Y-0052295D01*
X0006306Y-0052342D01*
X0006432Y-0052381D01*
X0006565Y-0052413D01*
X0006704Y-0052438D01*
X0006803Y-0052451D01*
X0007539Y-0052404D01*
X0007701Y-0052374D01*
X0007827Y-0052340D01*
X0007917Y-0052299D01*
X0007971Y-0052254D01*
X0007989Y-0052203D01*
Y-0054539D01*
X0007971Y-0054488D01*
X0007917Y-0054443D01*
X0007827Y-0054402D01*
X0007701Y-0054367D01*
X0007539Y-0054338D01*
X0007341Y-0054314D01*
X0006892Y-0054285D01*
X0006704Y-0054303D01*
X0006565Y-0054328D01*
X0006432Y-0054361D01*
X0006306Y-0054400D01*
X0006187Y-0054447D01*
X0006075Y-0054501D01*
X0005969Y-0054562D01*
X0005870Y-0054630D01*
Y-0052112D01*
X0005969Y-0052180D01*
D02*
G37*
G36*
X0103180Y-0056329D02*
X0103162Y-0056361D01*
X0103147Y-0056395D01*
X0103133Y-0056432D01*
X0103121Y-0056471D01*
X0103112Y-0056512D01*
X0103105Y-0056556D01*
X0103100Y-0056603D01*
X0103095Y-0056704D01*
X0102505D01*
X0102504Y-0056652D01*
X0102495Y-0056556D01*
X0102488Y-0056512D01*
X0102479Y-0056471D01*
X0102467Y-0056432D01*
X0102453Y-0056395D01*
X0102438Y-0056361D01*
X0102420Y-0056329D01*
X0102400Y-0056300D01*
X0103200D01*
X0103180Y-0056329D01*
D02*
G37*
G36*
X0103751Y-0054376D02*
X0103753Y-0054498D01*
X0103756Y-0054539D01*
X0104222D01*
X0104133Y-0054549D01*
X0104053Y-0054579D01*
X0103982Y-0054629D01*
X0103921Y-0054699D01*
X0103869Y-0054789D01*
X0103827Y-0054899D01*
X0103809Y-0054966D01*
X0103830Y-0055068D01*
X0103858Y-0055175D01*
X0103928Y-0055380D01*
X0103969Y-0055479D01*
X0103754Y-0055430D01*
X0103751Y-0055539D01*
X0102751D01*
X0102746Y-0055349D01*
X0102734Y-0055196D01*
X0101975Y-0055022D01*
X0102123Y-0054893D01*
X0102371Y-0054651D01*
X0102438Y-0054575D01*
X0102369Y-0054549D01*
X0102280Y-0054539D01*
X0102470D01*
X0102472Y-0054537D01*
X0102557Y-0054428D01*
X0102627Y-0054323D01*
X0102681Y-0054224D01*
X0102720Y-0054129D01*
X0102743Y-0054039D01*
X0102751Y-0053954D01*
X0103751Y-0054376D01*
D02*
G37*
G36*
X0083011Y-0030846D02*
X0082947Y-0030938D01*
X0082891Y-0031061D01*
X0082840Y-0031215D01*
X0082797Y-0031399D01*
X0082760Y-0031613D01*
X0082706Y-0032132D01*
X0082680Y-0032773D01*
X0082679Y-0032852D01*
X0082719Y-0034828D01*
X0080633D01*
X0080642Y-0034788D01*
X0080649Y-0034710D01*
X0080666Y-0034249D01*
X0080676Y-0032803D01*
X0080675Y-0032563D01*
X0080576Y-0030914D01*
X0080550Y-0030819D01*
X0080520Y-0030760D01*
X0083011Y-0030846D01*
D02*
G37*
G36*
X0066938Y-0033207D02*
X0067136D01*
X0067096Y-0033228D01*
X0067061Y-0033288D01*
X0067030Y-0033388D01*
X0067003Y-0033527D01*
X0066980Y-0033707D01*
X0066956Y-0034061D01*
X0066971Y-0034828D01*
X0066935D01*
X0066928Y-0035208D01*
X0064928D01*
X0064926Y-0034828D01*
X0064885D01*
X0064893Y-0034788D01*
X0064901Y-0034710D01*
X0064907Y-0034546D01*
X0064827Y-0033388D01*
X0064796Y-0033288D01*
X0064760Y-0033228D01*
X0064721Y-0033207D01*
X0064925D01*
X0064928Y-0032724D01*
X0066928D01*
X0066938Y-0033207D01*
D02*
G37*
G36*
X0011650Y-0034934D02*
X0012472Y-0036079D01*
X0012411Y-0036083D01*
X0012345Y-0036097D01*
X0012275Y-0036122D01*
X0012200Y-0036158D01*
X0012121Y-0036203D01*
X0012038Y-0036259D01*
X0011950Y-0036326D01*
X0011762Y-0036490D01*
X0011709Y-0036541D01*
X0011782Y-0037590D01*
X0011808Y-0037670D01*
X0011836Y-0037718D01*
X0011868Y-0037734D01*
X0009532D01*
X0009564Y-0037718D01*
X0009592Y-0037670D01*
X0009618Y-0037590D01*
X0009640Y-0037478D01*
X0009658Y-0037334D01*
X0009685Y-0036950D01*
X0009700Y-0036135D01*
X0011136D01*
X0010143Y-0035277D01*
X0010828Y-0034759D01*
X0010752Y-0034667D01*
X0010671Y-0034594D01*
X0010600Y-0034542D01*
X0010539Y-0034510D01*
X0010488Y-0034500D01*
X0010823Y-0033900D01*
X0010904Y-0033897D01*
X0010995Y-0033888D01*
X0011206Y-0033851D01*
X0011327Y-0033823D01*
X0011905Y-0033652D01*
X0012074Y-0033593D01*
X0011650Y-0034934D01*
D02*
G37*
G36*
X0056884Y-0033520D02*
X0056915Y-0033867D01*
X0056942Y-0034008D01*
X0056977Y-0034127D01*
X0057020Y-0034225D01*
X0057071Y-0034301D01*
X0057130Y-0034355D01*
X0057196Y-0034387D01*
X0057270Y-0034398D01*
X0055689D01*
X0055763Y-0034387D01*
X0055830Y-0034355D01*
X0055888Y-0034301D01*
X0055939Y-0034225D01*
X0055982Y-0034127D01*
X0056017Y-0034008D01*
X0056044Y-0033867D01*
X0056064Y-0033704D01*
X0056076Y-0033520D01*
X0056080Y-0033314D01*
X0056880D01*
X0056884Y-0033520D01*
D02*
G37*
G36*
X0060033D02*
X0060064Y-0033867D01*
X0060092Y-0034008D01*
X0060127Y-0034127D01*
X0060170Y-0034225D01*
X0060220Y-0034301D01*
X0060279Y-0034355D01*
X0060345Y-0034387D01*
X0060420Y-0034398D01*
X0058839D01*
X0058913Y-0034387D01*
X0058979Y-0034355D01*
X0059038Y-0034301D01*
X0059089Y-0034225D01*
X0059131Y-0034127D01*
X0059167Y-0034008D01*
X0059194Y-0033867D01*
X0059214Y-0033704D01*
X0059225Y-0033520D01*
X0059229Y-0033314D01*
X0060029D01*
X0060033Y-0033520D01*
D02*
G37*
G36*
X0106800Y-0034977D02*
X0104800Y-0035343D01*
X0104796Y-0035212D01*
X0104783Y-0035090D01*
X0104761Y-0034978D01*
X0104731Y-0034875D01*
X0104692Y-0034782D01*
X0104644Y-0034699D01*
X0104588Y-0034626D01*
X0104523Y-0034562D01*
X0104449Y-0034508D01*
X0104367Y-0034463D01*
X0106164Y-0033499D01*
X0106800Y-0034977D01*
D02*
G37*
G36*
X0051227Y-0030832D02*
X0051288Y-0030902D01*
X0051388Y-0030964D01*
X0051528Y-0031017D01*
X0051708Y-0031063D01*
X0051928Y-0031100D01*
X0052188Y-0031128D01*
X0052828Y-0031161D01*
X0053207Y-0031165D01*
Y-0032724D01*
X0054330D01*
X0054338Y-0033137D01*
X0054498D01*
X0054466Y-0033157D01*
X0054438Y-0033217D01*
X0054412Y-0033317D01*
X0054391Y-0033457D01*
X0054372Y-0033637D01*
X0054356Y-0033991D01*
X0054373Y-0034828D01*
X0054333D01*
X0054330Y-0035137D01*
X0052330D01*
X0052329Y-0034828D01*
X0052287D01*
X0052295Y-0034788D01*
X0052302Y-0034710D01*
X0052310Y-0034494D01*
X0052222Y-0033217D01*
X0052199Y-0033167D01*
X0051208Y-0033169D01*
Y-0030754D01*
X0051227Y-0030832D01*
D02*
G37*
G36*
X0050577Y-0042570D02*
X0050676Y-0042575D01*
X0050892Y-0042578D01*
Y-0043778D01*
X0050757Y-0043780D01*
X0050791Y-0044003D01*
X0050705Y-0043960D01*
X0050615Y-0043922D01*
X0050520Y-0043888D01*
X0050420Y-0043859D01*
X0050316Y-0043834D01*
X0050213Y-0043818D01*
X0050110Y-0043832D01*
X0049800Y-0043899D01*
X0049665Y-0043942D01*
X0049544Y-0043992D01*
X0049437Y-0044050D01*
X0049342Y-0044113D01*
Y-0042243D01*
X0049437Y-0042306D01*
X0049544Y-0042363D01*
X0049665Y-0042414D01*
X0049800Y-0042457D01*
X0049840Y-0042467D01*
X0049919Y-0042428D01*
X0050030Y-0042362D01*
X0050142Y-0042285D01*
X0050256Y-0042195D01*
X0050372Y-0042093D01*
X0050489Y-0041980D01*
X0050577Y-0042570D01*
D02*
G37*
G36*
X0005944Y-0042161D02*
X0006029Y-0042205D01*
X0006125Y-0042244D01*
X0006230Y-0042278D01*
X0006347Y-0042306D01*
X0006474Y-0042329D01*
X0006759Y-0042360D01*
X0006917Y-0042368D01*
X0007086Y-0042371D01*
Y-0044371D01*
X0006917Y-0044374D01*
X0006474Y-0044412D01*
X0006347Y-0044436D01*
X0006230Y-0044464D01*
X0006125Y-0044498D01*
X0006029Y-0044537D01*
X0005944Y-0044581D01*
X0005870Y-0044630D01*
Y-0042112D01*
X0005944Y-0042161D01*
D02*
G37*
G36*
X0051194Y-0047221D02*
X0051096Y-0047165D01*
X0050995Y-0047115D01*
X0050892Y-0047071D01*
X0050786Y-0047033D01*
X0050677Y-0047001D01*
X0050565Y-0046975D01*
X0050451Y-0046954D01*
X0050412Y-0046949D01*
X0050285Y-0046958D01*
X0050110Y-0046981D01*
X0049800Y-0047048D01*
X0049665Y-0047092D01*
X0049544Y-0047142D01*
X0049437Y-0047199D01*
X0049342Y-0047263D01*
Y-0045392D01*
X0049437Y-0045456D01*
X0049544Y-0045513D01*
X0049665Y-0045563D01*
X0049800Y-0045607D01*
X0049948Y-0045644D01*
X0050110Y-0045674D01*
X0050183Y-0045682D01*
X0050197Y-0045679D01*
X0050307Y-0045641D01*
X0050418Y-0045592D01*
X0050530Y-0045532D01*
X0050644Y-0045461D01*
X0050759Y-0045380D01*
X0050876Y-0045288D01*
X0050993Y-0045185D01*
X0051194Y-0047221D01*
D02*
G37*
G36*
X0103682Y-0039147D02*
X0103710Y-0039151D01*
X0103753Y-0039154D01*
X0104189Y-0039164D01*
X0104466Y-0039165D01*
Y-0041165D01*
X0103668Y-0041188D01*
Y-0039142D01*
X0103682Y-0039147D01*
D02*
G37*
G36*
X0110672Y-0044630D02*
X0110597Y-0044581D01*
X0110512Y-0044537D01*
X0110417Y-0044498D01*
X0110311Y-0044464D01*
X0110195Y-0044436D01*
X0110068Y-0044412D01*
X0109885Y-0044392D01*
X0108633Y-0044478D01*
X0108573Y-0044507D01*
X0108553Y-0044539D01*
Y-0042203D01*
X0108573Y-0042235D01*
X0108633Y-0042263D01*
X0108733Y-0042289D01*
X0108873Y-0042310D01*
X0109053Y-0042329D01*
X0109727Y-0042359D01*
X0110068Y-0042329D01*
X0110195Y-0042306D01*
X0110311Y-0042278D01*
X0110417Y-0042244D01*
X0110512Y-0042205D01*
X0110597Y-0042161D01*
X0110672Y-0042112D01*
Y-0044630D01*
D02*
G37*
G36*
X0095234Y-0042764D02*
X0094911Y-0043083D01*
X0094024Y-0043862D01*
X0093904Y-0043933D01*
X0093825Y-0043954D01*
X0093787Y-0043925D01*
X0093789Y-0043846D01*
X0093832Y-0043718D01*
X0093293Y-0042196D01*
X0093342Y-0042301D01*
X0093405Y-0042377D01*
X0093480Y-0042423D01*
X0093570Y-0042439D01*
X0093672Y-0042426D01*
X0093788Y-0042383D01*
X0093918Y-0042311D01*
X0094060Y-0042209D01*
X0094216Y-0042077D01*
X0094386Y-0041916D01*
X0095234Y-0042764D01*
D02*
G37*
%LPC*%
G36*
X0010466Y-0085918D02*
X0010409D01*
X0010243Y-0085923D01*
X0010095Y-0085935D01*
X0009964Y-0085958D01*
X0009855Y-0085975D01*
X0009815Y-0085986D01*
X0009775Y-0085998D01*
X0009741Y-0086009D01*
X0009712Y-0086021D01*
X0009690Y-0086026D01*
X0009672Y-0086032D01*
X0009667Y-0086038D01*
X0009661D01*
X0009564Y-0086083D01*
X0009484Y-0086141D01*
X0009410Y-0086198D01*
X0009353Y-0086249D01*
X0009307Y-0086295D01*
X0009278Y-0086335D01*
X0009256Y-0086357D01*
X0009250Y-0086369D01*
X0009204Y-0086449D01*
X0009176Y-0086523D01*
X0009153Y-0086597D01*
X0009136Y-0086666D01*
X0009124Y-0086723D01*
X0009119Y-0086769D01*
Y-0086797D01*
Y-0086809D01*
X0009124Y-0086877D01*
X0009130Y-0086934D01*
X0009159Y-0087054D01*
X0009204Y-0087151D01*
X0009250Y-0087237D01*
X0009296Y-0087305D01*
X0009341Y-0087357D01*
X0009370Y-0087385D01*
X0009381Y-0087397D01*
X0009433Y-0087437D01*
X0009495Y-0087477D01*
X0009632Y-0087551D01*
X0009775Y-0087614D01*
X0009924Y-0087665D01*
X0009992Y-0087688D01*
X0010055Y-0087711D01*
X0010112Y-0087728D01*
X0010164Y-0087739D01*
X0010209Y-0087751D01*
X0010238Y-0087762D01*
X0010261Y-0087768D01*
X0010266D01*
X0010335Y-0087785D01*
X0010398Y-0087796D01*
X0010449Y-0087814D01*
X0010500Y-0087831D01*
X0010586Y-0087859D01*
X0010649Y-0087888D01*
X0010695Y-0087911D01*
X0010723Y-0087928D01*
X0010740Y-0087939D01*
X0010746Y-0087945D01*
X0010780Y-0087979D01*
X0010809Y-0088013D01*
X0010826Y-0088053D01*
X0010843Y-0088082D01*
X0010849Y-0088110D01*
X0010854Y-0088133D01*
Y-0088150D01*
Y-0088156D01*
X0010849Y-0088202D01*
X0010837Y-0088242D01*
X0010797Y-0088310D01*
X0010774Y-0088333D01*
X0010757Y-0088356D01*
X0010746Y-0088367D01*
X0010740Y-0088373D01*
X0010695Y-0088402D01*
X0010649Y-0088424D01*
X0010597Y-0088442D01*
X0010546Y-0088453D01*
X0010500Y-0088459D01*
X0010466Y-0088464D01*
X0010432D01*
X0010335Y-0088459D01*
X0010255Y-0088436D01*
X0010181Y-0088407D01*
X0010124Y-0088373D01*
X0010078Y-0088339D01*
X0010044Y-0088310D01*
X0010021Y-0088287D01*
X0010015Y-0088282D01*
X0009986Y-0088236D01*
X0009964Y-0088179D01*
X0009924Y-0088070D01*
X0009912Y-0088025D01*
X0009906Y-0087985D01*
X0009901Y-0087962D01*
Y-0087950D01*
X0009004Y-0088008D01*
X0009016Y-0088093D01*
X0009027Y-0088173D01*
X0009073Y-0088322D01*
X0009124Y-0088453D01*
X0009181Y-0088561D01*
X0009210Y-0088607D01*
X0009238Y-0088647D01*
X0009267Y-0088681D01*
X0009290Y-0088716D01*
X0009307Y-0088739D01*
X0009324Y-0088756D01*
X0009330Y-0088761D01*
X0009336Y-0088767D01*
X0009398Y-0088819D01*
X0009467Y-0088864D01*
X0009547Y-0088904D01*
X0009632Y-0088938D01*
X0009809Y-0088990D01*
X0009986Y-0089024D01*
X0010072Y-0089041D01*
X0010152Y-0089047D01*
X0010226Y-0089053D01*
X0010289Y-0089058D01*
X0010340Y-0089064D01*
X0010415D01*
X0010575Y-0089058D01*
X0010717Y-0089047D01*
X0010843Y-0089024D01*
X0010951Y-0089001D01*
X0011037Y-0088978D01*
X0011071Y-0088967D01*
X0011100Y-0088955D01*
X0011123Y-0088950D01*
X0011140Y-0088944D01*
X0011146Y-0088938D01*
X0011151D01*
X0011254Y-0088887D01*
X0011345Y-0088830D01*
X0011420Y-0088767D01*
X0011488Y-0088704D01*
X0011534Y-0088653D01*
X0011574Y-0088607D01*
X0011597Y-0088579D01*
X0011602Y-0088567D01*
X0011660Y-0088470D01*
X0011699Y-0088379D01*
X0011728Y-0088287D01*
X0011745Y-0088202D01*
X0011762Y-0088127D01*
X0011768Y-0088076D01*
Y-0088053D01*
Y-0088036D01*
Y-0088030D01*
Y-0088025D01*
X0011762Y-0087933D01*
X0011751Y-0087848D01*
X0011728Y-0087774D01*
X0011705Y-0087705D01*
X0011682Y-0087648D01*
X0011660Y-0087608D01*
X0011648Y-0087585D01*
X0011642Y-0087574D01*
X0011591Y-0087499D01*
X0011534Y-0087437D01*
X0011465Y-0087379D01*
X0011402Y-0087328D01*
X0011345Y-0087288D01*
X0011300Y-0087260D01*
X0011265Y-0087243D01*
X0011260Y-0087237D01*
X0011254D01*
X0011203Y-0087208D01*
X0011140Y-0087185D01*
X0011003Y-0087134D01*
X0010854Y-0087094D01*
X0010712Y-0087048D01*
X0010643Y-0087031D01*
X0010580Y-0087020D01*
X0010523Y-0087003D01*
X0010472Y-0086991D01*
X0010426Y-0086980D01*
X0010398Y-0086974D01*
X0010375Y-0086968D01*
X0010369D01*
X0010283Y-0086951D01*
X0010215Y-0086928D01*
X0010164Y-0086911D01*
X0010118Y-0086894D01*
X0010089Y-0086877D01*
X0010072Y-0086866D01*
X0010061Y-0086854D01*
X0010055D01*
X0010032Y-0086831D01*
X0010015Y-0086809D01*
X0009998Y-0086769D01*
X0009986Y-0086734D01*
Y-0086729D01*
Y-0086723D01*
X0009992Y-0086689D01*
X0009998Y-0086654D01*
X0010026Y-0086603D01*
X0010055Y-0086569D01*
X0010061Y-0086563D01*
X0010066Y-0086557D01*
X0010101Y-0086535D01*
X0010141Y-0086512D01*
X0010226Y-0086494D01*
X0010261Y-0086489D01*
X0010289Y-0086483D01*
X0010318D01*
X0010386Y-0086489D01*
X0010449Y-0086500D01*
X0010506Y-0086512D01*
X0010552Y-0086529D01*
X0010586Y-0086552D01*
X0010609Y-0086563D01*
X0010626Y-0086574D01*
X0010632Y-0086580D01*
X0010672Y-0086620D01*
X0010706Y-0086666D01*
X0010729Y-0086712D01*
X0010752Y-0086763D01*
X0010769Y-0086809D01*
X0010780Y-0086843D01*
X0010786Y-0086866D01*
Y-0086877D01*
X0011671Y-0086826D01*
X0011654Y-0086740D01*
X0011637Y-0086660D01*
X0011614Y-0086586D01*
X0011585Y-0086517D01*
X0011557Y-0086454D01*
X0011528Y-0086397D01*
X0011460Y-0086300D01*
X0011402Y-0086226D01*
X0011351Y-0086175D01*
X0011311Y-0086146D01*
X0011305Y-0086135D01*
X0011300D01*
X0011243Y-0086095D01*
X0011174Y-0086061D01*
X0011031Y-0086009D01*
X0010883Y-0085969D01*
X0010740Y-0085946D01*
X0010672Y-0085935D01*
X0010609Y-0085929D01*
X0010557Y-0085923D01*
X0010506D01*
X0010466Y-0085918D01*
D02*
G37*
G36*
X0016639Y-0086757D02*
X0016604D01*
X0016507Y-0086763D01*
X0016422Y-0086774D01*
X0016347Y-0086786D01*
X0016285Y-0086803D01*
X0016233Y-0086826D01*
X0016193Y-0086837D01*
X0016165Y-0086848D01*
X0016159Y-0086854D01*
X0016090Y-0086894D01*
X0016028Y-0086946D01*
X0015970Y-0086997D01*
X0015913Y-0087048D01*
X0015868Y-0087094D01*
X0015834Y-0087134D01*
X0015811Y-0087157D01*
X0015805Y-0087168D01*
Y-0086809D01*
X0015023D01*
Y-0089013D01*
X0015868D01*
Y-0087956D01*
X0015873Y-0087853D01*
X0015885Y-0087762D01*
X0015896Y-0087694D01*
X0015913Y-0087637D01*
X0015931Y-0087591D01*
X0015948Y-0087562D01*
X0015953Y-0087545D01*
X0015959Y-0087539D01*
X0015999Y-0087499D01*
X0016039Y-0087471D01*
X0016079Y-0087448D01*
X0016119Y-0087437D01*
X0016159Y-0087425D01*
X0016187Y-0087419D01*
X0016210D01*
X0016262Y-0087425D01*
X0016302Y-0087431D01*
X0016336Y-0087448D01*
X0016370Y-0087465D01*
X0016393Y-0087482D01*
X0016410Y-0087494D01*
X0016416Y-0087505D01*
X0016422Y-0087511D01*
X0016450Y-0087545D01*
X0016467Y-0087591D01*
X0016490Y-0087688D01*
X0016496Y-0087734D01*
X0016502Y-0087768D01*
Y-0087791D01*
Y-0087802D01*
Y-0089013D01*
X0017352D01*
Y-0087614D01*
X0017347Y-0087459D01*
X0017324Y-0087328D01*
X0017289Y-0087220D01*
X0017255Y-0087128D01*
X0017215Y-0087060D01*
X0017187Y-0087008D01*
X0017164Y-0086980D01*
X0017153Y-0086968D01*
X0017073Y-0086900D01*
X0016981Y-0086848D01*
X0016890Y-0086809D01*
X0016804Y-0086786D01*
X0016724Y-0086769D01*
X0016661Y-0086763D01*
X0016639Y-0086757D01*
D02*
G37*
G36*
X0014509Y-0086809D02*
X0013664D01*
Y-0087871D01*
X0013658Y-0087973D01*
X0013646Y-0088065D01*
X0013635Y-0088133D01*
X0013618Y-0088190D01*
X0013595Y-0088236D01*
X0013584Y-0088265D01*
X0013572Y-0088282D01*
X0013567Y-0088287D01*
X0013527Y-0088327D01*
X0013487Y-0088356D01*
X0013447Y-0088373D01*
X0013407Y-0088384D01*
X0013367Y-0088396D01*
X0013344Y-0088402D01*
X0013315D01*
X0013270Y-0088396D01*
X0013224Y-0088390D01*
X0013184Y-0088373D01*
X0013156Y-0088356D01*
X0013133Y-0088345D01*
X0013115Y-0088327D01*
X0013104Y-0088322D01*
X0013098Y-0088316D01*
X0013076Y-0088276D01*
X0013058Y-0088236D01*
X0013036Y-0088139D01*
X0013030Y-0088093D01*
X0013024Y-0088059D01*
Y-0088036D01*
Y-0088025D01*
Y-0086809D01*
X0012173D01*
Y-0088213D01*
X0012179Y-0088367D01*
X0012202Y-0088499D01*
X0012236Y-0088607D01*
X0012270Y-0088699D01*
X0012305Y-0088767D01*
X0012339Y-0088819D01*
X0012362Y-0088847D01*
X0012368Y-0088858D01*
X0012448Y-0088927D01*
X0012539Y-0088978D01*
X0012630Y-0089013D01*
X0012716Y-0089035D01*
X0012796Y-0089053D01*
X0012859Y-0089058D01*
X0012881Y-0089064D01*
X0012916D01*
X0013013Y-0089058D01*
X0013093Y-0089047D01*
X0013173Y-0089035D01*
X0013235Y-0089018D01*
X0013287Y-0089001D01*
X0013321Y-0088984D01*
X0013350Y-0088978D01*
X0013355Y-0088973D01*
X0013424Y-0088933D01*
X0013487Y-0088887D01*
X0013550Y-0088836D01*
X0013607Y-0088779D01*
X0013652Y-0088733D01*
X0013687Y-0088693D01*
X0013709Y-0088670D01*
X0013715Y-0088659D01*
Y-0089013D01*
X0014509D01*
Y-0086809D01*
D02*
G37*
G36*
X0019214Y-0085918D02*
X0019157D01*
X0018991Y-0085923D01*
X0018843Y-0085935D01*
X0018711Y-0085958D01*
X0018603Y-0085975D01*
X0018563Y-0085986D01*
X0018523Y-0085998D01*
X0018489Y-0086009D01*
X0018460Y-0086021D01*
X0018437Y-0086026D01*
X0018420Y-0086032D01*
X0018414Y-0086038D01*
X0018409D01*
X0018312Y-0086083D01*
X0018232Y-0086141D01*
X0018158Y-0086198D01*
X0018100Y-0086249D01*
X0018055Y-0086295D01*
X0018026Y-0086335D01*
X0018003Y-0086357D01*
X0017998Y-0086369D01*
X0017952Y-0086449D01*
X0017923Y-0086523D01*
X0017900Y-0086597D01*
X0017883Y-0086666D01*
X0017872Y-0086723D01*
X0017866Y-0086769D01*
Y-0086797D01*
Y-0086809D01*
X0017872Y-0086877D01*
X0017878Y-0086934D01*
X0017906Y-0087054D01*
X0017952Y-0087151D01*
X0017998Y-0087237D01*
X0018043Y-0087305D01*
X0018089Y-0087357D01*
X0018117Y-0087385D01*
X0018129Y-0087397D01*
X0018180Y-0087437D01*
X0018243Y-0087477D01*
X0018380Y-0087551D01*
X0018523Y-0087614D01*
X0018671Y-0087665D01*
X0018740Y-0087688D01*
X0018803Y-0087711D01*
X0018860Y-0087728D01*
X0018911Y-0087739D01*
X0018957Y-0087751D01*
X0018985Y-0087762D01*
X0019008Y-0087768D01*
X0019014D01*
X0019083Y-0087785D01*
X0019145Y-0087796D01*
X0019197Y-0087814D01*
X0019248Y-0087831D01*
X0019334Y-0087859D01*
X0019397Y-0087888D01*
X0019442Y-0087911D01*
X0019471Y-0087928D01*
X0019488Y-0087939D01*
X0019494Y-0087945D01*
X0019528Y-0087979D01*
X0019556Y-0088013D01*
X0019573Y-0088053D01*
X0019591Y-0088082D01*
X0019596Y-0088110D01*
X0019602Y-0088133D01*
Y-0088150D01*
Y-0088156D01*
X0019596Y-0088202D01*
X0019585Y-0088242D01*
X0019545Y-0088310D01*
X0019522Y-0088333D01*
X0019505Y-0088356D01*
X0019494Y-0088367D01*
X0019488Y-0088373D01*
X0019442Y-0088402D01*
X0019397Y-0088424D01*
X0019345Y-0088442D01*
X0019294Y-0088453D01*
X0019248Y-0088459D01*
X0019214Y-0088464D01*
X0019180D01*
X0019083Y-0088459D01*
X0019003Y-0088436D01*
X0018928Y-0088407D01*
X0018871Y-0088373D01*
X0018825Y-0088339D01*
X0018791Y-0088310D01*
X0018768Y-0088287D01*
X0018763Y-0088282D01*
X0018734Y-0088236D01*
X0018711Y-0088179D01*
X0018671Y-0088070D01*
X0018660Y-0088025D01*
X0018654Y-0087985D01*
X0018649Y-0087962D01*
Y-0087950D01*
X0017752Y-0088008D01*
X0017763Y-0088093D01*
X0017775Y-0088173D01*
X0017821Y-0088322D01*
X0017872Y-0088453D01*
X0017929Y-0088561D01*
X0017958Y-0088607D01*
X0017986Y-0088647D01*
X0018015Y-0088681D01*
X0018037Y-0088716D01*
X0018055Y-0088739D01*
X0018072Y-0088756D01*
X0018078Y-0088761D01*
X0018083Y-0088767D01*
X0018146Y-0088819D01*
X0018214Y-0088864D01*
X0018294Y-0088904D01*
X0018380Y-0088938D01*
X0018557Y-0088990D01*
X0018734Y-0089024D01*
X0018820Y-0089041D01*
X0018900Y-0089047D01*
X0018974Y-0089053D01*
X0019037Y-0089058D01*
X0019088Y-0089064D01*
X0019162D01*
X0019322Y-0089058D01*
X0019465Y-0089047D01*
X0019591Y-0089024D01*
X0019699Y-0089001D01*
X0019785Y-0088978D01*
X0019819Y-0088967D01*
X0019848Y-0088955D01*
X0019870Y-0088950D01*
X0019888Y-0088944D01*
X0019893Y-0088938D01*
X0019899D01*
X0020002Y-0088887D01*
X0020093Y-0088830D01*
X0020167Y-0088767D01*
X0020236Y-0088704D01*
X0020282Y-0088653D01*
X0020322Y-0088607D01*
X0020344Y-0088579D01*
X0020350Y-0088567D01*
X0020407Y-0088470D01*
X0020447Y-0088379D01*
X0020476Y-0088287D01*
X0020493Y-0088202D01*
X0020510Y-0088127D01*
X0020516Y-0088076D01*
Y-0088053D01*
Y-0088036D01*
Y-0088030D01*
Y-0088025D01*
X0020510Y-0087933D01*
X0020499Y-0087848D01*
X0020476Y-0087774D01*
X0020453Y-0087705D01*
X0020430Y-0087648D01*
X0020407Y-0087608D01*
X0020396Y-0087585D01*
X0020390Y-0087574D01*
X0020339Y-0087499D01*
X0020282Y-0087437D01*
X0020213Y-0087379D01*
X0020150Y-0087328D01*
X0020093Y-0087288D01*
X0020048Y-0087260D01*
X0020013Y-0087243D01*
X0020008Y-0087237D01*
X0020002D01*
X0019950Y-0087208D01*
X0019888Y-0087185D01*
X0019750Y-0087134D01*
X0019602Y-0087094D01*
X0019459Y-0087048D01*
X0019391Y-0087031D01*
X0019328Y-0087020D01*
X0019271Y-0087003D01*
X0019219Y-0086991D01*
X0019174Y-0086980D01*
X0019145Y-0086974D01*
X0019122Y-0086968D01*
X0019117D01*
X0019031Y-0086951D01*
X0018963Y-0086928D01*
X0018911Y-0086911D01*
X0018866Y-0086894D01*
X0018837Y-0086877D01*
X0018820Y-0086866D01*
X0018808Y-0086854D01*
X0018803D01*
X0018780Y-0086831D01*
X0018763Y-0086809D01*
X0018746Y-0086769D01*
X0018734Y-0086734D01*
Y-0086729D01*
Y-0086723D01*
X0018740Y-0086689D01*
X0018746Y-0086654D01*
X0018774Y-0086603D01*
X0018803Y-0086569D01*
X0018808Y-0086563D01*
X0018814Y-0086557D01*
X0018848Y-0086535D01*
X0018888Y-0086512D01*
X0018974Y-0086494D01*
X0019008Y-0086489D01*
X0019037Y-0086483D01*
X0019065D01*
X0019134Y-0086489D01*
X0019197Y-0086500D01*
X0019254Y-0086512D01*
X0019299Y-0086529D01*
X0019334Y-0086552D01*
X0019356Y-0086563D01*
X0019374Y-0086574D01*
X0019379Y-0086580D01*
X0019419Y-0086620D01*
X0019454Y-0086666D01*
X0019477Y-0086712D01*
X0019499Y-0086763D01*
X0019516Y-0086809D01*
X0019528Y-0086843D01*
X0019534Y-0086866D01*
Y-0086877D01*
X0020419Y-0086826D01*
X0020402Y-0086740D01*
X0020384Y-0086660D01*
X0020361Y-0086586D01*
X0020333Y-0086517D01*
X0020304Y-0086454D01*
X0020276Y-0086397D01*
X0020207Y-0086300D01*
X0020150Y-0086226D01*
X0020099Y-0086175D01*
X0020059Y-0086146D01*
X0020053Y-0086135D01*
X0020048D01*
X0019990Y-0086095D01*
X0019922Y-0086061D01*
X0019779Y-0086009D01*
X0019631Y-0085969D01*
X0019488Y-0085946D01*
X0019419Y-0085935D01*
X0019356Y-0085929D01*
X0019305Y-0085923D01*
X0019254D01*
X0019214Y-0085918D01*
D02*
G37*
G36*
X0040800Y-0087950D02*
X0040380D01*
X0040230Y-0087980D01*
X0040140Y-0088010D01*
X0040020Y-0088070D01*
X0039930Y-0088130D01*
X0039810Y-0088250D01*
X0039780Y-0088310D01*
X0039720Y-0088400D01*
X0039690Y-0088490D01*
Y-0088910D01*
X0039720Y-0089000D01*
X0039780Y-0089120D01*
X0039960Y-0089300D01*
X0040140Y-0089390D01*
X0040230Y-0089420D01*
X0040350Y-0089450D01*
X0040500Y-0089480D01*
X0040740Y-0089540D01*
X0040800Y-0089570D01*
X0040890Y-0089600D01*
X0040980Y-0089660D01*
X0041040Y-0089720D01*
Y-0089900D01*
X0040920Y-0090020D01*
X0040860Y-0090050D01*
X0040770Y-0090080D01*
X0040350D01*
X0040260Y-0090050D01*
X0040200Y-0089990D01*
X0040140Y-0089900D01*
X0040110Y-0089810D01*
X0039630Y-0089870D01*
Y-0089930D01*
X0039660Y-0090050D01*
X0039750Y-0090230D01*
X0039810Y-0090320D01*
X0039840Y-0090350D01*
X0039930Y-0090410D01*
X0039960Y-0090440D01*
X0040020Y-0090470D01*
X0040200Y-0090530D01*
X0040380Y-0090560D01*
X0040740D01*
X0040920Y-0090530D01*
X0041040Y-0090500D01*
X0041220Y-0090410D01*
X0041370Y-0090260D01*
X0041430Y-0090170D01*
X0041490Y-0090050D01*
X0041520Y-0089900D01*
Y-0089690D01*
X0041490Y-0089540D01*
X0041400Y-0089360D01*
X0041310Y-0089270D01*
X0041220Y-0089210D01*
X0041100Y-0089150D01*
X0040830Y-0089060D01*
X0040710Y-0089030D01*
X0040410Y-0088970D01*
X0040320Y-0088940D01*
X0040230Y-0088880D01*
X0040200Y-0088850D01*
X0040140Y-0088760D01*
Y-0088700D01*
X0040170Y-0088640D01*
X0040200Y-0088550D01*
X0040290Y-0088490D01*
X0040410Y-0088430D01*
X0040740D01*
X0040830Y-0088460D01*
X0040920Y-0088520D01*
X0040980Y-0088580D01*
Y-0088640D01*
X0041490D01*
Y-0088610D01*
X0041460Y-0088490D01*
X0041430Y-0088400D01*
X0041370Y-0088280D01*
X0041190Y-0088100D01*
X0041070Y-0088040D01*
X0040920Y-0087980D01*
X0040800Y-0087950D01*
D02*
G37*
G36*
X0033480D02*
X0032490D01*
Y-0090560D01*
X0032970D01*
Y-0089840D01*
X0033420Y-0089810D01*
X0033570Y-0089780D01*
X0033660Y-0089750D01*
X0033780Y-0089690D01*
X0033870Y-0089630D01*
X0033960Y-0089540D01*
X0034080Y-0089360D01*
X0034140Y-0089240D01*
X0034170Y-0089150D01*
Y-0089030D01*
X0034200Y-0089000D01*
Y-0088760D01*
X0034170Y-0088730D01*
Y-0088580D01*
X0034140Y-0088520D01*
X0034110Y-0088430D01*
X0033990Y-0088250D01*
X0033840Y-0088100D01*
X0033690Y-0088010D01*
X0033480Y-0087950D01*
D02*
G37*
G36*
X0047730Y-0088580D02*
X0047280D01*
X0047160Y-0088610D01*
X0046980Y-0088700D01*
X0046890Y-0088760D01*
X0046770Y-0088880D01*
X0046680Y-0089030D01*
X0046650Y-0089120D01*
X0046620Y-0089240D01*
Y-0089450D01*
X0047100Y-0089480D01*
X0047130Y-0089330D01*
X0047160Y-0089210D01*
X0047190Y-0089150D01*
X0047250Y-0089090D01*
X0047340Y-0089030D01*
X0047460Y-0089000D01*
X0047550D01*
X0047670Y-0089030D01*
X0047730Y-0089060D01*
X0047850Y-0089180D01*
Y-0089240D01*
X0047880Y-0089420D01*
X0047850Y-0089450D01*
X0047820Y-0089540D01*
X0047700Y-0089720D01*
X0046830Y-0090500D01*
X0046800Y-0090560D01*
X0046710Y-0090650D01*
X0046590Y-0090890D01*
X0046560Y-0090980D01*
Y-0091220D01*
X0048360D01*
Y-0090770D01*
X0047280Y-0090740D01*
X0047700Y-0090380D01*
X0048180Y-0089900D01*
X0048270Y-0089750D01*
X0048330Y-0089630D01*
X0048360Y-0089540D01*
Y-0089120D01*
X0048330Y-0089060D01*
X0048300Y-0088970D01*
X0048240Y-0088880D01*
X0048090Y-0088730D01*
X0048000Y-0088670D01*
X0047940Y-0088640D01*
X0047850Y-0088610D01*
X0047730Y-0088580D01*
D02*
G37*
G36*
X0042900Y-0087950D02*
X0042870D01*
X0041910Y-0090500D01*
Y-0090560D01*
X0042390D01*
X0042870Y-0089240D01*
X0042900D01*
X0043380Y-0090560D01*
X0043860D01*
Y-0090530D01*
X0042900Y-0087950D01*
D02*
G37*
G36*
X0037950D02*
X0037470D01*
X0036975Y-0089300D01*
X0036480Y-0087950D01*
X0036060D01*
X0035580Y-0089240D01*
X0035520D01*
X0035070Y-0087950D01*
X0034590D01*
Y-0088040D01*
X0035520Y-0090560D01*
X0035580D01*
X0036270Y-0088730D01*
X0036960Y-0090560D01*
X0036990D01*
X0037950Y-0087950D01*
D02*
G37*
G36*
X0038670Y-0088610D02*
X0038640D01*
X0038040Y-0089210D01*
Y-0089240D01*
X0038640Y-0089840D01*
X0038670D01*
X0039270Y-0089240D01*
Y-0089210D01*
X0038670Y-0088610D01*
D02*
G37*
G36*
X0046170Y-0087950D02*
X0044250D01*
Y-0088400D01*
X0044970Y-0088430D01*
Y-0090560D01*
X0045450D01*
Y-0088430D01*
X0046170Y-0088400D01*
Y-0087950D01*
D02*
G37*
%LPD*%
G36*
X0033510Y-0088460D02*
X0033600Y-0088550D01*
X0033660Y-0088640D01*
X0033690Y-0088730D01*
X0033720Y-0088790D01*
Y-0089000D01*
X0033690Y-0089090D01*
X0033630Y-0089180D01*
X0033540Y-0089270D01*
X0033390Y-0089330D01*
X0032970D01*
Y-0088430D01*
X0033420D01*
X0033510Y-0088460D01*
D02*
G37*
D10*
X0105800Y-0035835D02*
D03*
Y-0040165D02*
D03*
X0043271Y-0009060D02*
D03*
Y-0013390D02*
D03*
X0053271Y-0107965D02*
D03*
Y-0103635D02*
D03*
Y-0009060D02*
D03*
Y-0013390D02*
D03*
X0063271Y-0107965D02*
D03*
Y-0103635D02*
D03*
X0068281Y-0107965D02*
D03*
X0068281Y-0103635D02*
D03*
X0063271Y-0009060D02*
D03*
Y-0013390D02*
D03*
X0073271Y-0107965D02*
D03*
Y-0103635D02*
D03*
X0053330Y-0027835D02*
D03*
Y-0032165D02*
D03*
X0086800Y-0025565D02*
D03*
Y-0021235D02*
D03*
X0091800Y-0025565D02*
D03*
Y-0021235D02*
D03*
X0010700Y-0043036D02*
D03*
Y-0038706D02*
D03*
X0105700Y-0073934D02*
D03*
Y-0078265D02*
D03*
X0096800Y-0025565D02*
D03*
Y-0021235D02*
D03*
X0081800Y-0025565D02*
D03*
Y-0021235D02*
D03*
D11*
X0107865Y-0068300D02*
D03*
X0103534D02*
D03*
X0008960Y-0073371D02*
D03*
X0013291D02*
D03*
X0107582Y-0063371D02*
D03*
X0103251D02*
D03*
X0008960Y-0058300D02*
D03*
X0013290D02*
D03*
X0008960Y-0063371D02*
D03*
X0013291D02*
D03*
X0107582Y-0053371D02*
D03*
X0103251D02*
D03*
X0008960D02*
D03*
X0013291D02*
D03*
X0107582Y-0043371D02*
D03*
X0103251D02*
D03*
X0042865Y-0105700D02*
D03*
X0038534D02*
D03*
X0073606Y-0010900D02*
D03*
X0077936D02*
D03*
D12*
X0091125Y-0043178D02*
D03*
Y-0046328D02*
D03*
Y-0049477D02*
D03*
Y-0052627D02*
D03*
X0091125Y-0055776D02*
D03*
Y-0058926D02*
D03*
X0091125Y-0062076D02*
D03*
Y-0071524D02*
D03*
Y-0074674D02*
D03*
Y-0065225D02*
D03*
Y-0068375D02*
D03*
X0047031Y-0043178D02*
D03*
Y-0046328D02*
D03*
Y-0049477D02*
D03*
X0047031Y-0052627D02*
D03*
Y-0055776D02*
D03*
Y-0058926D02*
D03*
Y-0062076D02*
D03*
X0047031Y-0065225D02*
D03*
X0047031Y-0068375D02*
D03*
Y-0071524D02*
D03*
Y-0074674D02*
D03*
D13*
X0081676Y-0036879D02*
D03*
X0084826D02*
D03*
X0075377D02*
D03*
X0078527D02*
D03*
X0069078D02*
D03*
X0072228D02*
D03*
X0062779D02*
D03*
X0065928D02*
D03*
X0072228Y-0080973D02*
D03*
X0075377D02*
D03*
X0065928D02*
D03*
X0069078D02*
D03*
X0081676D02*
D03*
X0084826D02*
D03*
X0078527D02*
D03*
X0056480Y-0036879D02*
D03*
X0059629D02*
D03*
X0053330D02*
D03*
X0056480Y-0080973D02*
D03*
X0059629D02*
D03*
X0062779D02*
D03*
X0053330D02*
D03*
D14*
X0105800Y-0026228D02*
D03*
Y-0029772D02*
D03*
X0050000Y-0031962D02*
D03*
Y-0028418D02*
D03*
D15*
X0091800Y-0102269D02*
D03*
Y-0110931D02*
D03*
X0091900Y-0014431D02*
D03*
Y-0005769D02*
D03*
X0024400Y-0014431D02*
D03*
Y-0005769D02*
D03*
Y-0102269D02*
D03*
Y-0110931D02*
D03*
D16*
X0096800Y-0029800D02*
D03*
X0091800D02*
D03*
X0086800D02*
D03*
X0081800D02*
D03*
X0087200Y-0089600D02*
D03*
X0077200D02*
D03*
X0082200D02*
D03*
D17*
X0069372Y-0085900D02*
D03*
X0065828D02*
D03*
X0069472Y-0032000D02*
D03*
X0065928D02*
D03*
X0069528Y-0029200D02*
D03*
X0073072D02*
D03*
D18*
X0076700Y-0028843D02*
D03*
Y-0021757D02*
D03*
D19*
X0047054Y-0055800D02*
X0051700D01*
X0104800Y-0083400D02*
Y-0083399D01*
X0086648Y-0049452D02*
X0086724D01*
X0086623Y-0049477D02*
X0086648Y-0049452D01*
X0104800Y-0083399D02*
X0105700Y-0082500D01*
X0104500Y-0083400D02*
X0104800D01*
X0096800Y-0019200D02*
X0097150Y-0018850D01*
X0096800Y-0021235D02*
Y-0019200D01*
X0049800Y-0028310D02*
Y-0025875D01*
X0065900Y-0031972D02*
Y-0028500D01*
Y-0031972D02*
X0065928Y-0032000D01*
X0053330Y-0027835D02*
Y-0025400D01*
X0090979Y-0059072D02*
X0091125Y-0058926D01*
X0087000Y-0059072D02*
X0090979D01*
X0065928Y-0036879D02*
Y-0032000D01*
X0102900Y-0040165D02*
X0105800D01*
X0104900Y-0033300D02*
X0105800Y-0034200D01*
Y-0035835D02*
Y-0034200D01*
Y-0026228D02*
Y-0023591D01*
X0081676Y-0036879D02*
Y-0029924D01*
X0081800Y-0029800D01*
X0084826Y-0036879D02*
Y-0033874D01*
X0086800Y-0031900D01*
Y-0029800D01*
Y-0025565D01*
X0081800Y-0029800D02*
Y-0025565D01*
X0050494Y-0032165D02*
X0053330D01*
X0050300Y-0031972D02*
X0050494Y-0032165D01*
X0053330Y-0036879D02*
Y-0032165D01*
X0065928Y-0036879D02*
X0065928Y-0036879D01*
X0047031Y-0058926D02*
X0051213D01*
X0051558Y-0059272D01*
X0047031Y-0055776D02*
X0047054Y-0055800D01*
X0042500Y-0068375D02*
X0047031D01*
X0107865Y-0068300D02*
X0111546D01*
X0111617Y-0068371D01*
X0004995Y-0058300D02*
X0008960D01*
X0004924Y-0058371D02*
X0004995Y-0058300D01*
X0068271Y-0111717D02*
Y-0107975D01*
X0068281Y-0107965D01*
X0073157Y-0005139D02*
X0073271Y-0005024D01*
X0007795Y-0043371D02*
X0008129Y-0043036D01*
X0004924Y-0043371D02*
X0007795D01*
X0010700Y-0036135D02*
X0012035Y-0034800D01*
X0012500D01*
X0043271Y-0111800D02*
Y-0108571D01*
X0042865Y-0108165D02*
Y-0105700D01*
Y-0108165D02*
X0043271Y-0108571D01*
X0032817Y-0105598D02*
X0032919Y-0105700D01*
X0105700Y-0073934D02*
X0108166D01*
X0108729Y-0073371D01*
X0111617D01*
X0010700Y-0038706D02*
Y-0036135D01*
X0008129Y-0043036D02*
X0010700D01*
X0073606Y-0010900D02*
Y-0005587D01*
X0077936Y-0010900D02*
X0082225D01*
X0107582Y-0043371D02*
X0111617D01*
X0032919Y-0105700D02*
X0034024D01*
X0038534D01*
X0105700Y-0082500D02*
Y-0078265D01*
X0082225Y-0010900D02*
X0082444Y-0011119D01*
X0083125Y-0011800D01*
X0086800Y-0021235D02*
X0091800D01*
X0086800D02*
Y-0018800D01*
X0086500Y-0018500D02*
X0086800Y-0018800D01*
X0081800Y-0021235D02*
Y-0018500D01*
X0086623Y-0049477D02*
X0091125D01*
X0085798Y-0052627D02*
X0091125D01*
X0073157Y-0005139D02*
X0073606Y-0005587D01*
X0105800Y-0034200D02*
Y-0029772D01*
D20*
X0090400Y-0018000D02*
X0093400D01*
X0073400Y-0020800D02*
X0074357Y-0021757D01*
X0076700D01*
D21*
X0082444Y-0012378D02*
Y-0011119D01*
X0034024Y-0105700D02*
Y-0105016D01*
X0105152Y-0082500D02*
X0105700D01*
X0005500Y-0034200D02*
X0012448D01*
X0034024Y-0111963D02*
Y-0105700D01*
X0105700Y-0082500D02*
X0112100D01*
X0082444Y-0011119D02*
Y-0005431D01*
D22*
X0087248Y-0055776D02*
X0091125D01*
X0004924Y-0053371D02*
X0008960D01*
X0069372Y-0088300D02*
Y-0085900D01*
Y-0088400D02*
Y-0088300D01*
X0069500Y-0026600D02*
Y-0026200D01*
Y-0029172D02*
Y-0026600D01*
X0087272Y-0055800D02*
X0087300D01*
X0087248Y-0055776D02*
X0087272Y-0055800D01*
X0065928Y-0085800D02*
Y-0080973D01*
X0065828Y-0085900D02*
X0065928Y-0085800D01*
X0069078Y-0085606D02*
Y-0080973D01*
Y-0085606D02*
X0069372Y-0085900D01*
X0065828Y-0088400D02*
Y-0085900D01*
X0073271Y-0111717D02*
Y-0107965D01*
X0063271Y-0111717D02*
Y-0107965D01*
X0053271Y-0111717D02*
Y-0107965D01*
X0107582Y-0053371D02*
X0111617D01*
X0107582Y-0063371D02*
X0111617D01*
X0043271Y-0009060D02*
Y-0005024D01*
X0053271Y-0009060D02*
Y-0005024D01*
X0063271Y-0009060D02*
Y-0005024D01*
X0004924Y-0063371D02*
X0008960D01*
X0004924Y-0073371D02*
X0008960D01*
X0069078Y-0036879D02*
Y-0034222D01*
X0069472Y-0033828D01*
Y-0032000D01*
X0072228Y-0036879D02*
Y-0033872D01*
X0073072Y-0033028D01*
Y-0029200D01*
X0069472Y-0032000D02*
Y-0029257D01*
X0069528Y-0029200D01*
X0069500Y-0029172D02*
X0069528Y-0029200D01*
X0073072D02*
X0076343D01*
X0076700Y-0028843D01*
D23*
X0090300Y-0098700D02*
X0093300D01*
X0022900Y-0018000D02*
X0025900D01*
X0022900Y-0098700D02*
X0025900D01*
X0012447Y-0110972D02*
X0021700D01*
X0012447Y-0005769D02*
X0024400D01*
X0009058Y-0009158D02*
X0012447Y-0005769D01*
X0091900D02*
X0104094D01*
X0107483Y-0009158D01*
X0009058Y-0107583D02*
X0012447Y-0110972D01*
X0104094D02*
X0107483Y-0107583D01*
X0091800Y-0110972D02*
X0104094D01*
D24*
X0094810Y-0042340D02*
Y-0035210D01*
X0093972Y-0043178D02*
X0094810Y-0042340D01*
X0091125Y-0043178D02*
X0093972D01*
X0091800Y-0032200D02*
X0094810Y-0035210D01*
X0047031Y-0046328D02*
X0051758D01*
X0047031Y-0052627D02*
X0051758D01*
X0077200Y-0089600D02*
Y-0087400D01*
X0078527Y-0086073D01*
Y-0080973D01*
X0062779D02*
Y-0076746D01*
X0081676Y-0085276D02*
Y-0080973D01*
Y-0085276D02*
X0082200Y-0085800D01*
Y-0089600D02*
Y-0085800D01*
X0091800Y-0032200D02*
Y-0029800D01*
Y-0025565D01*
X0047031Y-0043178D02*
X0051500D01*
X0047031Y-0049477D02*
X0051500D01*
D25*
X0098387Y-0060893D02*
X0101407D01*
X0019164Y-0060849D02*
X0020133D01*
X0015709D02*
X0019164D01*
X0060793Y-0019234D02*
Y-0015809D01*
X0055749Y-0019234D02*
Y-0015809D01*
X0102800Y-0059500D02*
Y-0056000D01*
X0101407Y-0060893D02*
X0102800Y-0059500D01*
X0100833Y-0065849D02*
X0103279Y-0063402D01*
X0097400Y-0065863D02*
X0100759D01*
X0097751Y-0070849D02*
X0100985D01*
X0098351Y-0050849D02*
X0101651D01*
X0060793Y-0101157D02*
X0063271Y-0103635D01*
X0060793Y-0101157D02*
Y-0096707D01*
X0065793Y-0101157D02*
Y-0098963D01*
Y-0101157D02*
X0068271Y-0103635D01*
X0050793Y-0101157D02*
X0053271Y-0103635D01*
X0045749Y-0019234D02*
Y-0015809D01*
X0100985Y-0070849D02*
X0103534Y-0068300D01*
X0073271Y-0103635D02*
X0075749Y-0101157D01*
Y-0097708D01*
X0050793Y-0101157D02*
Y-0096500D01*
X0013261Y-0065261D02*
Y-0063401D01*
Y-0065261D02*
X0014100Y-0066100D01*
X0014779Y-0066779D01*
X0015709Y-0050893D02*
X0019135D01*
X0015709Y-0075849D02*
X0019134D01*
X0065793Y-0098963D02*
Y-0096293D01*
X0043301Y-0013361D02*
X0045749Y-0015809D01*
X0053301Y-0013361D02*
X0055749Y-0015809D01*
X0060793D02*
X0063241Y-0013361D01*
X0013225Y-0058365D02*
X0015709Y-0060849D01*
X0013260Y-0073401D02*
X0015709Y-0075849D01*
X0013261Y-0053341D02*
X0015709Y-0050893D01*
D26*
X0094055Y-0065225D02*
X0098387Y-0060893D01*
X0091125Y-0065225D02*
X0094055D01*
X0096900Y-0066363D02*
X0097400Y-0065863D01*
X0094888Y-0068375D02*
X0096900Y-0066363D01*
X0102800Y-0056000D02*
X0103251Y-0055549D01*
Y-0053371D01*
X0085500Y-0094000D02*
X0087200Y-0092300D01*
X0060793Y-0096707D02*
Y-0096293D01*
X0056480Y-0091979D02*
X0060793Y-0096293D01*
X0056480Y-0091979D02*
Y-0080973D01*
X0059629Y-0090129D02*
X0065793Y-0096293D01*
X0059629Y-0090129D02*
Y-0080973D01*
X0062779Y-0089279D02*
X0067500Y-0094000D01*
X0062779Y-0089279D02*
Y-0080973D01*
X0053330Y-0093963D02*
Y-0080973D01*
X0087200Y-0092300D02*
Y-0089600D01*
X0096800Y-0044700D02*
Y-0029800D01*
X0095173Y-0046328D02*
X0096800Y-0044700D01*
X0091700Y-0092100D02*
Y-0086300D01*
X0103200Y-0046500D02*
Y-0043422D01*
X0103251Y-0043371D01*
X0103200Y-0049300D02*
Y-0046500D01*
X0091125Y-0068375D02*
X0094888D01*
X0040975Y-0065225D02*
X0047031D01*
X0039600Y-0066600D02*
X0040975Y-0065225D01*
X0084826Y-0084026D02*
Y-0080973D01*
Y-0084026D02*
X0085800Y-0085000D01*
X0090400D01*
X0091700Y-0086300D01*
X0091125Y-0062076D02*
X0094424D01*
X0096200Y-0060300D01*
Y-0053000D01*
X0075642Y-0097601D02*
X0075749Y-0097708D01*
X0091125Y-0046328D02*
X0095173D01*
X0096800Y-0029800D02*
Y-0025565D01*
X0050793Y-0096500D02*
X0053330Y-0093963D01*
X0039600Y-0072600D02*
Y-0066600D01*
X0035400Y-0080300D02*
X0035500D01*
X0044176Y-0071524D02*
X0047031D01*
X0031500Y-0077200D02*
X0035000D01*
X0039600Y-0072600D01*
X0044526Y-0074674D02*
X0047031D01*
X0041200Y-0080400D02*
X0042600Y-0079000D01*
Y-0076600D01*
X0044526Y-0074674D01*
X0096200Y-0053000D02*
X0098351Y-0050849D01*
X0067500Y-0094000D02*
X0085500D01*
X0076842Y-0096400D02*
X0087400D01*
X0091700Y-0092100D01*
X0101651Y-0050849D02*
X0103200Y-0049300D01*
X0075642Y-0097601D02*
X0076842Y-0096400D01*
X0091125Y-0071524D02*
X0097076D01*
X0097751Y-0070849D01*
X0035400Y-0080300D02*
X0044176Y-0071524D01*
D27*
X0027740Y-0080030D02*
X0028430Y-0079710D01*
X0059079Y-0029921D02*
Y-0026980D01*
X0056480Y-0032520D02*
X0059079Y-0029921D01*
X0056480Y-0036879D02*
Y-0032520D01*
X0061000Y-0031000D02*
Y-0024485D01*
X0059629Y-0032371D02*
X0061000Y-0031000D01*
X0059629Y-0036879D02*
Y-0032371D01*
X0055749Y-0019234D02*
X0061000Y-0024485D01*
X0053500Y-0021400D02*
X0059079Y-0026980D01*
X0062779Y-0036879D02*
Y-0021765D01*
X0028430Y-0079710D02*
X0028457Y-0079791D01*
X0030166Y-0084908D01*
X0027740Y-0080030D02*
X0028799Y-0084990D01*
X0042576Y-0062076D02*
X0047031D01*
X0045749Y-0019234D02*
X0047915Y-0021400D01*
X0053500D01*
X0060520Y-0019507D02*
X0060793Y-0019234D01*
X0019135Y-0050893D02*
X0020300Y-0049727D01*
Y-0044100D01*
X0022300Y-0042100D01*
X0037600D01*
X0039609Y-0059109D02*
X0042576Y-0062076D01*
X0039609Y-0059109D02*
Y-0044109D01*
X0037600Y-0042100D02*
X0039609Y-0044109D01*
X0060520Y-0019507D02*
X0062779Y-0021765D01*
X0003425Y-0033647D02*
Y-0034646D01*
Y-0034147D01*
X0006424D01*
X0005924Y-0033647D01*
X0082995Y-0003525D02*
X0081995D01*
X0082495D01*
Y-0006524D01*
X0082995Y-0006024D01*
X0113117Y-0083095D02*
Y-0082095D01*
Y-0082595D01*
X0110118D01*
X0110618Y-0083095D01*
X0033547Y-0113300D02*
X0034546D01*
X0034047D01*
Y-0110301D01*
X0033547Y-0110801D01*
D28*
X0018300Y-0091340D02*
X0019800D01*
D29*
X0090400Y-0018000D02*
Y-0015000D01*
X0093400Y-0018000D02*
Y-0015000D01*
D30*
X0014767Y-0093480D02*
D03*
D31*
X0025800Y-0092100D02*
D03*
D32*
X0033185Y-0090565D02*
D03*
D33*
X0045319Y-0092612D02*
D03*
D34*
X0023889Y-0056100D02*
D03*
X0035700D02*
D03*
X0023889Y-0061100D02*
D03*
X0035700D02*
D03*
X0023889Y-0071100D02*
D03*
X0035700D02*
D03*
X0023889Y-0066100D02*
D03*
X0035700D02*
D03*
X0023889Y-0051100D02*
D03*
X0035700D02*
D03*
X0023889Y-0046100D02*
D03*
X0035700D02*
D03*
D35*
X0107483Y-0009158D02*
D03*
X0009058D02*
D03*
Y-0107583D02*
D03*
X0107483D02*
D03*
D36*
X0078271Y-0099989D02*
D03*
X0073271D02*
D03*
X0068271D02*
D03*
X0063271D02*
D03*
X0058271D02*
D03*
X0053271D02*
D03*
X0048271D02*
D03*
X0043271D02*
D03*
X0038271D02*
D03*
X0016735Y-0078371D02*
D03*
Y-0073371D02*
D03*
Y-0068371D02*
D03*
Y-0063371D02*
D03*
Y-0058371D02*
D03*
Y-0053371D02*
D03*
Y-0048371D02*
D03*
Y-0043371D02*
D03*
Y-0038371D02*
D03*
X0099806D02*
D03*
Y-0043371D02*
D03*
Y-0048371D02*
D03*
Y-0053371D02*
D03*
Y-0058371D02*
D03*
Y-0063371D02*
D03*
Y-0068371D02*
D03*
Y-0073371D02*
D03*
Y-0078371D02*
D03*
X0038271Y-0016835D02*
D03*
X0043271D02*
D03*
X0048271D02*
D03*
X0053271D02*
D03*
X0058271D02*
D03*
X0063271D02*
D03*
X0068271D02*
D03*
X0073271D02*
D03*
X0078271D02*
D03*
D37*
Y-0111800D02*
D03*
X0073271D02*
D03*
X0068271D02*
D03*
X0063271D02*
D03*
X0058271D02*
D03*
X0053271D02*
D03*
X0048271D02*
D03*
X0043271D02*
D03*
X0038271D02*
D03*
X0004924Y-0078371D02*
D03*
Y-0073371D02*
D03*
Y-0068371D02*
D03*
Y-0063371D02*
D03*
Y-0058371D02*
D03*
Y-0053371D02*
D03*
Y-0048371D02*
D03*
Y-0043371D02*
D03*
Y-0038371D02*
D03*
X0111617D02*
D03*
Y-0043371D02*
D03*
Y-0048371D02*
D03*
Y-0053371D02*
D03*
Y-0058371D02*
D03*
Y-0063371D02*
D03*
Y-0068371D02*
D03*
Y-0073371D02*
D03*
Y-0078371D02*
D03*
X0038271Y-0005024D02*
D03*
X0043271D02*
D03*
X0048271D02*
D03*
X0053271D02*
D03*
X0058271D02*
D03*
X0063271D02*
D03*
X0068271D02*
D03*
X0073271D02*
D03*
X0078271D02*
D03*
D38*
X0086724Y-0049452D02*
D03*
X0056500Y-0009059D02*
D03*
X0104500Y-0083400D02*
D03*
X0097150Y-0018850D02*
D03*
X0049800Y-0025875D02*
D03*
X0060793Y-0096707D02*
D03*
X0065793Y-0096500D02*
D03*
X0036500Y-0092500D02*
D03*
X0079800Y-0044100D02*
D03*
Y-0041506D02*
D03*
X0065900Y-0028500D02*
D03*
X0065793Y-0019263D02*
D03*
X0056700Y-0028300D02*
D03*
X0051858Y-0046128D02*
D03*
X0053330Y-0025400D02*
D03*
X0069500Y-0026600D02*
D03*
X0060800Y-0043500D02*
D03*
X0086900Y-0059072D02*
D03*
X0102900Y-0040165D02*
D03*
X0105800Y-0023591D02*
D03*
X0104900Y-0033300D02*
D03*
X0110857Y-0026200D02*
D03*
X0087300Y-0055800D02*
D03*
X0085800Y-0052700D02*
D03*
X0087200Y-0089600D02*
D03*
X0025467Y-0092129D02*
D03*
X0093300Y-0098700D02*
D03*
X0035300Y-0029600D02*
D03*
Y-0032600D02*
D03*
X0024700Y-0022600D02*
D03*
X0021700D02*
D03*
X0025900Y-0018000D02*
D03*
X0022900D02*
D03*
X0025900Y-0098700D02*
D03*
X0022900D02*
D03*
X0090300D02*
D03*
X0090400Y-0018000D02*
D03*
X0093400D02*
D03*
X0051400Y-0042878D02*
D03*
X0062779Y-0076746D02*
D03*
X0069372Y-0088300D02*
D03*
X0065828Y-0088400D02*
D03*
X0029300Y-0105098D02*
D03*
X0032817Y-0105598D02*
D03*
X0108300Y-0090200D02*
D03*
X0111600Y-0090600D02*
D03*
X0008442Y-0027598D02*
D03*
X0004924Y-0027098D02*
D03*
X0096900Y-0066363D02*
D03*
X0032464Y-0025500D02*
D03*
X0051858Y-0052627D02*
D03*
X0051300Y-0049377D02*
D03*
X0051558Y-0059372D02*
D03*
X0051700Y-0055900D02*
D03*
X0045749Y-0019234D02*
D03*
X0055749D02*
D03*
X0060793D02*
D03*
X0042500Y-0068375D02*
D03*
X0107582Y-0047000D02*
D03*
X0103200Y-0046500D02*
D03*
X0102800Y-0056000D02*
D03*
X0097076Y-0071024D02*
D03*
X0019164Y-0060849D02*
D03*
X0068900Y-0070800D02*
D03*
X0096100Y-0077900D02*
D03*
X0111600Y-0093200D02*
D03*
X0004924Y-0024517D02*
D03*
X0076466Y-0107966D02*
D03*
X0008959Y-0066959D02*
D03*
X0085000Y-0072600D02*
D03*
X0043100Y-0034200D02*
D03*
X0086800Y-0011602D02*
D03*
X0039841Y-0009059D02*
D03*
X0066459D02*
D03*
X0039500Y-0031300D02*
D03*
X0073400Y-0020800D02*
D03*
X0077200Y-0089600D02*
D03*
X0082200D02*
D03*
X0084800Y-0099000D02*
D03*
X0051900Y-0068400D02*
D03*
X0059500Y-0058400D02*
D03*
X0061800Y-0067700D02*
D03*
X0012500Y-0034800D02*
D03*
X0083125Y-0011800D02*
D03*
X0004900Y-0086200D02*
D03*
X0031500Y-0005200D02*
D03*
X0085400Y-0111800D02*
D03*
X0061500Y-0053000D02*
D03*
X0060800Y-0049800D02*
D03*
X0062200Y-0046700D02*
D03*
X0081800Y-0018500D02*
D03*
X0086500D02*
D03*
X0107600Y-0060200D02*
D03*
X0068900Y-0074100D02*
D03*
X0031500Y-0046600D02*
D03*
X0050793Y-0096500D02*
D03*
X0014100Y-0066100D02*
D03*
X0031500Y-0077200D02*
D03*
X0041200Y-0080400D02*
D03*
X0035500Y-0080300D02*
D03*
X0008959Y-0076559D02*
D03*
X0042200Y-0052627D02*
D03*
X0019135Y-0050893D02*
D03*
X0075642Y-0097400D02*
D03*
X0024400Y-0075500D02*
D03*
X0019134Y-0075849D02*
D03*
M02*
