G04 Layer_Physical_Order=6*
G04 Layer_Color=16711680*
%FSAX25Y25*%
%MOIN*%
G70*
G01*
G75*
%ADD10R,0.02362X0.01968*%
%ADD11R,0.01968X0.02362*%
%ADD14R,0.02441X0.02441*%
%ADD17R,0.02441X0.02441*%
%ADD18R,0.03543X0.03543*%
%ADD19C,0.02000*%
%ADD20C,0.03000*%
%ADD21C,0.00600*%
%ADD22C,0.01800*%
%ADD23C,0.04000*%
%ADD24C,0.01200*%
%ADD25C,0.00591*%
%ADD26C,0.01000*%
%ADD27C,0.00800*%
%ADD34C,0.03937*%
%ADD35C,0.15748*%
%ADD36C,0.02756*%
%ADD37C,0.03150*%
%ADD38C,0.02559*%
%ADD39R,0.04528X0.05709*%
%ADD40R,0.04803X0.02441*%
%ADD41R,0.04331X0.06693*%
%ADD42R,0.03937X0.03740*%
%ADD43R,0.03740X0.03937*%
%ADD44C,0.02500*%
%ADD45C,0.01575*%
%ADD46C,0.03500*%
G36*
X0044352Y-0069582D02*
X0044333Y-0069543D01*
X0044278Y-0069508D01*
X0044185Y-0069476D01*
X0044055Y-0069450D01*
X0043889Y-0069427D01*
X0043507Y-0069398D01*
X0043501Y-0069664D01*
X0043500Y-0069941D01*
X0041500D01*
X0041477Y-0069143D01*
X0042500D01*
Y-0067375D01*
X0042852Y-0067373D01*
X0044055Y-0067300D01*
X0044185Y-0067273D01*
X0044278Y-0067242D01*
X0044333Y-0067207D01*
X0044352Y-0067167D01*
Y-0069582D01*
D02*
G37*
G36*
X0103202Y-0069456D02*
X0103166Y-0069415D01*
X0103119Y-0069393D01*
X0103062Y-0069389D01*
X0102994Y-0069404D01*
X0102916Y-0069438D01*
X0102827Y-0069490D01*
X0102728Y-0069561D01*
X0102618Y-0069651D01*
X0102366Y-0069886D01*
X0102146Y-0069271D01*
X0102255Y-0069158D01*
X0102430Y-0068951D01*
X0102495Y-0068857D01*
X0102545Y-0068770D01*
X0102581Y-0068690D01*
X0102602Y-0068617D01*
X0102608Y-0068550D01*
X0102599Y-0068490D01*
X0102575Y-0068436D01*
X0103202Y-0069456D01*
D02*
G37*
G36*
X0097966Y-0070076D02*
X0098707Y-0070495D01*
X0098813Y-0070540D01*
X0098906Y-0070572D01*
X0098985Y-0070591D01*
X0099050Y-0070598D01*
X0099112Y-0071188D01*
X0099053Y-0071196D01*
X0098980Y-0071220D01*
X0098894Y-0071261D01*
X0098794Y-0071317D01*
X0098681Y-0071390D01*
X0098413Y-0071584D01*
X0097908Y-0071996D01*
X0097856Y-0071189D01*
X0097763Y-0071198D01*
X0097719Y-0071205D01*
X0097678Y-0071214D01*
X0097639Y-0071226D01*
X0097602Y-0071239D01*
X0097568Y-0071255D01*
X0097536Y-0071273D01*
X0097507Y-0071293D01*
Y-0070493D01*
X0097536Y-0070513D01*
X0097568Y-0070531D01*
X0097602Y-0070546D01*
X0097639Y-0070560D01*
X0097678Y-0070572D01*
X0097719Y-0070581D01*
X0097763Y-0070588D01*
X0097810Y-0070593D01*
X0097818Y-0070594D01*
X0097777Y-0069954D01*
X0097966Y-0070076D01*
D02*
G37*
G36*
X0006515Y-0068436D02*
X0006610Y-0068985D01*
X0006650Y-0069136D01*
X0006693Y-0069271D01*
X0006741Y-0069389D01*
X0006792Y-0069491D01*
X0006848Y-0069577D01*
X0006907Y-0069647D01*
X0006200Y-0070354D01*
X0006130Y-0070294D01*
X0006045Y-0070239D01*
X0005943Y-0070187D01*
X0005824Y-0070140D01*
X0005690Y-0070096D01*
X0005539Y-0070057D01*
X0005189Y-0069990D01*
X0004773Y-0069938D01*
X0006492Y-0068220D01*
X0006515Y-0068436D01*
D02*
G37*
G36*
X0050324Y-0067207D02*
X0050368Y-0067242D01*
X0050442Y-0067273D01*
X0050544Y-0067300D01*
X0050676Y-0067323D01*
X0050837Y-0067342D01*
X0051247Y-0067366D01*
X0051775Y-0067375D01*
Y-0069375D01*
X0051496Y-0069377D01*
X0051119Y-0069400D01*
X0051119Y-0069414D01*
X0051102Y-0069406D01*
X0051082Y-0069402D01*
X0050676Y-0069427D01*
X0050544Y-0069450D01*
X0050442Y-0069476D01*
X0050368Y-0069508D01*
X0050324Y-0069543D01*
X0050310Y-0069582D01*
Y-0069375D01*
X0050303Y-0069375D01*
X0050310Y-0069172D01*
Y-0067167D01*
X0050324Y-0067207D01*
D02*
G37*
G36*
X0108469Y-0066160D02*
X0108499Y-0066544D01*
X0108525Y-0066700D01*
X0108558Y-0066832D01*
X0108599Y-0066940D01*
X0108647Y-0067024D01*
X0108703Y-0067084D01*
X0108766Y-0067120D01*
X0108837Y-0067132D01*
X0106894D01*
X0106965Y-0067120D01*
X0107028Y-0067084D01*
X0107083Y-0067024D01*
X0107132Y-0066940D01*
X0107173Y-0066832D01*
X0107206Y-0066700D01*
X0107232Y-0066544D01*
X0107250Y-0066364D01*
X0107265Y-0065932D01*
X0108465D01*
X0108469Y-0066160D01*
D02*
G37*
G36*
X0009860Y-0064551D02*
X0009797Y-0064587D01*
X0009741Y-0064647D01*
X0009693Y-0064731D01*
X0009652Y-0064839D01*
X0009619Y-0064971D01*
X0009593Y-0065127D01*
X0009576Y-0065287D01*
X0009576Y-0065288D01*
X0009597Y-0065401D01*
X0009627Y-0065514D01*
X0009665Y-0065627D01*
X0009712Y-0065740D01*
X0009767Y-0065853D01*
X0009830Y-0065965D01*
X0009902Y-0066078D01*
X0009983Y-0066191D01*
X0007936D01*
X0008017Y-0066078D01*
X0008152Y-0065853D01*
X0008207Y-0065740D01*
X0008254Y-0065627D01*
X0008292Y-0065514D01*
X0008321Y-0065401D01*
X0008340Y-0065303D01*
X0008326Y-0065127D01*
X0008300Y-0064971D01*
X0008266Y-0064839D01*
X0008226Y-0064731D01*
X0008177Y-0064647D01*
X0008122Y-0064587D01*
X0008059Y-0064551D01*
X0007988Y-0064539D01*
X0009931D01*
X0009860Y-0064551D01*
D02*
G37*
G36*
X0060321Y-0066804D02*
X0060360Y-0066839D01*
X0060426Y-0066870D01*
X0060519Y-0066897D01*
X0060620Y-0066916D01*
X0060665Y-0066906D01*
X0060741Y-0066882D01*
X0060806Y-0066855D01*
X0060859Y-0066823D01*
X0060902Y-0066789D01*
X0060923Y-0066948D01*
X0061153Y-0066963D01*
X0061628Y-0066972D01*
Y-0068972D01*
X0061377Y-0068974D01*
X0060638Y-0069024D01*
X0060519Y-0069046D01*
X0060426Y-0069073D01*
X0060360Y-0069104D01*
X0060321Y-0069140D01*
X0060308Y-0069179D01*
Y-0068913D01*
X0059782Y-0068972D01*
X0059980Y-0066972D01*
X0060122Y-0066970D01*
X0060308Y-0066956D01*
Y-0066764D01*
X0060321Y-0066804D01*
D02*
G37*
G36*
X0097571Y-0065255D02*
X0098298Y-0065506D01*
X0098409Y-0065533D01*
X0098595Y-0065564D01*
X0098670Y-0065568D01*
X0098931Y-0066158D01*
X0098879Y-0066168D01*
X0098816Y-0066199D01*
X0098742Y-0066249D01*
X0098656Y-0066319D01*
X0098558Y-0066409D01*
X0098329Y-0066650D01*
X0097899Y-0067162D01*
X0097390Y-0065181D01*
X0097571Y-0065255D01*
D02*
G37*
G36*
X0013791Y-0073394D02*
X0013801Y-0073429D01*
X0013814Y-0073464D01*
X0013830Y-0073500D01*
X0013850Y-0073536D01*
X0013872Y-0073572D01*
X0013898Y-0073608D01*
X0013928Y-0073645D01*
X0013996Y-0073719D01*
X0013578Y-0074136D01*
X0013541Y-0074101D01*
X0013467Y-0074039D01*
X0013431Y-0074013D01*
X0013395Y-0073990D01*
X0013359Y-0073971D01*
X0013324Y-0073954D01*
X0013289Y-0073941D01*
X0013254Y-0073932D01*
X0013219Y-0073925D01*
X0013785Y-0073360D01*
X0013791Y-0073394D01*
D02*
G37*
G36*
X0037249Y-0072315D02*
X0037132Y-0072473D01*
X0037028Y-0072633D01*
X0036936Y-0072797D01*
X0036856Y-0072963D01*
X0036788Y-0073131D01*
X0036733Y-0073302D01*
X0036690Y-0073476D01*
X0036659Y-0073653D01*
X0036641Y-0073832D01*
X0036635Y-0074014D01*
X0034635Y-0073936D01*
X0034629Y-0073749D01*
X0034613Y-0073566D01*
X0034587Y-0073387D01*
X0034549Y-0073212D01*
X0034501Y-0073042D01*
X0034443Y-0072875D01*
X0034374Y-0072712D01*
X0034294Y-0072554D01*
X0034203Y-0072399D01*
X0034102Y-0072249D01*
X0037249Y-0072315D01*
D02*
G37*
G36*
X0067530Y-0073014D02*
X0067566Y-0073116D01*
X0067627Y-0073206D01*
X0067712Y-0073284D01*
X0067756Y-0073311D01*
X0067793Y-0073293D01*
X0067906Y-0073229D01*
X0068019Y-0073157D01*
X0068132Y-0073077D01*
Y-0073449D01*
X0068293Y-0073476D01*
X0068499Y-0073494D01*
X0068730Y-0073500D01*
Y-0074700D01*
X0068499Y-0074706D01*
X0068293Y-0074724D01*
X0068132Y-0074751D01*
Y-0075123D01*
X0068019Y-0075043D01*
X0067793Y-0074907D01*
X0067756Y-0074889D01*
X0067712Y-0074916D01*
X0067627Y-0074994D01*
X0067566Y-0075084D01*
X0067530Y-0075186D01*
X0067518Y-0075300D01*
Y-0074789D01*
X0067455Y-0074768D01*
X0067342Y-0074738D01*
X0067229Y-0074717D01*
X0067115Y-0074704D01*
X0067002Y-0074700D01*
Y-0073500D01*
X0067115Y-0073496D01*
X0067229Y-0073483D01*
X0067342Y-0073462D01*
X0067455Y-0073432D01*
X0067518Y-0073411D01*
Y-0072900D01*
X0067530Y-0073014D01*
D02*
G37*
G36*
X0014223Y-0073618D02*
X0014212Y-0073676D01*
X0014217Y-0073741D01*
X0014237Y-0073814D01*
X0014272Y-0073894D01*
X0014323Y-0073981D01*
X0014389Y-0074075D01*
X0014470Y-0074177D01*
X0014679Y-0074402D01*
X0014399Y-0074957D01*
X0014270Y-0074832D01*
X0014044Y-0074638D01*
X0013945Y-0074568D01*
X0013857Y-0074516D01*
X0013778Y-0074482D01*
X0013710Y-0074466D01*
X0013651Y-0074469D01*
X0013602Y-0074489D01*
X0013564Y-0074527D01*
X0014249Y-0073567D01*
X0014223Y-0073618D01*
D02*
G37*
G36*
X0107655Y-0071393D02*
X0107692Y-0071428D01*
X0107752Y-0071458D01*
X0107837Y-0071484D01*
X0107947Y-0071506D01*
X0108080Y-0071524D01*
X0108420Y-0071548D01*
X0108856Y-0071556D01*
Y-0073556D01*
X0108626Y-0073558D01*
X0107947Y-0073606D01*
X0107837Y-0073629D01*
X0107752Y-0073655D01*
X0107692Y-0073685D01*
X0107655Y-0073719D01*
X0107643Y-0073757D01*
Y-0071355D01*
X0107655Y-0071393D01*
D02*
G37*
G36*
X0017871Y-0071271D02*
X0017842Y-0071251D01*
X0017810Y-0071233D01*
X0017776Y-0071217D01*
X0017739Y-0071204D01*
X0017700Y-0071192D01*
X0017659Y-0071183D01*
X0017615Y-0071175D01*
X0017568Y-0071170D01*
X0017467Y-0071166D01*
Y-0070576D01*
X0017519Y-0070574D01*
X0017615Y-0070566D01*
X0017659Y-0070559D01*
X0017700Y-0070549D01*
X0017739Y-0070538D01*
X0017776Y-0070524D01*
X0017810Y-0070509D01*
X0017842Y-0070491D01*
X0017871Y-0070471D01*
Y-0071271D01*
D02*
G37*
G36*
X0014502Y-0069964D02*
X0014511Y-0069999D01*
X0014524Y-0070034D01*
X0014541Y-0070070D01*
X0014560Y-0070105D01*
X0014583Y-0070142D01*
X0014609Y-0070178D01*
X0014638Y-0070214D01*
X0014706Y-0070289D01*
X0014289Y-0070706D01*
X0014252Y-0070670D01*
X0014178Y-0070609D01*
X0014142Y-0070583D01*
X0014106Y-0070560D01*
X0014070Y-0070541D01*
X0014034Y-0070524D01*
X0013999Y-0070511D01*
X0013964Y-0070502D01*
X0013930Y-0070495D01*
X0014495Y-0069930D01*
X0014502Y-0069964D01*
D02*
G37*
G36*
X0063385Y-0071923D02*
X0063401Y-0072107D01*
X0063979D01*
X0063865Y-0072119D01*
X0063763Y-0072155D01*
X0063673Y-0072215D01*
X0063595Y-0072299D01*
X0063529Y-0072408D01*
X0063489Y-0072504D01*
X0063529Y-0072601D01*
X0063595Y-0072711D01*
X0063673Y-0072795D01*
X0063763Y-0072856D01*
X0063865Y-0072892D01*
X0063979Y-0072904D01*
X0063400D01*
X0063385Y-0073080D01*
X0063379Y-0073308D01*
X0062179D01*
X0062173Y-0073080D01*
X0062157Y-0072904D01*
X0061579D01*
X0061693Y-0072892D01*
X0061795Y-0072856D01*
X0061885Y-0072795D01*
X0061963Y-0072711D01*
X0062029Y-0072601D01*
X0062068Y-0072504D01*
X0062029Y-0072408D01*
X0061963Y-0072299D01*
X0061885Y-0072215D01*
X0061795Y-0072155D01*
X0061693Y-0072119D01*
X0061579Y-0072107D01*
X0062157D01*
X0062173Y-0071923D01*
X0062179Y-0071693D01*
X0063379D01*
X0063385Y-0071923D01*
D02*
G37*
G36*
X0067530Y-0069814D02*
X0067566Y-0069916D01*
X0067627Y-0070006D01*
X0067706Y-0070079D01*
X0067736Y-0070063D01*
X0067851Y-0069990D01*
X0067966Y-0069908D01*
X0068082Y-0069816D01*
X0068103Y-0070244D01*
X0068111Y-0070246D01*
X0068293Y-0070276D01*
X0068499Y-0070294D01*
X0068730Y-0070300D01*
Y-0071500D01*
X0068499Y-0071506D01*
X0068293Y-0071524D01*
X0068167Y-0071545D01*
X0068183Y-0071860D01*
X0068076Y-0071791D01*
X0067968Y-0071730D01*
X0067859Y-0071676D01*
X0067811Y-0071656D01*
X0067712Y-0071716D01*
X0067627Y-0071794D01*
X0067566Y-0071884D01*
X0067530Y-0071986D01*
X0067518Y-0072100D01*
Y-0071556D01*
X0067410Y-0071532D01*
X0067295Y-0071514D01*
X0067179Y-0071504D01*
X0067061Y-0071500D01*
X0066954Y-0070300D01*
X0067064Y-0070295D01*
X0067174Y-0070281D01*
X0067285Y-0070256D01*
X0067396Y-0070223D01*
X0067509Y-0070179D01*
X0067518Y-0070175D01*
Y-0069700D01*
X0067530Y-0069814D01*
D02*
G37*
G36*
X0013597Y-0064207D02*
X0013630Y-0064261D01*
X0013686Y-0064323D01*
X0013764Y-0064392D01*
X0013865Y-0064469D01*
X0014134Y-0064647D01*
X0014492Y-0064856D01*
X0014705Y-0064972D01*
X0012850Y-0065827D01*
X0012878Y-0065693D01*
X0012959Y-0065124D01*
X0012972Y-0064974D01*
X0012975Y-0064872D01*
X0012968Y-0064828D01*
X0012947Y-0064752D01*
X0012921Y-0064687D01*
X0012889Y-0064634D01*
X0012850Y-0064592D01*
X0012806Y-0064563D01*
X0012756Y-0064545D01*
X0012699Y-0064539D01*
X0012988D01*
X0012995Y-0064342D01*
X0013585Y-0064161D01*
X0013597Y-0064207D01*
D02*
G37*
G36*
X0009860Y-0059480D02*
X0009797Y-0059516D01*
X0009741Y-0059576D01*
X0009693Y-0059660D01*
X0009652Y-0059768D01*
X0009619Y-0059900D01*
X0009593Y-0060056D01*
X0009574Y-0060236D01*
X0009559Y-0060668D01*
X0008359D01*
X0008356Y-0060440D01*
X0008326Y-0060056D01*
X0008300Y-0059900D01*
X0008266Y-0059768D01*
X0008226Y-0059660D01*
X0008177Y-0059576D01*
X0008122Y-0059516D01*
X0008059Y-0059480D01*
X0007988Y-0059468D01*
X0009931D01*
X0009860Y-0059480D01*
D02*
G37*
G36*
X0050221Y-0058204D02*
X0050261Y-0058239D01*
X0050329Y-0058270D01*
X0050424Y-0058297D01*
X0050545Y-0058320D01*
X0050694Y-0058338D01*
X0051072Y-0058363D01*
X0051558Y-0058372D01*
Y-0060372D01*
X0051302Y-0060374D01*
X0050545Y-0060423D01*
X0050424Y-0060446D01*
X0050329Y-0060473D01*
X0050261Y-0060504D01*
X0050221Y-0060540D01*
X0050208Y-0060579D01*
Y-0060372D01*
X0049992Y-0060372D01*
Y-0058372D01*
X0050208Y-0058365D01*
Y-0058164D01*
X0050221Y-0058204D01*
D02*
G37*
G36*
X0009563Y-0061231D02*
X0009593Y-0061615D01*
X0009619Y-0061771D01*
X0009652Y-0061903D01*
X0009693Y-0062011D01*
X0009741Y-0062095D01*
X0009797Y-0062155D01*
X0009860Y-0062191D01*
X0009931Y-0062203D01*
X0007988D01*
X0008059Y-0062191D01*
X0008122Y-0062155D01*
X0008177Y-0062095D01*
X0008226Y-0062011D01*
X0008266Y-0061903D01*
X0008300Y-0061771D01*
X0008326Y-0061615D01*
X0008344Y-0061435D01*
X0008359Y-0061003D01*
X0009559D01*
X0009563Y-0061231D01*
D02*
G37*
G36*
X0108543Y-0061081D02*
X0108407Y-0061307D01*
X0108352Y-0061419D01*
X0108306Y-0061532D01*
X0108268Y-0061645D01*
X0108248Y-0061719D01*
X0108256Y-0061771D01*
X0108288Y-0061903D01*
X0108327Y-0062011D01*
X0108373Y-0062095D01*
X0108426Y-0062155D01*
X0108486Y-0062191D01*
X0108554Y-0062203D01*
X0106611D01*
X0106685Y-0062191D01*
X0106751Y-0062155D01*
X0106809Y-0062095D01*
X0106860Y-0062011D01*
X0106903Y-0061903D01*
X0106938Y-0061771D01*
X0106949Y-0061708D01*
X0106932Y-0061645D01*
X0106894Y-0061532D01*
X0106848Y-0061419D01*
X0106793Y-0061307D01*
X0106729Y-0061194D01*
X0106657Y-0061081D01*
X0106577Y-0060968D01*
X0108623D01*
X0108543Y-0061081D01*
D02*
G37*
G36*
X0088292Y-0058071D02*
X0088466Y-0058072D01*
Y-0060072D01*
X0088292Y-0060077D01*
Y-0060279D01*
X0088279Y-0060240D01*
X0088237Y-0060204D01*
X0088167Y-0060173D01*
X0088070Y-0060146D01*
X0087944Y-0060123D01*
X0087791Y-0060105D01*
X0087401Y-0060080D01*
X0086900Y-0060072D01*
Y-0058072D01*
X0087165Y-0058070D01*
X0087944Y-0058020D01*
X0088070Y-0057997D01*
X0088167Y-0057970D01*
X0088237Y-0057939D01*
X0088279Y-0057904D01*
X0088292Y-0057864D01*
Y-0058071D01*
D02*
G37*
G36*
X0057127Y-0057255D02*
X0057187Y-0057285D01*
X0057288Y-0057312D01*
X0057428Y-0057336D01*
X0057608Y-0057355D01*
X0058310Y-0057389D01*
X0058732Y-0057377D01*
Y-0057396D01*
X0059108Y-0057400D01*
Y-0059400D01*
X0058732Y-0059402D01*
Y-0059423D01*
X0058718Y-0059419D01*
X0058690Y-0059415D01*
X0058647Y-0059411D01*
X0058603Y-0059410D01*
X0057428Y-0059485D01*
X0057288Y-0059516D01*
X0057187Y-0059551D01*
X0057127Y-0059591D01*
X0057108Y-0059636D01*
Y-0057221D01*
X0057127Y-0057255D01*
D02*
G37*
G36*
X0039210Y-0056295D02*
X0038149Y-0058063D01*
X0038033Y-0057964D01*
X0037903Y-0057885D01*
X0037758Y-0057825D01*
X0037600Y-0057785D01*
X0037427Y-0057765D01*
X0037240Y-0057764D01*
X0037039Y-0057783D01*
X0036823Y-0057822D01*
X0036594Y-0057880D01*
X0036350Y-0057958D01*
X0037312Y-0054970D01*
X0039210Y-0056295D01*
D02*
G37*
G36*
X0046347Y-0058978D02*
X0046267Y-0059008D01*
X0046196Y-0059058D01*
X0046135Y-0059128D01*
X0046083Y-0059218D01*
X0046041Y-0059328D01*
X0046008Y-0059458D01*
X0045984Y-0059608D01*
X0045970Y-0059778D01*
X0045965Y-0059968D01*
X0044965D01*
X0044961Y-0059778D01*
X0044947Y-0059608D01*
X0044923Y-0059458D01*
X0044890Y-0059328D01*
X0044848Y-0059218D01*
X0044796Y-0059128D01*
X0044734Y-0059058D01*
X0044664Y-0059008D01*
X0044584Y-0058978D01*
X0044494Y-0058968D01*
X0046437D01*
X0046347Y-0058978D01*
D02*
G37*
G36*
X0014220Y-0058614D02*
X0014207Y-0058670D01*
X0014210Y-0058733D01*
X0014229Y-0058805D01*
X0014264Y-0058884D01*
X0014314Y-0058972D01*
X0014382Y-0059067D01*
X0014465Y-0059171D01*
X0014679Y-0059401D01*
X0014328Y-0059886D01*
X0014203Y-0059765D01*
X0013981Y-0059575D01*
X0013883Y-0059505D01*
X0013795Y-0059454D01*
X0013716Y-0059420D01*
X0013646Y-0059403D01*
X0013586Y-0059403D01*
X0013535Y-0059421D01*
X0013493Y-0059456D01*
X0014249Y-0058566D01*
X0014220Y-0058614D01*
D02*
G37*
G36*
X0057904Y-0065500D02*
X0057894Y-0065405D01*
X0057864Y-0065320D01*
X0057813Y-0065245D01*
X0057743Y-0065180D01*
X0057652Y-0065125D01*
X0057540Y-0065080D01*
X0057409Y-0065045D01*
X0057257Y-0065020D01*
X0057085Y-0065005D01*
X0056893Y-0065000D01*
Y-0064000D01*
X0057085Y-0063995D01*
X0057257Y-0063980D01*
X0057409Y-0063955D01*
X0057540Y-0063920D01*
X0057652Y-0063875D01*
X0057743Y-0063820D01*
X0057813Y-0063755D01*
X0057864Y-0063680D01*
X0057894Y-0063595D01*
X0057904Y-0063500D01*
Y-0065500D01*
D02*
G37*
G36*
X0060306Y-0063595D02*
X0060336Y-0063680D01*
X0060387Y-0063755D01*
X0060457Y-0063820D01*
X0060549Y-0063875D01*
X0060660Y-0063920D01*
X0060791Y-0063955D01*
X0060943Y-0063980D01*
X0061115Y-0063995D01*
X0061308Y-0064000D01*
Y-0065000D01*
X0061115Y-0065005D01*
X0060943Y-0065020D01*
X0060791Y-0065045D01*
X0060660Y-0065080D01*
X0060549Y-0065125D01*
X0060457Y-0065180D01*
X0060387Y-0065245D01*
X0060336Y-0065320D01*
X0060306Y-0065405D01*
X0060295Y-0065500D01*
Y-0063500D01*
X0060306Y-0063595D01*
D02*
G37*
G36*
X0108537Y-0064551D02*
X0108522Y-0064587D01*
X0108509Y-0064647D01*
X0108497Y-0064731D01*
X0108479Y-0064971D01*
X0108465Y-0065739D01*
X0107265D01*
X0107259Y-0065511D01*
X0107241Y-0065307D01*
X0107211Y-0065127D01*
X0107169Y-0064971D01*
X0107115Y-0064839D01*
X0107049Y-0064731D01*
X0106971Y-0064647D01*
X0106881Y-0064587D01*
X0106779Y-0064551D01*
X0106665Y-0064539D01*
X0108554D01*
X0108537Y-0064551D01*
D02*
G37*
G36*
X0047535Y-0063595D02*
X0047565Y-0063680D01*
X0047616Y-0063755D01*
X0047686Y-0063820D01*
X0047778Y-0063875D01*
X0047889Y-0063920D01*
X0048020Y-0063955D01*
X0048172Y-0063980D01*
X0048344Y-0063995D01*
X0048537Y-0064000D01*
Y-0065000D01*
X0048344Y-0065005D01*
X0048172Y-0065020D01*
X0048020Y-0065045D01*
X0047889Y-0065080D01*
X0047778Y-0065125D01*
X0047686Y-0065180D01*
X0047616Y-0065245D01*
X0047565Y-0065320D01*
X0047535Y-0065405D01*
X0047525Y-0065500D01*
Y-0063500D01*
X0047535Y-0063595D01*
D02*
G37*
G36*
X0102978Y-0064527D02*
X0102939Y-0064489D01*
X0102890Y-0064468D01*
X0102832Y-0064466D01*
X0102763Y-0064482D01*
X0102685Y-0064516D01*
X0102596Y-0064568D01*
X0102498Y-0064638D01*
X0102389Y-0064726D01*
X0102143Y-0064956D01*
X0101863Y-0064401D01*
X0101975Y-0064285D01*
X0102153Y-0064075D01*
X0102219Y-0063980D01*
X0102269Y-0063893D01*
X0102305Y-0063813D01*
X0102324Y-0063741D01*
X0102329Y-0063675D01*
X0102318Y-0063617D01*
X0102292Y-0063566D01*
X0102978Y-0064527D01*
D02*
G37*
G36*
X0054704Y-0062900D02*
X0054694Y-0062805D01*
X0054664Y-0062720D01*
X0054613Y-0062645D01*
X0054543Y-0062580D01*
X0054452Y-0062525D01*
X0054340Y-0062480D01*
X0054209Y-0062445D01*
X0054057Y-0062420D01*
X0053885Y-0062405D01*
X0053693Y-0062400D01*
Y-0061400D01*
X0053885Y-0061395D01*
X0054057Y-0061380D01*
X0054209Y-0061355D01*
X0054340Y-0061320D01*
X0054452Y-0061275D01*
X0054543Y-0061220D01*
X0054613Y-0061155D01*
X0054664Y-0061080D01*
X0054694Y-0060995D01*
X0054704Y-0060900D01*
Y-0062900D01*
D02*
G37*
G36*
X0057106Y-0060995D02*
X0057136Y-0061080D01*
X0057187Y-0061155D01*
X0057257Y-0061220D01*
X0057349Y-0061275D01*
X0057460Y-0061320D01*
X0057591Y-0061355D01*
X0057743Y-0061380D01*
X0057915Y-0061395D01*
X0058108Y-0061400D01*
Y-0062400D01*
X0057915Y-0062405D01*
X0057743Y-0062420D01*
X0057591Y-0062445D01*
X0057460Y-0062480D01*
X0057349Y-0062525D01*
X0057257Y-0062580D01*
X0057187Y-0062645D01*
X0057136Y-0062720D01*
X0057106Y-0062805D01*
X0057095Y-0062900D01*
Y-0060900D01*
X0057106Y-0060995D01*
D02*
G37*
G36*
X0013670Y-0063759D02*
X0013652Y-0063791D01*
X0013636Y-0063825D01*
X0013623Y-0063861D01*
X0013611Y-0063901D01*
X0013602Y-0063942D01*
X0013595Y-0063986D01*
X0013589Y-0064033D01*
X0013585Y-0064133D01*
X0012995D01*
X0012994Y-0064082D01*
X0012985Y-0063986D01*
X0012978Y-0063942D01*
X0012969Y-0063901D01*
X0012957Y-0063861D01*
X0012944Y-0063825D01*
X0012928Y-0063791D01*
X0012910Y-0063759D01*
X0012890Y-0063730D01*
X0013690D01*
X0013670Y-0063759D01*
D02*
G37*
G36*
X0039204Y-0061390D02*
X0038107Y-0063121D01*
X0037991Y-0063022D01*
X0037860Y-0062941D01*
X0037715Y-0062880D01*
X0037555Y-0062837D01*
X0037381Y-0062813D01*
X0037192Y-0062809D01*
X0036989Y-0062823D01*
X0036771Y-0062855D01*
X0036538Y-0062907D01*
X0036291Y-0062978D01*
X0037345Y-0060019D01*
X0039204Y-0061390D01*
D02*
G37*
G36*
X0048019Y-0102800D02*
X0048093Y-0102862D01*
X0048129Y-0102888D01*
X0048165Y-0102911D01*
X0048201Y-0102930D01*
X0048237Y-0102947D01*
X0048272Y-0102960D01*
X0048307Y-0102969D01*
X0048341Y-0102976D01*
X0047776Y-0103541D01*
X0047769Y-0103507D01*
X0047760Y-0103472D01*
X0047747Y-0103437D01*
X0047730Y-0103401D01*
X0047711Y-0103365D01*
X0047688Y-0103329D01*
X0047662Y-0103293D01*
X0047633Y-0103256D01*
X0047565Y-0103182D01*
X0047982Y-0102765D01*
X0048019Y-0102800D01*
D02*
G37*
G36*
X0067413Y-0102356D02*
X0067621Y-0102531D01*
X0067714Y-0102596D01*
X0067801Y-0102646D01*
X0067881Y-0102682D01*
X0067955Y-0102703D01*
X0068021Y-0102708D01*
X0068081Y-0102699D01*
X0068134Y-0102675D01*
X0067125Y-0103312D01*
X0067165Y-0103276D01*
X0067187Y-0103228D01*
X0067191Y-0103171D01*
X0067176Y-0103103D01*
X0067142Y-0103025D01*
X0067090Y-0102936D01*
X0067019Y-0102837D01*
X0066930Y-0102727D01*
X0066695Y-0102477D01*
X0067299Y-0102246D01*
X0067413Y-0102356D01*
D02*
G37*
G36*
X0030301Y-0105358D02*
X0030360Y-0106245D01*
X0030382Y-0106341D01*
X0030408Y-0106409D01*
X0030436Y-0106450D01*
X0030468Y-0106464D01*
X0030301D01*
X0030300Y-0106664D01*
X0028300D01*
X0028294Y-0106464D01*
X0028132D01*
X0028164Y-0106450D01*
X0028192Y-0106409D01*
X0028218Y-0106341D01*
X0028239Y-0106245D01*
X0028258Y-0106122D01*
X0028277Y-0105886D01*
X0028277Y-0105867D01*
X0028279D01*
X0028285Y-0105795D01*
X0028300Y-0105098D01*
X0030300D01*
X0030301Y-0105358D01*
D02*
G37*
G36*
X0035300Y-0107656D02*
X0035280Y-0107474D01*
X0035220Y-0107311D01*
X0035120Y-0107168D01*
X0034980Y-0107044D01*
X0034800Y-0106939D01*
X0034580Y-0106853D01*
X0034320Y-0106786D01*
X0034020Y-0106738D01*
X0033889Y-0106727D01*
X0033901Y-0106788D01*
X0033932Y-0106887D01*
X0033967Y-0106958D01*
X0034006Y-0107001D01*
X0034051Y-0107015D01*
X0033818D01*
X0033817Y-0107164D01*
X0031817D01*
X0031813Y-0107015D01*
X0031636D01*
X0031670Y-0107001D01*
X0031701Y-0106958D01*
X0031728Y-0106887D01*
X0031752Y-0106788D01*
X0031772Y-0106661D01*
X0031795Y-0106392D01*
X0031794Y-0106367D01*
X0031797D01*
X0031801Y-0106321D01*
X0031815Y-0105867D01*
X0031817Y-0105598D01*
X0033300D01*
Y-0104700D01*
X0033632Y-0104692D01*
X0033636Y-0104614D01*
X0033663Y-0104631D01*
X0033703Y-0104645D01*
X0033756Y-0104658D01*
X0033823Y-0104669D01*
X0033873Y-0104674D01*
X0034020Y-0104662D01*
X0034320Y-0104614D01*
X0034580Y-0104547D01*
X0034800Y-0104461D01*
X0034980Y-0104356D01*
X0035120Y-0104232D01*
X0035220Y-0104088D01*
X0035280Y-0103926D01*
X0035300Y-0103744D01*
Y-0107656D01*
D02*
G37*
G36*
X0062413Y-0102356D02*
X0062620Y-0102530D01*
X0062714Y-0102595D01*
X0062801Y-0102646D01*
X0062881Y-0102681D01*
X0062954Y-0102702D01*
X0063021Y-0102708D01*
X0063081Y-0102699D01*
X0063135Y-0102676D01*
X0062115Y-0103302D01*
X0062156Y-0103266D01*
X0062178Y-0103219D01*
X0062182Y-0103162D01*
X0062167Y-0103094D01*
X0062133Y-0103016D01*
X0062081Y-0102927D01*
X0062010Y-0102828D01*
X0061920Y-0102718D01*
X0061685Y-0102467D01*
X0062300Y-0102246D01*
X0062413Y-0102356D01*
D02*
G37*
G36*
X0061678Y-0097662D02*
X0061205Y-0098389D01*
X0061154Y-0098492D01*
X0061117Y-0098582D01*
X0061095Y-0098658D01*
X0061088Y-0098720D01*
X0060498D01*
X0060490Y-0098658D01*
X0060469Y-0098582D01*
X0060432Y-0098492D01*
X0060381Y-0098389D01*
X0060236Y-0098140D01*
X0060032Y-0097835D01*
X0059770Y-0097475D01*
X0061816D01*
X0061678Y-0097662D01*
D02*
G37*
G36*
X0066678Y-0097455D02*
X0066205Y-0098182D01*
X0066154Y-0098285D01*
X0066117Y-0098375D01*
X0066096Y-0098451D01*
X0066088Y-0098513D01*
X0065498D01*
X0065490Y-0098451D01*
X0065469Y-0098375D01*
X0065432Y-0098285D01*
X0065381Y-0098182D01*
X0065236Y-0097933D01*
X0065032Y-0097628D01*
X0064770Y-0097268D01*
X0066816D01*
X0066678Y-0097455D01*
D02*
G37*
G36*
X0074857Y-0102467D02*
X0074730Y-0102598D01*
X0074532Y-0102828D01*
X0074461Y-0102927D01*
X0074409Y-0103016D01*
X0074375Y-0103094D01*
X0074360Y-0103162D01*
X0074364Y-0103219D01*
X0074386Y-0103266D01*
X0074427Y-0103302D01*
X0073407Y-0102676D01*
X0073461Y-0102699D01*
X0073521Y-0102708D01*
X0073588Y-0102702D01*
X0073661Y-0102681D01*
X0073741Y-0102646D01*
X0073828Y-0102595D01*
X0073922Y-0102530D01*
X0074022Y-0102450D01*
X0074242Y-0102246D01*
X0074857Y-0102467D01*
D02*
G37*
G36*
X0076578Y-0098304D02*
X0076149Y-0099042D01*
X0076103Y-0099148D01*
X0076070Y-0099240D01*
X0076051Y-0099318D01*
X0076044Y-0099383D01*
X0075453Y-0099434D01*
X0075445Y-0099374D01*
X0075422Y-0099301D01*
X0075382Y-0099214D01*
X0075327Y-0099113D01*
X0075255Y-0098999D01*
X0075065Y-0098729D01*
X0074660Y-0098221D01*
X0076704Y-0098114D01*
X0076578Y-0098304D01*
D02*
G37*
G36*
X0034071Y-0110604D02*
X0034131Y-0110645D01*
X0034231Y-0110682D01*
X0034371Y-0110713D01*
X0034551Y-0110740D01*
X0035031Y-0110778D01*
X0036051Y-0110800D01*
Y-0112800D01*
X0035671Y-0112802D01*
X0034231Y-0112885D01*
X0034131Y-0112911D01*
X0034071Y-0112940D01*
X0034051Y-0112973D01*
Y-0110558D01*
X0034071Y-0110604D01*
D02*
G37*
G36*
X0009058Y-0097741D02*
X0010028Y-0097741D01*
X0011929Y-0098119D01*
X0013721Y-0098861D01*
X0015333Y-0099938D01*
X0016703Y-0101309D01*
X0017781Y-0102921D01*
X0018523Y-0104712D01*
X0018871Y-0106462D01*
X0020512Y-0108121D01*
X0020954Y-0108434D01*
X0021287Y-0108610D01*
X0022371Y-0108537D01*
X0022521Y-0108493D01*
X0022611Y-0108441D01*
X0022641Y-0108384D01*
Y-0111902D01*
X0022611Y-0111861D01*
X0022521Y-0111824D01*
X0022371Y-0111791D01*
X0022161Y-0111763D01*
X0021561Y-0111719D01*
X0020351Y-0111698D01*
X0020141Y-0111715D01*
X0019678Y-0111806D01*
X0019114Y-0111959D01*
X0018901Y-0112031D01*
Y-0115472D01*
X0008395D01*
X0006851Y-0115165D01*
X0005397Y-0114562D01*
X0004088Y-0113688D01*
X0002976Y-0112575D01*
X0002101Y-0111266D01*
X0001499Y-0109812D01*
X0001192Y-0108269D01*
Y-0107482D01*
X0001192Y-0097741D01*
X0009058Y-0097741D01*
D02*
G37*
G36*
X0037325Y-0113059D02*
X0037251Y-0113010D01*
X0037166Y-0112966D01*
X0037071Y-0112927D01*
X0036965Y-0112893D01*
X0036849Y-0112865D01*
X0036722Y-0112842D01*
X0036437Y-0112811D01*
X0036278Y-0112803D01*
X0036109Y-0112800D01*
Y-0110800D01*
X0036278Y-0110798D01*
X0036722Y-0110759D01*
X0036849Y-0110735D01*
X0036965Y-0110707D01*
X0037071Y-0110673D01*
X0037166Y-0110634D01*
X0037251Y-0110590D01*
X0037325Y-0110541D01*
Y-0113059D01*
D02*
G37*
G36*
X0031636Y-0112973D02*
X0031616Y-0112934D01*
X0031556Y-0112899D01*
X0031456Y-0112867D01*
X0031316Y-0112840D01*
X0031136Y-0112818D01*
X0030656Y-0112785D01*
X0029636Y-0112766D01*
Y-0110766D01*
X0030016Y-0110764D01*
X0031456Y-0110664D01*
X0031556Y-0110633D01*
X0031616Y-0110598D01*
X0031636Y-0110558D01*
Y-0112973D01*
D02*
G37*
G36*
X0048779Y-0109464D02*
X0048801Y-0109576D01*
X0048839Y-0109698D01*
X0048892Y-0109832D01*
X0048961Y-0109976D01*
X0049143Y-0110295D01*
X0049257Y-0110471D01*
X0049530Y-0110854D01*
X0047012D01*
X0047156Y-0110658D01*
X0047497Y-0110130D01*
X0047581Y-0109976D01*
X0047703Y-0109698D01*
X0047741Y-0109576D01*
X0047763Y-0109464D01*
X0047771Y-0109362D01*
X0048771D01*
X0048779Y-0109464D01*
D02*
G37*
G36*
X0045406Y-0107668D02*
X0045372Y-0107704D01*
X0045342Y-0107764D01*
X0045316Y-0107848D01*
X0045294Y-0107956D01*
X0045276Y-0108088D01*
X0045251Y-0108424D01*
X0045243Y-0108857D01*
X0043243D01*
X0043241Y-0108628D01*
X0043193Y-0107956D01*
X0043171Y-0107848D01*
X0043145Y-0107764D01*
X0043115Y-0107704D01*
X0043080Y-0107668D01*
X0043042Y-0107656D01*
X0045445D01*
X0045406Y-0107668D01*
D02*
G37*
G36*
X0075697Y-0108989D02*
X0075585Y-0108908D01*
X0075359Y-0108773D01*
X0075246Y-0108718D01*
X0075133Y-0108672D01*
X0075020Y-0108633D01*
X0074943Y-0108613D01*
X0074871Y-0108625D01*
X0074739Y-0108659D01*
X0074631Y-0108700D01*
X0074547Y-0108748D01*
X0074487Y-0108803D01*
X0074451Y-0108867D01*
X0074439Y-0108937D01*
Y-0106994D01*
X0074451Y-0107065D01*
X0074487Y-0107128D01*
X0074547Y-0107184D01*
X0074631Y-0107232D01*
X0074739Y-0107273D01*
X0074871Y-0107306D01*
X0074943Y-0107318D01*
X0075020Y-0107298D01*
X0075133Y-0107260D01*
X0075246Y-0107213D01*
X0075359Y-0107159D01*
X0075472Y-0107095D01*
X0075585Y-0107023D01*
X0075697Y-0106943D01*
Y-0108989D01*
D02*
G37*
G36*
X0054451Y-0107065D02*
X0054487Y-0107128D01*
X0054547Y-0107184D01*
X0054631Y-0107232D01*
X0054739Y-0107273D01*
X0054871Y-0107306D01*
X0055027Y-0107332D01*
X0055207Y-0107351D01*
X0055639Y-0107366D01*
Y-0108566D01*
X0055411Y-0108570D01*
X0055027Y-0108599D01*
X0054871Y-0108625D01*
X0054739Y-0108659D01*
X0054631Y-0108700D01*
X0054547Y-0108748D01*
X0054487Y-0108803D01*
X0054451Y-0108867D01*
X0054439Y-0108937D01*
Y-0106994D01*
X0054451Y-0107065D01*
D02*
G37*
G36*
X0062103Y-0108937D02*
X0062091Y-0108867D01*
X0062055Y-0108803D01*
X0061995Y-0108748D01*
X0061911Y-0108700D01*
X0061803Y-0108659D01*
X0061671Y-0108625D01*
X0061515Y-0108599D01*
X0061335Y-0108581D01*
X0060903Y-0108566D01*
Y-0107366D01*
X0061131Y-0107362D01*
X0061515Y-0107332D01*
X0061671Y-0107306D01*
X0061803Y-0107273D01*
X0061911Y-0107232D01*
X0061995Y-0107184D01*
X0062055Y-0107128D01*
X0062091Y-0107065D01*
X0062103Y-0106994D01*
Y-0108937D01*
D02*
G37*
G36*
X0115350Y-0107482D02*
Y-0108269D01*
X0115043Y-0109812D01*
X0114441Y-0111266D01*
X0113566Y-0112575D01*
X0112453Y-0113688D01*
X0111145Y-0114562D01*
X0109691Y-0115165D01*
X0108147Y-0115472D01*
X0097641D01*
Y-0112108D01*
X0096864Y-0111806D01*
X0096401Y-0111715D01*
X0096060Y-0111687D01*
X0095988Y-0111687D01*
X0093678Y-0111824D01*
X0093588Y-0111861D01*
X0093558Y-0111902D01*
Y-0108384D01*
X0093588Y-0108441D01*
X0093678Y-0108493D01*
X0093828Y-0108537D01*
X0094038Y-0108577D01*
X0094308Y-0108610D01*
X0095028Y-0108658D01*
X0095075Y-0108659D01*
X0095232Y-0108622D01*
X0095588Y-0108434D01*
X0096030Y-0108121D01*
X0096558Y-0107682D01*
X0097641Y-0106651D01*
Y-0106614D01*
X0098019Y-0104712D01*
X0098761Y-0102921D01*
X0099838Y-0101309D01*
X0101209Y-0099938D01*
X0102821Y-0098861D01*
X0104613Y-0098119D01*
X0106514Y-0097741D01*
X0107483Y-0097741D01*
X0115350Y-0097741D01*
X0115350Y-0107482D01*
D02*
G37*
G36*
X0112808Y-0079416D02*
X0112747Y-0079521D01*
X0112693Y-0079634D01*
X0112647Y-0079753D01*
X0112607Y-0079879D01*
X0112575Y-0080011D01*
X0112550Y-0080150D01*
X0112532Y-0080296D01*
X0112517Y-0080608D01*
X0110717D01*
X0110714Y-0080449D01*
X0110685Y-0080150D01*
X0110660Y-0080011D01*
X0110627Y-0079879D01*
X0110588Y-0079753D01*
X0110541Y-0079634D01*
X0110487Y-0079521D01*
X0110426Y-0079416D01*
X0110358Y-0079317D01*
X0112877D01*
X0112808Y-0079416D01*
D02*
G37*
G36*
X0096280Y-0079167D02*
X0096113Y-0079194D01*
X0095810Y-0079260D01*
X0095674Y-0079300D01*
X0095548Y-0079344D01*
X0095433Y-0079392D01*
X0095329Y-0079445D01*
X0095235Y-0079502D01*
X0095151Y-0079563D01*
X0095078Y-0079629D01*
X0094371Y-0078922D01*
X0094437Y-0078849D01*
X0094498Y-0078765D01*
X0094555Y-0078671D01*
X0094608Y-0078567D01*
X0094656Y-0078452D01*
X0094700Y-0078326D01*
X0094740Y-0078190D01*
X0094806Y-0077887D01*
X0094833Y-0077720D01*
X0096280Y-0079167D01*
D02*
G37*
G36*
X0112520Y-0081505D02*
X0112584Y-0082513D01*
X0112614Y-0082675D01*
X0112649Y-0082801D01*
X0112689Y-0082891D01*
X0112734Y-0082945D01*
X0112785Y-0082963D01*
X0110449D01*
X0110500Y-0082945D01*
X0110546Y-0082891D01*
X0110586Y-0082801D01*
X0110621Y-0082675D01*
X0110650Y-0082513D01*
X0110674Y-0082315D01*
X0110707Y-0081811D01*
X0110717Y-0081163D01*
X0112517D01*
X0112520Y-0081505D01*
D02*
G37*
G36*
X0106398Y-0081509D02*
X0106397Y-0081536D01*
X0106391Y-0082410D01*
X0104591D01*
X0104581Y-0081500D01*
X0106400D01*
X0106398Y-0081509D01*
D02*
G37*
G36*
X0025694Y-0075487D02*
X0025760Y-0075790D01*
X0025800Y-0075926D01*
X0025844Y-0076052D01*
X0025892Y-0076167D01*
X0025945Y-0076271D01*
X0026002Y-0076365D01*
X0026063Y-0076449D01*
X0026129Y-0076522D01*
X0025422Y-0077229D01*
X0025349Y-0077163D01*
X0025265Y-0077102D01*
X0025171Y-0077045D01*
X0025067Y-0076992D01*
X0024952Y-0076944D01*
X0024826Y-0076900D01*
X0024690Y-0076860D01*
X0024387Y-0076793D01*
X0024220Y-0076767D01*
X0025667Y-0075320D01*
X0025694Y-0075487D01*
D02*
G37*
G36*
X0023237Y-0076034D02*
X0023230Y-0076028D01*
X0023215Y-0076022D01*
X0023191Y-0076017D01*
X0023160Y-0076012D01*
X0023072Y-0076006D01*
X0022800Y-0076000D01*
Y-0075000D01*
X0022880Y-0075000D01*
X0023215Y-0074978D01*
X0023230Y-0074972D01*
X0023237Y-0074966D01*
Y-0076034D01*
D02*
G37*
G36*
X0009860Y-0074551D02*
X0009797Y-0074587D01*
X0009741Y-0074647D01*
X0009693Y-0074731D01*
X0009652Y-0074839D01*
X0009619Y-0074971D01*
X0009607Y-0075039D01*
X0009627Y-0075114D01*
X0009665Y-0075227D01*
X0009712Y-0075340D01*
X0009767Y-0075453D01*
X0009830Y-0075565D01*
X0009902Y-0075678D01*
X0009983Y-0075791D01*
X0007936D01*
X0008017Y-0075678D01*
X0008152Y-0075453D01*
X0008207Y-0075340D01*
X0008254Y-0075227D01*
X0008292Y-0075114D01*
X0008311Y-0075039D01*
X0008300Y-0074971D01*
X0008266Y-0074839D01*
X0008226Y-0074731D01*
X0008177Y-0074647D01*
X0008122Y-0074587D01*
X0008059Y-0074551D01*
X0007988Y-0074539D01*
X0009931D01*
X0009860Y-0074551D01*
D02*
G37*
G36*
X0063383Y-0074962D02*
X0063396Y-0075075D01*
X0063417Y-0075188D01*
X0063446Y-0075301D01*
X0063449Y-0075308D01*
X0063979D01*
X0063865Y-0075319D01*
X0063763Y-0075355D01*
X0063673Y-0075415D01*
X0063595Y-0075499D01*
X0063552Y-0075570D01*
X0063586Y-0075640D01*
X0063650Y-0075753D01*
X0063722Y-0075865D01*
X0063802Y-0075978D01*
X0063419D01*
X0063403Y-0076076D01*
X0063385Y-0076279D01*
X0063379Y-0076508D01*
X0062179D01*
X0062173Y-0076279D01*
X0062155Y-0076076D01*
X0062138Y-0075978D01*
X0061756D01*
X0061836Y-0075865D01*
X0061971Y-0075640D01*
X0062006Y-0075570D01*
X0061963Y-0075499D01*
X0061885Y-0075415D01*
X0061795Y-0075355D01*
X0061693Y-0075319D01*
X0061579Y-0075308D01*
X0062109D01*
X0062111Y-0075301D01*
X0062141Y-0075188D01*
X0062162Y-0075075D01*
X0062174Y-0074962D01*
X0062179Y-0074849D01*
X0063379D01*
X0063383Y-0074962D01*
D02*
G37*
G36*
X0042351Y-0074329D02*
X0042082Y-0074605D01*
X0041446Y-0075350D01*
X0041290Y-0075571D01*
X0041163Y-0075778D01*
X0041064Y-0075971D01*
X0040993Y-0076151D01*
X0040951Y-0076316D01*
X0040937Y-0076468D01*
X0038994Y-0074132D01*
X0039146Y-0074118D01*
X0039312Y-0074075D01*
X0039491Y-0074005D01*
X0039684Y-0073906D01*
X0039891Y-0073778D01*
X0040112Y-0073623D01*
X0040595Y-0073227D01*
X0040857Y-0072986D01*
X0041133Y-0072718D01*
X0042351Y-0074329D01*
D02*
G37*
G36*
X0073349Y-0090440D02*
X0073385Y-0090536D01*
X0073445Y-0090622D01*
X0073529Y-0090696D01*
X0073637Y-0090758D01*
X0073769Y-0090809D01*
X0073925Y-0090849D01*
X0074105Y-0090877D01*
X0074309Y-0090894D01*
X0074537Y-0090900D01*
Y-0092100D01*
X0074309Y-0092106D01*
X0074105Y-0092123D01*
X0073925Y-0092151D01*
X0073769Y-0092191D01*
X0073637Y-0092242D01*
X0073529Y-0092304D01*
X0073445Y-0092378D01*
X0073385Y-0092464D01*
X0073349Y-0092560D01*
X0073337Y-0092668D01*
Y-0090332D01*
X0073349Y-0090440D01*
D02*
G37*
G36*
X0112619Y-0091382D02*
X0112615Y-0091410D01*
X0112611Y-0091453D01*
X0112604Y-0091767D01*
X0112623Y-0092432D01*
X0110577D01*
X0110581Y-0092418D01*
X0110585Y-0092390D01*
X0110589Y-0092347D01*
X0110596Y-0092033D01*
X0110577Y-0091368D01*
X0112623D01*
X0112619Y-0091382D01*
D02*
G37*
G36*
X0083219Y-0090382D02*
X0083215Y-0090410D01*
X0083211Y-0090453D01*
X0083201Y-0090889D01*
X0083200Y-0091051D01*
X0083202Y-0091343D01*
X0083308Y-0092883D01*
X0083336Y-0092943D01*
X0083368Y-0092963D01*
X0081032D01*
X0081064Y-0092943D01*
X0081092Y-0092883D01*
X0081118Y-0092783D01*
X0081139Y-0092643D01*
X0081158Y-0092463D01*
X0081193Y-0091683D01*
X0081199Y-0091117D01*
X0081177Y-0090368D01*
X0083223D01*
X0083219Y-0090382D01*
D02*
G37*
G36*
X0067076Y-0088720D02*
X0067077Y-0088807D01*
X0067090Y-0088895D01*
X0067114Y-0088984D01*
X0067150Y-0089075D01*
X0067197Y-0089167D01*
X0067255Y-0089261D01*
X0067298Y-0089319D01*
X0067888Y-0089823D01*
X0068108Y-0089978D01*
X0068316Y-0090106D01*
X0068509Y-0090205D01*
X0068688Y-0090275D01*
X0068854Y-0090318D01*
X0069006Y-0090332D01*
X0067063Y-0092668D01*
X0067049Y-0092516D01*
X0067007Y-0092351D01*
X0066936Y-0092171D01*
X0066837Y-0091978D01*
X0066710Y-0091771D01*
X0066554Y-0091550D01*
X0066158Y-0091067D01*
X0065918Y-0090805D01*
X0065649Y-0090529D01*
X0065739Y-0090410D01*
X0065255Y-0089544D01*
X0067086Y-0088635D01*
X0067076Y-0088720D01*
D02*
G37*
G36*
X0077380Y-0090867D02*
X0077244Y-0090890D01*
X0076988Y-0090953D01*
X0076870Y-0090994D01*
X0076757Y-0091041D01*
X0076650Y-0091094D01*
X0076549Y-0091153D01*
X0076454Y-0091218D01*
X0076365Y-0091289D01*
X0076282Y-0091366D01*
X0075434Y-0090518D01*
X0075511Y-0090435D01*
X0075582Y-0090346D01*
X0075647Y-0090251D01*
X0075706Y-0090150D01*
X0075759Y-0090043D01*
X0075806Y-0089930D01*
X0075847Y-0089812D01*
X0075881Y-0089687D01*
X0075910Y-0089556D01*
X0075933Y-0089420D01*
X0077380Y-0090867D01*
D02*
G37*
G36*
X0046613Y-0084346D02*
X0047543D01*
X0047171Y-0084719D01*
X0047293Y-0084800D01*
X0047103Y-0084810D01*
X0047074Y-0084815D01*
X0046308Y-0085581D01*
X0046303Y-0085610D01*
X0046293Y-0085800D01*
X0046089D01*
X0045836Y-0086054D01*
Y-0086139D01*
X0045496Y-0085800D01*
X0045293D01*
X0045283Y-0085610D01*
X0045278Y-0085581D01*
X0044512Y-0084815D01*
X0044483Y-0084810D01*
X0044293Y-0084800D01*
X0044415Y-0084719D01*
X0044043Y-0084346D01*
X0044973D01*
X0045793Y-0083800D01*
X0046613Y-0084346D01*
D02*
G37*
G36*
X0109526Y-0082979D02*
X0109580Y-0083032D01*
X0109669Y-0083078D01*
X0109795Y-0083118D01*
X0109958Y-0083152D01*
X0110014Y-0083159D01*
X0110161Y-0083133D01*
X0110287Y-0083099D01*
X0110377Y-0083059D01*
X0110431Y-0083014D01*
X0110449Y-0082963D01*
Y-0083201D01*
X0110660Y-0083216D01*
X0111308Y-0083228D01*
Y-0085028D01*
X0110966Y-0085031D01*
X0109958Y-0085105D01*
X0109795Y-0085139D01*
X0109669Y-0085179D01*
X0109580Y-0085225D01*
X0109526Y-0085277D01*
X0109508Y-0085336D01*
Y-0084970D01*
X0108649Y-0085028D01*
Y-0083228D01*
X0108991Y-0083226D01*
X0109508Y-0083193D01*
Y-0082921D01*
X0109526Y-0082979D01*
D02*
G37*
G36*
X0112606Y-0089237D02*
X0112785D01*
X0112750Y-0089250D01*
X0112719Y-0089291D01*
X0112691Y-0089359D01*
X0112667Y-0089455D01*
X0112646Y-0089577D01*
X0112630Y-0089727D01*
X0112607Y-0090109D01*
X0112600Y-0090600D01*
X0110600D01*
X0110599Y-0090341D01*
X0110546Y-0089455D01*
X0110526Y-0089359D01*
X0110503Y-0089291D01*
X0110478Y-0089250D01*
X0110449Y-0089237D01*
X0110599D01*
X0110600Y-0089034D01*
X0112600D01*
X0112606Y-0089237D01*
D02*
G37*
G36*
X0109201Y-0088666D02*
X0109215Y-0088879D01*
X0109508D01*
X0109449Y-0088892D01*
X0109397Y-0088932D01*
X0109351Y-0088998D01*
X0109311Y-0089091D01*
X0109277Y-0089209D01*
X0109262Y-0089287D01*
X0109279Y-0089343D01*
X0109300Y-0089393D01*
X0109323Y-0089432D01*
X0109240D01*
X0109228Y-0089526D01*
X0109203Y-0089949D01*
X0109200Y-0090200D01*
X0107400D01*
X0107397Y-0089949D01*
X0107357Y-0089432D01*
X0107277D01*
X0107300Y-0089393D01*
X0107321Y-0089343D01*
X0107338Y-0089287D01*
X0107323Y-0089209D01*
X0107289Y-0089091D01*
X0107249Y-0088998D01*
X0107203Y-0088932D01*
X0107151Y-0088892D01*
X0107092Y-0088879D01*
X0107390D01*
X0107399Y-0088666D01*
X0107400Y-0088523D01*
X0109200D01*
X0109201Y-0088666D01*
D02*
G37*
G36*
X0005926Y-0027357D02*
X0005985Y-0028245D01*
X0006007Y-0028341D01*
X0006032Y-0028409D01*
X0006061Y-0028450D01*
X0006092Y-0028463D01*
X0005925D01*
X0005924Y-0028664D01*
X0003924D01*
X0003919Y-0028463D01*
X0003756D01*
X0003788Y-0028450D01*
X0003817Y-0028409D01*
X0003842Y-0028341D01*
X0003864Y-0028245D01*
X0003882Y-0028122D01*
X0003902Y-0027885D01*
X0003901Y-0027866D01*
X0003903D01*
X0003909Y-0027794D01*
X0003924Y-0027098D01*
X0005924D01*
X0005926Y-0027357D01*
D02*
G37*
G36*
X0070409Y-0026996D02*
X0070436Y-0027303D01*
X0070447Y-0027368D01*
X0070523D01*
X0070500Y-0027407D01*
X0070479Y-0027457D01*
X0070468Y-0027494D01*
X0070481Y-0027574D01*
X0070544Y-0027809D01*
X0070625Y-0028009D01*
X0070724Y-0028172D01*
X0070841Y-0028299D01*
X0070976Y-0028390D01*
X0071129Y-0028445D01*
X0071300Y-0028464D01*
X0069354Y-0028452D01*
X0069281Y-0028277D01*
X0068600D01*
X0068599Y-0028134D01*
X0068569Y-0027678D01*
X0068556Y-0027593D01*
X0068540Y-0027519D01*
X0068521Y-0027457D01*
X0068500Y-0027407D01*
X0068477Y-0027368D01*
X0068900D01*
X0068600Y-0026652D01*
X0070400D01*
X0070409Y-0026996D01*
D02*
G37*
G36*
X0058035Y-0030303D02*
X0056035Y-0030161D01*
X0056033Y-0030020D01*
X0056015Y-0029771D01*
X0056000Y-0029662D01*
X0055980Y-0029564D01*
X0055957Y-0029475D01*
X0055928Y-0029397D01*
X0055896Y-0029330D01*
X0055859Y-0029273D01*
X0055818Y-0029227D01*
X0057836Y-0028890D01*
X0058035Y-0030303D01*
D02*
G37*
G36*
X0009443Y-0027813D02*
X0009486Y-0028551D01*
X0009502Y-0028631D01*
X0009521Y-0028688D01*
X0009542Y-0028721D01*
X0009565Y-0028733D01*
X0009446D01*
X0009443Y-0028886D01*
X0009442Y-0029164D01*
X0007442D01*
X0007429Y-0028733D01*
X0007318D01*
X0007342Y-0028721D01*
X0007363Y-0028688D01*
X0007381Y-0028631D01*
X0007397Y-0028551D01*
X0007411Y-0028449D01*
X0007431Y-0028177D01*
X0007442Y-0027598D01*
X0009442D01*
X0009443Y-0027813D01*
D02*
G37*
G36*
X0112364Y-0026619D02*
X0112420Y-0027324D01*
X0112468Y-0027611D01*
X0112531Y-0027853D01*
X0112607Y-0028052D01*
X0112697Y-0028206D01*
X0112801Y-0028316D01*
X0112918Y-0028383D01*
X0113050Y-0028405D01*
X0108665D01*
X0108797Y-0028383D01*
X0108914Y-0028316D01*
X0109018Y-0028206D01*
X0109108Y-0028052D01*
X0109184Y-0027853D01*
X0109247Y-0027611D01*
X0109295Y-0027324D01*
X0109330Y-0026994D01*
X0109358Y-0026200D01*
X0112357D01*
X0112364Y-0026619D01*
D02*
G37*
G36*
X0005943Y-0025299D02*
X0005939Y-0025327D01*
X0005936Y-0025370D01*
X0005928Y-0025673D01*
X0005948Y-0026329D01*
X0003901D01*
X0003906Y-0026316D01*
X0003910Y-0026287D01*
X0003913Y-0026245D01*
X0003920Y-0025942D01*
X0003901Y-0025286D01*
X0005948D01*
X0005943Y-0025299D01*
D02*
G37*
G36*
X0055059Y-0024378D02*
X0054993Y-0024451D01*
X0054932Y-0024535D01*
X0054875Y-0024629D01*
X0054822Y-0024733D01*
X0054774Y-0024848D01*
X0054730Y-0024974D01*
X0054690Y-0025110D01*
X0054623Y-0025413D01*
X0054597Y-0025580D01*
X0053150Y-0024133D01*
X0053317Y-0024106D01*
X0053620Y-0024040D01*
X0053756Y-0024000D01*
X0053882Y-0023956D01*
X0053997Y-0023908D01*
X0054101Y-0023855D01*
X0054195Y-0023798D01*
X0054279Y-0023737D01*
X0054352Y-0023671D01*
X0055059Y-0024378D01*
D02*
G37*
G36*
X0098166Y-0026941D02*
X0098156Y-0026846D01*
X0098125Y-0026761D01*
X0098075Y-0026686D01*
X0098004Y-0026621D01*
X0097913Y-0026566D01*
X0097802Y-0026521D01*
X0097670Y-0026486D01*
X0097518Y-0026461D01*
X0097346Y-0026446D01*
X0097154Y-0026441D01*
Y-0025441D01*
X0097346Y-0025436D01*
X0097518Y-0025421D01*
X0097670Y-0025396D01*
X0097802Y-0025361D01*
X0097913Y-0025316D01*
X0098004Y-0025261D01*
X0098075Y-0025196D01*
X0098125Y-0025121D01*
X0098156Y-0025036D01*
X0098166Y-0024941D01*
Y-0026941D01*
D02*
G37*
G36*
X0030895Y-0024251D02*
X0030942Y-0024303D01*
X0031021Y-0024349D01*
X0031133Y-0024389D01*
X0031275Y-0024423D01*
X0031450Y-0024450D01*
X0031656Y-0024472D01*
X0032163Y-0024497D01*
X0032464Y-0024500D01*
Y-0026500D01*
X0032163Y-0026501D01*
X0030895Y-0026587D01*
X0030879Y-0026607D01*
Y-0024192D01*
X0030895Y-0024251D01*
D02*
G37*
G36*
X0084500Y-0035000D02*
X0082567D01*
X0080861Y-0036718D01*
X0078739Y-0034597D01*
X0078916Y-0034430D01*
X0079074Y-0034300D01*
X0079213Y-0034207D01*
X0079334Y-0034152D01*
X0079436Y-0034135D01*
X0079500Y-0034150D01*
Y-0031500D01*
X0084500D01*
Y-0035000D01*
D02*
G37*
G36*
X0033988Y-0031346D02*
X0034027Y-0031399D01*
X0034093Y-0031446D01*
X0034186Y-0031487D01*
X0034217Y-0031496D01*
X0034262Y-0031480D01*
X0034329Y-0031448D01*
X0034383Y-0031413D01*
Y-0031537D01*
X0034451Y-0031550D01*
X0034624Y-0031572D01*
X0035048Y-0031597D01*
X0035300Y-0031600D01*
Y-0033600D01*
X0035048Y-0033603D01*
X0034451Y-0033650D01*
X0034383Y-0033663D01*
Y-0033787D01*
X0034329Y-0033752D01*
X0034262Y-0033720D01*
X0034217Y-0033704D01*
X0034186Y-0033713D01*
X0034093Y-0033754D01*
X0034027Y-0033801D01*
X0033988Y-0033854D01*
X0033974Y-0033914D01*
Y-0033645D01*
X0033742Y-0033617D01*
X0033601Y-0033608D01*
X0033282Y-0033600D01*
Y-0031600D01*
X0033448Y-0031598D01*
X0033870Y-0031570D01*
X0033974Y-0031555D01*
Y-0031286D01*
X0033988Y-0031346D01*
D02*
G37*
G36*
X0013207Y-0035507D02*
X0013058Y-0035658D01*
X0012555Y-0036228D01*
X0012537Y-0036268D01*
X0012537Y-0036292D01*
X0012555Y-0036300D01*
X0012422D01*
X0012297Y-0036419D01*
X0012100Y-0036614D01*
X0011785Y-0036300D01*
X0008644D01*
X0008845Y-0036278D01*
X0009068Y-0036215D01*
X0009316Y-0036109D01*
X0009587Y-0035960D01*
X0009881Y-0035769D01*
X0010199Y-0035536D01*
X0010906Y-0034942D01*
X0011135Y-0034723D01*
X0011233Y-0034620D01*
X0011239Y-0034625D01*
X0011708Y-0034178D01*
X0013207Y-0035507D01*
D02*
G37*
G36*
X0102950Y-0032172D02*
X0103008Y-0032207D01*
X0103105Y-0032239D01*
X0103240Y-0032265D01*
X0103413Y-0032288D01*
X0103817Y-0032317D01*
X0104092Y-0032301D01*
X0104112Y-0032292D01*
X0104112Y-0032326D01*
X0104860Y-0032340D01*
Y-0034340D01*
X0104493Y-0034342D01*
X0103105Y-0034442D01*
X0103008Y-0034473D01*
X0102950Y-0034508D01*
X0102931Y-0034548D01*
Y-0032133D01*
X0102950Y-0032172D01*
D02*
G37*
G36*
X0007234Y-0032857D02*
X0007892Y-0032865D01*
Y-0034665D01*
X0006092Y-0034737D01*
X0006061Y-0034757D01*
X0006032Y-0034817D01*
X0006007Y-0034917D01*
X0005985Y-0035057D01*
X0005966Y-0035237D01*
X0005931Y-0036017D01*
X0005928Y-0036386D01*
X0005966Y-0036822D01*
X0005989Y-0036949D01*
X0006018Y-0037065D01*
X0006051Y-0037171D01*
X0006090Y-0037266D01*
X0006134Y-0037351D01*
X0006184Y-0037425D01*
X0003665D01*
X0003714Y-0037351D01*
X0003759Y-0037266D01*
X0003797Y-0037171D01*
X0003831Y-0037065D01*
X0003860Y-0036949D01*
X0003883Y-0036822D01*
X0003914Y-0036537D01*
X0003922Y-0036378D01*
X0003922Y-0036350D01*
X0003817Y-0034817D01*
X0003788Y-0034757D01*
X0003756Y-0034737D01*
X0006092D01*
Y-0034669D01*
X0005434Y-0034665D01*
Y-0032865D01*
X0005776Y-0032859D01*
X0006092Y-0032833D01*
Y-0032794D01*
X0006111Y-0032808D01*
X0006165Y-0032820D01*
X0006200Y-0032824D01*
X0006352Y-0032811D01*
X0006586Y-0032769D01*
X0006784Y-0032715D01*
X0006946Y-0032649D01*
X0007072Y-0032571D01*
X0007162Y-0032481D01*
X0007216Y-0032378D01*
X0007234Y-0032264D01*
Y-0032857D01*
D02*
G37*
G36*
X0071807Y-0030855D02*
X0071661Y-0030761D01*
X0071479Y-0030729D01*
X0071261Y-0030758D01*
X0071007Y-0030848D01*
X0070716Y-0031000D01*
X0070389Y-0031214D01*
X0070025Y-0031489D01*
X0069384Y-0032053D01*
X0068792Y-0032735D01*
X0068681Y-0032900D01*
X0068606Y-0033040D01*
X0068567Y-0033154D01*
X0068563Y-0033243D01*
X0068595Y-0033306D01*
X0066822Y-0031533D01*
X0066885Y-0031565D01*
X0066974Y-0031561D01*
X0067088Y-0031522D01*
X0067228Y-0031447D01*
X0067394Y-0031337D01*
X0067585Y-0031190D01*
X0067937Y-0030885D01*
X0068667Y-0030021D01*
X0068877Y-0029717D01*
X0069049Y-0029429D01*
X0069182Y-0029159D01*
X0069278Y-0028907D01*
X0069335Y-0028671D01*
X0069354Y-0028452D01*
X0071807Y-0030855D01*
D02*
G37*
G36*
X0033988Y-0028346D02*
X0034027Y-0028399D01*
X0034093Y-0028446D01*
X0034186Y-0028487D01*
X0034217Y-0028496D01*
X0034262Y-0028480D01*
X0034329Y-0028448D01*
X0034383Y-0028413D01*
Y-0028537D01*
X0034451Y-0028550D01*
X0034624Y-0028572D01*
X0035048Y-0028597D01*
X0035300Y-0028600D01*
Y-0030600D01*
X0035048Y-0030603D01*
X0034451Y-0030650D01*
X0034383Y-0030663D01*
Y-0030787D01*
X0034329Y-0030752D01*
X0034262Y-0030720D01*
X0034217Y-0030704D01*
X0034186Y-0030713D01*
X0034093Y-0030754D01*
X0034027Y-0030801D01*
X0033988Y-0030854D01*
X0033974Y-0030914D01*
Y-0030645D01*
X0033742Y-0030617D01*
X0033601Y-0030608D01*
X0033282Y-0030600D01*
Y-0028600D01*
X0033448Y-0028598D01*
X0033870Y-0028570D01*
X0033974Y-0028555D01*
Y-0028286D01*
X0033988Y-0028346D01*
D02*
G37*
G36*
X0063984Y-0029384D02*
X0063671Y-0029712D01*
X0063144Y-0030362D01*
X0062930Y-0030684D01*
X0062748Y-0031004D01*
X0062600Y-0031321D01*
X0062485Y-0031636D01*
X0062402Y-0031949D01*
X0062353Y-0032260D01*
X0062337Y-0032568D01*
X0060394Y-0030232D01*
X0060269Y-0030206D01*
X0060213Y-0030127D01*
X0060225Y-0029996D01*
X0060305Y-0029813D01*
X0060453Y-0029578D01*
X0060669Y-0029290D01*
X0061306Y-0028558D01*
X0062216Y-0027616D01*
X0063984Y-0029384D01*
D02*
G37*
G36*
X0041229Y-0030278D02*
X0041164Y-0030351D01*
X0041102Y-0030435D01*
X0041045Y-0030529D01*
X0040992Y-0030633D01*
X0040944Y-0030748D01*
X0040900Y-0030874D01*
X0040860Y-0031010D01*
X0040793Y-0031313D01*
X0040767Y-0031480D01*
X0039320Y-0030033D01*
X0039487Y-0030007D01*
X0039790Y-0029940D01*
X0039926Y-0029900D01*
X0040052Y-0029856D01*
X0040167Y-0029808D01*
X0040271Y-0029755D01*
X0040365Y-0029698D01*
X0040449Y-0029636D01*
X0040522Y-0029571D01*
X0041229Y-0030278D01*
D02*
G37*
G36*
X0111207Y-0024279D02*
X0111226Y-0024368D01*
X0111259Y-0024466D01*
X0111305Y-0024573D01*
X0111365Y-0024689D01*
X0111437Y-0024813D01*
X0111621Y-0025090D01*
X0111859Y-0025403D01*
X0109813Y-0025461D01*
X0109925Y-0025299D01*
X0110189Y-0024867D01*
X0110253Y-0024740D01*
X0110347Y-0024513D01*
X0110377Y-0024412D01*
X0110394Y-0024321D01*
X0110400Y-0024237D01*
X0111200Y-0024199D01*
X0111207Y-0024279D01*
D02*
G37*
G36*
X0055732Y-0010083D02*
X0055619Y-0010002D01*
X0055393Y-0009867D01*
X0055281Y-0009812D01*
X0055168Y-0009765D01*
X0055055Y-0009727D01*
X0054964Y-0009703D01*
X0054871Y-0009719D01*
X0054739Y-0009752D01*
X0054631Y-0009793D01*
X0054547Y-0009841D01*
X0054487Y-0009897D01*
X0054451Y-0009960D01*
X0054439Y-0010031D01*
Y-0008088D01*
X0054451Y-0008159D01*
X0054487Y-0008222D01*
X0054547Y-0008277D01*
X0054631Y-0008326D01*
X0054739Y-0008367D01*
X0054871Y-0008400D01*
X0054964Y-0008416D01*
X0055055Y-0008392D01*
X0055168Y-0008354D01*
X0055281Y-0008307D01*
X0055393Y-0008252D01*
X0055506Y-0008189D01*
X0055619Y-0008117D01*
X0055732Y-0008036D01*
Y-0010083D01*
D02*
G37*
G36*
X0065691D02*
X0065578Y-0010002D01*
X0065353Y-0009867D01*
X0065240Y-0009812D01*
X0065127Y-0009765D01*
X0065014Y-0009727D01*
X0064939Y-0009708D01*
X0064871Y-0009719D01*
X0064739Y-0009752D01*
X0064631Y-0009793D01*
X0064547Y-0009841D01*
X0064487Y-0009897D01*
X0064451Y-0009960D01*
X0064439Y-0010031D01*
Y-0008088D01*
X0064451Y-0008159D01*
X0064487Y-0008222D01*
X0064547Y-0008277D01*
X0064631Y-0008326D01*
X0064739Y-0008367D01*
X0064871Y-0008400D01*
X0064939Y-0008411D01*
X0065014Y-0008392D01*
X0065127Y-0008354D01*
X0065240Y-0008307D01*
X0065353Y-0008252D01*
X0065466Y-0008189D01*
X0065578Y-0008117D01*
X0065691Y-0008036D01*
Y-0010083D01*
D02*
G37*
G36*
X0040722Y-0008117D02*
X0040947Y-0008252D01*
X0041060Y-0008307D01*
X0041173Y-0008354D01*
X0041286Y-0008392D01*
X0041399Y-0008421D01*
X0041451Y-0008431D01*
X0041515Y-0008426D01*
X0041671Y-0008400D01*
X0041803Y-0008367D01*
X0041911Y-0008326D01*
X0041995Y-0008277D01*
X0042055Y-0008222D01*
X0042091Y-0008159D01*
X0042103Y-0008088D01*
Y-0010031D01*
X0042091Y-0009960D01*
X0042055Y-0009897D01*
X0041995Y-0009841D01*
X0041911Y-0009793D01*
X0041803Y-0009752D01*
X0041671Y-0009719D01*
X0041515Y-0009693D01*
X0041456Y-0009687D01*
X0041399Y-0009697D01*
X0041286Y-0009727D01*
X0041173Y-0009765D01*
X0041060Y-0009812D01*
X0040947Y-0009867D01*
X0040834Y-0009930D01*
X0040722Y-0010002D01*
X0040609Y-0010083D01*
Y-0008036D01*
X0040722Y-0008117D01*
D02*
G37*
G36*
X0074085Y-0008945D02*
X0071696Y-0008957D01*
X0071846Y-0008940D01*
X0071979Y-0008892D01*
X0072098Y-0008812D01*
X0072200Y-0008701D01*
X0072287Y-0008558D01*
X0072357Y-0008383D01*
X0072413Y-0008177D01*
X0072452Y-0007940D01*
X0072476Y-0007671D01*
X0072483Y-0007370D01*
X0074058D01*
X0074085Y-0008945D01*
D02*
G37*
G36*
X0018901Y-0001292D02*
X0018901Y-0004634D01*
X0019678Y-0004935D01*
X0020141Y-0005027D01*
X0020367Y-0005046D01*
X0022372Y-0004930D01*
X0022522Y-0004891D01*
X0022612Y-0004848D01*
X0022641Y-0004798D01*
Y-0008316D01*
X0022612Y-0008266D01*
X0022522Y-0008223D01*
X0022372Y-0008184D01*
X0022162Y-0008150D01*
X0021892Y-0008122D01*
X0021399Y-0008099D01*
X0021310Y-0008120D01*
X0020954Y-0008308D01*
X0020512Y-0008621D01*
X0019983Y-0009060D01*
X0018901Y-0010091D01*
Y-0010128D01*
X0018523Y-0012029D01*
X0017781Y-0013821D01*
X0016703Y-0015433D01*
X0015333Y-0016804D01*
X0013721Y-0017881D01*
X0011929Y-0018623D01*
X0010028Y-0019001D01*
X0009058Y-0019001D01*
X0009058Y-0019001D01*
X0001170D01*
Y-0009282D01*
Y-0008495D01*
X0001477Y-0006951D01*
X0002079Y-0005497D01*
X0002954Y-0004188D01*
X0004067Y-0003076D01*
X0005375Y-0002201D01*
X0006829Y-0001599D01*
X0008373Y-0001292D01*
X0009160D01*
X0018901Y-0001292D01*
D02*
G37*
G36*
X0085632Y-0004195D02*
X0086200Y-0004034D01*
Y-0005834D01*
X0085939Y-0005839D01*
X0085632Y-0005865D01*
Y-0005906D01*
X0085614Y-0005892D01*
X0085560Y-0005880D01*
X0085517Y-0005875D01*
X0085498Y-0005876D01*
X0085318Y-0005909D01*
X0085167Y-0005951D01*
X0085042Y-0006003D01*
X0084945Y-0006064D01*
X0084876Y-0006134D01*
X0084834Y-0006213D01*
X0084820Y-0006302D01*
X0084823Y-0005847D01*
X0083832Y-0005834D01*
Y-0004034D01*
X0085632Y-0003963D01*
Y-0004195D01*
D02*
G37*
G36*
X0109712Y-0001599D02*
X0111166Y-0002201D01*
X0112475Y-0003076D01*
X0113588Y-0004188D01*
X0114462Y-0005497D01*
X0115065Y-0006951D01*
X0115372Y-0008495D01*
Y-0009282D01*
Y-0019001D01*
X0107483D01*
X0107483Y-0019001D01*
X0106514Y-0019001D01*
X0104612Y-0018623D01*
X0102821Y-0017881D01*
X0101209Y-0016804D01*
X0099838Y-0015433D01*
X0098761Y-0013821D01*
X0098019Y-0012029D01*
X0097671Y-0010279D01*
X0096030Y-0008621D01*
X0095588Y-0008308D01*
X0095232Y-0008120D01*
X0095195Y-0008111D01*
X0093929Y-0008184D01*
X0093779Y-0008223D01*
X0093689Y-0008266D01*
X0093659Y-0008316D01*
Y-0004798D01*
X0093689Y-0004848D01*
X0093779Y-0004891D01*
X0093929Y-0004930D01*
X0094139Y-0004964D01*
X0094409Y-0004992D01*
X0095579Y-0005047D01*
X0096101Y-0005052D01*
X0096401Y-0005027D01*
X0096864Y-0004935D01*
X0097428Y-0004783D01*
X0097641Y-0004710D01*
Y-0001292D01*
X0107382Y-0001292D01*
X0108169D01*
X0109712Y-0001599D01*
D02*
G37*
G36*
X0074440Y-0006097D02*
X0074360Y-0006226D01*
X0074290Y-0006357D01*
X0074228Y-0006490D01*
X0074176Y-0006625D01*
X0074134Y-0006762D01*
X0074101Y-0006902D01*
X0074077Y-0007044D01*
X0074063Y-0007187D01*
X0074058Y-0007333D01*
X0072483D01*
X0072479Y-0007187D01*
X0072465Y-0007044D01*
X0072441Y-0006902D01*
X0072408Y-0006762D01*
X0072365Y-0006625D01*
X0072314Y-0006490D01*
X0072252Y-0006357D01*
X0072181Y-0006226D01*
X0072101Y-0006097D01*
X0072012Y-0005970D01*
X0074530D01*
X0074440Y-0006097D01*
D02*
G37*
G36*
X0079316Y-0003833D02*
X0079421Y-0003895D01*
X0079534Y-0003948D01*
X0079653Y-0003995D01*
X0079779Y-0004035D01*
X0079911Y-0004067D01*
X0080050Y-0004092D01*
X0080196Y-0004110D01*
X0080508Y-0004124D01*
Y-0005924D01*
X0080349Y-0005928D01*
X0080050Y-0005957D01*
X0079911Y-0005982D01*
X0079779Y-0006014D01*
X0079653Y-0006054D01*
X0079534Y-0006101D01*
X0079421Y-0006154D01*
X0079316Y-0006215D01*
X0079216Y-0006284D01*
Y-0003765D01*
X0079316Y-0003833D01*
D02*
G37*
G36*
X0054399Y-0013704D02*
X0054378Y-0013753D01*
X0054374Y-0013812D01*
X0054389Y-0013881D01*
X0054422Y-0013960D01*
X0054472Y-0014048D01*
X0054541Y-0014146D01*
X0054628Y-0014254D01*
X0054856Y-0014499D01*
X0054301Y-0014779D01*
X0054186Y-0014668D01*
X0053977Y-0014493D01*
X0053883Y-0014428D01*
X0053796Y-0014379D01*
X0053716Y-0014345D01*
X0053643Y-0014326D01*
X0053577Y-0014322D01*
X0053518Y-0014334D01*
X0053466Y-0014361D01*
X0054439Y-0013664D01*
X0054399Y-0013704D01*
D02*
G37*
G36*
X0063076Y-0014361D02*
X0063024Y-0014334D01*
X0062964Y-0014322D01*
X0062898Y-0014326D01*
X0062825Y-0014345D01*
X0062745Y-0014379D01*
X0062658Y-0014428D01*
X0062564Y-0014493D01*
X0062463Y-0014573D01*
X0062356Y-0014668D01*
X0062241Y-0014779D01*
X0061685Y-0014499D01*
X0061808Y-0014372D01*
X0062000Y-0014147D01*
X0062069Y-0014049D01*
X0062120Y-0013960D01*
X0062152Y-0013882D01*
X0062167Y-0013813D01*
X0062164Y-0013753D01*
X0062142Y-0013704D01*
X0062103Y-0013664D01*
X0063076Y-0014361D01*
D02*
G37*
G36*
X0065898Y-0020538D02*
X0065720Y-0020556D01*
X0065400Y-0020606D01*
X0065258Y-0020639D01*
X0065128Y-0020676D01*
X0065009Y-0020719D01*
X0064903Y-0020766D01*
X0064808Y-0020819D01*
X0064725Y-0020876D01*
X0064655Y-0020938D01*
X0064020Y-0020159D01*
X0064090Y-0020083D01*
X0064156Y-0019998D01*
X0064217Y-0019905D01*
X0064275Y-0019803D01*
X0064329Y-0019692D01*
X0064379Y-0019573D01*
X0064467Y-0019308D01*
X0064505Y-0019163D01*
X0064539Y-0019009D01*
X0065898Y-0020538D01*
D02*
G37*
G36*
X0044399Y-0013704D02*
X0044378Y-0013753D01*
X0044374Y-0013812D01*
X0044389Y-0013881D01*
X0044422Y-0013960D01*
X0044472Y-0014048D01*
X0044541Y-0014146D01*
X0044628Y-0014254D01*
X0044856Y-0014499D01*
X0044301Y-0014779D01*
X0044186Y-0014668D01*
X0043977Y-0014493D01*
X0043883Y-0014428D01*
X0043796Y-0014379D01*
X0043716Y-0014345D01*
X0043643Y-0014326D01*
X0043577Y-0014322D01*
X0043518Y-0014334D01*
X0043466Y-0014361D01*
X0044439Y-0013664D01*
X0044399Y-0013704D01*
D02*
G37*
G36*
X0043831Y-0013354D02*
X0043841Y-0013389D01*
X0043854Y-0013424D01*
X0043870Y-0013460D01*
X0043890Y-0013496D01*
X0043913Y-0013532D01*
X0043939Y-0013568D01*
X0043968Y-0013605D01*
X0044036Y-0013679D01*
X0043619Y-0014096D01*
X0043581Y-0014061D01*
X0043508Y-0013999D01*
X0043471Y-0013973D01*
X0043435Y-0013950D01*
X0043400Y-0013931D01*
X0043364Y-0013914D01*
X0043329Y-0013901D01*
X0043294Y-0013892D01*
X0043259Y-0013885D01*
X0043825Y-0013320D01*
X0043831Y-0013354D01*
D02*
G37*
G36*
X0087806Y-0010236D02*
X0087968D01*
X0087936Y-0010250D01*
X0087908Y-0010291D01*
X0087883Y-0010359D01*
X0087861Y-0010455D01*
X0087842Y-0010578D01*
X0087823Y-0010814D01*
X0087823Y-0010834D01*
X0087821D01*
X0087815Y-0010905D01*
X0087800Y-0011602D01*
X0085800D01*
X0085799Y-0011342D01*
X0085740Y-0010455D01*
X0085718Y-0010359D01*
X0085693Y-0010291D01*
X0085664Y-0010250D01*
X0085632Y-0010236D01*
X0085799D01*
X0085800Y-0010036D01*
X0087800Y-0010036D01*
X0087806Y-0010236D01*
D02*
G37*
G36*
X0081170Y-0009857D02*
X0081202Y-0009866D01*
X0081255Y-0009874D01*
X0081330Y-0009881D01*
X0081841Y-0009898D01*
X0082225Y-0009900D01*
Y-0010234D01*
X0082567Y-0010381D01*
X0082577Y-0010345D01*
X0082598Y-0010237D01*
X0082613Y-0010119D01*
X0082622Y-0009991D01*
X0082625Y-0009854D01*
X0084625D01*
X0084306Y-0011310D01*
X0082728Y-0010904D01*
X0082225Y-0011843D01*
Y-0011900D01*
X0082193Y-0011902D01*
X0081962Y-0012333D01*
X0081917Y-0012251D01*
X0081863Y-0012177D01*
X0081799Y-0012112D01*
X0081725Y-0012056D01*
X0081642Y-0012008D01*
X0081549Y-0011969D01*
X0081447Y-0011939D01*
X0081446Y-0011939D01*
X0081159Y-0011953D01*
Y-0011903D01*
X0081081Y-0011900D01*
X0081159Y-0011474D01*
Y-0009847D01*
X0081170Y-0009857D01*
D02*
G37*
G36*
X0053831Y-0013354D02*
X0053841Y-0013389D01*
X0053854Y-0013424D01*
X0053870Y-0013460D01*
X0053890Y-0013496D01*
X0053913Y-0013532D01*
X0053939Y-0013568D01*
X0053968Y-0013605D01*
X0054036Y-0013679D01*
X0053619Y-0014096D01*
X0053581Y-0014061D01*
X0053508Y-0013999D01*
X0053471Y-0013973D01*
X0053435Y-0013950D01*
X0053400Y-0013931D01*
X0053364Y-0013914D01*
X0053329Y-0013901D01*
X0053294Y-0013892D01*
X0053259Y-0013885D01*
X0053825Y-0013320D01*
X0053831Y-0013354D01*
D02*
G37*
G36*
X0063282Y-0013885D02*
X0063248Y-0013892D01*
X0063213Y-0013901D01*
X0063178Y-0013914D01*
X0063142Y-0013931D01*
X0063106Y-0013950D01*
X0063070Y-0013973D01*
X0063034Y-0013999D01*
X0062997Y-0014028D01*
X0062923Y-0014096D01*
X0062506Y-0013679D01*
X0062541Y-0013642D01*
X0062603Y-0013568D01*
X0062629Y-0013532D01*
X0062652Y-0013496D01*
X0062671Y-0013460D01*
X0062688Y-0013424D01*
X0062701Y-0013389D01*
X0062710Y-0013354D01*
X0062717Y-0013320D01*
X0063282Y-0013885D01*
D02*
G37*
G36*
X0108186Y-0051231D02*
X0108216Y-0051615D01*
X0108242Y-0051771D01*
X0108275Y-0051903D01*
X0108316Y-0052011D01*
X0108364Y-0052095D01*
X0108420Y-0052155D01*
X0108483Y-0052191D01*
X0108554Y-0052203D01*
X0106611D01*
X0106682Y-0052191D01*
X0106745Y-0052155D01*
X0106800Y-0052095D01*
X0106849Y-0052011D01*
X0106889Y-0051903D01*
X0106923Y-0051771D01*
X0106949Y-0051615D01*
X0106967Y-0051435D01*
X0106982Y-0051003D01*
X0108182D01*
X0108186Y-0051231D01*
D02*
G37*
G36*
X0064363Y-0054168D02*
X0064343Y-0054136D01*
X0064283Y-0054108D01*
X0064183Y-0054082D01*
X0064043Y-0054061D01*
X0063863Y-0054042D01*
X0063083Y-0054007D01*
X0062895Y-0054005D01*
X0062268Y-0054023D01*
Y-0051977D01*
X0062282Y-0051981D01*
X0062310Y-0051985D01*
X0062353Y-0051989D01*
X0062747Y-0051998D01*
X0064283Y-0051892D01*
X0064343Y-0051864D01*
X0064363Y-0051832D01*
Y-0054168D01*
D02*
G37*
G36*
X0046261Y-0043547D02*
X0046321Y-0044385D01*
X0046467D01*
X0046427Y-0044405D01*
X0046392Y-0044465D01*
X0046361Y-0044565D01*
X0046341Y-0044668D01*
X0046361Y-0044945D01*
X0046392Y-0045042D01*
X0046427Y-0045101D01*
X0046467Y-0045120D01*
X0046295D01*
X0046278Y-0045365D01*
X0046260Y-0046359D01*
X0046261Y-0046650D01*
X0046322Y-0047535D01*
X0046467D01*
X0046427Y-0047555D01*
X0046392Y-0047615D01*
X0046361Y-0047715D01*
X0046342Y-0047814D01*
X0046361Y-0048090D01*
X0046392Y-0048190D01*
X0046427Y-0048250D01*
X0046467Y-0048270D01*
X0046295D01*
X0046278Y-0048515D01*
X0046260Y-0049509D01*
X0046261Y-0049799D01*
X0046322Y-0050685D01*
X0046467D01*
X0046427Y-0050704D01*
X0046392Y-0050762D01*
X0046361Y-0050859D01*
X0046341Y-0050958D01*
X0046361Y-0051239D01*
X0046392Y-0051339D01*
X0046427Y-0051399D01*
X0046466Y-0051419D01*
X0046293D01*
X0046278Y-0051636D01*
X0046259Y-0052627D01*
X0044259D01*
X0044257Y-0052258D01*
X0044197Y-0051419D01*
X0044052D01*
X0044091Y-0051399D01*
X0044126Y-0051339D01*
X0044157Y-0051239D01*
X0044177Y-0051137D01*
X0044157Y-0050859D01*
X0044126Y-0050762D01*
X0044091Y-0050704D01*
X0044052Y-0050685D01*
X0044223D01*
X0044240Y-0050439D01*
X0044259Y-0049446D01*
X0044257Y-0049155D01*
X0044196Y-0048270D01*
X0044052D01*
X0044091Y-0048250D01*
X0044126Y-0048190D01*
X0044157Y-0048090D01*
X0044177Y-0047991D01*
X0044157Y-0047715D01*
X0044126Y-0047615D01*
X0044091Y-0047555D01*
X0044052Y-0047535D01*
X0044223D01*
X0044240Y-0047290D01*
X0044259Y-0046296D01*
X0044257Y-0046005D01*
X0044196Y-0045120D01*
X0044052D01*
X0044091Y-0045101D01*
X0044126Y-0045042D01*
X0044157Y-0044945D01*
X0044177Y-0044847D01*
X0044157Y-0044565D01*
X0044126Y-0044465D01*
X0044091Y-0044405D01*
X0044052Y-0044385D01*
X0044225D01*
X0044240Y-0044168D01*
X0044259Y-0043178D01*
X0046259D01*
X0046261Y-0043547D01*
D02*
G37*
G36*
X0014679Y-0052341D02*
X0014567Y-0052457D01*
X0014389Y-0052667D01*
X0014323Y-0052762D01*
X0014272Y-0052849D01*
X0014237Y-0052929D01*
X0014217Y-0053001D01*
X0014212Y-0053067D01*
X0014223Y-0053125D01*
X0014249Y-0053176D01*
X0013564Y-0052215D01*
X0013603Y-0052253D01*
X0013651Y-0052273D01*
X0013710Y-0052276D01*
X0013779Y-0052260D01*
X0013857Y-0052226D01*
X0013946Y-0052174D01*
X0014044Y-0052104D01*
X0014152Y-0052016D01*
X0014399Y-0051785D01*
X0014679Y-0052341D01*
D02*
G37*
G36*
X0044052Y-0053834D02*
X0044038Y-0053795D01*
X0043999Y-0053760D01*
X0043932Y-0053728D01*
X0043840Y-0053701D01*
X0043720Y-0053679D01*
X0043575Y-0053660D01*
X0043287Y-0053641D01*
X0042968Y-0053650D01*
Y-0053631D01*
X0042727Y-0053627D01*
Y-0051627D01*
X0042968Y-0051625D01*
Y-0051604D01*
X0042982Y-0051608D01*
X0043010Y-0051612D01*
X0043053Y-0051615D01*
X0043100Y-0051617D01*
X0043720Y-0051575D01*
X0043840Y-0051552D01*
X0043932Y-0051525D01*
X0043999Y-0051494D01*
X0044038Y-0051459D01*
X0044052Y-0051419D01*
Y-0053834D01*
D02*
G37*
G36*
X0085955Y-0050475D02*
X0085818Y-0050376D01*
X0085557Y-0050208D01*
X0085432Y-0050140D01*
X0085312Y-0050083D01*
X0085197Y-0050036D01*
X0085086Y-0049999D01*
X0084979Y-0049973D01*
X0084876Y-0049957D01*
X0084778Y-0049952D01*
Y-0048952D01*
X0084876Y-0048947D01*
X0084979Y-0048931D01*
X0085086Y-0048905D01*
X0085197Y-0048868D01*
X0085312Y-0048821D01*
X0085432Y-0048764D01*
X0085557Y-0048696D01*
X0085818Y-0048528D01*
X0085955Y-0048429D01*
Y-0050475D01*
D02*
G37*
G36*
X0050010Y-0048391D02*
X0050046Y-0048493D01*
X0050107Y-0048583D01*
X0050155Y-0048628D01*
X0050251Y-0048567D01*
X0050366Y-0048485D01*
X0050482Y-0048393D01*
X0050502Y-0048799D01*
X0050592Y-0048823D01*
X0050774Y-0048853D01*
X0050980Y-0048871D01*
X0051210Y-0048877D01*
Y-0050077D01*
X0050980Y-0050083D01*
X0050774Y-0050101D01*
X0050592Y-0050131D01*
X0050568Y-0050138D01*
X0050582Y-0050437D01*
X0050476Y-0050368D01*
X0050368Y-0050307D01*
X0050259Y-0050253D01*
X0050258Y-0050253D01*
X0050192Y-0050293D01*
X0050107Y-0050371D01*
X0050046Y-0050461D01*
X0050010Y-0050563D01*
X0049998Y-0050677D01*
Y-0050156D01*
X0049924Y-0050135D01*
X0049810Y-0050109D01*
X0049695Y-0050091D01*
X0049579Y-0050081D01*
X0049461Y-0050077D01*
X0049354Y-0048877D01*
X0049464Y-0048872D01*
X0049574Y-0048858D01*
X0049685Y-0048834D01*
X0049797Y-0048800D01*
X0049909Y-0048756D01*
X0049998Y-0048714D01*
Y-0048277D01*
X0050010Y-0048391D01*
D02*
G37*
G36*
X0018834Y-0051293D02*
X0018805Y-0051273D01*
X0018774Y-0051255D01*
X0018740Y-0051239D01*
X0018703Y-0051226D01*
X0018664Y-0051214D01*
X0018622Y-0051205D01*
X0018578Y-0051198D01*
X0018532Y-0051192D01*
X0018431Y-0051188D01*
Y-0050598D01*
X0018483Y-0050597D01*
X0018578Y-0050588D01*
X0018622Y-0050581D01*
X0018664Y-0050572D01*
X0018703Y-0050560D01*
X0018740Y-0050546D01*
X0018774Y-0050531D01*
X0018805Y-0050513D01*
X0018834Y-0050493D01*
Y-0051293D01*
D02*
G37*
G36*
X0059436Y-0048464D02*
X0059471Y-0048488D01*
X0059529Y-0048509D01*
X0059610Y-0048528D01*
X0059714Y-0048544D01*
X0059991Y-0048567D01*
X0060580Y-0048579D01*
Y-0050580D01*
X0059943Y-0050573D01*
X0059926Y-0050734D01*
X0059887Y-0050705D01*
X0059836Y-0050678D01*
X0059775Y-0050655D01*
X0059701Y-0050635D01*
X0059616Y-0050618D01*
X0059519Y-0050604D01*
X0059292Y-0050586D01*
X0059018Y-0050580D01*
X0059429Y-0049273D01*
X0059425Y-0048437D01*
X0059436Y-0048464D01*
D02*
G37*
G36*
X0088085Y-0054783D02*
X0088112Y-0054787D01*
X0088155Y-0054790D01*
X0088720Y-0054800D01*
X0088866Y-0054800D01*
Y-0056800D01*
X0088072Y-0056821D01*
Y-0054779D01*
X0088085Y-0054783D01*
D02*
G37*
G36*
X0009860Y-0054551D02*
X0009797Y-0054587D01*
X0009741Y-0054647D01*
X0009693Y-0054731D01*
X0009652Y-0054839D01*
X0009619Y-0054971D01*
X0009593Y-0055127D01*
X0009574Y-0055307D01*
X0009559Y-0055739D01*
X0008359D01*
X0008356Y-0055511D01*
X0008326Y-0055127D01*
X0008300Y-0054971D01*
X0008266Y-0054839D01*
X0008226Y-0054731D01*
X0008177Y-0054647D01*
X0008122Y-0054587D01*
X0008059Y-0054551D01*
X0007988Y-0054539D01*
X0009931D01*
X0009860Y-0054551D01*
D02*
G37*
G36*
X0009563Y-0056160D02*
X0009593Y-0056544D01*
X0009619Y-0056700D01*
X0009652Y-0056832D01*
X0009693Y-0056940D01*
X0009741Y-0057024D01*
X0009797Y-0057084D01*
X0009860Y-0057120D01*
X0009931Y-0057132D01*
X0007988D01*
X0008059Y-0057120D01*
X0008122Y-0057084D01*
X0008177Y-0057024D01*
X0008226Y-0056940D01*
X0008266Y-0056832D01*
X0008300Y-0056700D01*
X0008326Y-0056544D01*
X0008344Y-0056364D01*
X0008359Y-0055932D01*
X0009559D01*
X0009563Y-0056160D01*
D02*
G37*
G36*
X0050222Y-0054660D02*
X0050264Y-0054696D01*
X0050335Y-0054727D01*
X0050435Y-0054754D01*
X0050563Y-0054777D01*
X0050719Y-0054795D01*
X0051117Y-0054820D01*
X0051628Y-0054828D01*
Y-0056828D01*
X0051358Y-0056830D01*
X0050898Y-0056859D01*
X0050896Y-0056896D01*
X0050873Y-0056883D01*
X0050836Y-0056871D01*
X0050804Y-0056865D01*
X0050563Y-0056880D01*
X0050435Y-0056903D01*
X0050335Y-0056930D01*
X0050264Y-0056961D01*
X0050222Y-0056996D01*
X0050208Y-0057036D01*
Y-0056832D01*
X0050052Y-0056828D01*
X0050208Y-0055112D01*
Y-0054621D01*
X0050222Y-0054660D01*
D02*
G37*
G36*
X0103800Y-0054434D02*
X0103802Y-0054539D01*
X0104223D01*
X0104142Y-0054549D01*
X0104071Y-0054579D01*
X0104007Y-0054629D01*
X0103952Y-0054699D01*
X0103906Y-0054789D01*
X0103868Y-0054899D01*
X0103843Y-0055006D01*
X0103846Y-0055022D01*
X0103889Y-0055229D01*
X0103916Y-0055326D01*
X0103982Y-0055510D01*
X0103802Y-0055463D01*
X0103800Y-0055539D01*
X0102800D01*
X0102795Y-0055349D01*
X0102782Y-0055201D01*
X0102001Y-0055001D01*
X0102153Y-0054875D01*
X0102409Y-0054638D01*
X0102468Y-0054575D01*
X0102395Y-0054549D01*
X0102300Y-0054539D01*
X0102501D01*
X0102512Y-0054526D01*
X0102600Y-0054419D01*
X0102672Y-0054317D01*
X0102728Y-0054219D01*
X0102768Y-0054126D01*
X0102792Y-0054037D01*
X0102800Y-0053953D01*
X0103800Y-0054434D01*
D02*
G37*
G36*
X0052715Y-0051662D02*
X0052826Y-0051730D01*
X0052937Y-0051789D01*
X0053023Y-0051828D01*
X0053055Y-0051811D01*
X0053115Y-0051758D01*
X0053151Y-0051698D01*
X0053163Y-0051632D01*
X0053165Y-0051885D01*
X0053275Y-0051919D01*
X0053388Y-0051947D01*
X0053502Y-0051967D01*
X0053617Y-0051979D01*
X0053732Y-0051983D01*
X0053778Y-0053183D01*
X0053667Y-0053187D01*
X0053555Y-0053201D01*
X0053443Y-0053223D01*
X0053331Y-0053255D01*
X0053218Y-0053295D01*
X0053173Y-0053315D01*
X0053175Y-0053783D01*
X0053163Y-0053669D01*
X0053126Y-0053567D01*
X0053065Y-0053477D01*
X0052987Y-0053406D01*
X0052877Y-0053471D01*
X0052763Y-0053548D01*
X0052649Y-0053633D01*
X0052640Y-0053253D01*
X0052580Y-0053237D01*
X0052399Y-0053207D01*
X0052193Y-0053189D01*
X0051963Y-0053183D01*
Y-0051983D01*
X0052191Y-0051979D01*
X0052575Y-0051951D01*
X0052612Y-0051945D01*
X0052604Y-0051587D01*
X0052715Y-0051662D01*
D02*
G37*
G36*
X0050010Y-0051541D02*
X0050046Y-0051643D01*
X0050107Y-0051733D01*
X0050192Y-0051811D01*
X0050301Y-0051877D01*
X0050434Y-0051931D01*
X0050469Y-0051940D01*
X0050526Y-0051921D01*
X0050639Y-0051874D01*
X0050752Y-0051819D01*
X0050864Y-0051756D01*
X0050977Y-0051684D01*
X0051090Y-0051604D01*
Y-0052024D01*
X0051210Y-0052027D01*
Y-0053227D01*
X0051090Y-0053230D01*
Y-0053650D01*
X0050977Y-0053570D01*
X0050752Y-0053434D01*
X0050639Y-0053379D01*
X0050526Y-0053333D01*
X0050469Y-0053313D01*
X0050434Y-0053323D01*
X0050301Y-0053377D01*
X0050192Y-0053443D01*
X0050107Y-0053521D01*
X0050046Y-0053611D01*
X0050010Y-0053713D01*
X0049998Y-0053827D01*
Y-0053228D01*
X0049960Y-0053227D01*
Y-0052027D01*
X0049998Y-0052025D01*
Y-0051427D01*
X0050010Y-0051541D01*
D02*
G37*
G36*
X0085936Y-0053972D02*
X0085762Y-0053994D01*
X0085448Y-0054051D01*
X0085308Y-0054087D01*
X0085180Y-0054127D01*
X0085063Y-0054172D01*
X0084957Y-0054221D01*
X0084863Y-0054276D01*
X0084780Y-0054335D01*
X0084708Y-0054399D01*
X0084044Y-0053649D01*
X0084112Y-0053574D01*
X0084176Y-0053490D01*
X0084235Y-0053396D01*
X0084291Y-0053293D01*
X0084343Y-0053180D01*
X0084391Y-0053058D01*
X0084474Y-0052786D01*
X0084509Y-0052636D01*
X0084540Y-0052476D01*
X0085936Y-0053972D01*
D02*
G37*
G36*
X0059457Y-0051683D02*
X0059517Y-0051728D01*
X0059617Y-0051769D01*
X0059757Y-0051803D01*
X0059937Y-0051833D01*
X0060157Y-0051857D01*
X0061057Y-0051897D01*
X0061437Y-0051900D01*
Y-0053900D01*
X0060685Y-0053926D01*
X0060682Y-0053984D01*
X0060656Y-0053968D01*
X0060616Y-0053954D01*
X0060562Y-0053941D01*
X0060505Y-0053932D01*
X0059437Y-0053968D01*
Y-0051632D01*
X0059457Y-0051683D01*
D02*
G37*
G36*
X0108525Y-0047881D02*
X0108389Y-0048107D01*
X0108335Y-0048219D01*
X0108288Y-0048333D01*
X0108250Y-0048445D01*
X0108220Y-0048559D01*
X0108199Y-0048671D01*
X0108186Y-0048785D01*
X0108182Y-0048898D01*
X0106982D01*
X0106978Y-0048785D01*
X0106965Y-0048671D01*
X0106944Y-0048559D01*
X0106914Y-0048445D01*
X0106876Y-0048333D01*
X0106830Y-0048219D01*
X0106775Y-0048107D01*
X0106711Y-0047994D01*
X0106640Y-0047881D01*
X0106559Y-0047768D01*
X0108605D01*
X0108525Y-0047881D01*
D02*
G37*
G36*
X0005944Y-0042161D02*
X0006029Y-0042205D01*
X0006125Y-0042244D01*
X0006230Y-0042278D01*
X0006347Y-0042306D01*
X0006474Y-0042329D01*
X0006759Y-0042360D01*
X0006917Y-0042368D01*
X0007086Y-0042371D01*
Y-0044371D01*
X0006917Y-0044374D01*
X0006474Y-0044412D01*
X0006347Y-0044436D01*
X0006230Y-0044464D01*
X0006125Y-0044498D01*
X0006029Y-0044537D01*
X0005944Y-0044581D01*
X0005870Y-0044630D01*
Y-0042112D01*
X0005944Y-0042161D01*
D02*
G37*
G36*
X0060310Y-0042318D02*
X0059801Y-0044299D01*
X0059748Y-0044242D01*
X0059686Y-0044191D01*
X0059615Y-0044146D01*
X0059535Y-0044108D01*
X0059445Y-0044075D01*
X0059345Y-0044048D01*
X0059237Y-0044027D01*
X0059119Y-0044012D01*
X0058991Y-0044003D01*
X0058855Y-0044000D01*
X0058855Y-0042000D01*
X0060310Y-0042318D01*
D02*
G37*
G36*
X0064363Y-0047868D02*
X0064343Y-0047836D01*
X0064283Y-0047808D01*
X0064183Y-0047782D01*
X0064043Y-0047760D01*
X0063863Y-0047742D01*
X0063260Y-0047715D01*
X0062968Y-0047723D01*
Y-0047706D01*
X0062363Y-0047700D01*
Y-0045700D01*
X0062743Y-0045698D01*
X0062968Y-0045683D01*
Y-0045677D01*
X0062982Y-0045681D01*
X0062985Y-0045682D01*
X0064283Y-0045592D01*
X0064343Y-0045564D01*
X0064363Y-0045532D01*
Y-0047868D01*
D02*
G37*
G36*
X0072407Y-0038348D02*
X0074083D01*
X0074067Y-0038368D01*
X0074053Y-0038431D01*
X0074041Y-0038535D01*
X0074021Y-0038868D01*
X0074000Y-0040431D01*
X0073552D01*
X0076065Y-0045000D01*
X0070403D01*
Y-0044359D01*
X0068694Y-0042332D01*
X0069223Y-0041800D01*
X0069220Y-0041797D01*
X0069346Y-0041662D01*
X0069463Y-0041520D01*
X0069569Y-0041372D01*
X0069664Y-0041216D01*
X0069750Y-0041055D01*
X0069824Y-0040887D01*
X0069889Y-0040712D01*
X0069943Y-0040531D01*
X0069987Y-0040343D01*
X0069995Y-0040297D01*
X0069917Y-0038348D01*
X0071007D01*
X0071742Y-0037140D01*
X0072407Y-0038348D01*
D02*
G37*
G36*
X0053163Y-0042373D02*
X0053198Y-0042378D01*
X0053300Y-0042383D01*
X0053236Y-0043583D01*
X0053163Y-0043585D01*
Y-0044168D01*
X0053151Y-0044057D01*
X0053115Y-0043957D01*
X0053055Y-0043870D01*
X0052971Y-0043793D01*
X0052863Y-0043729D01*
X0052731Y-0043676D01*
X0052685Y-0043664D01*
X0052659Y-0043672D01*
X0052548Y-0043711D01*
X0052438Y-0043757D01*
X0052329Y-0043811D01*
X0052222Y-0043871D01*
X0052115Y-0043939D01*
X0052135Y-0043587D01*
X0051963Y-0043583D01*
Y-0042383D01*
X0052191Y-0042377D01*
X0052201Y-0042376D01*
X0052228Y-0041902D01*
X0052340Y-0041993D01*
X0052562Y-0042147D01*
X0052671Y-0042210D01*
X0052779Y-0042263D01*
X0052797Y-0042270D01*
X0052863Y-0042245D01*
X0052971Y-0042184D01*
X0053055Y-0042113D01*
X0053115Y-0042030D01*
X0053151Y-0041936D01*
X0053163Y-0041832D01*
Y-0042373D01*
D02*
G37*
G36*
X0025277Y-0033981D02*
X0025234Y-0034101D01*
X0025197Y-0034301D01*
X0025164Y-0034581D01*
X0025114Y-0035381D01*
X0025074Y-0037941D01*
X0021074D01*
X0021071Y-0037181D01*
X0020871Y-0033981D01*
X0020823Y-0033941D01*
X0025325D01*
X0025277Y-0033981D01*
D02*
G37*
G36*
X0050010Y-0042092D02*
X0050046Y-0042194D01*
X0050107Y-0042284D01*
X0050122Y-0042298D01*
X0050142Y-0042285D01*
X0050256Y-0042195D01*
X0050372Y-0042093D01*
X0050489Y-0041980D01*
X0050569Y-0042518D01*
X0050592Y-0042524D01*
X0050774Y-0042554D01*
X0050980Y-0042572D01*
X0051210Y-0042578D01*
Y-0043778D01*
X0050980Y-0043784D01*
X0050774Y-0043802D01*
X0050761Y-0043804D01*
X0050791Y-0044003D01*
X0050705Y-0043960D01*
X0050615Y-0043922D01*
X0050520Y-0043888D01*
X0050454Y-0043869D01*
X0050434Y-0043874D01*
X0050301Y-0043928D01*
X0050192Y-0043994D01*
X0050107Y-0044072D01*
X0050046Y-0044162D01*
X0050010Y-0044264D01*
X0049998Y-0044378D01*
Y-0043789D01*
X0049974Y-0043787D01*
X0049723Y-0043778D01*
X0049388Y-0042578D01*
X0049491Y-0042572D01*
X0049596Y-0042554D01*
X0049702Y-0042524D01*
X0049810Y-0042482D01*
X0049919Y-0042428D01*
X0049998Y-0042381D01*
Y-0041978D01*
X0050010Y-0042092D01*
D02*
G37*
G36*
X0064363Y-0044668D02*
X0064343Y-0044636D01*
X0064283Y-0044608D01*
X0064183Y-0044582D01*
X0064043Y-0044561D01*
X0063863Y-0044542D01*
X0063083Y-0044507D01*
X0062365Y-0044500D01*
X0061568Y-0044523D01*
Y-0042477D01*
X0061582Y-0042481D01*
X0061610Y-0042485D01*
X0061653Y-0042489D01*
X0062089Y-0042499D01*
X0062365Y-0042500D01*
X0062743Y-0042498D01*
X0064283Y-0042392D01*
X0064343Y-0042364D01*
X0064363Y-0042332D01*
Y-0044668D01*
D02*
G37*
G36*
X0008735Y-0042820D02*
X0009389Y-0043398D01*
X0009419Y-0043407D01*
X0009433Y-0043398D01*
X0008657Y-0045692D01*
X0008648Y-0045660D01*
X0008609Y-0045601D01*
X0008541Y-0045515D01*
X0008315Y-0045260D01*
X0007230Y-0044144D01*
X0008578Y-0042664D01*
X0008735Y-0042820D01*
D02*
G37*
G36*
X0061547Y-0045600D02*
X0061326Y-0047634D01*
X0061287Y-0047605D01*
X0061236Y-0047578D01*
X0061174Y-0047555D01*
X0061101Y-0047535D01*
X0061016Y-0047518D01*
X0060919Y-0047504D01*
X0060692Y-0047486D01*
X0060418Y-0047480D01*
X0060172Y-0045480D01*
X0061547Y-0045600D01*
D02*
G37*
G36*
X0053163Y-0047368D02*
X0053151Y-0047257D01*
X0053115Y-0047157D01*
X0053055Y-0047069D01*
X0052971Y-0046993D01*
X0052863Y-0046929D01*
X0052731Y-0046876D01*
X0052575Y-0046835D01*
X0052395Y-0046806D01*
X0052191Y-0046788D01*
X0051963Y-0046783D01*
Y-0045583D01*
X0052191Y-0045577D01*
X0052395Y-0045561D01*
X0052575Y-0045533D01*
X0052731Y-0045495D01*
X0052863Y-0045445D01*
X0052971Y-0045384D01*
X0053055Y-0045313D01*
X0053115Y-0045230D01*
X0053151Y-0045136D01*
X0053163Y-0045032D01*
Y-0047368D01*
D02*
G37*
G36*
X0064363Y-0050968D02*
X0064343Y-0050936D01*
X0064283Y-0050908D01*
X0064183Y-0050882D01*
X0064043Y-0050861D01*
X0063863Y-0050842D01*
X0063083Y-0050807D01*
X0062365Y-0050800D01*
X0061568Y-0050823D01*
Y-0048777D01*
X0061582Y-0048781D01*
X0061610Y-0048785D01*
X0061653Y-0048789D01*
X0062089Y-0048799D01*
X0062365Y-0048800D01*
X0062743Y-0048798D01*
X0064283Y-0048692D01*
X0064343Y-0048664D01*
X0064363Y-0048632D01*
Y-0050968D01*
D02*
G37*
G36*
X0053163Y-0048781D02*
X0053201Y-0048783D01*
X0053195Y-0049983D01*
X0053163Y-0049984D01*
Y-0050568D01*
X0053151Y-0050457D01*
X0053115Y-0050357D01*
X0053055Y-0050270D01*
X0052971Y-0050193D01*
X0052863Y-0050129D01*
X0052731Y-0050076D01*
X0052693Y-0050066D01*
X0052629Y-0050087D01*
X0052516Y-0050134D01*
X0052403Y-0050188D01*
X0052291Y-0050251D01*
X0052179Y-0050322D01*
X0052066Y-0050402D01*
X0052068Y-0049985D01*
X0051963Y-0049983D01*
Y-0048783D01*
X0052071Y-0048780D01*
X0052072Y-0048357D01*
X0052185Y-0048438D01*
X0052410Y-0048574D01*
X0052523Y-0048629D01*
X0052636Y-0048676D01*
X0052707Y-0048700D01*
X0052731Y-0048695D01*
X0052863Y-0048645D01*
X0052971Y-0048584D01*
X0053055Y-0048513D01*
X0053115Y-0048430D01*
X0053151Y-0048336D01*
X0053163Y-0048232D01*
Y-0048781D01*
D02*
G37*
G36*
X0038086Y-0042369D02*
X0037967Y-0042474D01*
X0037863Y-0042649D01*
X0037772Y-0042893D01*
X0037695Y-0043209D01*
X0037633Y-0043593D01*
X0037584Y-0044049D01*
X0037528Y-0045169D01*
X0037521Y-0045834D01*
X0034021D01*
X0033914Y-0042333D01*
X0038219D01*
X0038086Y-0042369D01*
D02*
G37*
G36*
X0102864Y-0044539D02*
X0104223D01*
X0104133Y-0044549D01*
X0104053Y-0044579D01*
X0103982Y-0044629D01*
X0103921Y-0044699D01*
X0103869Y-0044789D01*
X0103827Y-0044899D01*
X0103814Y-0044950D01*
X0103830Y-0045002D01*
X0103874Y-0045118D01*
X0103928Y-0045238D01*
X0103992Y-0045362D01*
X0104149Y-0045622D01*
X0104242Y-0045758D01*
X0102197Y-0045706D01*
X0102302Y-0045568D01*
X0102480Y-0045306D01*
X0102552Y-0045182D01*
X0102613Y-0045062D01*
X0102663Y-0044947D01*
X0102678Y-0044905D01*
X0102676Y-0044899D01*
X0102634Y-0044789D01*
X0102582Y-0044699D01*
X0102521Y-0044629D01*
X0102450Y-0044579D01*
X0102370Y-0044549D01*
X0102280Y-0044539D01*
X0102751D01*
X0102752Y-0044534D01*
X0102864Y-0044539D01*
D02*
G37*
G36*
X0050010Y-0045242D02*
X0050046Y-0045344D01*
X0050107Y-0045434D01*
X0050192Y-0045511D01*
X0050301Y-0045578D01*
X0050379Y-0045609D01*
X0050418Y-0045592D01*
X0050530Y-0045532D01*
X0050644Y-0045461D01*
X0050759Y-0045380D01*
X0050876Y-0045288D01*
X0050993Y-0045185D01*
X0051046Y-0045723D01*
X0051210Y-0045728D01*
Y-0046928D01*
X0051165Y-0046929D01*
X0051194Y-0047221D01*
X0051096Y-0047165D01*
X0050995Y-0047115D01*
X0050892Y-0047071D01*
X0050786Y-0047033D01*
X0050677Y-0047001D01*
X0050594Y-0046981D01*
X0050592Y-0046981D01*
X0050434Y-0047024D01*
X0050301Y-0047078D01*
X0050192Y-0047144D01*
X0050107Y-0047222D01*
X0050046Y-0047311D01*
X0050010Y-0047414D01*
X0049998Y-0047528D01*
Y-0046407D01*
X0049875Y-0045728D01*
X0049981Y-0045722D01*
X0049998Y-0045720D01*
Y-0045128D01*
X0050010Y-0045242D01*
D02*
G37*
G36*
X0108483Y-0044551D02*
X0108420Y-0044587D01*
X0108364Y-0044647D01*
X0108316Y-0044731D01*
X0108275Y-0044839D01*
X0108242Y-0044971D01*
X0108216Y-0045127D01*
X0108197Y-0045307D01*
X0108197Y-0045309D01*
X0108199Y-0045329D01*
X0108220Y-0045441D01*
X0108250Y-0045555D01*
X0108288Y-0045667D01*
X0108335Y-0045781D01*
X0108389Y-0045893D01*
X0108453Y-0046006D01*
X0108525Y-0046119D01*
X0108605Y-0046232D01*
X0106559D01*
X0106640Y-0046119D01*
X0106775Y-0045893D01*
X0106830Y-0045781D01*
X0106876Y-0045667D01*
X0106914Y-0045555D01*
X0106944Y-0045441D01*
X0106965Y-0045332D01*
X0106949Y-0045127D01*
X0106923Y-0044971D01*
X0106889Y-0044839D01*
X0106849Y-0044731D01*
X0106800Y-0044647D01*
X0106745Y-0044587D01*
X0106682Y-0044551D01*
X0106611Y-0044539D01*
X0108554D01*
X0108483Y-0044551D01*
D02*
G37*
%LPC*%
G36*
X0070403Y-0040431D02*
X0070302D01*
X0070403Y-0040532D01*
Y-0040431D01*
D02*
G37*
%LPD*%
D10*
X0029300Y-0111766D02*
D03*
Y-0107435D02*
D03*
X0111617Y-0083935D02*
D03*
Y-0088265D02*
D03*
X0043271Y-0013390D02*
D03*
Y-0009059D02*
D03*
X0053271Y-0107966D02*
D03*
Y-0103635D02*
D03*
X0053271Y-0009059D02*
D03*
Y-0013390D02*
D03*
X0063271Y-0103635D02*
D03*
Y-0107966D02*
D03*
X0068281Y-0107965D02*
D03*
Y-0103635D02*
D03*
X0063271Y-0013390D02*
D03*
Y-0009059D02*
D03*
X0073271Y-0107966D02*
D03*
Y-0103635D02*
D03*
X0086800Y-0009265D02*
D03*
X0086800Y-0004934D02*
D03*
X0004924Y-0029435D02*
D03*
Y-0033765D02*
D03*
X0082200Y-0093935D02*
D03*
Y-0098265D02*
D03*
D11*
X0065335Y-0043500D02*
D03*
X0069665D02*
D03*
X0065335Y-0046700D02*
D03*
X0069665Y-0046700D02*
D03*
X0065335Y-0049800D02*
D03*
X0069665D02*
D03*
X0065335Y-0053000D02*
D03*
X0069665D02*
D03*
X0107865Y-0068300D02*
D03*
X0103535D02*
D03*
X0008959Y-0073371D02*
D03*
X0013290D02*
D03*
X0103252Y-0063371D02*
D03*
X0107582D02*
D03*
X0008959Y-0058300D02*
D03*
X0013290D02*
D03*
Y-0063371D02*
D03*
X0008959D02*
D03*
X0103252Y-0053371D02*
D03*
X0107582D02*
D03*
X0008959Y-0053371D02*
D03*
X0013290D02*
D03*
X0103252Y-0043371D02*
D03*
X0107582D02*
D03*
X0057035Y-0031400D02*
D03*
X0061365Y-0031400D02*
D03*
X0058465Y-0043000D02*
D03*
X0054135Y-0043000D02*
D03*
X0058465Y-0052800D02*
D03*
X0054135D02*
D03*
X0058465Y-0049400D02*
D03*
X0054135D02*
D03*
X0058465Y-0046200D02*
D03*
X0054135D02*
D03*
X0045465Y-0057800D02*
D03*
X0041135D02*
D03*
X0046565Y-0064500D02*
D03*
X0042235D02*
D03*
X0035635Y-0075300D02*
D03*
X0039965Y-0075300D02*
D03*
X0072365Y-0091500D02*
D03*
X0068035D02*
D03*
D14*
X0032843Y-0111766D02*
D03*
X0032843Y-0108222D02*
D03*
X0089500Y-0059072D02*
D03*
Y-0055528D02*
D03*
X0108300Y-0084128D02*
D03*
Y-0087672D02*
D03*
X0083625Y-0005628D02*
D03*
X0083625Y-0009171D02*
D03*
X0008442Y-0033472D02*
D03*
Y-0029928D02*
D03*
X0067400Y-0032728D02*
D03*
Y-0036272D02*
D03*
X0049000Y-0055828D02*
D03*
Y-0059372D02*
D03*
X0055900Y-0058428D02*
D03*
Y-0061972D02*
D03*
X0059100Y-0067972D02*
D03*
Y-0064428D02*
D03*
D17*
X0048802Y-0043178D02*
D03*
X0045259D02*
D03*
X0048802Y-0046328D02*
D03*
X0045259D02*
D03*
X0048802Y-0049477D02*
D03*
X0045259D02*
D03*
X0048802Y-0052627D02*
D03*
X0045259D02*
D03*
X0066322Y-0074100D02*
D03*
X0062779D02*
D03*
X0029671Y-0025400D02*
D03*
X0026128D02*
D03*
X0062779Y-0070900D02*
D03*
X0066322D02*
D03*
X0045559Y-0068375D02*
D03*
X0049102D02*
D03*
D18*
X0024400Y-0013644D02*
D03*
Y-0006557D02*
D03*
X0024400Y-0103056D02*
D03*
Y-0110143D02*
D03*
X0091900Y-0013644D02*
D03*
Y-0006557D02*
D03*
X0091800Y-0103056D02*
D03*
Y-0110143D02*
D03*
D19*
X0045259Y-0052627D02*
Y-0043178D01*
X0058465Y-0046479D02*
Y-0046200D01*
X0061379Y-0046479D02*
X0061600Y-0046700D01*
X0061500Y-0053000D02*
X0065335D01*
X0086800Y-0009265D02*
X0086800Y-0011602D01*
X0009743Y-0045243D02*
X0010600D01*
X0007871Y-0043371D02*
X0009743Y-0045243D01*
X0004924Y-0043371D02*
X0007871D01*
X0056700Y-0028300D02*
X0057035Y-0028635D01*
Y-0031400D02*
Y-0028635D01*
X0060700Y-0043500D02*
X0060800D01*
X0060200Y-0043000D02*
X0060700Y-0043500D01*
X0058465Y-0043000D02*
X0060200D01*
X0086900Y-0059072D02*
X0089500D01*
X0104860Y-0033340D02*
X0104900Y-0033300D01*
X0100542Y-0033340D02*
X0104860D01*
X0087300Y-0055800D02*
X0089228D01*
X0089500Y-0055528D01*
X0032809Y-0111800D02*
X0032843Y-0111766D01*
X0029300Y-0111766D02*
X0032843D01*
X0033235Y-0032600D02*
X0035300D01*
X0033235Y-0029600D02*
X0035300D01*
X0031735Y-0031100D02*
X0033235Y-0029600D01*
X0032817Y-0108196D02*
Y-0105598D01*
X0029300Y-0107435D02*
Y-0105098D01*
X0111600Y-0088283D02*
X0111617Y-0088265D01*
X0004924Y-0038371D02*
Y-0033765D01*
Y-0029435D02*
Y-0027098D01*
X0030400Y-0025500D02*
X0032464D01*
X0045259Y-0043178D02*
X0045259Y-0043178D01*
X0035700Y-0056100D02*
X0037600D01*
X0039300Y-0057800D01*
X0041135D01*
X0049000Y-0059372D02*
X0051558D01*
X0049000Y-0055828D02*
X0051628D01*
Y-0055728D02*
X0051700Y-0055800D01*
X0035700Y-0061100D02*
X0037500D01*
X0040885Y-0064485D01*
X0035635Y-0075300D02*
Y-0071165D01*
X0035700Y-0071100D01*
X0039965Y-0075300D02*
X0042500Y-0072765D01*
Y-0068375D01*
X0065828Y-0089294D02*
X0068035Y-0091500D01*
X0065828Y-0089294D02*
Y-0088400D01*
X0082200Y-0093935D02*
Y-0089600D01*
X0082935Y-0099000D02*
X0084800D01*
X0082200Y-0098265D02*
X0082935Y-0099000D01*
X0042500Y-0068375D02*
X0045559D01*
X0049102D02*
X0051775D01*
X0051800Y-0068400D01*
X0056028Y-0058400D02*
X0059500D01*
X0056000Y-0058428D02*
X0056028Y-0058400D01*
X0059100Y-0067972D02*
X0061628D01*
X0061800Y-0067800D01*
X0010600Y-0036700D02*
X0012500Y-0034800D01*
X0010600Y-0038157D02*
Y-0036700D01*
X0043271Y-0111800D02*
Y-0109829D01*
X0044243Y-0108857D01*
Y-0105700D01*
X0032919D02*
X0037157D01*
X0032817Y-0105598D02*
X0032919Y-0105700D01*
X0109671Y-0073371D02*
X0111617D01*
X0108856Y-0072556D02*
X0109671Y-0073371D01*
X0105700Y-0072556D02*
X0108856D01*
X0083625Y-0011300D02*
Y-0009171D01*
X0083125Y-0011800D02*
X0083625Y-0011300D01*
X0079314Y-0010900D02*
X0082225D01*
X0083125Y-0011800D01*
X0061500Y-0053000D02*
Y-0052900D01*
X0058745Y-0049580D02*
X0060580D01*
X0060800Y-0049800D01*
X0061600Y-0046700D02*
X0062200D01*
X0060800Y-0043500D02*
X0065335D01*
X0062200Y-0046700D02*
X0065335D01*
X0065335Y-0046700D01*
X0060800Y-0049800D02*
X0065335D01*
X0069665Y-0053000D02*
Y-0049800D01*
Y-0046700D01*
Y-0043500D01*
Y-0042765D01*
X0008442Y-0030196D02*
Y-0029928D01*
Y-0027598D01*
X0004924Y-0027098D02*
Y-0024517D01*
X0111600Y-0093200D02*
Y-0090600D01*
Y-0088283D01*
X0042727Y-0052627D02*
X0045259D01*
X0058465Y-0049300D02*
X0058745Y-0049580D01*
X0058865Y-0052900D02*
X0061500D01*
X0040885Y-0064485D02*
X0042250D01*
X0032809Y-0111800D02*
X0038271D01*
X0069665Y-0042765D02*
X0072000Y-0040431D01*
X0058465Y-0046479D02*
X0061379D01*
D20*
X0079800Y-0044000D02*
X0082631D01*
X0079800D02*
Y-0041506D01*
X0035300Y-0032600D02*
Y-0029600D01*
X0079800Y-0041506D02*
Y-0035658D01*
X0082057Y-0033400D01*
X0110857Y-0028800D02*
Y-0026200D01*
X0091900Y-0016500D02*
Y-0013644D01*
X0090400Y-0018000D02*
X0093400D01*
X0104082Y-0006557D02*
Y-0005757D01*
X0091900Y-0006557D02*
X0104082D01*
X0024400Y-0016500D02*
Y-0013644D01*
X0024400Y-0103056D02*
Y-0100200D01*
X0091800Y-0103056D02*
Y-0100200D01*
X0104924Y-0110143D02*
X0107483Y-0107583D01*
X0009058D02*
X0011618Y-0110143D01*
X0104082Y-0005757D02*
X0107483Y-0009158D01*
X0009058D02*
X0011660Y-0006557D01*
X0024400D01*
X0035771Y-0039295D02*
X0036066Y-0039000D01*
X0021700Y-0022600D02*
X0024700D01*
X0012460Y-0110185D02*
X0024642D01*
X0091800D02*
X0104082D01*
D21*
X0109801Y-0021300D02*
Y-0022299D01*
X0110301Y-0022799D01*
X0111800D01*
Y-0021300D01*
X0111300Y-0020800D01*
X0110800Y-0021300D01*
Y-0022799D01*
D22*
X0069500Y-0029660D02*
Y-0026600D01*
Y-0030628D02*
Y-0029660D01*
X0105491Y-0082410D02*
Y-0079643D01*
X0067400Y-0032728D02*
X0069500Y-0030628D01*
X0105491Y-0079643D02*
X0105700D01*
X0104500Y-0083400D02*
X0105491Y-0082410D01*
X0032817Y-0108196D02*
X0032843Y-0108222D01*
X0108300Y-0090200D02*
Y-0087672D01*
X0078271Y-0005024D02*
X0082135D01*
X0004924Y-0033765D02*
X0008441D01*
X0008442Y-0030196D02*
X0008468Y-0030222D01*
X0069500Y-0029660D02*
X0071742D01*
X0111617Y-0084128D02*
Y-0083935D01*
Y-0078371D01*
X0108300Y-0084128D02*
X0111617D01*
X0082135Y-0004934D02*
X0086200D01*
D23*
X0023074Y-0031100D02*
Y-0023500D01*
X0072000Y-0040431D02*
Y-0038000D01*
X0022900Y-0018000D02*
X0025900D01*
X0022900Y-0098700D02*
X0025900D01*
X0090300D02*
X0093300D01*
X0023074Y-0039000D02*
Y-0031100D01*
D24*
X0063271Y-0107966D02*
X0073271D01*
X0051903Y-0046183D02*
X0053300D01*
X0051758Y-0046328D02*
X0051903Y-0046183D01*
X0051500Y-0049477D02*
X0051595Y-0049383D01*
X0062779Y-0076746D02*
Y-0074100D01*
X0053271Y-0009059D02*
X0056400D01*
X0107582Y-0047000D02*
Y-0043371D01*
Y-0053371D02*
Y-0047000D01*
X0048802Y-0046328D02*
X0051758D01*
X0086872Y-0055800D02*
X0087300D01*
X0086600Y-0055528D02*
X0086872Y-0055800D01*
X0051695Y-0042983D02*
X0053300D01*
X0066322Y-0070900D02*
X0068800D01*
X0062779Y-0074100D02*
Y-0070900D01*
X0048802Y-0052627D02*
X0051758D01*
X0051595Y-0049383D02*
X0053300D01*
X0053271Y-0107966D02*
X0063271D01*
X0068800Y-0070900D02*
X0068900Y-0070800D01*
X0107865Y-0068300D02*
Y-0063654D01*
X0107582Y-0063371D02*
X0107865Y-0063654D01*
X0073271Y-0107966D02*
X0076366D01*
X0008959Y-0076459D02*
Y-0073371D01*
Y-0066959D02*
Y-0063371D01*
Y-0058300D01*
Y-0053371D01*
X0039841Y-0009059D02*
X0043271D01*
X0063271D02*
X0066459D01*
X0072365Y-0091500D02*
X0075300D01*
X0077200Y-0089600D01*
X0107582Y-0063371D02*
X0107600Y-0063353D01*
Y-0060200D01*
X0066322Y-0074100D02*
X0068900D01*
X0051758Y-0052583D02*
X0054135D01*
X0048802Y-0043178D02*
X0051500D01*
X0051695Y-0042983D01*
X0048802Y-0049477D02*
X0051500D01*
D25*
X0015709Y-0060849D02*
X0019164D01*
X0013289Y-0073430D02*
X0015709Y-0075849D01*
X0014000Y-0070000D02*
X0014871Y-0070871D01*
X0060793Y-0015809D02*
X0063212Y-0013390D01*
X0060793Y-0019234D02*
Y-0015809D01*
X0053330Y-0013390D02*
X0055749Y-0015809D01*
Y-0019234D02*
Y-0015809D01*
X0100833Y-0065849D02*
X0103279Y-0063402D01*
X0097000Y-0065863D02*
X0100759D01*
X0097207Y-0070893D02*
X0100942D01*
X0103535Y-0068300D01*
X0060793Y-0101157D02*
X0063271Y-0103635D01*
X0060793Y-0101157D02*
Y-0097708D01*
X0065793Y-0101157D02*
X0068271Y-0103635D01*
X0065793Y-0101157D02*
Y-0097708D01*
X0043330Y-0013390D02*
X0045749Y-0015809D01*
Y-0019234D02*
Y-0015809D01*
X0073271Y-0103635D02*
X0075749Y-0101157D01*
Y-0097708D01*
X0045793Y-0101015D02*
X0047245Y-0102467D01*
X0047267D02*
X0048271Y-0103471D01*
X0045793Y-0101015D02*
Y-0097907D01*
X0013290Y-0065290D02*
X0014100Y-0066100D01*
X0013290Y-0065290D02*
Y-0063430D01*
X0013261Y-0053341D02*
X0015709Y-0050893D01*
X0019135D01*
X0015709Y-0075849D02*
X0019134D01*
X0014871Y-0070871D02*
X0018171D01*
X0013166Y-0058306D02*
X0015709Y-0060849D01*
X0050793Y-0101157D02*
Y-0097708D01*
Y-0101157D02*
X0053271Y-0103635D01*
D26*
X0049000Y-0021800D02*
X0063086D01*
X0083048Y-0049452D02*
X0086724D01*
X0004924Y-0068371D02*
X0006554Y-0070000D01*
X0014000D01*
X0013290Y-0063430D02*
Y-0063371D01*
X0070600Y-0061900D02*
X0083048Y-0049452D01*
X0045465Y-0060965D02*
X0046400Y-0061900D01*
X0055230Y-0023500D02*
X0093400D01*
X0053330Y-0025400D02*
X0055230Y-0023500D01*
X0093400D02*
X0095841Y-0025941D01*
X0039500Y-0031300D02*
X0049000Y-0021800D01*
X0085699Y-0052700D02*
X0085800D01*
X0073899Y-0064500D02*
X0085699Y-0052700D01*
X0045465Y-0060965D02*
Y-0057800D01*
X0013289Y-0073430D02*
Y-0073371D01*
X0043271Y-0013390D02*
X0043330D01*
X0053271D02*
X0053330D01*
X0063212D02*
X0063271D01*
X0103252Y-0046448D02*
Y-0043371D01*
X0103200Y-0046500D02*
X0103252Y-0046448D01*
Y-0053371D02*
X0103300Y-0053419D01*
X0097076Y-0071024D02*
X0097207Y-0070893D01*
X0048271Y-0111717D02*
Y-0103471D01*
X0089700Y-0084300D02*
X0096100Y-0077900D01*
X0045793Y-0097818D02*
Y-0084300D01*
X0089700D01*
X0019135Y-0050893D02*
X0019164D01*
X0033200Y-0084300D02*
X0045793D01*
X0024400Y-0075500D02*
X0033200Y-0084300D01*
X0018171Y-0070871D02*
X0022800Y-0075500D01*
X0024400D01*
X0103300Y-0056000D02*
Y-0053419D01*
X0046400Y-0061900D02*
X0070600D01*
X0046565Y-0064500D02*
X0073899D01*
X0095841Y-0025941D02*
X0100542D01*
X0063086Y-0021800D02*
X0065793Y-0019093D01*
X0009799Y-0085101D02*
X0010299Y-0085601D01*
Y-0086600D01*
X0009799Y-0087100D01*
X0007800D01*
X0007300Y-0086600D01*
Y-0085601D01*
X0007800Y-0085101D01*
X0032599Y-0010599D02*
Y-0007600D01*
X0031100D01*
X0030600Y-0008100D01*
Y-0009099D01*
X0031100Y-0009599D01*
X0032599D01*
X0086300Y-0106401D02*
Y-0109400D01*
X0084800D01*
X0084301Y-0108900D01*
Y-0108400D01*
Y-0107901D01*
X0084800Y-0107401D01*
X0086300D01*
D27*
X0110800Y-0026677D02*
Y-0022800D01*
X0004900Y-0086200D02*
X0007000D01*
X0031500Y-0007300D02*
Y-0005200D01*
X0085400Y-0111800D02*
Y-0109700D01*
D34*
X0023889Y-0056100D02*
D03*
X0035700D02*
D03*
X0023889Y-0061100D02*
D03*
X0035700D02*
D03*
X0023889Y-0071100D02*
D03*
X0035700D02*
D03*
X0023889Y-0066100D02*
D03*
X0035700D02*
D03*
X0023889Y-0051100D02*
D03*
X0035700D02*
D03*
X0023889Y-0046100D02*
D03*
X0035700D02*
D03*
D35*
X0107483Y-0009158D02*
D03*
X0009058D02*
D03*
Y-0107583D02*
D03*
X0107483D02*
D03*
D36*
X0078271Y-0099989D02*
D03*
X0073271D02*
D03*
X0068271D02*
D03*
X0063271D02*
D03*
X0058271D02*
D03*
X0053271D02*
D03*
X0048271D02*
D03*
X0043271D02*
D03*
X0038271D02*
D03*
X0016735Y-0078371D02*
D03*
Y-0073371D02*
D03*
Y-0068371D02*
D03*
Y-0063371D02*
D03*
Y-0058371D02*
D03*
Y-0053371D02*
D03*
Y-0048371D02*
D03*
Y-0043371D02*
D03*
Y-0038371D02*
D03*
X0099806D02*
D03*
Y-0043371D02*
D03*
Y-0048371D02*
D03*
Y-0053371D02*
D03*
Y-0058371D02*
D03*
Y-0063371D02*
D03*
Y-0068371D02*
D03*
Y-0073371D02*
D03*
Y-0078371D02*
D03*
X0038271Y-0016835D02*
D03*
X0043271D02*
D03*
X0048271D02*
D03*
X0053271D02*
D03*
X0058271D02*
D03*
X0063271D02*
D03*
X0068271D02*
D03*
X0073271D02*
D03*
X0078271D02*
D03*
D37*
Y-0111800D02*
D03*
X0073271D02*
D03*
X0068271D02*
D03*
X0063271D02*
D03*
X0058271D02*
D03*
X0053271D02*
D03*
X0048271D02*
D03*
X0043271D02*
D03*
X0038271D02*
D03*
X0004924Y-0078371D02*
D03*
Y-0073371D02*
D03*
Y-0068371D02*
D03*
Y-0063371D02*
D03*
Y-0058371D02*
D03*
Y-0053371D02*
D03*
Y-0048371D02*
D03*
Y-0043371D02*
D03*
Y-0038371D02*
D03*
X0111617D02*
D03*
Y-0043371D02*
D03*
Y-0048371D02*
D03*
Y-0053371D02*
D03*
Y-0058371D02*
D03*
Y-0063371D02*
D03*
Y-0068371D02*
D03*
Y-0073371D02*
D03*
Y-0078371D02*
D03*
X0038271Y-0005024D02*
D03*
X0043271D02*
D03*
X0048271D02*
D03*
X0053271D02*
D03*
X0058271D02*
D03*
X0063271D02*
D03*
X0068271D02*
D03*
X0073271D02*
D03*
X0078271D02*
D03*
D38*
X0086724Y-0049452D02*
D03*
X0056500Y-0009059D02*
D03*
X0104500Y-0083400D02*
D03*
X0097150Y-0018850D02*
D03*
X0049800Y-0025875D02*
D03*
X0060793Y-0096707D02*
D03*
X0065793Y-0096500D02*
D03*
X0036500Y-0092500D02*
D03*
X0079800Y-0044100D02*
D03*
Y-0041506D02*
D03*
X0065900Y-0028500D02*
D03*
X0065793Y-0019263D02*
D03*
X0056700Y-0028300D02*
D03*
X0051858Y-0046128D02*
D03*
X0053330Y-0025400D02*
D03*
X0069500Y-0026600D02*
D03*
X0060800Y-0043500D02*
D03*
X0086900Y-0059072D02*
D03*
X0102900Y-0040165D02*
D03*
X0105800Y-0023591D02*
D03*
X0104900Y-0033300D02*
D03*
X0110857Y-0026200D02*
D03*
X0087300Y-0055800D02*
D03*
X0085800Y-0052700D02*
D03*
X0087200Y-0089600D02*
D03*
X0025467Y-0092129D02*
D03*
X0093300Y-0098700D02*
D03*
X0035300Y-0029600D02*
D03*
Y-0032600D02*
D03*
X0024700Y-0022600D02*
D03*
X0021700D02*
D03*
X0025900Y-0018000D02*
D03*
X0022900D02*
D03*
X0025900Y-0098700D02*
D03*
X0022900D02*
D03*
X0090300D02*
D03*
X0090400Y-0018000D02*
D03*
X0093400D02*
D03*
X0051400Y-0042878D02*
D03*
X0062779Y-0076746D02*
D03*
X0069372Y-0088300D02*
D03*
X0065828Y-0088400D02*
D03*
X0029300Y-0105098D02*
D03*
X0032817Y-0105598D02*
D03*
X0108300Y-0090200D02*
D03*
X0111600Y-0090600D02*
D03*
X0008442Y-0027598D02*
D03*
X0004924Y-0027098D02*
D03*
X0096900Y-0066363D02*
D03*
X0032464Y-0025500D02*
D03*
X0051858Y-0052627D02*
D03*
X0051300Y-0049377D02*
D03*
X0051558Y-0059372D02*
D03*
X0051700Y-0055900D02*
D03*
X0045749Y-0019234D02*
D03*
X0055749D02*
D03*
X0060793D02*
D03*
X0042500Y-0068375D02*
D03*
X0107582Y-0047000D02*
D03*
X0103200Y-0046500D02*
D03*
X0102800Y-0056000D02*
D03*
X0097076Y-0071024D02*
D03*
X0019164Y-0060849D02*
D03*
X0068900Y-0070800D02*
D03*
X0096100Y-0077900D02*
D03*
X0111600Y-0093200D02*
D03*
X0004924Y-0024517D02*
D03*
X0076466Y-0107966D02*
D03*
X0008959Y-0066959D02*
D03*
X0085000Y-0072600D02*
D03*
X0043100Y-0034200D02*
D03*
X0086800Y-0011602D02*
D03*
X0039841Y-0009059D02*
D03*
X0066459D02*
D03*
X0039500Y-0031300D02*
D03*
X0073400Y-0020800D02*
D03*
X0077200Y-0089600D02*
D03*
X0082200D02*
D03*
X0084800Y-0099000D02*
D03*
X0051900Y-0068400D02*
D03*
X0059500Y-0058400D02*
D03*
X0061800Y-0067700D02*
D03*
X0012500Y-0034800D02*
D03*
X0083125Y-0011800D02*
D03*
X0004900Y-0086200D02*
D03*
X0031500Y-0005200D02*
D03*
X0085400Y-0111800D02*
D03*
X0061500Y-0053000D02*
D03*
X0060800Y-0049800D02*
D03*
X0062200Y-0046700D02*
D03*
X0081800Y-0018500D02*
D03*
X0086500D02*
D03*
X0107600Y-0060200D02*
D03*
X0068900Y-0074100D02*
D03*
X0031500Y-0046600D02*
D03*
X0050793Y-0096500D02*
D03*
X0014100Y-0066100D02*
D03*
X0031500Y-0077200D02*
D03*
X0041200Y-0080400D02*
D03*
X0035500Y-0080300D02*
D03*
X0008959Y-0076559D02*
D03*
X0042200Y-0052627D02*
D03*
X0019135Y-0050893D02*
D03*
X0075642Y-0097400D02*
D03*
X0024400Y-0075500D02*
D03*
X0019134Y-0075849D02*
D03*
D39*
X0083431Y-0043200D02*
D03*
X0074769D02*
D03*
X0031735Y-0031100D02*
D03*
X0023074D02*
D03*
D40*
X0100542Y-0033340D02*
D03*
X0110857Y-0029600D02*
D03*
X0100542Y-0025860D02*
D03*
X0082057Y-0033400D02*
D03*
X0071742Y-0029660D02*
D03*
X0071742Y-0037140D02*
D03*
D41*
X0036066Y-0039000D02*
D03*
X0023074D02*
D03*
D42*
X0010600Y-0038157D02*
D03*
Y-0045243D02*
D03*
X0105700Y-0079643D02*
D03*
Y-0072556D02*
D03*
D43*
X0037157Y-0105700D02*
D03*
X0044243D02*
D03*
X0079314Y-0010900D02*
D03*
X0072228D02*
D03*
D44*
X0063100Y-0028500D02*
X0065900D01*
X0061365Y-0030235D02*
X0063100Y-0028500D01*
X0061365Y-0031400D02*
Y-0030235D01*
X0063372Y-0036272D02*
X0067400D01*
X0061365Y-0034265D02*
X0063372Y-0036272D01*
X0061365Y-0034265D02*
Y-0031400D01*
X0069339Y-0037140D02*
X0071742D01*
X0068471Y-0036272D02*
X0069339Y-0037140D01*
X0067400Y-0036272D02*
X0068471D01*
D45*
X0073271Y-0010000D02*
Y-0005024D01*
D46*
X0035771Y-0046107D02*
Y-0039295D01*
M02*
