M48
;Layer_Color=9474304
;FILE_FORMAT=2:5
INCH
;TYPE=NON_PLATED
T1F00S00C0.02756
T2F00S00C0.03937
%
T01
X0038271Y-0099989
X0016735Y-0078371
Y-0073371
Y-0068371
Y-0063371
X0043271Y-0099989
X0048271
X0053271
X0058271
X0063271
X0068271
X0073271
X0078271
X0099806Y-0078371
Y-0073371
Y-0068371
Y-0063371
Y-0058371
Y-0053371
Y-0048371
Y-0043371
Y-0038371
X0078271Y-0016835
X0073271
X0068271
X0063271
X0058271
X0053271
X0048271
X0043271
X0038271
X0016735Y-0038371
Y-0043371
Y-0048371
Y-0053371
Y-0058371
T02
X0023889Y-0071100
Y-0066100
Y-0061100
Y-0056100
Y-0051100
Y-0046100
M30
