G04 Layer_Color=16711935*
%FSAX25Y25*%
%MOIN*%
G70*
G01*
G75*
%ADD71C,0.01000*%
%ADD105C,0.00500*%
D71*
X0502755Y0558656D02*
X0502756Y0558656D01*
X0502757Y0538656D02*
X0502758Y0538656D01*
D105*
X0204725Y0524844D02*
G03*
X0196850Y0516970I-0000001J-0007874D01*
G01*
X0207087Y0524844D02*
G03*
X0214961Y0532719I0000000J0007874D01*
G01*
X0222813Y0565494D02*
G03*
X0214939Y0557619I0000000J-0007874D01*
G01*
X0528538Y0557601D02*
G03*
X0520664Y0565476I-0007874J0000001D01*
G01*
X0552160Y0516750D02*
G03*
X0544286Y0524624I-0007874J0000000D01*
G01*
X0528538Y0532499D02*
G03*
X0536412Y0524624I0007874J-0000001D01*
G01*
X0508156Y0201235D02*
G03*
X0502700Y0199038I-0000000J-0007874D01*
G01*
X0497243Y0196842D02*
G03*
X0502700Y0199038I0000000J0007874D01*
G01*
X0245797Y0199034D02*
G03*
X0251240Y0196849I0005444J0005689D01*
G01*
X0245797Y0199034D02*
G03*
X0240352Y0201220I-0005444J-0005689D01*
G01*
X0196850Y0213102D02*
G03*
X0208734Y0201219I0011884J0000000D01*
G01*
X0544128Y0201250D02*
G03*
X0552160Y0209281I0000000J0008032D01*
G01*
X0214939Y0557250D02*
X0214939Y0532719D01*
X0196850Y0516970D02*
X0196850Y0213102D01*
X0222850Y0565494D02*
X0520664D01*
X0528538Y0532499D02*
X0528538Y0557350D01*
X0508156Y0201235D02*
X0543455Y0201234D01*
X0251240Y0196849D02*
X0497243Y0196842D01*
X0208734Y0201220D02*
X0240352D01*
X0552160Y0209281D02*
X0552160Y0516750D01*
X0543455Y0201234D02*
X0544128Y0201250D01*
X0214939Y0557250D02*
Y0557619D01*
X0204725Y0524844D02*
X0207087D01*
X0528538Y0557350D02*
Y0557601D01*
X0536412Y0524624D02*
X0544286D01*
M02*
