G04 Layer_Color=32896*
%FSLAX24Y24*%
%MOIN*%
G70*
G01*
G75*
%ADD37C,0.0100*%
%ADD84C,0.0098*%
%ADD85C,0.0079*%
%ADD87C,0.0039*%
D37*
X11789Y20737D02*
Y20137D01*
X11389D01*
X10789Y20637D02*
X10889Y20737D01*
X11089D01*
X11189Y20637D01*
Y20237D01*
X11089Y20137D01*
X10889D01*
X10789Y20237D01*
X10589Y20737D02*
Y20137D01*
X10189D01*
X9989Y20038D02*
X9589D01*
X9390Y20137D02*
Y20737D01*
X9090D01*
X8990Y20637D01*
Y20437D01*
X9090Y20337D01*
X9390D01*
X9190D02*
X8990Y20137D01*
X8490D02*
Y20737D01*
X8790Y20437D01*
X8390D01*
X8190Y20038D02*
X7790D01*
X7590Y20737D02*
Y20137D01*
X7190D01*
X6590Y20637D02*
X6690Y20737D01*
X6890D01*
X6990Y20637D01*
Y20237D01*
X6890Y20137D01*
X6690D01*
X6590Y20237D01*
X6390Y20737D02*
Y20137D01*
X5991D01*
X5191Y20637D02*
X5091Y20737D01*
X4891D01*
X4791Y20637D01*
Y20537D01*
X4891Y20437D01*
X4991D01*
X4891D01*
X4791Y20337D01*
Y20237D01*
X4891Y20137D01*
X5091D01*
X5191Y20237D01*
X4591Y20737D02*
Y20337D01*
X4391Y20137D01*
X4191Y20337D01*
Y20737D01*
X3991Y20637D02*
X3891Y20737D01*
X3691D01*
X3591Y20637D01*
Y20537D01*
X3691Y20437D01*
X3791D01*
X3691D01*
X3591Y20337D01*
Y20237D01*
X3691Y20137D01*
X3891D01*
X3991Y20237D01*
X2992Y20737D02*
Y20137D01*
X3291D01*
X3391Y20237D01*
Y20437D01*
X3291Y20537D01*
X2992D01*
X19360Y24836D02*
X19759D01*
Y24536D01*
X19560D01*
X19759D01*
Y24236D01*
X18760Y24736D02*
X18860Y24836D01*
X19060D01*
X19160Y24736D01*
Y24636D01*
X19060Y24536D01*
X18860D01*
X18760Y24436D01*
Y24336D01*
X18860Y24236D01*
X19060D01*
X19160Y24336D01*
X18560Y24136D02*
X18160D01*
X17960Y24236D02*
Y24836D01*
X17660D01*
X17560Y24736D01*
Y24536D01*
X17660Y24436D01*
X17960D01*
X17760D02*
X17560Y24236D01*
X17360Y24736D02*
X17260Y24836D01*
X17060D01*
X16960Y24736D01*
Y24636D01*
X17060Y24536D01*
X17160D01*
X17060D01*
X16960Y24436D01*
Y24336D01*
X17060Y24236D01*
X17260D01*
X17360Y24336D01*
X18186Y20998D02*
X18286Y21098D01*
X18485D01*
X18585Y20998D01*
Y20898D01*
X18485Y20798D01*
X18286D01*
X18186Y20698D01*
Y20598D01*
X18286Y20498D01*
X18485D01*
X18585Y20598D01*
X17986Y21098D02*
Y20598D01*
X17886Y20498D01*
X17686D01*
X17586Y20598D01*
Y21098D01*
X17386Y20498D02*
Y21098D01*
X17086D01*
X16986Y20998D01*
Y20798D01*
X17086Y20698D01*
X17386D01*
X16786Y20498D02*
Y21098D01*
X16486D01*
X16386Y20998D01*
Y20798D01*
X16486Y20698D01*
X16786D01*
X16186Y20398D02*
X15786D01*
X15187Y21098D02*
X15386D01*
X15287D01*
Y20598D01*
X15386Y20498D01*
X15486D01*
X15586Y20598D01*
X14987Y20498D02*
X14787D01*
X14887D01*
Y21098D01*
X14987Y20998D01*
X13027Y21523D02*
Y20923D01*
X12628D01*
X12028Y21423D02*
X12128Y21523D01*
X12328D01*
X12428Y21423D01*
Y21023D01*
X12328Y20923D01*
X12128D01*
X12028Y21023D01*
X11828Y21523D02*
Y20923D01*
X11428D01*
X11228Y20823D02*
X10828D01*
X10628Y21523D02*
Y21023D01*
X10528Y20923D01*
X10328D01*
X10228Y21023D01*
Y21523D01*
X10028Y20923D02*
X9828D01*
X9928D01*
Y21523D01*
X10028Y21423D01*
X9529Y20823D02*
X9129D01*
X8929Y21523D02*
Y20923D01*
X8529D01*
X7929Y21423D02*
X8029Y21523D01*
X8229D01*
X8329Y21423D01*
Y21023D01*
X8229Y20923D01*
X8029D01*
X7929Y21023D01*
X7729Y21523D02*
Y20923D01*
X7329D01*
X6530Y21423D02*
X6430Y21523D01*
X6230D01*
X6130Y21423D01*
Y21323D01*
X6230Y21223D01*
X6330D01*
X6230D01*
X6130Y21123D01*
Y21023D01*
X6230Y20923D01*
X6430D01*
X6530Y21023D01*
X5930Y21523D02*
Y21123D01*
X5730Y20923D01*
X5530Y21123D01*
Y21523D01*
X5330Y21423D02*
X5230Y21523D01*
X5030D01*
X4930Y21423D01*
Y21323D01*
X5030Y21223D01*
X5130D01*
X5030D01*
X4930Y21123D01*
Y21023D01*
X5030Y20923D01*
X5230D01*
X5330Y21023D01*
X4330Y21523D02*
Y20923D01*
X4630D01*
X4730Y21023D01*
Y21223D01*
X4630Y21323D01*
X4330D01*
X13519Y21096D02*
Y20496D01*
X13119D01*
X12520Y20996D02*
X12620Y21096D01*
X12820D01*
X12919Y20996D01*
Y20596D01*
X12820Y20496D01*
X12620D01*
X12520Y20596D01*
X12320Y21096D02*
Y20496D01*
X11920D01*
X11720Y20396D02*
X11320D01*
X11120Y20496D02*
Y21096D01*
X10820D01*
X10720Y20996D01*
Y20796D01*
X10820Y20696D01*
X11120D01*
X10920D02*
X10720Y20496D01*
X10120D02*
X10520D01*
X10120Y20896D01*
Y20996D01*
X10220Y21096D01*
X10420D01*
X10520Y20996D01*
X9920Y20396D02*
X9521D01*
X9321Y21096D02*
Y20496D01*
X8921D01*
X8321Y20996D02*
X8421Y21096D01*
X8621D01*
X8721Y20996D01*
Y20596D01*
X8621Y20496D01*
X8421D01*
X8321Y20596D01*
X8121Y21096D02*
Y20496D01*
X7721D01*
X6921Y20996D02*
X6821Y21096D01*
X6622D01*
X6522Y20996D01*
Y20896D01*
X6622Y20796D01*
X6721D01*
X6622D01*
X6522Y20696D01*
Y20596D01*
X6622Y20496D01*
X6821D01*
X6921Y20596D01*
X6322Y21096D02*
Y20696D01*
X6122Y20496D01*
X5922Y20696D01*
Y21096D01*
X5722Y20996D02*
X5622Y21096D01*
X5422D01*
X5322Y20996D01*
Y20896D01*
X5422Y20796D01*
X5522D01*
X5422D01*
X5322Y20696D01*
Y20596D01*
X5422Y20496D01*
X5622D01*
X5722Y20596D01*
X4722Y21096D02*
Y20496D01*
X5022D01*
X5122Y20596D01*
Y20796D01*
X5022Y20896D01*
X4722D01*
X16930Y12901D02*
Y13501D01*
X16730Y13301D01*
X16531Y13501D01*
Y12901D01*
X16031Y13501D02*
X16231D01*
X16331Y13401D01*
Y13001D01*
X16231Y12901D01*
X16031D01*
X15931Y13001D01*
Y13401D01*
X16031Y13501D01*
X15331Y13401D02*
X15431Y13501D01*
X15631D01*
X15731Y13401D01*
Y13301D01*
X15631Y13201D01*
X15431D01*
X15331Y13101D01*
Y13001D01*
X15431Y12901D01*
X15631D01*
X15731Y13001D01*
X15131Y12801D02*
X14731D01*
X14131Y13501D02*
X14331D01*
X14231D01*
Y13001D01*
X14331Y12901D01*
X14431D01*
X14531Y13001D01*
X13531Y12901D02*
X13931D01*
X13531Y13301D01*
Y13401D01*
X13631Y13501D01*
X13831D01*
X13931Y13401D01*
X21010Y21510D02*
Y22110D01*
X20710D01*
X20610Y22010D01*
Y21810D01*
X20710Y21710D01*
X21010D01*
X20810D02*
X20610Y21510D01*
X20410D02*
Y21910D01*
X20210Y22110D01*
X20010Y21910D01*
Y21510D01*
Y21810D01*
X20410D01*
X19810Y22110D02*
Y21510D01*
X19510D01*
X19411Y21610D01*
Y22010D01*
X19510Y22110D01*
X19810D01*
X18811D02*
X19211D01*
Y21810D01*
X19011D01*
X19211D01*
Y21510D01*
X18211Y22110D02*
X18611D01*
Y21510D01*
X18211D01*
X18611Y21810D02*
X18411D01*
X18011Y22110D02*
X17611D01*
X17811D01*
Y21510D01*
X17411Y21410D02*
X17011D01*
X16411Y22010D02*
X16511Y22110D01*
X16711D01*
X16811Y22010D01*
Y21910D01*
X16711Y21810D01*
X16511D01*
X16411Y21710D01*
Y21610D01*
X16511Y21510D01*
X16711D01*
X16811Y21610D01*
X15812Y21510D02*
X16212D01*
X15812Y21910D01*
Y22010D01*
X15912Y22110D01*
X16112D01*
X16212Y22010D01*
X13257Y15547D02*
X13656D01*
Y15247D01*
X13457D01*
X13656D01*
Y14947D01*
X13057Y15547D02*
Y14947D01*
X12657D01*
X12457Y15547D02*
X12057D01*
X12257D01*
Y14947D01*
X11857Y14847D02*
X11457D01*
X11257Y14947D02*
Y15547D01*
X10957D01*
X10857Y15447D01*
Y15247D01*
X10957Y15147D01*
X11257D01*
X11057D02*
X10857Y14947D01*
X10657D02*
X10457D01*
X10557D01*
Y15547D01*
X10657Y15447D01*
X14642Y15550D02*
X15042D01*
Y15250D01*
X14842D01*
X15042D01*
Y14950D01*
X14442Y15550D02*
Y14950D01*
X14042D01*
X13842Y15550D02*
X13443D01*
X13642D01*
Y14950D01*
X13243Y14850D02*
X12843D01*
X12643Y14950D02*
Y15550D01*
X12343D01*
X12243Y15450D01*
Y15250D01*
X12343Y15150D01*
X12643D01*
X12443D02*
X12243Y14950D01*
X11643D02*
X12043D01*
X11643Y15350D01*
Y15450D01*
X11743Y15550D01*
X11943D01*
X12043Y15450D01*
X12371Y16705D02*
Y16205D01*
X12271Y16105D01*
X12071D01*
X11971Y16205D01*
Y16705D01*
X11771Y16105D02*
X11571D01*
X11671D01*
Y16705D01*
X11771Y16605D01*
X12508Y25379D02*
X12608Y25479D01*
X12808D01*
X12908Y25379D01*
Y25279D01*
X12808Y25179D01*
X12608D01*
X12508Y25079D01*
Y24979D01*
X12608Y24879D01*
X12808D01*
X12908Y24979D01*
X12308Y25479D02*
Y24979D01*
X12208Y24879D01*
X12008D01*
X11908Y24979D01*
Y25479D01*
X11708Y24879D02*
Y25479D01*
X11408D01*
X11308Y25379D01*
Y25179D01*
X11408Y25079D01*
X11708D01*
X11108Y24879D02*
Y25479D01*
X10808D01*
X10708Y25379D01*
Y25179D01*
X10808Y25079D01*
X11108D01*
X10508Y24779D02*
X10109D01*
X9909Y24879D02*
Y25479D01*
X9609D01*
X9509Y25379D01*
Y25179D01*
X9609Y25079D01*
X9909D01*
X9709D02*
X9509Y24879D01*
X9309Y25379D02*
X9209Y25479D01*
X9009D01*
X8909Y25379D01*
Y25279D01*
X9009Y25179D01*
X9109D01*
X9009D01*
X8909Y25079D01*
Y24979D01*
X9009Y24879D01*
X9209D01*
X9309Y24979D01*
X13048Y26089D02*
X13148Y26189D01*
X13348D01*
X13448Y26089D01*
Y25989D01*
X13348Y25889D01*
X13148D01*
X13048Y25789D01*
Y25689D01*
X13148Y25589D01*
X13348D01*
X13448Y25689D01*
X12848Y26189D02*
Y25689D01*
X12748Y25589D01*
X12548D01*
X12448Y25689D01*
Y26189D01*
X12248Y25589D02*
Y26189D01*
X11948D01*
X11848Y26089D01*
Y25889D01*
X11948Y25789D01*
X12248D01*
X11648Y25589D02*
Y26189D01*
X11348D01*
X11248Y26089D01*
Y25889D01*
X11348Y25789D01*
X11648D01*
X11048Y25489D02*
X10649D01*
X10449Y25589D02*
Y26189D01*
X10149D01*
X10049Y26089D01*
Y25889D01*
X10149Y25789D01*
X10449D01*
X10249D02*
X10049Y25589D01*
X9449D02*
X9849D01*
X9449Y25989D01*
Y26089D01*
X9549Y26189D01*
X9749D01*
X9849Y26089D01*
X12608Y24169D02*
X12708Y24269D01*
X12908D01*
X13008Y24169D01*
Y24069D01*
X12908Y23969D01*
X12708D01*
X12608Y23869D01*
Y23769D01*
X12708Y23669D01*
X12908D01*
X13008Y23769D01*
X12408Y24269D02*
Y23769D01*
X12308Y23669D01*
X12108D01*
X12008Y23769D01*
Y24269D01*
X11808Y23669D02*
Y24269D01*
X11508D01*
X11408Y24169D01*
Y23969D01*
X11508Y23869D01*
X11808D01*
X11208Y23669D02*
Y24269D01*
X10908D01*
X10808Y24169D01*
Y23969D01*
X10908Y23869D01*
X11208D01*
X10608Y23569D02*
X10209D01*
X10009Y23669D02*
Y24269D01*
X9709D01*
X9609Y24169D01*
Y23969D01*
X9709Y23869D01*
X10009D01*
X9809D02*
X9609Y23669D01*
X9409D02*
X9209D01*
X9309D01*
Y24269D01*
X9409Y24169D01*
X11919Y23719D02*
X12019Y23819D01*
X12219D01*
X12319Y23719D01*
Y23619D01*
X12219Y23519D01*
X12019D01*
X11919Y23419D01*
Y23319D01*
X12019Y23219D01*
X12219D01*
X12319Y23319D01*
X11720Y23819D02*
Y23319D01*
X11620Y23219D01*
X11420D01*
X11320Y23319D01*
Y23819D01*
X11120Y23219D02*
Y23819D01*
X10820D01*
X10720Y23719D01*
Y23519D01*
X10820Y23419D01*
X11120D01*
X10520Y23219D02*
Y23819D01*
X10220D01*
X10120Y23719D01*
Y23519D01*
X10220Y23419D01*
X10520D01*
X9920Y23119D02*
X9520D01*
X8920Y23819D02*
X9320D01*
Y23519D01*
X9120D01*
X9320D01*
Y23219D01*
X8721Y23819D02*
Y23219D01*
X8421D01*
X8321Y23319D01*
Y23419D01*
X8421Y23519D01*
X8721D01*
X8421D01*
X8321Y23619D01*
Y23719D01*
X8421Y23819D01*
X8721D01*
X7721Y23219D02*
X8121D01*
X7721Y23619D01*
Y23719D01*
X7821Y23819D01*
X8021D01*
X8121Y23719D01*
X13518Y26109D02*
X13618Y26209D01*
X13818D01*
X13918Y26109D01*
Y26009D01*
X13818Y25909D01*
X13618D01*
X13518Y25809D01*
Y25709D01*
X13618Y25609D01*
X13818D01*
X13918Y25709D01*
X13318Y26209D02*
Y25709D01*
X13218Y25609D01*
X13018D01*
X12918Y25709D01*
Y26209D01*
X12718Y25609D02*
Y26209D01*
X12418D01*
X12318Y26109D01*
Y25909D01*
X12418Y25809D01*
X12718D01*
X12118Y25609D02*
Y26209D01*
X11818D01*
X11718Y26109D01*
Y25909D01*
X11818Y25809D01*
X12118D01*
X11518Y25509D02*
X11119D01*
X10519Y26109D02*
X10619Y26209D01*
X10819D01*
X10919Y26109D01*
Y25709D01*
X10819Y25609D01*
X10619D01*
X10519Y25709D01*
X10019Y25609D02*
Y26209D01*
X10319Y25909D01*
X9919D01*
X12608Y26169D02*
X12708Y26269D01*
X12908D01*
X13008Y26169D01*
Y26069D01*
X12908Y25969D01*
X12708D01*
X12608Y25869D01*
Y25769D01*
X12708Y25669D01*
X12908D01*
X13008Y25769D01*
X12408Y26269D02*
Y25769D01*
X12308Y25669D01*
X12108D01*
X12008Y25769D01*
Y26269D01*
X11808Y25669D02*
Y26269D01*
X11508D01*
X11408Y26169D01*
Y25969D01*
X11508Y25869D01*
X11808D01*
X11208Y25669D02*
Y26269D01*
X10908D01*
X10808Y26169D01*
Y25969D01*
X10908Y25869D01*
X11208D01*
X10608Y25569D02*
X10209D01*
X9609Y26169D02*
X9709Y26269D01*
X9909D01*
X10009Y26169D01*
Y25769D01*
X9909Y25669D01*
X9709D01*
X9609Y25769D01*
X9409Y26169D02*
X9309Y26269D01*
X9109D01*
X9009Y26169D01*
Y26069D01*
X9109Y25969D01*
X9209D01*
X9109D01*
X9009Y25869D01*
Y25769D01*
X9109Y25669D01*
X9309D01*
X9409Y25769D01*
X12658Y24959D02*
X12758Y25059D01*
X12958D01*
X13058Y24959D01*
Y24859D01*
X12958Y24759D01*
X12758D01*
X12658Y24659D01*
Y24559D01*
X12758Y24459D01*
X12958D01*
X13058Y24559D01*
X12458Y25059D02*
Y24559D01*
X12358Y24459D01*
X12158D01*
X12058Y24559D01*
Y25059D01*
X11858Y24459D02*
Y25059D01*
X11558D01*
X11458Y24959D01*
Y24759D01*
X11558Y24659D01*
X11858D01*
X11258Y24459D02*
Y25059D01*
X10958D01*
X10858Y24959D01*
Y24759D01*
X10958Y24659D01*
X11258D01*
X10658Y24359D02*
X10259D01*
X9659Y24959D02*
X9759Y25059D01*
X9959D01*
X10059Y24959D01*
Y24559D01*
X9959Y24459D01*
X9759D01*
X9659Y24559D01*
X9059Y24459D02*
X9459D01*
X9059Y24859D01*
Y24959D01*
X9159Y25059D01*
X9359D01*
X9459Y24959D01*
X13208Y24939D02*
X13308Y25039D01*
X13508D01*
X13608Y24939D01*
Y24839D01*
X13508Y24739D01*
X13308D01*
X13208Y24639D01*
Y24539D01*
X13308Y24439D01*
X13508D01*
X13608Y24539D01*
X13008Y25039D02*
Y24539D01*
X12908Y24439D01*
X12708D01*
X12608Y24539D01*
Y25039D01*
X12408Y24439D02*
Y25039D01*
X12108D01*
X12008Y24939D01*
Y24739D01*
X12108Y24639D01*
X12408D01*
X11808Y24439D02*
Y25039D01*
X11508D01*
X11408Y24939D01*
Y24739D01*
X11508Y24639D01*
X11808D01*
X11208Y24339D02*
X10809D01*
X10209Y24939D02*
X10309Y25039D01*
X10509D01*
X10609Y24939D01*
Y24539D01*
X10509Y24439D01*
X10309D01*
X10209Y24539D01*
X10009Y24439D02*
X9809D01*
X9909D01*
Y25039D01*
X10009Y24939D01*
X15119Y18690D02*
Y19289D01*
X14819D01*
X14719Y19189D01*
Y18989D01*
X14819Y18889D01*
X15119D01*
X14919D02*
X14719Y18690D01*
X14119Y19289D02*
X14519D01*
Y18690D01*
X14119D01*
X14519Y18989D02*
X14319D01*
X13519Y19289D02*
X13919D01*
Y18989D01*
X13719D01*
X13919D01*
Y18690D01*
X13319Y18590D02*
X12920D01*
X12720Y19289D02*
Y18789D01*
X12620Y18690D01*
X12420D01*
X12320Y18789D01*
Y19289D01*
X12120Y18690D02*
X11920D01*
X12020D01*
Y19289D01*
X12120Y19189D01*
X14281Y29144D02*
X14081D01*
X14181D01*
Y28544D01*
X14281D01*
X14081D01*
X13781D02*
X13581D01*
X13681D01*
Y29144D01*
X13781Y29044D01*
X12881Y28544D02*
X13281D01*
X12881Y28944D01*
Y29044D01*
X12981Y29144D01*
X13181D01*
X13281Y29044D01*
X12171Y27784D02*
X11971D01*
X12071D01*
Y27184D01*
X12171D01*
X11971D01*
X11671Y27284D02*
X11571Y27184D01*
X11371D01*
X11271Y27284D01*
Y27684D01*
X11371Y27784D01*
X11571D01*
X11671Y27684D01*
Y27584D01*
X11571Y27484D01*
X11271D01*
X12201Y28964D02*
X12001D01*
X12101D01*
Y28364D01*
X12201D01*
X12001D01*
X11701Y28864D02*
X11601Y28964D01*
X11401D01*
X11301Y28864D01*
Y28764D01*
X11401Y28664D01*
X11301Y28564D01*
Y28464D01*
X11401Y28364D01*
X11601D01*
X11701Y28464D01*
Y28564D01*
X11601Y28664D01*
X11701Y28764D01*
Y28864D01*
X11601Y28664D02*
X11401D01*
X12640Y27790D02*
X12440D01*
X12540D01*
Y27190D01*
X12640D01*
X12440D01*
X11740D02*
X12140D01*
X11740Y27590D01*
Y27690D01*
X11840Y27790D01*
X12040D01*
X12140Y27690D01*
X12650Y28950D02*
X12450D01*
X12550D01*
Y28350D01*
X12650D01*
X12450D01*
X12150D02*
X11950D01*
X12050D01*
Y28950D01*
X12150Y28850D01*
X15498Y18297D02*
X15898D01*
Y17997D01*
X15698D01*
X15898D01*
Y17697D01*
X14898Y18197D02*
X14998Y18297D01*
X15198D01*
X15298Y18197D01*
Y18097D01*
X15198Y17997D01*
X14998D01*
X14898Y17897D01*
Y17797D01*
X14998Y17697D01*
X15198D01*
X15298Y17797D01*
X14698Y17597D02*
X14298D01*
X13698Y18197D02*
X13798Y18297D01*
X13998D01*
X14098Y18197D01*
Y17797D01*
X13998Y17697D01*
X13798D01*
X13698Y17797D01*
X13099Y18297D02*
X13299Y18197D01*
X13498Y17997D01*
Y17797D01*
X13399Y17697D01*
X13199D01*
X13099Y17797D01*
Y17897D01*
X13199Y17997D01*
X13498D01*
X16285Y18294D02*
X16685D01*
Y17994D01*
X16485D01*
X16685D01*
Y17695D01*
X15686Y18194D02*
X15786Y18294D01*
X15985D01*
X16085Y18194D01*
Y18094D01*
X15985Y17994D01*
X15786D01*
X15686Y17895D01*
Y17795D01*
X15786Y17695D01*
X15985D01*
X16085Y17795D01*
X15486Y17595D02*
X15086D01*
X14486Y18194D02*
X14586Y18294D01*
X14786D01*
X14886Y18194D01*
Y17795D01*
X14786Y17695D01*
X14586D01*
X14486Y17795D01*
X13986Y17695D02*
Y18294D01*
X14286Y17994D01*
X13886D01*
X17503Y18296D02*
X17903D01*
Y17996D01*
X17703D01*
X17903D01*
Y17696D01*
X16903Y18196D02*
X17003Y18296D01*
X17203D01*
X17303Y18196D01*
Y18096D01*
X17203Y17996D01*
X17003D01*
X16903Y17896D01*
Y17796D01*
X17003Y17696D01*
X17203D01*
X17303Y17796D01*
X16703Y17596D02*
X16303D01*
X15704Y18196D02*
X15804Y18296D01*
X16004D01*
X16104Y18196D01*
Y17796D01*
X16004Y17696D01*
X15804D01*
X15704Y17796D01*
X15104Y17696D02*
X15504D01*
X15104Y18096D01*
Y18196D01*
X15204Y18296D01*
X15404D01*
X15504Y18196D01*
X18108Y27094D02*
Y27494D01*
X17908Y27694D01*
X17708Y27494D01*
Y27094D01*
Y27394D01*
X18108D01*
X17508Y27694D02*
Y27294D01*
X17308Y27094D01*
X17108Y27294D01*
Y27694D01*
X16908Y27094D02*
Y27694D01*
X16609D01*
X16509Y27594D01*
Y27394D01*
X16609Y27294D01*
X16908D01*
X16708D02*
X16509Y27094D01*
X16309Y26994D02*
X15909D01*
X15309Y27594D02*
X15409Y27694D01*
X15609D01*
X15709Y27594D01*
Y27194D01*
X15609Y27094D01*
X15409D01*
X15309Y27194D01*
X14709Y27694D02*
X15109D01*
Y27394D01*
X14909Y27494D01*
X14809D01*
X14709Y27394D01*
Y27194D01*
X14809Y27094D01*
X15009D01*
X15109Y27194D01*
X14899Y16390D02*
Y16789D01*
X14699Y16989D01*
X14499Y16789D01*
Y16390D01*
Y16689D01*
X14899D01*
X14299Y16989D02*
Y16390D01*
X13999D01*
X13899Y16489D01*
Y16889D01*
X13999Y16989D01*
X14299D01*
X13299Y16889D02*
X13399Y16989D01*
X13599D01*
X13699Y16889D01*
Y16489D01*
X13599Y16390D01*
X13399D01*
X13299Y16489D01*
X13099Y16290D02*
X12700D01*
X12100Y16889D02*
X12200Y16989D01*
X12400D01*
X12500Y16889D01*
Y16489D01*
X12400Y16390D01*
X12200D01*
X12100Y16489D01*
X11900Y16989D02*
X11500D01*
Y16889D01*
X11900Y16489D01*
Y16390D01*
X12459Y18420D02*
Y18819D01*
X12259Y19019D01*
X12059Y18819D01*
Y18420D01*
Y18719D01*
X12459D01*
X11859Y19019D02*
Y18420D01*
X11559D01*
X11459Y18520D01*
Y18919D01*
X11559Y19019D01*
X11859D01*
X10859Y18919D02*
X10959Y19019D01*
X11159D01*
X11259Y18919D01*
Y18520D01*
X11159Y18420D01*
X10959D01*
X10859Y18520D01*
X10659Y18320D02*
X10260D01*
X9660Y18919D02*
X9760Y19019D01*
X9960D01*
X10060Y18919D01*
Y18520D01*
X9960Y18420D01*
X9760D01*
X9660Y18520D01*
X9060Y19019D02*
X9460D01*
Y18719D01*
X9260Y18819D01*
X9160D01*
X9060Y18719D01*
Y18520D01*
X9160Y18420D01*
X9360D01*
X9460Y18520D01*
X12378Y16685D02*
Y17085D01*
X12178Y17285D01*
X11979Y17085D01*
Y16685D01*
Y16985D01*
X12378D01*
X11779Y17285D02*
Y16685D01*
X11479D01*
X11379Y16785D01*
Y17185D01*
X11479Y17285D01*
X11779D01*
X10779Y17185D02*
X10879Y17285D01*
X11079D01*
X11179Y17185D01*
Y16785D01*
X11079Y16685D01*
X10879D01*
X10779Y16785D01*
X10579Y16585D02*
X10179D01*
X9579Y17185D02*
X9679Y17285D01*
X9879D01*
X9979Y17185D01*
Y16785D01*
X9879Y16685D01*
X9679D01*
X9579Y16785D01*
X8980Y16685D02*
X9379D01*
X8980Y17085D01*
Y17185D01*
X9079Y17285D01*
X9279D01*
X9379Y17185D01*
X16200Y13820D02*
Y14420D01*
X16000Y14220D01*
X15800Y14420D01*
Y13820D01*
X15600Y14420D02*
Y13920D01*
X15500Y13820D01*
X15300D01*
X15200Y13920D01*
Y14420D01*
X15000D02*
X14600Y13820D01*
Y14420D02*
X15000Y13820D01*
X14400Y13721D02*
X14000D01*
X13800Y14420D02*
Y13920D01*
X13700Y13820D01*
X13501D01*
X13401Y13920D01*
Y14420D01*
X13201Y13820D02*
X13001D01*
X13101D01*
Y14420D01*
X13201Y14320D01*
X13471Y28344D02*
X13271D01*
X13371D01*
Y27744D01*
X13471D01*
X13271D01*
X12971D02*
X12771D01*
X12871D01*
Y28344D01*
X12971Y28244D01*
X12471D02*
X12371Y28344D01*
X12171D01*
X12071Y28244D01*
Y27844D01*
X12171Y27744D01*
X12371D01*
X12471Y27844D01*
Y28244D01*
X17446Y12282D02*
Y12882D01*
X17246Y12682D01*
X17046Y12882D01*
Y12282D01*
X16846Y12882D02*
Y12382D01*
X16746Y12282D01*
X16546D01*
X16446Y12382D01*
Y12882D01*
X16246D02*
X15847Y12282D01*
Y12882D02*
X16246Y12282D01*
X15647Y12182D02*
X15247D01*
X14647Y12782D02*
X14747Y12882D01*
X14947D01*
X15047Y12782D01*
Y12382D01*
X14947Y12282D01*
X14747D01*
X14647Y12382D01*
X14447Y12282D02*
X14247D01*
X14347D01*
Y12882D01*
X14447Y12782D01*
X15398Y25394D02*
Y25794D01*
X15198Y25994D01*
X14998Y25794D01*
Y25394D01*
Y25694D01*
X15398D01*
X14798Y25994D02*
Y25594D01*
X14598Y25394D01*
X14398Y25594D01*
Y25994D01*
X14198Y25394D02*
Y25994D01*
X13899D01*
X13799Y25894D01*
Y25694D01*
X13899Y25594D01*
X14198D01*
X13998D02*
X13799Y25394D01*
X13599Y25294D02*
X13199D01*
X12599Y25894D02*
X12699Y25994D01*
X12899D01*
X12999Y25894D01*
Y25494D01*
X12899Y25394D01*
X12699D01*
X12599Y25494D01*
X12099Y25394D02*
Y25994D01*
X12399Y25694D01*
X11999D01*
X17768Y22704D02*
Y23104D01*
X17568Y23304D01*
X17368Y23104D01*
Y22704D01*
Y23004D01*
X17768D01*
X17168Y23304D02*
Y22904D01*
X16968Y22704D01*
X16768Y22904D01*
Y23304D01*
X16568Y22704D02*
Y23304D01*
X16269D01*
X16169Y23204D01*
Y23004D01*
X16269Y22904D01*
X16568D01*
X16368D02*
X16169Y22704D01*
X15969Y22604D02*
X15569D01*
X14969Y23204D02*
X15069Y23304D01*
X15269D01*
X15369Y23204D01*
Y22804D01*
X15269Y22704D01*
X15069D01*
X14969Y22804D01*
X14769Y23204D02*
X14669Y23304D01*
X14469D01*
X14369Y23204D01*
Y23104D01*
X14469Y23004D01*
X14569D01*
X14469D01*
X14369Y22904D01*
Y22804D01*
X14469Y22704D01*
X14669D01*
X14769Y22804D01*
X19768Y25394D02*
Y25794D01*
X19568Y25994D01*
X19368Y25794D01*
Y25394D01*
Y25694D01*
X19768D01*
X19168Y25994D02*
Y25594D01*
X18968Y25394D01*
X18768Y25594D01*
Y25994D01*
X18568Y25394D02*
Y25994D01*
X18269D01*
X18169Y25894D01*
Y25694D01*
X18269Y25594D01*
X18568D01*
X18368D02*
X18169Y25394D01*
X17969Y25294D02*
X17569D01*
X16969Y25894D02*
X17069Y25994D01*
X17269D01*
X17369Y25894D01*
Y25494D01*
X17269Y25394D01*
X17069D01*
X16969Y25494D01*
X16369Y25394D02*
X16769D01*
X16369Y25794D01*
Y25894D01*
X16469Y25994D01*
X16669D01*
X16769Y25894D01*
X14809Y15870D02*
Y16269D01*
X14609Y16469D01*
X14409Y16269D01*
Y15870D01*
Y16169D01*
X14809D01*
X14209Y16469D02*
Y15870D01*
X13909D01*
X13809Y15970D01*
Y16369D01*
X13909Y16469D01*
X14209D01*
X13209Y16369D02*
X13309Y16469D01*
X13509D01*
X13609Y16369D01*
Y15970D01*
X13509Y15870D01*
X13309D01*
X13209Y15970D01*
X13009Y15770D02*
X12610D01*
X12010Y16369D02*
X12110Y16469D01*
X12310D01*
X12410Y16369D01*
Y15970D01*
X12310Y15870D01*
X12110D01*
X12010Y15970D01*
X11510Y15870D02*
Y16469D01*
X11810Y16169D01*
X11410D01*
X12770Y13630D02*
Y14230D01*
X12570Y14030D01*
X12370Y14230D01*
Y13630D01*
X11870Y14230D02*
X12070D01*
X12170Y14130D01*
Y13730D01*
X12070Y13630D01*
X11870D01*
X11770Y13730D01*
Y14130D01*
X11870Y14230D01*
X11171Y14130D02*
X11270Y14230D01*
X11470D01*
X11570Y14130D01*
Y14030D01*
X11470Y13930D01*
X11270D01*
X11171Y13830D01*
Y13730D01*
X11270Y13630D01*
X11470D01*
X11570Y13730D01*
X10971Y13530D02*
X10571D01*
X9971Y14230D02*
X10171D01*
X10071D01*
Y13730D01*
X10171Y13630D01*
X10271D01*
X10371Y13730D01*
X9771Y13630D02*
X9571D01*
X9671D01*
Y14230D01*
X9771Y14130D01*
X13782Y16830D02*
Y17230D01*
X13583Y17430D01*
X13383Y17230D01*
Y16830D01*
Y17130D01*
X13782D01*
X13183Y17430D02*
Y16830D01*
X12883D01*
X12783Y16930D01*
Y17330D01*
X12883Y17430D01*
X13183D01*
X12183Y17330D02*
X12283Y17430D01*
X12483D01*
X12583Y17330D01*
Y16930D01*
X12483Y16830D01*
X12283D01*
X12183Y16930D01*
X11983Y16730D02*
X11583D01*
X10983Y17430D02*
X11183D01*
X11083D01*
Y16930D01*
X11183Y16830D01*
X11283D01*
X11383Y16930D01*
X10384Y16830D02*
X10783D01*
X10384Y17230D01*
Y17330D01*
X10484Y17430D01*
X10683D01*
X10783Y17330D01*
X17602Y15769D02*
X17702Y15869D01*
X17902D01*
X18002Y15769D01*
Y15369D01*
X17902Y15269D01*
X17702D01*
X17602Y15369D01*
X17002Y15769D02*
X17102Y15869D01*
X17302D01*
X17402Y15769D01*
Y15669D01*
X17302Y15569D01*
X17102D01*
X17002Y15469D01*
Y15369D01*
X17102Y15269D01*
X17302D01*
X17402Y15369D01*
X16802Y15169D02*
X16402D01*
X15802Y15769D02*
X15902Y15869D01*
X16102D01*
X16202Y15769D01*
Y15369D01*
X16102Y15269D01*
X15902D01*
X15802Y15369D01*
X15202Y15269D02*
X15602D01*
X15202Y15669D01*
Y15769D01*
X15302Y15869D01*
X15502D01*
X15602Y15769D01*
X16272Y15319D02*
X16372Y15419D01*
X16572D01*
X16672Y15319D01*
Y14919D01*
X16572Y14819D01*
X16372D01*
X16272Y14919D01*
X15672Y15319D02*
X15772Y15419D01*
X15972D01*
X16072Y15319D01*
Y15219D01*
X15972Y15119D01*
X15772D01*
X15672Y15019D01*
Y14919D01*
X15772Y14819D01*
X15972D01*
X16072Y14919D01*
X15472Y14719D02*
X15072D01*
X14872Y14819D02*
Y15419D01*
X14572D01*
X14472Y15319D01*
Y15119D01*
X14572Y15019D01*
X14872D01*
X14672D02*
X14472Y14819D01*
X14272Y15319D02*
X14172Y15419D01*
X13972D01*
X13872Y15319D01*
Y15219D01*
X13972Y15119D01*
X14072D01*
X13972D01*
X13872Y15019D01*
Y14919D01*
X13972Y14819D01*
X14172D01*
X14272Y14919D01*
X17872Y15299D02*
X17972Y15399D01*
X18172D01*
X18272Y15299D01*
Y14899D01*
X18172Y14799D01*
X17972D01*
X17872Y14899D01*
X17272Y15299D02*
X17372Y15399D01*
X17572D01*
X17672Y15299D01*
Y15199D01*
X17572Y15099D01*
X17372D01*
X17272Y14999D01*
Y14899D01*
X17372Y14799D01*
X17572D01*
X17672Y14899D01*
X17072Y14699D02*
X16672D01*
X16472Y15399D02*
Y14899D01*
X16372Y14799D01*
X16172D01*
X16072Y14899D01*
Y15399D01*
X15872Y14799D02*
X15672D01*
X15772D01*
Y15399D01*
X15872Y15299D01*
X18118Y23744D02*
Y24144D01*
X17918Y24344D01*
X17718Y24144D01*
Y23744D01*
Y24044D01*
X18118D01*
X17518Y24344D02*
Y23944D01*
X17318Y23744D01*
X17118Y23944D01*
Y24344D01*
X16918Y23744D02*
Y24344D01*
X16619D01*
X16519Y24244D01*
Y24044D01*
X16619Y23944D01*
X16918D01*
X16718D02*
X16519Y23744D01*
X16319Y23644D02*
X15919D01*
X15319Y24244D02*
X15419Y24344D01*
X15619D01*
X15719Y24244D01*
Y23844D01*
X15619Y23744D01*
X15419D01*
X15319Y23844D01*
X15119Y23744D02*
X14919D01*
X15019D01*
Y24344D01*
X15119Y24244D01*
X18518Y24884D02*
Y25284D01*
X18318Y25484D01*
X18118Y25284D01*
Y24884D01*
Y25184D01*
X18518D01*
X17918Y25484D02*
Y25084D01*
X17718Y24884D01*
X17518Y25084D01*
Y25484D01*
X17318Y24884D02*
Y25484D01*
X17019D01*
X16919Y25384D01*
Y25184D01*
X17019Y25084D01*
X17318D01*
X17118D02*
X16919Y24884D01*
X16719Y24784D02*
X16319D01*
X15719Y25384D02*
X15819Y25484D01*
X16019D01*
X16119Y25384D01*
Y24984D01*
X16019Y24884D01*
X15819D01*
X15719Y24984D01*
X15119Y25484D02*
X15319Y25384D01*
X15519Y25184D01*
Y24984D01*
X15419Y24884D01*
X15219D01*
X15119Y24984D01*
Y25084D01*
X15219Y25184D01*
X15519D01*
X16958Y24194D02*
Y24594D01*
X16758Y24794D01*
X16558Y24594D01*
Y24194D01*
Y24494D01*
X16958D01*
X16358Y24794D02*
Y24394D01*
X16158Y24194D01*
X15958Y24394D01*
Y24794D01*
X15758Y24194D02*
Y24794D01*
X15459D01*
X15359Y24694D01*
Y24494D01*
X15459Y24394D01*
X15758D01*
X15558D02*
X15359Y24194D01*
X15159Y24094D02*
X14759D01*
X14559Y24194D02*
Y24794D01*
X14259D01*
X14159Y24694D01*
Y24494D01*
X14259Y24394D01*
X14559D01*
X14359D02*
X14159Y24194D01*
X13959D02*
X13759D01*
X13859D01*
Y24794D01*
X13959Y24694D01*
X18501Y25817D02*
Y26217D01*
X18302Y26417D01*
X18102Y26217D01*
Y25817D01*
Y26117D01*
X18501D01*
X17902Y26417D02*
Y26017D01*
X17702Y25817D01*
X17502Y26017D01*
Y26417D01*
X17302Y25817D02*
Y26417D01*
X17002D01*
X16902Y26317D01*
Y26117D01*
X17002Y26017D01*
X17302D01*
X17102D02*
X16902Y25817D01*
X16702Y25717D02*
X16302D01*
X16102Y25817D02*
Y26417D01*
X15802D01*
X15702Y26317D01*
Y26117D01*
X15802Y26017D01*
X16102D01*
X15902D02*
X15702Y25817D01*
X15103D02*
X15502D01*
X15103Y26217D01*
Y26317D01*
X15203Y26417D01*
X15402D01*
X15502Y26317D01*
X16908Y26434D02*
Y26834D01*
X16708Y27034D01*
X16508Y26834D01*
Y26434D01*
Y26734D01*
X16908D01*
X16308Y27034D02*
Y26634D01*
X16108Y26434D01*
X15908Y26634D01*
Y27034D01*
X15708Y26434D02*
Y27034D01*
X15409D01*
X15309Y26934D01*
Y26734D01*
X15409Y26634D01*
X15708D01*
X15508D02*
X15309Y26434D01*
X15109Y26334D02*
X14709D01*
X14509Y26434D02*
Y27034D01*
X14209D01*
X14109Y26934D01*
Y26734D01*
X14209Y26634D01*
X14509D01*
X14309D02*
X14109Y26434D01*
X13909Y26934D02*
X13809Y27034D01*
X13609D01*
X13509Y26934D01*
Y26834D01*
X13609Y26734D01*
X13709D01*
X13609D01*
X13509Y26634D01*
Y26534D01*
X13609Y26434D01*
X13809D01*
X13909Y26534D01*
X18108Y24194D02*
Y24594D01*
X17908Y24794D01*
X17708Y24594D01*
Y24194D01*
Y24494D01*
X18108D01*
X17508Y24794D02*
Y24394D01*
X17308Y24194D01*
X17108Y24394D01*
Y24794D01*
X16908Y24194D02*
Y24794D01*
X16609D01*
X16509Y24694D01*
Y24494D01*
X16609Y24394D01*
X16908D01*
X16708D02*
X16509Y24194D01*
X16309Y24094D02*
X15909D01*
X15709Y24194D02*
Y24794D01*
X15409D01*
X15309Y24694D01*
Y24494D01*
X15409Y24394D01*
X15709D01*
X15509D02*
X15309Y24194D01*
X14809D02*
Y24794D01*
X15109Y24494D01*
X14709D01*
X18501Y25344D02*
Y25744D01*
X18302Y25944D01*
X18102Y25744D01*
Y25344D01*
Y25644D01*
X18501D01*
X17902Y25944D02*
Y25544D01*
X17702Y25344D01*
X17502Y25544D01*
Y25944D01*
X17302Y25344D02*
Y25944D01*
X17002D01*
X16902Y25844D01*
Y25644D01*
X17002Y25544D01*
X17302D01*
X17102D02*
X16902Y25344D01*
X16702Y25244D02*
X16302D01*
X16102Y25344D02*
Y25944D01*
X15802D01*
X15702Y25844D01*
Y25644D01*
X15802Y25544D01*
X16102D01*
X15902D02*
X15702Y25344D01*
X15103Y25944D02*
X15502D01*
Y25644D01*
X15303Y25744D01*
X15203D01*
X15103Y25644D01*
Y25444D01*
X15203Y25344D01*
X15402D01*
X15502Y25444D01*
X16958Y23624D02*
Y24224D01*
X16658D01*
X16558Y24124D01*
Y23924D01*
X16658Y23824D01*
X16958D01*
X16758D02*
X16558Y23624D01*
X16358D02*
X16158D01*
X16258D01*
Y24224D01*
X16358Y24124D01*
X16948Y26454D02*
X17048Y26554D01*
X17248D01*
X17348Y26454D01*
Y26354D01*
X17248Y26254D01*
X17048D01*
X16948Y26154D01*
Y26054D01*
X17048Y25954D01*
X17248D01*
X17348Y26054D01*
X16748Y26554D02*
Y26054D01*
X16648Y25954D01*
X16448D01*
X16348Y26054D01*
Y26554D01*
X16148Y25954D02*
Y26554D01*
X15849D01*
X15749Y26454D01*
Y26254D01*
X15849Y26154D01*
X16148D01*
X15549Y25954D02*
Y26554D01*
X15249D01*
X15149Y26454D01*
Y26254D01*
X15249Y26154D01*
X15549D01*
X14949Y25854D02*
X14549D01*
X14349Y26554D02*
Y26054D01*
X14249Y25954D01*
X14049D01*
X13949Y26054D01*
Y26554D01*
X13449Y25954D02*
Y26554D01*
X13749Y26254D01*
X13349D01*
X12197Y12343D02*
Y12942D01*
X11997Y12742D01*
X11797Y12942D01*
Y12343D01*
X11597Y12942D02*
Y12443D01*
X11497Y12343D01*
X11297D01*
X11197Y12443D01*
Y12942D01*
X10997D02*
X10597Y12343D01*
Y12942D02*
X10997Y12343D01*
X10397Y12243D02*
X9998D01*
X9798Y12343D02*
Y12942D01*
X9498D01*
X9398Y12842D01*
Y12643D01*
X9498Y12543D01*
X9798D01*
X9598D02*
X9398Y12343D01*
X9198D02*
X8998D01*
X9098D01*
Y12942D01*
X9198Y12842D01*
D84*
X15167Y16352D02*
G03*
X15167Y16352I-49J0D01*
G01*
X13796Y11209D02*
G03*
X13796Y11209I-49J0D01*
G01*
D85*
X12159Y19882D02*
G03*
X12159Y19882I-20J0D01*
G01*
X15043Y11377D02*
G03*
X14636Y11377I-203J0D01*
G01*
X17749Y14203D02*
G03*
X17749Y14203I-20J0D01*
G01*
X16484Y24912D02*
G03*
X16484Y24912I-20J0D01*
G01*
X13799Y16805D02*
X15059D01*
X13799Y17494D02*
X15059D01*
Y16805D02*
Y17494D01*
X13799Y16805D02*
Y17494D01*
X14229Y11377D02*
X14636D01*
X15043D02*
X15450D01*
X14229Y13384D02*
X15450D01*
X14229Y11377D02*
Y13384D01*
X15450Y11377D02*
Y13384D01*
D87*
X19823Y23169D02*
Y23366D01*
X19468Y23169D02*
Y23366D01*
X13720Y13878D02*
Y14075D01*
X13366Y13878D02*
Y14075D01*
X15098Y13878D02*
Y14075D01*
X14744Y13878D02*
Y14075D01*
X17948Y16024D02*
Y16732D01*
X17279Y16024D02*
Y16732D01*
X16727Y16024D02*
Y16732D01*
X16058Y16024D02*
Y16732D01*
X11490Y19065D02*
Y19262D01*
X11844Y19065D02*
Y19262D01*
X13222Y19429D02*
Y19626D01*
X13576Y19429D02*
Y19626D01*
X13104Y19390D02*
Y20059D01*
X11962Y19390D02*
Y20059D01*
X11161Y22106D02*
X11870D01*
X11161Y22776D02*
X11870D01*
X17530Y26277D02*
X17726D01*
X17530Y26632D02*
X17726D01*
X13651Y26971D02*
Y27679D01*
X14320Y26971D02*
Y27679D01*
X11888Y27387D02*
Y27583D01*
X12243Y27387D02*
Y27583D01*
X12213Y26207D02*
Y26403D01*
X11858Y26207D02*
Y26403D01*
X12713Y27376D02*
Y27573D01*
X12358Y27376D02*
Y27573D01*
X12348Y26216D02*
Y26413D01*
X12703Y26216D02*
Y26413D01*
X13956Y24526D02*
Y24723D01*
X13601Y24526D02*
Y24723D01*
X11884Y23999D02*
X12593D01*
X11884Y23330D02*
X12593D01*
X12440Y22877D02*
X12637D01*
X12440Y23232D02*
X12637D01*
X13646Y23356D02*
Y23553D01*
X13291Y23356D02*
Y23553D01*
X11834Y25209D02*
X12543D01*
X11834Y24540D02*
X12543D01*
X12340Y24442D02*
X12537D01*
X12340Y24087D02*
X12537D01*
X13151Y24516D02*
Y24713D01*
X13506Y24516D02*
Y24713D01*
X14230Y15052D02*
X14427D01*
X14230Y15407D02*
X14427D01*
X15271Y16024D02*
Y16732D01*
X15940Y16024D02*
Y16732D01*
X14320Y15572D02*
X14517D01*
X14320Y15927D02*
X14517D01*
X12503Y16745D02*
Y17454D01*
X11834Y16745D02*
Y17454D01*
X11802Y16227D02*
X11998D01*
X11802Y15873D02*
X11998D01*
X13513Y26767D02*
Y26963D01*
X13158Y26767D02*
Y26963D01*
X16870Y11820D02*
X17067D01*
X16870Y11466D02*
X17067D01*
X15435Y24316D02*
Y24513D01*
X15081Y24316D02*
Y24513D01*
X17190Y22242D02*
X17386D01*
X17190Y21887D02*
X17386D01*
X19451Y24316D02*
Y24513D01*
X19805Y24316D02*
Y24513D01*
X17237Y13986D02*
X17237Y13632D01*
Y13238D02*
X17906D01*
X17237Y14380D02*
X17906D01*
X16729Y13750D02*
Y13947D01*
X16374Y13750D02*
Y13947D01*
X17423Y14452D02*
X17620D01*
X17423Y14806D02*
X17620D01*
X17933Y25020D02*
X18130D01*
X17933Y25374D02*
X18130D01*
X17933Y24902D02*
X18130D01*
X17933Y24547D02*
X18130D01*
X17540Y23752D02*
X17736D01*
X17540Y23397D02*
X17736D01*
X16390Y23752D02*
X16586D01*
X16390Y23397D02*
X16586D01*
X17540Y22927D02*
X17736D01*
X17540Y23282D02*
X17736D01*
X16390D02*
X16586D01*
X16390Y22927D02*
X16586D01*
X16287Y24420D02*
Y25089D01*
X17429Y24420D02*
Y25089D01*
X17940Y24067D02*
X18136D01*
X17940Y24422D02*
X18136D01*
X16340Y25637D02*
X16536D01*
X16340Y25992D02*
X16536D01*
M02*
