G04 Layer_Physical_Order=1*
G04 Layer_Color=255*
%FSLAX24Y24*%
%MOIN*%
G70*
G01*
G75*
%ADD10R,0.0335X0.0157*%
%ADD11R,0.0374X0.0394*%
%ADD12R,0.0354X0.0354*%
%ADD13R,0.1496X0.0394*%
%ADD14R,0.0394X0.1496*%
%ADD15R,0.0394X0.1276*%
%ADD16R,0.1406X0.0394*%
%ADD17R,0.1276X0.0394*%
%ADD18R,0.0394X0.1406*%
%ADD19R,0.0244X0.0480*%
%ADD20R,0.0354X0.0354*%
%ADD21R,0.0394X0.0374*%
%ADD22R,0.0669X0.0433*%
%ADD23R,0.0709X0.0787*%
%ADD24R,0.0846X0.1358*%
%ADD25R,0.0846X0.0276*%
%ADD26O,0.0433X0.0120*%
%ADD27R,0.0661X0.0740*%
%ADD28O,0.0551X0.0177*%
%ADD29O,0.0768X0.0157*%
%ADD30O,0.0571X0.0217*%
%ADD31O,0.0217X0.0571*%
%ADD32O,0.0157X0.0472*%
%ADD33R,0.0177X0.0177*%
%ADD34R,0.0118X0.0177*%
%ADD35O,0.0591X0.0177*%
%ADD36R,0.0453X0.0709*%
%ADD37C,0.0100*%
%ADD38C,0.0120*%
%ADD39C,0.0150*%
%ADD40C,0.0320*%
%ADD41C,0.0350*%
%ADD42C,0.0300*%
%ADD43C,0.0160*%
%ADD44C,0.0200*%
%ADD45C,0.0240*%
%ADD46C,0.0250*%
%ADD47C,0.0170*%
%ADD48C,0.0110*%
%ADD49C,0.0270*%
%ADD50C,0.0220*%
%ADD51C,0.0180*%
%ADD52C,0.0060*%
%ADD53R,0.0570X0.0790*%
%ADD54R,0.0645X0.0469*%
%ADD55R,0.0297X0.0250*%
%ADD56R,0.1443X0.0933*%
%ADD57R,0.1232X0.0930*%
%ADD58R,0.0340X0.0130*%
%ADD59R,0.0410X0.0320*%
%ADD60C,0.0591*%
%ADD61R,0.0591X0.0591*%
%ADD62R,0.0591X0.0591*%
%ADD63C,0.0320*%
D10*
X13154Y11800D02*
D03*
X13154Y12056D02*
D03*
Y11544D02*
D03*
X12406D02*
D03*
Y11800D02*
D03*
Y12056D02*
D03*
D11*
X12406Y11120D02*
D03*
X13114D02*
D03*
X15000Y14291D02*
D03*
X15709D02*
D03*
X14291Y17992D02*
D03*
X15000D02*
D03*
X13937Y14291D02*
D03*
X14646D02*
D03*
X16157Y15315D02*
D03*
X16865D02*
D03*
X17928D02*
D03*
X17220D02*
D03*
X12173Y18040D02*
D03*
X11464D02*
D03*
X18957Y14289D02*
D03*
X19666D02*
D03*
D12*
X12420Y12286D02*
D03*
Y12994D02*
D03*
X18401Y16730D02*
D03*
Y16022D02*
D03*
X15608Y16673D02*
D03*
Y15965D02*
D03*
X18952Y13873D02*
D03*
Y13165D02*
D03*
D13*
X18177Y20870D02*
D03*
X15815D02*
D03*
X13453D02*
D03*
Y10630D02*
D03*
X15815D02*
D03*
X18177D02*
D03*
D14*
X20870Y13453D02*
D03*
Y15815D02*
D03*
Y18177D02*
D03*
X10630D02*
D03*
Y15815D02*
D03*
Y13453D02*
D03*
D15*
X20870Y20429D02*
D03*
X10630D02*
D03*
D16*
X20364Y20870D02*
D03*
X11136D02*
D03*
Y10630D02*
D03*
D17*
X20429D02*
D03*
D18*
X20870Y11136D02*
D03*
X10630D02*
D03*
D19*
X19154Y18303D02*
D03*
Y19335D02*
D03*
X18780Y18303D02*
D03*
Y19335D02*
D03*
X18406D02*
D03*
Y18303D02*
D03*
D20*
X18661Y17795D02*
D03*
X17953D02*
D03*
X19134D02*
D03*
X19843D02*
D03*
X15999Y17087D02*
D03*
X16708D02*
D03*
X17889D02*
D03*
X17180D02*
D03*
X14046Y27950D02*
D03*
X14754D02*
D03*
X11339Y25952D02*
D03*
X12048D02*
D03*
X15197Y27953D02*
D03*
X15906D02*
D03*
X12246Y27950D02*
D03*
X12954D02*
D03*
X16811Y21417D02*
D03*
X16102D02*
D03*
X17205Y14803D02*
D03*
X17913D02*
D03*
X18346Y27087D02*
D03*
X17638D02*
D03*
D21*
X13543Y13583D02*
D03*
Y14291D02*
D03*
X14536Y27239D02*
D03*
Y26531D02*
D03*
D22*
X19134Y16004D02*
D03*
Y17303D02*
D03*
D23*
X14026Y21978D02*
D03*
X10955D02*
D03*
D24*
X11105Y24335D02*
D03*
D25*
X13546Y25329D02*
D03*
Y24827D02*
D03*
Y24315D02*
D03*
Y23813D02*
D03*
Y23311D02*
D03*
D26*
X17904Y15785D02*
D03*
Y15982D02*
D03*
Y16179D02*
D03*
Y16376D02*
D03*
Y16573D02*
D03*
X16132Y15785D02*
D03*
Y15982D02*
D03*
Y16179D02*
D03*
Y16376D02*
D03*
Y16573D02*
D03*
D27*
X17018Y16179D02*
D03*
D28*
X16021Y11703D02*
D03*
Y11959D02*
D03*
Y12215D02*
D03*
Y12470D02*
D03*
Y12726D02*
D03*
Y12982D02*
D03*
Y13238D02*
D03*
X13698Y11703D02*
D03*
Y11959D02*
D03*
Y12215D02*
D03*
Y12470D02*
D03*
Y12726D02*
D03*
Y12982D02*
D03*
Y13238D02*
D03*
D29*
X12010Y27294D02*
D03*
Y27044D02*
D03*
Y26794D02*
D03*
Y26544D02*
D03*
X13841Y27294D02*
D03*
Y27044D02*
D03*
Y26794D02*
D03*
Y26544D02*
D03*
D30*
X15257Y22683D02*
D03*
Y22998D02*
D03*
Y23313D02*
D03*
Y23628D02*
D03*
Y23943D02*
D03*
Y24258D02*
D03*
Y24573D02*
D03*
Y24888D02*
D03*
Y25203D02*
D03*
Y25518D02*
D03*
Y25833D02*
D03*
X19666D02*
D03*
Y25518D02*
D03*
Y25203D02*
D03*
Y24888D02*
D03*
Y24573D02*
D03*
Y24258D02*
D03*
Y23943D02*
D03*
Y23628D02*
D03*
Y23313D02*
D03*
Y22998D02*
D03*
Y22683D02*
D03*
D31*
X15887Y26463D02*
D03*
X16202D02*
D03*
X16517D02*
D03*
X16832D02*
D03*
X17147D02*
D03*
X17462D02*
D03*
X17777D02*
D03*
X18092D02*
D03*
X18407D02*
D03*
X18722D02*
D03*
X19037D02*
D03*
Y22053D02*
D03*
X18722D02*
D03*
X18407D02*
D03*
X18092D02*
D03*
X17777D02*
D03*
X17462D02*
D03*
X17147D02*
D03*
X16832D02*
D03*
X16517D02*
D03*
X16202D02*
D03*
X15887D02*
D03*
D32*
X11991Y15207D02*
D03*
X12247D02*
D03*
X12503D02*
D03*
X12759D02*
D03*
X13015D02*
D03*
X13271D02*
D03*
X13527D02*
D03*
X13783D02*
D03*
X14039D02*
D03*
X14294D02*
D03*
X14550D02*
D03*
X14806D02*
D03*
X11991Y17452D02*
D03*
X12247D02*
D03*
X12503D02*
D03*
X12759D02*
D03*
X13015D02*
D03*
X13271D02*
D03*
X13527D02*
D03*
X13783D02*
D03*
X14039D02*
D03*
X14294D02*
D03*
X14550D02*
D03*
X14806D02*
D03*
D33*
X12539Y17875D02*
D03*
X13169D02*
D03*
Y18200D02*
D03*
X12539D02*
D03*
D34*
X12949Y17875D02*
D03*
X12759D02*
D03*
Y18200D02*
D03*
X12949D02*
D03*
D35*
X18379Y13525D02*
D03*
Y13781D02*
D03*
Y14037D02*
D03*
Y14293D02*
D03*
X16784Y13525D02*
D03*
Y13781D02*
D03*
Y14037D02*
D03*
Y14293D02*
D03*
D36*
X14114Y18622D02*
D03*
X15413D02*
D03*
D37*
X12949Y20114D02*
X13268Y20433D01*
X13878D01*
X14290Y22670D02*
X14618Y22998D01*
X15257D01*
X14809Y22683D02*
X15257D01*
X12310Y20086D02*
Y21226D01*
X12490Y20266D02*
Y21151D01*
X12310Y20086D02*
X12550Y19846D01*
Y18211D02*
Y19846D01*
X12759Y18200D02*
Y19997D01*
X12949Y18200D02*
Y20114D01*
X12539Y18200D02*
X12550Y18211D01*
X12490Y20266D02*
X12759Y19997D01*
X12490Y21151D02*
X12598Y21260D01*
X12310Y21226D02*
X12524Y21440D01*
X12360Y13400D02*
X12420Y13340D01*
Y12994D02*
Y13340D01*
X11960Y14740D02*
Y15176D01*
X11991Y15207D01*
X11752Y14532D02*
X11960Y14740D01*
X12800Y12550D02*
X12890Y12640D01*
X12800Y11710D02*
Y12550D01*
Y11710D02*
X12966Y11544D01*
X13154D01*
X13447Y11703D02*
X13698D01*
X13350Y11800D02*
X13447Y11703D01*
X13154Y11800D02*
X13350D01*
X13527Y15832D02*
Y17017D01*
Y15832D02*
X13630Y15729D01*
X18715Y25785D02*
X18850Y25650D01*
X18715Y25785D02*
Y25789D01*
X18545Y25959D02*
X18715Y25789D01*
X18541Y25959D02*
X18545D01*
X18407Y26093D02*
X18541Y25959D01*
X18850Y25650D02*
X19050D01*
X18407Y26093D02*
Y26463D01*
X19350Y28450D02*
X19550Y28250D01*
X17576Y28450D02*
X19350D01*
X17063Y27937D02*
X17576Y28450D01*
X19055Y23628D02*
X19666D01*
X18510Y23084D02*
X19055Y23628D01*
X16530Y12470D02*
X16590Y12410D01*
X16905Y12835D02*
X16968D01*
X16850Y12050D02*
Y12076D01*
X17138Y13525D02*
X17975D01*
X16797Y12726D02*
X16905Y12835D01*
X12247Y17181D02*
X12480Y16949D01*
X12247Y15207D02*
X12258Y15196D01*
X15999Y22455D02*
X16012Y22469D01*
X15986D02*
X15999Y22455D01*
X15788Y22469D02*
X15986D01*
X15649Y22329D02*
X15788Y22469D01*
X15649Y22105D02*
Y22329D01*
X14983Y21440D02*
X15649Y22105D01*
X12524Y21440D02*
X14983D01*
X15094Y21260D02*
X15887Y22053D01*
X12598Y21260D02*
X15094D01*
X16693Y21417D02*
X16811D01*
X16012Y22469D02*
X16202Y22279D01*
Y22053D02*
Y22279D01*
X18346Y27087D02*
X18407Y27026D01*
Y26463D02*
Y27026D01*
X13898Y19646D02*
X14961D01*
X13506Y19254D02*
X13898Y19646D01*
X13506Y17932D02*
Y19254D01*
X13686Y18007D02*
Y19080D01*
X16063Y19252D02*
X16260Y19449D01*
X13858Y19252D02*
X16063D01*
X13686Y19080D02*
X13858Y19252D01*
X17953Y19567D02*
X18173D01*
X18406Y19335D01*
X13504Y20118D02*
X14291D01*
X13169Y19783D02*
X13504Y20118D01*
X13169Y18200D02*
Y19783D01*
X19021Y23184D02*
X19150Y23313D01*
X19666D01*
X16517Y21593D02*
X16693Y21417D01*
X16526Y12982D02*
X16551Y13007D01*
X16021Y12982D02*
X16526D01*
X16021Y12726D02*
X16797D01*
X14409Y14291D02*
X14646D01*
X14294Y14406D02*
X14409Y14291D01*
X14294Y14406D02*
Y15207D01*
X14039Y14393D02*
Y15207D01*
X14176Y13240D02*
X14400Y13465D01*
X15354D01*
X13720Y13240D02*
X14176D01*
X16503Y11703D02*
X16850Y12050D01*
X14550Y17648D02*
X14894Y17992D01*
X14550Y17452D02*
Y17648D01*
X14894Y17992D02*
X15000D01*
X13506Y17932D02*
X13783Y17656D01*
Y17452D02*
Y17656D01*
X13686Y18007D02*
X14039Y17654D01*
Y17452D02*
Y17654D01*
X14806Y16980D02*
Y17452D01*
Y16980D02*
X14899D01*
X15999Y16706D02*
Y17087D01*
Y16706D02*
X16132Y16573D01*
X17889Y17126D02*
X17904Y17111D01*
Y16573D02*
Y17111D01*
X15608Y15965D02*
X15822Y16179D01*
X16132D01*
X17904Y15982D02*
Y16179D01*
X15211Y12210D02*
Y12221D01*
X15216Y12216D02*
X15217Y12215D01*
X15216Y12216D02*
X15216D01*
X15211Y12221D02*
X15216Y12216D01*
X15217Y12215D02*
X16021D01*
X13160Y13020D02*
X13377Y13238D01*
X13160Y12780D02*
Y13020D01*
X20067Y22683D02*
X20200Y22816D01*
X20380Y24325D02*
X20669Y24614D01*
X19666Y22683D02*
X20067D01*
X18740Y21604D02*
X20148D01*
X20876Y21388D02*
X21063Y21575D01*
X18514Y21388D02*
X20876D01*
X13015Y15207D02*
Y15633D01*
X12949Y17734D02*
Y17875D01*
Y17734D02*
X13015Y17667D01*
Y17452D02*
Y17667D01*
X18510Y22960D02*
Y23084D01*
X16021Y11703D02*
X16503D01*
X15365Y12630D02*
X15717Y12982D01*
X15021Y12630D02*
X15365D01*
X14871Y12480D02*
X15021Y12630D01*
X13199Y17875D02*
X13271Y17802D01*
Y17452D02*
Y17802D01*
X11991Y17452D02*
Y17598D01*
X11550Y18040D02*
X11991Y17598D01*
X11464Y18040D02*
X11550D01*
X19640Y25229D02*
X19666Y25203D01*
X11326Y27175D02*
Y27290D01*
X19037Y21918D02*
X19055Y21900D01*
X19037Y21918D02*
Y22053D01*
X11456Y18031D02*
X11464Y18040D01*
X10630Y11136D02*
X11136Y10630D01*
X14806Y15797D02*
Y16980D01*
X16517Y21593D02*
Y22053D01*
X18407Y21495D02*
Y22053D01*
Y21495D02*
X18514Y21388D01*
X18722Y21623D02*
X18740Y21604D01*
X18722Y21623D02*
Y22053D01*
X13301Y27399D02*
X13460Y27559D01*
X13301Y27110D02*
Y27399D01*
Y27110D02*
X13366Y27044D01*
X14150Y11959D02*
X14731Y12540D01*
X13698Y11959D02*
X14150D01*
X14731Y12480D02*
X14871D01*
X14731D02*
Y12540D01*
X15478Y11703D02*
X16021D01*
X15391Y11790D02*
X15478Y11703D01*
X15041Y11790D02*
X15391D01*
X15717Y12982D02*
X16021D01*
X15211Y12221D02*
X15716Y12726D01*
X13366Y27044D02*
X13841D01*
X13091Y26899D02*
X13196Y26794D01*
X13841D01*
X11336Y26615D02*
Y26675D01*
X15716Y12726D02*
X16021D01*
X13377Y13238D02*
X13698D01*
X13214Y12726D02*
X13698D01*
X13160Y12780D02*
X13214Y12726D01*
X12503Y17452D02*
Y17809D01*
X12569Y17875D01*
X12759Y17471D02*
Y17865D01*
X11991Y17067D02*
Y17452D01*
X12059Y16920D02*
Y17000D01*
X11991Y17067D02*
X12059Y17000D01*
X12247Y17181D02*
Y17452D01*
X17945Y14293D02*
X18379D01*
X17892Y14239D02*
X17945Y14293D01*
X17892Y13609D02*
Y14239D01*
Y13609D02*
X17975Y13525D01*
X18379D01*
X16021Y13238D02*
X16087D01*
X14550Y15207D02*
Y15541D01*
X14806Y15797D01*
X13271Y15207D02*
Y15377D01*
X13015Y15633D02*
X13271Y15377D01*
X19175Y24929D02*
X19217Y24888D01*
X19666D01*
X18425Y25157D02*
Y25669D01*
X18858Y25236D02*
Y25274D01*
X18425Y25157D02*
X18653Y24929D01*
X19175D01*
X18858Y25274D02*
X18903Y25229D01*
X19640D01*
X19037Y26463D02*
Y27105D01*
X19055Y21900D02*
X20089D01*
X20380Y22191D01*
Y24325D01*
X20148Y21604D02*
X21102Y22559D01*
Y22614D01*
X20669Y24614D02*
X21102D01*
X20669Y25614D02*
X21102D01*
X13460Y27559D02*
X15109D01*
X15197Y27647D01*
Y27953D01*
X13091Y27450D02*
X13591Y27950D01*
X14046D01*
X13091Y26899D02*
Y27450D01*
X11326Y27290D02*
X11985Y27950D01*
X12246D01*
X12650Y28254D02*
X12954Y27950D01*
X12650Y28254D02*
Y28550D01*
X15887Y26463D02*
Y26913D01*
X15450Y27350D02*
X15887Y26913D01*
X19550Y27699D02*
Y28250D01*
X18205Y27937D02*
X19037Y27105D01*
X18063Y27937D02*
X18205D01*
X18722Y26178D02*
Y26463D01*
Y26178D02*
X18900Y26000D01*
X19200D01*
X19450Y26250D01*
Y26700D01*
X12480Y16270D02*
Y16949D01*
Y16270D02*
X13015Y15735D01*
Y15633D02*
Y15735D01*
X20200Y22816D02*
Y25145D01*
X20669Y25614D01*
X19666Y25518D02*
X19998D01*
X20170Y25690D01*
Y27079D01*
X19550Y27699D02*
X20170Y27079D01*
D38*
X14483Y23313D02*
X15257D01*
X14270Y23100D02*
X14483Y23313D01*
X18829Y23879D02*
X19180D01*
X18740Y23790D02*
X18829Y23879D01*
X18740Y23790D02*
X18820Y23710D01*
X19180Y23879D02*
X19243Y23943D01*
X19666D01*
X18720Y23710D02*
X18820D01*
X19163Y22549D02*
Y22815D01*
X19347Y22998D01*
X19666D01*
X15608Y16469D02*
X15701Y16376D01*
X15608Y16469D02*
Y16673D01*
X19429Y22283D02*
X19961D01*
X19163Y22549D02*
X19429Y22283D01*
D39*
X14720Y23620D02*
X14728Y23628D01*
X15257D01*
X13630Y15729D02*
X13783Y15576D01*
Y15207D02*
Y15576D01*
X13527Y15626D02*
X13630Y15729D01*
X13527Y15207D02*
Y15626D01*
X11940Y12210D02*
X12030Y12120D01*
Y11700D02*
Y12120D01*
X12130Y11120D02*
X12406D01*
X12030Y11220D02*
X12130Y11120D01*
X12030Y11220D02*
Y11700D01*
X12130Y11800D01*
X12406D01*
X14488Y16968D02*
X14550Y17031D01*
Y17452D01*
X16832Y22053D02*
Y22361D01*
X16579Y22614D02*
X16832Y22361D01*
X16408Y22614D02*
X16579D01*
X12666Y27294D02*
X12864Y27096D01*
Y26816D02*
Y27096D01*
Y26816D02*
X13136Y26544D01*
X13926Y26195D02*
X14261Y26531D01*
X12552Y25329D02*
X13546D01*
X11336Y26675D02*
X11339Y26671D01*
Y25952D02*
Y26671D01*
X13841Y27294D02*
X14481D01*
X14261Y26531D02*
X14536D01*
X11326Y27175D02*
X11456Y27044D01*
X12010D01*
X11336Y26675D02*
X11455Y26794D01*
X12010D01*
X13136Y26544D02*
X13841D01*
X12010Y27294D02*
X12666D01*
X12128Y24905D02*
X12552Y25329D01*
X12247Y17452D02*
Y17965D01*
X16784Y13525D02*
X17138D01*
X17402Y13789D01*
Y13819D01*
X13841Y26544D02*
X14542D01*
X12247Y14853D02*
Y15207D01*
Y14853D02*
X12250Y14850D01*
X12759Y15207D02*
Y15521D01*
X12520Y15760D02*
X12759Y15521D01*
D40*
X13050Y10630D02*
X13453D01*
X12506D02*
X13050D01*
X14416Y18360D02*
X14540D01*
X14396Y18340D02*
X14416Y18360D01*
X14291Y18445D02*
X14396Y18340D01*
X14114Y18622D02*
X14291Y18445D01*
Y17992D02*
Y18445D01*
X15290Y16673D02*
X15608D01*
X15815Y20870D02*
X16762D01*
X17230D02*
X18177D01*
X15010Y22175D02*
Y22250D01*
X14813Y21978D02*
X15010Y22175D01*
X15709Y21417D02*
X16063D01*
X14026Y21978D02*
X14813D01*
X17480Y18307D02*
X17480Y18307D01*
X17913D01*
X18856Y16730D02*
X18858Y16732D01*
X18401Y16730D02*
X18856D01*
X19843Y17795D02*
Y18189D01*
X17598Y17795D02*
X17953D01*
X17928Y15761D02*
X18177Y15512D01*
X17904Y15785D02*
X18164D01*
X19116Y16022D02*
X19134Y16004D01*
X18401Y16022D02*
X19116D01*
X18164Y15785D02*
X18401Y16022D01*
X15551Y13937D02*
X15709Y14094D01*
Y14291D01*
X13543Y13583D02*
X13976D01*
X15000Y18209D02*
X15413Y18622D01*
X15000Y17992D02*
Y18209D01*
X15999Y17520D02*
X15999Y17520D01*
Y17087D02*
Y17520D01*
X15290Y16102D02*
X15470D01*
X15608Y15965D01*
X17980Y15315D02*
X18177Y15512D01*
X17928Y15315D02*
X17980D01*
X17904Y15785D02*
X17928Y15761D01*
Y15315D02*
Y15761D01*
X18177Y15512D02*
X18322D01*
X15763Y15236D02*
X16078D01*
X16157Y15315D01*
X16132Y15340D02*
X16157Y15315D01*
X16132Y15340D02*
Y15785D01*
X17904Y15654D02*
Y15785D01*
X13453Y10630D02*
X14400D01*
X11136D02*
X12020D01*
X10630Y11136D02*
Y12010D01*
X14868Y10630D02*
X15815D01*
X16762D01*
X17230D02*
X18177D01*
X19124D01*
X19644D02*
X20429D01*
X20866Y11059D02*
Y12006D01*
X10256Y20925D02*
X10311Y20870D01*
X11063D01*
X10630Y19644D02*
Y20429D01*
Y17230D02*
Y18177D01*
Y19124D01*
Y14868D02*
Y15815D01*
Y16762D01*
Y12506D02*
Y13453D01*
X19506Y20876D02*
X20453D01*
X20876Y19604D02*
Y20551D01*
X20870Y12506D02*
Y13453D01*
Y14400D01*
Y14868D02*
Y15815D01*
Y16762D01*
Y17230D02*
Y18177D01*
Y19124D01*
X10354Y22165D02*
X10768D01*
X10748Y21772D02*
X10955Y21978D01*
X10354Y21772D02*
X10748D01*
X14991Y27239D02*
X14994Y27242D01*
X14536Y27239D02*
X14991D01*
X10630Y11063D02*
Y11136D01*
Y20429D02*
Y20591D01*
X11073Y10630D02*
X11136D01*
X20429D02*
X20591D01*
X18177Y20870D02*
X19124D01*
X13453D02*
X13486D01*
X12943D02*
X13453D01*
X11063D02*
X11136D01*
X11059Y20866D02*
X11063Y20870D01*
X10630Y13453D02*
Y14400D01*
D41*
X13050Y10630D02*
X13114Y10694D01*
Y11120D01*
X19134Y17303D02*
Y17795D01*
X18952Y14283D02*
X18957Y14289D01*
X18952Y13873D02*
Y14283D01*
X14488Y14134D02*
X14646Y14291D01*
X14488Y13819D02*
Y14134D01*
X13543Y14291D02*
X13937D01*
X16708Y17087D02*
X17180D01*
D42*
X16912Y14799D02*
X17267D01*
X15157Y15236D02*
X15763D01*
X16742Y14629D02*
X16912Y14799D01*
D43*
X13150Y12270D02*
X13154Y12266D01*
Y12056D02*
Y12266D01*
X12790Y11310D02*
Y11400D01*
X12646Y11544D02*
X12790Y11400D01*
X12406Y11544D02*
X12646D01*
X12980Y11120D02*
X13114D01*
X12790Y11310D02*
X12980Y11120D01*
X13527Y17017D02*
Y17452D01*
X14294D02*
Y18015D01*
X12396Y26544D02*
X13016Y25925D01*
X12010Y26544D02*
X12396D01*
D44*
X17777Y26463D02*
Y26948D01*
X17638Y27087D02*
X17777Y26948D01*
X12165Y18543D02*
X12173Y18536D01*
Y18040D02*
Y18536D01*
X18661Y17795D02*
Y17898D01*
X18780Y18016D01*
Y18307D01*
X18402Y18307D02*
X18406Y18303D01*
X17913Y18307D02*
X18402D01*
X18055Y14803D02*
X18213Y14961D01*
X17913Y14803D02*
X18055D01*
X18957Y14289D02*
Y14620D01*
X18616Y14961D02*
X18957Y14620D01*
X18213Y14961D02*
X18616D01*
X10768Y22165D02*
X10955Y21978D01*
X11750Y25549D02*
X12048Y25847D01*
X11750Y25520D02*
Y25549D01*
X17068Y22594D02*
X17138Y22524D01*
Y22062D02*
Y22524D01*
Y22062D02*
X17147Y22053D01*
X10856Y23386D02*
Y23985D01*
X10806Y24035D02*
X10856Y23985D01*
X10806Y24035D02*
X11105Y24335D01*
X10817Y24622D02*
X11105Y24335D01*
X10817Y24622D02*
Y25207D01*
X15791Y25833D02*
X16073Y25551D01*
Y25374D02*
Y25551D01*
X15257Y25833D02*
X15791D01*
X12048Y25847D02*
Y25952D01*
X14157Y28937D02*
X14500Y28594D01*
Y28204D02*
Y28594D01*
Y28204D02*
X14754Y27950D01*
X15906Y27953D02*
Y28594D01*
X15563Y28937D02*
X15906Y28594D01*
X15157Y28937D02*
X15563D01*
X19063Y27687D02*
Y27937D01*
X19666Y25833D02*
X19900Y26066D01*
Y26850D01*
X19063Y27687D02*
X19900Y26850D01*
D45*
X19134Y17795D02*
X19154Y17815D01*
Y18303D01*
Y19882D02*
Y20295D01*
Y19335D02*
Y19882D01*
X18780Y18858D02*
X18780Y18858D01*
Y19335D01*
D46*
X17961Y13079D02*
X18946D01*
X17402Y12520D02*
X17961Y13079D01*
X19666Y13845D02*
Y14289D01*
D47*
X18379Y13781D02*
X18952D01*
X15310Y12960D02*
X15588Y13238D01*
X15301Y12960D02*
X15310D01*
X15588Y13238D02*
X16021D01*
Y12470D02*
X16530D01*
X13698Y12982D02*
X14349D01*
D48*
X17904Y16376D02*
X18268D01*
X18401Y16509D02*
Y16730D01*
X18268Y16376D02*
X18401Y16509D01*
X16132Y16179D02*
X17018D01*
X16132Y15785D02*
Y15982D01*
X15701Y16376D02*
X16132D01*
D49*
X11124Y24315D02*
X13546D01*
X14289D01*
X14236Y24827D02*
X14238Y24825D01*
X12888Y22645D02*
Y23055D01*
X13145Y23311D01*
X13546D01*
X14287Y23813D02*
X14288Y23815D01*
X13546Y23813D02*
X14287D01*
X14561Y24827D02*
X14567Y24833D01*
X13546Y24827D02*
X14236D01*
X14561D01*
D50*
X19055Y24639D02*
X19122Y24573D01*
X19666D01*
X19134Y24258D02*
X19666D01*
X19055Y24179D02*
X19134Y24258D01*
X17395Y25852D02*
X17462Y25918D01*
Y26463D01*
X17777Y25930D02*
Y26463D01*
Y25930D02*
X17855Y25852D01*
X15789Y24573D02*
X15868Y24652D01*
X15257Y24573D02*
X15789D01*
X15257Y24258D02*
X15802D01*
X15868Y24192D01*
X17462Y22053D02*
Y22598D01*
X17478Y22614D01*
D51*
X14349Y12982D02*
X14351Y12980D01*
D52*
X16490Y27380D02*
Y27580D01*
X16390D01*
X16357Y27547D01*
Y27413D01*
X16390Y27380D01*
X16490D01*
X16157Y27413D02*
X16190Y27380D01*
X16257D01*
X16290Y27413D01*
Y27547D01*
X16257Y27580D01*
X16190D01*
X16157Y27547D01*
X16090Y27380D02*
X16023D01*
X16057D01*
Y27580D01*
X16090D01*
X16023D01*
X15790Y27413D02*
X15824Y27380D01*
X15890D01*
X15924Y27413D01*
Y27547D01*
X15890Y27580D01*
X15824D01*
X15790Y27547D01*
Y27480D01*
X15857D01*
X10297Y25287D02*
X10330Y25320D01*
Y25387D01*
X10297Y25420D01*
X10163D01*
X10130Y25387D01*
Y25320D01*
X10163Y25287D01*
X10230D01*
Y25353D01*
X10130Y25220D02*
X10330D01*
X10130Y25087D01*
X10330D01*
Y25020D02*
X10130D01*
Y24920D01*
X10163Y24887D01*
X10297D01*
X10330Y24920D01*
Y25020D01*
Y24620D02*
X10197D01*
X10130Y24554D01*
X10197Y24487D01*
X10330D01*
X10263Y24287D02*
Y24387D01*
X10230Y24420D01*
X10163D01*
X10130Y24387D01*
Y24287D01*
X10263Y24087D02*
Y24187D01*
X10230Y24220D01*
X10163D01*
X10130Y24187D01*
Y24087D01*
X20393Y25810D02*
X20360Y25843D01*
Y25910D01*
X20393Y25943D01*
X20527D01*
X20560Y25910D01*
Y25843D01*
X20527Y25810D01*
X20393D01*
X20560Y26010D02*
X20360D01*
Y26110D01*
X20393Y26143D01*
X20460D01*
X20493Y26110D01*
Y26010D01*
Y26077D02*
X20560Y26143D01*
X20360Y26210D02*
Y26343D01*
Y26277D01*
X20560D01*
X20393Y26543D02*
X20360Y26510D01*
Y26443D01*
X20393Y26410D01*
X20527D01*
X20560Y26443D01*
Y26510D01*
X20527Y26543D01*
X20460D01*
Y26476D01*
X20560Y26610D02*
Y26676D01*
Y26643D01*
X20360D01*
X20393Y26610D01*
X20560Y26776D02*
X20360D01*
Y26876D01*
X20393Y26910D01*
X20460D01*
X20493Y26876D01*
Y26776D01*
Y26843D02*
X20560Y26910D01*
X20360Y26976D02*
Y27110D01*
Y27043D01*
X20560D01*
X20393Y27310D02*
X20360Y27276D01*
Y27210D01*
X20393Y27176D01*
X20527D01*
X20560Y27210D01*
Y27276D01*
X20527Y27310D01*
X20460D01*
Y27243D01*
X17893Y20310D02*
X17827Y20277D01*
X17760Y20210D01*
Y20143D01*
X17793Y20110D01*
X17860D01*
X17893Y20143D01*
Y20177D01*
X17860Y20210D01*
X17760D01*
X18093Y20310D02*
X17960D01*
Y20210D01*
X18027Y20243D01*
X18060D01*
X18093Y20210D01*
Y20143D01*
X18060Y20110D01*
X17993D01*
X17960Y20143D01*
X11637Y17077D02*
X11670Y17110D01*
Y17177D01*
X11637Y17210D01*
X11503D01*
X11470Y17177D01*
Y17110D01*
X11503Y17077D01*
X11570D01*
Y17143D01*
X11470Y17010D02*
X11503D01*
Y16977D01*
X11470D01*
Y17010D01*
X11637Y16510D02*
X11670Y16544D01*
Y16610D01*
X11637Y16644D01*
X11503D01*
X11470Y16610D01*
Y16544D01*
X11503Y16510D01*
X11570D01*
Y16577D01*
X11603Y16410D02*
Y16344D01*
X11570Y16310D01*
X11470D01*
Y16410D01*
X11503Y16444D01*
X11537Y16410D01*
Y16310D01*
X11403Y16244D02*
Y16210D01*
X11437Y16177D01*
X11603D01*
X11470Y16010D02*
Y15944D01*
X11503Y15910D01*
X11570D01*
X11603Y15944D01*
Y16010D01*
X11570Y16044D01*
X11503D01*
X11470Y16010D01*
X11603Y15710D02*
Y15810D01*
X11570Y15844D01*
X11503D01*
X11470Y15810D01*
Y15710D01*
X11670Y15644D02*
X11470D01*
X11570D01*
X11603Y15611D01*
Y15544D01*
X11570Y15511D01*
X11470D01*
X11080Y17020D02*
X11280D01*
Y16920D01*
X11247Y16887D01*
X11180D01*
X11147Y16920D01*
Y17020D01*
X11280Y16820D02*
X11080D01*
X11147Y16753D01*
X11080Y16687D01*
X11280D01*
X11180Y16620D02*
Y16487D01*
X11247Y16287D02*
X11280Y16320D01*
Y16387D01*
X11247Y16420D01*
X11213D01*
X11180Y16387D01*
Y16320D01*
X11147Y16287D01*
X11113D01*
X11080Y16320D01*
Y16387D01*
X11113Y16420D01*
X11213Y16187D02*
Y16120D01*
X11180Y16087D01*
X11080D01*
Y16187D01*
X11113Y16220D01*
X11147Y16187D01*
Y16087D01*
X11247Y15987D02*
X11213D01*
Y16020D01*
Y15954D01*
Y15987D01*
X11113D01*
X11080Y15954D01*
Y15720D02*
Y15854D01*
X11213Y15720D01*
X11247D01*
X11280Y15754D01*
Y15820D01*
X11247Y15854D01*
D53*
X14415Y18575D02*
D03*
D54*
X17020Y16691D02*
D03*
X17015Y15668D02*
D03*
D55*
X16148Y15834D02*
D03*
D56*
X16768Y19854D02*
D03*
D57*
X15324Y19865D02*
D03*
D58*
X17898Y15894D02*
D03*
D59*
X15004Y15230D02*
D03*
D60*
X21102Y26614D02*
D03*
Y25614D02*
D03*
Y24614D02*
D03*
Y23614D02*
D03*
Y22614D02*
D03*
X21063Y28937D02*
D03*
Y27937D02*
D03*
X20063Y28937D02*
D03*
Y27937D02*
D03*
X19063Y28937D02*
D03*
Y27937D02*
D03*
X18063Y28937D02*
D03*
Y27937D02*
D03*
X17063Y28937D02*
D03*
X12157D02*
D03*
X13157D02*
D03*
X14157D02*
D03*
X10551Y27181D02*
D03*
D61*
X21102Y21614D02*
D03*
X10551Y26181D02*
D03*
D62*
X17063Y27937D02*
D03*
X15157Y28937D02*
D03*
D63*
X13878Y20433D02*
D03*
X14290Y22670D02*
D03*
X14790Y22600D02*
D03*
X14720Y23620D02*
D03*
X11864Y20384D02*
D03*
X11864Y20069D02*
D03*
X12260Y19690D02*
D03*
X12360Y13400D02*
D03*
X11840Y14620D02*
D03*
X14270Y23100D02*
D03*
X16890Y11120D02*
D03*
X11940Y12210D02*
D03*
X12890Y12640D02*
D03*
X13150Y12270D02*
D03*
X14540Y18840D02*
D03*
Y18600D02*
D03*
Y18360D02*
D03*
X15040Y18390D02*
D03*
X15140Y17620D02*
D03*
X15850Y18430D02*
D03*
X15420Y18000D02*
D03*
X13990Y16960D02*
D03*
X14230D02*
D03*
X13527Y17017D02*
D03*
X16762Y20870D02*
D03*
X17230D02*
D03*
X15200Y11350D02*
D03*
X16590Y12410D02*
D03*
X16968Y12835D02*
D03*
X16850Y12076D02*
D03*
X17323Y12037D02*
D03*
X16575Y13031D02*
D03*
X15932Y13578D02*
D03*
X21336Y20800D02*
D03*
X15010Y22250D02*
D03*
X15709Y21417D02*
D03*
X12165Y18543D02*
D03*
X17480Y18307D02*
D03*
X17953Y19567D02*
D03*
X14291Y20118D02*
D03*
X19021Y23184D02*
D03*
X18858Y16732D02*
D03*
X19843Y18189D02*
D03*
X19154Y19882D02*
D03*
Y20295D02*
D03*
X18780Y18858D02*
D03*
X17598Y17795D02*
D03*
X18371Y14621D02*
D03*
X17402Y12520D02*
D03*
X15551Y13937D02*
D03*
X14016Y14016D02*
D03*
X13976Y13583D02*
D03*
X12953Y13425D02*
D03*
X14803Y11339D02*
D03*
X11535Y11929D02*
D03*
X11220Y11614D02*
D03*
X11417Y11220D02*
D03*
X14488Y13819D02*
D03*
X15354Y13465D02*
D03*
X14488Y16968D02*
D03*
X14899Y16980D02*
D03*
X17015Y16071D02*
D03*
X17023Y16378D02*
D03*
X15999Y17520D02*
D03*
X15290Y16102D02*
D03*
Y16673D02*
D03*
X18322Y15512D02*
D03*
X15763Y15236D02*
D03*
X12945Y10160D02*
D03*
X12506Y10630D02*
D03*
X14400D02*
D03*
X12020D02*
D03*
X10630Y12010D02*
D03*
X15723Y10160D02*
D03*
X14868Y10630D02*
D03*
X16762D02*
D03*
X17230D02*
D03*
X18500Y10160D02*
D03*
X19124Y10630D02*
D03*
X19644D02*
D03*
X20866Y12006D02*
D03*
X10630Y19644D02*
D03*
X10256Y20925D02*
D03*
X10630Y17230D02*
D03*
X10160Y18500D02*
D03*
X10630Y19124D02*
D03*
Y14868D02*
D03*
X10160Y15723D02*
D03*
X10630Y16762D02*
D03*
Y12506D02*
D03*
X10160Y12945D02*
D03*
X19506Y20876D02*
D03*
X20876Y19604D02*
D03*
X14200Y20730D02*
D03*
X20870Y12506D02*
D03*
X21336Y12945D02*
D03*
X20870Y14400D02*
D03*
Y14868D02*
D03*
X21336Y15723D02*
D03*
X20870Y16762D02*
D03*
Y19124D02*
D03*
Y17230D02*
D03*
X21336Y18500D02*
D03*
X10354Y22165D02*
D03*
Y21772D02*
D03*
X11890Y24567D02*
D03*
Y23780D02*
D03*
X10827Y23819D02*
D03*
Y24331D02*
D03*
Y24843D02*
D03*
X14567Y25512D02*
D03*
X18071Y22638D02*
D03*
X10160Y10167D02*
D03*
X21277Y10160D02*
D03*
X13160Y13020D02*
D03*
X18510Y22960D02*
D03*
X18720Y23710D02*
D03*
X16830Y24780D02*
D03*
X11750Y25520D02*
D03*
X12480Y16919D02*
D03*
X13630Y15729D02*
D03*
X10856Y23386D02*
D03*
X10817Y25207D02*
D03*
X15394Y26378D02*
D03*
X16073Y25374D02*
D03*
X19055Y24639D02*
D03*
X13858Y22776D02*
D03*
X11142Y23258D02*
D03*
X11063Y25374D02*
D03*
X17254Y24754D02*
D03*
X14994Y27242D02*
D03*
X14731Y12480D02*
D03*
X15191Y12960D02*
D03*
X14351Y12980D02*
D03*
X15211Y12210D02*
D03*
X15041Y11790D02*
D03*
X19055Y24179D02*
D03*
X17395Y25852D02*
D03*
X17855D02*
D03*
X15868Y24652D02*
D03*
Y24192D02*
D03*
X17068Y22594D02*
D03*
X13016Y25925D02*
D03*
X13926Y26195D02*
D03*
X11326Y27175D02*
D03*
X11336Y26675D02*
D03*
X14289Y24315D02*
D03*
X14238Y24825D02*
D03*
X12128Y24905D02*
D03*
X12888Y22645D02*
D03*
X14288Y23815D02*
D03*
X12059Y16920D02*
D03*
X17402Y13819D02*
D03*
X16742Y14629D02*
D03*
X18522Y13079D02*
D03*
X19666Y13845D02*
D03*
X17478Y22614D02*
D03*
X16408D02*
D03*
X19124Y20870D02*
D03*
X14567Y24833D02*
D03*
X18425Y25669D02*
D03*
X18858Y25236D02*
D03*
X19961Y22283D02*
D03*
X12650Y28550D02*
D03*
X15450Y27350D02*
D03*
X19050Y25650D02*
D03*
X19450Y26700D02*
D03*
X12250Y14850D02*
D03*
X10630Y14400D02*
D03*
X16720Y19030D02*
D03*
Y17940D02*
D03*
X19810Y20210D02*
D03*
X19800Y18920D02*
D03*
X19830Y17200D02*
D03*
X18420Y17270D02*
D03*
X20100Y16350D02*
D03*
Y15150D02*
D03*
X19060Y15280D02*
D03*
X20240Y13750D02*
D03*
X20510Y10990D02*
D03*
X17370Y13020D02*
D03*
X18300Y12600D02*
D03*
X17740Y11150D02*
D03*
X16060Y11120D02*
D03*
X11660Y12990D02*
D03*
X11650Y13840D02*
D03*
X12870Y16820D02*
D03*
X12860Y16320D02*
D03*
X12520Y15760D02*
D03*
X14670Y24060D02*
D03*
X12940Y14570D02*
D03*
M02*
