G04 Layer_Color=255*
%FSLAX24Y24*%
%MOIN*%
G70*
G01*
G75*
%ADD11R,0.0374X0.0394*%
%ADD12R,0.0354X0.0354*%
%ADD13R,0.1496X0.0394*%
%ADD14R,0.0394X0.1496*%
%ADD15R,0.0394X0.1276*%
%ADD16R,0.1406X0.0394*%
%ADD17R,0.1276X0.0394*%
%ADD18R,0.0394X0.1406*%
%ADD19R,0.0244X0.0480*%
%ADD20R,0.0354X0.0354*%
%ADD21R,0.0394X0.0374*%
%ADD36R,0.0453X0.0709*%
%ADD60C,0.0591*%
%ADD61R,0.0591X0.0591*%
%ADD62R,0.0591X0.0591*%
G04:AMPARAMS|DCode=64|XSize=20mil|YSize=12mil|CornerRadius=0.3mil|HoleSize=0mil|Usage=FLASHONLY|Rotation=180.000|XOffset=0mil|YOffset=0mil|HoleType=Round|Shape=RoundedRectangle|*
%AMROUNDEDRECTD64*
21,1,0.0200,0.0114,0,0,180.0*
21,1,0.0194,0.0120,0,0,180.0*
1,1,0.0006,-0.0097,0.0057*
1,1,0.0006,0.0097,0.0057*
1,1,0.0006,0.0097,-0.0057*
1,1,0.0006,-0.0097,-0.0057*
%
%ADD64ROUNDEDRECTD64*%
%ADD68R,0.0709X0.0453*%
%ADD69R,0.0354X0.0315*%
%ADD70R,0.0433X0.0669*%
%ADD71O,0.0177X0.0591*%
%ADD72R,0.0650X0.0118*%
%ADD73R,0.0480X0.0244*%
%ADD74R,0.0177X0.0177*%
%ADD75R,0.0177X0.0118*%
D11*
X17982Y26454D02*
D03*
X17274D02*
D03*
X14683Y15230D02*
D03*
X13974D02*
D03*
X14773Y15750D02*
D03*
X14064D02*
D03*
X11546Y16050D02*
D03*
X12254D02*
D03*
X16614Y11643D02*
D03*
X17323D02*
D03*
X16934Y22064D02*
D03*
X17642D02*
D03*
X17876Y14629D02*
D03*
X17167D02*
D03*
X17992Y23104D02*
D03*
X17284D02*
D03*
X18392Y24244D02*
D03*
X17684D02*
D03*
D12*
X19646Y23622D02*
D03*
Y22913D02*
D03*
X13543Y14331D02*
D03*
Y13622D02*
D03*
X14921Y14331D02*
D03*
Y13622D02*
D03*
X11667Y18809D02*
D03*
Y19518D02*
D03*
X13399Y19173D02*
D03*
Y19882D02*
D03*
X12536Y27829D02*
D03*
Y27121D02*
D03*
X12526Y25961D02*
D03*
Y26669D02*
D03*
X13328Y24260D02*
D03*
Y24969D02*
D03*
X16552Y14203D02*
D03*
Y13495D02*
D03*
D13*
X13453Y10630D02*
D03*
X15815D02*
D03*
X18177D02*
D03*
Y20870D02*
D03*
X15815D02*
D03*
X13453D02*
D03*
D14*
X10630Y18177D02*
D03*
Y15815D02*
D03*
Y13453D02*
D03*
X20870D02*
D03*
Y15815D02*
D03*
Y18177D02*
D03*
D15*
X10630Y20429D02*
D03*
D16*
X11136Y10630D02*
D03*
Y20870D02*
D03*
D17*
X20429Y10630D02*
D03*
Y20870D02*
D03*
D18*
X10630Y11136D02*
D03*
X20870D02*
D03*
Y20364D02*
D03*
D19*
X12159Y19209D02*
D03*
Y20240D02*
D03*
X12533Y19209D02*
D03*
Y20240D02*
D03*
X12907D02*
D03*
Y19209D02*
D03*
X17232Y24239D02*
D03*
Y25270D02*
D03*
X16858D02*
D03*
Y24239D02*
D03*
X16484Y25270D02*
D03*
Y24239D02*
D03*
D20*
X12893Y23055D02*
D03*
X12184D02*
D03*
X12084Y24265D02*
D03*
X12793D02*
D03*
X18386Y25197D02*
D03*
X17677D02*
D03*
Y24724D02*
D03*
X18386D02*
D03*
X17284Y23574D02*
D03*
X17992D02*
D03*
X16134D02*
D03*
X16842D02*
D03*
X16134Y23104D02*
D03*
X16842D02*
D03*
X16792Y25814D02*
D03*
X16084D02*
D03*
D21*
X12066Y27131D02*
D03*
Y27839D02*
D03*
X12036Y26659D02*
D03*
Y25951D02*
D03*
X13778Y24979D02*
D03*
Y24270D02*
D03*
X13468Y23809D02*
D03*
Y23100D02*
D03*
X15258Y24769D02*
D03*
Y24060D02*
D03*
X19628D02*
D03*
Y24769D02*
D03*
X13336Y27219D02*
D03*
Y26511D02*
D03*
D36*
X12888Y23665D02*
D03*
X11589D02*
D03*
X12838Y24875D02*
D03*
X11539D02*
D03*
D60*
X21102Y26614D02*
D03*
Y25614D02*
D03*
Y24614D02*
D03*
Y23614D02*
D03*
Y22614D02*
D03*
X21063Y28937D02*
D03*
Y27937D02*
D03*
X20063Y28937D02*
D03*
Y27937D02*
D03*
X19063Y28937D02*
D03*
Y27937D02*
D03*
X18063Y28937D02*
D03*
Y27937D02*
D03*
X17063Y28937D02*
D03*
X12157D02*
D03*
X13157D02*
D03*
X14157D02*
D03*
X10551Y27181D02*
D03*
D61*
X21102Y21614D02*
D03*
X10551Y26181D02*
D03*
D62*
X17063Y27937D02*
D03*
X15157Y28937D02*
D03*
D64*
X18584Y20039D02*
D03*
X18424D02*
D03*
X13620Y16370D02*
D03*
X13780D02*
D03*
D68*
X17613Y15728D02*
D03*
Y17028D02*
D03*
X16393Y15728D02*
D03*
Y17028D02*
D03*
X13986Y27975D02*
D03*
Y26675D02*
D03*
X15605Y17028D02*
D03*
Y15728D02*
D03*
X12169Y16450D02*
D03*
Y17749D02*
D03*
D69*
X11605Y15606D02*
D03*
X12255D02*
D03*
Y15114D02*
D03*
X11605D02*
D03*
D70*
X10866Y22441D02*
D03*
X12165D02*
D03*
D71*
X14813Y16352D02*
D03*
X14557D02*
D03*
X14301D02*
D03*
X14045D02*
D03*
X14813Y17947D02*
D03*
X14557D02*
D03*
X14301D02*
D03*
X14045D02*
D03*
D72*
X13747Y11485D02*
D03*
Y11741D02*
D03*
Y11997D02*
D03*
Y12253D02*
D03*
Y12508D02*
D03*
Y12764D02*
D03*
Y13020D02*
D03*
Y13276D02*
D03*
X15932Y11485D02*
D03*
Y11741D02*
D03*
Y11997D02*
D03*
Y12253D02*
D03*
Y12508D02*
D03*
Y12764D02*
D03*
Y13020D02*
D03*
Y13276D02*
D03*
D73*
X17056Y14183D02*
D03*
X18087D02*
D03*
Y13809D02*
D03*
Y13435D02*
D03*
X17056D02*
D03*
D74*
X11840Y11181D02*
D03*
Y11811D02*
D03*
X12165D02*
D03*
Y11181D02*
D03*
D75*
X11840Y11591D02*
D03*
Y11401D02*
D03*
X12165D02*
D03*
Y11591D02*
D03*
M02*
