M48
;Layer_Color=9474304
;FILE_FORMAT=2:5
INCH,LZ
;TYPE=PLATED
T1F00S00C0.01181
T2F00S00C0.03543
;TYPE=NON_PLATED
T3F00S00C0.08661
%
T01
X01016Y0101675
X0114173Y0112205
X0112205Y0116141
X0115354Y0119291
X01194Y01221
X01166Y01299
X01165Y01384
X01184Y01462
X01225Y01485
X01294Y01457
X0129527Y0134252
X0131597Y0130205
X01289Y01264
X01315Y01227
X0147305Y0124803
X0152105Y0122103
X0150405Y0117903
X0152Y01135
X0148031Y0113386
X0148681Y0106299
X0143996
X0125059
X0120197
X012945Y01016
X01236Y0134
X0139764Y0135827
X0140157Y0140157
X0144882Y0138189
X0143505Y0129803
X0151905Y0129603
X0153543Y0134646
X0155512Y013937
X0106299Y0143996
Y0148681
Y0125059
Y0120098
X01016Y012945
X0159322Y013578
X0165748Y0130315
X0169685Y0128347
X01737Y01302
X0174016Y0125197
X0173227Y0120369
X0168503Y0120763
X0165897Y0124105
X01689Y01112
X0167618Y0106299
X0172303
X01774Y01115
X01606Y01112
X0157225Y01016
X0185
X019124Y0106299
X0196437
X02051Y01099
X0208661Y0120059
X0208701Y0125059
X0213361Y012945
X02024Y01375
X0196659Y0138446
X0201Y01515
X0208701Y0148681
Y0143996
X01906Y01528
X0183219Y0155118
X0183707Y0146213
X0167416Y0146289
X0174016Y0138189
X0185216Y0130789
X0183Y0126
X0157628Y0152362
X0212775Y01016
X0213361Y0157225
X0208701Y0167618
Y0172303
X01983Y0172
X0198425Y018189
X0198Y01892
X0187795Y0188583
X0191535Y0198819
Y0202953
X019124Y0208701
X0195059Y020876
X01981Y02021
X020876Y0196043
X0208701Y019124
X0213361Y0185
Y0208
X0199606Y0222835
X0190207Y023184
X01851Y02296
X0180709Y0226378
X017478Y0226144
X017068Y0225944
X016408Y0226144
X0157087Y0214173
X0167618Y0208701
X0172303
X0179528Y0195669
X0174803Y0183071
X0175984Y0177953
X01672Y01794
Y01903
X01585Y01843
X015999Y0175197
X0170227Y0163779
X0170146Y0160711
X0188583Y0167323
X01842Y01727
X0201Y01635
X01872Y02371
X0190553Y0241792
Y0246392
X0188582Y0252362
X01905Y02565
X0184252Y0256693
X0178554Y0258515
X0173954
X0172539Y0247539
X01683Y02478
X0158682Y0246517
Y0241917
X0160728Y025374
X01945Y0267
X0153937Y0263779
X01545Y02735
X0149936Y0272424
X0139255Y0261949
X0130156Y0259249
X01175Y02552
X011063Y025374
X0108169Y0252067
X0108268Y0248425
Y0243307
Y0238189
X0108563Y0233858
X0111417Y0232579
X0118898Y0237795
Y0245669
X0121283Y0249046
X0142383Y0248246
X0145669Y0248327
Y0255118
X0142887Y0243149
X0142883Y0238146
X01472Y02362
X01467Y02406
X01427Y0231
X01429Y02267
X0138583Y0227756
X0128883Y0226446
X01479Y0226
X01501Y02225
X0142Y02073
X0138777Y0204332
X0142913Y0201181
X01454Y01884
Y0186
Y01836
X01504Y01839
X01542Y018
X01514Y01762
X0148988Y0169795
X0144882Y0169685
X01423Y01696
X01399
X0135268Y0170175
X01287Y01682
X0124797Y0169194
X0120588Y0169195
X01286Y01632
X01252Y01576
X0136297Y0157294
X0152904Y0161024
Y0166734
X0106299Y0167618
Y0172303
X01016Y0185
X0106299Y019124
Y0196437
X0102559Y0209252
X0103543Y0217717
Y0221654
X0118635Y0203837
X0118635Y0200687
X01226Y01969
X0121653Y0185433
X01016Y0157225
X0113356Y0266749
X0113256Y0271749
X01265Y02855
T02
X0211024Y0216142
Y0226142
Y0236142
Y0246142
Y0256142
Y0266142
X021063Y027937
Y028937
X020063
Y027937
X019063
Y028937
X018063
Y027937
X017063
Y028937
X0151575
X0141575
X0131575
X0121575
X0105512Y0271811
Y0261811
T03
X0193701Y011811
X0106299Y0287402
M30
