G04 Layer_Color=8421504*
%FSAX24Y24*%
%MOIN*%
G70*
G01*
G75*
%ADD10R,0.0335X0.0157*%
%ADD11R,0.0394X0.0374*%
%ADD12R,0.0374X0.0394*%
%ADD13R,0.0197X0.0354*%
%ADD14O,0.0138X0.0610*%
%ADD15O,0.0551X0.0177*%
%ADD16R,0.0244X0.0480*%
D10*
X038384Y036084D02*
D03*
Y036340D02*
D03*
Y036596D02*
D03*
X037636D02*
D03*
Y036084D02*
D03*
X037636Y036340D02*
D03*
X038384Y025144D02*
D03*
Y025400D02*
D03*
Y025656D02*
D03*
X037636D02*
D03*
Y025144D02*
D03*
X037636Y025400D02*
D03*
X038384Y030644D02*
D03*
Y030900D02*
D03*
Y031156D02*
D03*
X037636D02*
D03*
Y030644D02*
D03*
X037636Y030900D02*
D03*
D11*
X038780Y027064D02*
D03*
Y026356D02*
D03*
X038860Y032544D02*
D03*
Y031836D02*
D03*
X035100Y021110D02*
D03*
Y021819D02*
D03*
X035070Y038516D02*
D03*
Y039224D02*
D03*
X033220Y038516D02*
D03*
Y039224D02*
D03*
X033200Y021110D02*
D03*
Y021819D02*
D03*
D12*
X038146Y037380D02*
D03*
X038854D02*
D03*
D13*
X039843Y030443D02*
D03*
X040197D02*
D03*
X039843Y029577D02*
D03*
X040197D02*
D03*
D14*
X026120Y036819D02*
D03*
X026376D02*
D03*
X025864D02*
D03*
X026888D02*
D03*
X026632D02*
D03*
X027144D02*
D03*
X027656D02*
D03*
X027400D02*
D03*
X025864Y034555D02*
D03*
X026120D02*
D03*
X026376D02*
D03*
X026888D02*
D03*
X026632D02*
D03*
X027400D02*
D03*
X027656D02*
D03*
X027144D02*
D03*
X026123Y031359D02*
D03*
X026379D02*
D03*
X025867D02*
D03*
X026891D02*
D03*
X026635D02*
D03*
X027147D02*
D03*
X027659D02*
D03*
X027403D02*
D03*
X025867Y029095D02*
D03*
X026123D02*
D03*
X026379D02*
D03*
X026891D02*
D03*
X026635D02*
D03*
X027403D02*
D03*
X027659D02*
D03*
X027147D02*
D03*
X027139Y025879D02*
D03*
X027395D02*
D03*
X026884D02*
D03*
X027651D02*
D03*
X026628D02*
D03*
X026372D02*
D03*
X027651Y023615D02*
D03*
X027395D02*
D03*
X026628D02*
D03*
X026372D02*
D03*
X027139D02*
D03*
X026884D02*
D03*
X026116Y025879D02*
D03*
X025860D02*
D03*
X026116Y023615D02*
D03*
X025860D02*
D03*
X028560Y036819D02*
D03*
X028816D02*
D03*
X028304D02*
D03*
X029328D02*
D03*
X029072D02*
D03*
X029584D02*
D03*
X030096D02*
D03*
X029840D02*
D03*
X028304Y034555D02*
D03*
X028560D02*
D03*
X028816D02*
D03*
X029328D02*
D03*
X029072D02*
D03*
X029840D02*
D03*
X030096D02*
D03*
X029584D02*
D03*
X028563Y031359D02*
D03*
X028819D02*
D03*
X028307D02*
D03*
X029331D02*
D03*
X029075D02*
D03*
X029587D02*
D03*
X030099D02*
D03*
X029843D02*
D03*
X028307Y029095D02*
D03*
X028563D02*
D03*
X028819D02*
D03*
X029331D02*
D03*
X029075D02*
D03*
X029843D02*
D03*
X030099D02*
D03*
X029587D02*
D03*
X029579Y025879D02*
D03*
X029835D02*
D03*
X029324D02*
D03*
X030091D02*
D03*
X029068D02*
D03*
X028812D02*
D03*
X030091Y023615D02*
D03*
X029835D02*
D03*
X029068D02*
D03*
X028812D02*
D03*
X029579D02*
D03*
X029324D02*
D03*
X028556Y025879D02*
D03*
X028300D02*
D03*
X028556Y023615D02*
D03*
X028300D02*
D03*
D15*
X032989Y034035D02*
D03*
Y033779D02*
D03*
Y034547D02*
D03*
Y034291D02*
D03*
Y034803D02*
D03*
Y035315D02*
D03*
Y035059D02*
D03*
X035311Y034547D02*
D03*
Y033779D02*
D03*
Y034291D02*
D03*
Y034035D02*
D03*
Y035059D02*
D03*
Y035315D02*
D03*
Y034803D02*
D03*
X032992Y028575D02*
D03*
Y028319D02*
D03*
Y029087D02*
D03*
Y028831D02*
D03*
Y029343D02*
D03*
Y029855D02*
D03*
Y029599D02*
D03*
X035315Y029087D02*
D03*
Y028319D02*
D03*
Y028831D02*
D03*
Y028575D02*
D03*
Y029599D02*
D03*
Y029855D02*
D03*
Y029343D02*
D03*
X035307Y023863D02*
D03*
Y024119D02*
D03*
Y023095D02*
D03*
Y023607D02*
D03*
Y024375D02*
D03*
Y023351D02*
D03*
Y022839D02*
D03*
X032984Y024375D02*
D03*
Y023863D02*
D03*
Y024119D02*
D03*
Y023351D02*
D03*
Y023607D02*
D03*
Y022839D02*
D03*
Y023095D02*
D03*
X032989Y036325D02*
D03*
Y036069D02*
D03*
Y036837D02*
D03*
Y036581D02*
D03*
Y037093D02*
D03*
Y037605D02*
D03*
Y037349D02*
D03*
X035311Y036837D02*
D03*
Y036069D02*
D03*
Y036581D02*
D03*
Y036325D02*
D03*
Y037349D02*
D03*
Y037605D02*
D03*
Y037093D02*
D03*
X032992Y030865D02*
D03*
Y030609D02*
D03*
Y031377D02*
D03*
Y031121D02*
D03*
Y031633D02*
D03*
Y032145D02*
D03*
Y031889D02*
D03*
X035315Y031377D02*
D03*
Y030609D02*
D03*
Y031121D02*
D03*
Y030865D02*
D03*
Y031889D02*
D03*
Y032145D02*
D03*
Y031633D02*
D03*
X035307Y026153D02*
D03*
Y026409D02*
D03*
Y025385D02*
D03*
Y025897D02*
D03*
Y026665D02*
D03*
Y025641D02*
D03*
Y025129D02*
D03*
X032984Y026665D02*
D03*
Y026153D02*
D03*
Y026409D02*
D03*
Y025641D02*
D03*
Y025897D02*
D03*
Y025129D02*
D03*
Y025385D02*
D03*
D16*
X034140Y020949D02*
D03*
X034514Y021980D02*
D03*
X033766D02*
D03*
X034130Y038354D02*
D03*
X034504Y039386D02*
D03*
X033756D02*
D03*
M02*
