G04 Layer_Color=65535*
%FSAX24Y24*%
%MOIN*%
G70*
G01*
G75*
%ADD18C,0.0080*%
%ADD27C,0.0098*%
%ADD28C,0.0236*%
%ADD29C,0.0079*%
%ADD30C,0.0039*%
D18*
X015250Y017944D02*
Y017610D01*
X014917Y017944D01*
X014833D01*
X014750Y017860D01*
Y017694D01*
X014833Y017610D01*
X015250Y042260D02*
X014750D01*
X015000Y042010D01*
Y042344D01*
X014833Y042510D02*
X014750Y042593D01*
Y042760D01*
X014833Y042843D01*
X015167D01*
X015250Y042760D01*
Y042593D01*
X015167Y042510D01*
X014833D01*
X016250Y017610D02*
Y017777D01*
Y017694D01*
X015750D01*
X015833Y017610D01*
Y042010D02*
X015750Y042094D01*
Y042260D01*
X015833Y042344D01*
X015917D01*
X016000Y042260D01*
Y042177D01*
Y042260D01*
X016083Y042344D01*
X016167D01*
X016250Y042260D01*
Y042094D01*
X016167Y042010D01*
Y042510D02*
X016250Y042593D01*
Y042760D01*
X016167Y042843D01*
X015833D01*
X015750Y042760D01*
Y042593D01*
X015833Y042510D01*
X015917D01*
X016000Y042593D01*
Y042843D01*
D27*
X038433Y035789D02*
G03*
X038433Y035789I-000049J000000D01*
G01*
Y024849D02*
G03*
X038433Y024849I-000049J000000D01*
G01*
Y030349D02*
G03*
X038433Y030349I-000049J000000D01*
G01*
X025628Y034555D02*
G03*
X025628Y034555I-000049J000000D01*
G01*
X025631Y029095D02*
G03*
X025631Y029095I-000049J000000D01*
G01*
X025624Y023615D02*
G03*
X025624Y023615I-000049J000000D01*
G01*
X028068Y034555D02*
G03*
X028068Y034555I-000049J000000D01*
G01*
X028071Y029095D02*
G03*
X028071Y029095I-000049J000000D01*
G01*
X028064Y023615D02*
G03*
X028064Y023615I-000049J000000D01*
G01*
X035361Y033474D02*
G03*
X035361Y033474I-000049J000000D01*
G01*
X035364Y028014D02*
G03*
X035364Y028014I-000049J000000D01*
G01*
X035356Y022534D02*
G03*
X035356Y022534I-000049J000000D01*
G01*
X035361Y035764D02*
G03*
X035361Y035764I-000049J000000D01*
G01*
X035364Y030304D02*
G03*
X035364Y030304I-000049J000000D01*
G01*
X035356Y024824D02*
G03*
X035356Y024824I-000049J000000D01*
G01*
D28*
X026268Y035411D02*
G03*
X026268Y035411I-000118J000000D01*
G01*
X026271Y029951D02*
G03*
X026271Y029951I-000118J000000D01*
G01*
X026263Y024471D02*
G03*
X026263Y024471I-000118J000000D01*
G01*
X028708Y035411D02*
G03*
X028708Y035411I-000118J000000D01*
G01*
X028711Y029951D02*
G03*
X028711Y029951I-000118J000000D01*
G01*
X028703Y024471D02*
G03*
X028703Y024471I-000118J000000D01*
G01*
X034603Y033937D02*
G03*
X034603Y033937I-000118J000000D01*
G01*
X034606Y028477D02*
G03*
X034606Y028477I-000118J000000D01*
G01*
X034598Y022997D02*
G03*
X034598Y022997I-000118J000000D01*
G01*
X034603Y036227D02*
G03*
X034603Y036227I-000118J000000D01*
G01*
X034606Y030767D02*
G03*
X034606Y030767I-000118J000000D01*
G01*
X034598Y025287D02*
G03*
X034598Y025287I-000118J000000D01*
G01*
D29*
X034553Y021622D02*
G03*
X034553Y021622I-000020J000000D01*
G01*
X034543Y039027D02*
G03*
X034543Y039027I-000020J000000D01*
G01*
X037951Y035887D02*
X038069D01*
X037951Y036793D02*
X038069D01*
Y035887D02*
Y036793D01*
X037951Y035887D02*
Y036793D01*
Y024947D02*
X038069D01*
X037951Y025853D02*
X038069D01*
Y024947D02*
Y025853D01*
X037951Y024947D02*
Y025853D01*
Y030447D02*
X038069D01*
X037951Y031353D02*
X038069D01*
Y030447D02*
Y031353D01*
X037951Y030447D02*
Y031353D01*
X025756Y035018D02*
Y036356D01*
X027764D01*
X025756Y035018D02*
X027764D01*
Y036356D01*
X025759Y029558D02*
Y030896D01*
X027767D01*
X025759Y029558D02*
X027767D01*
Y030896D01*
X027760Y024078D02*
Y025416D01*
X025752D02*
X027760D01*
X025752Y024078D02*
X027760D01*
X025752D02*
Y025416D01*
X028196Y035018D02*
Y036356D01*
X030204D01*
X028196Y035018D02*
X030204D01*
Y036356D01*
X028199Y029558D02*
Y030896D01*
X030207D01*
X028199Y029558D02*
X030207D01*
Y030896D01*
X030200Y024078D02*
Y025416D01*
X028192D02*
X030200D01*
X028192Y024078D02*
X030200D01*
X028192D02*
Y025416D01*
X033422Y033543D02*
Y035551D01*
X034878Y033543D02*
Y035551D01*
X033422D02*
X034878D01*
X033422Y033543D02*
X034878D01*
X033425Y028083D02*
Y030091D01*
X034881Y028083D02*
Y030091D01*
X033425D02*
X034881D01*
X033425Y028083D02*
X034881D01*
X034874Y022603D02*
Y024611D01*
X033417Y022603D02*
X034874D01*
X033417Y024611D02*
X034874D01*
X033417Y022603D02*
Y024611D01*
X033422Y035833D02*
Y037841D01*
X034878Y035833D02*
Y037841D01*
X033422D02*
X034878D01*
X033422Y035833D02*
X034878D01*
X033425Y030373D02*
Y032381D01*
X034881Y030373D02*
Y032381D01*
X033425D02*
X034881D01*
X033425Y030373D02*
X034881D01*
X034874Y024893D02*
Y026901D01*
X033417Y024893D02*
X034874D01*
X033417Y026901D02*
X034874D01*
X033417Y024893D02*
Y026901D01*
X010850Y018410D02*
Y041610D01*
Y018410D02*
X016550D01*
X010850Y041610D02*
X016550D01*
Y018410D02*
Y041610D01*
D30*
X038603Y026612D02*
Y026808D01*
X038957Y026612D02*
Y026808D01*
X038683Y032092D02*
Y032288D01*
X039037Y032092D02*
Y032288D01*
X038402Y037203D02*
X038598D01*
X038402Y037557D02*
X038598D01*
X034923Y021366D02*
Y021563D01*
X035277Y021366D02*
Y021563D01*
X034893Y038772D02*
Y038968D01*
X035247Y038772D02*
Y038968D01*
X033043Y038772D02*
Y038968D01*
X033397Y038772D02*
Y038968D01*
X033023Y021366D02*
Y021563D01*
X033377Y021366D02*
Y021563D01*
X039764Y029833D02*
Y030187D01*
X040276Y029833D02*
Y030187D01*
X034337Y021130D02*
X034711D01*
X033569D02*
X033943D01*
X033963Y021799D02*
X034317Y021799D01*
X034711Y021130D02*
Y021799D01*
X033569Y021130D02*
Y021799D01*
X034327Y038535D02*
X034701D01*
X033559D02*
X033933D01*
X033953Y039205D02*
X034307Y039205D01*
X034701Y038535D02*
Y039205D01*
X033559Y038535D02*
Y039205D01*
M02*
