G04 Layer_Physical_Order=1*
G04 Layer_Color=255*
%FSAX24Y24*%
%MOIN*%
G70*
G01*
G75*
%ADD10R,0.0335X0.0157*%
%ADD11R,0.0394X0.0374*%
%ADD12R,0.0374X0.0394*%
%ADD13R,0.0197X0.0354*%
%ADD14O,0.0138X0.0610*%
%ADD15O,0.0551X0.0177*%
%ADD16R,0.0244X0.0480*%
%ADD17C,0.0100*%
%ADD18C,0.0080*%
%ADD19C,0.0200*%
%ADD20C,0.0120*%
%ADD21C,0.2500*%
%ADD22C,0.0591*%
%ADD23R,0.0591X0.0591*%
G04:AMPARAMS|DCode=24|XSize=32mil|YSize=28mil|CornerRadius=7mil|HoleSize=0mil|Usage=FLASHONLY|Rotation=0.000|XOffset=0mil|YOffset=0mil|HoleType=Round|Shape=RoundedRectangle|*
%AMROUNDEDRECTD24*
21,1,0.0320,0.0140,0,0,0.0*
21,1,0.0180,0.0280,0,0,0.0*
1,1,0.0140,0.0090,-0.0070*
1,1,0.0140,-0.0090,-0.0070*
1,1,0.0140,-0.0090,0.0070*
1,1,0.0140,0.0090,0.0070*
%
%ADD24ROUNDEDRECTD24*%
%ADD25C,0.0283*%
%ADD26C,0.0320*%
G36*
X042650Y018370D02*
X010810D01*
Y041650D01*
X042650D01*
Y018370D01*
D02*
G37*
%LPC*%
G36*
X016100Y039902D02*
Y039560D01*
X016442D01*
X016435Y039614D01*
X016395Y039710D01*
X016332Y039792D01*
X016249Y039856D01*
X016153Y039895D01*
X016100Y039902D01*
D02*
G37*
G36*
X015100D02*
Y039560D01*
X015442D01*
X015435Y039614D01*
X015395Y039710D01*
X015332Y039792D01*
X015249Y039856D01*
X015153Y039895D01*
X015100Y039902D01*
D02*
G37*
G36*
X016000Y039902D02*
X015947Y039895D01*
X015851Y039856D01*
X015768Y039792D01*
X015705Y039710D01*
X015665Y039614D01*
X015658Y039560D01*
X016000D01*
Y039902D01*
D02*
G37*
G36*
X015000D02*
X014947Y039895D01*
X014851Y039856D01*
X014768Y039792D01*
X014705Y039710D01*
X014665Y039614D01*
X014658Y039560D01*
X015000D01*
Y039902D01*
D02*
G37*
G36*
X015442Y039460D02*
X015100D01*
Y039118D01*
X015153Y039125D01*
X015249Y039165D01*
X015332Y039228D01*
X015395Y039311D01*
X015435Y039407D01*
X015442Y039460D01*
D02*
G37*
G36*
X015000D02*
X014658D01*
X014665Y039407D01*
X014705Y039311D01*
X014768Y039228D01*
X014851Y039165D01*
X014947Y039125D01*
X015000Y039118D01*
Y039460D01*
D02*
G37*
G36*
X040680Y041434D02*
X040465Y041417D01*
X040255Y041367D01*
X040056Y041284D01*
X039872Y041172D01*
X039708Y041032D01*
X039568Y040868D01*
X039456Y040684D01*
X039373Y040485D01*
X039323Y040275D01*
X039306Y040060D01*
X039323Y039845D01*
X039373Y039635D01*
X039456Y039436D01*
X039568Y039252D01*
X039708Y039088D01*
X039872Y038948D01*
X040056Y038836D01*
X040255Y038753D01*
X040465Y038703D01*
X040680Y038686D01*
X040895Y038703D01*
X041105Y038753D01*
X041304Y038836D01*
X041488Y038948D01*
X041652Y039088D01*
X041792Y039252D01*
X041904Y039436D01*
X041987Y039635D01*
X042037Y039845D01*
X042054Y040060D01*
X042037Y040275D01*
X041987Y040485D01*
X041904Y040684D01*
X041792Y040868D01*
X041652Y041032D01*
X041488Y041172D01*
X041304Y041284D01*
X041105Y041367D01*
X040895Y041417D01*
X040680Y041434D01*
D02*
G37*
G36*
X016442Y036460D02*
X016100D01*
Y036118D01*
X016153Y036125D01*
X016249Y036165D01*
X016332Y036228D01*
X016395Y036311D01*
X016435Y036407D01*
X016442Y036460D01*
D02*
G37*
G36*
X015442D02*
X015100D01*
Y036118D01*
X015153Y036125D01*
X015249Y036165D01*
X015332Y036228D01*
X015395Y036311D01*
X015435Y036407D01*
X015442Y036460D01*
D02*
G37*
G36*
X016000D02*
X015658D01*
X015665Y036407D01*
X015705Y036311D01*
X015768Y036228D01*
X015851Y036165D01*
X015947Y036125D01*
X016000Y036118D01*
Y036460D01*
D02*
G37*
G36*
X015000D02*
X014658D01*
X014665Y036407D01*
X014705Y036311D01*
X014768Y036228D01*
X014851Y036165D01*
X014947Y036125D01*
X015000Y036118D01*
Y036460D01*
D02*
G37*
G36*
X016100Y035902D02*
Y035560D01*
X016442D01*
X016435Y035614D01*
X016395Y035710D01*
X016332Y035792D01*
X016249Y035856D01*
X016153Y035895D01*
X016100Y035902D01*
D02*
G37*
G36*
X016000Y035902D02*
X015947Y035895D01*
X015851Y035856D01*
X015768Y035792D01*
X015705Y035710D01*
X015665Y035614D01*
X015658Y035560D01*
X016000D01*
Y035902D01*
D02*
G37*
G36*
X037350Y040873D02*
X019621D01*
X019559Y040861D01*
X019506Y040825D01*
X017864Y039183D01*
X016347D01*
X016344Y039194D01*
X016336Y039233D01*
X016395Y039311D01*
X016435Y039407D01*
X016442Y039460D01*
X016050D01*
X015658D01*
X015665Y039407D01*
X015705Y039311D01*
X015764Y039233D01*
X015756Y039194D01*
X015753Y039183D01*
X015560D01*
X015497Y039171D01*
X015444Y039135D01*
X015205Y038896D01*
X015158Y038915D01*
X015050Y038929D01*
X014942Y038915D01*
X014841Y038873D01*
X014754Y038806D01*
X014687Y038720D01*
X014645Y038619D01*
X014631Y038510D01*
X014645Y038402D01*
X014687Y038301D01*
X014725Y038252D01*
X014745Y038205D01*
X014519Y037980D01*
X014484Y037927D01*
X014472Y037865D01*
Y037315D01*
X014484Y037253D01*
X014519Y037200D01*
X014740Y036980D01*
X014793Y036944D01*
X014855Y036932D01*
X014904D01*
X014914Y036882D01*
X014851Y036856D01*
X014768Y036792D01*
X014705Y036710D01*
X014665Y036614D01*
X014658Y036560D01*
X015050D01*
X015442D01*
X015435Y036614D01*
X015395Y036710D01*
X015332Y036792D01*
X015249Y036856D01*
X015186Y036882D01*
X015196Y036932D01*
X015904D01*
X015914Y036882D01*
X015851Y036856D01*
X015768Y036792D01*
X015705Y036710D01*
X015665Y036614D01*
X015658Y036560D01*
X016050D01*
X016442D01*
X016435Y036614D01*
X016395Y036710D01*
X016332Y036792D01*
X016249Y036856D01*
X016186Y036882D01*
X016196Y036932D01*
X016685D01*
X016747Y036944D01*
X016800Y036980D01*
X019888Y040067D01*
X021311D01*
X021330Y040021D01*
X016482Y035173D01*
X016338D01*
X016322Y035220D01*
X016332Y035228D01*
X016395Y035311D01*
X016435Y035407D01*
X016442Y035460D01*
X016050D01*
X015658D01*
X015665Y035407D01*
X015705Y035311D01*
X015768Y035228D01*
X015778Y035220D01*
X015762Y035173D01*
X015550D01*
X015487Y035161D01*
X015434Y035125D01*
X015205Y034896D01*
X015158Y034915D01*
X015050Y034929D01*
X014942Y034915D01*
X014841Y034873D01*
X014754Y034806D01*
X014687Y034720D01*
X014645Y034619D01*
X014631Y034510D01*
X014645Y034402D01*
X014687Y034301D01*
X014739Y034233D01*
X014715Y034183D01*
X014658D01*
X014513Y034328D01*
Y035172D01*
X014640Y035299D01*
X014698Y035287D01*
X014754Y035214D01*
X014841Y035148D01*
X014942Y035106D01*
X015050Y035091D01*
X015158Y035106D01*
X015259Y035148D01*
X015346Y035214D01*
X015413Y035301D01*
X015455Y035402D01*
X015469Y035510D01*
X015455Y035619D01*
X015413Y035720D01*
X015346Y035806D01*
X015259Y035873D01*
X015158Y035915D01*
X015050Y035929D01*
X014942Y035915D01*
X014841Y035873D01*
X014754Y035806D01*
X014687Y035720D01*
X014668Y035673D01*
X014620D01*
X014558Y035661D01*
X014505Y035626D01*
X014235Y035355D01*
X014199Y035302D01*
X014187Y035240D01*
Y034260D01*
X014199Y034198D01*
X014235Y034145D01*
X014475Y033905D01*
X014528Y033869D01*
X014590Y033857D01*
X014770D01*
X014787Y033807D01*
X014768Y033792D01*
X014705Y033710D01*
X014665Y033614D01*
X014658Y033560D01*
X015050D01*
X015442D01*
X015435Y033614D01*
X015395Y033710D01*
X015332Y033792D01*
X015313Y033807D01*
X015330Y033857D01*
X015742D01*
X015758Y033810D01*
X015754Y033806D01*
X015687Y033720D01*
X015645Y033619D01*
X015631Y033510D01*
X015645Y033402D01*
X015687Y033301D01*
X015754Y033214D01*
X015841Y033148D01*
X015942Y033106D01*
X016050Y033091D01*
X016158Y033106D01*
X016259Y033148D01*
X016346Y033214D01*
X016413Y033301D01*
X016455Y033402D01*
X016469Y033510D01*
X016455Y033619D01*
X016413Y033720D01*
X016346Y033806D01*
X016342Y033810D01*
X016358Y033857D01*
X019890D01*
X019952Y033869D01*
X020005Y033905D01*
X021568Y035467D01*
X022206D01*
X022226Y035421D01*
X016489Y029684D01*
X016428D01*
X016413Y029720D01*
X016346Y029806D01*
X016259Y029873D01*
X016158Y029915D01*
X016050Y029929D01*
X015942Y029915D01*
X015841Y029873D01*
X015754Y029806D01*
X015687Y029720D01*
X015645Y029619D01*
X015631Y029510D01*
X015645Y029402D01*
X015687Y029301D01*
X015754Y029214D01*
X015759Y029210D01*
X015743Y029163D01*
X015628D01*
X015435Y029356D01*
X015455Y029402D01*
X015469Y029510D01*
X015455Y029619D01*
X015413Y029720D01*
X015346Y029806D01*
X015259Y029873D01*
X015158Y029915D01*
X015050Y029929D01*
X014942Y029915D01*
X014841Y029873D01*
X014754Y029806D01*
X014687Y029720D01*
X014645Y029619D01*
X014631Y029510D01*
X014645Y029402D01*
X014687Y029301D01*
X014754Y029214D01*
X014841Y029148D01*
X014942Y029106D01*
X015050Y029091D01*
X015158Y029106D01*
X015205Y029125D01*
X015445Y028885D01*
X015498Y028849D01*
X015560Y028837D01*
X015714D01*
X015739Y028787D01*
X015687Y028720D01*
X015645Y028619D01*
X015631Y028510D01*
X015645Y028402D01*
X015687Y028301D01*
X015754Y028214D01*
X015758Y028211D01*
X015742Y028163D01*
X015530D01*
X015463Y028150D01*
X015407Y028113D01*
X015195Y027900D01*
X015158Y027915D01*
X015050Y027929D01*
X014942Y027915D01*
X014841Y027873D01*
X014754Y027806D01*
X014687Y027720D01*
X014645Y027619D01*
X014631Y027510D01*
X014645Y027402D01*
X014687Y027301D01*
X014754Y027214D01*
X014841Y027148D01*
X014942Y027106D01*
X015050Y027091D01*
X015158Y027106D01*
X015259Y027148D01*
X015346Y027214D01*
X015413Y027301D01*
X015455Y027402D01*
X015469Y027510D01*
X015455Y027619D01*
X015440Y027655D01*
X015601Y027817D01*
X015699D01*
X015723Y027767D01*
X015687Y027720D01*
X015645Y027619D01*
X015631Y027510D01*
X015645Y027402D01*
X015687Y027301D01*
X015754Y027214D01*
X015841Y027148D01*
X015942Y027106D01*
X016050Y027091D01*
X016158Y027106D01*
X016259Y027148D01*
X016346Y027214D01*
X016413Y027301D01*
X016428Y027337D01*
X016988D01*
X017068Y027257D01*
X017066Y027240D01*
X017075Y027172D01*
X017101Y027108D01*
X017143Y027053D01*
X017198Y027011D01*
X017215Y027004D01*
X017225Y026955D01*
X016943Y026673D01*
X016432D01*
X016413Y026720D01*
X016346Y026806D01*
X016259Y026873D01*
X016158Y026915D01*
X016050Y026929D01*
X015942Y026915D01*
X015841Y026873D01*
X015754Y026806D01*
X015687Y026720D01*
X015645Y026619D01*
X015631Y026510D01*
X015645Y026402D01*
X015687Y026301D01*
X015754Y026214D01*
X015841Y026148D01*
X015942Y026106D01*
X016050Y026091D01*
X016158Y026106D01*
X016259Y026148D01*
X016346Y026214D01*
X016413Y026301D01*
X016432Y026347D01*
X017010D01*
X017073Y026360D01*
X017126Y026395D01*
X018245Y027515D01*
X018281Y027568D01*
X018293Y027630D01*
Y028752D01*
X019525Y029985D01*
X019573Y029961D01*
X019566Y029910D01*
X019575Y029842D01*
X019601Y029778D01*
X019643Y029723D01*
X019698Y029681D01*
X019762Y029655D01*
X019830Y029646D01*
X019898Y029655D01*
X019962Y029681D01*
X020017Y029723D01*
X020027Y029737D01*
X021032D01*
X021064Y029730D01*
X023008D01*
X023023Y029705D01*
X023029Y029680D01*
X022991Y029632D01*
X022965Y029568D01*
X022956Y029500D01*
X022965Y029432D01*
X022991Y029368D01*
X023033Y029313D01*
X023088Y029271D01*
X023152Y029245D01*
X023220Y029236D01*
X023288Y029245D01*
X023352Y029271D01*
X023407Y029313D01*
X023449Y029368D01*
X023475Y029432D01*
X023484Y029500D01*
X023482Y029514D01*
X023516Y029550D01*
X025694D01*
Y029412D01*
X025690Y029405D01*
X025675Y029331D01*
Y028859D01*
X025690Y028785D01*
X025704Y028763D01*
Y028661D01*
X025654Y028641D01*
X025342Y028953D01*
X025344Y028970D01*
X025335Y029038D01*
X025309Y029102D01*
X025267Y029157D01*
X025212Y029199D01*
X025148Y029225D01*
X025080Y029234D01*
X025012Y029225D01*
X024948Y029199D01*
X024893Y029157D01*
X024851Y029102D01*
X024825Y029038D01*
X024816Y028970D01*
X024825Y028902D01*
X024806Y028870D01*
X024772Y028865D01*
X024708Y028839D01*
X024653Y028797D01*
X024611Y028742D01*
X024587Y028684D01*
X021637D01*
X021627Y028697D01*
X021572Y028739D01*
X021508Y028765D01*
X021440Y028774D01*
X021372Y028765D01*
X021308Y028739D01*
X021253Y028697D01*
X021211Y028642D01*
X021185Y028579D01*
X021176Y028510D01*
X021185Y028442D01*
X021211Y028378D01*
X021253Y028324D01*
X021308Y028282D01*
X021372Y028255D01*
X021440Y028246D01*
X021508Y028255D01*
X021572Y028282D01*
X021627Y028324D01*
X021637Y028337D01*
X024740D01*
X024807Y028350D01*
X024807Y028350D01*
X024840Y028346D01*
X024857Y028348D01*
X025028Y028177D01*
X025026Y028160D01*
X025035Y028092D01*
X025061Y028028D01*
X025103Y027973D01*
X025158Y027931D01*
X025222Y027905D01*
X025290Y027896D01*
X025358Y027905D01*
X025397Y027921D01*
X025447Y027891D01*
Y027832D01*
X025307Y027692D01*
X025290Y027694D01*
X025222Y027685D01*
X025158Y027659D01*
X025103Y027617D01*
X025061Y027562D01*
X025035Y027498D01*
X025026Y027430D01*
X025035Y027362D01*
X025061Y027298D01*
X025096Y027253D01*
X025081Y027203D01*
X018580D01*
X018518Y027191D01*
X018465Y027155D01*
X016472Y025163D01*
X016329D01*
X016312Y025213D01*
X016332Y025228D01*
X016395Y025311D01*
X016435Y025407D01*
X016442Y025460D01*
X016050D01*
X015658D01*
X015665Y025407D01*
X015705Y025311D01*
X015768Y025228D01*
X015788Y025213D01*
X015771Y025163D01*
X015540D01*
X015477Y025151D01*
X015424Y025115D01*
X015205Y024896D01*
X015158Y024915D01*
X015050Y024929D01*
X014942Y024915D01*
X014841Y024873D01*
X014754Y024806D01*
X014687Y024720D01*
X014645Y024619D01*
X014631Y024510D01*
X014645Y024402D01*
X014687Y024301D01*
X014695Y024291D01*
X014657Y024258D01*
X014463Y024452D01*
Y027679D01*
X014905Y028121D01*
X014942Y028106D01*
X015050Y028091D01*
X015158Y028106D01*
X015259Y028148D01*
X015346Y028214D01*
X015413Y028301D01*
X015455Y028402D01*
X015469Y028510D01*
X015455Y028619D01*
X015413Y028720D01*
X015346Y028806D01*
X015259Y028873D01*
X015158Y028915D01*
X015050Y028929D01*
X014942Y028915D01*
X014841Y028873D01*
X014754Y028806D01*
X014687Y028720D01*
X014645Y028619D01*
X014631Y028510D01*
X014645Y028402D01*
X014660Y028366D01*
X014167Y027873D01*
X014130Y027817D01*
X014117Y027750D01*
Y024380D01*
X014130Y024314D01*
X014167Y024257D01*
X014537Y023887D01*
X014594Y023850D01*
X014660Y023837D01*
X014753D01*
X014764Y023787D01*
X014705Y023710D01*
X014665Y023614D01*
X014658Y023560D01*
X015050D01*
X015442D01*
X015435Y023614D01*
X015395Y023710D01*
X015336Y023787D01*
X015347Y023837D01*
X015714D01*
X015739Y023787D01*
X015687Y023720D01*
X015645Y023619D01*
X015631Y023510D01*
X015645Y023402D01*
X015687Y023301D01*
X015754Y023214D01*
X015841Y023148D01*
X015942Y023106D01*
X016050Y023091D01*
X016158Y023106D01*
X016259Y023148D01*
X016346Y023214D01*
X016413Y023301D01*
X016432Y023347D01*
X023872D01*
X024975Y022245D01*
X025028Y022209D01*
X025090Y022197D01*
X029799D01*
X029861Y022209D01*
X029914Y022245D01*
X030238Y022569D01*
X030274Y022622D01*
X030286Y022684D01*
Y023219D01*
X030274Y023282D01*
X030264Y023297D01*
X030269Y023305D01*
X030284Y023379D01*
Y023817D01*
X030334Y023838D01*
X031452Y022720D01*
X031505Y022684D01*
X031567Y022672D01*
X031979D01*
X032009Y022628D01*
X032071Y022586D01*
X032133Y022574D01*
X032122Y022519D01*
Y022379D01*
X032137Y022305D01*
X032179Y022242D01*
X032241Y022200D01*
X032316Y022185D01*
X032496D01*
X032570Y022200D01*
X032633Y022242D01*
X032662Y022286D01*
X033249D01*
X033312Y022298D01*
X033364Y022334D01*
X033691Y022660D01*
X033720Y022656D01*
X033788Y022665D01*
X033852Y022691D01*
X033907Y022733D01*
X033949Y022788D01*
X033975Y022852D01*
X033984Y022920D01*
X033975Y022988D01*
X033949Y023052D01*
X033907Y023107D01*
X033852Y023149D01*
X033811Y023165D01*
X033796Y023221D01*
X034141Y023566D01*
X034200Y023555D01*
X034211Y023528D01*
X034253Y023473D01*
X034277Y023455D01*
Y023060D01*
X034289Y022998D01*
X034325Y022945D01*
X034680Y022589D01*
X034661Y022543D01*
X033880D01*
X033880Y022543D01*
X033818Y022531D01*
X033765Y022495D01*
X033651Y022381D01*
X033623Y022340D01*
X033524D01*
Y022187D01*
X033452Y022139D01*
X033439Y022126D01*
X032883D01*
Y021512D01*
X033517D01*
Y021608D01*
X033535Y021612D01*
X033547Y021620D01*
X034008D01*
Y022217D01*
X034272D01*
Y021620D01*
X034733D01*
X034745Y021612D01*
X034783Y021604D01*
Y021512D01*
X035417D01*
Y021537D01*
X035450Y021560D01*
X035467Y021563D01*
X035530Y021555D01*
X035598Y021564D01*
X035662Y021590D01*
X035717Y021632D01*
X035759Y021687D01*
X035785Y021750D01*
X035794Y021819D01*
X035785Y021887D01*
X035759Y021951D01*
X035717Y022005D01*
X035662Y022047D01*
X035598Y022074D01*
X035530Y022083D01*
X035467Y022074D01*
X035450Y022078D01*
X035417Y022100D01*
Y022126D01*
X034841D01*
X034828Y022139D01*
X034786Y022167D01*
X034802Y022217D01*
X036840D01*
X036902Y022229D01*
X036955Y022265D01*
X039365Y024675D01*
X039401Y024728D01*
X039413Y024790D01*
Y029990D01*
X039430Y030001D01*
X039463Y030009D01*
X039624Y029848D01*
Y029280D01*
X040416D01*
Y029848D01*
X040531Y029963D01*
X040566Y030016D01*
X040579Y030079D01*
Y031324D01*
X040566Y031387D01*
X040531Y031440D01*
X040213Y031758D01*
Y038010D01*
X040201Y038072D01*
X040165Y038125D01*
X037465Y040825D01*
X037412Y040861D01*
X037350Y040873D01*
D02*
G37*
G36*
X015442Y033460D02*
X015100D01*
Y033118D01*
X015153Y033125D01*
X015249Y033165D01*
X015332Y033228D01*
X015395Y033311D01*
X015435Y033407D01*
X015442Y033460D01*
D02*
G37*
G36*
X015000D02*
X014658D01*
X014665Y033407D01*
X014705Y033311D01*
X014768Y033228D01*
X014851Y033165D01*
X014947Y033125D01*
X015000Y033118D01*
Y033460D01*
D02*
G37*
G36*
X016050Y032929D02*
X015942Y032915D01*
X015841Y032873D01*
X015754Y032806D01*
X015687Y032720D01*
X015645Y032619D01*
X015631Y032510D01*
X015645Y032402D01*
X015687Y032301D01*
X015754Y032214D01*
X015841Y032148D01*
X015942Y032106D01*
X016050Y032091D01*
X016158Y032106D01*
X016259Y032148D01*
X016346Y032214D01*
X016413Y032301D01*
X016455Y032402D01*
X016469Y032510D01*
X016455Y032619D01*
X016413Y032720D01*
X016346Y032806D01*
X016259Y032873D01*
X016158Y032915D01*
X016050Y032929D01*
D02*
G37*
G36*
X015050D02*
X014942Y032915D01*
X014841Y032873D01*
X014754Y032806D01*
X014687Y032720D01*
X014645Y032619D01*
X014631Y032510D01*
X014645Y032402D01*
X014687Y032301D01*
X014754Y032214D01*
X014841Y032148D01*
X014942Y032106D01*
X015050Y032091D01*
X015158Y032106D01*
X015259Y032148D01*
X015346Y032214D01*
X015413Y032301D01*
X015455Y032402D01*
X015469Y032510D01*
X015455Y032619D01*
X015413Y032720D01*
X015346Y032806D01*
X015259Y032873D01*
X015158Y032915D01*
X015050Y032929D01*
D02*
G37*
G36*
X016050Y031929D02*
X015942Y031915D01*
X015841Y031873D01*
X015754Y031806D01*
X015687Y031720D01*
X015645Y031619D01*
X015631Y031510D01*
X015645Y031402D01*
X015687Y031301D01*
X015754Y031214D01*
X015841Y031148D01*
X015942Y031106D01*
X016050Y031091D01*
X016158Y031106D01*
X016259Y031148D01*
X016346Y031214D01*
X016413Y031301D01*
X016455Y031402D01*
X016469Y031510D01*
X016455Y031619D01*
X016413Y031720D01*
X016346Y031806D01*
X016259Y031873D01*
X016158Y031915D01*
X016050Y031929D01*
D02*
G37*
G36*
X015050D02*
X014942Y031915D01*
X014841Y031873D01*
X014754Y031806D01*
X014687Y031720D01*
X014645Y031619D01*
X014631Y031510D01*
X014645Y031402D01*
X014687Y031301D01*
X014754Y031214D01*
X014841Y031148D01*
X014942Y031106D01*
X015050Y031091D01*
X015158Y031106D01*
X015259Y031148D01*
X015346Y031214D01*
X015413Y031301D01*
X015455Y031402D01*
X015469Y031510D01*
X015455Y031619D01*
X015413Y031720D01*
X015346Y031806D01*
X015259Y031873D01*
X015158Y031915D01*
X015050Y031929D01*
D02*
G37*
G36*
X016050Y030929D02*
X015942Y030915D01*
X015841Y030873D01*
X015754Y030806D01*
X015687Y030720D01*
X015645Y030619D01*
X015631Y030510D01*
X015645Y030402D01*
X015687Y030301D01*
X015754Y030214D01*
X015841Y030148D01*
X015942Y030106D01*
X016050Y030091D01*
X016158Y030106D01*
X016259Y030148D01*
X016346Y030214D01*
X016413Y030301D01*
X016455Y030402D01*
X016469Y030510D01*
X016455Y030619D01*
X016413Y030720D01*
X016346Y030806D01*
X016259Y030873D01*
X016158Y030915D01*
X016050Y030929D01*
D02*
G37*
G36*
X015050D02*
X014942Y030915D01*
X014841Y030873D01*
X014754Y030806D01*
X014687Y030720D01*
X014645Y030619D01*
X014631Y030510D01*
X014645Y030402D01*
X014687Y030301D01*
X014754Y030214D01*
X014841Y030148D01*
X014942Y030106D01*
X015050Y030091D01*
X015158Y030106D01*
X015259Y030148D01*
X015346Y030214D01*
X015413Y030301D01*
X015455Y030402D01*
X015469Y030510D01*
X015455Y030619D01*
X015413Y030720D01*
X015346Y030806D01*
X015259Y030873D01*
X015158Y030915D01*
X015050Y030929D01*
D02*
G37*
G36*
X015100Y026902D02*
Y026560D01*
X015442D01*
X015435Y026614D01*
X015395Y026710D01*
X015332Y026792D01*
X015249Y026856D01*
X015153Y026895D01*
X015100Y026902D01*
D02*
G37*
G36*
X015000D02*
X014947Y026895D01*
X014851Y026856D01*
X014768Y026792D01*
X014705Y026710D01*
X014665Y026614D01*
X014658Y026560D01*
X015000D01*
Y026902D01*
D02*
G37*
G36*
X015442Y026460D02*
X015100D01*
Y026118D01*
X015153Y026125D01*
X015249Y026165D01*
X015332Y026228D01*
X015395Y026311D01*
X015435Y026407D01*
X015442Y026460D01*
D02*
G37*
G36*
X015000D02*
X014658D01*
X014665Y026407D01*
X014705Y026311D01*
X014768Y026228D01*
X014851Y026165D01*
X014947Y026125D01*
X015000Y026118D01*
Y026460D01*
D02*
G37*
G36*
X016100Y025902D02*
Y025560D01*
X016442D01*
X016435Y025614D01*
X016395Y025710D01*
X016332Y025792D01*
X016249Y025856D01*
X016153Y025895D01*
X016100Y025902D01*
D02*
G37*
G36*
X016000D02*
X015947Y025895D01*
X015851Y025856D01*
X015768Y025792D01*
X015705Y025710D01*
X015665Y025614D01*
X015658Y025560D01*
X016000D01*
Y025902D01*
D02*
G37*
G36*
X015050Y025929D02*
X014942Y025915D01*
X014841Y025873D01*
X014754Y025806D01*
X014687Y025720D01*
X014645Y025619D01*
X014631Y025510D01*
X014645Y025402D01*
X014687Y025301D01*
X014754Y025214D01*
X014841Y025148D01*
X014942Y025106D01*
X015050Y025091D01*
X015158Y025106D01*
X015259Y025148D01*
X015346Y025214D01*
X015413Y025301D01*
X015455Y025402D01*
X015469Y025510D01*
X015455Y025619D01*
X015413Y025720D01*
X015346Y025806D01*
X015259Y025873D01*
X015158Y025915D01*
X015050Y025929D01*
D02*
G37*
G36*
X015442Y023460D02*
X015100D01*
Y023118D01*
X015153Y023125D01*
X015249Y023165D01*
X015332Y023228D01*
X015395Y023311D01*
X015435Y023407D01*
X015442Y023460D01*
D02*
G37*
G36*
X015000D02*
X014658D01*
X014665Y023407D01*
X014705Y023311D01*
X014768Y023228D01*
X014851Y023165D01*
X014947Y023125D01*
X015000Y023118D01*
Y023460D01*
D02*
G37*
G36*
X016050Y022929D02*
X015942Y022915D01*
X015841Y022873D01*
X015754Y022806D01*
X015687Y022720D01*
X015645Y022619D01*
X015631Y022510D01*
X015645Y022402D01*
X015687Y022301D01*
X015754Y022214D01*
X015841Y022148D01*
X015942Y022106D01*
X016050Y022091D01*
X016158Y022106D01*
X016259Y022148D01*
X016346Y022214D01*
X016413Y022301D01*
X016455Y022402D01*
X016469Y022510D01*
X016455Y022619D01*
X016413Y022720D01*
X016346Y022806D01*
X016259Y022873D01*
X016158Y022915D01*
X016050Y022929D01*
D02*
G37*
G36*
X015050D02*
X014942Y022915D01*
X014841Y022873D01*
X014754Y022806D01*
X014687Y022720D01*
X014645Y022619D01*
X014631Y022510D01*
X014645Y022402D01*
X014687Y022301D01*
X014754Y022214D01*
X014841Y022148D01*
X014942Y022106D01*
X015050Y022091D01*
X015158Y022106D01*
X015259Y022148D01*
X015346Y022214D01*
X015413Y022301D01*
X015455Y022402D01*
X015469Y022510D01*
X015455Y022619D01*
X015413Y022720D01*
X015346Y022806D01*
X015259Y022873D01*
X015158Y022915D01*
X015050Y022929D01*
D02*
G37*
G36*
X016100Y021902D02*
Y021560D01*
X016442D01*
X016435Y021614D01*
X016395Y021710D01*
X016332Y021792D01*
X016249Y021856D01*
X016153Y021895D01*
X016100Y021902D01*
D02*
G37*
G36*
X016000D02*
X015947Y021895D01*
X015851Y021856D01*
X015768Y021792D01*
X015705Y021710D01*
X015665Y021614D01*
X015658Y021560D01*
X016000D01*
Y021902D01*
D02*
G37*
G36*
X035397Y021397D02*
X035150D01*
Y021160D01*
X035397D01*
Y021397D01*
D02*
G37*
G36*
X033497D02*
X033250D01*
Y021160D01*
X033497D01*
Y021397D01*
D02*
G37*
G36*
X035050D02*
X034803D01*
Y021160D01*
X035050D01*
Y021397D01*
D02*
G37*
G36*
X033150D02*
X032903D01*
Y021160D01*
X033150D01*
Y021397D01*
D02*
G37*
G36*
X016442Y021460D02*
X016100D01*
Y021118D01*
X016153Y021125D01*
X016249Y021165D01*
X016332Y021228D01*
X016395Y021311D01*
X016435Y021407D01*
X016442Y021460D01*
D02*
G37*
G36*
X016000D02*
X015658D01*
X015665Y021407D01*
X015705Y021311D01*
X015768Y021228D01*
X015851Y021165D01*
X015947Y021125D01*
X016000Y021118D01*
Y021460D01*
D02*
G37*
G36*
X015050Y021929D02*
X014942Y021915D01*
X014841Y021873D01*
X014754Y021806D01*
X014687Y021720D01*
X014645Y021619D01*
X014631Y021510D01*
X014645Y021402D01*
X014687Y021301D01*
X014754Y021214D01*
X014841Y021148D01*
X014942Y021106D01*
X015050Y021091D01*
X015158Y021106D01*
X015259Y021148D01*
X015346Y021214D01*
X015413Y021301D01*
X015455Y021402D01*
X015469Y021510D01*
X015455Y021619D01*
X015413Y021720D01*
X015346Y021806D01*
X015259Y021873D01*
X015158Y021915D01*
X015050Y021929D01*
D02*
G37*
G36*
X034362Y021289D02*
X034190D01*
Y020999D01*
X034362D01*
Y021289D01*
D02*
G37*
G36*
X034090D02*
X033918D01*
Y020999D01*
X034090D01*
Y021289D01*
D02*
G37*
G36*
X035397Y021060D02*
X035150D01*
Y020823D01*
X035397D01*
Y021060D01*
D02*
G37*
G36*
X035050D02*
X034803D01*
Y020823D01*
X035050D01*
Y021060D01*
D02*
G37*
G36*
X033497D02*
X033250D01*
Y020823D01*
X033497D01*
Y021060D01*
D02*
G37*
G36*
X033150D02*
X032903D01*
Y020823D01*
X033150D01*
Y021060D01*
D02*
G37*
G36*
X034362Y020899D02*
X034190D01*
Y020609D01*
X034362D01*
Y020899D01*
D02*
G37*
G36*
X034090D02*
X033918D01*
Y020609D01*
X034090D01*
Y020899D01*
D02*
G37*
G36*
X016465Y020926D02*
X015635D01*
Y020095D01*
X016465D01*
Y020926D01*
D02*
G37*
G36*
X015050Y020929D02*
X014942Y020915D01*
X014841Y020873D01*
X014754Y020806D01*
X014687Y020720D01*
X014645Y020619D01*
X014631Y020510D01*
X014645Y020402D01*
X014687Y020301D01*
X014754Y020214D01*
X014841Y020148D01*
X014942Y020106D01*
X015050Y020091D01*
X015158Y020106D01*
X015259Y020148D01*
X015346Y020214D01*
X015413Y020301D01*
X015455Y020402D01*
X015469Y020510D01*
X015455Y020619D01*
X015413Y020720D01*
X015346Y020806D01*
X015259Y020873D01*
X015158Y020915D01*
X015050Y020929D01*
D02*
G37*
G36*
X040680Y021644D02*
X040465Y021627D01*
X040255Y021577D01*
X040056Y021494D01*
X039872Y021382D01*
X039708Y021242D01*
X039568Y021078D01*
X039456Y020894D01*
X039373Y020695D01*
X039323Y020485D01*
X039306Y020270D01*
X039323Y020055D01*
X039373Y019845D01*
X039456Y019646D01*
X039568Y019462D01*
X039708Y019298D01*
X039872Y019158D01*
X040056Y019046D01*
X040255Y018963D01*
X040465Y018913D01*
X040680Y018896D01*
X040895Y018913D01*
X041105Y018963D01*
X041304Y019046D01*
X041488Y019158D01*
X041652Y019298D01*
X041792Y019462D01*
X041904Y019646D01*
X041987Y019845D01*
X042037Y020055D01*
X042054Y020270D01*
X042037Y020485D01*
X041987Y020695D01*
X041904Y020894D01*
X041792Y021078D01*
X041652Y021242D01*
X041488Y021382D01*
X041304Y021494D01*
X041105Y021577D01*
X040895Y021627D01*
X040680Y021644D01*
D02*
G37*
%LPD*%
G36*
X036566Y039857D02*
X036531Y039812D01*
X036505Y039748D01*
X036496Y039680D01*
X036505Y039612D01*
X036531Y039548D01*
X036573Y039493D01*
X036628Y039451D01*
X036692Y039425D01*
X036760Y039416D01*
X036789Y039420D01*
X037597Y038612D01*
Y037286D01*
X037547Y037246D01*
X037510Y037254D01*
X037330D01*
X037256Y037239D01*
X037193Y037197D01*
X037176Y037171D01*
X037123Y037182D01*
X037117Y037211D01*
X037081Y037264D01*
X036625Y037720D01*
X036572Y037755D01*
X036510Y037768D01*
X035630D01*
X035580Y037801D01*
X035498Y037817D01*
X035124D01*
X035043Y037801D01*
X034974Y037755D01*
X034928Y037686D01*
X034912Y037605D01*
X034918Y037572D01*
X034877Y037522D01*
X034662D01*
X034595Y037509D01*
X034539Y037471D01*
X033763Y036695D01*
X033713Y036716D01*
Y036999D01*
X033700Y037065D01*
X033663Y037121D01*
X033568Y037215D01*
X033512Y037253D01*
X033446Y037266D01*
X033423D01*
X033382Y037316D01*
X033388Y037349D01*
X033372Y037430D01*
X033341Y037477D01*
X033372Y037523D01*
X033388Y037605D01*
X033372Y037686D01*
X033326Y037755D01*
X033257Y037801D01*
X033176Y037817D01*
X032802D01*
X032720Y037801D01*
X032670Y037768D01*
X032593D01*
X032504Y037857D01*
Y037970D01*
X032489Y038044D01*
X032447Y038107D01*
X032384Y038149D01*
X032310Y038164D01*
X032130D01*
X032056Y038149D01*
X031993Y038107D01*
X031951Y038044D01*
X031936Y037970D01*
Y037924D01*
X030492Y036480D01*
X030310D01*
X030278Y036530D01*
X030288Y036583D01*
Y037055D01*
X030279Y037103D01*
Y037467D01*
X030282Y037470D01*
X030324Y037525D01*
X030351Y037589D01*
X030360Y037657D01*
X030351Y037725D01*
X030324Y037789D01*
X030282Y037844D01*
X030228Y037885D01*
X030164Y037912D01*
X030096Y037921D01*
X030027Y037912D01*
X029964Y037885D01*
X029909Y037844D01*
X029867Y037789D01*
X029863Y037778D01*
X029835Y037773D01*
X029807Y037775D01*
X029771Y037824D01*
X029716Y037865D01*
X029652Y037892D01*
X029584Y037901D01*
X029516Y037892D01*
X029452Y037865D01*
X029397Y037824D01*
X029360Y037775D01*
X029332Y037773D01*
X029305Y037778D01*
X029301Y037789D01*
X029259Y037844D01*
X029204Y037885D01*
X029140Y037912D01*
X029072Y037921D01*
X029004Y037912D01*
X028940Y037885D01*
X028885Y037844D01*
X028843Y037789D01*
X028817Y037725D01*
X028808Y037657D01*
X028817Y037589D01*
X028843Y037525D01*
X028885Y037470D01*
X028889Y037467D01*
Y037264D01*
X028866Y037245D01*
Y036819D01*
X028766D01*
Y037221D01*
X028746Y037222D01*
X028727Y037256D01*
X028720Y037289D01*
X028688Y037337D01*
Y037630D01*
X028675Y037696D01*
X028637Y037753D01*
X028327Y038063D01*
X028271Y038100D01*
X028204Y038113D01*
X026384D01*
X026318Y038100D01*
X026262Y038063D01*
X025952Y037753D01*
X025914Y037696D01*
X025861Y037683D01*
X025833Y037695D01*
X025764Y037704D01*
X025696Y037695D01*
X025632Y037669D01*
X025578Y037627D01*
X025536Y037572D01*
X025509Y037508D01*
X025500Y037440D01*
X025509Y037372D01*
X025536Y037308D01*
X025578Y037253D01*
X025632Y037211D01*
X025691Y037187D01*
Y037136D01*
X025686Y037129D01*
X025672Y037055D01*
Y036583D01*
X025686Y036509D01*
X025728Y036446D01*
X025791Y036405D01*
X025864Y036390D01*
X025897Y036396D01*
X025947Y036355D01*
Y036218D01*
X025913Y036183D01*
X025207D01*
X025197Y036197D01*
X025142Y036239D01*
X025078Y036265D01*
X025010Y036274D01*
X024942Y036265D01*
X024878Y036239D01*
X024823Y036197D01*
X024781Y036142D01*
X024755Y036078D01*
X024746Y036010D01*
X024755Y035942D01*
X024781Y035878D01*
X024808Y035843D01*
X024783Y035793D01*
X021500D01*
X021438Y035781D01*
X021385Y035745D01*
X019822Y034183D01*
X016385D01*
X016361Y034233D01*
X016413Y034301D01*
X016455Y034402D01*
X016461Y034450D01*
X021758Y039747D01*
X032467D01*
X032903Y039310D01*
Y038917D01*
X033537D01*
Y039022D01*
X033543Y039026D01*
X033998D01*
Y039746D01*
X033514D01*
Y039589D01*
X033447Y039544D01*
X033434Y039531D01*
X033144D01*
X032814Y039861D01*
X032833Y039907D01*
X036551D01*
X036566Y039857D01*
D02*
G37*
G36*
X039087Y037812D02*
Y037697D01*
X038547D01*
Y037063D01*
X038626D01*
Y036775D01*
X038434D01*
Y036596D01*
X038334D01*
Y036775D01*
X038173D01*
Y036830D01*
X038161Y036892D01*
X038125Y036945D01*
X038034Y037037D01*
X038053Y037083D01*
X038096D01*
Y037380D01*
Y037677D01*
X037923D01*
Y038680D01*
X037923Y038680D01*
X037911Y038742D01*
X037875Y038795D01*
X037020Y039651D01*
X037024Y039680D01*
X037015Y039748D01*
X036989Y039812D01*
X036979Y039824D01*
X036999Y039880D01*
X037015Y039884D01*
X039087Y037812D01*
D02*
G37*
G36*
Y036177D02*
Y032831D01*
X038910D01*
Y032544D01*
Y032257D01*
X039087D01*
Y032143D01*
X038543D01*
Y031529D01*
X038676D01*
Y031374D01*
X038651Y031335D01*
X038434D01*
Y031156D01*
X038334D01*
Y031335D01*
X038173D01*
Y035885D01*
X038671D01*
Y036050D01*
X038721Y036083D01*
X038742Y036075D01*
X038810Y036066D01*
X038878Y036075D01*
X038942Y036101D01*
X038997Y036143D01*
X039037Y036196D01*
X039042Y036196D01*
X039087Y036177D01*
D02*
G37*
G36*
X026426Y036420D02*
X026442Y036423D01*
X026490Y036455D01*
X026496Y036446D01*
X026558Y036405D01*
X026632Y036390D01*
X026675Y036398D01*
X026725Y036362D01*
Y036319D01*
X026730Y036291D01*
X026735Y036262D01*
X026737Y036260D01*
X026737Y036256D01*
X026753Y036233D01*
X026768Y036208D01*
X027109Y035839D01*
X027089Y035793D01*
X026022D01*
X026017Y035843D01*
X026051Y035850D01*
X026107Y035887D01*
X026243Y036023D01*
X026280Y036079D01*
X026294Y036146D01*
Y036379D01*
X026326Y036404D01*
Y036819D01*
X026426D01*
Y036420D01*
D02*
G37*
G36*
X023475Y035140D02*
X023461Y035122D01*
X023435Y035058D01*
X023432Y035034D01*
X023377Y035003D01*
X023348Y035015D01*
X023280Y035024D01*
X023212Y035015D01*
X023148Y034989D01*
X023093Y034947D01*
X023051Y034892D01*
X023025Y034828D01*
X023016Y034760D01*
X023025Y034692D01*
X023051Y034628D01*
X023093Y034573D01*
X023148Y034531D01*
X023212Y034505D01*
X023280Y034496D01*
X023297Y034498D01*
X024032Y033763D01*
X024029Y033711D01*
X024023Y033707D01*
X023981Y033652D01*
X023955Y033588D01*
X023946Y033520D01*
X023955Y033452D01*
X023975Y033403D01*
X023951Y033353D01*
X022500D01*
X022438Y033341D01*
X022385Y033305D01*
X018938Y029858D01*
X018890Y029882D01*
X018894Y029910D01*
X018885Y029978D01*
X018859Y030042D01*
X018817Y030097D01*
X018762Y030139D01*
X018698Y030165D01*
X018630Y030174D01*
X018562Y030165D01*
X018498Y030139D01*
X018443Y030097D01*
X018425Y030073D01*
X017434D01*
X017414Y030119D01*
X022485Y035190D01*
X023451D01*
X023475Y035140D01*
D02*
G37*
G36*
X025947Y035156D02*
Y035018D01*
X025897Y034977D01*
X025864Y034984D01*
X025791Y034969D01*
X025728Y034927D01*
X025686Y034865D01*
X025672Y034791D01*
Y034319D01*
X025686Y034245D01*
X025701Y034223D01*
Y034087D01*
X025677Y034064D01*
X025656Y034031D01*
X025598Y034055D01*
X025530Y034064D01*
X025462Y034055D01*
X025398Y034029D01*
X025343Y033987D01*
X025301Y033932D01*
X025275Y033868D01*
X025266Y033800D01*
X025275Y033732D01*
X025301Y033668D01*
X025343Y033613D01*
X025398Y033571D01*
X025462Y033545D01*
X025530Y033536D01*
X025598Y033545D01*
X025662Y033571D01*
X025685Y033589D01*
X025839Y033435D01*
X025846Y033430D01*
X025856Y033363D01*
X025849Y033353D01*
X025027D01*
X024993Y033403D01*
X025005Y033432D01*
X025014Y033500D01*
X025005Y033568D01*
X024979Y033632D01*
X024937Y033687D01*
X024923Y033697D01*
Y033930D01*
X024910Y033996D01*
X024873Y034053D01*
X023952Y034973D01*
X023954Y034990D01*
X023945Y035058D01*
X023919Y035122D01*
X023905Y035140D01*
X023929Y035190D01*
X025913D01*
X025947Y035156D01*
D02*
G37*
G36*
X028112Y034791D02*
Y034319D01*
X028126Y034245D01*
X028141Y034223D01*
Y034137D01*
X027717Y033713D01*
X026340D01*
X026311Y033763D01*
X026318Y033820D01*
X026309Y033888D01*
X026283Y033952D01*
X026241Y034007D01*
X026236Y034060D01*
X026271Y034113D01*
X026273Y034124D01*
X026310Y034160D01*
X026325Y034157D01*
X026326Y034156D01*
Y034555D01*
X026426D01*
Y034156D01*
X026442Y034160D01*
X026490Y034192D01*
X026496Y034183D01*
X026558Y034141D01*
X026632Y034126D01*
X026706Y034141D01*
X026760Y034177D01*
X026814Y034141D01*
X026888Y034126D01*
X026962Y034141D01*
X027016Y034177D01*
X027070Y034141D01*
X027144Y034126D01*
X027218Y034141D01*
X027272Y034177D01*
X027326Y034141D01*
X027400Y034126D01*
X027473Y034141D01*
X027536Y034183D01*
X027542Y034192D01*
X027590Y034160D01*
X027606Y034156D01*
Y034555D01*
X027656D01*
Y034605D01*
X027828D01*
Y034791D01*
X027849Y034817D01*
X028091D01*
X028112Y034791D01*
D02*
G37*
G36*
X028866Y034129D02*
X028889Y034110D01*
Y033923D01*
X028863Y033904D01*
X028821Y033849D01*
X028795Y033785D01*
X028786Y033717D01*
X028795Y033649D01*
X028821Y033585D01*
X028863Y033530D01*
X028918Y033488D01*
X028982Y033462D01*
X029050Y033453D01*
X029118Y033462D01*
X029182Y033488D01*
X029237Y033530D01*
X029279Y033585D01*
X029301Y033639D01*
X029321Y033643D01*
X029333D01*
X029353Y033639D01*
X029375Y033585D01*
X029417Y033530D01*
X029472Y033488D01*
X029536Y033462D01*
X029604Y033453D01*
X029662Y033461D01*
X029681Y033436D01*
X029688Y033416D01*
X029626Y033353D01*
X027890D01*
X027882Y033363D01*
X027892Y033430D01*
X027900Y033435D01*
X028165Y033699D01*
X028224Y033688D01*
X028236Y033658D01*
X028278Y033603D01*
X028332Y033561D01*
X028396Y033535D01*
X028464Y033526D01*
X028533Y033535D01*
X028596Y033561D01*
X028651Y033603D01*
X028693Y033658D01*
X028719Y033722D01*
X028728Y033790D01*
X028719Y033858D01*
X028693Y033922D01*
X028651Y033977D01*
X028660Y034033D01*
X028676Y034049D01*
X028711Y034102D01*
X028715Y034123D01*
X028750Y034159D01*
X028766Y034156D01*
Y034555D01*
X028866D01*
Y034129D01*
D02*
G37*
G36*
X031351Y033765D02*
X031404Y033729D01*
X031467Y033717D01*
X031954D01*
X031983Y033673D01*
X032046Y033631D01*
X032088Y033623D01*
X032129Y033571D01*
X032126Y033559D01*
Y033419D01*
X032141Y033345D01*
X032183Y033282D01*
X032246Y033240D01*
X032320Y033225D01*
X032500D01*
X032574Y033240D01*
X032637Y033282D01*
X032666Y033326D01*
X033354D01*
X033416Y033338D01*
X033469Y033374D01*
X033695Y033600D01*
X033724Y033596D01*
X033793Y033605D01*
X033856Y033631D01*
X033911Y033673D01*
X033953Y033728D01*
X033979Y033792D01*
X033988Y033860D01*
X033979Y033928D01*
X033953Y033992D01*
X033911Y034047D01*
X033856Y034089D01*
X033816Y034105D01*
X033801Y034161D01*
X034146Y034506D01*
X034205Y034495D01*
X034216Y034468D01*
X034258Y034413D01*
X034281Y034395D01*
Y034000D01*
X034294Y033938D01*
X034329Y033885D01*
X034849Y033365D01*
X034902Y033329D01*
X034964Y033317D01*
X035740D01*
X035802Y033329D01*
X035855Y033365D01*
X035877Y033386D01*
X036000D01*
X036027Y033364D01*
Y032655D01*
X036003Y032637D01*
X035961Y032582D01*
X035935Y032518D01*
X035926Y032450D01*
X035935Y032382D01*
X035945Y032358D01*
X035912Y032308D01*
X035633D01*
X035583Y032341D01*
X035502Y032357D01*
X035128D01*
X035046Y032341D01*
X034977Y032295D01*
X034931Y032226D01*
X034915Y032145D01*
X034921Y032112D01*
X034880Y032062D01*
X034665D01*
X034599Y032049D01*
X034542Y032011D01*
X033766Y031235D01*
X033716Y031256D01*
Y031539D01*
X033703Y031605D01*
X033666Y031661D01*
X033572Y031755D01*
X033515Y031793D01*
X033449Y031806D01*
X033426D01*
X033385Y031856D01*
X033391Y031889D01*
X033375Y031970D01*
X033344Y032017D01*
X033375Y032063D01*
X033391Y032145D01*
X033375Y032226D01*
X033329Y032295D01*
X033260Y032341D01*
X033179Y032357D01*
X032805D01*
X032723Y032341D01*
X032707Y032330D01*
X032648Y032340D01*
X032640Y032352D01*
X032577Y032394D01*
X032503Y032408D01*
X032323D01*
X032249Y032394D01*
X032186Y032352D01*
X032154Y032303D01*
X031846D01*
X031784Y032291D01*
X031731Y032255D01*
X030496Y031020D01*
X030313D01*
X030281Y031070D01*
X030291Y031123D01*
Y031595D01*
X030282Y031643D01*
Y032007D01*
X030285Y032010D01*
X030327Y032065D01*
X030354Y032129D01*
X030363Y032197D01*
X030354Y032265D01*
X030327Y032329D01*
X030285Y032384D01*
X030231Y032425D01*
X030167Y032452D01*
X030099Y032461D01*
X030030Y032452D01*
X029967Y032425D01*
X029912Y032384D01*
X029870Y032329D01*
X029866Y032318D01*
X029838Y032313D01*
X029811Y032315D01*
X029774Y032364D01*
X029719Y032405D01*
X029655Y032432D01*
X029587Y032441D01*
X029519Y032432D01*
X029455Y032405D01*
X029400Y032364D01*
X029363Y032315D01*
X029336Y032313D01*
X029308Y032318D01*
X029304Y032329D01*
X029262Y032384D01*
X029207Y032425D01*
X029144Y032452D01*
X029075Y032461D01*
X029007Y032452D01*
X028943Y032425D01*
X028889Y032384D01*
X028847Y032329D01*
X028820Y032265D01*
X028811Y032197D01*
X028820Y032129D01*
X028847Y032065D01*
X028889Y032010D01*
X028892Y032007D01*
Y031804D01*
X028869Y031785D01*
Y031359D01*
X028769D01*
Y031761D01*
X028749Y031762D01*
X028730Y031796D01*
X028724Y031829D01*
X028691Y031877D01*
Y032170D01*
X028678Y032236D01*
X028640Y032293D01*
X028040Y032893D01*
X027984Y032930D01*
X027918Y032943D01*
X026275D01*
X026261Y032961D01*
X026257Y032967D01*
X026256Y032967D01*
X026245Y032981D01*
X026260Y033027D01*
X029693D01*
X029756Y033039D01*
X029808Y033075D01*
X030243Y033509D01*
X030278Y033562D01*
X030291Y033624D01*
Y034159D01*
X030278Y034222D01*
X030268Y034237D01*
X030274Y034245D01*
X030288Y034319D01*
Y034757D01*
X030338Y034778D01*
X031351Y033765D01*
D02*
G37*
G36*
X025897Y032977D02*
X025883Y032967D01*
X025841Y032912D01*
X025815Y032848D01*
X025806Y032780D01*
X025815Y032712D01*
X025841Y032648D01*
X025883Y032593D01*
X025904Y032577D01*
Y032261D01*
X025854Y032227D01*
X025836Y032235D01*
X025768Y032244D01*
X025699Y032235D01*
X025636Y032209D01*
X025581Y032167D01*
X025539Y032112D01*
X025513Y032048D01*
X025504Y031980D01*
X025513Y031912D01*
X025539Y031848D01*
X025581Y031793D01*
X025636Y031751D01*
X025694Y031727D01*
Y031676D01*
X025690Y031669D01*
X025675Y031595D01*
Y031123D01*
X025690Y031049D01*
X025731Y030986D01*
X025794Y030945D01*
X025867Y030930D01*
X025900Y030936D01*
X025950Y030895D01*
Y030758D01*
X025916Y030723D01*
X025030D01*
X024964Y030710D01*
X024907Y030673D01*
X024797Y030562D01*
X024780Y030564D01*
X024712Y030555D01*
X024648Y030529D01*
X024593Y030487D01*
X024551Y030432D01*
X024525Y030368D01*
X024516Y030300D01*
X024525Y030232D01*
X024551Y030168D01*
X024583Y030127D01*
X024564Y030077D01*
X021102D01*
X021070Y030083D01*
X021070Y030083D01*
X020027D01*
X020017Y030097D01*
X019962Y030139D01*
X019898Y030165D01*
X019830Y030174D01*
X019779Y030167D01*
X019755Y030215D01*
X022568Y033027D01*
X025880D01*
X025897Y032977D01*
D02*
G37*
G36*
X036803Y036749D02*
Y036594D01*
X036815Y036531D01*
X036851Y036479D01*
X036960Y036369D01*
X036956Y036340D01*
X036965Y036272D01*
X036991Y036208D01*
X037033Y036153D01*
X037088Y036111D01*
X037152Y036085D01*
X037220Y036076D01*
X037288Y036085D01*
X037319Y036098D01*
X037369Y036064D01*
Y035905D01*
X037586D01*
Y036084D01*
X037686D01*
Y035905D01*
X037847D01*
Y031355D01*
X037755D01*
X037728Y031405D01*
X037749Y031436D01*
X037764Y031510D01*
Y031650D01*
X037749Y031724D01*
X037707Y031787D01*
X037644Y031829D01*
X037570Y031844D01*
X037390D01*
X037316Y031829D01*
X037253Y031787D01*
X037211Y031724D01*
X037196Y031650D01*
Y031510D01*
X037211Y031436D01*
X037253Y031373D01*
X037307Y031337D01*
Y031310D01*
X037320Y031244D01*
X037347Y031203D01*
X037339Y031159D01*
X037294Y031136D01*
X037248Y031155D01*
X037180Y031164D01*
X037176Y031163D01*
X037132Y031203D01*
Y031688D01*
X037120Y031751D01*
X037085Y031804D01*
X036628Y032260D01*
X036576Y032295D01*
X036513Y032308D01*
X036468D01*
X036435Y032358D01*
X036445Y032382D01*
X036454Y032450D01*
X036445Y032518D01*
X036419Y032582D01*
X036377Y032637D01*
X036353Y032655D01*
Y033980D01*
X036341Y034042D01*
X036305Y034095D01*
X036250Y034150D01*
X036197Y034186D01*
X036166Y034192D01*
X036143Y034242D01*
X036163Y034268D01*
X036189Y034332D01*
X036198Y034400D01*
X036196Y034417D01*
X036557Y034777D01*
X036595Y034834D01*
X036608Y034900D01*
Y035630D01*
Y036523D01*
X036621Y036533D01*
X036663Y036588D01*
X036689Y036652D01*
X036698Y036720D01*
X036697Y036730D01*
X036737Y036780D01*
X036753Y036782D01*
X036803Y036749D01*
D02*
G37*
G36*
X028160Y032283D02*
X028143Y032236D01*
X028139Y032235D01*
X028076Y032209D01*
X028021Y032167D01*
X027979Y032112D01*
X027953Y032048D01*
X027944Y031980D01*
X027953Y031912D01*
X027979Y031848D01*
X028021Y031793D01*
X028076Y031751D01*
X028134Y031727D01*
Y031676D01*
X028130Y031669D01*
X028115Y031595D01*
Y031123D01*
X028125Y031070D01*
X028093Y031020D01*
X027878D01*
X027869Y031026D01*
X027841Y031070D01*
X027851Y031123D01*
Y031595D01*
X027837Y031669D01*
X027795Y031731D01*
X027733Y031773D01*
X027659Y031788D01*
X027585Y031773D01*
X027531Y031737D01*
X027477Y031773D01*
X027403Y031788D01*
X027329Y031773D01*
X027275Y031737D01*
X027221Y031773D01*
X027147Y031788D01*
X027073Y031773D01*
X027019Y031737D01*
X026965Y031773D01*
X026891Y031788D01*
X026848Y031779D01*
X026798Y031816D01*
Y031972D01*
X026822Y031990D01*
X026864Y032045D01*
X026890Y032109D01*
X026899Y032177D01*
X026890Y032245D01*
X026864Y032309D01*
X026822Y032364D01*
X026767Y032405D01*
X026704Y032432D01*
X026635Y032441D01*
X026567Y032432D01*
X026503Y032405D01*
X026449Y032364D01*
X026407Y032309D01*
X026380Y032245D01*
X026371Y032177D01*
X026380Y032109D01*
X026407Y032045D01*
X026449Y031990D01*
X026472Y031972D01*
Y031792D01*
X026429Y031763D01*
Y031359D01*
Y030960D01*
X026445Y030963D01*
X026493Y030995D01*
X026499Y030986D01*
X026561Y030945D01*
X026635Y030930D01*
X026678Y030938D01*
X026728Y030902D01*
Y030859D01*
X026740Y030796D01*
X026776Y030744D01*
X027310Y030209D01*
X027291Y030163D01*
X026926D01*
X026864Y030151D01*
X026811Y030115D01*
X026520Y029824D01*
X026484Y029771D01*
X026472Y029709D01*
Y029528D01*
X026429Y029500D01*
Y029095D01*
Y028696D01*
X026445Y028700D01*
X026493Y028732D01*
X026499Y028723D01*
X026561Y028681D01*
X026635Y028666D01*
X026709Y028681D01*
X026763Y028717D01*
X026817Y028681D01*
X026891Y028666D01*
X026965Y028681D01*
X027019Y028717D01*
X027073Y028681D01*
X027147Y028666D01*
X027221Y028681D01*
X027275Y028717D01*
X027329Y028681D01*
X027403Y028666D01*
X027477Y028681D01*
X027539Y028723D01*
X027545Y028732D01*
X027593Y028700D01*
X027609Y028696D01*
Y029095D01*
X027659D01*
Y029145D01*
X027831D01*
Y029331D01*
X027852Y029357D01*
X028094D01*
X028115Y029331D01*
Y028859D01*
X028130Y028785D01*
X028144Y028763D01*
Y028677D01*
X027720Y028253D01*
X026344D01*
X026314Y028303D01*
X026322Y028360D01*
X026313Y028428D01*
X026286Y028492D01*
X026244Y028547D01*
X026239Y028600D01*
X026274Y028653D01*
X026276Y028664D01*
X026313Y028700D01*
X026329Y028697D01*
X026329Y028696D01*
Y029095D01*
Y029510D01*
X026297Y029535D01*
Y029768D01*
X026284Y029834D01*
X026246Y029890D01*
X026110Y030026D01*
X026054Y030064D01*
X025988Y030077D01*
X024996D01*
X024977Y030127D01*
X025009Y030168D01*
X025035Y030232D01*
X025044Y030300D01*
X025042Y030317D01*
X025102Y030377D01*
X025988D01*
X026054Y030390D01*
X026110Y030427D01*
X026246Y030563D01*
X026284Y030619D01*
X026297Y030686D01*
Y030919D01*
X026329Y030944D01*
Y031359D01*
Y031761D01*
X026309Y031762D01*
X026290Y031796D01*
X026284Y031829D01*
X026251Y031877D01*
Y032589D01*
X026257Y032593D01*
X026259Y032597D01*
X027846D01*
X028160Y032283D01*
D02*
G37*
G36*
X039087Y030691D02*
Y027397D01*
X039077Y027351D01*
X039037Y027351D01*
X038830D01*
Y027064D01*
Y026777D01*
X039077Y026777D01*
X039087Y026731D01*
Y026663D01*
X038463D01*
Y026049D01*
X038618D01*
X038650Y026000D01*
X038716Y025934D01*
Y025657D01*
X038666Y025631D01*
X038651Y025642D01*
Y025835D01*
X038434D01*
Y025656D01*
X038334D01*
Y025835D01*
X038173D01*
Y030445D01*
X038671D01*
Y030652D01*
X038721Y030676D01*
X038728Y030671D01*
X038792Y030645D01*
X038860Y030636D01*
X038928Y030645D01*
X038992Y030671D01*
X039037Y030706D01*
X039087Y030691D01*
D02*
G37*
G36*
X018443Y029723D02*
X018498Y029681D01*
X018562Y029655D01*
X018630Y029646D01*
X018658Y029650D01*
X018682Y029602D01*
X018015Y028935D01*
X017979Y028882D01*
X017967Y028820D01*
Y028796D01*
X017927Y028765D01*
X017917Y028765D01*
X017850Y028774D01*
X017782Y028765D01*
X017718Y028739D01*
X017663Y028697D01*
X017653Y028684D01*
X016428D01*
X016413Y028720D01*
X016361Y028787D01*
X016386Y028837D01*
X016390D01*
X016452Y028849D01*
X016505Y028885D01*
X017368Y029747D01*
X018425D01*
X018443Y029723D01*
D02*
G37*
G36*
X031385Y028275D02*
X031438Y028239D01*
X031500Y028227D01*
X031750D01*
X031776Y028182D01*
X031751Y028144D01*
X031736Y028070D01*
Y027930D01*
X031751Y027856D01*
X031793Y027793D01*
X031856Y027751D01*
X031930Y027736D01*
X032110D01*
X032184Y027751D01*
X032247Y027793D01*
X032276Y027837D01*
X033330D01*
X033392Y027849D01*
X033445Y027885D01*
X033700Y028140D01*
X033728Y028136D01*
X033796Y028145D01*
X033860Y028171D01*
X033914Y028213D01*
X033956Y028268D01*
X033983Y028332D01*
X033992Y028400D01*
X033983Y028468D01*
X033956Y028532D01*
X033914Y028587D01*
X033860Y028629D01*
X033819Y028645D01*
X033804Y028701D01*
X034149Y029046D01*
X034208Y029035D01*
X034219Y029008D01*
X034261Y028953D01*
X034284Y028935D01*
Y028522D01*
X034297Y028460D01*
X034332Y028407D01*
X034926Y027814D01*
X034978Y027778D01*
X035041Y027766D01*
X035819D01*
X035882Y027778D01*
X035934Y027814D01*
X036009Y027888D01*
X036041Y027937D01*
X036057Y027940D01*
X036120Y027982D01*
X036162Y028045D01*
X036177Y028119D01*
Y028259D01*
X036162Y028333D01*
X036141Y028366D01*
X036168Y028412D01*
X036264D01*
Y027225D01*
X036253Y027217D01*
X036211Y027162D01*
X036185Y027098D01*
X036176Y027030D01*
X036185Y026962D01*
X036211Y026898D01*
X036227Y026878D01*
X036202Y026828D01*
X035625D01*
X035575Y026861D01*
X035494Y026877D01*
X035120D01*
X035039Y026861D01*
X034970Y026815D01*
X034924Y026746D01*
X034907Y026665D01*
X034914Y026632D01*
X034873Y026582D01*
X034657D01*
X034591Y026569D01*
X034535Y026531D01*
X033759Y025755D01*
X033709Y025776D01*
Y026059D01*
X033696Y026125D01*
X033658Y026181D01*
X033564Y026275D01*
X033508Y026313D01*
X033441Y026326D01*
X033418D01*
X033377Y026376D01*
X033384Y026409D01*
X033368Y026490D01*
X033337Y026537D01*
X033368Y026583D01*
X033384Y026665D01*
X033368Y026746D01*
X033322Y026815D01*
X033253Y026861D01*
X033171Y026877D01*
X032797D01*
X032716Y026861D01*
X032666Y026828D01*
X032616D01*
X032587Y026872D01*
X032524Y026914D01*
X032450Y026928D01*
X032322D01*
X032225Y027025D01*
X032172Y027061D01*
X032110Y027073D01*
X031780D01*
X031718Y027061D01*
X031665Y027025D01*
X030681Y026042D01*
X030284D01*
Y026115D01*
X030269Y026189D01*
X030227Y026251D01*
X030165Y026293D01*
X030125Y026301D01*
X030093Y026355D01*
X030100Y026372D01*
X030109Y026441D01*
X030100Y026509D01*
X030074Y026573D01*
X030032Y026627D01*
X029977Y026669D01*
X029914Y026696D01*
X029845Y026705D01*
X029842Y026704D01*
X029834Y026765D01*
X029808Y026829D01*
X029766Y026884D01*
X029711Y026925D01*
X029648Y026952D01*
X029579Y026961D01*
X029511Y026952D01*
X029447Y026925D01*
X029393Y026884D01*
X029356Y026835D01*
X029328Y026833D01*
X029301Y026838D01*
X029296Y026849D01*
X029254Y026904D01*
X029200Y026945D01*
X029136Y026972D01*
X029068Y026981D01*
X028999Y026972D01*
X028936Y026945D01*
X028881Y026904D01*
X028839Y026849D01*
X028813Y026785D01*
X028804Y026717D01*
X028813Y026649D01*
X028839Y026585D01*
X028881Y026530D01*
X028884Y026527D01*
Y026324D01*
X028862Y026305D01*
Y025879D01*
X028762D01*
Y026281D01*
X028742Y026282D01*
X028722Y026316D01*
X028716Y026349D01*
X028683Y026397D01*
Y026690D01*
X028670Y026756D01*
X028633Y026813D01*
X028323Y027123D01*
X028266Y027160D01*
X028200Y027173D01*
X026415D01*
X026394Y027223D01*
X026848Y027677D01*
X029806D01*
X029869Y027689D01*
X029922Y027725D01*
X030246Y028049D01*
X030281Y028102D01*
X030294Y028164D01*
Y028699D01*
X030281Y028762D01*
X030271Y028777D01*
X030277Y028785D01*
X030291Y028859D01*
Y029297D01*
X030341Y029318D01*
X031385Y028275D01*
D02*
G37*
G36*
X025962Y026827D02*
X025947Y026813D01*
X025910Y026756D01*
X025856Y026743D01*
X025828Y026755D01*
X025760Y026764D01*
X025692Y026755D01*
X025628Y026729D01*
X025573Y026687D01*
X025531Y026632D01*
X025505Y026568D01*
X025496Y026500D01*
X025505Y026432D01*
X025531Y026368D01*
X025573Y026313D01*
X025628Y026271D01*
X025687Y026247D01*
Y026196D01*
X025682Y026189D01*
X025667Y026115D01*
Y025643D01*
X025675Y025603D01*
X025637Y025553D01*
X025379D01*
X025377Y025557D01*
X025322Y025599D01*
X025258Y025625D01*
X025190Y025634D01*
X025122Y025625D01*
X025058Y025599D01*
X025003Y025557D01*
X025001Y025553D01*
X020432D01*
X020413Y025573D01*
X020356Y025610D01*
X020290Y025623D01*
X020277D01*
X020267Y025637D01*
X020212Y025679D01*
X020148Y025705D01*
X020080Y025714D01*
X020012Y025705D01*
X019948Y025679D01*
X019893Y025637D01*
X019851Y025582D01*
X019825Y025518D01*
X019816Y025450D01*
X019825Y025382D01*
X019851Y025318D01*
X019893Y025263D01*
X019948Y025221D01*
X020012Y025195D01*
X020080Y025186D01*
X020148Y025195D01*
X020212Y025221D01*
X020249Y025250D01*
X020294Y025220D01*
X020360Y025207D01*
X024985D01*
X025003Y025183D01*
X025058Y025141D01*
X025122Y025115D01*
X025190Y025106D01*
X025258Y025115D01*
X025322Y025141D01*
X025377Y025183D01*
X025395Y025207D01*
X026020D01*
X026086Y025220D01*
X026143Y025257D01*
X026238Y025353D01*
X026276Y025410D01*
X026282Y025441D01*
X026302Y025476D01*
X026322Y025476D01*
Y025879D01*
X026422D01*
Y025480D01*
X026438Y025483D01*
X026485Y025515D01*
X026491Y025506D01*
X026554Y025465D01*
X026628Y025450D01*
X026670Y025458D01*
X026720Y025422D01*
Y025379D01*
X026733Y025316D01*
X026768Y025264D01*
X027257Y024775D01*
X027310Y024739D01*
X027341Y024733D01*
X027336Y024683D01*
X026919D01*
X026856Y024671D01*
X026803Y024635D01*
X026512Y024344D01*
X026477Y024291D01*
X026465Y024229D01*
Y024048D01*
X026422Y024020D01*
Y023615D01*
Y023216D01*
X026438Y023220D01*
X026485Y023252D01*
X026491Y023243D01*
X026554Y023201D01*
X026628Y023186D01*
X026701Y023201D01*
X026756Y023237D01*
X026810Y023201D01*
X026884Y023186D01*
X026957Y023201D01*
X027011Y023237D01*
X027066Y023201D01*
X027139Y023186D01*
X027213Y023201D01*
X027267Y023237D01*
X027322Y023201D01*
X027395Y023186D01*
X027469Y023201D01*
X027532Y023243D01*
X027538Y023252D01*
X027585Y023220D01*
X027601Y023216D01*
Y023615D01*
X027651D01*
Y023665D01*
X027823D01*
Y023851D01*
X027845Y023877D01*
X028086D01*
X028107Y023851D01*
Y023379D01*
X028122Y023305D01*
X028137Y023283D01*
Y023197D01*
X027712Y022773D01*
X026336D01*
X026307Y022823D01*
X026314Y022880D01*
X026305Y022948D01*
X026279Y023012D01*
X026237Y023067D01*
X026231Y023120D01*
X026267Y023173D01*
X026269Y023184D01*
X026306Y023220D01*
X026321Y023217D01*
X026322Y023216D01*
Y023615D01*
Y024030D01*
X026289Y024055D01*
Y024288D01*
X026276Y024354D01*
X026238Y024410D01*
X026103Y024546D01*
X026046Y024584D01*
X025980Y024597D01*
X016914D01*
X016847Y024584D01*
X016791Y024546D01*
X016431Y024186D01*
X016381Y024191D01*
X016361Y024233D01*
X016413Y024301D01*
X016455Y024402D01*
X016469Y024510D01*
X016455Y024619D01*
X016413Y024720D01*
X016361Y024787D01*
X016386Y024837D01*
X016540D01*
X016602Y024849D01*
X016655Y024885D01*
X018648Y026877D01*
X025941D01*
X025962Y026827D01*
D02*
G37*
G36*
X036806Y031289D02*
Y031111D01*
X036819Y031048D01*
X036854Y030995D01*
X036920Y030929D01*
X036916Y030900D01*
X036925Y030832D01*
X036951Y030768D01*
X036993Y030713D01*
X037048Y030671D01*
X037112Y030645D01*
X037180Y030636D01*
X037248Y030645D01*
X037312Y030671D01*
X037319Y030676D01*
X037369Y030652D01*
Y030465D01*
X037586D01*
Y030644D01*
X037686D01*
Y030465D01*
X037847D01*
Y026209D01*
X037797Y026204D01*
X037789Y026244D01*
X037747Y026307D01*
X037684Y026349D01*
X037610Y026364D01*
X037430D01*
X037356Y026349D01*
X037313Y026320D01*
X037276Y026335D01*
X037262Y026344D01*
X037251Y026402D01*
X037215Y026455D01*
X036891Y026780D01*
X036838Y026815D01*
X036775Y026828D01*
X036678D01*
X036653Y026878D01*
X036669Y026898D01*
X036695Y026962D01*
X036704Y027030D01*
X036695Y027098D01*
X036669Y027162D01*
X036627Y027217D01*
X036611Y027229D01*
Y028590D01*
Y028933D01*
X036610Y028937D01*
X036611Y028940D01*
Y031063D01*
X036624Y031073D01*
X036666Y031128D01*
X036693Y031192D01*
X036702Y031260D01*
X036700Y031270D01*
X036744Y031321D01*
X036756Y031322D01*
X036806Y031289D01*
D02*
G37*
G36*
X036937Y025897D02*
Y025612D01*
X036903Y025587D01*
X036861Y025532D01*
X036835Y025468D01*
X036826Y025400D01*
X036835Y025332D01*
X036861Y025268D01*
X036903Y025213D01*
X036958Y025171D01*
X037022Y025145D01*
X037090Y025136D01*
X037158Y025145D01*
X037222Y025171D01*
X037277Y025213D01*
X037295Y025237D01*
X037349D01*
Y025201D01*
X037369D01*
Y025194D01*
X037636D01*
Y025144D01*
X037686D01*
Y024965D01*
X037903D01*
Y025061D01*
X037950Y025080D01*
X038001Y025029D01*
X038053Y024993D01*
X038097Y024985D01*
Y024945D01*
X038671D01*
Y025186D01*
X038697Y025203D01*
X038704Y025205D01*
X038721Y025207D01*
X038768Y025171D01*
X038832Y025145D01*
X038900Y025136D01*
X038968Y025145D01*
X039032Y025171D01*
X039037Y025175D01*
X039087Y025150D01*
Y024858D01*
X036772Y022543D01*
X036110D01*
X036077Y022582D01*
X036081Y022611D01*
X036113Y022632D01*
X036155Y022695D01*
X036169Y022769D01*
Y022909D01*
X036157Y022970D01*
X036190Y022976D01*
X036253Y023018D01*
X036295Y023081D01*
X036309Y023155D01*
Y023264D01*
X036553Y023507D01*
X036590Y023563D01*
X036603Y023629D01*
Y023780D01*
Y025583D01*
X036617Y025593D01*
X036659Y025648D01*
X036685Y025712D01*
X036694Y025780D01*
X036693Y025790D01*
X036732Y025840D01*
X036768Y025845D01*
X036832Y025871D01*
X036887Y025913D01*
X036887Y025914D01*
X036937Y025897D01*
D02*
G37*
G36*
X020037Y024200D02*
X020015Y024148D01*
X020006Y024080D01*
X020015Y024012D01*
X020041Y023948D01*
X020083Y023893D01*
X020138Y023851D01*
X020202Y023825D01*
X020270Y023816D01*
X020338Y023825D01*
X020402Y023851D01*
X020457Y023893D01*
X020467Y023907D01*
X025118D01*
X025532Y023492D01*
X025589Y023455D01*
X025655Y023442D01*
X025667D01*
Y023379D01*
X025682Y023305D01*
X025697Y023283D01*
Y023147D01*
X025673Y023124D01*
X025638Y023071D01*
X025625Y023008D01*
Y022772D01*
X025638Y022709D01*
X025673Y022656D01*
X025760Y022569D01*
X025741Y022523D01*
X025158D01*
X024055Y023626D01*
X024002Y023661D01*
X023940Y023673D01*
X016432D01*
X016413Y023720D01*
X016361Y023787D01*
X016386Y023837D01*
X016500D01*
X016566Y023850D01*
X016623Y023887D01*
X016985Y024250D01*
X020014D01*
X020037Y024200D01*
D02*
G37*
%LPC*%
G36*
X034746Y039746D02*
X034262D01*
Y039026D01*
X034717D01*
X034730Y039017D01*
X034753Y039012D01*
Y038917D01*
X035387D01*
Y038936D01*
X035437Y038967D01*
X035490Y038960D01*
X035558Y038969D01*
X035622Y038996D01*
X035677Y039038D01*
X035719Y039092D01*
X035745Y039156D01*
X035754Y039224D01*
X035745Y039293D01*
X035719Y039356D01*
X035677Y039411D01*
X035622Y039453D01*
X035558Y039479D01*
X035490Y039488D01*
X035437Y039481D01*
X035387Y039513D01*
Y039531D01*
X034826D01*
X034813Y039544D01*
X034746Y039589D01*
Y039746D01*
D02*
G37*
G36*
X035367Y038803D02*
X035120D01*
Y038566D01*
X035367D01*
Y038803D01*
D02*
G37*
G36*
X033517D02*
X033270D01*
Y038566D01*
X033517D01*
Y038803D01*
D02*
G37*
G36*
X035020D02*
X034773D01*
Y038566D01*
X035020D01*
Y038803D01*
D02*
G37*
G36*
X033170D02*
X032923D01*
Y038566D01*
X033170D01*
Y038803D01*
D02*
G37*
G36*
X034352Y038694D02*
X034180D01*
Y038404D01*
X034352D01*
Y038694D01*
D02*
G37*
G36*
X034080D02*
X033908D01*
Y038404D01*
X034080D01*
Y038694D01*
D02*
G37*
G36*
X035367Y038466D02*
X035120D01*
Y038229D01*
X035367D01*
Y038466D01*
D02*
G37*
G36*
X035020D02*
X034773D01*
Y038229D01*
X035020D01*
Y038466D01*
D02*
G37*
G36*
X033517D02*
X033270D01*
Y038229D01*
X033517D01*
Y038466D01*
D02*
G37*
G36*
X033170D02*
X032923D01*
Y038229D01*
X033170D01*
Y038466D01*
D02*
G37*
G36*
X034352Y038304D02*
X034180D01*
Y038014D01*
X034352D01*
Y038304D01*
D02*
G37*
G36*
X034080D02*
X033908D01*
Y038014D01*
X034080D01*
Y038304D01*
D02*
G37*
G36*
X038433Y037677D02*
X038196D01*
Y037430D01*
X038433D01*
Y037677D01*
D02*
G37*
G36*
Y037330D02*
X038196D01*
Y037083D01*
X038433D01*
Y037330D01*
D02*
G37*
G36*
X038810Y032831D02*
X038563D01*
Y032594D01*
X038810D01*
Y032831D01*
D02*
G37*
G36*
Y032494D02*
X038563D01*
Y032257D01*
X038810D01*
Y032494D01*
D02*
G37*
G36*
X027828Y034505D02*
X027706D01*
Y034156D01*
X027722Y034160D01*
X027777Y034197D01*
X027815Y034253D01*
X027828Y034319D01*
Y034505D01*
D02*
G37*
G36*
X027831Y029045D02*
X027709D01*
Y028696D01*
X027725Y028700D01*
X027781Y028737D01*
X027818Y028793D01*
X027831Y028859D01*
Y029045D01*
D02*
G37*
G36*
X038730Y027351D02*
X038483D01*
Y027114D01*
X038730D01*
Y027351D01*
D02*
G37*
G36*
Y027014D02*
X038483D01*
Y026777D01*
X038730D01*
Y027014D01*
D02*
G37*
G36*
X027823Y023565D02*
X027701D01*
Y023216D01*
X027717Y023220D01*
X027773Y023257D01*
X027810Y023313D01*
X027823Y023379D01*
Y023565D01*
D02*
G37*
G36*
X037586Y025094D02*
X037369D01*
Y024965D01*
X037586D01*
Y025094D01*
D02*
G37*
%LPD*%
D10*
X038384Y036084D02*
D03*
Y036340D02*
D03*
Y036596D02*
D03*
X037636D02*
D03*
Y036084D02*
D03*
X037636Y036340D02*
D03*
X038384Y025144D02*
D03*
Y025400D02*
D03*
Y025656D02*
D03*
X037636D02*
D03*
Y025144D02*
D03*
X037636Y025400D02*
D03*
X038384Y030644D02*
D03*
Y030900D02*
D03*
Y031156D02*
D03*
X037636D02*
D03*
Y030644D02*
D03*
X037636Y030900D02*
D03*
D11*
X038780Y027064D02*
D03*
Y026356D02*
D03*
X038860Y032544D02*
D03*
Y031836D02*
D03*
X035100Y021110D02*
D03*
Y021819D02*
D03*
X035070Y038516D02*
D03*
Y039224D02*
D03*
X033220Y038516D02*
D03*
Y039224D02*
D03*
X033200Y021110D02*
D03*
Y021819D02*
D03*
D12*
X038146Y037380D02*
D03*
X038854D02*
D03*
D13*
X039843Y030443D02*
D03*
X040197D02*
D03*
X039843Y029577D02*
D03*
X040197D02*
D03*
D14*
X026120Y036819D02*
D03*
X026376D02*
D03*
X025864D02*
D03*
X026888D02*
D03*
X026632D02*
D03*
X027144D02*
D03*
X027656D02*
D03*
X027400D02*
D03*
X025864Y034555D02*
D03*
X026120D02*
D03*
X026376D02*
D03*
X026888D02*
D03*
X026632D02*
D03*
X027400D02*
D03*
X027656D02*
D03*
X027144D02*
D03*
X026123Y031359D02*
D03*
X026379D02*
D03*
X025867D02*
D03*
X026891D02*
D03*
X026635D02*
D03*
X027147D02*
D03*
X027659D02*
D03*
X027403D02*
D03*
X025867Y029095D02*
D03*
X026123D02*
D03*
X026379D02*
D03*
X026891D02*
D03*
X026635D02*
D03*
X027403D02*
D03*
X027659D02*
D03*
X027147D02*
D03*
X027139Y025879D02*
D03*
X027395D02*
D03*
X026884D02*
D03*
X027651D02*
D03*
X026628D02*
D03*
X026372D02*
D03*
X027651Y023615D02*
D03*
X027395D02*
D03*
X026628D02*
D03*
X026372D02*
D03*
X027139D02*
D03*
X026884D02*
D03*
X026116Y025879D02*
D03*
X025860D02*
D03*
X026116Y023615D02*
D03*
X025860D02*
D03*
X028560Y036819D02*
D03*
X028816D02*
D03*
X028304D02*
D03*
X029328D02*
D03*
X029072D02*
D03*
X029584D02*
D03*
X030096D02*
D03*
X029840D02*
D03*
X028304Y034555D02*
D03*
X028560D02*
D03*
X028816D02*
D03*
X029328D02*
D03*
X029072D02*
D03*
X029840D02*
D03*
X030096D02*
D03*
X029584D02*
D03*
X028563Y031359D02*
D03*
X028819D02*
D03*
X028307D02*
D03*
X029331D02*
D03*
X029075D02*
D03*
X029587D02*
D03*
X030099D02*
D03*
X029843D02*
D03*
X028307Y029095D02*
D03*
X028563D02*
D03*
X028819D02*
D03*
X029331D02*
D03*
X029075D02*
D03*
X029843D02*
D03*
X030099D02*
D03*
X029587D02*
D03*
X029579Y025879D02*
D03*
X029835D02*
D03*
X029324D02*
D03*
X030091D02*
D03*
X029068D02*
D03*
X028812D02*
D03*
X030091Y023615D02*
D03*
X029835D02*
D03*
X029068D02*
D03*
X028812D02*
D03*
X029579D02*
D03*
X029324D02*
D03*
X028556Y025879D02*
D03*
X028300D02*
D03*
X028556Y023615D02*
D03*
X028300D02*
D03*
D15*
X032989Y034035D02*
D03*
Y033779D02*
D03*
Y034547D02*
D03*
Y034291D02*
D03*
Y034803D02*
D03*
Y035315D02*
D03*
Y035059D02*
D03*
X035311Y034547D02*
D03*
Y033779D02*
D03*
Y034291D02*
D03*
Y034035D02*
D03*
Y035059D02*
D03*
Y035315D02*
D03*
Y034803D02*
D03*
X032992Y028575D02*
D03*
Y028319D02*
D03*
Y029087D02*
D03*
Y028831D02*
D03*
Y029343D02*
D03*
Y029855D02*
D03*
Y029599D02*
D03*
X035315Y029087D02*
D03*
Y028319D02*
D03*
Y028831D02*
D03*
Y028575D02*
D03*
Y029599D02*
D03*
Y029855D02*
D03*
Y029343D02*
D03*
X035307Y023863D02*
D03*
Y024119D02*
D03*
Y023095D02*
D03*
Y023607D02*
D03*
Y024375D02*
D03*
Y023351D02*
D03*
Y022839D02*
D03*
X032984Y024375D02*
D03*
Y023863D02*
D03*
Y024119D02*
D03*
Y023351D02*
D03*
Y023607D02*
D03*
Y022839D02*
D03*
Y023095D02*
D03*
X032989Y036325D02*
D03*
Y036069D02*
D03*
Y036837D02*
D03*
Y036581D02*
D03*
Y037093D02*
D03*
Y037605D02*
D03*
Y037349D02*
D03*
X035311Y036837D02*
D03*
Y036069D02*
D03*
Y036581D02*
D03*
Y036325D02*
D03*
Y037349D02*
D03*
Y037605D02*
D03*
Y037093D02*
D03*
X032992Y030865D02*
D03*
Y030609D02*
D03*
Y031377D02*
D03*
Y031121D02*
D03*
Y031633D02*
D03*
Y032145D02*
D03*
Y031889D02*
D03*
X035315Y031377D02*
D03*
Y030609D02*
D03*
Y031121D02*
D03*
Y030865D02*
D03*
Y031889D02*
D03*
Y032145D02*
D03*
Y031633D02*
D03*
X035307Y026153D02*
D03*
Y026409D02*
D03*
Y025385D02*
D03*
Y025897D02*
D03*
Y026665D02*
D03*
Y025641D02*
D03*
Y025129D02*
D03*
X032984Y026665D02*
D03*
Y026153D02*
D03*
Y026409D02*
D03*
Y025641D02*
D03*
Y025897D02*
D03*
Y025129D02*
D03*
Y025385D02*
D03*
D16*
X034140Y020949D02*
D03*
X034514Y021980D02*
D03*
X033766D02*
D03*
X034130Y038354D02*
D03*
X034504Y039386D02*
D03*
X033756D02*
D03*
D17*
X037520Y025772D02*
X037636Y025656D01*
X037520Y025772D02*
Y026100D01*
X027918Y032770D02*
X028518Y032170D01*
X026078Y032770D02*
X027918D01*
X028560Y036819D02*
Y037222D01*
X028514Y037268D02*
X028560Y037222D01*
X028514Y037268D02*
Y037630D01*
X035890Y034035D02*
X035934Y034079D01*
X035311Y034035D02*
X035890D01*
X035970Y036490D02*
Y036610D01*
X035924Y036656D02*
X035970Y036610D01*
X035924Y036656D02*
Y036850D01*
X035811Y036069D02*
X035930Y035950D01*
X035311Y036069D02*
X035811D01*
X035928Y031390D02*
X036138D01*
X036328Y031580D01*
X036708D01*
X036438Y028590D02*
Y028933D01*
X035938D02*
X036438D01*
X033433Y028575D02*
X034456Y029599D01*
X032994Y028575D02*
X033433D01*
X033543Y028940D02*
Y029249D01*
X033434Y028831D02*
X033543Y028940D01*
X032992Y028831D02*
X033434D01*
X035681Y030479D02*
X035893D01*
X035551Y030609D02*
X035681Y030479D01*
X035315Y030609D02*
X035551D01*
X032685Y029855D02*
X032992D01*
X032595Y029765D02*
X032685Y029855D01*
X032413Y029765D02*
X032595D01*
X035315Y028319D02*
X035511D01*
X035641Y028189D01*
X035893D01*
X035886Y025405D02*
X036425D01*
X032280Y025780D02*
X032520D01*
X032659Y025641D01*
X032984D01*
X031854Y025385D02*
X032984D01*
X032406Y024999D02*
X032659D01*
X032789Y025129D01*
X032984D01*
X032320Y024300D02*
X032500D01*
X032575Y024375D01*
X036430Y023780D02*
Y025780D01*
X035691Y025029D02*
X035886D01*
X035591Y025129D02*
X035691Y025029D01*
X035307Y025129D02*
X035591D01*
X024740Y028510D02*
X024840Y028610D01*
X021440Y028510D02*
X024740D01*
X024840Y028610D02*
X025290Y028160D01*
X016050Y028510D02*
X017850D01*
X025190Y024080D02*
X025655Y023615D01*
X020270Y024080D02*
X025190D01*
X025655Y023615D02*
X025860D01*
X014660Y024010D02*
X016500D01*
X014290Y024380D02*
X014660Y024010D01*
X014290Y024380D02*
Y027750D01*
X015050Y028510D01*
X016500Y024010D02*
X016914Y024424D01*
X025980D01*
X020360Y025380D02*
X026020D01*
X020290Y025450D02*
X020360Y025380D01*
X020080Y025450D02*
X020290D01*
X017060Y027510D02*
X017330Y027240D01*
X016050Y027510D02*
X017060D01*
X015050D02*
X015530Y027990D01*
X017850D01*
X019830Y029910D02*
X021070D01*
X016050Y029510D02*
X016560D01*
X033425Y023095D02*
X034449Y024119D01*
X035309D01*
X033536Y023460D02*
Y023769D01*
X033426Y023351D02*
X033536Y023460D01*
X032984Y023351D02*
X033426D01*
X032986Y023095D02*
X033425D01*
X034760Y022980D02*
X034901Y022839D01*
X034760Y022980D02*
Y023261D01*
X034901Y022839D02*
X035307D01*
X034760Y023261D02*
X034850Y023351D01*
X026070Y026690D02*
X026380Y027000D01*
X028200D01*
X028510Y026690D01*
X026116Y025879D02*
Y026282D01*
X026070Y026328D02*
X026116Y026282D01*
X026070Y026328D02*
Y026690D01*
X025760Y026500D02*
X025860Y026400D01*
Y025879D02*
Y026400D01*
X028780Y023030D02*
X028812Y023062D01*
Y023615D01*
X028300Y025879D02*
Y026400D01*
X028200Y026500D02*
X028300Y026400D01*
X028510Y026328D02*
Y026690D01*
Y026328D02*
X028556Y026282D01*
Y025879D02*
Y026282D01*
X026116Y023615D02*
Y024288D01*
X025980Y024424D02*
X026116Y024288D01*
X034850Y023351D02*
X035307D01*
X032984Y023863D02*
X033441D01*
X033536Y023769D01*
X034657Y026409D02*
X035307D01*
X033634Y025385D02*
X034657Y026409D01*
X032984Y025385D02*
X033634D01*
X032984Y025641D02*
X033428D01*
X033536Y025749D01*
Y026059D01*
X033441Y026153D02*
X033536Y026059D01*
X032984Y026153D02*
X033441D01*
X034850Y025641D02*
X035307D01*
X034756Y025547D02*
X034850Y025641D01*
X034756Y025237D02*
Y025547D01*
Y025237D02*
X034863Y025129D01*
X035307D01*
Y025385D02*
X035886D01*
X035307Y022839D02*
X035886D01*
X032575Y024375D02*
X032984D01*
X032406Y023607D02*
X032984D01*
X035307Y025385D02*
X035806D01*
X035307Y022839D02*
X035806D01*
X027651Y023051D02*
Y023615D01*
X026372Y023051D02*
Y023615D01*
X027656Y033991D02*
Y034555D01*
X026376Y033991D02*
Y034555D01*
X025010Y036010D02*
X025984D01*
X026120Y036146D01*
Y036819D01*
Y037222D01*
X026074Y037268D02*
Y037630D01*
Y037268D02*
X026120Y037222D01*
X028204Y037940D02*
X028514Y037630D01*
X026074D02*
X026384Y037940D01*
X028204D01*
X025764Y037440D02*
X025864Y037340D01*
Y036819D02*
Y037340D01*
X028304Y036819D02*
Y037340D01*
X028204Y037440D02*
X028304Y037340D01*
X025984Y035364D02*
X026120Y035228D01*
Y034555D02*
Y035228D01*
X028784Y033970D02*
X028816Y034002D01*
Y034555D01*
X032990Y034035D02*
X033429D01*
X034453Y035059D01*
X035313D01*
X034764Y033920D02*
X034906Y033779D01*
X035311D01*
X034764Y033920D02*
Y034201D01*
X034854Y034291D02*
X035311D01*
X034764Y034201D02*
X034854Y034291D01*
X032989D02*
X033431D01*
X033540Y034400D01*
X032989Y034803D02*
X033446D01*
X033540Y034400D02*
Y034709D01*
X033446Y034803D02*
X033540Y034709D01*
X032989Y036325D02*
X033638D01*
X034662Y037349D01*
X035311D01*
Y036325D02*
X035890D01*
X035311D02*
X035810D01*
X034760Y036177D02*
Y036487D01*
Y036177D02*
X034868Y036069D01*
X034760Y036487D02*
X034854Y036581D01*
X035311D01*
X034868Y036069D02*
X035311D01*
X032989Y036581D02*
X033432D01*
X033540Y036689D01*
X032989Y037093D02*
X033446D01*
X033540Y036689D02*
Y036999D01*
X033446Y037093D02*
X033540Y036999D01*
X036434Y034900D02*
Y035630D01*
Y036720D01*
X035924Y036850D02*
X036134D01*
X036324Y037040D01*
X036704D01*
X027659Y028531D02*
Y029095D01*
X026379Y028531D02*
Y029095D01*
X025030Y030550D02*
X025988D01*
X026123Y030686D01*
Y031359D01*
X026078Y031808D02*
X026123Y031762D01*
Y031359D02*
Y031762D01*
X028518Y031808D02*
X028563Y031762D01*
Y031359D02*
Y031762D01*
X028518Y031808D02*
Y032170D01*
X028307Y031359D02*
Y031880D01*
X025768Y031980D02*
X025867Y031880D01*
Y031359D02*
Y031880D01*
X028208Y031980D02*
X028307Y031880D01*
X021064Y029904D02*
X025988D01*
X026123Y029768D01*
Y029095D02*
Y029768D01*
X025867Y029095D02*
Y029644D01*
X025788Y029724D02*
X025867Y029644D01*
X028819Y028542D02*
Y029095D01*
X028788Y028510D02*
X028819Y028542D01*
X034456Y029599D02*
X035316D01*
X035315Y028575D02*
X035893D01*
X035315D02*
X035813D01*
X034768Y028460D02*
X034909Y028319D01*
X035315D01*
X034768Y028460D02*
Y028741D01*
X034857Y028831D02*
X035315D01*
X034768Y028741D02*
X034857Y028831D01*
X032992Y029343D02*
X033449D01*
X033543Y029249D01*
X032992Y030865D02*
X033641D01*
X034665Y031889D01*
X035315D01*
Y030865D02*
X035893D01*
X035315D02*
X035813D01*
X034763Y030717D02*
Y031027D01*
Y030717D02*
X034871Y030609D01*
X034763Y031027D02*
X034857Y031121D01*
X035315D01*
X034871Y030609D02*
X035315D01*
X032413Y032145D02*
X032992D01*
X032493D02*
X032992D01*
Y031121D02*
X033435D01*
X033543Y031229D01*
X032992Y031633D02*
X033449D01*
X033543Y031229D02*
Y031539D01*
X033449Y031633D02*
X033543Y031539D01*
X035893Y030865D02*
X036433D01*
X021064Y029904D02*
X021070Y029910D01*
X026116Y025476D02*
Y025879D01*
X026020Y025380D02*
X026116Y025476D01*
X023444Y029724D02*
X025788D01*
X023220Y029500D02*
X023444Y029724D01*
X036438Y028940D02*
Y031260D01*
X016560Y029510D02*
X022414Y035364D01*
X025984D01*
X024210Y033550D02*
Y033830D01*
X023280Y034760D02*
X024210Y033830D01*
X023690Y034990D02*
X024750Y033930D01*
Y033500D02*
Y033930D01*
X026070Y032780D02*
X026078Y032772D01*
Y031808D02*
Y032772D01*
X024780Y030300D02*
X025030Y030550D01*
X025080Y028970D02*
X025620Y028430D01*
Y027760D02*
Y028430D01*
X025290Y027430D02*
X025620Y027760D01*
X036438Y027080D02*
Y028590D01*
X036430Y023629D02*
Y023780D01*
X036026Y023225D02*
X036430Y023629D01*
X037634Y031156D02*
X037636D01*
X037480Y031310D02*
Y031580D01*
Y031310D02*
X037634Y031156D01*
X037420Y036812D02*
X037636Y036596D01*
X037420Y036812D02*
Y036990D01*
X035934Y034400D02*
X036434Y034900D01*
X035934Y034079D02*
Y034400D01*
X035311Y033779D02*
X035721D01*
X035810Y033690D01*
D18*
X031173Y036440D02*
X032320D01*
X029052Y036819D02*
Y037637D01*
X029584Y036819D02*
Y037637D01*
X030116Y036819D02*
Y037637D01*
X031288Y036814D02*
X032241D01*
X032225Y037905D02*
X032525Y037605D01*
X032989D01*
X032742Y036837D02*
X032989D01*
X032329Y037249D02*
X032742Y036837D01*
X032320Y036830D02*
X032410D01*
X032659Y036581D01*
X032989D01*
X032570Y036440D02*
X032685Y036325D01*
X032320Y036440D02*
X032570D01*
X032685Y036325D02*
X032989D01*
X032320Y036069D02*
X032989D01*
X032210Y034720D02*
X032383Y034547D01*
X032989D01*
X032200Y035270D02*
X032480D01*
X032525Y035315D01*
X032989D01*
X030829Y035270D02*
X032200D01*
X030639Y035460D02*
X030829Y035270D01*
X021500Y035630D02*
X036434D01*
X027377Y035790D02*
X035780D01*
X026923Y035460D02*
X027933D01*
X027043Y035300D02*
X027866D01*
X027244Y035140D02*
X027800D01*
X027144Y035039D02*
X027244Y035140D01*
X027424Y034980D02*
X027734D01*
X027400Y034955D02*
X027424Y034980D01*
X030764Y034820D02*
X030944D01*
X030367Y034980D02*
X031467Y033880D01*
X031930Y034270D02*
X032200D01*
X032260Y034291D02*
X032989D01*
X031467Y033880D02*
X032210D01*
X030017Y034980D02*
X030367D01*
X032210Y033880D02*
X032490D01*
X032645Y034035D01*
X032989D01*
X031110Y035090D02*
X031930Y034270D01*
X030783Y035090D02*
X031110D01*
X030573Y035300D02*
X030783Y035090D01*
X036135Y034035D02*
X036190Y033980D01*
X035890Y034035D02*
X036135D01*
X026888Y036319D02*
X027377Y035790D01*
X026888Y036319D02*
Y036819D01*
X027470Y035997D02*
X030730D01*
X027144Y036323D02*
X027470Y035997D01*
X027620Y036157D02*
X030630D01*
X027400Y036377D02*
X027620Y036157D01*
X027740Y036317D02*
X030560D01*
X027656Y036401D02*
X027740Y036317D01*
X035780Y035790D02*
X035940Y035950D01*
X032310Y031720D02*
X032653Y031377D01*
X032992D01*
X032470Y031290D02*
X032639Y031121D01*
X032270Y031290D02*
X032470D01*
X032320Y030450D02*
X032620D01*
X032779Y030609D01*
X032992D01*
X032411Y030865D02*
X032992D01*
X032639Y031121D02*
X032992D01*
X031226Y031290D02*
X032270D01*
X035740Y033480D02*
X035910Y033650D01*
X034964Y033480D02*
X035740D01*
X031846Y032140D02*
X032240D01*
X030633Y030697D02*
X031226Y031290D01*
X031018Y029660D02*
X031196D01*
X031934Y028922D01*
X031850Y029830D02*
X031915Y029765D01*
X030812Y029830D02*
X031850D01*
X030642Y030000D02*
X030812Y029830D01*
X030756Y029660D02*
X031018D01*
X030576Y029840D02*
X030756Y029660D01*
X035893Y028003D02*
Y028189D01*
X035819Y027929D02*
X035893Y028003D01*
X035041Y027929D02*
X035819D01*
X034448Y028522D02*
X035041Y027929D01*
X035893Y030253D02*
Y030479D01*
X035810Y030170D02*
X035893Y030253D01*
X035757Y024739D02*
X035886Y024853D01*
X030831Y024739D02*
X035757D01*
X035886Y024853D02*
Y025004D01*
X035870D02*
X035886Y025019D01*
Y022636D02*
Y022839D01*
X035790Y022540D02*
X035880Y022630D01*
X032105Y026410D02*
X032360Y026665D01*
X031210Y023980D02*
X031970Y023220D01*
X032240D01*
X033249Y022449D02*
X033720Y022920D01*
X032406Y022449D02*
X033249D01*
X032420Y033480D02*
X032719Y033779D01*
X032989D01*
X032410Y033489D02*
X033354D01*
X033724Y033860D01*
X032406Y022449D02*
X032796Y022839D01*
X032984D01*
X032350Y028000D02*
X032669Y028319D01*
X032010Y028000D02*
X032350D01*
X032669Y028319D02*
X032992D01*
X032320Y028390D02*
X032505Y028575D01*
X032020Y028390D02*
X032320D01*
X032010Y028000D02*
X033330D01*
X033728Y028398D01*
X027580Y030170D02*
X035810D01*
X031915Y029765D02*
X032413D01*
X033728Y028398D02*
Y028400D01*
X032030Y028790D02*
X032070Y028830D01*
X031500Y028390D02*
X032020D01*
X030370Y029520D02*
X031500Y028390D01*
X032992Y028575D02*
X032994D01*
X032505D02*
X032992D01*
X032991Y028830D02*
X032992Y028831D01*
X032070Y028830D02*
X032991D01*
X032200Y029230D02*
X032430D01*
X032573Y029087D01*
X032992D01*
X036423Y028575D02*
X036438Y028590D01*
X035893Y028575D02*
X036423D01*
X034448Y028522D02*
Y029140D01*
X030680Y024890D02*
X030831Y024739D01*
X027372Y024890D02*
X030680D01*
X032360Y026665D02*
X032984D01*
X031054Y025385D02*
X031854D01*
X032686Y025897D02*
X032984D01*
X032406Y026177D02*
X032686Y025897D01*
X027736Y025377D02*
X030556D01*
X030634Y024520D02*
X030850Y024305D01*
X032246D01*
X031048Y024142D02*
X031210Y023980D01*
X030787Y024142D02*
X031048D01*
X030568Y024360D02*
X030787Y024142D01*
X031567Y022835D02*
X032236D01*
X030362Y024040D02*
X031567Y022835D01*
X035307Y023095D02*
X035635D01*
X035765Y023225D01*
X036026D01*
X032240Y023220D02*
X032510D01*
X032641Y023351D01*
X032984D01*
X032236Y022835D02*
X032435D01*
X032695Y023095D01*
X032984D01*
X036660Y026140D02*
X036700Y026100D01*
X035900Y026140D02*
X036660D01*
X026884Y025379D02*
X027372Y024890D01*
X018580Y027040D02*
X025980D01*
X016540Y025000D02*
X018580Y027040D01*
X015540Y025000D02*
X016540D01*
X022500Y033190D02*
X029693D01*
X018130Y028820D02*
X022500Y033190D01*
X018130Y027630D02*
Y028820D01*
X017300Y029910D02*
X018630D01*
X016390Y029000D02*
X017300Y029910D01*
X015560Y029000D02*
X016390D01*
X016050Y023510D02*
X023940D01*
X025090Y022360D01*
X017010Y026510D02*
X018130Y027630D01*
X015050Y029510D02*
X015560Y029000D01*
X019890Y034020D02*
X021500Y035630D01*
X014590Y034020D02*
X019890D01*
X014350Y034260D02*
X014590Y034020D01*
X014620Y035510D02*
X015050D01*
X014350Y035240D02*
X014620Y035510D01*
X014350Y034260D02*
Y035240D01*
X016050Y026510D02*
X017010D01*
X015050Y024510D02*
X015540Y025000D01*
X025090Y022360D02*
X029799D01*
X016050Y034510D02*
X016290D01*
X015050D02*
X015550Y035010D01*
X016550D01*
X021610Y040070D01*
X033766Y021980D02*
Y022266D01*
X033880Y022380D01*
X021690Y039910D02*
X032534D01*
X016290Y034510D02*
X021690Y039910D01*
X034440Y023060D02*
X034960Y022540D01*
X034440Y023060D02*
Y023660D01*
X034960Y022540D02*
X035790D01*
X026628Y024229D02*
X026919Y024520D01*
X030013Y024040D02*
X030362D01*
X027420D02*
X027729D01*
X027395Y024015D02*
X027420Y024040D01*
X030440Y024200D02*
X030760Y023880D01*
X028155Y024200D02*
X030440D01*
X027240D02*
X027796D01*
X027139Y024099D02*
X027240Y024200D01*
X028089Y024360D02*
X030568D01*
X027039D02*
X027862D01*
X026884Y024205D02*
X027039Y024360D01*
X028023Y024520D02*
X030634D01*
X026919D02*
X027928D01*
X027928Y024520D02*
X028023D01*
X027928Y024520D02*
X027928Y024520D01*
X027862Y024360D02*
X028089D01*
X027862Y024360D02*
X027862Y024360D01*
X027796Y024200D02*
X028155D01*
X027796Y024200D02*
X027796Y024200D01*
X027730Y024040D02*
X028222D01*
X027729Y024040D02*
X027730Y024040D01*
X028023Y024520D02*
X028023Y024520D01*
X028089Y024360D02*
X028089Y024360D01*
X028155Y024200D02*
X028155Y024200D01*
X028378Y024040D02*
X028478D01*
X028378Y024040D02*
X028378Y024040D01*
X028222Y024040D02*
X028378D01*
X028222Y024040D02*
X028222Y024040D01*
X028634Y024040D02*
X028733D01*
X028634Y024040D02*
X028634Y024040D01*
X028478Y024040D02*
X028634D01*
X028478Y024040D02*
X028478Y024040D01*
X028890Y024040D02*
X028989D01*
X028890Y024040D02*
X028890Y024040D01*
X028733Y024040D02*
X028890D01*
X028733Y024040D02*
X028733Y024040D01*
X029402Y024040D02*
X029501D01*
X029402Y024040D02*
X029402Y024040D01*
X029245Y024040D02*
X029402D01*
X029245Y024040D02*
X029245Y024040D01*
X029146Y024040D02*
X029245D01*
X029658D02*
X029757D01*
X029658Y024040D02*
X029658Y024040D01*
X029501Y024040D02*
X029658D01*
X029501Y024040D02*
X029501Y024040D01*
X030013Y024040D02*
X030013Y024040D01*
X029914Y024040D02*
X030013D01*
X029146Y024040D02*
X029146Y024040D01*
X028989Y024040D02*
X029146D01*
X028989Y024040D02*
X028989Y024040D01*
X029914D02*
X029914Y024040D01*
X029757Y024040D02*
X029914D01*
X029757Y024040D02*
X029757Y024040D01*
X027395Y023615D02*
Y024015D01*
X027466Y025057D02*
X030726D01*
X027139Y025383D02*
X027466Y025057D01*
X027616Y025217D02*
X030626D01*
X027395Y025437D02*
X027616Y025217D01*
X030726Y025057D02*
X031054Y025385D01*
X027651Y025461D02*
X027736Y025377D01*
X030760Y023880D02*
X030940D01*
X027139Y023615D02*
Y024099D01*
X028812Y025879D02*
Y026441D01*
X026372Y025879D02*
Y026441D01*
X026628Y025879D02*
Y026697D01*
X026884Y025379D02*
Y025879D01*
X027139Y025383D02*
Y025879D01*
X027395Y025437D02*
Y025879D01*
X027651Y025461D02*
Y025879D01*
X026628Y023615D02*
Y024229D01*
X026884Y023615D02*
Y024205D01*
X030123Y022684D02*
Y023219D01*
X030091Y023251D02*
X030123Y023219D01*
X030091Y023251D02*
Y023615D01*
X029579Y022777D02*
Y023615D01*
X029835Y023029D02*
Y023615D01*
X029324Y023029D02*
Y023615D01*
X029048Y022777D02*
Y023615D01*
X029835Y025879D02*
Y026441D01*
X029579Y025879D02*
Y026697D01*
X029324Y025879D02*
Y026441D01*
X028556Y023224D02*
Y023615D01*
X028460Y023128D02*
X028556Y023224D01*
X028300Y023130D02*
Y023615D01*
X027780Y022610D02*
X028300Y023130D01*
X028460Y022850D02*
Y023128D01*
X026116Y023236D02*
Y023615D01*
X026050Y022880D02*
Y023170D01*
X026116Y023236D01*
X025950Y022610D02*
X027780D01*
X025788Y022772D02*
X025950Y022610D01*
X025788Y022772D02*
Y023008D01*
X025860Y023080D01*
Y023615D01*
X029799Y022360D02*
X030123Y022684D01*
X028816Y036819D02*
Y037381D01*
X026376Y036819D02*
Y037381D01*
X026632Y036819D02*
Y037637D01*
X027144Y036323D02*
Y036819D01*
X030730Y035997D02*
X031173Y036440D01*
X027400Y036377D02*
Y036819D01*
X030630Y036157D02*
X031288Y036814D01*
X027656Y036401D02*
Y036819D01*
X030560Y036317D02*
X032182Y037938D01*
X027400Y034555D02*
Y034955D01*
X027734Y034980D02*
X027734Y034980D01*
X028226D01*
X028383D02*
X028482D01*
X028226D02*
X028226Y034980D01*
X028482Y034980D02*
X028482Y034980D01*
X028383D02*
X028383Y034980D01*
X028638Y034980D02*
X028639Y034980D01*
X028738D01*
X028482Y034980D02*
X028638D01*
X028226D02*
X028383D01*
X028738D02*
X028894D01*
X028894Y034980D02*
X028994D01*
X028738D02*
X028738Y034980D01*
X028994Y034980D02*
X028994Y034980D01*
X028894D02*
X028894Y034980D01*
X029150D02*
X029250D01*
X029406D02*
X029506D01*
X029150Y034980D02*
X029150Y034980D01*
X029406Y034980D02*
X029406Y034980D01*
X029250D02*
X029250Y034980D01*
X029506Y034980D02*
X029506Y034980D01*
X029662D02*
X029662Y034980D01*
X029250Y034980D02*
X029406D01*
X029662Y034980D02*
X029761D01*
X028994Y034980D02*
X029150D01*
X029761Y034980D02*
X029762Y034980D01*
X029506D02*
X029662D01*
X029918D02*
X029918Y034980D01*
X030017D01*
X029762Y034980D02*
X029918D01*
X030017Y034980D02*
X030017Y034980D01*
X026632Y034555D02*
Y035169D01*
X026923Y035460D01*
X027933D02*
X027933Y035460D01*
X028027D01*
X028027Y035460D02*
X030639D01*
X028027Y035460D02*
X028027Y035460D01*
X027144Y034555D02*
Y035039D01*
X030444Y035140D02*
X030764Y034820D01*
X027800Y035140D02*
X027800Y035140D01*
X028160D01*
X028160Y035140D01*
X030444D01*
X034444Y034000D02*
X034964Y033480D01*
X034444Y034000D02*
Y034600D01*
X026888Y034555D02*
Y035145D01*
X027043Y035300D01*
X027866D02*
X027867Y035300D01*
X028093D01*
X028094Y035300D01*
X030573D01*
X026054Y033820D02*
Y034110D01*
X026120Y034176D01*
X028464Y033790D02*
Y034068D01*
X028560Y034164D01*
Y034555D01*
X026120Y034176D02*
Y034555D01*
X025954Y033550D02*
X027784D01*
X025793Y033712D02*
X025954Y033550D01*
X025793Y033948D02*
X025864Y034020D01*
Y034555D01*
X027784Y033550D02*
X028304Y034070D01*
Y034555D01*
X029840Y036819D02*
Y037381D01*
X029328Y036819D02*
Y037381D01*
X030096Y034191D02*
X030128Y034159D01*
Y033624D02*
Y034159D01*
X030096Y034191D02*
Y034555D01*
X029840Y033969D02*
Y034555D01*
X029052Y033717D02*
Y034555D01*
X029584Y033717D02*
Y034555D01*
X029328Y033969D02*
Y034555D01*
X028819Y031359D02*
Y031921D01*
X026379Y031359D02*
Y031921D01*
X026635Y031359D02*
Y032177D01*
X027147Y030863D02*
X027473Y030537D01*
X030733D01*
X027147Y030863D02*
Y031359D01*
X030733Y030537D02*
X031152Y030956D01*
X031872D01*
X031963Y030865D02*
X032411D01*
X031872Y030956D02*
X031963Y030865D01*
X027403Y030917D02*
X027623Y030697D01*
X027403Y030917D02*
Y031359D01*
X027623Y030697D02*
X030633D01*
X026891Y030859D02*
Y031359D01*
X027659Y030941D02*
X027743Y030857D01*
X027659Y030941D02*
Y031359D01*
X027743Y030857D02*
X030563D01*
X031846Y032140D01*
X026635Y029095D02*
Y029709D01*
X026926Y030000D01*
X027147Y029095D02*
Y029579D01*
X030768Y029360D02*
X030948D01*
X027147Y029579D02*
X027248Y029680D01*
X026891Y029095D02*
Y029685D01*
X027046Y029840D01*
X026058Y028360D02*
Y028650D01*
X026123Y028716D01*
X028468Y028330D02*
Y028608D01*
X028563Y028704D01*
Y029095D01*
X026123Y028716D02*
Y029095D01*
X025796Y028252D02*
Y028488D01*
Y028252D02*
X025957Y028090D01*
X027788D01*
X025796Y028488D02*
X025867Y028560D01*
X027788Y028090D02*
X028307Y028610D01*
X025867Y028560D02*
Y029095D01*
X028307Y028610D02*
Y029095D01*
X029587Y031359D02*
Y032177D01*
X029843Y031359D02*
Y031921D01*
X029331Y031359D02*
Y031921D01*
X030119Y031359D02*
Y032177D01*
X029806Y027840D02*
X030131Y028164D01*
X030099Y028731D02*
X030131Y028699D01*
Y028164D02*
Y028699D01*
X030099Y028731D02*
Y029095D01*
X029843Y028509D02*
Y029095D01*
X029055Y028257D02*
Y029095D01*
X029587Y028257D02*
Y029095D01*
X029331Y028509D02*
Y029095D01*
X015050Y038510D02*
X015560Y039020D01*
X015050Y037510D02*
X015470Y037930D01*
X015630Y038090D02*
X016050Y038510D01*
X014635Y037865D02*
X014860Y038090D01*
X015630D01*
X014635Y037315D02*
Y037865D01*
Y037315D02*
X014855Y037095D01*
X016685D01*
X016050Y037510D02*
X016874D01*
X015470Y037930D02*
X017067D01*
X015560Y039020D02*
X017931D01*
X025530Y033800D02*
X025793D01*
Y033712D02*
Y033800D01*
Y033948D01*
X029055Y031359D02*
Y032177D01*
X029048Y025879D02*
Y026697D01*
X027403Y029095D02*
Y029495D01*
X027428Y029520D01*
X027737D01*
X027737Y029520D01*
X028229D01*
X028229Y029520D01*
X028386D01*
X028386Y029520D01*
X028485D01*
X028485Y029520D01*
X028642D01*
X028642Y029520D01*
X028741D01*
X028741Y029520D01*
X028898D01*
X028898Y029520D01*
X028997D01*
X028997Y029520D01*
X029153D01*
X029154Y029520D01*
X029253D01*
X029253Y029520D01*
X029409D01*
X029409Y029520D01*
X029509D01*
X029509Y029520D01*
X029665D01*
X029665Y029520D01*
X029765D01*
X029765Y029520D01*
X029921D01*
X029921Y029520D01*
X030020D01*
X030021Y029520D01*
X030370D01*
X027248Y029680D02*
X027803D01*
X027803Y029680D01*
X028163D01*
X028163Y029680D01*
X030447D01*
X030768Y029360D01*
X027046Y029840D02*
X027870D01*
X027870Y029840D01*
X028097D01*
X028097Y029840D01*
X030576D01*
X026926Y030000D02*
X027936D01*
X027936Y030000D01*
X028030D01*
X028030Y030000D01*
X030642D01*
X026891Y030859D02*
X027580Y030170D01*
X029693Y033190D02*
X030128Y033624D01*
X026780Y027840D02*
X029806D01*
X025980Y027040D02*
X026780Y027840D01*
X032534Y039910D02*
X033220Y039224D01*
X016685Y037095D02*
X019820Y040230D01*
X016874Y037510D02*
X019754Y040390D01*
X017067Y037930D02*
X019687Y040550D01*
X017931Y039020D02*
X019621Y040710D01*
X037350D01*
X019687Y040550D02*
X037284D01*
X019754Y040390D02*
X037217D01*
X019820Y040230D02*
X037151D01*
X037350Y040710D02*
X040050Y038010D01*
X037284Y040550D02*
X039890Y037944D01*
X037217Y040390D02*
X039730Y037877D01*
X037151Y040230D02*
X039570Y037811D01*
X040050Y031690D02*
Y038010D01*
X039570Y030133D02*
Y037811D01*
X039730Y031557D02*
Y037877D01*
X039890Y031624D02*
Y037944D01*
X036040Y023770D02*
X036420D01*
X036430Y023780D01*
X035307Y026665D02*
X036775D01*
X037100Y026340D01*
Y025400D02*
X037636D01*
X037100D02*
Y026340D01*
X035307Y024375D02*
X035925D01*
X036010Y024290D01*
X037180Y030900D02*
X037636D01*
X035315Y029855D02*
X035845D01*
X036010Y029690D01*
X036969Y031111D02*
X037180Y030900D01*
X036969Y031111D02*
Y031688D01*
X036513Y032145D02*
X036969Y031688D01*
X035315Y032145D02*
X036513D01*
X036190Y032450D02*
Y033980D01*
X037220Y036340D02*
X037636D01*
X036966Y036594D02*
X037220Y036340D01*
X036966Y036594D02*
Y037148D01*
X036510Y037605D02*
X036966Y037148D01*
X035311Y037605D02*
X036510D01*
X036105Y035315D02*
X036150Y035270D01*
X035311Y035315D02*
X036105D01*
X040197Y029860D02*
X040416Y030079D01*
X040197Y029577D02*
Y029860D01*
Y030443D02*
Y031317D01*
X039843Y029577D02*
Y029860D01*
Y030443D02*
Y031445D01*
X039730Y031557D02*
X039843Y031445D01*
X040416Y030079D02*
Y031324D01*
X040050Y031690D02*
X040416Y031324D01*
X039890Y031624D02*
X040197Y031317D01*
X039570Y030133D02*
X039843Y029860D01*
X021610Y040070D02*
X037060D01*
X039250Y037880D01*
X033880Y022380D02*
X036840D01*
X039250Y024790D01*
Y037880D01*
X038116Y025144D02*
X038384D01*
X038010Y025250D02*
X038116Y025144D01*
X038024Y036084D02*
X038384D01*
X038010Y036070D02*
X038024Y036084D01*
X038014Y030644D02*
X038384D01*
X038010Y030640D02*
X038014Y030644D01*
X038010Y025250D02*
Y030640D01*
Y036070D01*
X036760Y039680D02*
X037760Y038680D01*
Y037080D02*
Y038680D01*
Y037080D02*
X038010Y036830D01*
Y036070D02*
Y036830D01*
X030626Y025217D02*
X031189Y025780D01*
X032280D01*
X030556Y025377D02*
X031589Y026410D01*
X032105D01*
X030111Y025879D02*
X030749D01*
X032110Y026910D02*
X032240Y026780D01*
X030749Y025879D02*
X031780Y026910D01*
X032110D01*
D19*
X034504Y039386D02*
X034654D01*
X034816Y039224D01*
X035070D01*
X034130Y038354D02*
X034524D01*
X034686Y038516D01*
X035070D01*
X033606Y039386D02*
X033756D01*
X033444Y039224D02*
X033606Y039386D01*
X033220Y039224D02*
X033444D01*
X033220Y038516D02*
X033544D01*
X033706Y038354D01*
X034130D01*
X034514Y021980D02*
X034670D01*
X034831Y021819D01*
X035100D01*
X033200D02*
X033449D01*
X033610Y021980D01*
X033766D01*
X033200Y021110D02*
X033550D01*
X033711Y020949D01*
X034140D01*
X034549D01*
X034710Y021110D01*
X035100D01*
Y021819D02*
X035530D01*
X035070Y039224D02*
X035490D01*
X035070Y038516D02*
X035490D01*
X032800D02*
X033220D01*
X032780Y021110D02*
X033200D01*
X035100D02*
X035520D01*
D20*
X038384Y025400D02*
X038900D01*
Y026010D01*
X038780Y026130D02*
X038900Y026010D01*
X038780Y026130D02*
Y026356D01*
X038384Y030900D02*
X038860D01*
X038384Y036340D02*
X038800D01*
X038860Y030900D02*
Y031836D01*
X038810Y036330D02*
Y037336D01*
X038854Y037380D01*
D21*
X040680Y020270D02*
D03*
Y040060D02*
D03*
D22*
X015050Y020510D02*
D03*
Y021510D02*
D03*
Y022510D02*
D03*
Y029510D02*
D03*
Y023510D02*
D03*
Y024510D02*
D03*
Y027510D02*
D03*
Y028510D02*
D03*
Y032510D02*
D03*
Y030510D02*
D03*
Y031510D02*
D03*
Y033510D02*
D03*
Y034510D02*
D03*
Y037510D02*
D03*
Y035510D02*
D03*
Y036510D02*
D03*
Y038510D02*
D03*
Y039510D02*
D03*
X016050Y021510D02*
D03*
X015050Y026510D02*
D03*
X016050Y022510D02*
D03*
X015050Y025510D02*
D03*
X016050D02*
D03*
Y023510D02*
D03*
Y024510D02*
D03*
Y026510D02*
D03*
Y027510D02*
D03*
Y037510D02*
D03*
Y035510D02*
D03*
Y036510D02*
D03*
Y038510D02*
D03*
Y039510D02*
D03*
Y030510D02*
D03*
Y028510D02*
D03*
Y029510D02*
D03*
Y033510D02*
D03*
Y034510D02*
D03*
Y031510D02*
D03*
Y032510D02*
D03*
D23*
Y020510D02*
D03*
D24*
X032410Y033489D02*
D03*
D03*
D03*
X032020Y028000D02*
D03*
D03*
D03*
X032406Y022449D02*
D03*
D03*
D03*
X032210Y033880D02*
D03*
D03*
D03*
X032020Y028390D02*
D03*
D03*
D03*
X032236Y022835D02*
D03*
D03*
D03*
X032200Y034270D02*
D03*
D03*
D03*
X032030Y028830D02*
D03*
D03*
D03*
X032240Y023220D02*
D03*
D03*
D03*
X032210Y034720D02*
D03*
D03*
D03*
X032200Y029230D02*
D03*
D03*
D03*
X032406Y023607D02*
D03*
D03*
D03*
X032200Y035270D02*
D03*
D03*
D03*
X032413Y029765D02*
D03*
D03*
D03*
X032246Y024305D02*
D03*
D03*
D03*
X032320Y036059D02*
D03*
D03*
D03*
Y030450D02*
D03*
D03*
D03*
X032406Y024999D02*
D03*
D03*
D03*
X032320Y036440D02*
D03*
D03*
D03*
X032411Y030865D02*
D03*
D03*
D03*
X031854Y025385D02*
D03*
D03*
D03*
X032320Y036830D02*
D03*
D03*
D03*
X032270Y031290D02*
D03*
D03*
D03*
X032280Y025780D02*
D03*
D03*
D03*
X032320Y037240D02*
D03*
D03*
D03*
X032250Y031720D02*
D03*
D03*
D03*
X032406Y026177D02*
D03*
D03*
D03*
X032220Y037900D02*
D03*
D03*
D03*
X032413Y032145D02*
D03*
D03*
D03*
X032360Y026665D02*
D03*
D03*
D03*
X035910Y033650D02*
D03*
D03*
D03*
X035893Y028189D02*
D03*
D03*
D03*
X035886Y022839D02*
D03*
D03*
D03*
X035890Y034035D02*
D03*
D03*
D03*
X035893Y028575D02*
D03*
D03*
D03*
X036026Y023225D02*
D03*
D03*
D03*
X037420Y036990D02*
D03*
D03*
D03*
X037480Y031580D02*
D03*
D03*
D03*
X037520Y026100D02*
D03*
D03*
D03*
X035940Y035950D02*
D03*
D03*
D03*
X035893Y030479D02*
D03*
D03*
D03*
X035886Y025019D02*
D03*
D03*
D03*
X035970Y036340D02*
D03*
D03*
D03*
X035893Y030865D02*
D03*
D03*
D03*
X035886Y025405D02*
D03*
D03*
D03*
D25*
X026470Y030300D02*
D03*
X025390Y030220D02*
D03*
X031020Y032460D02*
D03*
X035720Y032420D02*
D03*
X034600Y032310D02*
D03*
X030780Y033270D02*
D03*
X018170Y029320D02*
D03*
X017150Y029310D02*
D03*
X016780Y028850D02*
D03*
X022280Y033430D02*
D03*
X021220Y032360D02*
D03*
X020310Y031450D02*
D03*
X019420Y030570D02*
D03*
X022320Y034630D02*
D03*
X020850Y033290D02*
D03*
X019330Y031750D02*
D03*
X018270Y030700D02*
D03*
X036770Y036250D02*
D03*
X028570Y032770D02*
D03*
X027740Y032430D02*
D03*
X025170Y033520D02*
D03*
X029850Y037381D02*
D03*
X029318D02*
D03*
X028786D02*
D03*
X030096Y037657D02*
D03*
X029584Y037637D02*
D03*
X030944Y034820D02*
D03*
X035928Y031390D02*
D03*
X036708Y031580D02*
D03*
X036040Y023770D02*
D03*
X035900Y026140D02*
D03*
X033620Y032250D02*
D03*
X017940Y023800D02*
D03*
X019290Y025950D02*
D03*
X019260Y027520D02*
D03*
X023350Y026310D02*
D03*
X023550Y027690D02*
D03*
X023830Y030350D02*
D03*
X023630Y032150D02*
D03*
X027180Y031970D02*
D03*
X036750Y022780D02*
D03*
X036890Y026960D02*
D03*
X036910Y032360D02*
D03*
X037050Y034740D02*
D03*
X036810Y033460D02*
D03*
X030560Y031770D02*
D03*
X021440Y028510D02*
D03*
X017850D02*
D03*
X020270Y024080D02*
D03*
X020080Y025450D02*
D03*
X017330Y027240D02*
D03*
X017850Y027990D02*
D03*
X018630Y029910D02*
D03*
X019830D02*
D03*
X036700Y026100D02*
D03*
X036430Y025780D02*
D03*
X033720Y022920D02*
D03*
X034440Y023660D02*
D03*
X025760Y026500D02*
D03*
X030940Y023880D02*
D03*
X028780Y023030D02*
D03*
X028200Y026500D02*
D03*
X028782Y026441D02*
D03*
X029068Y026717D02*
D03*
X026362Y026441D02*
D03*
X026628Y026697D02*
D03*
X029845Y026441D02*
D03*
X029046Y022777D02*
D03*
X029314Y023031D02*
D03*
X029599Y022777D02*
D03*
X029861Y023031D02*
D03*
X029579Y026697D02*
D03*
X029314Y026441D02*
D03*
X027651Y023051D02*
D03*
X026372D02*
D03*
X028460Y022850D02*
D03*
X026050Y022880D02*
D03*
X029072Y037657D02*
D03*
X026366Y037381D02*
D03*
X026632Y037637D02*
D03*
X027656Y033991D02*
D03*
X026376D02*
D03*
X034444Y034600D02*
D03*
X025764Y037440D02*
D03*
X028204D02*
D03*
X026054Y033820D02*
D03*
X028464Y033790D02*
D03*
X029866Y033971D02*
D03*
X029050Y033717D02*
D03*
X028784Y033970D02*
D03*
X029604Y033717D02*
D03*
X029318Y033971D02*
D03*
X033724Y033860D02*
D03*
X036434Y036720D02*
D03*
X035924Y036850D02*
D03*
X036704Y037040D02*
D03*
X028789Y031921D02*
D03*
X029075Y032197D02*
D03*
X026369Y031921D02*
D03*
X026635Y032177D02*
D03*
X027659Y028531D02*
D03*
X026379D02*
D03*
X030948Y029360D02*
D03*
X034448Y029140D02*
D03*
X025768Y031980D02*
D03*
X028208D02*
D03*
X026058Y028360D02*
D03*
X028468Y028330D02*
D03*
X029587Y032177D02*
D03*
X029853Y031921D02*
D03*
X029321D02*
D03*
X030099Y032197D02*
D03*
X029869Y028511D02*
D03*
X029053Y028257D02*
D03*
X028788Y028510D02*
D03*
X029607Y028257D02*
D03*
X029321Y028511D02*
D03*
X033728Y028400D02*
D03*
X035938Y028940D02*
D03*
X036438Y031260D02*
D03*
X025530Y033800D02*
D03*
X023220Y029500D02*
D03*
X035530Y021819D02*
D03*
X035490Y039224D02*
D03*
Y038516D02*
D03*
X032800D02*
D03*
X032780Y021110D02*
D03*
X035520D02*
D03*
X023280Y034760D02*
D03*
X024210Y033520D02*
D03*
X025290Y028160D02*
D03*
X024840Y028610D02*
D03*
X025010Y036010D02*
D03*
X023690Y034990D02*
D03*
X024750Y033500D02*
D03*
X026070Y032780D02*
D03*
X024780Y030300D02*
D03*
X025080Y028970D02*
D03*
X025290Y027430D02*
D03*
X025190Y025370D02*
D03*
X020200Y033640D02*
D03*
X022280Y032250D02*
D03*
X021590Y031470D02*
D03*
X021160Y029140D02*
D03*
X022790Y028070D02*
D03*
X022740Y027340D02*
D03*
X022560Y026770D02*
D03*
X022630Y026020D02*
D03*
X022610Y024860D02*
D03*
X022540Y023790D02*
D03*
X022550Y022700D02*
D03*
X025390Y036530D02*
D03*
X024990Y034620D02*
D03*
X037050Y041230D02*
D03*
X036160D02*
D03*
X035270D02*
D03*
X033490D02*
D03*
X034380D02*
D03*
X030820D02*
D03*
X029930D02*
D03*
X031710D02*
D03*
X032600D02*
D03*
X025480D02*
D03*
X024590D02*
D03*
X022810D02*
D03*
X023700D02*
D03*
X027260D02*
D03*
X026370D02*
D03*
X028150D02*
D03*
X029040D02*
D03*
X020140D02*
D03*
X021030D02*
D03*
X021920D02*
D03*
X040550Y025760D02*
D03*
Y023980D02*
D03*
Y032880D02*
D03*
Y027540D02*
D03*
Y036440D02*
D03*
Y034660D02*
D03*
X041620Y035460D02*
D03*
Y037240D02*
D03*
Y030120D02*
D03*
Y028340D02*
D03*
Y031900D02*
D03*
Y033680D02*
D03*
Y024780D02*
D03*
Y026560D02*
D03*
X036010Y024290D02*
D03*
X037090Y025400D02*
D03*
X038900D02*
D03*
X036440Y027030D02*
D03*
X037180Y030900D02*
D03*
X036010Y029690D02*
D03*
X036190Y032450D02*
D03*
X038860Y030900D02*
D03*
X037220Y036340D02*
D03*
X036150Y035270D02*
D03*
X035934Y034400D02*
D03*
X038810Y036330D02*
D03*
X036760Y039680D02*
D03*
X030580Y026710D02*
D03*
X030660Y028230D02*
D03*
X038320Y026250D02*
D03*
X038620Y028590D02*
D03*
X038610Y029790D02*
D03*
X038360Y031870D02*
D03*
X038610Y033480D02*
D03*
X038580Y035460D02*
D03*
X038630Y034400D02*
D03*
X038260Y038070D02*
D03*
D26*
X039000Y041000D02*
D03*
Y021000D02*
D03*
Y019000D02*
D03*
X038000Y041000D02*
D03*
X038500Y034000D02*
D03*
Y028000D02*
D03*
X038000Y023000D02*
D03*
X038500Y022000D02*
D03*
X038000Y021000D02*
D03*
X038500Y020000D02*
D03*
X038000Y019000D02*
D03*
X037500Y034000D02*
D03*
Y030000D02*
D03*
X037000Y029000D02*
D03*
X037500Y028000D02*
D03*
Y020000D02*
D03*
X037000Y019000D02*
D03*
X036500Y038000D02*
D03*
X036000Y021000D02*
D03*
X036500Y020000D02*
D03*
X036000Y019000D02*
D03*
X035500Y038000D02*
D03*
X035000Y019000D02*
D03*
X034000D02*
D03*
X033500Y038000D02*
D03*
X033000Y019000D02*
D03*
X032000Y021000D02*
D03*
Y019000D02*
D03*
X031500Y038000D02*
D03*
X031000Y021000D02*
D03*
Y019000D02*
D03*
X030500Y038000D02*
D03*
Y022000D02*
D03*
X030000Y021000D02*
D03*
Y019000D02*
D03*
X029000Y039000D02*
D03*
X029500Y022000D02*
D03*
X029000Y021000D02*
D03*
Y019000D02*
D03*
X028000Y039000D02*
D03*
X028500Y022000D02*
D03*
X028000Y021000D02*
D03*
Y019000D02*
D03*
X027000Y039000D02*
D03*
Y023000D02*
D03*
X027500Y022000D02*
D03*
X027000Y021000D02*
D03*
Y019000D02*
D03*
X026000Y039000D02*
D03*
X026500Y036000D02*
D03*
X026000Y025000D02*
D03*
X026500Y022000D02*
D03*
X026000Y021000D02*
D03*
Y019000D02*
D03*
X025000Y039000D02*
D03*
X025500Y038000D02*
D03*
X025000Y035000D02*
D03*
Y023000D02*
D03*
X025500Y022000D02*
D03*
X025000Y021000D02*
D03*
Y019000D02*
D03*
X024000Y039000D02*
D03*
X024500Y038000D02*
D03*
X024000Y037000D02*
D03*
X024500Y032000D02*
D03*
X024000Y031000D02*
D03*
Y029000D02*
D03*
Y025000D02*
D03*
X024500Y022000D02*
D03*
X024000Y021000D02*
D03*
Y019000D02*
D03*
X023000Y039000D02*
D03*
X023500Y038000D02*
D03*
X023000Y037000D02*
D03*
X023500Y036000D02*
D03*
Y022000D02*
D03*
X023000Y021000D02*
D03*
Y019000D02*
D03*
X022500Y038000D02*
D03*
X022000Y037000D02*
D03*
X022500Y036000D02*
D03*
X022000Y031000D02*
D03*
Y029000D02*
D03*
X022500Y022000D02*
D03*
X022000Y021000D02*
D03*
Y019000D02*
D03*
X021500Y038000D02*
D03*
X021000Y037000D02*
D03*
X021500Y036000D02*
D03*
X021000Y031000D02*
D03*
X021500Y026000D02*
D03*
Y022000D02*
D03*
X021000Y021000D02*
D03*
Y019000D02*
D03*
X020000Y039000D02*
D03*
X020500Y036000D02*
D03*
X020000Y035000D02*
D03*
X020500Y034000D02*
D03*
X020000Y029000D02*
D03*
X020500Y026000D02*
D03*
Y022000D02*
D03*
X020000Y021000D02*
D03*
Y019000D02*
D03*
X019000Y041000D02*
D03*
X019500Y036000D02*
D03*
X019000Y035000D02*
D03*
Y033000D02*
D03*
Y029000D02*
D03*
X019500Y022000D02*
D03*
X019000Y021000D02*
D03*
Y019000D02*
D03*
X018000Y041000D02*
D03*
X018500Y038000D02*
D03*
X018000Y037000D02*
D03*
Y033000D02*
D03*
X018500Y032000D02*
D03*
Y022000D02*
D03*
X018000Y021000D02*
D03*
Y019000D02*
D03*
X017000Y041000D02*
D03*
X017500Y040000D02*
D03*
X017000Y033000D02*
D03*
X017500Y032000D02*
D03*
X017000Y031000D02*
D03*
X017500Y022000D02*
D03*
X017000Y021000D02*
D03*
Y019000D02*
D03*
X016000Y041000D02*
D03*
X016500Y040000D02*
D03*
Y036000D02*
D03*
Y032000D02*
D03*
Y030000D02*
D03*
Y026000D02*
D03*
Y022000D02*
D03*
X016000Y019000D02*
D03*
X015000Y041000D02*
D03*
X015500Y040000D02*
D03*
Y036000D02*
D03*
Y032000D02*
D03*
Y030000D02*
D03*
Y022000D02*
D03*
X015000Y019000D02*
D03*
X013500Y040500D02*
D03*
X014250Y039000D02*
D03*
X013500Y037500D02*
D03*
X014250Y036000D02*
D03*
X013500Y034500D02*
D03*
X014250Y033000D02*
D03*
X013500Y031500D02*
D03*
X014250Y030000D02*
D03*
X013500Y028500D02*
D03*
Y025500D02*
D03*
Y022500D02*
D03*
X014250Y021000D02*
D03*
X013500Y019500D02*
D03*
X012000Y040500D02*
D03*
X012750Y039000D02*
D03*
X012000Y037500D02*
D03*
X012750Y036000D02*
D03*
X012000Y034500D02*
D03*
X012750Y033000D02*
D03*
X012000Y031500D02*
D03*
X012750Y030000D02*
D03*
X012000Y028500D02*
D03*
X012750Y027000D02*
D03*
X012000Y025500D02*
D03*
X012750Y024000D02*
D03*
X012000Y022500D02*
D03*
X012750Y021000D02*
D03*
X012000Y019500D02*
D03*
M02*
