G04 Layer_Color=255*
%FSAX24Y24*%
%MOIN*%
G70*
G01*
G75*
%ADD12R,0.0374X0.0394*%
%ADD21C,0.2500*%
%ADD22C,0.0591*%
%ADD23R,0.0591X0.0591*%
G04:AMPARAMS|DCode=24|XSize=32mil|YSize=28mil|CornerRadius=7mil|HoleSize=0mil|Usage=FLASHONLY|Rotation=0.000|XOffset=0mil|YOffset=0mil|HoleType=Round|Shape=RoundedRectangle|*
%AMROUNDEDRECTD24*
21,1,0.0320,0.0140,0,0,0.0*
21,1,0.0180,0.0280,0,0,0.0*
1,1,0.0140,0.0090,-0.0070*
1,1,0.0140,-0.0090,-0.0070*
1,1,0.0140,-0.0090,0.0070*
1,1,0.0140,0.0090,0.0070*
%
%ADD24ROUNDEDRECTD24*%
D12*
X028580Y036590D02*
D03*
X029289D02*
D03*
X028583Y031130D02*
D03*
X029292D02*
D03*
X028576Y025650D02*
D03*
X029284D02*
D03*
X026150Y036590D02*
D03*
X026859D02*
D03*
X026153Y031130D02*
D03*
X026862D02*
D03*
X026146Y025650D02*
D03*
X026854D02*
D03*
D21*
X040680Y020270D02*
D03*
Y040060D02*
D03*
D22*
X015050Y020510D02*
D03*
Y021510D02*
D03*
Y022510D02*
D03*
Y029510D02*
D03*
Y023510D02*
D03*
Y024510D02*
D03*
Y027510D02*
D03*
Y028510D02*
D03*
Y032510D02*
D03*
Y030510D02*
D03*
Y031510D02*
D03*
Y033510D02*
D03*
Y034510D02*
D03*
Y037510D02*
D03*
Y035510D02*
D03*
Y036510D02*
D03*
Y038510D02*
D03*
Y039510D02*
D03*
X016050Y021510D02*
D03*
X015050Y026510D02*
D03*
X016050Y022510D02*
D03*
X015050Y025510D02*
D03*
X016050D02*
D03*
Y023510D02*
D03*
Y024510D02*
D03*
Y026510D02*
D03*
Y027510D02*
D03*
Y037510D02*
D03*
Y035510D02*
D03*
Y036510D02*
D03*
Y038510D02*
D03*
Y039510D02*
D03*
Y030510D02*
D03*
Y028510D02*
D03*
Y029510D02*
D03*
Y033510D02*
D03*
Y034510D02*
D03*
Y031510D02*
D03*
Y032510D02*
D03*
D23*
Y020510D02*
D03*
D24*
X032410Y033489D02*
D03*
D03*
D03*
X032020Y028000D02*
D03*
D03*
D03*
X032406Y022449D02*
D03*
D03*
D03*
X032210Y033880D02*
D03*
D03*
D03*
X032020Y028390D02*
D03*
D03*
D03*
X032236Y022835D02*
D03*
D03*
D03*
X032200Y034270D02*
D03*
D03*
D03*
X032030Y028830D02*
D03*
D03*
D03*
X032240Y023220D02*
D03*
D03*
D03*
X032210Y034720D02*
D03*
D03*
D03*
X032200Y029230D02*
D03*
D03*
D03*
X032406Y023607D02*
D03*
D03*
D03*
X032200Y035270D02*
D03*
D03*
D03*
X032413Y029765D02*
D03*
D03*
D03*
X032246Y024305D02*
D03*
D03*
D03*
X032320Y036059D02*
D03*
D03*
D03*
Y030450D02*
D03*
D03*
D03*
X032406Y024999D02*
D03*
D03*
D03*
X032320Y036440D02*
D03*
D03*
D03*
X032411Y030865D02*
D03*
D03*
D03*
X031854Y025385D02*
D03*
D03*
D03*
X032320Y036830D02*
D03*
D03*
D03*
X032270Y031290D02*
D03*
D03*
D03*
X032280Y025780D02*
D03*
D03*
D03*
X032320Y037240D02*
D03*
D03*
D03*
X032250Y031720D02*
D03*
D03*
D03*
X032406Y026177D02*
D03*
D03*
D03*
X032220Y037900D02*
D03*
D03*
D03*
X032413Y032145D02*
D03*
D03*
D03*
X032360Y026665D02*
D03*
D03*
D03*
X035910Y033650D02*
D03*
D03*
D03*
X035893Y028189D02*
D03*
D03*
D03*
X035886Y022839D02*
D03*
D03*
D03*
X035890Y034035D02*
D03*
D03*
D03*
X035893Y028575D02*
D03*
D03*
D03*
X036026Y023225D02*
D03*
D03*
D03*
X037420Y036990D02*
D03*
D03*
D03*
X037480Y031580D02*
D03*
D03*
D03*
X037520Y026100D02*
D03*
D03*
D03*
X035940Y035950D02*
D03*
D03*
D03*
X035893Y030479D02*
D03*
D03*
D03*
X035886Y025019D02*
D03*
D03*
D03*
X035970Y036340D02*
D03*
D03*
D03*
X035893Y030865D02*
D03*
D03*
D03*
X035886Y025405D02*
D03*
D03*
D03*
M02*
