G04 Layer_Color=16711935*
%FSAX24Y24*%
%MOIN*%
G70*
G01*
G75*
%ADD18C,0.0080*%
%ADD30C,0.0039*%
D18*
X032038Y041650D02*
X042650D01*
Y018370D02*
Y041650D01*
X010810Y018370D02*
X042650D01*
X010810D02*
X021422D01*
X010810D02*
Y041650D01*
X032070D01*
D30*
X026307Y035155D02*
G03*
X026307Y035155I-000197J000000D01*
G01*
X026310Y029695D02*
G03*
X026310Y029695I-000197J000000D01*
G01*
X026303Y024215D02*
G03*
X026303Y024215I-000197J000000D01*
G01*
X028747Y035155D02*
G03*
X028747Y035155I-000197J000000D01*
G01*
X028750Y029695D02*
G03*
X028750Y029695I-000197J000000D01*
G01*
X028743Y024215D02*
G03*
X028743Y024215I-000197J000000D01*
G01*
X034878Y033897D02*
G03*
X034878Y033897I-000197J000000D01*
G01*
X034881Y028437D02*
G03*
X034881Y028437I-000197J000000D01*
G01*
X034874Y022957D02*
G03*
X034874Y022957I-000197J000000D01*
G01*
X034878Y036187D02*
G03*
X034878Y036187I-000197J000000D01*
G01*
X034881Y030727D02*
G03*
X034881Y030727I-000197J000000D01*
G01*
X034874Y025247D02*
G03*
X034874Y025247I-000197J000000D01*
G01*
X038276Y035897D02*
Y036783D01*
X037744Y035897D02*
Y036783D01*
Y035897D02*
X038276D01*
X037744Y036783D02*
X038276D01*
Y024957D02*
Y025843D01*
X037744Y024957D02*
Y025843D01*
Y024957D02*
X038276D01*
X037744Y025843D02*
X038276D01*
Y030457D02*
Y031343D01*
X037744Y030457D02*
Y031343D01*
Y030457D02*
X038276D01*
X037744Y031343D02*
X038276D01*
X025756Y036573D02*
X027764D01*
X025756Y034801D02*
Y036573D01*
X027764Y034801D02*
Y036573D01*
X025756Y034801D02*
X027764D01*
X025759Y031113D02*
X027767D01*
X025759Y029341D02*
Y031113D01*
X027767Y029341D02*
Y031113D01*
X025759Y029341D02*
X027767D01*
X027760Y023861D02*
Y025633D01*
X025752D02*
X027760D01*
X025752Y023861D02*
X027760D01*
X025752D02*
Y025633D01*
X028196Y036573D02*
X030204D01*
X028196Y034801D02*
Y036573D01*
X030204Y034801D02*
Y036573D01*
X028196Y034801D02*
X030204D01*
X028199Y031113D02*
X030207D01*
X028199Y029341D02*
Y031113D01*
X030207Y029341D02*
Y031113D01*
X028199Y029341D02*
X030207D01*
X030200Y023861D02*
Y025633D01*
X028192D02*
X030200D01*
X028192Y023861D02*
X030200D01*
X028192D02*
Y025633D01*
X033264Y033543D02*
Y035551D01*
Y033543D02*
X035036D01*
X033264Y035551D02*
X035036D01*
Y033543D02*
Y035551D01*
X033267Y028083D02*
Y030091D01*
Y028083D02*
X035039D01*
X033267Y030091D02*
X035039D01*
Y028083D02*
Y030091D01*
X035031Y022603D02*
Y024611D01*
X033260D02*
X035031D01*
X033260Y022603D02*
X035031D01*
X033260D02*
Y024611D01*
X033264Y035833D02*
Y037841D01*
Y035833D02*
X035036D01*
X033264Y037841D02*
X035036D01*
Y035833D02*
Y037841D01*
X033267Y030373D02*
Y032381D01*
Y030373D02*
X035039D01*
X033267Y032381D02*
X035039D01*
Y030373D02*
Y032381D01*
X035031Y024893D02*
Y026901D01*
X033260D02*
X035031D01*
X033260Y024893D02*
X035031D01*
X033260D02*
Y026901D01*
M02*
