G04 Layer_Color=32768*
%FSAX24Y24*%
%MOIN*%
G70*
G01*
G75*
%ADD30C,0.0039*%
%ADD41C,0.0020*%
D30*
X037813Y036340D02*
X038207D01*
X038010Y036143D02*
Y036537D01*
X037813Y025400D02*
X038207D01*
X038010Y025203D02*
Y025597D01*
X037813Y030900D02*
X038207D01*
X038010Y030703D02*
Y031097D01*
X026563Y035687D02*
X026957D01*
X026760Y035490D02*
Y035884D01*
X026566Y030227D02*
X026960D01*
X026763Y030030D02*
Y030424D01*
X026756Y024550D02*
Y024944D01*
X026559Y024747D02*
X026952D01*
X029003Y035687D02*
X029397D01*
X029200Y035490D02*
Y035884D01*
X029006Y030227D02*
X029400D01*
X029203Y030030D02*
Y030424D01*
X029196Y024550D02*
Y024944D01*
X028999Y024747D02*
X029392D01*
X034150Y034350D02*
Y034744D01*
X033953Y034547D02*
X034347D01*
X034153Y028890D02*
Y029284D01*
X033956Y029087D02*
X034350D01*
X034146Y023410D02*
Y023804D01*
X033949Y023607D02*
X034342D01*
X034150Y036640D02*
Y037034D01*
X033953Y036837D02*
X034347D01*
X034153Y031180D02*
Y031574D01*
X033956Y031377D02*
X034350D01*
X034146Y025700D02*
Y026094D01*
X033949Y025897D02*
X034342D01*
D41*
X038650Y035789D02*
Y036891D01*
X037370Y035789D02*
Y036891D01*
Y035789D02*
X038650D01*
X037370Y036891D02*
X038650D01*
Y024849D02*
Y025951D01*
X037370Y024849D02*
Y025951D01*
Y024849D02*
X038650D01*
X037370Y025951D02*
X038650D01*
Y030349D02*
Y031451D01*
X037370Y030349D02*
Y031451D01*
Y030349D02*
X038650D01*
X037370Y031451D02*
X038650D01*
X025658Y037222D02*
X027862D01*
X025658Y034151D02*
Y037222D01*
X027862Y034151D02*
Y037222D01*
X025658Y034151D02*
X027862D01*
X025661Y031762D02*
X027866D01*
X025661Y028691D02*
Y031762D01*
X027866Y028691D02*
Y031762D01*
X025661Y028691D02*
X027866D01*
X027858Y023211D02*
Y026282D01*
X025653D02*
X027858D01*
X025653Y023211D02*
X027858D01*
X025653D02*
Y026282D01*
X028098Y037222D02*
X030302D01*
X028098Y034151D02*
Y037222D01*
X030302Y034151D02*
Y037222D01*
X028098Y034151D02*
X030302D01*
X028101Y031762D02*
X030306D01*
X028101Y028691D02*
Y031762D01*
X030306Y028691D02*
Y031762D01*
X028101Y028691D02*
X030306D01*
X030298Y023211D02*
Y026282D01*
X028093D02*
X030298D01*
X028093Y023211D02*
X030298D01*
X028093D02*
Y026282D01*
X032615Y033444D02*
Y035649D01*
Y033444D02*
X035685D01*
X032615Y035649D02*
X035685D01*
Y033444D02*
Y035649D01*
X032618Y027984D02*
Y030189D01*
Y027984D02*
X035689D01*
X032618Y030189D02*
X035689D01*
Y027984D02*
Y030189D01*
X035681Y022504D02*
Y024709D01*
X032610D02*
X035681D01*
X032610Y022504D02*
X035681D01*
X032610D02*
Y024709D01*
X032615Y035734D02*
Y037939D01*
Y035734D02*
X035685D01*
X032615Y037939D02*
X035685D01*
Y035734D02*
Y037939D01*
X032618Y030274D02*
Y032479D01*
Y030274D02*
X035689D01*
X032618Y032479D02*
X035689D01*
Y030274D02*
Y032479D01*
X035681Y024794D02*
Y026999D01*
X032610D02*
X035681D01*
X032610Y024794D02*
X035681D01*
X032610D02*
Y026999D01*
M02*
