G04 Layer_Physical_Order=1*
G04 Layer_Color=255*
%FSAX23Y23*%
%MOIN*%
G70*
G01*
G75*
%ADD10C,0.030*%
%ADD11C,0.016*%
%ADD12C,0.008*%
%ADD13C,0.059*%
%ADD14R,0.059X0.059*%
%ADD15R,0.075X0.098*%
%ADD16O,0.075X0.098*%
%ADD17C,0.250*%
%ADD18R,0.059X0.059*%
G36*
X03452Y03381D02*
X03494Y03391D01*
X03508Y03347D01*
X03682Y03381D01*
X03490Y03321D01*
X03480Y03363D01*
X03410Y03347D01*
X03426Y03279D01*
X03474Y03289D01*
X03514Y03095D01*
X03458Y03261D01*
X03412Y03251D01*
X03400Y03295D01*
X03226Y03261D01*
X03394Y03317D01*
X03384Y03361D01*
X03428Y03375D01*
X03392Y03545D01*
X03452Y03381D01*
D02*
G37*
G36*
X03804Y03287D02*
X03810Y03279D01*
Y03269D01*
X03794D01*
X03788Y03275D01*
X03774D01*
X03772Y03265D01*
X03786Y03261D01*
X03798Y03257D01*
X03812Y03249D01*
Y03227D01*
X03804Y03215D01*
X03788Y03209D01*
X03771Y03211D01*
X03756Y03217D01*
X03750Y03233D01*
X03770Y03235D01*
X03772Y03229D01*
X03790D01*
X03796Y03233D01*
X03792Y03239D01*
X03778Y03243D01*
X03772D01*
X03760Y03251D01*
X03752Y03263D01*
X03754Y03279D01*
X03768Y03293D01*
X03788Y03295D01*
X03804Y03287D01*
D02*
G37*
G36*
X03670Y03209D02*
X03646Y03263D01*
X03626Y03209D01*
X03592Y03295D01*
X03610D01*
X03626Y03257D01*
X03640Y03295D01*
X03654D01*
X03670Y03255D01*
X03682Y03295D01*
X03700D01*
X03670Y03209D01*
D02*
G37*
G36*
X03742Y03255D02*
X03721Y03235D01*
X03702Y03255D01*
X03720Y03273D01*
X03742Y03255D01*
D02*
G37*
G36*
X03960Y03277D02*
X03936Y03275D01*
Y03209D01*
X03918D01*
Y03275D01*
X03896Y03277D01*
Y03295D01*
X03958D01*
X03960Y03277D01*
D02*
G37*
G36*
X03886Y03209D02*
X03870D01*
X03854Y03247D01*
X03838Y03209D01*
X03824D01*
X03854Y03294D01*
X03886Y03209D01*
D02*
G37*
G36*
X03572Y03289D02*
X03580Y03279D01*
X03582Y03269D01*
Y03259D01*
X03580Y03251D01*
X03576Y03243D01*
X03564Y03235D01*
X03544Y03233D01*
Y03209D01*
X03526D01*
Y03295D01*
X03560D01*
X03572Y03289D01*
D02*
G37*
G36*
X04026Y03261D02*
Y03237D01*
X03996Y03207D01*
X04026Y03205D01*
Y03189D01*
X03968D01*
Y03201D01*
X03978Y03215D01*
X04002Y03237D01*
X04008Y03245D01*
Y03255D01*
X04000Y03259D01*
X03992Y03257D01*
X03988Y03245D01*
X03970D01*
X03972Y03259D01*
X03988Y03273D01*
X04012D01*
X04026Y03261D01*
D02*
G37*
%LPC*%
G36*
X03560Y03275D02*
X03544D01*
Y03251D01*
X03556D01*
X03560Y03253D01*
X03566Y03259D01*
X03564Y03269D01*
X03560Y03275D01*
D02*
G37*
%LPD*%
D10*
X03950Y02390D02*
Y02720D01*
X03820Y02850D02*
X03950Y02720D01*
X03490Y02850D02*
X03820D01*
X03330Y02690D02*
X03490Y02850D01*
X03250Y02690D02*
X03330D01*
X03230Y02670D02*
X03250Y02690D01*
D11*
X03450Y02900D02*
X03770D01*
X03290Y02740D02*
X03450Y02900D01*
X03200Y02740D02*
X03290D01*
X03825Y02955D02*
Y03145D01*
X03770Y02900D02*
X03825Y02955D01*
X03140Y02680D02*
X03200Y02740D01*
X03060Y02680D02*
X03140D01*
D12*
X03596Y03120D02*
X03570D01*
X03596Y03146D01*
Y03153D01*
X03590Y03159D01*
X03577D01*
X03570Y03153D01*
X03609D02*
X03616Y03159D01*
X03629D01*
X03636Y03153D01*
Y03127D01*
X03629Y03120D01*
X03616D01*
X03609Y03127D01*
Y03153D01*
X03649Y03120D02*
X03662D01*
X03655D01*
Y03159D01*
X03649Y03153D01*
X03708Y03159D02*
X03695Y03153D01*
X03682Y03140D01*
Y03127D01*
X03688Y03120D01*
X03701D01*
X03708Y03127D01*
Y03133D01*
X03701Y03140D01*
X03682D01*
X03520Y02709D02*
Y02670D01*
X03540D01*
X03546Y02677D01*
Y02683D01*
X03540Y02690D01*
X03520D01*
X03540D01*
X03546Y02696D01*
Y02703D01*
X03540Y02709D01*
X03520D01*
X03559Y02670D02*
Y02709D01*
X03579D01*
X03586Y02703D01*
Y02690D01*
X03579Y02683D01*
X03559D01*
X03618Y02670D02*
Y02709D01*
X03599Y02690D01*
X03625D01*
X03677Y02670D02*
Y02709D01*
X03697D01*
X03704Y02703D01*
Y02690D01*
X03697Y02683D01*
X03677D01*
X03717Y02703D02*
X03723Y02709D01*
X03736D01*
X03743Y02703D01*
Y02696D01*
X03736Y02690D01*
X03730D01*
X03736D01*
X03743Y02683D01*
Y02677D01*
X03736Y02670D01*
X03723D01*
X03717Y02677D01*
X03220Y02350D02*
X03181D01*
Y02370D01*
X03187Y02376D01*
X03200D01*
X03207Y02370D01*
Y02350D01*
Y02363D02*
X03220Y02376D01*
X03181Y02389D02*
X03220D01*
Y02409D01*
X03213Y02416D01*
X03207D01*
X03200Y02409D01*
Y02389D01*
Y02409D01*
X03194Y02416D01*
X03187D01*
X03181Y02409D01*
Y02389D01*
Y02429D02*
X03220D01*
Y02455D01*
X03181Y02507D02*
X03220D01*
Y02527D01*
X03213Y02534D01*
X03207D01*
X03200Y02527D01*
Y02507D01*
Y02527D01*
X03194Y02534D01*
X03187D01*
X03181Y02527D01*
Y02507D01*
X04080Y02350D02*
X04041D01*
Y02370D01*
X04047Y02376D01*
X04060D01*
X04067Y02370D01*
Y02350D01*
Y02363D02*
X04080Y02376D01*
X04041Y02389D02*
X04080D01*
Y02409D01*
X04073Y02416D01*
X04067D01*
X04060Y02409D01*
Y02389D01*
Y02409D01*
X04054Y02416D01*
X04047D01*
X04041Y02409D01*
Y02389D01*
Y02429D02*
X04080D01*
Y02455D01*
Y02507D02*
X04054D01*
X04041Y02521D01*
X04054Y02534D01*
X04080D01*
X04060D01*
Y02507D01*
X03300Y02009D02*
Y01970D01*
Y01983D01*
X03326Y02009D01*
X03307Y01990D01*
X03326Y01970D01*
X03339Y02009D02*
X03352D01*
X03346D01*
Y01970D01*
X03339D01*
X03352D01*
X03372Y02009D02*
Y01970D01*
X03398D01*
X03412Y02009D02*
Y01970D01*
X03438D01*
X03490Y02009D02*
Y01970D01*
X03510D01*
X03516Y01977D01*
Y01983D01*
X03510Y01990D01*
X03490D01*
X03510D01*
X03516Y01996D01*
Y02003D01*
X03510Y02009D01*
X03490D01*
X03730D02*
Y01970D01*
Y01983D01*
X03756Y02009D01*
X03737Y01990D01*
X03756Y01970D01*
X03769Y02009D02*
X03782D01*
X03776D01*
Y01970D01*
X03769D01*
X03782D01*
X03802Y02009D02*
Y01970D01*
X03828D01*
X03842Y02009D02*
Y01970D01*
X03868D01*
X03920D02*
Y01996D01*
X03933Y02009D01*
X03946Y01996D01*
Y01970D01*
Y01990D01*
X03920D01*
X03910Y03069D02*
X03897D01*
X03890Y03063D01*
Y03037D01*
X03897Y03030D01*
X03910D01*
X03916Y03037D01*
Y03063D01*
X03910Y03069D01*
X03929D02*
Y03037D01*
X03936Y03030D01*
X03949D01*
X03956Y03037D01*
Y03069D01*
X03969D02*
X03995D01*
X03982D01*
Y03030D01*
X03280Y03069D02*
X03293D01*
X03287D01*
Y03030D01*
X03280D01*
X03293D01*
X03313D02*
Y03069D01*
X03339Y03030D01*
Y03069D01*
D13*
X04200Y02449D02*
D03*
Y02527D02*
D03*
X04106Y02281D02*
D03*
X04294D02*
D03*
Y02616D02*
D03*
X04106D02*
D03*
X03060Y02449D02*
D03*
Y02527D02*
D03*
X02966Y02281D02*
D03*
X03154D02*
D03*
Y02616D02*
D03*
X02966D02*
D03*
X03713Y02280D02*
D03*
Y02093D02*
D03*
X03969D02*
D03*
Y02280D02*
D03*
X03801Y02300D02*
D03*
X03283Y02280D02*
D03*
Y02093D02*
D03*
X03539D02*
D03*
Y02280D02*
D03*
X03371Y02300D02*
D03*
X03671Y02491D02*
D03*
Y02570D02*
D03*
X03514D02*
D03*
X03750Y02491D02*
D03*
X03839Y02437D02*
D03*
Y02624D02*
D03*
X03425Y02623D02*
D03*
Y02436D02*
D03*
X03514Y02491D02*
D03*
X03593D02*
D03*
Y02570D02*
D03*
X03060Y02680D02*
D03*
X03230Y02670D02*
D03*
X03950Y02390D02*
D03*
X03825Y03145D02*
D03*
D14*
X04200Y02370D02*
D03*
X03060D02*
D03*
D15*
X04300Y03050D02*
D03*
Y02850D02*
D03*
X03210Y03050D02*
D03*
Y02850D02*
D03*
D16*
X04200Y03050D02*
D03*
Y02850D02*
D03*
X03110Y03050D02*
D03*
Y02850D02*
D03*
D17*
X04213Y03425D02*
D03*
X03071D02*
D03*
X04213Y02087D02*
D03*
X03071D02*
D03*
D18*
X03880Y02300D02*
D03*
X03450D02*
D03*
X03750Y02570D02*
D03*
M02*
