M48
;Layer_Color=9474304
;FILE_FORMAT=2:3
INCH
;TYPE=PLATED
T1F00S00C0.024
T2F00S00C0.031
T3F00S00C0.035
T4F00S00C0.051
T5F00S00C0.126
%
T01
X03230Y02670
X03950Y02390
X03060Y02680
X03825Y03145
T02
X03371Y02300
X03450
X03514Y02491
Y02570
X03593
X03671
Y02491
X03593
X03750
Y02570
X03801Y02300
X03880
X04200Y02370
Y02449
Y02527
X03060
Y02449
Y02370
T03
X03283Y02093
Y02280
X03154Y02281
Y02616
X03425Y02623
Y02436
X03539Y02280
X03713
Y02093
X03539
X03969
Y02280
X04106Y02281
X04294
Y02616
X04106
X03839Y02624
Y02437
X02966Y02281
Y02616
T04
X03210Y02850
Y03050
X04200
X04300
Y02850
X04200
X03110
Y03050
T05
X04213Y02087
X03071
Y03425
X04213
M30
