G04 Layer_Physical_Order=2*
G04 Layer_Color=16711680*
%FSAX25Y25*%
%MOIN*%
G70*
G01*
G75*
%ADD10C,0.01000*%
%ADD11C,0.25590*%
%ADD12C,0.06102*%
%ADD13R,0.06102X0.06102*%
D10*
X0578000Y0169500D02*
Y0208000D01*
X0567300Y0158800D02*
X0578000Y0169500D01*
X0572002Y0208000D02*
X0578000D01*
Y0205001D01*
X0577000Y0204001D01*
X0576001D01*
X0575001Y0205001D01*
Y0208000D01*
Y0205001D01*
X0574001Y0204001D01*
X0573002D01*
X0572002Y0205001D01*
Y0208000D01*
Y0199003D02*
Y0201002D01*
X0573002Y0202002D01*
X0577000D01*
X0578000Y0201002D01*
Y0199003D01*
X0577000Y0198003D01*
X0573002D01*
X0572002Y0199003D01*
Y0196004D02*
Y0192005D01*
Y0194004D01*
X0578000D01*
X0572002Y0190006D02*
Y0186007D01*
Y0188006D01*
X0578000D01*
X0572002Y0181009D02*
Y0183008D01*
X0573002Y0184008D01*
X0577000D01*
X0578000Y0183008D01*
Y0181009D01*
X0577000Y0180009D01*
X0573002D01*
X0572002Y0181009D01*
X0578000Y0178010D02*
X0572002D01*
X0574001Y0176010D01*
X0572002Y0174011D01*
X0578000D01*
D11*
X0565354Y0156728D02*
D03*
X0565484Y0446728D02*
D03*
D12*
X0535579Y0176736D02*
D03*
X0545579D02*
D03*
X0535579Y0226736D02*
D03*
X0545579D02*
D03*
Y0216736D02*
D03*
X0535579D02*
D03*
X0545579Y0206736D02*
D03*
X0535579D02*
D03*
X0545579Y0196736D02*
D03*
X0535579D02*
D03*
X0545579Y0186736D02*
D03*
X0535579D02*
D03*
Y0276736D02*
D03*
X0545579D02*
D03*
Y0266736D02*
D03*
X0535579D02*
D03*
X0545579Y0256736D02*
D03*
X0535579D02*
D03*
X0545579Y0246736D02*
D03*
X0535579D02*
D03*
X0545579Y0236736D02*
D03*
X0535579D02*
D03*
Y0326736D02*
D03*
X0545579D02*
D03*
Y0316736D02*
D03*
X0535579D02*
D03*
X0545579Y0306736D02*
D03*
X0535579D02*
D03*
X0545579Y0296736D02*
D03*
X0535579D02*
D03*
X0545579Y0286736D02*
D03*
X0535579D02*
D03*
Y0376736D02*
D03*
X0545579D02*
D03*
Y0366736D02*
D03*
X0535579D02*
D03*
X0545579Y0356736D02*
D03*
X0535579D02*
D03*
X0545579Y0346736D02*
D03*
X0535579D02*
D03*
X0545579Y0336736D02*
D03*
X0535579D02*
D03*
Y0386736D02*
D03*
X0545579D02*
D03*
X0535579Y0396736D02*
D03*
X0545579D02*
D03*
X0535579Y0406736D02*
D03*
X0545579D02*
D03*
X0535579Y0416736D02*
D03*
X0545579D02*
D03*
Y0426736D02*
D03*
X0555579Y0176736D02*
D03*
X0565579D02*
D03*
X0555579Y0226736D02*
D03*
X0565579D02*
D03*
Y0216736D02*
D03*
X0555579D02*
D03*
X0565579Y0206736D02*
D03*
X0555579D02*
D03*
X0565579Y0196736D02*
D03*
X0555579D02*
D03*
X0565579Y0186736D02*
D03*
X0555579D02*
D03*
Y0276736D02*
D03*
X0565579D02*
D03*
Y0266736D02*
D03*
X0555579D02*
D03*
X0565579Y0256736D02*
D03*
X0555579D02*
D03*
X0565579Y0246736D02*
D03*
X0555579D02*
D03*
X0565579Y0236736D02*
D03*
X0555579D02*
D03*
Y0326736D02*
D03*
X0565579D02*
D03*
Y0316736D02*
D03*
X0555579D02*
D03*
X0565579Y0306736D02*
D03*
X0555579D02*
D03*
X0565579Y0296736D02*
D03*
X0555579D02*
D03*
X0565579Y0286736D02*
D03*
X0555579D02*
D03*
Y0376736D02*
D03*
X0565579D02*
D03*
Y0366736D02*
D03*
X0555579D02*
D03*
X0565579Y0356736D02*
D03*
X0555579D02*
D03*
X0565579Y0346736D02*
D03*
X0555579D02*
D03*
X0565579Y0336736D02*
D03*
X0555579D02*
D03*
Y0386736D02*
D03*
X0565579D02*
D03*
X0555579Y0396736D02*
D03*
X0565579D02*
D03*
X0555579Y0406736D02*
D03*
X0565579D02*
D03*
X0555579Y0416736D02*
D03*
X0565579D02*
D03*
Y0426736D02*
D03*
D13*
X0535579D02*
D03*
X0555579D02*
D03*
M02*
