G04 Layer_Physical_Order=3*
G04 Layer_Color=16440176*
%FSLAX24Y24*%
%MOIN*%
G70*
G01*
G75*
%ADD36C,0.0100*%
%ADD37C,0.0200*%
%ADD39C,0.0320*%
%ADD40C,0.0120*%
%ADD41C,0.0270*%
%ADD42C,0.0220*%
%ADD43C,0.0250*%
%ADD49C,0.0350*%
%ADD60C,0.0591*%
%ADD62C,0.0320*%
G04:AMPARAMS|DCode=63|XSize=20mil|YSize=12mil|CornerRadius=0.3mil|HoleSize=0mil|Usage=FLASHONLY|Rotation=180.000|XOffset=0mil|YOffset=0mil|HoleType=Round|Shape=RoundedRectangle|*
%AMROUNDEDRECTD63*
21,1,0.0200,0.0114,0,0,180.0*
21,1,0.0194,0.0120,0,0,180.0*
1,1,0.0006,-0.0097,0.0057*
1,1,0.0006,0.0097,0.0057*
1,1,0.0006,0.0097,-0.0057*
1,1,0.0006,-0.0097,-0.0057*
%
%ADD63ROUNDEDRECTD63*%
G04:AMPARAMS|DCode=64|XSize=20mil|YSize=12mil|CornerRadius=0.3mil|HoleSize=0mil|Usage=FLASHONLY|Rotation=270.000|XOffset=0mil|YOffset=0mil|HoleType=Round|Shape=RoundedRectangle|*
%AMROUNDEDRECTD64*
21,1,0.0200,0.0114,0,0,270.0*
21,1,0.0194,0.0120,0,0,270.0*
1,1,0.0006,-0.0057,-0.0097*
1,1,0.0006,-0.0057,0.0097*
1,1,0.0006,0.0057,0.0097*
1,1,0.0006,0.0057,-0.0097*
%
%ADD64ROUNDEDRECTD64*%
%ADD65C,0.0400*%
%ADD66R,0.0480X0.0240*%
G36*
X21654Y21260D02*
X21498D01*
Y22009D01*
X20707D01*
Y21260D01*
X20423D01*
Y21551D01*
X20411Y21613D01*
X20375Y21666D01*
X20124Y21918D01*
Y22081D01*
X20146Y22098D01*
X20188Y22152D01*
X20214Y22216D01*
X20223Y22283D01*
X20214Y22351D01*
X20188Y22415D01*
X20146Y22469D01*
X20092Y22511D01*
X20029Y22537D01*
X19961Y22546D01*
X19893Y22537D01*
X19830Y22511D01*
X19775Y22469D01*
X19734Y22415D01*
X19707Y22351D01*
X19698Y22283D01*
X19707Y22216D01*
X19734Y22152D01*
X19775Y22098D01*
X19797Y22081D01*
Y21850D01*
X19810Y21788D01*
X19845Y21735D01*
X20097Y21483D01*
Y21260D01*
X18403D01*
Y21437D01*
X19714Y22748D01*
X19748Y22798D01*
X19759Y22856D01*
Y25236D01*
X19748Y25295D01*
X19714Y25344D01*
X19301Y25758D01*
X19281Y25771D01*
X19277Y25781D01*
X19235Y25835D01*
X19181Y25877D01*
X19118Y25903D01*
X19050Y25912D01*
X18982Y25903D01*
X18919Y25877D01*
X18865Y25835D01*
X18823Y25781D01*
X18797Y25718D01*
X18788Y25650D01*
X18797Y25582D01*
X18813Y25543D01*
X18792Y25493D01*
X18784Y25487D01*
X18727Y25463D01*
X18673Y25422D01*
X18631Y25367D01*
X18605Y25304D01*
X18596Y25236D01*
X18605Y25168D01*
X18631Y25105D01*
X18673Y25051D01*
X18727Y25009D01*
X18790Y24983D01*
X18858Y24974D01*
X18926Y24983D01*
X18989Y25009D01*
X19044Y25051D01*
X19085Y25105D01*
X19112Y25168D01*
X19120Y25236D01*
X19112Y25304D01*
X19095Y25343D01*
X19116Y25393D01*
X19124Y25399D01*
X19181Y25423D01*
X19194Y25433D01*
X19453Y25173D01*
Y23668D01*
X19403Y23648D01*
X19233Y23818D01*
X19183Y23851D01*
X19180Y23852D01*
X19175Y23904D01*
X19207Y23917D01*
X19269Y23965D01*
X19317Y24028D01*
X19348Y24101D01*
X19358Y24179D01*
X19348Y24258D01*
X19317Y24331D01*
X19269Y24393D01*
X19207Y24441D01*
X19134Y24471D01*
X19055Y24482D01*
X18158D01*
Y25509D01*
X18208Y25525D01*
X18240Y25484D01*
X18294Y25442D01*
X18357Y25416D01*
X18425Y25407D01*
X18493Y25416D01*
X18556Y25442D01*
X18611Y25484D01*
X18652Y25538D01*
X18679Y25601D01*
X18687Y25669D01*
X18679Y25737D01*
X18652Y25800D01*
X18611Y25855D01*
X18556Y25896D01*
X18493Y25923D01*
X18425Y25932D01*
X18357Y25923D01*
X18294Y25896D01*
X18240Y25855D01*
X18208Y25813D01*
X18158Y25829D01*
Y25852D01*
X18148Y25930D01*
X18117Y26003D01*
X18070Y26065D01*
Y26817D01*
X18701Y27449D01*
X18748Y27518D01*
X18764Y27600D01*
Y27605D01*
X18814Y27630D01*
X18864Y27592D01*
X18960Y27552D01*
X19063Y27538D01*
X19166Y27552D01*
X19262Y27592D01*
X19345Y27655D01*
X19408Y27738D01*
X19448Y27834D01*
X19462Y27937D01*
X19448Y28040D01*
X19408Y28136D01*
X19370Y28186D01*
X19395Y28236D01*
X19576D01*
X19658Y28252D01*
X19727Y28299D01*
X19978Y28549D01*
X20063Y28538D01*
X20166Y28552D01*
X20262Y28592D01*
X20345Y28655D01*
X20408Y28738D01*
X20448Y28834D01*
X20462Y28937D01*
X20448Y29040D01*
X20408Y29136D01*
X20345Y29219D01*
X20262Y29282D01*
X20166Y29322D01*
X20063Y29336D01*
X19960Y29322D01*
X19864Y29282D01*
X19781Y29219D01*
X19718Y29136D01*
X19678Y29040D01*
X19664Y28937D01*
X19675Y28852D01*
X19487Y28664D01*
X19408D01*
X19386Y28709D01*
X19408Y28738D01*
X19448Y28834D01*
X19462Y28937D01*
X19448Y29040D01*
X19408Y29136D01*
X19345Y29219D01*
X19262Y29282D01*
X19166Y29322D01*
X19063Y29336D01*
X18960Y29322D01*
X18864Y29282D01*
X18781Y29219D01*
X18718Y29136D01*
X18678Y29040D01*
X18673Y29004D01*
X18498Y28829D01*
X18450Y28852D01*
X18462Y28937D01*
X18448Y29040D01*
X18408Y29136D01*
X18345Y29219D01*
X18262Y29282D01*
X18166Y29322D01*
X18063Y29336D01*
X17960Y29322D01*
X17864Y29282D01*
X17781Y29219D01*
X17718Y29136D01*
X17678Y29040D01*
X17664Y28937D01*
X17678Y28834D01*
X17718Y28738D01*
X17775Y28663D01*
X17761Y28613D01*
X16350D01*
X16288Y28601D01*
X16235Y28565D01*
X15885Y28215D01*
X15849Y28162D01*
X15837Y28100D01*
Y27052D01*
X15422Y26637D01*
X15394Y26640D01*
X15326Y26631D01*
X15263Y26605D01*
X15208Y26563D01*
X15167Y26509D01*
X15140Y26446D01*
X15131Y26378D01*
X15140Y26310D01*
X15167Y26247D01*
X15208Y26193D01*
X15263Y26151D01*
X15326Y26125D01*
X15394Y26116D01*
X15462Y26125D01*
X15525Y26151D01*
X15579Y26193D01*
X15621Y26247D01*
X15647Y26310D01*
X15656Y26378D01*
X15652Y26406D01*
X16115Y26869D01*
X16151Y26922D01*
X16163Y26984D01*
Y28032D01*
X16418Y28287D01*
X16668D01*
Y27542D01*
X17458D01*
Y28287D01*
X17787D01*
X17804Y28237D01*
X17781Y28219D01*
X17718Y28136D01*
X17678Y28040D01*
X17664Y27937D01*
X17678Y27834D01*
X17718Y27738D01*
X17781Y27655D01*
X17864Y27592D01*
X17960Y27552D01*
X18063Y27538D01*
X18123Y27546D01*
X18146Y27499D01*
X17704Y27057D01*
X17658Y26987D01*
X17641Y26905D01*
Y26065D01*
X17593Y26003D01*
X17563Y25930D01*
X17553Y25852D01*
Y24842D01*
X17503Y24832D01*
X17481Y24885D01*
X17439Y24939D01*
X17385Y24981D01*
X17322Y25007D01*
X17254Y25016D01*
X17186Y25007D01*
X17123Y24981D01*
X17069Y24939D01*
X17027Y24885D01*
X17001Y24822D01*
X16992Y24754D01*
Y24482D01*
X16704D01*
X16198Y24988D01*
X16136Y25036D01*
X16069Y25063D01*
X16073Y25112D01*
X16141Y25121D01*
X16204Y25147D01*
X16258Y25189D01*
X16300Y25243D01*
X16326Y25306D01*
X16335Y25374D01*
X16326Y25442D01*
X16300Y25505D01*
X16258Y25559D01*
X16204Y25601D01*
X16141Y25627D01*
X16073Y25636D01*
X16005Y25627D01*
X15942Y25601D01*
X15887Y25559D01*
X15846Y25505D01*
X15820Y25442D01*
X15811Y25374D01*
X15820Y25306D01*
X15846Y25243D01*
X15887Y25189D01*
X15942Y25147D01*
X15994Y25125D01*
X15984Y25076D01*
X15746D01*
X15699Y25070D01*
X15687Y25072D01*
X14668D01*
X14635Y25086D01*
X14567Y25095D01*
X14499Y25086D01*
X14436Y25060D01*
X14408Y25039D01*
X14386D01*
X14369Y25052D01*
X14306Y25078D01*
X14285Y25081D01*
X13698Y25668D01*
X13714Y25722D01*
X13737Y25727D01*
X13807Y25774D01*
X13972Y25939D01*
X13993Y25942D01*
X14057Y25968D01*
X14111Y26009D01*
X14153Y26064D01*
X14179Y26127D01*
X14188Y26195D01*
X14179Y26263D01*
X14153Y26326D01*
X14111Y26380D01*
X14057Y26422D01*
X13993Y26448D01*
X13926Y26457D01*
X13858Y26448D01*
X13794Y26422D01*
X13740Y26380D01*
X13698Y26326D01*
X13672Y26263D01*
X13669Y26242D01*
X13567Y26139D01*
X13164D01*
X13147Y26152D01*
X13083Y26178D01*
X13016Y26187D01*
X12948Y26178D01*
X12884Y26152D01*
X12830Y26110D01*
X12788Y26056D01*
X12762Y25993D01*
X12753Y25925D01*
X12762Y25857D01*
X12788Y25794D01*
X12830Y25739D01*
X12884Y25698D01*
X12948Y25672D01*
X13016Y25663D01*
X13083Y25672D01*
X13087Y25673D01*
X13982Y24778D01*
X13985Y24757D01*
X14011Y24693D01*
X14053Y24639D01*
X14107Y24597D01*
X14170Y24571D01*
X14192Y24568D01*
X14260Y24500D01*
X14329Y24454D01*
X14411Y24438D01*
X15720D01*
X15737Y24425D01*
X15800Y24398D01*
X15868Y24389D01*
X15932Y24398D01*
X16365Y23965D01*
X16427Y23917D01*
X16500Y23887D01*
X16579Y23877D01*
X16781D01*
Y22545D01*
X16349Y22114D01*
X16349Y22114D01*
X16333Y22168D01*
X16593Y22429D01*
X16593Y22429D01*
X16635Y22483D01*
X16661Y22547D01*
X16670Y22614D01*
X16661Y22682D01*
X16635Y22746D01*
X16593Y22800D01*
X16539Y22842D01*
X16476Y22868D01*
X16408Y22877D01*
X16340Y22868D01*
X16277Y22842D01*
X16223Y22800D01*
X16223Y22800D01*
X15935Y22512D01*
X15047D01*
X15014Y22562D01*
X15017Y22570D01*
X15026Y22638D01*
X15017Y22706D01*
X14991Y22769D01*
X14949Y22823D01*
X14895Y22865D01*
X14832Y22891D01*
X14764Y22900D01*
X14696Y22891D01*
X14688Y22888D01*
X14649Y22910D01*
X14643Y22923D01*
X14617Y22985D01*
X14575Y23040D01*
X14521Y23081D01*
X14519Y23082D01*
X14513Y23097D01*
X14513Y23139D01*
X14556Y23171D01*
X14597Y23225D01*
X14623Y23288D01*
X14632Y23356D01*
X14623Y23424D01*
X14597Y23487D01*
X14556Y23542D01*
X14501Y23583D01*
X14493Y23587D01*
X14485Y23644D01*
X14515Y23683D01*
X14542Y23747D01*
X14551Y23815D01*
X14542Y23882D01*
X14515Y23946D01*
X14474Y24000D01*
X14419Y24042D01*
X14356Y24068D01*
X14288Y24077D01*
X14220Y24068D01*
X14157Y24042D01*
X14103Y24000D01*
X14061Y23946D01*
X14035Y23882D01*
X14026Y23815D01*
X14035Y23747D01*
X14061Y23683D01*
X14103Y23629D01*
X14157Y23587D01*
X14166Y23584D01*
X14173Y23527D01*
X14143Y23487D01*
X14117Y23424D01*
X14108Y23356D01*
X14111Y23328D01*
X14026Y23243D01*
X12332D01*
X12270Y23231D01*
X12217Y23195D01*
X10815Y21793D01*
X10779Y21740D01*
X10767Y21678D01*
Y21500D01*
X9843D01*
Y29528D01*
X21654D01*
Y21260D01*
D02*
G37*
G36*
X18487Y23827D02*
X18467Y23778D01*
X18458Y23710D01*
X18467Y23642D01*
X18493Y23579D01*
X18535Y23525D01*
X18589Y23483D01*
X18652Y23457D01*
X18720Y23448D01*
X18788Y23457D01*
X18851Y23483D01*
X18905Y23525D01*
X18930Y23557D01*
X19061D01*
X19130Y23488D01*
X19128Y23475D01*
X19089Y23437D01*
X19021Y23446D01*
X18953Y23437D01*
X18890Y23411D01*
X18835Y23369D01*
X18794Y23315D01*
X18767Y23252D01*
X18758Y23184D01*
X18765Y23137D01*
X18717Y23118D01*
X18695Y23145D01*
X18641Y23187D01*
X18578Y23213D01*
X18510Y23222D01*
X18442Y23213D01*
X18379Y23187D01*
X18325Y23145D01*
X18283Y23091D01*
X18257Y23028D01*
X18248Y22960D01*
X18257Y22892D01*
X18283Y22829D01*
X18325Y22775D01*
X18331Y22769D01*
X18335Y22708D01*
X17180Y21553D01*
X16588D01*
X16571Y21603D01*
X16609Y21632D01*
X17183Y22206D01*
X17197Y22212D01*
X17254Y22256D01*
X17298Y22313D01*
X17326Y22380D01*
X17335Y22452D01*
Y23877D01*
X18463D01*
X18487Y23827D01*
D02*
G37*
G36*
X14102Y22907D02*
X14130Y22873D01*
X14128Y22854D01*
X14131Y22826D01*
X13808Y22503D01*
X13165D01*
X13132Y22553D01*
X13142Y22577D01*
X13151Y22645D01*
X13142Y22712D01*
X13115Y22776D01*
X13074Y22830D01*
X13026Y22867D01*
X13027Y22889D01*
X13040Y22917D01*
X14085D01*
X14102Y22907D01*
D02*
G37*
G36*
X13100Y21260D02*
Y17623D01*
X13031D01*
X12972Y17612D01*
X12923Y17579D01*
X12520Y17176D01*
X12480Y17182D01*
X12412Y17173D01*
X12349Y17146D01*
X12294Y17105D01*
X12253Y17050D01*
X12226Y16987D01*
X12217Y16919D01*
X12226Y16852D01*
X12253Y16788D01*
X12294Y16734D01*
X12349Y16692D01*
X12412Y16666D01*
X12480Y16657D01*
X12548Y16666D01*
X12611Y16692D01*
X12665Y16734D01*
X12707Y16788D01*
X12733Y16852D01*
X12742Y16919D01*
X12737Y16960D01*
X13050Y17273D01*
X13100Y17253D01*
Y14380D01*
X11482D01*
Y14437D01*
X11523Y14465D01*
X11542Y14457D01*
X11610Y14448D01*
X11678Y14457D01*
X11741Y14483D01*
X11795Y14525D01*
X11837Y14579D01*
X11863Y14642D01*
X11872Y14710D01*
X11863Y14778D01*
X11837Y14841D01*
X11795Y14895D01*
X11741Y14937D01*
X11688Y14959D01*
Y19481D01*
X12052Y19844D01*
X12085Y19894D01*
X12096Y19952D01*
Y21132D01*
X12229Y21264D01*
X13052D01*
X13100Y21260D01*
D02*
G37*
G36*
X10767D02*
Y14428D01*
X10771Y14407D01*
Y11803D01*
X10770Y11801D01*
X10757Y11738D01*
Y11490D01*
X10770Y11427D01*
X10771Y11425D01*
Y11366D01*
X10784Y11303D01*
X10819Y11250D01*
X10964Y11105D01*
X11017Y11070D01*
X11080Y11057D01*
X11215D01*
X11232Y11035D01*
X11286Y10993D01*
X11349Y10967D01*
X11417Y10958D01*
X11485Y10967D01*
X11548Y10993D01*
X11603Y11035D01*
X11644Y11089D01*
X11671Y11153D01*
X11680Y11220D01*
X11671Y11288D01*
X11644Y11352D01*
X11603Y11406D01*
X11548Y11448D01*
X11485Y11474D01*
X11466Y11527D01*
X11474Y11546D01*
X11483Y11614D01*
X11480Y11634D01*
X11515Y11669D01*
X11535Y11667D01*
X11603Y11676D01*
X11667Y11702D01*
X11721Y11744D01*
X11763Y11798D01*
X11789Y11861D01*
X11798Y11929D01*
X11789Y11997D01*
X11763Y12060D01*
X11721Y12115D01*
X11667Y12156D01*
X11603Y12182D01*
X11535Y12191D01*
X11528Y12190D01*
X11482Y12232D01*
Y14173D01*
X13346D01*
Y17318D01*
X14355D01*
X14404Y17268D01*
X14393Y17215D01*
X14348Y17193D01*
X14298Y17213D01*
X14230Y17222D01*
X14162Y17213D01*
X14110Y17192D01*
X14058Y17213D01*
X13990Y17222D01*
X13922Y17213D01*
X13859Y17187D01*
X13805Y17145D01*
X13763Y17091D01*
X13737Y17028D01*
X13728Y16960D01*
X13737Y16892D01*
X13763Y16829D01*
X13805Y16775D01*
X13859Y16733D01*
X13922Y16707D01*
X13990Y16698D01*
X14058Y16707D01*
X14110Y16728D01*
X14162Y16707D01*
X14230Y16698D01*
X14298Y16707D01*
X14361Y16733D01*
X14367Y16737D01*
X14420Y16715D01*
X14488Y16706D01*
X14556Y16715D01*
X14619Y16741D01*
X14674Y16783D01*
X14682Y16794D01*
X14713D01*
X14768Y16752D01*
X14831Y16726D01*
X14899Y16717D01*
X14967Y16726D01*
X14986Y16734D01*
X15032Y16699D01*
X15028Y16673D01*
X15037Y16606D01*
X15063Y16542D01*
X15105Y16488D01*
X15159Y16446D01*
X15223Y16420D01*
X15290Y16411D01*
X15358Y16420D01*
X15422Y16446D01*
X15476Y16488D01*
X15517Y16542D01*
X15544Y16606D01*
X15553Y16673D01*
X15544Y16741D01*
X15517Y16805D01*
X15476Y16859D01*
X15422Y16901D01*
X15358Y16927D01*
X15290Y16936D01*
X15223Y16927D01*
X15204Y16919D01*
X15158Y16954D01*
X15161Y16980D01*
X15152Y17047D01*
X15126Y17111D01*
X15084Y17165D01*
X15030Y17207D01*
X14967Y17233D01*
X14899Y17242D01*
X14867Y17238D01*
X14526Y17579D01*
X14477Y17612D01*
X14418Y17623D01*
X13346D01*
Y21060D01*
X14728D01*
X14748Y21014D01*
X14320Y20586D01*
X14029D01*
X14004Y20619D01*
X13950Y20660D01*
X13887Y20686D01*
X13819Y20695D01*
X13751Y20686D01*
X13688Y20660D01*
X13633Y20619D01*
X13592Y20564D01*
X13566Y20501D01*
X13566Y20501D01*
X13559Y20492D01*
X13548Y20433D01*
X13559Y20375D01*
X13566Y20365D01*
X13566Y20365D01*
X13592Y20302D01*
X13633Y20248D01*
X13688Y20206D01*
X13751Y20180D01*
X13819Y20171D01*
X13887Y20180D01*
X13950Y20206D01*
X14003Y20247D01*
X14009Y20246D01*
X14015Y20242D01*
X14038Y20186D01*
X14029Y20118D01*
X14038Y20050D01*
X14064Y19987D01*
X14106Y19933D01*
X14160Y19891D01*
X14223Y19865D01*
X14291Y19856D01*
X14359Y19865D01*
X14422Y19891D01*
X14477Y19933D01*
X14518Y19987D01*
X14529Y20013D01*
X15263Y20747D01*
X16250D01*
X16309Y20759D01*
X16358Y20792D01*
X16613Y21047D01*
X17395D01*
X17454Y21059D01*
X17456Y21060D01*
X17800D01*
Y19777D01*
X17767Y19752D01*
X17726Y19698D01*
X17699Y19635D01*
X17691Y19567D01*
X17699Y19499D01*
X17726Y19436D01*
X17767Y19381D01*
X17822Y19340D01*
X17885Y19314D01*
X17953Y19305D01*
X18021Y19314D01*
X18047Y19325D01*
X18097Y19291D01*
Y19140D01*
X17521Y18564D01*
X17480Y18569D01*
X17412Y18560D01*
X17349Y18534D01*
X17295Y18493D01*
X17253Y18438D01*
X17227Y18375D01*
X17218Y18307D01*
X17227Y18239D01*
X17253Y18176D01*
X17295Y18122D01*
X17349Y18080D01*
X17412Y18054D01*
X17480Y18045D01*
X17548Y18054D01*
X17611Y18080D01*
X17666Y18122D01*
X17707Y18176D01*
X17734Y18239D01*
X17743Y18307D01*
X17737Y18348D01*
X18358Y18969D01*
X18391Y19018D01*
X18403Y19077D01*
Y21060D01*
X20097D01*
Y17178D01*
X19814Y16895D01*
X19061D01*
X19044Y16918D01*
X18989Y16959D01*
X18926Y16986D01*
X18858Y16995D01*
X18790Y16986D01*
X18727Y16959D01*
X18673Y16918D01*
X18631Y16863D01*
X18605Y16800D01*
X18596Y16732D01*
X18605Y16664D01*
X18631Y16601D01*
X18673Y16547D01*
X18727Y16505D01*
X18790Y16479D01*
X18858Y16470D01*
X18926Y16479D01*
X18989Y16505D01*
X19044Y16547D01*
X19061Y16569D01*
X19882D01*
X19944Y16582D01*
X19997Y16617D01*
X20375Y16995D01*
X20411Y17048D01*
X20423Y17110D01*
Y21060D01*
X21654D01*
Y9843D01*
X9843D01*
Y14173D01*
Y21260D01*
X10767Y21260D01*
D02*
G37*
%LPC*%
G36*
X13157Y29336D02*
X13054Y29322D01*
X12958Y29282D01*
X12876Y29219D01*
X12812Y29136D01*
X12772Y29040D01*
X12759Y28937D01*
X12772Y28834D01*
X12734Y28797D01*
X12718Y28803D01*
X12650Y28812D01*
X12582Y28803D01*
X12519Y28777D01*
X12465Y28735D01*
X12423Y28681D01*
X12397Y28618D01*
X12388Y28550D01*
X12397Y28482D01*
X12423Y28419D01*
X12465Y28365D01*
X12519Y28323D01*
X12582Y28297D01*
X12650Y28288D01*
X12718Y28297D01*
X12781Y28323D01*
X12835Y28365D01*
X12877Y28419D01*
X12903Y28482D01*
X12904Y28484D01*
X12954Y28481D01*
Y28293D01*
X12969Y28214D01*
X13013Y28148D01*
X13506Y27656D01*
X13506Y27656D01*
X13572Y27612D01*
X13650Y27596D01*
X14916D01*
X15192Y27320D01*
X15197Y27282D01*
X15223Y27219D01*
X15265Y27165D01*
X15319Y27123D01*
X15382Y27097D01*
X15450Y27088D01*
X15518Y27097D01*
X15581Y27123D01*
X15635Y27165D01*
X15677Y27219D01*
X15703Y27282D01*
X15712Y27350D01*
X15703Y27418D01*
X15677Y27481D01*
X15635Y27535D01*
X15581Y27577D01*
X15518Y27603D01*
X15480Y27608D01*
X15144Y27944D01*
X15078Y27988D01*
X15000Y28004D01*
X13734D01*
X13361Y28377D01*
Y28595D01*
X13439Y28655D01*
X13503Y28738D01*
X13543Y28834D01*
X13556Y28937D01*
X13543Y29040D01*
X13503Y29136D01*
X13439Y29219D01*
X13357Y29282D01*
X13261Y29322D01*
X13157Y29336D01*
D02*
G37*
G36*
X15553Y29332D02*
X14762D01*
Y28542D01*
X15553D01*
Y29332D01*
D02*
G37*
G36*
X14157Y29336D02*
X14054Y29322D01*
X13958Y29282D01*
X13876Y29219D01*
X13812Y29136D01*
X13772Y29040D01*
X13759Y28937D01*
X13772Y28834D01*
X13812Y28738D01*
X13876Y28655D01*
X13958Y28592D01*
X14054Y28552D01*
X14157Y28538D01*
X14261Y28552D01*
X14357Y28592D01*
X14439Y28655D01*
X14503Y28738D01*
X14543Y28834D01*
X14556Y28937D01*
X14543Y29040D01*
X14503Y29136D01*
X14439Y29219D01*
X14357Y29282D01*
X14261Y29322D01*
X14157Y29336D01*
D02*
G37*
G36*
X10630Y29278D02*
X10491Y29260D01*
X10361Y29206D01*
X10250Y29120D01*
X10164Y29009D01*
X10111Y28879D01*
X10092Y28740D01*
X10111Y28601D01*
X10164Y28471D01*
X10250Y28360D01*
X10361Y28275D01*
X10491Y28221D01*
X10630Y28202D01*
X10769Y28221D01*
X10899Y28275D01*
X11010Y28360D01*
X11096Y28471D01*
X11149Y28601D01*
X11168Y28740D01*
X11149Y28879D01*
X11096Y29009D01*
X11010Y29120D01*
X10899Y29206D01*
X10769Y29260D01*
X10630Y29278D01*
D02*
G37*
G36*
X21063Y28336D02*
X20960Y28322D01*
X20864Y28282D01*
X20781Y28219D01*
X20718Y28136D01*
X20678Y28040D01*
X20664Y27937D01*
X20678Y27834D01*
X20697Y27787D01*
X19763Y26853D01*
X19660D01*
X19635Y26885D01*
X19581Y26927D01*
X19518Y26953D01*
X19450Y26962D01*
X19382Y26953D01*
X19319Y26927D01*
X19265Y26885D01*
X19223Y26831D01*
X19197Y26768D01*
X19188Y26700D01*
X19197Y26632D01*
X19223Y26569D01*
X19265Y26515D01*
X19319Y26473D01*
X19382Y26447D01*
X19450Y26438D01*
X19518Y26447D01*
X19581Y26473D01*
X19635Y26515D01*
X19660Y26547D01*
X19826D01*
X19885Y26559D01*
X19934Y26592D01*
X20913Y27571D01*
X20960Y27552D01*
X21063Y27538D01*
X21166Y27552D01*
X21262Y27592D01*
X21345Y27655D01*
X21408Y27738D01*
X21448Y27834D01*
X21462Y27937D01*
X21448Y28040D01*
X21408Y28136D01*
X21345Y28219D01*
X21262Y28282D01*
X21166Y28322D01*
X21063Y28336D01*
D02*
G37*
G36*
X20063D02*
X19960Y28322D01*
X19864Y28282D01*
X19781Y28219D01*
X19718Y28136D01*
X19678Y28040D01*
X19664Y27937D01*
X19678Y27834D01*
X19718Y27738D01*
X19781Y27655D01*
X19864Y27592D01*
X19960Y27552D01*
X20063Y27538D01*
X20166Y27552D01*
X20262Y27592D01*
X20345Y27655D01*
X20408Y27738D01*
X20448Y27834D01*
X20462Y27937D01*
X20448Y28040D01*
X20408Y28136D01*
X20345Y28219D01*
X20262Y28282D01*
X20166Y28322D01*
X20063Y28336D01*
D02*
G37*
G36*
X11326Y27437D02*
X11258Y27428D01*
X11194Y27402D01*
X11140Y27360D01*
X11098Y27306D01*
X11072Y27243D01*
X11063Y27175D01*
X11072Y27107D01*
X11098Y27044D01*
X11140Y26989D01*
X11191Y26951D01*
X11195Y26936D01*
X11194Y26894D01*
X11150Y26860D01*
X11108Y26806D01*
X11082Y26743D01*
X11073Y26675D01*
X11082Y26607D01*
X11108Y26544D01*
X11150Y26489D01*
X11204Y26448D01*
X11268Y26422D01*
X11336Y26413D01*
X11403Y26422D01*
X11467Y26448D01*
X11521Y26489D01*
X11563Y26544D01*
X11589Y26607D01*
X11598Y26675D01*
X11589Y26743D01*
X11563Y26806D01*
X11521Y26860D01*
X11470Y26899D01*
X11466Y26914D01*
X11467Y26956D01*
X11511Y26989D01*
X11553Y27044D01*
X11579Y27107D01*
X11588Y27175D01*
X11579Y27243D01*
X11553Y27306D01*
X11511Y27360D01*
X11457Y27402D01*
X11393Y27428D01*
X11326Y27437D01*
D02*
G37*
G36*
X10946Y26576D02*
X10156D01*
Y25786D01*
X10946D01*
Y26576D01*
D02*
G37*
G36*
X11750Y25782D02*
X11682Y25773D01*
X11619Y25747D01*
X11565Y25705D01*
X11523Y25651D01*
X11497Y25588D01*
X11488Y25520D01*
X11497Y25452D01*
X11523Y25389D01*
X11565Y25335D01*
X11619Y25293D01*
X11682Y25267D01*
X11750Y25258D01*
X11818Y25267D01*
X11881Y25293D01*
X11935Y25335D01*
X11977Y25389D01*
X12003Y25452D01*
X12012Y25520D01*
X12003Y25588D01*
X11977Y25651D01*
X11935Y25705D01*
X11881Y25747D01*
X11818Y25773D01*
X11750Y25782D01*
D02*
G37*
G36*
X21102Y26013D02*
X20999Y25999D01*
X20903Y25959D01*
X20820Y25896D01*
X20757Y25814D01*
X20717Y25717D01*
X20704Y25614D01*
X20717Y25511D01*
X20757Y25415D01*
X20820Y25332D01*
X20903Y25269D01*
X20999Y25229D01*
X21102Y25215D01*
X21206Y25229D01*
X21302Y25269D01*
X21384Y25332D01*
X21448Y25415D01*
X21487Y25511D01*
X21501Y25614D01*
X21487Y25717D01*
X21448Y25814D01*
X21384Y25896D01*
X21302Y25959D01*
X21206Y25999D01*
X21102Y26013D01*
D02*
G37*
G36*
X12128Y25167D02*
X12060Y25158D01*
X11997Y25132D01*
X11943Y25090D01*
X11901Y25036D01*
X11875Y24972D01*
X11866Y24905D01*
X11875Y24837D01*
X11901Y24773D01*
X11943Y24719D01*
X11997Y24677D01*
X12060Y24651D01*
X12128Y24642D01*
X12196Y24651D01*
X12259Y24677D01*
X12314Y24719D01*
X12355Y24773D01*
X12382Y24837D01*
X12391Y24905D01*
X12382Y24972D01*
X12355Y25036D01*
X12314Y25090D01*
X12259Y25132D01*
X12196Y25158D01*
X12128Y25167D01*
D02*
G37*
G36*
X21102Y25013D02*
X20999Y24999D01*
X20903Y24959D01*
X20820Y24896D01*
X20757Y24814D01*
X20717Y24717D01*
X20704Y24614D01*
X20717Y24511D01*
X20757Y24415D01*
X20820Y24332D01*
X20903Y24269D01*
X20999Y24229D01*
X21102Y24215D01*
X21206Y24229D01*
X21302Y24269D01*
X21384Y24332D01*
X21448Y24415D01*
X21487Y24511D01*
X21501Y24614D01*
X21487Y24717D01*
X21448Y24814D01*
X21384Y24896D01*
X21302Y24959D01*
X21206Y24999D01*
X21102Y25013D01*
D02*
G37*
G36*
Y23013D02*
X20999Y22999D01*
X20903Y22959D01*
X20820Y22896D01*
X20757Y22814D01*
X20717Y22717D01*
X20704Y22614D01*
X20717Y22511D01*
X20757Y22415D01*
X20820Y22332D01*
X20903Y22269D01*
X20999Y22229D01*
X21102Y22215D01*
X21206Y22229D01*
X21302Y22269D01*
X21384Y22332D01*
X21448Y22415D01*
X21487Y22511D01*
X21501Y22614D01*
X21487Y22717D01*
X21448Y22814D01*
X21384Y22896D01*
X21302Y22959D01*
X21206Y22999D01*
X21102Y23013D01*
D02*
G37*
G36*
X12165Y18806D02*
X12097Y18797D01*
X12034Y18770D01*
X11980Y18729D01*
X11938Y18674D01*
X11912Y18611D01*
X11903Y18543D01*
X11912Y18475D01*
X11938Y18412D01*
X11980Y18358D01*
X12034Y18316D01*
X12097Y18290D01*
X12165Y18281D01*
X12233Y18290D01*
X12296Y18316D01*
X12351Y18358D01*
X12392Y18412D01*
X12419Y18475D01*
X12428Y18543D01*
X12419Y18611D01*
X12392Y18674D01*
X12351Y18729D01*
X12296Y18770D01*
X12233Y18797D01*
X12165Y18806D01*
D02*
G37*
G36*
X12250Y15112D02*
X12182Y15103D01*
X12119Y15077D01*
X12065Y15035D01*
X12023Y14981D01*
X11997Y14918D01*
X11988Y14850D01*
X11997Y14782D01*
X12023Y14719D01*
X12065Y14665D01*
X12119Y14623D01*
X12182Y14597D01*
X12250Y14588D01*
X12318Y14597D01*
X12381Y14623D01*
X12435Y14665D01*
X12477Y14719D01*
X12503Y14782D01*
X12512Y14850D01*
X12503Y14918D01*
X12477Y14981D01*
X12435Y15035D01*
X12381Y15077D01*
X12318Y15103D01*
X12250Y15112D01*
D02*
G37*
G36*
X19154Y20558D02*
X19086Y20549D01*
X19022Y20522D01*
X18968Y20481D01*
X18926Y20426D01*
X18900Y20363D01*
X18891Y20295D01*
X18900Y20227D01*
X18926Y20164D01*
X18958Y20123D01*
X18964Y20089D01*
X18958Y20054D01*
X18926Y20013D01*
X18900Y19950D01*
X18891Y19882D01*
X18900Y19814D01*
X18926Y19751D01*
X18968Y19696D01*
X19022Y19655D01*
X19086Y19629D01*
X19154Y19620D01*
X19221Y19629D01*
X19285Y19655D01*
X19339Y19696D01*
X19381Y19751D01*
X19407Y19814D01*
X19416Y19882D01*
X19407Y19950D01*
X19381Y20013D01*
X19349Y20054D01*
X19343Y20089D01*
X19349Y20123D01*
X19381Y20164D01*
X19407Y20227D01*
X19416Y20295D01*
X19407Y20363D01*
X19381Y20426D01*
X19339Y20481D01*
X19285Y20522D01*
X19221Y20549D01*
X19154Y20558D01*
D02*
G37*
G36*
X15850Y18692D02*
X15782Y18683D01*
X15719Y18657D01*
X15665Y18615D01*
X15623Y18561D01*
X15597Y18498D01*
X15588Y18430D01*
X15597Y18362D01*
X15623Y18299D01*
X15665Y18245D01*
X15719Y18203D01*
X15782Y18177D01*
X15850Y18168D01*
X15918Y18177D01*
X15981Y18203D01*
X16035Y18245D01*
X16077Y18299D01*
X16103Y18362D01*
X16112Y18430D01*
X16103Y18498D01*
X16077Y18561D01*
X16035Y18615D01*
X15981Y18657D01*
X15918Y18683D01*
X15850Y18692D01*
D02*
G37*
G36*
X14540Y19102D02*
X14472Y19093D01*
X14409Y19067D01*
X14355Y19025D01*
X14313Y18971D01*
X14287Y18908D01*
X14278Y18840D01*
X14287Y18772D01*
X14308Y18720D01*
X14287Y18668D01*
X14278Y18600D01*
X14287Y18532D01*
X14308Y18480D01*
X14287Y18428D01*
X14278Y18360D01*
X14287Y18292D01*
X14313Y18229D01*
X14355Y18175D01*
X14409Y18133D01*
X14472Y18107D01*
X14540Y18098D01*
X14608Y18107D01*
X14671Y18133D01*
X14725Y18175D01*
X14767Y18229D01*
X14770Y18236D01*
X14773Y18238D01*
X14826Y18241D01*
X14855Y18205D01*
X14909Y18163D01*
X14972Y18137D01*
X15040Y18128D01*
X15108Y18137D01*
X15151Y18155D01*
X15186Y18115D01*
X15167Y18068D01*
X15158Y18000D01*
X15167Y17932D01*
X15171Y17922D01*
X15159Y17906D01*
X15134Y17881D01*
X15072Y17873D01*
X15009Y17847D01*
X14955Y17805D01*
X14913Y17751D01*
X14887Y17688D01*
X14878Y17620D01*
X14887Y17552D01*
X14913Y17489D01*
X14955Y17435D01*
X15009Y17393D01*
X15072Y17367D01*
X15140Y17358D01*
X15208Y17367D01*
X15271Y17393D01*
X15325Y17435D01*
X15367Y17489D01*
X15393Y17552D01*
X15402Y17620D01*
X15393Y17688D01*
X15389Y17698D01*
X15401Y17714D01*
X15426Y17739D01*
X15488Y17747D01*
X15551Y17773D01*
X15605Y17815D01*
X15647Y17869D01*
X15673Y17932D01*
X15682Y18000D01*
X15673Y18068D01*
X15647Y18131D01*
X15605Y18185D01*
X15551Y18227D01*
X15488Y18253D01*
X15420Y18262D01*
X15352Y18253D01*
X15309Y18235D01*
X15274Y18275D01*
X15293Y18322D01*
X15302Y18390D01*
X15293Y18458D01*
X15267Y18521D01*
X15225Y18575D01*
X15171Y18617D01*
X15108Y18643D01*
X15040Y18652D01*
X14972Y18643D01*
X14909Y18617D01*
X14855Y18575D01*
X14848Y18567D01*
X14801Y18587D01*
X14802Y18600D01*
X14793Y18668D01*
X14772Y18720D01*
X14793Y18772D01*
X14802Y18840D01*
X14793Y18908D01*
X14767Y18971D01*
X14725Y19025D01*
X14671Y19067D01*
X14608Y19093D01*
X14540Y19102D01*
D02*
G37*
G36*
X15999Y17782D02*
X15931Y17773D01*
X15868Y17747D01*
X15814Y17705D01*
X15772Y17651D01*
X15746Y17588D01*
X15737Y17520D01*
X15746Y17452D01*
X15772Y17389D01*
X15814Y17334D01*
X15846Y17309D01*
Y15536D01*
X15803Y15493D01*
X15763Y15498D01*
X15695Y15490D01*
X15632Y15463D01*
X15577Y15422D01*
X15536Y15367D01*
X15510Y15304D01*
X15501Y15236D01*
X15510Y15168D01*
X15536Y15105D01*
X15577Y15051D01*
X15632Y15009D01*
X15695Y14983D01*
X15763Y14974D01*
X15831Y14983D01*
X15894Y15009D01*
X15948Y15051D01*
X15990Y15105D01*
X16016Y15168D01*
X16025Y15236D01*
X16020Y15277D01*
X16107Y15364D01*
X16140Y15414D01*
X16152Y15472D01*
Y17309D01*
X16184Y17334D01*
X16226Y17389D01*
X16252Y17452D01*
X16261Y17520D01*
X16252Y17588D01*
X16226Y17651D01*
X16184Y17705D01*
X16130Y17747D01*
X16067Y17773D01*
X15999Y17782D01*
D02*
G37*
G36*
X18322Y15774D02*
X18254Y15765D01*
X18191Y15739D01*
X18136Y15697D01*
X18095Y15643D01*
X18069Y15580D01*
X18060Y15512D01*
X18069Y15444D01*
X18095Y15381D01*
X18136Y15326D01*
X18191Y15285D01*
X18254Y15259D01*
X18322Y15250D01*
X18390Y15259D01*
X18453Y15285D01*
X18507Y15326D01*
X18549Y15381D01*
X18575Y15444D01*
X18584Y15512D01*
X18575Y15580D01*
X18549Y15643D01*
X18507Y15697D01*
X18453Y15739D01*
X18390Y15765D01*
X18322Y15774D01*
D02*
G37*
G36*
X16742Y14891D02*
X16674Y14882D01*
X16610Y14856D01*
X16556Y14814D01*
X16514Y14760D01*
X16488Y14697D01*
X16479Y14629D01*
X16488Y14561D01*
X16514Y14498D01*
X16556Y14443D01*
X16610Y14402D01*
X16674Y14376D01*
X16742Y14367D01*
X16809Y14376D01*
X16873Y14402D01*
X16927Y14443D01*
X16969Y14498D01*
X16995Y14561D01*
X17004Y14629D01*
X16995Y14697D01*
X16969Y14760D01*
X16927Y14814D01*
X16873Y14856D01*
X16809Y14882D01*
X16742Y14891D01*
D02*
G37*
G36*
X17402Y14081D02*
X17334Y14072D01*
X17270Y14046D01*
X17216Y14004D01*
X17174Y13950D01*
X17148Y13887D01*
X17139Y13819D01*
X17148Y13751D01*
X17174Y13688D01*
X17216Y13633D01*
X17270Y13592D01*
X17334Y13566D01*
X17402Y13557D01*
X17469Y13566D01*
X17533Y13592D01*
X17587Y13633D01*
X17629Y13688D01*
X17655Y13751D01*
X17664Y13819D01*
X17655Y13887D01*
X17629Y13950D01*
X17587Y14004D01*
X17533Y14046D01*
X17469Y14072D01*
X17402Y14081D01*
D02*
G37*
G36*
X14016Y14278D02*
X13948Y14269D01*
X13885Y14243D01*
X13830Y14201D01*
X13789Y14147D01*
X13762Y14084D01*
X13753Y14016D01*
X13762Y13948D01*
X13789Y13885D01*
X13830Y13830D01*
X13885Y13789D01*
X13948Y13762D01*
X14016Y13753D01*
X14084Y13762D01*
X14147Y13789D01*
X14176Y13811D01*
X14230Y13789D01*
X14235Y13751D01*
X14261Y13688D01*
X14303Y13633D01*
X14357Y13592D01*
X14420Y13566D01*
X14488Y13557D01*
X14556Y13566D01*
X14619Y13592D01*
X14674Y13633D01*
X14715Y13688D01*
X14741Y13751D01*
X14750Y13819D01*
X14741Y13887D01*
X14715Y13950D01*
X14674Y14004D01*
X14619Y14046D01*
X14556Y14072D01*
X14488Y14081D01*
X14420Y14072D01*
X14357Y14046D01*
X14327Y14023D01*
X14274Y14045D01*
X14269Y14084D01*
X14243Y14147D01*
X14201Y14201D01*
X14147Y14243D01*
X14084Y14269D01*
X14016Y14278D01*
D02*
G37*
G36*
X15354Y13727D02*
X15286Y13718D01*
X15223Y13692D01*
X15169Y13650D01*
X15127Y13596D01*
X15101Y13532D01*
X15092Y13465D01*
X15101Y13397D01*
X15127Y13333D01*
X15159Y13293D01*
X15142Y13249D01*
X15137Y13243D01*
X14351D01*
X14351Y13243D01*
X14283Y13234D01*
X14219Y13207D01*
X14165Y13166D01*
X14165Y13166D01*
X13791Y12792D01*
X13749Y12737D01*
X13723Y12674D01*
X13714Y12606D01*
X13714Y12606D01*
Y12106D01*
X13573Y11965D01*
X13112D01*
X13084Y11961D01*
X13004Y12042D01*
Y12752D01*
X13004Y12753D01*
X13054Y12783D01*
X13092Y12767D01*
X13160Y12758D01*
X13228Y12767D01*
X13291Y12793D01*
X13345Y12835D01*
X13387Y12889D01*
X13413Y12953D01*
X13422Y13020D01*
X13413Y13088D01*
X13387Y13152D01*
X13345Y13206D01*
X13291Y13248D01*
X13228Y13274D01*
X13225Y13274D01*
X13194Y13329D01*
X13206Y13357D01*
X13215Y13425D01*
X13206Y13493D01*
X13180Y13556D01*
X13138Y13611D01*
X13084Y13652D01*
X13021Y13678D01*
X12953Y13687D01*
X12885Y13678D01*
X12822Y13652D01*
X12767Y13611D01*
X12726Y13556D01*
X12699Y13493D01*
X12690Y13425D01*
X12691Y13425D01*
X12690Y13424D01*
X12677Y13361D01*
Y13110D01*
X12679Y13105D01*
Y12816D01*
X12677Y12810D01*
Y11974D01*
X12690Y11912D01*
X12725Y11859D01*
X12853Y11731D01*
X12850Y11703D01*
X12859Y11635D01*
X12885Y11572D01*
X12927Y11517D01*
X12981Y11476D01*
X13044Y11449D01*
X13112Y11441D01*
X13681D01*
X13681Y11441D01*
X13749Y11449D01*
X13813Y11476D01*
X13867Y11517D01*
X14162Y11812D01*
X14162Y11812D01*
X14203Y11866D01*
X14230Y11930D01*
X14239Y11998D01*
X14239Y11998D01*
Y12497D01*
X14459Y12718D01*
X14531D01*
X14548Y12668D01*
X14545Y12666D01*
X14503Y12611D01*
X14477Y12548D01*
X14468Y12480D01*
X14477Y12412D01*
X14503Y12349D01*
X14545Y12295D01*
X14599Y12253D01*
X14663Y12227D01*
X14731Y12218D01*
X14798Y12227D01*
X14862Y12253D01*
X14911Y12291D01*
X14916Y12290D01*
X14931Y12284D01*
X14955Y12264D01*
X14948Y12210D01*
X14957Y12142D01*
X14977Y12095D01*
X14975Y12066D01*
X14954Y12036D01*
X14909Y12017D01*
X14855Y11976D01*
X14813Y11921D01*
X14787Y11858D01*
X14778Y11790D01*
X14787Y11722D01*
X14813Y11659D01*
X14855Y11605D01*
X14909Y11563D01*
X14973Y11537D01*
X15041Y11528D01*
X15108Y11537D01*
X15172Y11563D01*
X15226Y11605D01*
X15268Y11659D01*
X15294Y11722D01*
X15303Y11790D01*
X15294Y11858D01*
X15274Y11906D01*
X15276Y11934D01*
X15297Y11965D01*
X15342Y11983D01*
X15396Y12025D01*
X15438Y12079D01*
X15464Y12142D01*
X15473Y12210D01*
X15464Y12278D01*
X15438Y12341D01*
X15396Y12396D01*
X15342Y12437D01*
X15278Y12464D01*
X15211Y12473D01*
X15143Y12464D01*
X15079Y12437D01*
X15030Y12400D01*
X15025Y12401D01*
X15010Y12407D01*
X14986Y12426D01*
X14993Y12480D01*
X14984Y12548D01*
X14958Y12611D01*
X14916Y12666D01*
X14913Y12668D01*
X14930Y12718D01*
X15096D01*
X15123Y12707D01*
X15191Y12698D01*
X15191Y12698D01*
X15464D01*
X15937Y12225D01*
X15937Y12225D01*
X15991Y12183D01*
X16055Y12157D01*
X16122Y12148D01*
X16122Y12148D01*
X16547D01*
X16591Y12099D01*
X16588Y12076D01*
X16597Y12008D01*
X16623Y11945D01*
X16665Y11891D01*
X16719Y11849D01*
X16782Y11823D01*
X16850Y11814D01*
X16918Y11823D01*
X16981Y11849D01*
X17036Y11891D01*
X17077Y11945D01*
X17104Y12008D01*
X17113Y12076D01*
X17104Y12144D01*
X17096Y12162D01*
X17130Y12212D01*
X17283D01*
X17371Y12229D01*
X17417Y12259D01*
X17469Y12266D01*
X17533Y12293D01*
X17587Y12334D01*
X17629Y12389D01*
X17655Y12452D01*
X17664Y12520D01*
X17655Y12588D01*
X17629Y12651D01*
X17587Y12705D01*
X17533Y12747D01*
X17469Y12773D01*
X17402Y12782D01*
X17334Y12773D01*
X17270Y12747D01*
X17266Y12744D01*
X17237Y12759D01*
X17223Y12773D01*
X17231Y12835D01*
X17222Y12903D01*
X17196Y12966D01*
X17154Y13020D01*
X17100Y13062D01*
X17036Y13088D01*
X16968Y13097D01*
X16901Y13088D01*
X16881Y13080D01*
X16828Y13099D01*
X16802Y13163D01*
X16760Y13217D01*
X16706Y13259D01*
X16643Y13285D01*
X16575Y13294D01*
X16507Y13285D01*
X16444Y13259D01*
X16389Y13217D01*
X16348Y13163D01*
X16321Y13099D01*
X16313Y13031D01*
X16321Y12964D01*
X16348Y12900D01*
X16389Y12846D01*
X16444Y12804D01*
X16507Y12778D01*
X16575Y12769D01*
X16643Y12778D01*
X16662Y12786D01*
X16715Y12767D01*
X16738Y12712D01*
X16718Y12662D01*
X16662D01*
X16658Y12664D01*
X16590Y12673D01*
X16231D01*
X15758Y13146D01*
X15704Y13187D01*
X15640Y13214D01*
X15573Y13223D01*
X15573Y13223D01*
X15548D01*
X15531Y13273D01*
X15540Y13279D01*
X15581Y13333D01*
X15608Y13397D01*
X15617Y13465D01*
X15608Y13532D01*
X15581Y13596D01*
X15540Y13650D01*
X15485Y13692D01*
X15422Y13718D01*
X15354Y13727D01*
D02*
G37*
G36*
X18522Y13341D02*
X18454Y13332D01*
X18390Y13306D01*
X18336Y13264D01*
X18294Y13210D01*
X18268Y13147D01*
X18259Y13079D01*
X18268Y13011D01*
X18294Y12948D01*
X18336Y12893D01*
X18390Y12852D01*
X18454Y12826D01*
X18522Y12817D01*
X18589Y12826D01*
X18653Y12852D01*
X18707Y12893D01*
X18749Y12948D01*
X18775Y13011D01*
X18784Y13079D01*
X18775Y13147D01*
X18749Y13210D01*
X18707Y13264D01*
X18653Y13306D01*
X18589Y13332D01*
X18522Y13341D01*
D02*
G37*
G36*
X19370Y12349D02*
X19231Y12330D01*
X19101Y12277D01*
X18990Y12191D01*
X18904Y12080D01*
X18851Y11950D01*
X18832Y11811D01*
X18851Y11672D01*
X18904Y11542D01*
X18990Y11431D01*
X19101Y11345D01*
X19231Y11292D01*
X19370Y11273D01*
X19509Y11292D01*
X19639Y11345D01*
X19750Y11431D01*
X19836Y11542D01*
X19889Y11672D01*
X19908Y11811D01*
X19889Y11950D01*
X19836Y12080D01*
X19750Y12191D01*
X19639Y12277D01*
X19509Y12330D01*
X19370Y12349D01*
D02*
G37*
%LPD*%
D36*
X11535Y14718D02*
Y19544D01*
X11320Y21421D02*
X12029Y22130D01*
X11320Y14590D02*
Y21421D01*
Y14590D02*
X11329Y14581D01*
Y12136D02*
Y14581D01*
X11610Y14643D02*
Y14710D01*
X19826Y26700D02*
X21063Y27937D01*
X19450Y26700D02*
X19826D01*
X19050Y25650D02*
X19193D01*
X19606Y25236D01*
X19125Y23710D02*
X19316Y23519D01*
X18720Y23710D02*
X19125D01*
X13092Y11722D02*
X13112Y11703D01*
Y11742D01*
X12555Y16995D02*
X13031Y17470D01*
X14418D01*
X15763Y15236D02*
X15999Y15472D01*
Y17520D01*
X14899Y16980D02*
Y16990D01*
X14418Y17470D02*
X14899Y16990D01*
X19016Y23189D02*
X19021Y23184D01*
X11329Y12136D02*
X11535Y11929D01*
X11944Y19952D02*
Y21196D01*
X11535Y19544D02*
X11944Y19952D01*
X12165Y21417D02*
X15709D01*
X11944Y21196D02*
X12165Y21417D01*
X14256Y22130D02*
X14764Y22638D01*
X18510Y22667D02*
Y22960D01*
X17953Y19567D02*
Y21503D01*
X19316Y22866D01*
Y23519D01*
X19016Y22820D02*
Y23189D01*
X18250Y21500D02*
X19606Y22856D01*
Y25236D01*
X13701Y20433D02*
X14383D01*
X14291Y20118D02*
X14418D01*
X12029Y22130D02*
X14256D01*
X17395Y21200D02*
X19016Y22820D01*
X16550Y21200D02*
X17395D01*
X16450Y21400D02*
X17243D01*
X18510Y22667D01*
X14383Y20433D02*
X15077Y21127D01*
X16177D01*
X16450Y21400D01*
X14418Y20118D02*
X15200Y20900D01*
X16250D01*
X16550Y21200D01*
X17480Y18307D02*
X18250Y19077D01*
Y21500D01*
D37*
X15000Y27800D02*
X15450Y27350D01*
X13650Y27800D02*
X15000D01*
X13157Y28293D02*
X13650Y27800D01*
X13157Y28293D02*
Y28937D01*
D39*
X17254Y24365D02*
Y24754D01*
X17068Y24179D02*
X17254Y24365D01*
X15573Y12960D02*
X16122Y12410D01*
X15191Y12960D02*
X15573D01*
X15171Y12980D02*
X15191Y12960D01*
X14351Y12980D02*
X15171D01*
X13976Y12606D02*
X14351Y12980D01*
X13976Y11998D02*
Y12606D01*
X13681Y11703D02*
X13976Y11998D01*
X13112Y11703D02*
X13681D01*
X11654Y20079D02*
Y21345D01*
X15010Y22250D02*
X16044D01*
X16408Y22614D01*
X11654Y21345D02*
X12126Y21817D01*
X16122Y12410D02*
X16590D01*
X12126Y21817D02*
X16424D01*
X17058Y22452D01*
D40*
X10930Y21678D02*
X12332Y23080D01*
X11130Y21524D02*
X11946Y22340D01*
X11130Y14511D02*
Y21524D01*
X10930Y14428D02*
Y21678D01*
Y14428D02*
X10934Y14424D01*
Y11752D02*
Y14424D01*
X11130Y14511D02*
X11134Y14507D01*
Y11700D02*
Y14507D01*
X18837Y28937D02*
X19063D01*
X18350Y28450D02*
X18837Y28937D01*
X16350Y28450D02*
X18350D01*
X16000Y28100D02*
X16350Y28450D01*
X16000Y26984D02*
Y28100D01*
X15394Y26378D02*
X16000Y26984D01*
X19961Y21850D02*
Y22283D01*
X12841Y13110D02*
Y13361D01*
X18720Y23710D02*
X18790Y23780D01*
X12841Y11974D02*
Y12810D01*
Y11974D02*
X13092Y11722D01*
X12904Y13425D02*
X12953D01*
X12841Y13361D02*
X12904Y13425D01*
X18858Y16732D02*
X19882D01*
X11134Y11700D02*
X11220Y11614D01*
X11946Y22340D02*
X13875D01*
X14390Y22854D01*
X12332Y23080D02*
X14094D01*
X14370Y23356D01*
X19882Y16732D02*
X20260Y17110D01*
Y21551D01*
X19961Y21850D02*
X20260Y21551D01*
X10920Y11490D02*
X10934Y11476D01*
X10920Y11490D02*
Y11738D01*
X10934Y11752D01*
Y11366D02*
Y11476D01*
Y11366D02*
X11080Y11220D01*
X11417D01*
D41*
X15746Y24774D02*
X15868Y24652D01*
X14567Y24833D02*
X15687D01*
D42*
X17855Y25852D02*
Y26905D01*
X19576Y28450D02*
X20063Y28937D01*
X18850Y28450D02*
X19576D01*
X18550Y28150D02*
X18850Y28450D01*
X18550Y27600D02*
Y28150D01*
X17855Y26905D02*
X18550Y27600D01*
X14238Y24825D02*
X14559D01*
X14567Y24833D01*
X17068Y24179D02*
Y24214D01*
X14411Y24652D02*
X15868D01*
X14238Y24825D02*
X14411Y24652D01*
X13138Y25925D02*
X14238Y24825D01*
X13138Y25925D02*
X13656D01*
X13926Y26195D01*
D43*
X17362Y12520D02*
X17402D01*
X16990Y12441D02*
X17283D01*
X17362Y12520D01*
D49*
X17058Y22452D02*
Y24169D01*
D60*
X10551Y27181D02*
D03*
X13157Y28937D02*
D03*
X12157D02*
D03*
X17063D02*
D03*
X19063D02*
D03*
X20063D02*
D03*
X21063Y27937D02*
D03*
Y28937D02*
D03*
X21102Y23614D02*
D03*
Y26614D02*
D03*
D62*
X12940Y14570D02*
D03*
X14670Y24060D02*
D03*
X12520Y15760D02*
D03*
X12860Y16320D02*
D03*
X12870Y16820D02*
D03*
X11650Y13840D02*
D03*
X11660Y12990D02*
D03*
X11980Y12260D02*
D03*
X16060Y11120D02*
D03*
X16920Y11140D02*
D03*
X17740Y11150D02*
D03*
X18070Y12580D02*
D03*
X17370Y13020D02*
D03*
X20510Y10990D02*
D03*
X20240Y13750D02*
D03*
X19060Y15280D02*
D03*
X20100Y15150D02*
D03*
Y16350D02*
D03*
X18420Y17270D02*
D03*
X19830Y17200D02*
D03*
X19800Y18920D02*
D03*
X19810Y20210D02*
D03*
X16720Y17940D02*
D03*
Y19030D02*
D03*
X11610Y14710D02*
D03*
X10630Y14400D02*
D03*
X19450Y26700D02*
D03*
X19050Y25650D02*
D03*
X15450Y27350D02*
D03*
X19961Y22283D02*
D03*
X14567Y24833D02*
D03*
X19124Y20870D02*
D03*
X16408Y22614D02*
D03*
X17478D02*
D03*
X19666Y13845D02*
D03*
X12059Y16920D02*
D03*
X13112Y11703D02*
D03*
X14238Y24825D02*
D03*
X14289Y24315D02*
D03*
X13926Y26195D02*
D03*
X13016Y25925D02*
D03*
X17068Y22594D02*
D03*
X15868Y24192D02*
D03*
Y24652D02*
D03*
X17855Y25852D02*
D03*
X17395D02*
D03*
X19055Y24179D02*
D03*
X14351Y12980D02*
D03*
X15191Y12960D02*
D03*
X14994Y27242D02*
D03*
X17254Y24754D02*
D03*
X11063Y25374D02*
D03*
X11142Y23258D02*
D03*
X13858Y22776D02*
D03*
X19055Y24639D02*
D03*
X14390Y22854D02*
D03*
X14370Y23356D02*
D03*
X15394Y26378D02*
D03*
X10817Y25207D02*
D03*
X10856Y23386D02*
D03*
X13630Y15729D02*
D03*
X12480Y16919D02*
D03*
X16830Y24780D02*
D03*
X18720Y23710D02*
D03*
X18510Y22960D02*
D03*
X21277Y10160D02*
D03*
X10160Y10167D02*
D03*
X18071Y22638D02*
D03*
X14567Y25512D02*
D03*
X10827Y24843D02*
D03*
Y24331D02*
D03*
Y23819D02*
D03*
X11890Y23780D02*
D03*
Y24567D02*
D03*
X10354Y21772D02*
D03*
Y22165D02*
D03*
X21336Y18500D02*
D03*
X20870Y17230D02*
D03*
Y19124D02*
D03*
Y16762D02*
D03*
X21336Y15723D02*
D03*
X20870Y14868D02*
D03*
Y14400D02*
D03*
X21336Y12945D02*
D03*
X20870Y12506D02*
D03*
X14200Y20730D02*
D03*
X20876Y19604D02*
D03*
X19506Y20876D02*
D03*
X10160Y12945D02*
D03*
X10630Y12506D02*
D03*
Y16762D02*
D03*
X10160Y15723D02*
D03*
X10630Y14868D02*
D03*
Y19124D02*
D03*
X10160Y18500D02*
D03*
X10630Y17230D02*
D03*
X10256Y20925D02*
D03*
X10630Y19644D02*
D03*
X20866Y12006D02*
D03*
X19644Y10630D02*
D03*
X19124D02*
D03*
X18500Y10160D02*
D03*
X17230Y10630D02*
D03*
X16762D02*
D03*
X14868D02*
D03*
X15723Y10160D02*
D03*
X10630Y12010D02*
D03*
X12020Y10630D02*
D03*
X14400D02*
D03*
X12506D02*
D03*
X12945Y10160D02*
D03*
X15763Y15236D02*
D03*
X15290Y16102D02*
D03*
X15999Y17520D02*
D03*
X17023Y16378D02*
D03*
X17015Y16071D02*
D03*
X14899Y16980D02*
D03*
X14488Y16968D02*
D03*
X11417Y11220D02*
D03*
X11220Y11614D02*
D03*
X11535Y11929D02*
D03*
X14803Y11339D02*
D03*
X12953Y13425D02*
D03*
X13976Y13583D02*
D03*
X15551Y13937D02*
D03*
X17402Y12520D02*
D03*
X18371Y14621D02*
D03*
X17598Y17795D02*
D03*
X18780Y18858D02*
D03*
X19843Y18189D02*
D03*
X18858Y16732D02*
D03*
X19021Y23184D02*
D03*
X14291Y20118D02*
D03*
X13819Y20433D02*
D03*
X17953Y19567D02*
D03*
X17480Y18307D02*
D03*
X11654Y20394D02*
D03*
X11654Y20079D02*
D03*
X12126Y19724D02*
D03*
X15709Y21417D02*
D03*
X14764Y22638D02*
D03*
X15010Y22250D02*
D03*
X21336Y20800D02*
D03*
X15932Y13578D02*
D03*
X17323Y12037D02*
D03*
X16590Y12410D02*
D03*
X15200Y11350D02*
D03*
X17230Y20870D02*
D03*
X16762D02*
D03*
X13527Y17017D02*
D03*
X14230Y16960D02*
D03*
X13990D02*
D03*
X14540Y18360D02*
D03*
Y18600D02*
D03*
Y18840D02*
D03*
D63*
X16770Y12441D02*
D03*
X16930D02*
D03*
D64*
X12841Y12870D02*
D03*
Y13030D02*
D03*
D65*
X17058Y24169D02*
X17068Y24179D01*
X17835D02*
X19055D01*
X17068D02*
X17835D01*
X17855Y24200D01*
Y25852D01*
X15984Y24774D02*
X16579Y24179D01*
X15746Y24774D02*
X15984D01*
X16579Y24179D02*
X17068D01*
D66*
X16820Y12440D02*
D03*
M02*
