G04 Layer_Color=8388736*
%FSLAX24Y24*%
%MOIN*%
G70*
G01*
G75*
%ADD88R,0.0434X0.0434*%
%ADD89R,0.0533X0.0789*%
%ADD90R,0.0454X0.0474*%
%ADD91O,0.0671X0.0257*%
%ADD92R,0.0434X0.0434*%
%ADD93R,0.0257X0.0257*%
%ADD94R,0.0198X0.0257*%
%ADD95O,0.0237X0.0552*%
%ADD96O,0.0297X0.0651*%
%ADD97O,0.0651X0.0297*%
%ADD98O,0.0848X0.0237*%
%ADD99O,0.0631X0.0257*%
%ADD100R,0.0741X0.0820*%
%ADD101O,0.0513X0.0200*%
%ADD102R,0.0926X0.0356*%
%ADD103R,0.0926X0.1438*%
%ADD104R,0.0789X0.0867*%
%ADD105R,0.0474X0.0454*%
%ADD106R,0.0749X0.0513*%
%ADD107R,0.0324X0.0560*%
%ADD108R,0.0474X0.1576*%
%ADD109R,0.1486X0.0474*%
%ADD110R,0.0474X0.1486*%
%ADD111R,0.0474X0.1356*%
%ADD112R,0.1356X0.0474*%
%ADD113R,0.1576X0.0474*%
%ADD114R,0.0671X0.0671*%
%ADD115C,0.0671*%
%ADD116R,0.0671X0.0671*%
%ADD117C,0.0080*%
%ADD118C,0.0400*%
D88*
X17638Y27087D02*
D03*
X18346D02*
D03*
X17913Y14803D02*
D03*
X17205D02*
D03*
X16102Y21417D02*
D03*
X16811D02*
D03*
X12954Y27950D02*
D03*
X12246D02*
D03*
X15906Y27953D02*
D03*
X15197D02*
D03*
X12048Y25952D02*
D03*
X11339D02*
D03*
X14754Y27950D02*
D03*
X14046D02*
D03*
X17180Y17087D02*
D03*
X17889D02*
D03*
X16708D02*
D03*
X15999D02*
D03*
X19843Y17795D02*
D03*
X19134D02*
D03*
X17953D02*
D03*
X18661D02*
D03*
D89*
X15413Y18622D02*
D03*
X14114D02*
D03*
D90*
X19666Y14289D02*
D03*
X18957D02*
D03*
X11464Y18040D02*
D03*
X12173D02*
D03*
X17220Y15315D02*
D03*
X17928D02*
D03*
X16865D02*
D03*
X16157D02*
D03*
X14646Y14291D02*
D03*
X13937D02*
D03*
X15000Y17992D02*
D03*
X14291D02*
D03*
X15709Y14291D02*
D03*
X15000D02*
D03*
D91*
X16784Y14293D02*
D03*
Y14037D02*
D03*
Y13781D02*
D03*
Y13525D02*
D03*
X18379Y14293D02*
D03*
Y14037D02*
D03*
Y13781D02*
D03*
Y13525D02*
D03*
D92*
X18952Y13165D02*
D03*
Y13873D02*
D03*
X15608Y15965D02*
D03*
Y16673D02*
D03*
X18401Y16022D02*
D03*
Y16730D02*
D03*
D93*
X12539Y18200D02*
D03*
X13169D02*
D03*
Y17875D02*
D03*
X12539D02*
D03*
D94*
X12949Y18200D02*
D03*
X12759D02*
D03*
Y17875D02*
D03*
X12949D02*
D03*
D95*
X14806Y17452D02*
D03*
X14550D02*
D03*
X14294D02*
D03*
X14039D02*
D03*
X13783D02*
D03*
X13527D02*
D03*
X13271D02*
D03*
X13015D02*
D03*
X12759D02*
D03*
X12503D02*
D03*
X12247D02*
D03*
X11991D02*
D03*
X14806Y15207D02*
D03*
X14550D02*
D03*
X14294D02*
D03*
X14039D02*
D03*
X13783D02*
D03*
X13527D02*
D03*
X13271D02*
D03*
X13015D02*
D03*
X12759D02*
D03*
X12503D02*
D03*
X12247D02*
D03*
X11991D02*
D03*
D96*
X15887Y22053D02*
D03*
X16202D02*
D03*
X16517D02*
D03*
X16832D02*
D03*
X17147D02*
D03*
X17462D02*
D03*
X17777D02*
D03*
X18092D02*
D03*
X18407D02*
D03*
X18722D02*
D03*
X19037D02*
D03*
Y26463D02*
D03*
X18722D02*
D03*
X18407D02*
D03*
X18092D02*
D03*
X17777D02*
D03*
X17462D02*
D03*
X17147D02*
D03*
X16832D02*
D03*
X16517D02*
D03*
X16202D02*
D03*
X15887D02*
D03*
D97*
X19666Y22683D02*
D03*
Y22998D02*
D03*
Y23313D02*
D03*
Y23628D02*
D03*
Y23943D02*
D03*
Y24258D02*
D03*
Y24573D02*
D03*
Y24888D02*
D03*
Y25203D02*
D03*
Y25518D02*
D03*
Y25833D02*
D03*
X15257D02*
D03*
Y25518D02*
D03*
Y25203D02*
D03*
Y24888D02*
D03*
Y24573D02*
D03*
Y24258D02*
D03*
Y23943D02*
D03*
Y23628D02*
D03*
Y23313D02*
D03*
Y22998D02*
D03*
Y22683D02*
D03*
D98*
X13841Y26544D02*
D03*
Y26794D02*
D03*
Y27044D02*
D03*
Y27294D02*
D03*
X12010Y26544D02*
D03*
Y26794D02*
D03*
Y27044D02*
D03*
Y27294D02*
D03*
D99*
X13698Y13238D02*
D03*
Y12982D02*
D03*
Y12726D02*
D03*
Y12470D02*
D03*
Y12215D02*
D03*
Y11959D02*
D03*
Y11703D02*
D03*
X16021Y13238D02*
D03*
Y12982D02*
D03*
Y12726D02*
D03*
Y12470D02*
D03*
Y12215D02*
D03*
Y11959D02*
D03*
Y11703D02*
D03*
D100*
X17018Y16179D02*
D03*
D101*
X16132Y16573D02*
D03*
Y16376D02*
D03*
Y16179D02*
D03*
Y15982D02*
D03*
Y15785D02*
D03*
X17904Y16573D02*
D03*
Y16376D02*
D03*
Y16179D02*
D03*
Y15982D02*
D03*
Y15785D02*
D03*
D102*
X13546Y23311D02*
D03*
Y23813D02*
D03*
Y24315D02*
D03*
Y24827D02*
D03*
Y25329D02*
D03*
D103*
X11105Y24335D02*
D03*
D104*
X10955Y21978D02*
D03*
X14026D02*
D03*
D105*
X14536Y26531D02*
D03*
Y27239D02*
D03*
X13543Y14291D02*
D03*
Y13583D02*
D03*
D106*
X19134Y17303D02*
D03*
Y16004D02*
D03*
D107*
X18406Y18303D02*
D03*
Y19335D02*
D03*
X18780D02*
D03*
Y18303D02*
D03*
X19154Y19335D02*
D03*
Y18303D02*
D03*
D108*
X10630Y13453D02*
D03*
Y15815D02*
D03*
Y18177D02*
D03*
X20870D02*
D03*
Y15815D02*
D03*
Y13453D02*
D03*
D109*
X11136Y10630D02*
D03*
Y20870D02*
D03*
X20364D02*
D03*
D110*
X10630Y11136D02*
D03*
X20870D02*
D03*
D111*
X10630Y20429D02*
D03*
X20870D02*
D03*
D112*
X20429Y10630D02*
D03*
D113*
X18177D02*
D03*
X15815D02*
D03*
X13453D02*
D03*
Y20870D02*
D03*
X15815D02*
D03*
X18177D02*
D03*
D114*
X10551Y26181D02*
D03*
X21102Y21614D02*
D03*
D115*
X10551Y27181D02*
D03*
X14157Y28937D02*
D03*
X13157D02*
D03*
X12157D02*
D03*
X17063D02*
D03*
X18063Y27937D02*
D03*
Y28937D02*
D03*
X19063Y27937D02*
D03*
Y28937D02*
D03*
X20063Y27937D02*
D03*
Y28937D02*
D03*
X21063Y27937D02*
D03*
Y28937D02*
D03*
X21102Y22614D02*
D03*
Y23614D02*
D03*
Y24614D02*
D03*
Y25614D02*
D03*
Y26614D02*
D03*
D116*
X15157Y28937D02*
D03*
X17063Y27937D02*
D03*
D117*
X10630Y28740D02*
D03*
X19370Y11811D02*
D03*
D118*
X12940Y14570D02*
D03*
X14670Y24060D02*
D03*
X12520Y15760D02*
D03*
X12860Y16320D02*
D03*
X12870Y16820D02*
D03*
X11650Y13840D02*
D03*
X11660Y12990D02*
D03*
X11980Y12260D02*
D03*
X16060Y11120D02*
D03*
X16920Y11140D02*
D03*
X17740Y11150D02*
D03*
X18070Y12580D02*
D03*
X17370Y13020D02*
D03*
X20510Y10990D02*
D03*
X20240Y13750D02*
D03*
X19060Y15280D02*
D03*
X20100Y15150D02*
D03*
Y16350D02*
D03*
X18420Y17270D02*
D03*
X19830Y17200D02*
D03*
X19800Y18920D02*
D03*
X19810Y20210D02*
D03*
X16720Y17940D02*
D03*
Y19030D02*
D03*
X11610Y14710D02*
D03*
X10630Y14400D02*
D03*
X12250Y14850D02*
D03*
X19450Y26700D02*
D03*
X19050Y25650D02*
D03*
X15450Y27350D02*
D03*
X12650Y28550D02*
D03*
X19961Y22283D02*
D03*
X18858Y25236D02*
D03*
X18425Y25669D02*
D03*
X14567Y24833D02*
D03*
X19124Y20870D02*
D03*
X16408Y22614D02*
D03*
X17478D02*
D03*
X19666Y13845D02*
D03*
X18522Y13079D02*
D03*
X16742Y14629D02*
D03*
X17402Y13819D02*
D03*
X12059Y16920D02*
D03*
X13112Y11703D02*
D03*
X14288Y23815D02*
D03*
X12888Y22645D02*
D03*
X12128Y24905D02*
D03*
X14238Y24825D02*
D03*
X14289Y24315D02*
D03*
X11336Y26675D02*
D03*
X11326Y27175D02*
D03*
X13926Y26195D02*
D03*
X13016Y25925D02*
D03*
X17068Y22594D02*
D03*
X15868Y24192D02*
D03*
Y24652D02*
D03*
X17855Y25852D02*
D03*
X17395D02*
D03*
X19055Y24179D02*
D03*
X15041Y11790D02*
D03*
X15211Y12210D02*
D03*
X14351Y12980D02*
D03*
X15191Y12960D02*
D03*
X14731Y12480D02*
D03*
X14994Y27242D02*
D03*
X17254Y24754D02*
D03*
X11063Y25374D02*
D03*
X11142Y23258D02*
D03*
X13858Y22776D02*
D03*
X19055Y24639D02*
D03*
X14390Y22854D02*
D03*
X14370Y23356D02*
D03*
X16073Y25374D02*
D03*
X15394Y26378D02*
D03*
X10817Y25207D02*
D03*
X10856Y23386D02*
D03*
X13630Y15729D02*
D03*
X12480Y16919D02*
D03*
X11750Y25520D02*
D03*
X16830Y24780D02*
D03*
X18720Y23710D02*
D03*
X18510Y22960D02*
D03*
X13160Y13020D02*
D03*
X21277Y10160D02*
D03*
X10160Y10167D02*
D03*
X18071Y22638D02*
D03*
X14567Y25512D02*
D03*
X10827Y24843D02*
D03*
Y24331D02*
D03*
Y23819D02*
D03*
X11890Y23780D02*
D03*
Y24567D02*
D03*
X10354Y21772D02*
D03*
Y22165D02*
D03*
X21336Y18500D02*
D03*
X20870Y17230D02*
D03*
Y19124D02*
D03*
Y16762D02*
D03*
X21336Y15723D02*
D03*
X20870Y14868D02*
D03*
Y14400D02*
D03*
X21336Y12945D02*
D03*
X20870Y12506D02*
D03*
X14200Y20730D02*
D03*
X20876Y19604D02*
D03*
X19506Y20876D02*
D03*
X10160Y12945D02*
D03*
X10630Y12506D02*
D03*
Y16762D02*
D03*
X10160Y15723D02*
D03*
X10630Y14868D02*
D03*
Y19124D02*
D03*
X10160Y18500D02*
D03*
X10630Y17230D02*
D03*
X10256Y20925D02*
D03*
X10630Y19644D02*
D03*
X20866Y12006D02*
D03*
X19644Y10630D02*
D03*
X19124D02*
D03*
X18500Y10160D02*
D03*
X17230Y10630D02*
D03*
X16762D02*
D03*
X14868D02*
D03*
X15723Y10160D02*
D03*
X10630Y12010D02*
D03*
X12020Y10630D02*
D03*
X14400D02*
D03*
X12506D02*
D03*
X12945Y10160D02*
D03*
X15763Y15236D02*
D03*
X18322Y15512D02*
D03*
X15290Y16673D02*
D03*
Y16102D02*
D03*
X15999Y17520D02*
D03*
X17023Y16378D02*
D03*
X17015Y16071D02*
D03*
X14899Y16980D02*
D03*
X14488Y16968D02*
D03*
X15354Y13465D02*
D03*
X14488Y13819D02*
D03*
X11417Y11220D02*
D03*
X11220Y11614D02*
D03*
X11535Y11929D02*
D03*
X14803Y11339D02*
D03*
X12953Y13425D02*
D03*
X13976Y13583D02*
D03*
X14016Y14016D02*
D03*
X15551Y13937D02*
D03*
X17402Y12520D02*
D03*
X18371Y14621D02*
D03*
X17598Y17795D02*
D03*
X18780Y18858D02*
D03*
X19154Y20295D02*
D03*
Y19882D02*
D03*
X19843Y18189D02*
D03*
X18858Y16732D02*
D03*
X19021Y23184D02*
D03*
X14291Y20118D02*
D03*
X13819Y20433D02*
D03*
X17953Y19567D02*
D03*
X17480Y18307D02*
D03*
X12165Y18543D02*
D03*
X11654Y20394D02*
D03*
X11654Y20079D02*
D03*
X12126Y19724D02*
D03*
X15709Y21417D02*
D03*
X14764Y22638D02*
D03*
X15010Y22250D02*
D03*
X21336Y20800D02*
D03*
X15932Y13578D02*
D03*
X16575Y13031D02*
D03*
X17323Y12037D02*
D03*
X16850Y12076D02*
D03*
X16968Y12835D02*
D03*
X16590Y12410D02*
D03*
X15200Y11350D02*
D03*
X17230Y20870D02*
D03*
X16762D02*
D03*
X13527Y17017D02*
D03*
X14230Y16960D02*
D03*
X13990D02*
D03*
X15420Y18000D02*
D03*
X15850Y18430D02*
D03*
X15140Y17620D02*
D03*
X15040Y18390D02*
D03*
X14540Y18360D02*
D03*
Y18600D02*
D03*
Y18840D02*
D03*
M02*
