G04 Layer_Color=16711935*
%FSLAX24Y24*%
%MOIN*%
G70*
G01*
G75*
%ADD86C,0.0039*%
D86*
X17503Y14184D02*
G03*
X17503Y14184I-197J0D01*
G01*
X12395Y15798D02*
G03*
X12395Y15798I-197J0D01*
G01*
X16044Y22644D02*
G03*
X16044Y22644I-197J0D01*
G01*
X17471Y15923D02*
G03*
X17471Y15923I-197J0D01*
G01*
X14525Y13120D02*
G03*
X14525Y13120I-197J0D01*
G01*
X14901Y16874D02*
G03*
X14901Y16874I-197J0D01*
G01*
X16952Y13279D02*
Y14539D01*
X18211Y13279D02*
Y14539D01*
X16952D02*
X18211D01*
X16952Y13279D02*
X18211D01*
X14954Y15444D02*
Y17215D01*
X11844Y15444D02*
Y17215D01*
X14954D01*
X11844Y15444D02*
X14954D01*
X15493Y22289D02*
X19430D01*
X15493Y26226D02*
X19430D01*
X15493Y22289D02*
Y26226D01*
X19430Y22289D02*
Y26226D01*
X16408Y16789D02*
X17628D01*
X16408Y15569D02*
X17628D01*
X16408D02*
Y16789D01*
X17628Y15569D02*
Y16789D01*
X13974Y11467D02*
Y13474D01*
X15746Y11467D02*
Y13474D01*
X13974D02*
X15746D01*
X13974Y11467D02*
X15746D01*
X11309Y22569D02*
X13671D01*
X11309Y21388D02*
X13671D01*
X11309D02*
Y22569D01*
X13671Y21388D02*
Y22569D01*
X13799Y16520D02*
Y17779D01*
X15059Y16520D02*
Y17779D01*
X13799D02*
X15059D01*
X13799Y16520D02*
X15059D01*
M02*
