G04 Layer_Color=32768*
%FSLAX24Y24*%
%MOIN*%
G70*
G01*
G75*
%ADD85C,0.0079*%
%ADD86C,0.0039*%
%ADD127C,0.0020*%
D85*
X10428Y22957D02*
Y25713D01*
X14097D01*
Y22957D02*
Y25713D01*
X10428Y22957D02*
X14097D01*
D86*
X17385Y13909D02*
X17778D01*
X17582Y13712D02*
Y14106D01*
X13202Y16330D02*
X13596D01*
X13399Y16133D02*
Y16526D01*
X17462Y24061D02*
Y24455D01*
X17265Y24258D02*
X17659D01*
X17018Y15982D02*
Y16376D01*
X16821Y16179D02*
X17215D01*
X14663Y12470D02*
X15057D01*
X14860Y12274D02*
Y12667D01*
X12490Y21781D02*
Y22175D01*
X12293Y21978D02*
X12687D01*
X14232Y17150D02*
X14626D01*
X14429Y16953D02*
Y17346D01*
D127*
X16450Y13240D02*
Y14578D01*
X18713Y13240D02*
Y14578D01*
X16450D02*
X18713D01*
X16450Y13240D02*
X18713D01*
X14993Y14942D02*
Y17717D01*
X11804Y14942D02*
Y17717D01*
X14993D01*
X11804Y14942D02*
X14993D01*
X14942Y21738D02*
X19981D01*
X14942Y26778D02*
X19981D01*
X14942Y21738D02*
Y26778D01*
X19981Y21738D02*
Y26778D01*
X15915Y16829D02*
X18120D01*
X15915Y15529D02*
X18120D01*
X15915D02*
Y16829D01*
X18120Y15529D02*
Y16829D01*
X13324Y11368D02*
Y13573D01*
X16395Y11368D02*
Y13573D01*
X13324D02*
X16395D01*
X13324Y11368D02*
X16395D01*
X10490Y22628D02*
X14490D01*
X10490Y21329D02*
X14490D01*
X10490D02*
Y22628D01*
X14490Y21329D02*
Y22628D01*
X13760Y16018D02*
Y18281D01*
X15098Y16018D02*
Y18281D01*
X13760D02*
X15098D01*
X13760Y16018D02*
X15098D01*
M02*
