G04 Layer_Color=16711935*
%FSLAX24Y24*%
%MOIN*%
G70*
G01*
G75*
%ADD88R,0.0434X0.0434*%
%ADD89R,0.0533X0.0789*%
%ADD90R,0.0454X0.0474*%
%ADD92R,0.0434X0.0434*%
%ADD105R,0.0474X0.0454*%
%ADD107R,0.0324X0.0560*%
%ADD108R,0.0474X0.1576*%
%ADD109R,0.1486X0.0474*%
%ADD110R,0.0474X0.1486*%
%ADD111R,0.0474X0.1356*%
%ADD112R,0.1356X0.0474*%
%ADD113R,0.1576X0.0474*%
%ADD114R,0.0671X0.0671*%
%ADD115C,0.0671*%
%ADD116R,0.0671X0.0671*%
%ADD117C,0.0080*%
%ADD118C,0.0400*%
%ADD119R,0.0257X0.0257*%
%ADD120R,0.0257X0.0198*%
%ADD121R,0.0560X0.0324*%
%ADD122R,0.0730X0.0198*%
%ADD123R,0.0789X0.0533*%
%ADD124O,0.0257X0.0671*%
%ADD125R,0.0513X0.0749*%
%ADD126R,0.0434X0.0395*%
D88*
X16084Y25814D02*
D03*
X16792D02*
D03*
X16842Y23104D02*
D03*
X16134D02*
D03*
X16842Y23574D02*
D03*
X16134D02*
D03*
X17992D02*
D03*
X17284D02*
D03*
X18386Y24724D02*
D03*
X17677D02*
D03*
Y25197D02*
D03*
X18386D02*
D03*
X12793Y24265D02*
D03*
X12084D02*
D03*
X12184Y23055D02*
D03*
X12893D02*
D03*
D89*
X11539Y24875D02*
D03*
X12838D02*
D03*
X11589Y23665D02*
D03*
X12888D02*
D03*
D90*
X17684Y24244D02*
D03*
X18392D02*
D03*
X17284Y23104D02*
D03*
X17992D02*
D03*
X17167Y14629D02*
D03*
X17876D02*
D03*
X17642Y22064D02*
D03*
X16934D02*
D03*
X17323Y11643D02*
D03*
X16614D02*
D03*
X12254Y16050D02*
D03*
X11546D02*
D03*
X14064Y15750D02*
D03*
X14773D02*
D03*
X13974Y15230D02*
D03*
X14683D02*
D03*
X17274Y26454D02*
D03*
X17982D02*
D03*
D92*
X16552Y13495D02*
D03*
Y14203D02*
D03*
X13328Y24969D02*
D03*
Y24260D02*
D03*
X12526Y26669D02*
D03*
Y25961D02*
D03*
X12536Y27121D02*
D03*
Y27829D02*
D03*
X13189Y19892D02*
D03*
Y19183D02*
D03*
X11457Y19528D02*
D03*
Y18819D02*
D03*
X14921Y13622D02*
D03*
Y14331D02*
D03*
X13543Y13622D02*
D03*
Y14331D02*
D03*
X19646Y22913D02*
D03*
Y23622D02*
D03*
D105*
X13336Y26511D02*
D03*
Y27219D02*
D03*
X19628Y24769D02*
D03*
Y24060D02*
D03*
X15258D02*
D03*
Y24769D02*
D03*
X13468Y23100D02*
D03*
Y23809D02*
D03*
X13778Y24270D02*
D03*
Y24979D02*
D03*
X12036Y25951D02*
D03*
Y26659D02*
D03*
X12066Y27839D02*
D03*
Y27131D02*
D03*
D107*
X16484Y24239D02*
D03*
Y25270D02*
D03*
X16858Y24239D02*
D03*
Y25270D02*
D03*
X17232D02*
D03*
Y24239D02*
D03*
X12697Y19218D02*
D03*
Y20250D02*
D03*
X12323D02*
D03*
Y19218D02*
D03*
X11949Y20250D02*
D03*
Y19218D02*
D03*
D108*
X20870Y18177D02*
D03*
Y15815D02*
D03*
Y13453D02*
D03*
X10630D02*
D03*
Y15815D02*
D03*
Y18177D02*
D03*
D109*
X11136Y20870D02*
D03*
Y10630D02*
D03*
D110*
X20870Y20364D02*
D03*
Y11136D02*
D03*
X10630D02*
D03*
D111*
Y20429D02*
D03*
D112*
X20429Y20870D02*
D03*
Y10630D02*
D03*
D113*
X13453Y20870D02*
D03*
X15815D02*
D03*
X18177D02*
D03*
Y10630D02*
D03*
X15815D02*
D03*
X13453D02*
D03*
D114*
X10551Y26181D02*
D03*
X21102Y21614D02*
D03*
D115*
X10551Y27181D02*
D03*
X14157Y28937D02*
D03*
X13157D02*
D03*
X12157D02*
D03*
X17063D02*
D03*
X18063Y27937D02*
D03*
Y28937D02*
D03*
X19063Y27937D02*
D03*
Y28937D02*
D03*
X20063Y27937D02*
D03*
Y28937D02*
D03*
X21063Y27937D02*
D03*
Y28937D02*
D03*
X21102Y22614D02*
D03*
Y23614D02*
D03*
Y24614D02*
D03*
Y25614D02*
D03*
Y26614D02*
D03*
D116*
X15157Y28937D02*
D03*
X17063Y27937D02*
D03*
D117*
X10630Y28740D02*
D03*
X19370Y11811D02*
D03*
D118*
X12940Y14570D02*
D03*
X14670Y24060D02*
D03*
X12520Y15760D02*
D03*
X12860Y16320D02*
D03*
X12870Y16820D02*
D03*
X11650Y13840D02*
D03*
X11660Y12990D02*
D03*
X11980Y12260D02*
D03*
X16060Y11120D02*
D03*
X16920Y11140D02*
D03*
X17740Y11150D02*
D03*
X18070Y12580D02*
D03*
X17370Y13020D02*
D03*
X20510Y10990D02*
D03*
X20240Y13750D02*
D03*
X19060Y15280D02*
D03*
X20100Y15150D02*
D03*
Y16350D02*
D03*
X18420Y17270D02*
D03*
X19830Y17200D02*
D03*
X19800Y18920D02*
D03*
X19810Y20210D02*
D03*
X16720Y17940D02*
D03*
Y19030D02*
D03*
X11610Y14710D02*
D03*
X10630Y14400D02*
D03*
X12250Y14850D02*
D03*
X19450Y26700D02*
D03*
X19050Y25650D02*
D03*
X15450Y27350D02*
D03*
X12650Y28550D02*
D03*
X19961Y22283D02*
D03*
X18858Y25236D02*
D03*
X18425Y25669D02*
D03*
X14567Y24833D02*
D03*
X19124Y20870D02*
D03*
X16408Y22614D02*
D03*
X17478D02*
D03*
X19666Y13845D02*
D03*
X18522Y13079D02*
D03*
X16742Y14629D02*
D03*
X17402Y13819D02*
D03*
X12059Y16920D02*
D03*
X13112Y11703D02*
D03*
X14288Y23815D02*
D03*
X12888Y22645D02*
D03*
X12128Y24905D02*
D03*
X14238Y24825D02*
D03*
X14289Y24315D02*
D03*
X11336Y26675D02*
D03*
X11326Y27175D02*
D03*
X13926Y26195D02*
D03*
X13016Y25925D02*
D03*
X17068Y22594D02*
D03*
X15868Y24192D02*
D03*
Y24652D02*
D03*
X17855Y25852D02*
D03*
X17395D02*
D03*
X19055Y24179D02*
D03*
X15041Y11790D02*
D03*
X15211Y12210D02*
D03*
X14351Y12980D02*
D03*
X15191Y12960D02*
D03*
X14731Y12480D02*
D03*
X14994Y27242D02*
D03*
X17254Y24754D02*
D03*
X11063Y25374D02*
D03*
X11142Y23258D02*
D03*
X13858Y22776D02*
D03*
X19055Y24639D02*
D03*
X14390Y22854D02*
D03*
X14370Y23356D02*
D03*
X16073Y25374D02*
D03*
X15394Y26378D02*
D03*
X10817Y25207D02*
D03*
X10856Y23386D02*
D03*
X13630Y15729D02*
D03*
X12480Y16919D02*
D03*
X11750Y25520D02*
D03*
X16830Y24780D02*
D03*
X18720Y23710D02*
D03*
X18510Y22960D02*
D03*
X13160Y13020D02*
D03*
X21277Y10160D02*
D03*
X10160Y10167D02*
D03*
X18071Y22638D02*
D03*
X14567Y25512D02*
D03*
X10827Y24843D02*
D03*
Y24331D02*
D03*
Y23819D02*
D03*
X11890Y23780D02*
D03*
Y24567D02*
D03*
X10354Y21772D02*
D03*
Y22165D02*
D03*
X21336Y18500D02*
D03*
X20870Y17230D02*
D03*
Y19124D02*
D03*
Y16762D02*
D03*
X21336Y15723D02*
D03*
X20870Y14868D02*
D03*
Y14400D02*
D03*
X21336Y12945D02*
D03*
X20870Y12506D02*
D03*
X14200Y20730D02*
D03*
X20876Y19604D02*
D03*
X19506Y20876D02*
D03*
X10160Y12945D02*
D03*
X10630Y12506D02*
D03*
Y16762D02*
D03*
X10160Y15723D02*
D03*
X10630Y14868D02*
D03*
Y19124D02*
D03*
X10160Y18500D02*
D03*
X10630Y17230D02*
D03*
X10256Y20925D02*
D03*
X10630Y19644D02*
D03*
X20866Y12006D02*
D03*
X19644Y10630D02*
D03*
X19124D02*
D03*
X18500Y10160D02*
D03*
X17230Y10630D02*
D03*
X16762D02*
D03*
X14868D02*
D03*
X15723Y10160D02*
D03*
X10630Y12010D02*
D03*
X12020Y10630D02*
D03*
X14400D02*
D03*
X12506D02*
D03*
X12945Y10160D02*
D03*
X15763Y15236D02*
D03*
X18322Y15512D02*
D03*
X15290Y16673D02*
D03*
Y16102D02*
D03*
X15999Y17520D02*
D03*
X17023Y16378D02*
D03*
X17015Y16071D02*
D03*
X14899Y16980D02*
D03*
X14488Y16968D02*
D03*
X15354Y13465D02*
D03*
X14488Y13819D02*
D03*
X11417Y11220D02*
D03*
X11220Y11614D02*
D03*
X11535Y11929D02*
D03*
X14803Y11339D02*
D03*
X12953Y13425D02*
D03*
X13976Y13583D02*
D03*
X14016Y14016D02*
D03*
X15551Y13937D02*
D03*
X17402Y12520D02*
D03*
X18371Y14621D02*
D03*
X17598Y17795D02*
D03*
X18780Y18858D02*
D03*
X19154Y20295D02*
D03*
Y19882D02*
D03*
X19843Y18189D02*
D03*
X18858Y16732D02*
D03*
X19021Y23184D02*
D03*
X14291Y20118D02*
D03*
X13819Y20433D02*
D03*
X17953Y19567D02*
D03*
X17480Y18307D02*
D03*
X12165Y18543D02*
D03*
X11654Y20394D02*
D03*
X11654Y20079D02*
D03*
X12126Y19724D02*
D03*
X15709Y21417D02*
D03*
X14764Y22638D02*
D03*
X15010Y22250D02*
D03*
X21336Y20800D02*
D03*
X15932Y13578D02*
D03*
X16575Y13031D02*
D03*
X17323Y12037D02*
D03*
X16850Y12076D02*
D03*
X16968Y12835D02*
D03*
X16590Y12410D02*
D03*
X15200Y11350D02*
D03*
X17230Y20870D02*
D03*
X16762D02*
D03*
X13527Y17017D02*
D03*
X14230Y16960D02*
D03*
X13990D02*
D03*
X15420Y18000D02*
D03*
X15850Y18430D02*
D03*
X15140Y17620D02*
D03*
X15040Y18390D02*
D03*
X14540Y18360D02*
D03*
Y18600D02*
D03*
Y18840D02*
D03*
D119*
X12165Y11181D02*
D03*
Y11811D02*
D03*
X11840D02*
D03*
Y11181D02*
D03*
D120*
X12165Y11591D02*
D03*
Y11401D02*
D03*
X11840D02*
D03*
Y11591D02*
D03*
D121*
X17056Y13435D02*
D03*
X18087D02*
D03*
Y13809D02*
D03*
Y14183D02*
D03*
X17056D02*
D03*
D122*
X15932Y13276D02*
D03*
Y13020D02*
D03*
Y12764D02*
D03*
Y12508D02*
D03*
Y12253D02*
D03*
Y11997D02*
D03*
Y11741D02*
D03*
Y11485D02*
D03*
X13747Y13276D02*
D03*
Y13020D02*
D03*
Y12764D02*
D03*
Y12508D02*
D03*
Y12253D02*
D03*
Y11997D02*
D03*
Y11741D02*
D03*
Y11485D02*
D03*
D123*
X12169Y17749D02*
D03*
Y16450D02*
D03*
X15605Y15728D02*
D03*
Y17028D02*
D03*
X13986Y26675D02*
D03*
Y27975D02*
D03*
X16393Y17028D02*
D03*
Y15728D02*
D03*
X17613Y17028D02*
D03*
Y15728D02*
D03*
D124*
X14045Y17947D02*
D03*
X14301D02*
D03*
X14557D02*
D03*
X14813D02*
D03*
X14045Y16352D02*
D03*
X14301D02*
D03*
X14557D02*
D03*
X14813D02*
D03*
D125*
X12165Y22441D02*
D03*
X10866D02*
D03*
D126*
X11605Y15114D02*
D03*
X12255D02*
D03*
Y15606D02*
D03*
X11605D02*
D03*
M02*
