G04 Layer_Physical_Order=4*
G04 Layer_Color=16711680*
%FSLAX24Y24*%
%MOIN*%
G70*
G01*
G75*
%ADD10R,0.0354X0.0354*%
%ADD11R,0.0453X0.0709*%
%ADD12R,0.0374X0.0394*%
%ADD14R,0.0354X0.0354*%
%ADD27R,0.0394X0.0374*%
%ADD29R,0.0244X0.0480*%
%ADD30R,0.0394X0.1496*%
%ADD31R,0.1406X0.0394*%
%ADD32R,0.0394X0.1406*%
%ADD33R,0.0394X0.1276*%
%ADD34R,0.1276X0.0394*%
%ADD35R,0.1496X0.0394*%
%ADD36C,0.0100*%
%ADD37C,0.0200*%
%ADD38C,0.0150*%
%ADD39C,0.0320*%
%ADD40C,0.0120*%
%ADD41C,0.0270*%
%ADD42C,0.0220*%
%ADD43C,0.0250*%
%ADD44C,0.0300*%
%ADD46C,0.0160*%
%ADD47C,0.0170*%
%ADD49C,0.0350*%
%ADD50C,0.0240*%
%ADD59R,0.0591X0.0591*%
%ADD60C,0.0591*%
%ADD61R,0.0591X0.0591*%
%ADD62C,0.0320*%
G04:AMPARAMS|DCode=63|XSize=20mil|YSize=12mil|CornerRadius=0.3mil|HoleSize=0mil|Usage=FLASHONLY|Rotation=180.000|XOffset=0mil|YOffset=0mil|HoleType=Round|Shape=RoundedRectangle|*
%AMROUNDEDRECTD63*
21,1,0.0200,0.0114,0,0,180.0*
21,1,0.0194,0.0120,0,0,180.0*
1,1,0.0006,-0.0097,0.0057*
1,1,0.0006,0.0097,0.0057*
1,1,0.0006,0.0097,-0.0057*
1,1,0.0006,-0.0097,-0.0057*
%
%ADD63ROUNDEDRECTD63*%
%ADD65C,0.0400*%
%ADD67R,0.0177X0.0177*%
%ADD68R,0.0177X0.0118*%
%ADD69R,0.0480X0.0244*%
%ADD70R,0.0650X0.0118*%
%ADD71R,0.0709X0.0453*%
%ADD72O,0.0177X0.0591*%
%ADD73R,0.0433X0.0669*%
%ADD74R,0.0354X0.0315*%
%ADD75C,0.0500*%
%ADD76R,0.0547X0.0320*%
%ADD77R,0.0190X0.0380*%
%ADD78R,0.0421X0.0702*%
%ADD79R,0.0817X0.0492*%
%ADD80R,0.0790X0.0580*%
%ADD81R,0.0550X0.0740*%
%ADD82R,0.0160X0.0620*%
D10*
X16084Y25814D02*
D03*
X16792D02*
D03*
X16842Y23104D02*
D03*
X16134D02*
D03*
X16842Y23574D02*
D03*
X16134D02*
D03*
X17992D02*
D03*
X17284D02*
D03*
X18386Y24724D02*
D03*
X17677D02*
D03*
Y25197D02*
D03*
X18386D02*
D03*
X12793Y24265D02*
D03*
X12084D02*
D03*
X12184Y23055D02*
D03*
X12893D02*
D03*
D11*
X11539Y24875D02*
D03*
X12838D02*
D03*
X11589Y23665D02*
D03*
X12888D02*
D03*
D12*
X17684Y24244D02*
D03*
X18392D02*
D03*
X17284Y23104D02*
D03*
X17992D02*
D03*
X17167Y14629D02*
D03*
X17876D02*
D03*
X17642Y22064D02*
D03*
X16934D02*
D03*
X17323Y11643D02*
D03*
X16614D02*
D03*
X12254Y16050D02*
D03*
X11546D02*
D03*
X14064Y15750D02*
D03*
X14773D02*
D03*
X13974Y15230D02*
D03*
X14683D02*
D03*
X17274Y26454D02*
D03*
X17982D02*
D03*
D14*
X16552Y13495D02*
D03*
Y14203D02*
D03*
X13328Y24969D02*
D03*
Y24260D02*
D03*
X12526Y26669D02*
D03*
Y25961D02*
D03*
X12536Y27121D02*
D03*
Y27829D02*
D03*
X13189Y19892D02*
D03*
Y19183D02*
D03*
X11457Y19528D02*
D03*
Y18819D02*
D03*
X14921Y13622D02*
D03*
Y14331D02*
D03*
X13543Y13622D02*
D03*
Y14331D02*
D03*
X19646Y22913D02*
D03*
Y23622D02*
D03*
D27*
X13336Y26511D02*
D03*
Y27219D02*
D03*
X19628Y24769D02*
D03*
Y24060D02*
D03*
X15258D02*
D03*
Y24769D02*
D03*
X13468Y23100D02*
D03*
Y23809D02*
D03*
X13778Y24270D02*
D03*
Y24979D02*
D03*
X12036Y25951D02*
D03*
Y26659D02*
D03*
X12066Y27839D02*
D03*
Y27131D02*
D03*
D29*
X16484Y24239D02*
D03*
Y25270D02*
D03*
X16858Y24239D02*
D03*
Y25270D02*
D03*
X17232D02*
D03*
Y24239D02*
D03*
X12697Y19218D02*
D03*
Y20250D02*
D03*
X12323D02*
D03*
Y19218D02*
D03*
X11949Y20250D02*
D03*
Y19218D02*
D03*
D30*
X20870Y18177D02*
D03*
Y15815D02*
D03*
Y13453D02*
D03*
X10630D02*
D03*
Y15815D02*
D03*
Y18177D02*
D03*
D31*
X11136Y20870D02*
D03*
Y10630D02*
D03*
D32*
X20870Y20364D02*
D03*
Y11136D02*
D03*
X10630D02*
D03*
D33*
Y20429D02*
D03*
D34*
X20429Y20870D02*
D03*
Y10630D02*
D03*
D35*
X13453Y20870D02*
D03*
X15815D02*
D03*
X18177D02*
D03*
Y10630D02*
D03*
X15815D02*
D03*
X13453D02*
D03*
D36*
X12650Y28512D02*
X15415D01*
X12612D02*
X12650Y28550D01*
X20583Y23614D02*
X21102D01*
X18026Y26978D02*
X18425Y26579D01*
X15453Y26978D02*
X18026D01*
X18054Y27205D02*
X18740Y26519D01*
X16122Y27205D02*
X18054D01*
X18740Y25354D02*
Y26519D01*
Y25354D02*
X18858Y25236D01*
X18425Y25669D02*
Y26579D01*
X15650Y27677D02*
X16122Y27205D01*
X15932Y13276D02*
X16165D01*
X14301Y16352D02*
Y16602D01*
X12059Y16770D02*
Y16920D01*
X15932Y12508D02*
X15940Y12500D01*
X13160Y13020D02*
X13747D01*
X12536Y27829D02*
X12886Y27479D01*
X12890Y26511D02*
X13336D01*
X12886Y26515D02*
X12890Y26511D01*
X12886Y26515D02*
Y27479D01*
Y26321D02*
Y26515D01*
X15932Y11997D02*
X15948Y11980D01*
X15560Y11741D02*
X15932D01*
X14631Y11790D02*
X15041D01*
X15211Y12210D02*
X15311D01*
X15541Y13020D02*
X15932D01*
X15291Y12190D02*
X15311Y12210D01*
X14094Y25620D02*
X15453Y26978D01*
X15650Y27677D02*
Y28278D01*
X11851Y25620D02*
X14094D01*
X12490Y25925D02*
X12526Y25961D01*
X12886Y26321D01*
X13747Y12508D02*
X14158D01*
X14167Y12253D02*
X14410Y12010D01*
X14411D01*
X14631Y11790D01*
X13747Y12764D02*
X14156D01*
X14230Y12690D01*
X14231D01*
X15441Y13120D02*
Y13310D01*
Y13120D02*
X15481Y13080D01*
Y13080D02*
Y13080D01*
Y13080D02*
X15541Y13020D01*
X11751Y25520D02*
X11851Y25620D01*
X11750Y25520D02*
X11751D01*
X15940Y12500D02*
X16271D01*
X16300Y12529D01*
Y12531D01*
X15415Y28512D02*
X15650Y28278D01*
X13160Y13020D02*
X13160Y13020D01*
X13747Y12253D02*
X14167D01*
X14158Y12508D02*
X14234Y12433D01*
X14242D01*
X14484Y12190D01*
X14231Y12690D02*
X14308Y12613D01*
X14317D01*
X14449Y12480D01*
X14731D01*
X13747Y11997D02*
X14169D01*
X14335Y11830D01*
X14484Y12190D02*
X15291D01*
X12059Y16770D02*
X12274Y16555D01*
X20870Y20364D02*
Y20429D01*
X10630Y12506D02*
Y13453D01*
X11081Y20925D02*
X11136Y20870D01*
X11071D02*
X11136D01*
X10256Y20925D02*
X11081D01*
X14335Y11830D02*
X14336D01*
X16696Y11510D02*
Y11640D01*
X14336Y11830D02*
X14681Y11486D01*
X15305D02*
X15560Y11741D01*
X15321Y13430D02*
X15441Y13310D01*
X15321Y13430D02*
X15354Y13464D01*
Y13465D01*
X13747Y13276D02*
X14812D01*
X14882Y13346D01*
Y13583D01*
X14921Y13622D01*
X13747Y11741D02*
X14125D01*
X14331Y11535D01*
Y11339D02*
Y11535D01*
X12165Y11591D02*
X12385D01*
X12165Y11811D02*
X12441D01*
X12385Y11591D02*
X12795Y11181D01*
X14173D01*
X14331Y11339D01*
X13375Y11485D02*
X13747D01*
X13251Y11361D02*
X13375Y11485D01*
X12891Y11361D02*
X13251D01*
X12441Y11811D02*
X12891Y11361D01*
X12165Y11401D02*
X12321D01*
X12721Y11001D01*
X15371D01*
X15855Y11485D01*
X15932D01*
X11677Y11401D02*
X11840D01*
X11496Y11220D02*
X11677Y11401D01*
X11417Y11220D02*
X11496D01*
X11243Y11591D02*
X11840D01*
X11220Y11614D02*
X11243Y11591D01*
X11653Y11811D02*
X11840D01*
X11535Y11929D02*
X11653Y11811D01*
X14681Y11486D02*
X14803Y11363D01*
Y11339D02*
Y11363D01*
X12953Y13425D02*
Y13494D01*
X12402Y18829D02*
X13061D01*
X12323Y18907D02*
X12402Y18829D01*
X12323Y18907D02*
Y19218D01*
X13169Y18937D02*
Y19193D01*
X13061Y18829D02*
X13169Y18937D01*
X16396Y12880D02*
X16575Y13059D01*
X15932Y12764D02*
X16279D01*
X16395Y12880D01*
X16396D01*
X16300Y12531D02*
X16470Y12700D01*
X16471D01*
X16487Y12717D01*
X16850D01*
X12697Y20250D02*
X13451D01*
X13504Y20197D01*
X13608Y19699D02*
X17821D01*
X17953Y19567D01*
X12697Y19218D02*
Y19350D01*
X12837Y19490D01*
X17281D01*
X17402Y19370D01*
Y18386D02*
Y19370D01*
Y18386D02*
X17480Y18307D01*
X11840Y10809D02*
Y11181D01*
Y10809D02*
X12020Y10630D01*
X13504Y19803D02*
Y20197D01*
Y19803D02*
X13608Y19699D01*
X18808Y23622D02*
X19646D01*
X18720Y23710D02*
X18808Y23622D01*
X19646Y22913D02*
X19882D01*
X20583Y23614D01*
X11457Y18819D02*
X11929D01*
X11949Y18799D01*
X16575Y13031D02*
Y13059D01*
X16806Y12120D02*
X16850Y12076D01*
X16850Y12717D02*
X16968Y12835D01*
X16430Y12120D02*
X16806D01*
X15932Y12253D02*
X16298D01*
X16430Y12120D01*
X15932Y11997D02*
X16299D01*
X16614Y11682D01*
Y11643D02*
Y11682D01*
X14681Y11486D02*
X15305D01*
D37*
X12250Y14850D02*
X12315D01*
X12215Y28189D02*
X13218D01*
X17232Y24239D02*
Y24732D01*
X17254Y24754D01*
X13336Y27845D02*
Y28072D01*
X13468Y23100D02*
X13534D01*
X13858Y22776D01*
X13218Y28189D02*
X13336Y28072D01*
X12066Y27839D02*
Y28040D01*
X12215Y28189D01*
X12030Y27875D02*
X12066Y27839D01*
X11834Y24567D02*
X11890D01*
X11539Y24272D02*
X11834Y24567D01*
X11890Y24304D02*
Y24567D01*
X11850Y24265D02*
X11890Y24304D01*
X11949Y18799D02*
Y19218D01*
Y18799D02*
X12165Y18583D01*
Y18543D02*
Y18583D01*
Y17863D02*
Y18543D01*
Y17863D02*
X12173Y17855D01*
X12279Y17749D01*
X11654Y20079D02*
X11654Y20079D01*
X11825Y20250D02*
X11876D01*
X11949D01*
X11654Y20079D02*
X11825Y20250D01*
D38*
X16408Y22614D02*
X16484Y22690D01*
Y24239D01*
X16822Y13809D02*
X17432D01*
X17806Y14183D02*
X18087D01*
X17432Y13809D02*
X17806Y14183D01*
X16552Y14079D02*
X16822Y13809D01*
X16552Y14079D02*
Y14203D01*
X12468Y24265D02*
X12793D01*
X12428Y24305D02*
X12468Y24265D01*
X12128Y24905D02*
X12428Y24605D01*
Y24305D02*
Y24605D01*
X11472Y25951D02*
X12036D01*
X11063Y25541D02*
X11472Y25951D01*
X11063Y25374D02*
Y25541D01*
X15868Y24652D02*
X15939D01*
X16134Y23574D02*
X16200Y23641D01*
Y24391D01*
X15939Y24652D02*
X16200Y24391D01*
X11575Y16113D02*
Y17256D01*
X14488Y16968D02*
Y17244D01*
X14813Y17947D02*
Y18149D01*
X12323Y19961D02*
X12431Y19852D01*
X13179D01*
X11575Y17256D02*
X12173Y17855D01*
X12126Y19724D02*
X12323Y19921D01*
Y19961D01*
Y20250D01*
X11654Y19724D02*
X12126D01*
X11457Y19528D02*
X11654Y19724D01*
D39*
X10630Y13453D02*
Y14400D01*
X12254Y16050D02*
X12255Y16050D01*
Y15606D02*
Y16050D01*
X12250Y15109D02*
X12255Y15114D01*
X12250Y14850D02*
Y15109D01*
X17973Y25969D02*
Y26462D01*
X17855Y25852D02*
X17973Y25969D01*
X19170Y24754D02*
X19655D01*
X19172Y24062D02*
X19665D01*
X17478Y22614D02*
X17578D01*
X17642Y22550D01*
X15930Y13370D02*
X15932Y13373D01*
X13474Y23815D02*
X14288D01*
X13468Y23809D02*
X13474Y23815D01*
X12184Y23055D02*
Y23430D01*
X12418Y23665D01*
X12888D01*
X12797Y24260D02*
X13328D01*
X13778Y24270D02*
X14244D01*
X14289Y24315D01*
X11370Y27131D02*
X12066D01*
X12076Y27121D02*
X12536D01*
X13926Y26195D02*
Y26615D01*
X13336Y27219D02*
Y27845D01*
X13465Y27975D01*
X13986D01*
X16934Y22064D02*
Y22460D01*
X17068Y22594D01*
X17642Y22064D02*
Y22550D01*
X15754Y24077D02*
X15868Y24192D01*
X15268Y24077D02*
X15754D01*
X17281Y25966D02*
Y26451D01*
Y25966D02*
X17395Y25852D01*
X19055Y24179D02*
X19172Y24062D01*
X11336Y26675D02*
X12520D01*
X13336Y27219D02*
X14971D01*
X14994Y27242D01*
X12184Y22460D02*
Y23055D01*
X12165Y22441D02*
X12184Y22460D01*
X16084Y25385D02*
Y25814D01*
X16073Y25374D02*
X16084Y25385D01*
X12980Y25961D02*
X13016Y25925D01*
X12526Y25961D02*
X12980D01*
X20870Y18177D02*
Y19124D01*
Y17230D02*
Y18177D01*
Y15815D02*
Y16762D01*
Y14868D02*
Y15815D01*
Y13453D02*
Y14400D01*
Y12506D02*
Y13453D01*
X14063Y20870D02*
X14200Y20734D01*
Y20730D02*
Y20734D01*
X13453Y20870D02*
X14063D01*
X12967D02*
X13453D01*
X12943Y20846D02*
X12967Y20870D01*
X20423Y20876D02*
X20429Y20870D01*
X19506Y20876D02*
X20423D01*
X10630Y15815D02*
Y16762D01*
Y14868D02*
Y15815D01*
Y18177D02*
Y19124D01*
Y17230D02*
Y18177D01*
Y19644D02*
Y20429D01*
X20866Y11140D02*
X20870Y11136D01*
X20866Y11140D02*
Y12006D01*
X19644Y10630D02*
X20429D01*
X18177D02*
X19124D01*
X17230D02*
X18177D01*
X15815D02*
X16762D01*
X14868D02*
X15815D01*
X10630Y11136D02*
Y12010D01*
X11136Y10630D02*
X12020D01*
X13453D02*
X14400D01*
X12506D02*
X13453D01*
X15605Y16732D02*
Y17028D01*
X15763Y15236D02*
X16275D01*
X16393Y15354D01*
Y15728D01*
X17613D02*
X17830Y15512D01*
X18322D01*
X15546Y16673D02*
X15605Y16732D01*
X15290Y16673D02*
X15546D01*
X15290Y16043D02*
X15605Y15728D01*
X15290Y16043D02*
Y16102D01*
X12480Y16919D02*
Y17548D01*
X12279Y17749D02*
X12480Y17548D01*
X14837Y15230D02*
X15763Y15236D01*
X12953Y13425D02*
X13150Y13622D01*
X13543D01*
X11654Y20079D02*
Y20394D01*
X11876Y20250D02*
X11890Y20236D01*
X11654Y20394D02*
X11732D01*
X11876Y20250D01*
X11654Y20079D02*
X11850D01*
X11890Y20118D01*
X15932Y13373D02*
Y13578D01*
X17323Y11643D02*
Y12037D01*
X14803Y11339D02*
X15189D01*
X15200Y11350D01*
X17230Y20870D02*
X18177D01*
X15815D02*
X16762D01*
X15258Y24769D02*
X15751D01*
X15868Y24652D01*
X14773Y15320D02*
Y15750D01*
X14900Y17380D02*
X15140Y17620D01*
X14733Y17380D02*
X14900D01*
X14714Y17360D02*
X14733Y17380D01*
X14430Y17360D02*
X14520D01*
X14580D02*
X14714D01*
X15140Y17620D02*
X15420Y17900D01*
Y18000D01*
X15850Y18430D01*
X14920Y17840D02*
X15140Y17620D01*
X14920Y17840D02*
X14950D01*
X15540Y18430D01*
X15180D02*
X15540D01*
X15850D01*
X14920Y17840D02*
Y18170D01*
X15180Y18430D01*
X14540Y18595D02*
Y18600D01*
X11605Y15114D02*
Y15606D01*
Y15990D01*
X11546Y16050D02*
X11605Y15990D01*
X14540Y18600D02*
Y18840D01*
D40*
X13650Y15554D02*
X13974Y15230D01*
X14045Y16352D02*
Y16525D01*
X16484Y24239D02*
Y24666D01*
X16350Y24800D02*
X16484Y24666D01*
X15981Y25069D02*
X16250Y24800D01*
X16350D01*
X15881Y25069D02*
X15981D01*
X15394Y25556D02*
X15881Y25069D01*
X15394Y25556D02*
Y26378D01*
X13650Y15554D02*
Y15778D01*
D41*
X12888Y23050D02*
X12893Y23055D01*
X12888Y22645D02*
Y23050D01*
X11539Y24272D02*
X11546Y24265D01*
X11850D01*
X12084D01*
D42*
X17855Y25688D02*
X18366Y25177D01*
X17855Y25688D02*
Y25852D01*
D43*
X17876Y14629D02*
X18452D01*
X18612Y14469D01*
Y13969D02*
Y14469D01*
X18452Y13809D02*
X18612Y13969D01*
X18087Y13809D02*
X18452D01*
X16611Y13435D02*
X17056D01*
X18424Y14601D02*
X18452Y14629D01*
X18087Y13435D02*
X18166D01*
X18522Y13079D01*
X18402Y14623D02*
X18424Y14601D01*
X18401Y14621D02*
X18402Y14623D01*
X18371Y14621D02*
X18401D01*
D44*
X16742Y14629D02*
X17167D01*
Y14294D02*
Y14629D01*
X17056Y14183D02*
X17167Y14294D01*
X16742Y14629D02*
Y14769D01*
X16275Y15236D02*
X16742Y14769D01*
D46*
X14301Y17947D02*
Y18356D01*
X13550Y15878D02*
X13650Y15778D01*
X13550Y15878D02*
Y17008D01*
X14540Y18360D02*
Y18595D01*
X14557Y17947D02*
Y18612D01*
X14301Y18356D02*
X14540Y18595D01*
X14557Y18612D01*
D47*
X14045Y15769D02*
Y16352D01*
X14557Y15966D02*
X14773Y15750D01*
X14813Y15789D02*
Y16352D01*
X14557Y15966D02*
Y16352D01*
X14683Y15230D02*
X14773Y15320D01*
X14045Y16525D02*
X14488Y16968D01*
X14045Y17475D02*
Y17947D01*
X14040Y17470D02*
X14045Y17475D01*
X14813Y17593D02*
Y17947D01*
X14580Y17360D02*
X14813Y17593D01*
X14520Y17360D02*
X14580D01*
D49*
X18970Y24724D02*
X19055Y24639D01*
X18386Y24724D02*
X18970D01*
X17677D02*
Y25197D01*
X18386Y24724D02*
X18392Y24718D01*
Y24244D02*
Y24718D01*
X12912Y24979D02*
X13778D01*
X18392Y23974D02*
Y24244D01*
X17992Y23574D02*
X18392Y23974D01*
X17992Y23104D02*
Y23574D01*
X16588Y23104D02*
X16842D01*
X16134D02*
Y23574D01*
X16842Y23104D02*
X17284D01*
X16842Y23574D02*
X17284D01*
X13032Y23809D02*
X13468D01*
X13778Y24979D02*
X14084D01*
X14238Y24825D01*
X17023Y16378D02*
Y17028D01*
Y16079D02*
Y16378D01*
X17015Y16071D02*
X17023Y16079D01*
X16393Y17028D02*
X17023D01*
X17613D01*
X13543Y14331D02*
X13858D01*
X14488Y13819D02*
Y14134D01*
X14685Y14331D01*
X14921D01*
X13858D02*
X14016Y14173D01*
X14016Y14173D02*
X14016Y14173D01*
X14016Y14016D02*
Y14173D01*
D50*
X16628Y25814D02*
X16792D01*
X16484Y25670D02*
X16628Y25814D01*
X16484Y25270D02*
Y25670D01*
X16842Y23574D02*
X16888Y23620D01*
X16842Y23574D02*
Y23640D01*
X16858Y23620D02*
Y24239D01*
Y24764D02*
Y25270D01*
X16842Y24780D02*
X16858Y24764D01*
X16830Y24780D02*
X16842D01*
D59*
X10551Y26181D02*
D03*
X21102Y21614D02*
D03*
D60*
X10551Y27181D02*
D03*
X14157Y28937D02*
D03*
X13157D02*
D03*
X12157D02*
D03*
X17063D02*
D03*
X18063Y27937D02*
D03*
Y28937D02*
D03*
X19063Y27937D02*
D03*
Y28937D02*
D03*
X20063Y27937D02*
D03*
Y28937D02*
D03*
X21063Y27937D02*
D03*
Y28937D02*
D03*
X21102Y22614D02*
D03*
Y23614D02*
D03*
Y24614D02*
D03*
Y25614D02*
D03*
Y26614D02*
D03*
D61*
X15157Y28937D02*
D03*
X17063Y27937D02*
D03*
D62*
X12940Y14570D02*
D03*
X14670Y24060D02*
D03*
X12520Y15760D02*
D03*
X12860Y16320D02*
D03*
X12870Y16820D02*
D03*
X11650Y13840D02*
D03*
X11660Y12990D02*
D03*
X11980Y12260D02*
D03*
X16060Y11120D02*
D03*
X16920Y11140D02*
D03*
X17740Y11150D02*
D03*
X18070Y12580D02*
D03*
X17370Y13020D02*
D03*
X20510Y10990D02*
D03*
X20240Y13750D02*
D03*
X19060Y15280D02*
D03*
X20100Y15150D02*
D03*
Y16350D02*
D03*
X18420Y17270D02*
D03*
X19830Y17200D02*
D03*
X19800Y18920D02*
D03*
X19810Y20210D02*
D03*
X16720Y17940D02*
D03*
Y19030D02*
D03*
X11610Y14710D02*
D03*
X10630Y14400D02*
D03*
X12250Y14850D02*
D03*
X19450Y26700D02*
D03*
X19050Y25650D02*
D03*
X15450Y27350D02*
D03*
X12650Y28550D02*
D03*
X19961Y22283D02*
D03*
X18858Y25236D02*
D03*
X18425Y25669D02*
D03*
X14567Y24833D02*
D03*
X19124Y20870D02*
D03*
X16408Y22614D02*
D03*
X17478D02*
D03*
X19666Y13845D02*
D03*
X18522Y13079D02*
D03*
X16742Y14629D02*
D03*
X17402Y13819D02*
D03*
X12059Y16920D02*
D03*
X13112Y11703D02*
D03*
X14288Y23815D02*
D03*
X12888Y22645D02*
D03*
X12128Y24905D02*
D03*
X14238Y24825D02*
D03*
X14289Y24315D02*
D03*
X11336Y26675D02*
D03*
X11326Y27175D02*
D03*
X13926Y26195D02*
D03*
X13016Y25925D02*
D03*
X17068Y22594D02*
D03*
X15868Y24192D02*
D03*
Y24652D02*
D03*
X17855Y25852D02*
D03*
X17395D02*
D03*
X19055Y24179D02*
D03*
X15041Y11790D02*
D03*
X15211Y12210D02*
D03*
X14351Y12980D02*
D03*
X15191Y12960D02*
D03*
X14731Y12480D02*
D03*
X14994Y27242D02*
D03*
X17254Y24754D02*
D03*
X11063Y25374D02*
D03*
X11142Y23258D02*
D03*
X13858Y22776D02*
D03*
X19055Y24639D02*
D03*
X14390Y22854D02*
D03*
X14370Y23356D02*
D03*
X16073Y25374D02*
D03*
X15394Y26378D02*
D03*
X10817Y25207D02*
D03*
X10856Y23386D02*
D03*
X13630Y15729D02*
D03*
X12480Y16919D02*
D03*
X11750Y25520D02*
D03*
X16830Y24780D02*
D03*
X18720Y23710D02*
D03*
X18510Y22960D02*
D03*
X13160Y13020D02*
D03*
X21277Y10160D02*
D03*
X10160Y10167D02*
D03*
X18071Y22638D02*
D03*
X14567Y25512D02*
D03*
X10827Y24843D02*
D03*
Y24331D02*
D03*
Y23819D02*
D03*
X11890Y23780D02*
D03*
Y24567D02*
D03*
X10354Y21772D02*
D03*
Y22165D02*
D03*
X21336Y18500D02*
D03*
X20870Y17230D02*
D03*
Y19124D02*
D03*
Y16762D02*
D03*
X21336Y15723D02*
D03*
X20870Y14868D02*
D03*
Y14400D02*
D03*
X21336Y12945D02*
D03*
X20870Y12506D02*
D03*
X14200Y20730D02*
D03*
X20876Y19604D02*
D03*
X19506Y20876D02*
D03*
X10160Y12945D02*
D03*
X10630Y12506D02*
D03*
Y16762D02*
D03*
X10160Y15723D02*
D03*
X10630Y14868D02*
D03*
Y19124D02*
D03*
X10160Y18500D02*
D03*
X10630Y17230D02*
D03*
X10256Y20925D02*
D03*
X10630Y19644D02*
D03*
X20866Y12006D02*
D03*
X19644Y10630D02*
D03*
X19124D02*
D03*
X18500Y10160D02*
D03*
X17230Y10630D02*
D03*
X16762D02*
D03*
X14868D02*
D03*
X15723Y10160D02*
D03*
X10630Y12010D02*
D03*
X12020Y10630D02*
D03*
X14400D02*
D03*
X12506D02*
D03*
X12945Y10160D02*
D03*
X15763Y15236D02*
D03*
X18322Y15512D02*
D03*
X15290Y16673D02*
D03*
Y16102D02*
D03*
X15999Y17520D02*
D03*
X17023Y16378D02*
D03*
X17015Y16071D02*
D03*
X14899Y16980D02*
D03*
X14488Y16968D02*
D03*
X15354Y13465D02*
D03*
X14488Y13819D02*
D03*
X11417Y11220D02*
D03*
X11220Y11614D02*
D03*
X11535Y11929D02*
D03*
X14803Y11339D02*
D03*
X12953Y13425D02*
D03*
X13976Y13583D02*
D03*
X14016Y14016D02*
D03*
X15551Y13937D02*
D03*
X17402Y12520D02*
D03*
X18371Y14621D02*
D03*
X17598Y17795D02*
D03*
X18780Y18858D02*
D03*
X19154Y20295D02*
D03*
Y19882D02*
D03*
X19843Y18189D02*
D03*
X18858Y16732D02*
D03*
X19021Y23184D02*
D03*
X14291Y20118D02*
D03*
X13819Y20433D02*
D03*
X17953Y19567D02*
D03*
X17480Y18307D02*
D03*
X12165Y18543D02*
D03*
X11654Y20394D02*
D03*
X11654Y20079D02*
D03*
X12126Y19724D02*
D03*
X15709Y21417D02*
D03*
X14764Y22638D02*
D03*
X15010Y22250D02*
D03*
X21336Y20800D02*
D03*
X15932Y13578D02*
D03*
X16575Y13031D02*
D03*
X17323Y12037D02*
D03*
X16850Y12076D02*
D03*
X16968Y12835D02*
D03*
X16590Y12410D02*
D03*
X15200Y11350D02*
D03*
X17230Y20870D02*
D03*
X16762D02*
D03*
X13527Y17017D02*
D03*
X14230Y16960D02*
D03*
X13990D02*
D03*
X15420Y18000D02*
D03*
X15850Y18430D02*
D03*
X15140Y17620D02*
D03*
X15040Y18390D02*
D03*
X14540Y18360D02*
D03*
Y18600D02*
D03*
Y18840D02*
D03*
D63*
X13780Y16370D02*
D03*
X13620D02*
D03*
X18424Y20039D02*
D03*
X18584D02*
D03*
D65*
X13500Y26675D02*
X13986D01*
X13336Y26511D02*
X13500Y26675D01*
X11539Y23715D02*
X11589Y23665D01*
X11539Y24875D02*
Y24898D01*
X11063Y25374D02*
X11539Y24898D01*
X11182Y23258D02*
X11589Y23665D01*
X11142Y23258D02*
X11182D01*
X11539Y23715D02*
Y24272D01*
Y24875D01*
D67*
X12165Y11181D02*
D03*
Y11811D02*
D03*
X11840D02*
D03*
Y11181D02*
D03*
D68*
X12165Y11591D02*
D03*
Y11401D02*
D03*
X11840D02*
D03*
Y11591D02*
D03*
D69*
X17056Y13435D02*
D03*
X18087D02*
D03*
Y13809D02*
D03*
Y14183D02*
D03*
X17056D02*
D03*
D70*
X15932Y13276D02*
D03*
Y13020D02*
D03*
Y12764D02*
D03*
Y12508D02*
D03*
Y12253D02*
D03*
Y11997D02*
D03*
Y11741D02*
D03*
Y11485D02*
D03*
X13747Y13276D02*
D03*
Y13020D02*
D03*
Y12764D02*
D03*
Y12508D02*
D03*
Y12253D02*
D03*
Y11997D02*
D03*
Y11741D02*
D03*
Y11485D02*
D03*
D71*
X12169Y17749D02*
D03*
Y16450D02*
D03*
X15605Y15728D02*
D03*
Y17028D02*
D03*
X13986Y26675D02*
D03*
Y27975D02*
D03*
X16393Y17028D02*
D03*
Y15728D02*
D03*
X17613Y17028D02*
D03*
Y15728D02*
D03*
D72*
X14045Y17947D02*
D03*
X14301D02*
D03*
X14557D02*
D03*
X14813D02*
D03*
X14045Y16352D02*
D03*
X14301D02*
D03*
X14557D02*
D03*
X14813D02*
D03*
D73*
X12165Y22441D02*
D03*
X10866D02*
D03*
D74*
X11605Y15114D02*
D03*
X12255D02*
D03*
Y15606D02*
D03*
X11605D02*
D03*
D75*
X10295Y23012D02*
X10866Y22441D01*
X11713Y21594D01*
X10295Y23012D02*
Y25895D01*
X10530Y26130D01*
X14724Y20404D02*
X15049Y20079D01*
X18701D01*
X11713Y21594D02*
X14306D01*
X14724Y21176D01*
Y20404D02*
Y21176D01*
D76*
X17561Y25194D02*
D03*
D77*
X17413Y24244D02*
D03*
D78*
X14090Y16251D02*
D03*
D79*
X18883Y20089D02*
D03*
D80*
X14245Y17240D02*
D03*
D81*
X14105Y16710D02*
D03*
D82*
X14460Y18050D02*
D03*
M02*
