G04 Layer_Physical_Order=2*
G04 Layer_Color=36540*
%FSAX25Y25*%
%MOIN*%
G70*
G01*
G75*
%ADD16C,0.02500*%
%ADD17C,0.02362*%
G36*
X0021585Y-0002507D02*
X0021366Y-0002653D01*
X0020973Y-0003242D01*
X0020834Y-0003937D01*
X0020973Y-0004632D01*
X0021366Y-0005221D01*
X0021956Y-0005615D01*
X0022650Y-0005753D01*
X0023345Y-0005615D01*
X0023935Y-0005221D01*
X0024081Y-0005003D01*
X0024580Y-0005155D01*
Y-0007701D01*
X0024081Y-0007853D01*
X0023935Y-0007634D01*
X0023345Y-0007241D01*
X0022650Y-0007102D01*
X0021956Y-0007241D01*
X0021366Y-0007634D01*
X0020973Y-0008224D01*
X0020834Y-0008918D01*
X0020973Y-0009613D01*
X0021366Y-0010203D01*
X0021956Y-0010596D01*
X0022650Y-0010734D01*
X0023345Y-0010596D01*
X0023935Y-0010203D01*
X0024081Y-0009984D01*
X0024580Y-0010136D01*
Y-0012683D01*
X0024081Y-0012834D01*
X0023935Y-0012616D01*
X0023345Y-0012222D01*
X0022650Y-0012084D01*
X0021956Y-0012222D01*
X0021366Y-0012616D01*
X0020973Y-0013205D01*
X0020834Y-0013900D01*
X0020973Y-0014595D01*
X0021366Y-0015184D01*
X0021956Y-0015578D01*
X0022650Y-0015716D01*
X0023345Y-0015578D01*
X0023935Y-0015184D01*
X0024081Y-0014966D01*
X0024580Y-0015117D01*
Y-0069617D01*
X0024081Y-0069768D01*
X0023922Y-0069531D01*
X0023333Y-0069137D01*
X0022638Y-0068999D01*
X0021943Y-0069137D01*
X0021354Y-0069531D01*
X0020960Y-0070120D01*
X0020822Y-0070815D01*
X0020960Y-0071510D01*
X0021354Y-0072099D01*
X0021943Y-0072493D01*
X0022638Y-0072631D01*
X0023333Y-0072493D01*
X0023922Y-0072099D01*
X0024081Y-0071862D01*
X0024580Y-0072013D01*
Y-0074598D01*
X0024081Y-0074750D01*
X0023922Y-0074512D01*
X0023333Y-0074119D01*
X0022638Y-0073980D01*
X0021943Y-0074119D01*
X0021354Y-0074512D01*
X0020960Y-0075102D01*
X0020822Y-0075797D01*
X0020960Y-0076491D01*
X0021354Y-0077081D01*
X0021943Y-0077474D01*
X0022638Y-0077612D01*
X0023333Y-0077474D01*
X0023922Y-0077081D01*
X0024081Y-0076843D01*
X0024580Y-0076995D01*
Y-0079580D01*
X0024081Y-0079731D01*
X0023922Y-0079494D01*
X0023333Y-0079100D01*
X0022638Y-0078962D01*
X0021943Y-0079100D01*
X0021354Y-0079494D01*
X0020960Y-0080083D01*
X0020822Y-0080778D01*
X0020960Y-0081473D01*
X0021354Y-0082062D01*
X0021550Y-0082193D01*
X0021398Y-0082693D01*
X0017087D01*
X0017002Y-0082193D01*
X0017910Y-0081448D01*
X0018723Y-0080458D01*
X0019327Y-0079328D01*
X0019699Y-0078101D01*
X0019824Y-0076826D01*
X0019699Y-0075551D01*
X0019327Y-0074324D01*
X0018723Y-0073194D01*
X0017910Y-0072204D01*
X0016919Y-0071391D01*
X0015789Y-0070787D01*
X0014563Y-0070415D01*
X0013287Y-0070289D01*
X0012012Y-0070415D01*
X0010786Y-0070787D01*
X0009656Y-0071391D01*
X0008665Y-0072204D01*
X0007852Y-0073194D01*
X0007248Y-0074324D01*
X0006876Y-0075551D01*
X0006750Y-0076826D01*
X0006876Y-0078101D01*
X0007248Y-0079328D01*
X0007852Y-0080458D01*
X0008665Y-0081448D01*
X0009572Y-0082193D01*
X0009487Y-0082693D01*
X0005164D01*
X0005012Y-0082193D01*
X0005208Y-0082062D01*
X0005602Y-0081473D01*
X0005740Y-0080778D01*
X0005602Y-0080083D01*
X0005208Y-0079494D01*
X0004619Y-0079100D01*
X0003924Y-0078962D01*
X0003229Y-0079100D01*
X0002640Y-0079494D01*
X0002507Y-0079693D01*
X0002007Y-0079541D01*
Y-0077033D01*
X0002507Y-0076881D01*
X0002640Y-0077081D01*
X0003229Y-0077474D01*
X0003924Y-0077613D01*
X0004619Y-0077474D01*
X0005208Y-0077081D01*
X0005602Y-0076491D01*
X0005740Y-0075797D01*
X0005602Y-0075102D01*
X0005208Y-0074512D01*
X0004619Y-0074119D01*
X0003924Y-0073980D01*
X0003229Y-0074119D01*
X0002640Y-0074512D01*
X0002507Y-0074712D01*
X0002007Y-0074560D01*
Y-0072051D01*
X0002507Y-0071900D01*
X0002640Y-0072099D01*
X0003229Y-0072493D01*
X0003924Y-0072631D01*
X0004619Y-0072493D01*
X0005208Y-0072099D01*
X0005602Y-0071510D01*
X0005740Y-0070815D01*
X0005602Y-0070120D01*
X0005208Y-0069531D01*
X0004619Y-0069137D01*
X0003924Y-0068999D01*
X0003229Y-0069137D01*
X0002640Y-0069531D01*
X0002507Y-0069730D01*
X0002007Y-0069578D01*
Y-0015117D01*
X0002507Y-0014966D01*
X0002653Y-0015184D01*
X0003242Y-0015578D01*
X0003937Y-0015716D01*
X0004632Y-0015578D01*
X0005221Y-0015184D01*
X0005615Y-0014595D01*
X0005753Y-0013900D01*
X0005615Y-0013205D01*
X0005221Y-0012616D01*
X0004632Y-0012222D01*
X0003937Y-0012084D01*
X0003242Y-0012222D01*
X0002653Y-0012616D01*
X0002507Y-0012834D01*
X0002007Y-0012683D01*
Y-0010136D01*
X0002507Y-0009984D01*
X0002653Y-0010203D01*
X0003242Y-0010596D01*
X0003937Y-0010734D01*
X0004632Y-0010596D01*
X0005221Y-0010203D01*
X0005615Y-0009613D01*
X0005753Y-0008918D01*
X0005615Y-0008224D01*
X0005221Y-0007634D01*
X0004632Y-0007241D01*
X0003937Y-0007102D01*
X0003242Y-0007241D01*
X0002653Y-0007634D01*
X0002507Y-0007853D01*
X0002007Y-0007701D01*
Y-0005155D01*
X0002507Y-0005003D01*
X0002653Y-0005221D01*
X0003242Y-0005615D01*
X0003937Y-0005753D01*
X0004632Y-0005615D01*
X0005221Y-0005221D01*
X0005615Y-0004632D01*
X0005753Y-0003937D01*
X0005615Y-0003242D01*
X0005221Y-0002653D01*
X0005003Y-0002507D01*
X0005154Y-0002007D01*
X0009537D01*
X0009591Y-0002507D01*
X0008665Y-0003267D01*
X0007852Y-0004257D01*
X0007248Y-0005387D01*
X0006876Y-0006614D01*
X0006750Y-0007889D01*
X0006876Y-0009164D01*
X0007248Y-0010391D01*
X0007852Y-0011521D01*
X0008665Y-0012511D01*
X0009656Y-0013324D01*
X0010786Y-0013928D01*
X0012012Y-0014300D01*
X0013287Y-0014426D01*
X0014563Y-0014300D01*
X0015789Y-0013928D01*
X0016919Y-0013324D01*
X0017910Y-0012511D01*
X0018723Y-0011521D01*
X0019327Y-0010391D01*
X0019699Y-0009164D01*
X0019824Y-0007889D01*
X0019699Y-0006614D01*
X0019327Y-0005387D01*
X0018723Y-0004257D01*
X0017910Y-0003267D01*
X0016984Y-0002507D01*
X0017038Y-0002007D01*
X0021433D01*
X0021585Y-0002507D01*
D02*
G37*
%LPC*%
G36*
X0014900Y-0052914D02*
X0014178Y-0053057D01*
X0013566Y-0053466D01*
X0013450Y-0053640D01*
X0012950D01*
X0012834Y-0053466D01*
X0012222Y-0053057D01*
X0011500Y-0052914D01*
X0010778Y-0053057D01*
X0010166Y-0053466D01*
X0009757Y-0054078D01*
X0009614Y-0054800D01*
X0009757Y-0055522D01*
X0010010Y-0055900D01*
X0009757Y-0056278D01*
X0009614Y-0057000D01*
X0009757Y-0057722D01*
X0010166Y-0058334D01*
X0010778Y-0058743D01*
X0011500Y-0058886D01*
X0012222Y-0058743D01*
X0012834Y-0058334D01*
X0012950Y-0058160D01*
X0013450D01*
X0013566Y-0058334D01*
X0014178Y-0058743D01*
X0014900Y-0058886D01*
X0015622Y-0058743D01*
X0016234Y-0058334D01*
X0016643Y-0057722D01*
X0016786Y-0057000D01*
X0016643Y-0056278D01*
X0016390Y-0055900D01*
X0016643Y-0055522D01*
X0016786Y-0054800D01*
X0016643Y-0054078D01*
X0016234Y-0053466D01*
X0015622Y-0053057D01*
X0014900Y-0052914D01*
D02*
G37*
G36*
X0021800Y-0043764D02*
X0021078Y-0043907D01*
X0020466Y-0044316D01*
X0020057Y-0044928D01*
X0019914Y-0045650D01*
X0020057Y-0046372D01*
X0020466Y-0046984D01*
X0021078Y-0047393D01*
X0021800Y-0047536D01*
X0022522Y-0047393D01*
X0023134Y-0046984D01*
X0023543Y-0046372D01*
X0023686Y-0045650D01*
X0023543Y-0044928D01*
X0023134Y-0044316D01*
X0022522Y-0043907D01*
X0021800Y-0043764D01*
D02*
G37*
G36*
Y-0050651D02*
X0021078Y-0050794D01*
X0020466Y-0051203D01*
X0020057Y-0051815D01*
X0019914Y-0052537D01*
X0020057Y-0053259D01*
X0020466Y-0053871D01*
X0021078Y-0054280D01*
X0021800Y-0054423D01*
X0022522Y-0054280D01*
X0023134Y-0053871D01*
X0023543Y-0053259D01*
X0023686Y-0052537D01*
X0023543Y-0051815D01*
X0023134Y-0051203D01*
X0022522Y-0050794D01*
X0021800Y-0050651D01*
D02*
G37*
G36*
X0020000Y-0062384D02*
X0019305Y-0062522D01*
X0018716Y-0062916D01*
X0018322Y-0063505D01*
X0018184Y-0064200D01*
X0018322Y-0064895D01*
X0018716Y-0065484D01*
X0019305Y-0065878D01*
X0020000Y-0066016D01*
X0020695Y-0065878D01*
X0021284Y-0065484D01*
X0021678Y-0064895D01*
X0021816Y-0064200D01*
X0021678Y-0063505D01*
X0021284Y-0062916D01*
X0020695Y-0062522D01*
X0020000Y-0062384D01*
D02*
G37*
G36*
X0021800Y-0057314D02*
X0021078Y-0057457D01*
X0020466Y-0057866D01*
X0020057Y-0058478D01*
X0019914Y-0059200D01*
X0020057Y-0059922D01*
X0020466Y-0060534D01*
X0021078Y-0060943D01*
X0021800Y-0061086D01*
X0022522Y-0060943D01*
X0023134Y-0060534D01*
X0023543Y-0059922D01*
X0023686Y-0059200D01*
X0023543Y-0058478D01*
X0023134Y-0057866D01*
X0022522Y-0057457D01*
X0021800Y-0057314D01*
D02*
G37*
G36*
Y-0037101D02*
X0021078Y-0037244D01*
X0020466Y-0037653D01*
X0020057Y-0038265D01*
X0019914Y-0038987D01*
X0020057Y-0039709D01*
X0020466Y-0040321D01*
X0021078Y-0040730D01*
X0021800Y-0040873D01*
X0022522Y-0040730D01*
X0023134Y-0040321D01*
X0023543Y-0039709D01*
X0023686Y-0038987D01*
X0023543Y-0038265D01*
X0023134Y-0037653D01*
X0022522Y-0037244D01*
X0021800Y-0037101D01*
D02*
G37*
G36*
X0014900Y-0026014D02*
X0014178Y-0026157D01*
X0013566Y-0026566D01*
X0013450Y-0026740D01*
X0012950D01*
X0012834Y-0026566D01*
X0012222Y-0026157D01*
X0011500Y-0026014D01*
X0010778Y-0026157D01*
X0010166Y-0026566D01*
X0009757Y-0027178D01*
X0009614Y-0027900D01*
X0009757Y-0028622D01*
X0010010Y-0029000D01*
X0009757Y-0029378D01*
X0009614Y-0030100D01*
X0009757Y-0030822D01*
X0010166Y-0031434D01*
X0010778Y-0031843D01*
X0011500Y-0031986D01*
X0012222Y-0031843D01*
X0012834Y-0031434D01*
X0012950Y-0031260D01*
X0013450D01*
X0013566Y-0031434D01*
X0014178Y-0031843D01*
X0014900Y-0031986D01*
X0015622Y-0031843D01*
X0016234Y-0031434D01*
X0016643Y-0030822D01*
X0016786Y-0030100D01*
X0016643Y-0029378D01*
X0016390Y-0029000D01*
X0016643Y-0028622D01*
X0016786Y-0027900D01*
X0016643Y-0027178D01*
X0016234Y-0026566D01*
X0015622Y-0026157D01*
X0014900Y-0026014D01*
D02*
G37*
G36*
X0013500Y-0021301D02*
X0012778Y-0021444D01*
X0012166Y-0021853D01*
X0011757Y-0022465D01*
X0011614Y-0023187D01*
X0011757Y-0023909D01*
X0012166Y-0024521D01*
X0012778Y-0024930D01*
X0013500Y-0025073D01*
X0014222Y-0024930D01*
X0014834Y-0024521D01*
X0015243Y-0023909D01*
X0015386Y-0023187D01*
X0015243Y-0022465D01*
X0014834Y-0021853D01*
X0014222Y-0021444D01*
X0013500Y-0021301D01*
D02*
G37*
G36*
X0021800Y-0023751D02*
X0021078Y-0023894D01*
X0020466Y-0024303D01*
X0020057Y-0024915D01*
X0019914Y-0025637D01*
X0020057Y-0026359D01*
X0020466Y-0026971D01*
X0021078Y-0027380D01*
X0021800Y-0027523D01*
X0022522Y-0027380D01*
X0023134Y-0026971D01*
X0023543Y-0026359D01*
X0023686Y-0025637D01*
X0023543Y-0024915D01*
X0023134Y-0024303D01*
X0022522Y-0023894D01*
X0021800Y-0023751D01*
D02*
G37*
G36*
X0014900Y-0039414D02*
X0014178Y-0039557D01*
X0013566Y-0039966D01*
X0013450Y-0040140D01*
X0012950D01*
X0012834Y-0039966D01*
X0012222Y-0039557D01*
X0011500Y-0039414D01*
X0010778Y-0039557D01*
X0010166Y-0039966D01*
X0009757Y-0040578D01*
X0009614Y-0041300D01*
X0009757Y-0042022D01*
X0010010Y-0042400D01*
X0009757Y-0042778D01*
X0009614Y-0043500D01*
X0009757Y-0044222D01*
X0010166Y-0044834D01*
X0010778Y-0045243D01*
X0011500Y-0045386D01*
X0012222Y-0045243D01*
X0012834Y-0044834D01*
X0012950Y-0044660D01*
X0013450D01*
X0013566Y-0044834D01*
X0014178Y-0045243D01*
X0014900Y-0045386D01*
X0015622Y-0045243D01*
X0016234Y-0044834D01*
X0016643Y-0044222D01*
X0016786Y-0043500D01*
X0016643Y-0042778D01*
X0016390Y-0042400D01*
X0016643Y-0042022D01*
X0016786Y-0041300D01*
X0016643Y-0040578D01*
X0016234Y-0039966D01*
X0015622Y-0039557D01*
X0014900Y-0039414D01*
D02*
G37*
G36*
X0021800Y-0030214D02*
X0021078Y-0030357D01*
X0020466Y-0030766D01*
X0020057Y-0031378D01*
X0019914Y-0032100D01*
X0020057Y-0032822D01*
X0020466Y-0033434D01*
X0021078Y-0033843D01*
X0021800Y-0033986D01*
X0022522Y-0033843D01*
X0023134Y-0033434D01*
X0023543Y-0032822D01*
X0023686Y-0032100D01*
X0023543Y-0031378D01*
X0023134Y-0030766D01*
X0022522Y-0030357D01*
X0021800Y-0030214D01*
D02*
G37*
%LPD*%
D16*
X0004000Y-0021900D02*
D03*
X0011200Y-0036500D02*
D03*
X0014900Y-0054800D02*
D03*
X0011500D02*
D03*
X0021800Y-0055869D02*
D03*
Y-0042318D02*
D03*
Y-0028969D02*
D03*
X0011500Y-0027900D02*
D03*
Y-0030100D02*
D03*
X0014900D02*
D03*
Y-0027900D02*
D03*
Y-0041300D02*
D03*
Y-0043500D02*
D03*
X0011500D02*
D03*
Y-0041300D02*
D03*
X0014900Y-0057000D02*
D03*
X0011500D02*
D03*
D17*
X0009700Y-0060800D02*
D03*
M02*
