M48
;Layer_Color=9474304
;FILE_FORMAT=2:5
INCH
;TYPE=PLATED
T1F00S00C0.00984
T2F00S00C0.07087
%
T01
X0003924Y-0080778
Y-0075797
Y-0070815
X0009700Y-0060800
X0011500Y-0057000
Y-0054800
X0014900
Y-0057000
X0021800Y-0055869
Y-0059200
Y-0052537
Y-0045650
Y-0042318
Y-0038987
Y-0032100
Y-0028969
Y-0025637
X0014900Y-0027900
Y-0030100
X0011500
Y-0027900
X0013500Y-0023187
X0004000Y-0021900
X0003937Y-0013900
Y-0008918
Y-0003937
X0022650Y-0003937
Y-0008918
Y-0013900
X0011200Y-0036500
X0011500Y-0041300
Y-0043500
X0014900
Y-0041300
X0020000Y-0064200
X0022638Y-0070815
Y-0075797
Y-0080778
T02
X0013287Y-0076826
Y-0007889
M30
