G04 Layer_Physical_Order=3*
G04 Layer_Color=16440176*
%FSAX25Y25*%
%MOIN*%
G70*
G01*
G75*
%ADD15C,0.11811*%
%ADD16C,0.02500*%
%ADD17C,0.02362*%
G36*
X0024580Y-0082693D02*
X0002007D01*
Y-0023147D01*
X0002507Y-0022996D01*
X0002666Y-0023234D01*
X0003278Y-0023643D01*
X0004000Y-0023786D01*
X0004722Y-0023643D01*
X0005334Y-0023234D01*
X0005743Y-0022622D01*
X0005886Y-0021900D01*
X0005743Y-0021178D01*
X0005334Y-0020566D01*
X0004722Y-0020157D01*
X0004000Y-0020014D01*
X0003278Y-0020157D01*
X0002666Y-0020566D01*
X0002507Y-0020805D01*
X0002007Y-0020653D01*
Y-0002007D01*
X0024580D01*
Y-0082693D01*
D02*
G37*
%LPC*%
G36*
X0021800Y-0037101D02*
X0021078Y-0037244D01*
X0020466Y-0037653D01*
X0020057Y-0038265D01*
X0019914Y-0038987D01*
X0020057Y-0039709D01*
X0020466Y-0040321D01*
X0020589Y-0040403D01*
Y-0040903D01*
X0020466Y-0040985D01*
X0020057Y-0041597D01*
X0019914Y-0042318D01*
X0020057Y-0043040D01*
X0020466Y-0043652D01*
X0020589Y-0043734D01*
Y-0044234D01*
X0020466Y-0044316D01*
X0020057Y-0044928D01*
X0019914Y-0045650D01*
X0020057Y-0046372D01*
X0020466Y-0046984D01*
X0021078Y-0047393D01*
X0021800Y-0047536D01*
X0022522Y-0047393D01*
X0023134Y-0046984D01*
X0023543Y-0046372D01*
X0023686Y-0045650D01*
X0023543Y-0044928D01*
X0023134Y-0044316D01*
X0023011Y-0044234D01*
Y-0043734D01*
X0023134Y-0043652D01*
X0023543Y-0043040D01*
X0023686Y-0042318D01*
X0023543Y-0041597D01*
X0023134Y-0040985D01*
X0023011Y-0040903D01*
Y-0040403D01*
X0023134Y-0040321D01*
X0023543Y-0039709D01*
X0023686Y-0038987D01*
X0023543Y-0038265D01*
X0023134Y-0037653D01*
X0022522Y-0037244D01*
X0021800Y-0037101D01*
D02*
G37*
G36*
Y-0050651D02*
X0021078Y-0050794D01*
X0020466Y-0051203D01*
X0020057Y-0051815D01*
X0019914Y-0052537D01*
X0020057Y-0053259D01*
X0020466Y-0053871D01*
X0020589Y-0053953D01*
Y-0054453D01*
X0020466Y-0054535D01*
X0020057Y-0055147D01*
X0019914Y-0055869D01*
X0020057Y-0056590D01*
X0020466Y-0057202D01*
X0020589Y-0057284D01*
Y-0057784D01*
X0020466Y-0057866D01*
X0020057Y-0058478D01*
X0019914Y-0059200D01*
X0020057Y-0059922D01*
X0020466Y-0060534D01*
X0021078Y-0060943D01*
X0021800Y-0061086D01*
X0022522Y-0060943D01*
X0023134Y-0060534D01*
X0023543Y-0059922D01*
X0023686Y-0059200D01*
X0023543Y-0058478D01*
X0023134Y-0057866D01*
X0023011Y-0057784D01*
Y-0057284D01*
X0023134Y-0057202D01*
X0023543Y-0056590D01*
X0023686Y-0055869D01*
X0023543Y-0055147D01*
X0023134Y-0054535D01*
X0023011Y-0054453D01*
Y-0053953D01*
X0023134Y-0053871D01*
X0023543Y-0053259D01*
X0023686Y-0052537D01*
X0023543Y-0051815D01*
X0023134Y-0051203D01*
X0022522Y-0050794D01*
X0021800Y-0050651D01*
D02*
G37*
G36*
X0009700Y-0058984D02*
X0009005Y-0059122D01*
X0008416Y-0059516D01*
X0008022Y-0060105D01*
X0007884Y-0060800D01*
X0008022Y-0061495D01*
X0008416Y-0062084D01*
X0009005Y-0062478D01*
X0009700Y-0062616D01*
X0010395Y-0062478D01*
X0010984Y-0062084D01*
X0011378Y-0061495D01*
X0011516Y-0060800D01*
X0011378Y-0060105D01*
X0010984Y-0059516D01*
X0010395Y-0059122D01*
X0009700Y-0058984D01*
D02*
G37*
G36*
X0013500Y-0021301D02*
X0012778Y-0021444D01*
X0012166Y-0021853D01*
X0011757Y-0022465D01*
X0011614Y-0023187D01*
X0011757Y-0023909D01*
X0012166Y-0024521D01*
X0012778Y-0024930D01*
X0013500Y-0025073D01*
X0014222Y-0024930D01*
X0014834Y-0024521D01*
X0015243Y-0023909D01*
X0015386Y-0023187D01*
X0015243Y-0022465D01*
X0014834Y-0021853D01*
X0014222Y-0021444D01*
X0013500Y-0021301D01*
D02*
G37*
G36*
X0021800Y-0023751D02*
X0021078Y-0023894D01*
X0020466Y-0024303D01*
X0020057Y-0024915D01*
X0019914Y-0025637D01*
X0020057Y-0026359D01*
X0020466Y-0026971D01*
X0020589Y-0027053D01*
Y-0027553D01*
X0020466Y-0027635D01*
X0020057Y-0028247D01*
X0019914Y-0028969D01*
X0020057Y-0029690D01*
X0020403Y-0030207D01*
X0020440Y-0030534D01*
X0020403Y-0030861D01*
X0020057Y-0031378D01*
X0019914Y-0032100D01*
X0020057Y-0032822D01*
X0020466Y-0033434D01*
X0021078Y-0033843D01*
X0021800Y-0033986D01*
X0022522Y-0033843D01*
X0023134Y-0033434D01*
X0023543Y-0032822D01*
X0023686Y-0032100D01*
X0023543Y-0031378D01*
X0023197Y-0030861D01*
X0023160Y-0030534D01*
X0023197Y-0030207D01*
X0023543Y-0029690D01*
X0023686Y-0028969D01*
X0023543Y-0028247D01*
X0023134Y-0027635D01*
X0023011Y-0027553D01*
Y-0027053D01*
X0023134Y-0026971D01*
X0023543Y-0026359D01*
X0023686Y-0025637D01*
X0023543Y-0024915D01*
X0023134Y-0024303D01*
X0022522Y-0023894D01*
X0021800Y-0023751D01*
D02*
G37*
G36*
X0011200Y-0034614D02*
X0010478Y-0034757D01*
X0009866Y-0035166D01*
X0009457Y-0035778D01*
X0009314Y-0036500D01*
X0009457Y-0037222D01*
X0009866Y-0037834D01*
X0010478Y-0038243D01*
X0011200Y-0038386D01*
X0011922Y-0038243D01*
X0012534Y-0037834D01*
X0012943Y-0037222D01*
X0013086Y-0036500D01*
X0012943Y-0035778D01*
X0012534Y-0035166D01*
X0011922Y-0034757D01*
X0011200Y-0034614D01*
D02*
G37*
%LPD*%
D15*
X0013287Y-0076826D02*
D03*
Y-0007889D02*
D03*
D16*
X0014900Y-0054800D02*
D03*
X0011500D02*
D03*
Y-0027900D02*
D03*
Y-0030100D02*
D03*
X0014900D02*
D03*
Y-0027900D02*
D03*
Y-0041300D02*
D03*
Y-0043500D02*
D03*
X0011500D02*
D03*
Y-0041300D02*
D03*
X0014900Y-0057000D02*
D03*
X0011500D02*
D03*
D17*
X0020000Y-0064200D02*
D03*
X0003937Y-0003937D02*
D03*
X0022650Y-0003937D02*
D03*
X0003937Y-0013900D02*
D03*
Y-0008918D02*
D03*
X0022650Y-0008918D02*
D03*
Y-0013900D02*
D03*
X0003924Y-0070815D02*
D03*
Y-0075797D02*
D03*
X0022638Y-0075797D02*
D03*
Y-0070815D02*
D03*
X0003924Y-0080778D02*
D03*
X0022638Y-0080778D02*
D03*
M02*
