M48
;Layer_Color=9474304
;FILE_FORMAT=2:5
INCH
;TYPE=PLATED
T3F00S00C0.03346
T4F00S00C0.03937
T5F00S00C0.12598
;TYPE=NON_PLATED
T1F00S00C0.03937
T2F00S00C0.05118
%
T03
X0223500Y0245905
X0232000
X0232268Y0256555
Y0264429
Y0272303
X0224394
Y0264429
Y0256555
X0240000Y0251905
X0240500Y0270406
Y0278594
X0232268Y0280177
Y0288051
X0224394
Y0280177
X0216000Y0278594
Y0270406
X0224394Y0295925
Y0303799
X0232268
Y0295925
Y0311673
X0224394
T04
X0215500Y0296094
X0240500
X0233000Y0320094
X0224000
T05
X0227984Y0146728
Y0461728
T01
X0223500Y0235995
X0232000
X0240000Y0241995
X0240500Y0260494
X0216000
Y0288506
X0240500
T02
X0215500Y0307906
X0240500
X0233000Y0331906
X0224000
M30
